<svg xmlns="http://www.w3.org/2000/svg" width="920" height="381.074" viewBox="0 0 920 381.074">
  <g id="Grupo_1004298" data-name="Grupo 1004298" transform="translate(11502 6288.294)">
    <g id="Grupo_901236" data-name="Grupo 901236" transform="translate(-11367.758 -5906.391) rotate(-139)">
      <path id="Trazado_122906" data-name="Trazado 122906" d="M68.692,4.517a195.335,195.335,0,0,0-25.468,8.434A251.084,251.084,0,0,0,18.6,24.56a39.652,39.652,0,0,0-9.369,6.7C6.593,33.91,4.1,37.171.913,39.182c-1.834,1.159-.687,4.269,1.519,3.6.281-.083.523-.214.792-.315,7.7,3.3,15.127,7.389,22.522,11.317,6.918,3.675,13.961,7.087,20.642,11.189C57.518,71.81,70.619,81.767,84.468,80.762c6.118-.445,11.729-3.626,16.487-7.319,5.5-4.264,9.655-11.051,16.815-12.583,12.119-2.592,24.184,3.7,36.282,3.719,7.566.01,19.472-.875,22-9.728,2.922-10.234-6.191-19.779-14.606-23.733A93.979,93.979,0,0,0,145.5,25.849c-6.433-1.709-12.041-3.5-17.461-7.564-5.28-3.959-9.915-8.7-15.328-12.5A32.544,32.544,0,0,0,93.123,0C84.932.108,76.566,2.457,68.692,4.517Z" transform="translate(1.264 0)" fill="#add031"/>
      <g id="Grupo_86435" data-name="Grupo 86435" transform="translate(0 33.935)">
        <path id="Trazado_122907" data-name="Trazado 122907" d="M173.774,16.145c-10.509-2.7-20.688-6.566-31.312-8.853a299.354,299.354,0,0,0-33.227-4.915C97.671,1.231,86.041,1.27,74.446.538a216.648,216.648,0,0,0-34.98.346C26.62,2.132,13.86,3.127,1.173,5.565c-1.526.292-1.6,2.93,0,3.157C6.156,9.431,11.258,7.373,16.2,6.8c5.954-.69,11.887-1.068,17.857-1.565,11.484-.956,22.608-1.9,34.152-1.292,23.03,1.219,46.39.974,69.214,4.688,12.208,1.985,23.842,6.478,35.925,9.054,1,.214,1.425-1.279.424-1.537Z" transform="translate(0 0)" fill="#36753c"/>
      </g>
      <g id="Grupo_86436" data-name="Grupo 86436" transform="translate(43.572 36.965)">
        <path id="Trazado_122908" data-name="Trazado 122908" d="M49.483,36.663A151.383,151.383,0,0,1,23.211,20.009a151.917,151.917,0,0,1-11.616-9.991C9.836,8.335,8.133,6.6,6.435,4.858,4.77,3.15,3.143,1.089.947.061.5-.148-.16.2.035.761.741,2.775,2.262,4.267,3.713,5.786c1.87,1.959,3.868,3.808,5.876,5.626,3.855,3.5,7.822,6.874,11.945,10.051A136.071,136.071,0,0,0,48.7,38c.893.4,1.688-.893.781-1.339Z" transform="translate(0 0)" fill="#36753c"/>
      </g>
      <g id="Grupo_86437" data-name="Grupo 86437" transform="translate(62.995 10.373)">
        <path id="Trazado_122909" data-name="Trazado 122909" d="M1.141,25.511c7.129-5.29,14.231-10.5,22.095-14.664A90.27,90.27,0,0,1,35.647,5.385c4.282-1.505,8.749-2.469,12.94-4.2A.6.6,0,0,0,48.428.015c-4.5-.167-8.905,1.128-13.135,2.581A95.082,95.082,0,0,0,22.535,8.073,86.015,86.015,0,0,0,.2,24.295c-.586.6.206,1.758.938,1.216Z" transform="translate(0 0)" fill="#36753c"/>
      </g>
      <g id="Grupo_86438" data-name="Grupo 86438" transform="translate(131.936 41.233)">
        <path id="Trazado_122910" data-name="Trazado 122910" d="M26.563,17.181a66.581,66.581,0,0,1-13.82-7.655C10.568,8.018,8.5,6.393,6.489,4.682,5.473,3.817,4.473,2.937,3.479,2.049A7.825,7.825,0,0,0,.757.03C.184-.144-.137.478.056.939.527,2.051,1.7,2.791,2.59,3.562Q4.11,4.871,5.661,6.143c2.092,1.709,4.222,3.391,6.4,4.985a48.876,48.876,0,0,0,14.143,7.335c.828.26,1.135-.982.354-1.281Z" transform="translate(0 0)" fill="#36753c"/>
      </g>
      <g id="Grupo_86439" data-name="Grupo 86439" transform="translate(107.395 31.655)">
        <path id="Trazado_122911" data-name="Trazado 122911" d="M40.375.359C33.25.257,26.134-.324,19.018.249A56.35,56.35,0,0,0,9.086,1.807a44.716,44.716,0,0,0-5.11,1.672c-1.3.518-2.9.985-3.839,2.05-.281.318-.117.943.375.909,1.464-.109,2.823-.951,4.212-1.414A44.806,44.806,0,0,1,9.61,3.708a84.966,84.966,0,0,1,10.4-1.532c6.785-.583,13.565-.8,20.368-.888a.465.465,0,0,0,0-.93Z" transform="translate(0 0)" fill="#36753c"/>
      </g>
    </g>
    <rect id="Rect치ngulo_35059" data-name="Rect치ngulo 35059" width="835" height="338" rx="20" transform="translate(-11417 -6288.294)" fill="#eff5d6"/>
    <g id="formas_decoracion" data-name="formas decoracion" transform="matrix(-0.391, -0.921, 0.921, -0.391, -11438.915, -6110.571)">
      <path id="Trazado_123280" data-name="Trazado 123280" d="M354.3,318.234c-1.561,0-3.122.013-4.684,0a9.516,9.516,0,0,1-1.7-.115,2.76,2.76,0,0,1-2.291-3.468,17.5,17.5,0,0,1,.832-2.636c2.815-7.218,5.887-14.333,9.393-21.23.512-1.011,1.1-2,1.676-2.969a10.043,10.043,0,0,1,.87-1.216c1.548-1.817,3.442-1.894,5.157-.192a11.322,11.322,0,0,1,2.022,2.994,57.292,57.292,0,0,1,3.033,7.269c1.446,4.159,2.815,8.344,3.916,12.618a11.269,11.269,0,0,1,.409,2.521,4.036,4.036,0,0,1-2.815,4.3,19.517,19.517,0,0,1-4.351,1A98.238,98.238,0,0,1,354.3,318.234Zm.819-3.481a87.037,87.037,0,0,0,11.671-1.28c2.879-.486,3.135-.87,2.367-3.673-.832-3.02-1.753-6-2.687-9a66.271,66.271,0,0,0-3.57-9.367,23.25,23.25,0,0,0-1.408-2.38.5.5,0,0,0-.87.051c-.755,1.28-1.548,2.559-2.227,3.89-3.174,6.3-5.989,12.746-8.625,19.285-.128.333-.269.653-.371,1-.333,1.113-.1,1.459,1.024,1.472C351.987,314.766,353.549,314.753,355.123,314.753Z" transform="matrix(0.438, -0.899, 0.899, 0.438, -424.062, 215.795)" fill="#ffa993"/>
    </g>
    <rect id="Rect치ngulo_35060" data-name="Rect치ngulo 35060" width="66" height="15" transform="translate(-11417 -6288.294)" fill="#adce32"/>
    <g id="Grupo_901237" data-name="Grupo 901237" transform="translate(-11314.728 -5924.26) rotate(177)">
      <path id="Trazado_122906-2" data-name="Trazado 122906" d="M46.886,3.083A133.326,133.326,0,0,0,29.5,8.84a171.378,171.378,0,0,0-16.809,7.924A27.065,27.065,0,0,0,6.3,21.336c-1.8,1.81-3.5,4.036-5.676,5.408A1.351,1.351,0,0,0,1.659,29.2c.192-.057.357-.146.541-.215,5.257,2.251,10.325,5.044,15.372,7.724,4.722,2.508,9.529,4.837,14.089,7.637,7.6,4.667,16.54,11.463,25.993,10.777,4.176-.3,8.005-2.475,11.253-5,3.751-2.91,6.59-7.543,11.477-8.589,8.272-1.769,16.507,2.524,24.764,2.539,5.164.007,13.29-.6,15.015-6.64,1.995-6.985-4.226-13.5-9.97-16.2a64.146,64.146,0,0,0-10.884-3.6c-4.391-1.166-8.219-2.388-11.918-5.163-3.6-2.7-6.768-5.941-10.462-8.532A22.213,22.213,0,0,0,63.562,0C57.97.074,52.26,1.677,46.886,3.083Z" transform="translate(0.862 0)" fill="#add031"/>
      <g id="Grupo_86435-2" data-name="Grupo 86435" transform="translate(0 23.162)">
        <path id="Trazado_122907-2" data-name="Trazado 122907" d="M118.61,11.02c-7.173-1.842-14.121-4.482-21.372-6.043A204.325,204.325,0,0,0,74.559,1.622C66.665.84,58.728.867,50.813.367A147.874,147.874,0,0,0,26.938.6C18.17,1.455,9.46,2.135.8,3.8-.241,4-.293,5.8.8,5.953c3.4.484,6.884-.921,10.258-1.314,4.064-.471,8.114-.729,12.188-1.068,7.838-.652,15.431-1.3,23.31-.882,15.719.832,31.664.665,47.243,3.2,8.332,1.355,16.274,4.421,24.521,6.18.681.146.972-.873.29-1.049Z" transform="translate(0 0)" fill="#36753c"/>
      </g>
      <g id="Grupo_86436-2" data-name="Grupo 86436" transform="translate(29.74 25.23)">
        <path id="Trazado_122908-2" data-name="Trazado 122908" d="M33.775,25.025A103.327,103.327,0,0,1,15.843,13.657a103.691,103.691,0,0,1-7.929-6.82c-1.2-1.148-2.363-2.332-3.522-3.522A14.141,14.141,0,0,0,.646.041C.342-.1-.109.139.024.52a9.99,9.99,0,0,0,2.51,3.429c1.276,1.337,2.64,2.6,4.011,3.84,2.631,2.388,5.339,4.692,8.153,6.861A92.876,92.876,0,0,0,33.242,25.938c.61.274,1.152-.61.533-.914Z" transform="translate(0 0)" fill="#36753c"/>
      </g>
      <g id="Grupo_86437-2" data-name="Grupo 86437" transform="translate(42.998 7.081)">
        <path id="Trazado_122909-2" data-name="Trazado 122909" d="M.779,17.413A119.232,119.232,0,0,1,15.86,7.4a61.614,61.614,0,0,1,8.471-3.728C27.254,2.648,30.3,1.99,33.163.812a.41.41,0,0,0-.108-.8,25.033,25.033,0,0,0-8.966,1.762A64.9,64.9,0,0,0,15.382,5.51,58.71,58.71,0,0,0,.139,16.583c-.4.412.141,1.2.64.83Z" transform="translate(0 0)" fill="#36753c"/>
      </g>
      <g id="Grupo_86438-2" data-name="Grupo 86438" transform="translate(90.053 28.144)">
        <path id="Trazado_122910-2" data-name="Trazado 122910" d="M18.131,11.727A45.445,45.445,0,0,1,8.7,6.5C7.213,5.473,5.8,4.364,4.429,3.2,3.736,2.605,3.053,2,2.374,1.4A5.341,5.341,0,0,0,.516.021C.125-.1-.093.326.038.641a5.667,5.667,0,0,0,1.73,1.79q1.037.893,2.1,1.762C5.292,5.359,6.746,6.508,8.236,7.6A33.361,33.361,0,0,0,17.889,12.6c.565.178.775-.67.242-.875Z" transform="translate(0 0)" fill="#36753c"/>
      </g>
      <g id="Grupo_86439-2" data-name="Grupo 86439" transform="translate(73.303 21.607)">
        <path id="Trazado_122911-2" data-name="Trazado 122911" d="M27.558.245C22.695.175,17.838-.221,12.981.17A38.462,38.462,0,0,0,6.2,1.233,30.521,30.521,0,0,0,2.714,2.375a6.684,6.684,0,0,0-2.62,1.4c-.192.217-.08.644.256.62a12.527,12.527,0,0,0,2.875-.965,30.582,30.582,0,0,1,3.335-.9,57.994,57.994,0,0,1,7.1-1.045c4.631-.4,9.259-.546,13.9-.606a.318.318,0,0,0,0-.635Z" transform="translate(0 0)" fill="#36753c"/>
      </g>
    </g>
  </g>
</svg>
