<svg xmlns="http://www.w3.org/2000/svg" xmlns:xlink="http://www.w3.org/1999/xlink" width="286.884" height="352.608" viewBox="0 0 286.884 352.608">
  <defs>
    <clipPath id="clip-path">
      <path id="Trazado_123202" data-name="Trazado 123202" d="M222.127,598.97,19.76,600.158V353.79s13.826-95.011,99.619-95.011,102.748,92,102.748,92V598.945Z" transform="translate(-19.76 -258.78)" fill="#e2c5ba"/>
    </clipPath>
  </defs>
  <g id="Grupo_1004315" data-name="Grupo 1004315" transform="translate(11855.884 2674.309)">
    <g id="Grupo_1004314" data-name="Grupo 1004314" transform="translate(-11882.081 -2674.309)">
      <g id="Grupo_86580" data-name="Grupo 86580" transform="translate(34.322 2.959)">
        <path id="Trazado_123181" data-name="Trazado 123181" d="M222.127,598.97,19.76,600.158V353.79s13.826-95.011,99.619-95.011,102.748,92,102.748,92V598.945Z" transform="translate(-19.76 -258.78)" fill="#e2c5ba"/>
        <g id="Grupo_86579" data-name="Grupo 86579" clip-path="url(#clip-path)">
          <path id="Trazado_123182" data-name="Trazado 123182" d="M123.433,292.044c6.307,10.648,1.722,24.3-5.336,34.492a87.043,87.043,0,0,1-38.446,30.732,30.007,30.007,0,0,1,3.42,28.986,31.949,31.949,0,0,1-23.48,18.41c22.194,31.46,17.1,74.878-1.261,108.545-1.746,3.177-3.638,6.5-3.541,10.115.073,3.056,1.577,5.918,2.983,8.659A190.39,190.39,0,0,1,75.746,650.668a235.108,235.108,0,0,0-70.318-7.107A3.722,3.722,0,0,1,2.712,643a3.448,3.448,0,0,1-.825-2.474A1557.482,1557.482,0,0,1,9.722,389.553c3.784-33.4,8.853-67.262,23.577-97.727,5.458-11.3,12.395-22.243,22.291-30.3C61.9,256.413,69.2,252.6,76.62,249.16a301.524,301.524,0,0,1,56.686-19.866c3.663-.873,8.344-1.334,10.406,1.7l-20.229,61.052Z" transform="translate(-47.925 -301.747)" fill="#cea69d"/>
          <path id="Trazado_123183" data-name="Trazado 123183" d="M82.948,294.574c-6.307,10.648-1.722,24.3,5.336,34.492A86.909,86.909,0,0,0,126.73,359.8a30.007,30.007,0,0,0-3.42,28.986,31.949,31.949,0,0,0,23.48,18.41c-22.194,31.46-17.1,74.878,1.261,108.545,1.746,3.178,3.638,6.5,3.541,10.115-.073,3.056-1.577,5.918-2.983,8.659A190.391,190.391,0,0,0,130.635,653.2a235.112,235.112,0,0,1,70.318-7.107,3.721,3.721,0,0,0,2.717-.558,3.448,3.448,0,0,0,.825-2.474,1557.482,1557.482,0,0,0-7.835-250.976c-3.784-33.4-8.853-67.262-23.577-97.727-5.458-11.3-12.395-22.243-22.291-30.3-6.307-5.118-13.608-8.926-21.03-12.371a301.52,301.52,0,0,0-56.686-19.866c-3.663-.873-8.344-1.334-10.406,1.7L82.9,294.574Z" transform="translate(41.412 -298.14)" fill="#cea69d"/>
          <path id="Trazado_123187" data-name="Trazado 123187" d="M111.334,360.184a262.989,262.989,0,0,0-14.845,39.464c-3.517,12.273-6.282,25.1-5.264,37.936a50.353,50.353,0,0,0,5.627,19.963c.485.922,1.892.1,1.383-.825-5.87-10.964-6.452-23.771-4.8-35.9a139.184,139.184,0,0,1,3.978-18.58c1.819-6.622,3.929-13.171,6.282-19.623q4-11.024,9.023-21.636c.437-.946-.946-1.746-1.383-.825h0Z" transform="translate(81.816 -114.835)" fill="#b28780"/>
          <path id="Trazado_123188" data-name="Trazado 123188" d="M106.5,365.706a115.657,115.657,0,0,0-9.339,52.417,119.469,119.469,0,0,0,1.819,14.966c.194,1.019,1.746.582,1.552-.437a113.323,113.323,0,0,1-1.819-26.245,114.309,114.309,0,0,1,9.169-39.877c.412-.946-.97-1.771-1.383-.825Z" transform="translate(90.317 -106.944)" fill="#b28780"/>
        </g>
      </g>
      <g id="Grupo_86581" data-name="Grupo 86581" transform="translate(28.717)">
        <path id="Trazado_123203" data-name="Trazado 123203" d="M17.84,605.414V355.336A147.48,147.48,0,0,1,35.935,306.63c8.49-14.214,18.968-25.542,31.193-33.692,15.305-10.212,33.328-15.378,53.557-15.378s38.349,5,53.969,14.869c12.468,7.883,23.334,18.847,32.285,32.6a143.073,143.073,0,0,1,19.672,47.178l.048.291V604.153L17.84,605.39Zm6.452-249.351V598.938l195.915-1.164V353.128a140.149,140.149,0,0,0-18.8-44.728c-19.235-29.447-46.377-44.364-80.724-44.364s-61,15.451-79.2,45.941a142.389,142.389,0,0,0-17.173,46.111Z" transform="translate(-16.892 -257.56)" fill="#ffe9e1"/>
        <path id="Trazado_123204" data-name="Trazado 123204" d="M221.953,295.89H20.677a3.226,3.226,0,1,0,0,6.452H221.953a3.226,3.226,0,1,0,0-6.452Z" transform="translate(-17.449 -202.917)" fill="#ffe9e1"/>
        <path id="Trazado_123205" data-name="Trazado 123205" d="M146.788,322.17a35.107,35.107,0,0,0-2.474-10.648,56.274,56.274,0,0,0-6.864-12.759,55.391,55.391,0,0,0-12.3-12.322,49.26,49.26,0,0,0-17.173-7.81,67.368,67.368,0,0,0-22.7-1.019,63.054,63.054,0,0,0-19.72,5.069,39.282,39.282,0,0,0-19.623,19.259A62.1,62.1,0,0,0,42,312.832c-.776,2.862-1.358,5.8-2.135,8.659-.146.558-.315,1.116-.485,1.674a3.234,3.234,0,0,0,6.234,1.722c.825-2.547,1.334-5.215,1.989-7.81a72.568,72.568,0,0,1,3.008-9.8c.073-.194.17-.388.243-.606.073-.146.243-.582,0,0-.267.631-.049.121,0-.024.17-.412.364-.825.558-1.237.412-.873.849-1.722,1.31-2.571.485-.873.994-1.7,1.528-2.523.267-.412.534-.8.825-1.213a5.7,5.7,0,0,1,.461-.606c.073-.1.121-.17.194-.267l-.291.388c.049-.049.1-.121.146-.17a34.477,34.477,0,0,1,4.39-4.633c.437-.364.849-.728,1.31-1.091.121-.1.218-.17.34-.267.243-.194-.485.388-.412.315a1.017,1.017,0,0,1,.194-.146c.243-.17.461-.34.7-.509q1.492-1.055,3.056-1.965c1.092-.631,2.207-1.213,3.372-1.746.291-.121.558-.267.849-.388.121-.048.728-.315.146-.073-.558.243.073-.024.218-.1.655-.267,1.31-.509,1.965-.752a56.906,56.906,0,0,1,8.926-2.353c.849-.146,1.7-.291,2.547-.412.194-.024.364-.048.558-.073h0c.485-.073.97-.121,1.455-.17,1.868-.194,3.76-.34,5.652-.437a73.523,73.523,0,0,1,11.085.364c-.049,0-.849-.121-.315-.049a1.033,1.033,0,0,1,.267.049c.218.024.412.073.631.1l1.237.218c.825.146,1.625.315,2.426.509q2.292.546,4.512,1.31,1.092.364,2.183.8c.17.073.364.146.534.218l-.17-.073c.364.17.728.315,1.116.485,1.334.631,2.644,1.31,3.905,2.038,1.213.7,2.377,1.48,3.517,2.28.291.194.558.412.849.631.121.1.243.17.364.267.388.291-.655-.509-.073-.049l1.6,1.31a50.486,50.486,0,0,1,5.555,5.6c.412.485.825.995,1.213,1.48.364.461-.291-.388-.17-.218l.291.364c.194.243.364.509.558.752.728.995,1.407,2.013,2.062,3.032a50.844,50.844,0,0,1,3.226,5.991c.121.243.218.485.34.728.049.1.1.218.146.315a.862.862,0,0,0,.1.218c.146.315-.34-.8-.194-.461.194.485.388.946.582,1.431.34.9.655,1.795.946,2.717a30.931,30.931,0,0,1,1.164,4.924.909.909,0,0,0,.024.243c.073.534-.073-.679-.073-.509s.048.315.048.485c.024.34.073.655.073.995a3.226,3.226,0,0,0,6.452,0h0Z" transform="translate(13.643 -229.683)" fill="#ffe9e1"/>
        <path id="Trazado_123206" data-name="Trazado 123206" d="M132.231,267.079q-8.769,14.7-17.537,29.423-8.769,14.7-17.537,29.422c-3.3,5.53-6.6,11.085-9.9,16.615h5.579q-7.9-15.572-16.373-30.854-8.4-15.172-17.367-30.053-5.094-8.441-10.333-16.785a3.228,3.228,0,1,0-5.579,3.25Q52.5,282.906,61.306,298.03q8.7,14.99,16.882,30.32,4.621,8.66,9.072,17.44c1.116,2.207,4.39,1.989,5.579,0q8.769-14.7,17.537-29.422,8.769-14.7,17.537-29.422c3.3-5.53,6.6-11.085,9.9-16.615a3.228,3.228,0,1,0-5.579-3.25h0Z" transform="translate(18.619 -249.469)" fill="#ffe9e1"/>
      </g>
      <path id="Trazado_123207" data-name="Trazado 123207" d="M49.578,372.524a191.077,191.077,0,0,0,66.655.388c2.935,24.547,12.977,46.668,11.328,71.337-.073,1.189-33.376,2.547-46.062,0-1.771-10.842-5.167-14.093-7.98-24.717-3.226,10.551-4.609,13.777-6.4,24.644a165.43,165.43,0,0,1-41.4.946c1.334-24.523,2.862-38.931,4.584-63.429L49.578,372.5Z" transform="translate(23.044 -93.702)" fill="#6da8c6"/>
      <path id="Trazado_123208" data-name="Trazado 123208" d="M60.662,323.726c4.148,1.7,8.3,3.372,12.468,5.069,2.717-6.622,2.741-14.384,7.859-19.356a59.08,59.08,0,0,0,4.342-4.2,24.3,24.3,0,0,0,3.784-7.35c2.232-6.088,5.312-13.413,6.379-20.157a1.067,1.067,0,0,0-1.7-1.019c-2.862,2.159-4.439,6.355-6.355,9.484,1.965-3.954,5.8-11.352,4.318-15.621a.662.662,0,0,0-1.164-.17c-2.838,4.051-6.695,10.794-7.81,15.136,2.765-4.245,5.894-11.837,5.87-17.392a.656.656,0,0,0-1.189-.388c-3.881,5.288-8.684,13.1-10.891,18.7,1.6-5.118,4.051-13.947,3.323-19.259-1.552.9-4.245,5.991-4.875,7.641-2.062,5.458-4.124,10.939-6.161,16.4-1.237-1.6.049-13.074-4.342-12.468-1.043.146.315,12.928-.994,15.96-1.116,2.571-1.819,5.7-.291,8.053a9.454,9.454,0,0,1,1.552,2.4c.243.946-7.131,14.7-8.3,17.755l4.2.8Z" transform="translate(66.924 -243.803)" fill="#fed5b7"/>
      <path id="Trazado_123209" data-name="Trazado 123209" d="M59.971,273.362a4.028,4.028,0,0,1,3.1,2.959c.679,1.916.437,3.954.534,5.943a11.981,11.981,0,0,0,.461,3.08,12.836,12.836,0,0,0,1.286,2.741,9.938,9.938,0,0,1,1.771,5.167,7.44,7.44,0,0,1-2.329,5.215c-.752.7.388,1.843,1.14,1.14a9.013,9.013,0,0,0,1.649-10.867c-.534-.995-1.164-1.94-1.625-2.959a9.725,9.725,0,0,1-.752-3.517c-.1-2.159.146-4.39-.606-6.476-.679-1.892-2.086-3.711-4.2-4a.849.849,0,0,0-.994.558c-.1.364.121.946.558.995h0Z" transform="translate(71.059 -237.293)" fill="#7c4420"/>
      <path id="Trazado_123210" data-name="Trazado 123210" d="M68.552,286.024A82.648,82.648,0,0,0,75.1,269.457a.807.807,0,0,0-1.552-.437A80.749,80.749,0,0,1,67.17,285.2c-.485.922.9,1.746,1.383.825h0Z" transform="translate(82.004 -242.024)" fill="#7c4420"/>
      <path id="Trazado_123211" data-name="Trazado 123211" d="M64.069,275.113a76.4,76.4,0,0,0,13.7,6.913c.97.388,1.383-1.188.437-1.552a76.369,76.369,0,0,1-13.317-6.767c-.873-.558-1.7.825-.825,1.383h0Z" transform="translate(77.198 -234.727)" fill="#7c4420"/>
      <path id="Trazado_123212" data-name="Trazado 123212" d="M66.3,283.984q4.475-7.859,9.363-15.451c.558-.873-.825-1.7-1.383-.825-3.25,5.069-6.379,10.236-9.363,15.451-.509.9.873,1.722,1.383.825Z" transform="translate(78.777 -243.622)" fill="#7c4420"/>
      <path id="Trazado_123213" data-name="Trazado 123213" d="M81.119,271.086c-3.541,2.038-4.536,6.21-5.8,9.8a8.017,8.017,0,0,1-1.237,2.741,2.956,2.956,0,0,1-1.431.631,6.445,6.445,0,0,0-1.455.631,10.031,10.031,0,0,0-3.978,4.851c-1.164,2.692-1.5,5.627-2.5,8.393-.364.97,1.213,1.407,1.552.437,1.455-4,1.552-9.678,5.579-12.176.922-.558,2.037-.606,2.911-1.213a5.244,5.244,0,0,0,1.625-2.523c.7-1.746,1.189-3.566,1.892-5.336a9.11,9.11,0,0,1,3.663-4.827.805.805,0,0,0-.825-1.383h0Z" transform="translate(78.582 -238.413)" fill="#7c4420"/>
      <path id="Trazado_123214" data-name="Trazado 123214" d="M39.774,387.7a44.71,44.71,0,0,1,5.118-39.853c5.361-7.81,13.122-13.68,19.089-21.03,9.8-12.055,13.365-27.458,22.194-40.071a2.3,2.3,0,0,1,3.347-.485c3.42,2.911,9.339,3.638,13.583,5.094a2.715,2.715,0,0,1,2.11,3.881c-3.711,18.507-7.592,37.4-17.076,53.727-1.577,2.717-3.323,5.409-4.1,8.441-.728,2.935-.509,6.016-.873,9.023-1.019,8.15-6.307,15.014-10.042,22.34-2.3,4.512-4.075,9.339-6.792,13.632s-6.622,8.15-11.546,9.363c-6.961,1.722-14.869-3.008-16.688-9.945l1.7-14.093Z" transform="translate(39.47 -217.379)" fill="#7a1a1a"/>
      <path id="Trazado_123215" data-name="Trazado 123215" d="M81.086,334.1l11.788,6.476c3.469-6.258,4.39-13.971,10.066-18.313a54.51,54.51,0,0,0,4.8-3.663,24.029,24.029,0,0,0,4.609-6.864c2.935-5.8,6.84-12.71,8.684-19.259a1.06,1.06,0,0,0-1.552-1.213c-3.081,1.819-5.142,5.8-7.422,8.684,2.426-3.711,9.242-12.516,8.247-16.931-.121-.534-2.935,1.189-3.275,1.6-3.3,3.687-7.907,9.945-9.508,14.117,3.25-3.881,7.228-11.085,7.859-16.591a.664.664,0,0,0-1.14-.534c-4.463,4.8-10.163,12.007-13,17.294,2.183-4.9,5.627-13.365,5.53-18.75-1.649.7-4.924,5.458-5.724,7.034-2.668,5.191-5.361,10.382-8.029,15.572-1.043-1.722,1.577-12.977-2.862-12.88-1.067.024-1.189,12.88-2.838,15.742-1.407,2.426-2.474,5.458-1.213,7.956a9.048,9.048,0,0,1,1.261,2.571c.146.97-8.8,13.753-10.309,16.664l4.075,1.286Z" transform="translate(96.249 -225.356)" fill="#fed5b7"/>
      <path id="Trazado_123216" data-name="Trazado 123216" d="M84.854,332.713c8.344,13.389,11.594,25.2,18.8,39.416,13.341,26.293,7.641,46.887,14.117,78.2.218,1.067-28.185,28.525-48.463,15.475-12.225-7.859-42.982-11.158-42.715-11.982,12.176-40.774,11.328-53.048,5.87-77.74-3.3-14.869-4.245-29.3,1.795-41.526,11.57-23.456,50.6-1.819,50.6-1.819Z" transform="translate(24.298 -163.358)" fill="#c23f37"/>
      <path id="Trazado_123217" data-name="Trazado 123217" d="M58.138,300.46c6.816,8.344,13.341,20.254,20.157,28.6,2.789,3.42,5.749,7.447,4.924,11.788-1.043,5.458-10.5,8.878-15.912,10.77,2.692,6.816,8.708,18.022,8.126,16.445A30.278,30.278,0,0,1,52.9,374.707c-1.092-.121-27.021-49.555-29.059-55.789l34.322-18.435Z" transform="translate(20.379 -196.402)" fill="#fed5b7"/>
      <path id="Trazado_123218" data-name="Trazado 123218" d="M84.845,302.067c3.372-4.124,5.579-8.975,7.956-13.68.582-1.14,1.189-2.3,1.819-3.42.315-.558.631-1.116.97-1.674a5.276,5.276,0,0,1,1.213-1.6c.412-.315.679-.291.728.267a8.163,8.163,0,0,1-.243,2.013q-.364,2.11-.873,4.22a49.31,49.31,0,0,1-3.323,9.169c-.437.922.922,1.746,1.383.825a67.192,67.192,0,0,1,5.458-9.169c1.019-1.455,2.11-2.862,3.25-4.221a17.364,17.364,0,0,1,1.674-1.868c.388-.34,1.261-1.043,1.771-.606-.073-.267-.146-.534-.218-.776a43.651,43.651,0,0,1-7.3,15.742c.461.267.922.534,1.383.825l5.336-9.144a34.844,34.844,0,0,1,2.353-3.857,3.479,3.479,0,0,1,3.1-1.7c-.267-.194-.509-.388-.776-.582.558,1.358.049,2.717-.461,4-.558,1.431-1.164,2.838-1.795,4.245-1.261,2.765-2.644,5.482-4.148,8.126.461.267.922.534,1.383.825a16.055,16.055,0,0,1,6.452-7.325c-.364-.1-.728-.194-1.116-.291.655.873,0,2.159-.34,3.056-.388,1.091-.776,2.159-1.213,3.226q-1.237,3.129-2.765,6.112a61.706,61.706,0,0,1-7.059,10.915,73.2,73.2,0,0,1-5.215,5.773.807.807,0,0,0,1.14,1.14,66.312,66.312,0,0,0,15.4-23.431c.509-1.31,1.019-2.62,1.455-3.954.412-1.164.752-2.571-.049-3.663a.851.851,0,0,0-1.116-.291,17.386,17.386,0,0,0-7.034,7.907c-.412.922.873,1.746,1.383.825,1.407-2.474,2.692-4.972,3.881-7.543.582-1.261,1.14-2.523,1.649-3.784a16.952,16.952,0,0,0,1.286-3.881c.146-.97.17-2.886-1.14-3.008a4.046,4.046,0,0,0-2.838.873c-1.94,1.455-3.008,3.881-4.2,5.918l-5.069,8.684c-.534.922.8,1.625,1.383.825a44.574,44.574,0,0,0,7.471-16.13.765.765,0,0,0-.218-.776c-1.455-1.237-3.275-.243-4.415.946a50.117,50.117,0,0,0-3.808,4.681,68.762,68.762,0,0,0-6.452,10.527c.461.267.922.534,1.383.825a51.565,51.565,0,0,0,3.323-8.95c.412-1.577.776-3.2,1.043-4.8.194-1.213.679-2.911-.243-3.929-.97-1.067-2.4-.509-3.25.364a16.947,16.947,0,0,0-2.3,3.614c-1.455,2.62-2.717,5.336-4.1,8.029a46.146,46.146,0,0,1-5.264,8.465c-.655.8.485,1.94,1.14,1.14h0Z" transform="translate(105.2 -225.685)" fill="#7c4420"/>
      <path id="Trazado_123219" data-name="Trazado 123219" d="M84.544,296.793c.873.7,1.771,1.431,2.644,2.135a.847.847,0,0,0,.582.243.9.9,0,0,0,.582-.243.828.828,0,0,0,0-1.14l-2.644-2.135a.847.847,0,0,0-.582-.243.9.9,0,0,0-.582.243.828.828,0,0,0,0,1.14Z" transform="translate(106.593 -203.601)" fill="#7c4420"/>
      <path id="Trazado_123220" data-name="Trazado 123220" d="M63.656,284.921l7.422-16.688c-.243.121-.461.267-.7.388,1.237,0,.34,4.415.243,5.069a39.962,39.962,0,0,1-1.819,7.083c-.34.97,1.213,1.407,1.552.437a39.13,39.13,0,0,0,2.037-8.781c.194-1.7.655-5.409-2.037-5.409a.814.814,0,0,0-.7.388c-2.474,5.555-4.948,11.133-7.422,16.688-.412.946.97,1.771,1.383.825h0Z" transform="translate(74.991 -244.074)" fill="#7c4420"/>
      <path id="Trazado_123221" data-name="Trazado 123221" d="M64.563,418.466c11.91,4.172,25.056-2.135,34.468-10.527a80.387,80.387,0,0,0,16.494-20.545c2.814-5,5.118-10.357,8.9-14.651,3.638-4.124,8.441-7.058,12.1-11.133,7.253-8.029,9.266-19.332,12.613-29.641a104.743,104.743,0,0,1,10.964-23.431,2.889,2.889,0,0,0-1.14-4.124,113.215,113.215,0,0,0-16.082-6.622,4.125,4.125,0,0,0-2.4-.267,4.229,4.229,0,0,0-2.037,1.819,283.531,283.531,0,0,1-22.121,26.973c-4.512,4.851-9.314,9.63-15.208,12.686-2.717,1.383-5.6,2.4-8.3,3.832-7.932,4.2-12.007,13.9-20.084,17.78-9.436,4.536-26,14.19-34.419,17.149-11.473-6.161,10.236,18,13.753,29.5,1.116,3.614,2.4,7.3,5,10.066s6.67,4.39,10.26,3.2l-2.789-2.013Z" transform="translate(36.293 -200.721)" fill="#c23f37"/>
      <path id="Trazado_123222" data-name="Trazado 123222" d="M78.751,298.718a50.7,50.7,0,0,1,19.623,8.223c.849.606,1.649-.8.825-1.383a51.547,51.547,0,0,0-20.011-8.368c-1.019-.194-1.455,1.358-.437,1.552h0Z" transform="translate(97.832 -201.088)" fill="#7a1a1a"/>
      <path id="Trazado_123223" data-name="Trazado 123223" d="M86.991,300.618l-2.838,4.876a.828.828,0,0,0,.291,1.116.851.851,0,0,0,1.116-.291l2.838-4.875a.828.828,0,0,0-.291-1.116.851.851,0,0,0-1.116.291Z" transform="translate(106.207 -196.73)" fill="#7a1a1a"/>
      <path id="Trazado_123224" data-name="Trazado 123224" d="M85.85,299.718a33.542,33.542,0,0,0-3.153,5.894.8.8,0,0,0,.558.995.849.849,0,0,0,.994-.558,32.691,32.691,0,0,1,2.983-5.506.815.815,0,0,0-1.407-.825h0Z" transform="translate(104.22 -198.037)" fill="#7a1a1a"/>
      <path id="Trazado_123225" data-name="Trazado 123225" d="M84.936,298.8a20.8,20.8,0,0,0-3.832,5.943.845.845,0,0,0,.291,1.116.828.828,0,0,0,1.116-.291,19.853,19.853,0,0,1,3.59-5.627.806.806,0,1,0-1.14-1.14h0Z" transform="translate(101.883 -199.087)" fill="#7a1a1a"/>
      <path id="Trazado_123226" data-name="Trazado 123226" d="M82.257,298.434l-2.983,4.657a.815.815,0,1,0,1.407.825l2.983-4.657a.851.851,0,0,0-.291-1.116.828.828,0,0,0-1.116.291Z" transform="translate(99.25 -199.858)" fill="#7a1a1a"/>
      <path id="Trazado_123227" data-name="Trazado 123227" d="M80.376,297.934c-.922,1.868-1.868,3.76-2.789,5.627a.851.851,0,0,0,.291,1.116.822.822,0,0,0,1.116-.291c.922-1.868,1.868-3.76,2.789-5.627a.851.851,0,0,0-.291-1.116.822.822,0,0,0-1.116.291Z" transform="translate(96.862 -200.571)" fill="#7a1a1a"/>
      <path id="Trazado_123228" data-name="Trazado 123228" d="M78.481,302.392a55.794,55.794,0,0,1,14.893,4.972c.922.461,1.746-.922.825-1.383a56.774,56.774,0,0,0-15.281-5.142c-1.019-.194-1.455,1.358-.437,1.552h0Z" transform="translate(97.447 -195.884)" fill="#7a1a1a"/>
      <path id="Trazado_123229" data-name="Trazado 123229" d="M68.91,325.325l4.148,7.35a.805.805,0,0,0,1.383-.825l-4.148-7.35a.805.805,0,0,0-1.383.825Z" transform="translate(84.46 -162.689)" fill="#7a1a1a"/>
      <path id="Trazado_123230" data-name="Trazado 123230" d="M70.577,324.819c.995,1.965,2.013,3.929,3.008,5.894A.822.822,0,0,0,74.7,331a.845.845,0,0,0,.291-1.116c-.995-1.965-2.013-3.929-3.008-5.894a.822.822,0,0,0-1.116-.291.845.845,0,0,0-.291,1.116Z" transform="translate(86.868 -163.42)" fill="#7a1a1a"/>
      <path id="Trazado_123231" data-name="Trazado 123231" d="M56.351,324.6c-4.39,3.153-7.544,7.81-9.9,12.613a50.653,50.653,0,0,0-4.972,16.057c-.776,5.943-.049,12.54,3.978,17.246,3.857,4.487,9.872,6.282,15.524,6.961a94.4,94.4,0,0,0,11.109.558,49.986,49.986,0,0,0,11.4-1.164c1.019-.243.582-1.795-.437-1.552-6.331,1.48-13,1.237-19.429.8-5.409-.364-11.328-1.5-15.524-5.191-4.584-4.026-5.7-10.284-5.191-16.106a46.538,46.538,0,0,1,4.124-15.063c2.3-5.142,5.482-10.382,10.115-13.729.825-.606.024-2.013-.825-1.383h0Z" transform="translate(45.136 -162.153)" fill="#7a1a1a"/>
      <path id="Trazado_123232" data-name="Trazado 123232" d="M28.414,376.177a91.633,91.633,0,0,1,31.824,8.077c4.778,2.207,9.363,5.069,14.529,6.307,5.336,1.286,10.673.218,15.645-1.916a46.151,46.151,0,0,0,14.457-9.872.807.807,0,0,0-1.14-1.14,45.04,45.04,0,0,1-12.492,8.878c-4.8,2.3-10.163,3.735-15.475,2.62-5.094-1.067-9.605-3.881-14.287-6.064a91.688,91.688,0,0,0-15.184-5.53,92.917,92.917,0,0,0-17.9-2.983c-1.043-.073-1.043,1.552,0,1.625h0Z" transform="translate(25.749 -90.781)" fill="#7a1a1a"/>
      <path id="Trazado_123233" data-name="Trazado 123233" d="M33.827,336.036c2.11,3.469,7.519,1.164,10.382.146a114.317,114.317,0,0,0,12.371-5.409c1.383-.7,3.954-2.886,2.814-4.681-.558-.873-1.965-.073-1.383.825.17.267-.315.825-.461,1.043a3.875,3.875,0,0,1-.994.995,26.608,26.608,0,0,1-2.886,1.431c-2.207,1.043-4.439,2.086-6.695,3.032a58.87,58.87,0,0,1-6.937,2.45c-1.431.388-3.832.922-4.778-.606a.805.805,0,0,0-1.383.825h0Z" transform="translate(34.502 -160.399)" fill="#7a1a1a"/>
      <path id="Trazado_123234" data-name="Trazado 123234" d="M51.9,321.54l-17.27,6.185,20.448-.024Z" transform="translate(35.761 -166.351)" fill="#7c4420" opacity="0.41"/>
      <path id="Trazado_123235" data-name="Trazado 123235" d="M64.911,313.962c.728,1.965,1.455,3.954,2.183,5.918a.827.827,0,0,0,.995.558.8.8,0,0,0,.558-.995c-.728-1.965-1.455-3.954-2.207-5.918a.827.827,0,0,0-.995-.558.8.8,0,0,0-.558.995h0Z" transform="translate(78.83 -178.614)" fill="#7a1a1a"/>
      <path id="Trazado_123236" data-name="Trazado 123236" d="M66.59,314.392c.267.17.558.34.825.534.121.1.267.194.388.291.073.049-.121-.1,0,0,.146.121.218.17.291.243a10.457,10.457,0,0,1,1.383,1.358.805.805,0,0,0,1.14,0,.828.828,0,0,0,0-1.14,14.4,14.4,0,0,0-3.178-2.644.815.815,0,1,0-.825,1.407h0Z" transform="translate(80.789 -178.631)" fill="#7a1a1a"/>
      <path id="Trazado_123237" data-name="Trazado 123237" d="M60.158,338.64c-.97,1.237-1.965,2.474-2.935,3.711a.847.847,0,0,0-.243.582.9.9,0,0,0,.243.582.805.805,0,0,0,1.14,0c.97-1.237,1.965-2.474,2.935-3.711a.847.847,0,0,0,.243-.582.9.9,0,0,0-.243-.582.805.805,0,0,0-1.14,0Z" transform="translate(67.623 -142.312)" fill="#7a1a1a"/>
      <path id="Trazado_123238" data-name="Trazado 123238" d="M59.792,340.754c-.485.631-.946,1.261-1.431,1.892a.8.8,0,0,0-.073.631.785.785,0,0,0,.994.558c.073-.024.121-.049.194-.073a.836.836,0,0,0,.291-.291c.485-.631.946-1.261,1.431-1.892a.8.8,0,0,0,.073-.631.785.785,0,0,0-.994-.558c-.073.024-.121.049-.194.073a.837.837,0,0,0-.291.291Z" transform="translate(69.444 -139.527)" fill="#7a1a1a"/>
      <path id="Trazado_123239" data-name="Trazado 123239" d="M63.895,335.507a7.552,7.552,0,0,1-.267.995c-.049.17-.121.315-.17.485,0,.024-.1.291-.049.1,0,.073-.073.146-.1.194-.146.291-.291.582-.461.873l-.291.437-.146.218c-.024.024-.049.073-.073.1h0a.847.847,0,0,0-.243.582.9.9,0,0,0,.243.582.805.805,0,0,0,1.14,0,9.7,9.7,0,0,0,1.94-4.1.836.836,0,0,0-.558-.994.816.816,0,0,0-.994.558h0Z" transform="translate(74.922 -147.233)" fill="#7a1a1a"/>
      <path id="Trazado_123240" data-name="Trazado 123240" d="M60.487,333.275c-.121.243-.243.509-.34.752a.689.689,0,0,0-.1.291v.315a.578.578,0,0,0,.146.267.626.626,0,0,0,.218.218c.073.024.121.048.194.073a.674.674,0,0,0,.437,0c.073-.024.121-.048.194-.073a.836.836,0,0,0,.291-.291c.121-.243.243-.509.34-.752a.689.689,0,0,0,.1-.291v-.315a.578.578,0,0,0-.146-.267.626.626,0,0,0-.218-.218c-.073-.024-.121-.048-.194-.073a.674.674,0,0,0-.437,0c-.073.024-.121.049-.194.073a.837.837,0,0,0-.291.291Z" transform="translate(71.999 -150.191)" fill="#7a1a1a"/>
      <path id="Trazado_123241" data-name="Trazado 123241" d="M77.913,312.161l-1.455,5.167a.806.806,0,1,0,1.552.437l1.455-5.167a.806.806,0,0,0-1.552-.437Z" transform="translate(95.347 -180.549)" fill="#7a1a1a"/>
      <path id="Trazado_123242" data-name="Trazado 123242" d="M78.516,313.614c-.34.752-.7,1.5-1.043,2.256a.807.807,0,0,0,.922,1.189.927.927,0,0,0,.485-.364c.34-.752.7-1.5,1.043-2.256A.807.807,0,0,0,79,313.251a.927.927,0,0,0-.485.364Z" transform="translate(96.684 -178.218)" fill="#7a1a1a"/>
      <path id="Trazado_123243" data-name="Trazado 123243" d="M81.678,308.871a16.842,16.842,0,0,1-1.6,5.312.851.851,0,0,0,.291,1.116.822.822,0,0,0,1.116-.291,18.727,18.727,0,0,0,1.746-5.7.836.836,0,0,0-.558-.995.815.815,0,0,0-.995.558h0Z" transform="translate(100.411 -185.239)" fill="#7a1a1a"/>
      <path id="Trazado_123244" data-name="Trazado 123244" d="M36.506,361.622a10.767,10.767,0,0,1-.049,5.482.806.806,0,1,0,1.552.437,12.537,12.537,0,0,0,.049-6.355.816.816,0,0,0-.994-.558.8.8,0,0,0-.558.995Z" transform="translate(38.324 -110.67)" fill="#7a1a1a"/>
      <path id="Trazado_123245" data-name="Trazado 123245" d="M38.329,362.178a2.735,2.735,0,0,1,.073.437v.218c0,.267.024.534,0,.825a2.22,2.22,0,0,1-.024.388v.291c-.049.267-.1.534-.17.8a.806.806,0,1,0,1.552.437,7.689,7.689,0,0,0,.121-3.784.8.8,0,0,0-.994-.558.827.827,0,0,0-.558.995h0Z" transform="translate(40.819 -109.82)" fill="#7a1a1a"/>
      <path id="Trazado_123246" data-name="Trazado 123246" d="M42.453,354.805c-.437,2.11-.873,4.221-1.31,6.307a.816.816,0,0,0,.558.995.827.827,0,0,0,.994-.558c.437-2.11.873-4.22,1.31-6.307a.816.816,0,0,0-.558-.995.827.827,0,0,0-.994.558Z" transform="translate(45.014 -119.765)" fill="#7a1a1a"/>
      <path id="Trazado_123247" data-name="Trazado 123247" d="M42.761,364.91a21.515,21.515,0,0,0,.534,6.112.8.8,0,0,0,.994.558.816.816,0,0,0,.558-.994,21.3,21.3,0,0,1-.461-5.676.824.824,0,0,0-.8-.8.808.808,0,0,0-.8.8h0Z" transform="translate(47.302 -105.663)" fill="#7a1a1a"/>
      <path id="Trazado_123248" data-name="Trazado 123248" d="M57.181,368.631c0,.873.024,1.722.049,2.6a.807.807,0,0,0,.8.8.792.792,0,0,0,.8-.8c0-.873-.024-1.722-.049-2.6a.807.807,0,0,0-.8-.8.792.792,0,0,0-.8.8Z" transform="translate(67.907 -100.36)" fill="#7a1a1a"/>
      <path id="Trazado_123249" data-name="Trazado 123249" d="M58.82,368.455c0,.606.024,1.237.049,1.843a.9.9,0,0,0,.243.582.847.847,0,0,0,.582.243.752.752,0,0,0,.582-.243.847.847,0,0,0,.243-.582c0-.606-.024-1.237-.049-1.843a.9.9,0,0,0-.243-.582.847.847,0,0,0-.582-.243.752.752,0,0,0-.582.243.847.847,0,0,0-.243.582Z" transform="translate(70.246 -100.645)" fill="#7a1a1a"/>
      <path id="Trazado_123250" data-name="Trazado 123250" d="M34.124,357.719A38.5,38.5,0,0,0,41.6,360a.836.836,0,0,0,.994-.558.849.849,0,0,0-.558-.994,37.991,37.991,0,0,1-7.471-2.28.8.8,0,0,0-.994.558.849.849,0,0,0,.558.995Z" transform="translate(34.205 -117.051)" fill="#7a1a1a"/>
      <path id="Trazado_123251" data-name="Trazado 123251" d="M33.829,359.982a16.78,16.78,0,0,1,6.6.049.816.816,0,0,0,.994-.558.827.827,0,0,0-.558-.994,19.234,19.234,0,0,0-7.447-.049.8.8,0,0,0-.558.995.816.816,0,0,0,.994.558h0Z" transform="translate(33.191 -114.245)" fill="#7a1a1a"/>
      <path id="Trazado_123252" data-name="Trazado 123252" d="M31.582,339.311a10.178,10.178,0,0,0,.461,4.269.806.806,0,1,0,1.552-.437c-.1-.315-.194-.631-.267-.946a3.481,3.481,0,0,1-.1-.534.671.671,0,0,0-.024-.218v-.121a9.311,9.311,0,0,1,0-2.013.807.807,0,0,0-.8-.8.824.824,0,0,0-.8.8h0Z" transform="translate(31.338 -142.159)" fill="#7a1a1a"/>
      <path id="Trazado_123253" data-name="Trazado 123253" d="M33.392,340.567c.267.849.558,1.7.825,2.571a.806.806,0,1,0,1.552-.437c-.267-.849-.558-1.7-.825-2.571a.806.806,0,1,0-1.552.437Z" transform="translate(33.942 -140.698)" fill="#7a1a1a"/>
      <path id="Trazado_123254" data-name="Trazado 123254" d="M39.989,315.286a5.153,5.153,0,0,0,7.471-.873.815.815,0,1,0-1.407-.825l-.073.1c-.024.048-.073.073-.1.121l-.291.291a.643.643,0,0,1-.146.121c.1-.073,0,0-.049.024l-.364.218-.146.073s-.218.1-.1.048a2.131,2.131,0,0,1-.364.121,1.82,1.82,0,0,1-.388.1.711.711,0,0,0-.218.048c-.146.024.024,0-.049,0-.267,0-.509.024-.776,0H42.8c-.243,0,.146.049-.1,0a3.005,3.005,0,0,1-.388-.1,2.135,2.135,0,0,1-.364-.121c-.218-.073.073.024-.049,0a.607.607,0,0,1-.17-.1l-.364-.218s-.17-.121-.049-.024a1.05,1.05,0,0,1-.17-.146.806.806,0,0,0-1.14,1.14h0Z" transform="translate(43.111 -178.264)" fill="#7c4420"/>
      <path id="Trazado_123255" data-name="Trazado 123255" d="M42.758,309.751a2.562,2.562,0,0,1-.534,3.541,2.6,2.6,0,0,1-3.347-1.31,2.562,2.562,0,0,1,.534-3.541A2.6,2.6,0,0,1,42.758,309.751Z" transform="translate(41.167 -185.366)"/>
      <path id="Trazado_123256" data-name="Trazado 123256" d="M40.238,305.159a2.051,2.051,0,0,1,2.692,2.862,8.435,8.435,0,0,1-3.541,2.668c-.849.437-1.722.849-2.571,1.286a1.552,1.552,0,0,1-1.067.243c-.655-.17-.825-.995-.752-1.649a5.481,5.481,0,0,1,2.717-4.172Z" transform="translate(36.265 -190.016)"/>
      <path id="Trazado_123257" data-name="Trazado 123257" d="M58.061,286.917a59.625,59.625,0,0,0,8.732,3.614c1.455.485,2.911.873,4.39,1.261a21.471,21.471,0,0,1,4.415,1.48c.922.461,1.746-.922.825-1.383-2.741-1.358-5.821-1.819-8.732-2.741a60.773,60.773,0,0,1-8.829-3.614c-.922-.461-1.746.922-.825,1.383h0Z" transform="translate(68.555 -217.812)" fill="#4f0b0b"/>
      <path id="Trazado_123258" data-name="Trazado 123258" d="M64.749,288.4a21.093,21.093,0,0,0-.606,6.743.808.808,0,0,0,.8.8.792.792,0,0,0,.8-.8,19.889,19.889,0,0,1,.534-6.331.807.807,0,0,0-1.552-.437h0Z" transform="translate(77.754 -214.443)" fill="#4f0b0b"/>
      <path id="Trazado_123259" data-name="Trazado 123259" d="M63.6,288.051a44.413,44.413,0,0,0-1.261,7.568.8.8,0,0,0,1.6,0,41.734,41.734,0,0,1,1.213-7.131.807.807,0,0,0-1.552-.437h0Z" transform="translate(75.263 -214.895)" fill="#4f0b0b"/>
      <path id="Trazado_123260" data-name="Trazado 123260" d="M62.291,287.526a10.7,10.7,0,0,0-1.5,6.476.824.824,0,0,0,.8.8.792.792,0,0,0,.8-.8,9.159,9.159,0,0,1,1.286-5.676.805.805,0,0,0-1.383-.825h0Z" transform="translate(72.984 -215.413)" fill="#4f0b0b"/>
      <path id="Trazado_123261" data-name="Trazado 123261" d="M60.715,286.975c-.679,1.843-1.334,3.711-2.013,5.555a.806.806,0,1,0,1.552.437c.679-1.843,1.334-3.711,2.013-5.555a.806.806,0,0,0-1.552-.437Z" transform="translate(70.025 -216.463)" fill="#4f0b0b"/>
      <path id="Trazado_123262" data-name="Trazado 123262" d="M58.546,287.321c-.461.97-.922,1.94-1.383,2.935a.815.815,0,0,0,1.407.825c.461-.97.922-1.94,1.383-2.935a.815.815,0,0,0-1.407-.825Z" transform="translate(67.73 -215.694)" fill="#4f0b0b"/>
      <path id="Trazado_123263" data-name="Trazado 123263" d="M57.684,290.511l16.009,5.53c.995.34,1.407-1.213.437-1.552l-16.009-5.53c-.994-.34-1.407,1.213-.437,1.552Z" transform="translate(67.84 -212.868)" fill="#4f0b0b"/>
      <path id="Trazado_123264" data-name="Trazado 123264" d="M50.235,302.089a50.763,50.763,0,0,0,6.112,9.824.805.805,0,0,0,1.14,0,.828.828,0,0,0,0-1.14,48.309,48.309,0,0,1-5.87-9.484A.845.845,0,0,0,50.5,301a.822.822,0,0,0-.291,1.116h0Z" transform="translate(57.826 -195.775)" fill="#4f0b0b"/>
      <path id="Trazado_123265" data-name="Trazado 123265" d="M51.319,302.3c2.232,2.6,4.584,5.094,7.034,7.447.752.728,1.892-.412,1.14-1.14a101.8,101.8,0,0,1-7.034-7.447.806.806,0,1,0-1.14,1.14Z" transform="translate(59.215 -195.743)" fill="#4f0b0b"/>
      <path id="Trazado_123266" data-name="Trazado 123266" d="M40.55,305.12c2.547,3.008,7.253,2.256,11.109,3.032a13.078,13.078,0,0,1,7.616,4.633,22.132,22.132,0,0,0-9.242,7.422L40.55,305.12Z" transform="translate(44.2 -189.759)" fill="#fed5b7"/>
      <path id="Trazado_123267" data-name="Trazado 123267" d="M41.882,356.49a22.938,22.938,0,0,0,2.353,5.773,3.676,3.676,0,0,0,2.256,1.771c1.795.461,2.741-.752,3.4-1.965a15.341,15.341,0,0,0,.024-14.287c-1.6-2.959-4.148-5.336-5.724-8.3C40.5,332.6,42.61,324.108,45.642,316.9a5.4,5.4,0,0,1,1.116-1.868,5.4,5.4,0,0,1,2.935-1.14c6.015-.946,12.856-1.164,16.931-5.676a7.171,7.171,0,0,0,1.868-3.663c.534-3.663-2.959-6.913-6.622-7.5s-7.3.752-10.77,2.062c-4.221,1.6-8.465,3.2-12.686,4.8-6.986,2.644-15.014,6.5-16.154,13.874a24.846,24.846,0,0,1-.558,3.808c-.291.922-.8,1.771-1.116,2.668-1.431,4.051,1.213,8.344,4.124,11.522,3.638,3.978,2.789,9.411,6.331,12.54a7.593,7.593,0,0,0,2.4,1.358l3.469,1.237a7.94,7.94,0,0,1,5,5.555Z" transform="translate(15.168 -201.446)"/>
      <path id="Trazado_123268" data-name="Trazado 123268" d="M37.877,315.114c-2.644-1.795-6.185-3.2-8.878-1.5-2.329,1.455-2.911,4.754-2.062,7.374a9.187,9.187,0,0,0,17.319.412L37.9,315.138Z" transform="translate(24.267 -178.747)" fill="#fed5b7"/>
      <path id="Trazado_123269" data-name="Trazado 123269" d="M28.46,316.118a12.546,12.546,0,0,1,7.835,1.819c.873.558,1.7-.849.825-1.383a13.949,13.949,0,0,0-8.659-2.038.824.824,0,0,0-.8.8.792.792,0,0,0,.8.8h0Z" transform="translate(25.824 -176.452)" fill="#7c4420"/>
      <path id="Trazado_123270" data-name="Trazado 123270" d="M30.089,315.249a3,3,0,0,0-.582,2.838,3.048,3.048,0,0,0,2.013,2.086.806.806,0,0,0,.437-1.552.219.219,0,0,1-.121-.024,1.434,1.434,0,0,1-.194-.1c-.049-.024-.073-.048-.121-.073.073.024.146.121.049.024a1.121,1.121,0,0,1-.17-.17c-.024-.024-.049-.073-.073-.1.146.146.073.1.024.024a.982.982,0,0,1-.121-.218c-.049-.073-.073-.146-.121-.218.121.218.049.1,0,.049a.344.344,0,0,0-.049-.146c0-.073-.049-.17-.049-.243,0-.024-.024-.194,0-.024V317c0-.073.049-.17,0,.049a.862.862,0,0,1,.049-.243c.073-.243.049-.121,0-.073.049-.073.073-.146.121-.218.024-.048.049-.073.073-.121l-.073.073a.852.852,0,0,0,.049-1.213.805.805,0,0,0-1.14,0h0Z" transform="translate(28.271 -175.656)" fill="#7c4420"/>
      <path id="Trazado_123271" data-name="Trazado 123271" d="M29.716,387.157a183.942,183.942,0,0,0,33.376,11.109c3.275.752,6.573,1.407,9.872,1.989,1.019.17,1.455-1.383.437-1.552a184.658,184.658,0,0,1-33.74-9.193c-3.081-1.164-6.112-2.4-9.12-3.735-.946-.412-1.771.97-.825,1.383h0Z" transform="translate(28.159 -74.886)" fill="#0b2c38"/>
      <path id="Trazado_123272" data-name="Trazado 123272" d="M68.132,378.87a19.02,19.02,0,0,1-9.945,16.179c-.922.485-.1,1.892.825,1.383A20.579,20.579,0,0,0,69.757,378.87a.813.813,0,0,0-1.625,0Z" transform="translate(68.769 -85.737)" fill="#0b2c38"/>
      <path id="Trazado_123273" data-name="Trazado 123273" d="M56.977,381.665a12.823,12.823,0,0,0,1.043,7.107,48.977,48.977,0,0,1,2.3,6.816c1.019,4.657,1.043,9.46,1.771,14.141a30.056,30.056,0,0,0,2.159,7.665c.437.946,1.819.121,1.383-.825-1.868-4.172-2.256-8.8-2.668-13.292-.218-2.3-.437-4.609-.849-6.889a34.879,34.879,0,0,0-1.94-6.6c-.97-2.426-2.159-5.045-1.649-7.713.194-1.019-1.358-1.455-1.552-.437h0Z" transform="translate(67.383 -81.498)" fill="#0b2c38"/>
      <g id="Grupo_86582" data-name="Grupo 86582" transform="translate(158.712 182.121)">
        <path id="Trazado_123274" data-name="Trazado 123274" d="M103.517,410.182a51.166,51.166,0,0,1,.922-50.889,59.744,59.744,0,0,1,10.163-12.2c8.465-7.907,19.259-13.826,30.829-14.408s23.771,5,29.131,15.257a34.906,34.906,0,0,1,3.469,12.492c1.989,18.556-6.452,38.106-21.83,48.657-15.378,10.576-37.184,11.279-52.781,1.043h.073Z" transform="translate(-33.762 -332.643)" fill="#adce32"/>
        <path id="Trazado_123275" data-name="Trazado 123275" d="M83.3,464.531A86.993,86.993,0,0,1,87.523,436.1a88.226,88.226,0,0,1,32.964-45.14c7.228-5.264,14.845-9.969,21.855-15.548,6.646-5.288,12.783-11.594,16.251-19.453.461-1.043.873-2.11,1.261-3.177a1.623,1.623,0,0,0-1.116-1.989,1.642,1.642,0,0,0-1.989,1.116c-2.741,7.932-8.393,14.311-14.845,19.72-6.695,5.6-14.287,10.285-21.467,15.4a112.022,112.022,0,0,0-10.818,8.587,87.352,87.352,0,0,0-9.848,10.673A93.644,93.644,0,0,0,85.485,432.1a90.48,90.48,0,0,0-5.409,28.792c-.024,1.213,0,2.4,0,3.614.048,2.062,3.275,2.086,3.226,0h0Z" transform="translate(-58.179 -306.85)" fill="#4b402a"/>
        <path id="Trazado_123276" data-name="Trazado 123276" d="M106.816,405.306a19.088,19.088,0,0,1,2.862-13.8,43.91,43.91,0,0,1,55.182-15.766,19.208,19.208,0,0,1,6.5,4.463c3.663,4.2,3.978,10.43,2.935,15.912-2.789,14.554-14.6,27.142-29.107,30.174a36.046,36.046,0,0,1-34.346-12.1,19.1,19.1,0,0,1-4.051-8.853h0Z" transform="translate(-20.446 -276.927)" fill="#adce32"/>
        <path id="Trazado_123277" data-name="Trazado 123277" d="M89.229,346.671a15.933,15.933,0,0,1,11.594,2.426,36.833,36.833,0,0,1,13.2,46.3,16.059,16.059,0,0,1-3.76,5.433c-3.541,3.081-8.756,3.347-13.341,2.45-12.2-2.353-22.752-12.274-25.3-24.426a30.2,30.2,0,0,1,10.187-28.792,16.22,16.22,0,0,1,7.447-3.4h0Z" transform="translate(-71.042 -312.987)" fill="#adce32"/>
        <path id="Trazado_123278" data-name="Trazado 123278" d="M86.106,422.676c5.142-12.734,13.122-25.153,26.027-31.023a31.867,31.867,0,0,1,9.557-2.668,50,50,0,0,1,11.425.291c7.641.922,15.305,2.717,23.043,1.94a40.261,40.261,0,0,0,22.024-9.339,1.633,1.633,0,0,0,0-2.28,1.656,1.656,0,0,0-2.28,0,36.707,36.707,0,0,1-18.629,8.247c-7.738,1.067-15.524-.7-23.164-1.674a55.481,55.481,0,0,0-11.691-.485,35.2,35.2,0,0,0-10.333,2.5,44.825,44.825,0,0,0-16.712,12.3c-5.433,6.307-9.29,13.68-12.395,21.345a1.654,1.654,0,0,0,1.116,1.989,1.675,1.675,0,0,0,1.989-1.116h0Z" transform="translate(-54.142 -266.354)" fill="#4b402a"/>
        <path id="Trazado_123279" data-name="Trazado 123279" d="M87.069,420.576A79.148,79.148,0,0,0,91.992,396.2,80.187,80.187,0,0,0,84.4,358.263a1.637,1.637,0,0,0-2.207-.582,1.66,1.66,0,0,0-.582,2.207,75.374,75.374,0,0,1,6.6,22.776,78.326,78.326,0,0,1-.631,23.916,77.077,77.077,0,0,1-3.638,13.147,1.623,1.623,0,0,0,1.116,1.989,1.675,1.675,0,0,0,1.989-1.116h0Z" transform="translate(-56.245 -297.242)" fill="#4b402a"/>
      </g>
      <rect id="Rectángulo_34889" data-name="Rectángulo 34889" width="217.139" height="15.136" transform="translate(243.336 352.608) rotate(180)" fill="#ffe9e1"/>
    </g>
  </g>
</svg>
