<svg xmlns="http://www.w3.org/2000/svg" width="610" height="417.457" viewBox="0 0 610 417.457">
  <g id="Grupo_1004302" data-name="Grupo 1004302" transform="translate(10311 4707.559)">
    <rect id="Rect치ngulo_347337" data-name="Rect치ngulo 347337" width="610" height="381" transform="translate(-10311 -4681)" fill="#ffa686" opacity="0.25"/>
    <rect id="Rect치ngulo_347338" data-name="Rect치ngulo 347338" width="25" height="8" transform="translate(-10311 -4678.47)" fill="#ffa686"/>
    <g id="Grupo_1004300" data-name="Grupo 1004300" transform="translate(-9767.612 -4321.303)">
      <path id="Trazado_123455" data-name="Trazado 123455" d="M191.434,124.981h32.78a1.4,1.4,0,0,0,1.218-2.1l-16.4-28.4a1.411,1.411,0,0,0-2.436,0l-16.4,28.4a1.407,1.407,0,0,0,0,1.4A1.487,1.487,0,0,0,191.434,124.981Zm30.344-2.82H193.871L207.813,98Z" transform="translate(-190.008 -93.78)" fill="#0b481e"/>
    </g>
    <g id="Grupo_1004301" data-name="Grupo 1004301" transform="translate(-11121 -11738)">
      <path id="Trazado_628042" data-name="Trazado 628042" d="M11.258.233a5.627,5.627,0,0,1,7.2,5.172,9.212,9.212,0,0,1-1.2,5.055c-2.295,4.065-4.66,8.107-7.024,12.138a7.21,7.21,0,0,1-1.095,1.363A5.105,5.105,0,0,1,2.8,25.254a5.4,5.4,0,0,1-2.528-6.5A16.98,16.98,0,0,1,1.765,15.6C4.036,11.521,6.727,7.676,8.276,3.2A5.027,5.027,0,0,1,11.258.233Z" transform="matrix(0.978, 0.208, -0.208, 0.978, 1370.934, 7043.536)" fill="none" stroke="#ffa686" stroke-width="3"/>
      <path id="Trazado_628043" data-name="Trazado 628043" d="M.239,20.957A8.287,8.287,0,0,1,.006,19.07Q.425,12.675,1,6.28A7.885,7.885,0,0,1,2.767,2.017,4.9,4.9,0,0,1,7.951.153a4.637,4.637,0,0,1,3.53,3.529,7.737,7.737,0,0,1,.314,2.295q-.489,6.972-1.1,13.943a6.528,6.528,0,0,1-.419,1.689A5.25,5.25,0,0,1,4.9,25.232C2.674,25.1,1.055,23.729.239,20.957Z" transform="matrix(0.978, 0.208, -0.208, 0.978, 1361.534, 7032.238)" fill="none" stroke="#ffa686" stroke-width="3"/>
    </g>
  </g>
</svg>
