<svg xmlns="http://www.w3.org/2000/svg" xmlns:xlink="http://www.w3.org/1999/xlink" width="404" height="429.165" viewBox="0 0 404 429.165">
  <defs>
    <clipPath id="clip-path">
      <rect id="Rectángulo_35048" data-name="Rectángulo 35048" width="387.318" height="287.083"/>
    </clipPath>
  </defs>
  <g id="Grupo_1004983" data-name="Grupo 1004983" transform="translate(-2387.56 -3282.059)">
    <rect id="Rectángulo_33774" data-name="Rectángulo 33774" width="400" height="295" transform="translate(2391.56 3416.224)" fill="#0b481e"/>
    <text id="Local_aquí_la_alcaldía_en_cabeza_del_alcalde_municipal_tiene_adscrito_el_Concejo_Municipal_la_Personería_y_la_Contraloría_municipios_de_determinado_tamaño_._" data-name="Local, aquí la alcaldía en cabeza del alcalde municipal tiene adscrito el Concejo Municipal, la Personería y la Contraloría (municipios de determinado tamaño). " transform="translate(2414.56 3587.224)" fill="#fff" font-size="16" font-family="Roboto-Regular, Roboto"><tspan x="0" y="15">Local, aquí la alcaldía en cabeza del </tspan><tspan y="15" font-family="Roboto-Bold, Roboto" font-weight="700">alcalde </tspan><tspan x="0" y="39" font-family="Roboto-Bold, Roboto" font-weight="700">municipal</tspan><tspan y="39" xml:space="preserve"> tiene adscrito el Concejo Municipal, la </tspan><tspan x="0" y="63">Personería y la Contraloría (municipios de </tspan><tspan x="0" y="87">determinado tamaño). </tspan></text>
    <g id="Grupo_93294" data-name="Grupo 93294" transform="translate(2387.56 3282.059)" clip-path="url(#clip-path)">
      <rect id="Rectángulo_35046" data-name="Rectángulo 35046" width="360.838" height="327.013" transform="translate(26.48 50.8)" fill="#eff5d6"/>
      <rect id="Rectángulo_35047" data-name="Rectángulo 35047" width="360.838" height="416.242" transform="translate(26.48 -38.429)" fill="none"/>
      <g id="Grupo_93293" data-name="Grupo 93293" transform="translate(8.736 13.59)">
        <g id="Grupo_93287" data-name="Grupo 93287" transform="translate(26.244)">
          <path id="Trazado_125507" data-name="Trazado 125507" d="M436.574,178.269l11.665-28.106,23.4-20.613s-4.264-6.412-10.21-2.786-16.782,11.95-16.782,11.95,16.065-37.327,12.086-39.066-14.371,23.024-14.371,23.024,9.8-32.87,4.923-34.575-16.122,37.679-16.122,37.679,7.322-32.926,3.627-34.268-10.972,30.357-10.972,30.357,1.728-21.534-1.342-21.989-4.753,25.411-7.322,31.21-20.306,18.112-8.618,35.382l-.671,5.048Z" transform="translate(-402.586 -88.043)" fill="#f8c5aa"/>
          <path id="Trazado_125508" data-name="Trazado 125508" d="M411.3,149.286s11.87-22.864,32.165-16.1l6.833-4.866" transform="translate(-401.393 -82.526)" fill="none" stroke="#de7c65" stroke-miterlimit="10" stroke-width="0.75"/>
          <path id="Trazado_125509" data-name="Trazado 125509" d="M417.2,124.3s14.985-8.05,25.809-1.831" transform="translate(-400.585 -83.65)" fill="none" stroke="#de7c65" stroke-miterlimit="10" stroke-width="0.75"/>
          <path id="Trazado_125510" data-name="Trazado 125510" d="M425.508,103.95c-.193.671-4.582,18.2-5.128,20.966" transform="translate(-400.149 -85.864)" fill="none" stroke="#de7c65" stroke-miterlimit="10" stroke-width="0.75"/>
          <line id="Línea_189" data-name="Línea 189" x1="6.754" y2="20.158" transform="translate(28.644 16.642)" fill="none" stroke="#de7c65" stroke-miterlimit="10" stroke-width="0.75"/>
          <line id="Línea_190" data-name="Línea 190" x1="6.515" y2="13.496" transform="translate(38.593 23.18)" fill="none" stroke="#de7c65" stroke-miterlimit="10" stroke-width="0.75"/>
        </g>
        <path id="Trazado_125511" data-name="Trazado 125511" d="M648.313,215.187c-18.51-8.163-86.955-33.813-158.413-2.865-2.024.875-3.218,3.468-2.831,6.071L503.85,333.2c.023.318.046.637.068.966v97.7c0,2.99,1.967,5.412,4.389,5.412H641.673l-5.435-104.51,16.043-109.1C652.815,220.019,651.144,216.438,648.313,215.187Z" transform="translate(-364.782 -73.058)" fill="#efedf4"/>
        <g id="Grupo_93291" data-name="Grupo 93291" transform="translate(162.248 1.876)">
          <path id="Trazado_125512" data-name="Trazado 125512" d="M525.286,141.706s-3.718-22.091-2.012-25.036,4.173-1.239,4.173-1.239-4.559-23.74,14.2-25.6,34.768,16.008,34.53,24.126c0,0,8.266-.932,11.563,2.786S584.42,140,584.42,140l-4.48-.546Z" transform="translate(-522.122 -89.692)" fill="#40170e"/>
          <path id="Trazado_125513" data-name="Trazado 125513" d="M534.353,176.384l-3.093,49.185s.614,13.609,25.673,9.278,28.322-24.9,28.322-24.9l-4.525-57.007Z" transform="translate(-520.967 -81.03)" fill="#f8c5aa"/>
          <path id="Trazado_125514" data-name="Trazado 125514" d="M566.688,166.15s-7.766,29.14-33.938,25.684l.841-13.757Z" transform="translate(-520.763 -79.22)" fill="#de7c65"/>
          <path id="Trazado_125515" data-name="Trazado 125515" d="M579.286,171.824c-2.6,5.059-7.493,10.29-16.588,14.053-.955.4-1.956.773-3,1.137-10.71,3.672-18.6,3.809-24.468,1.148-.114-.057-.216-.1-.318-.159-5.31-2.524-8.925-7.39-11.4-13.985-1.819-4.832-1.524-13.109-.364-21.852.307-2.274.671-4.582,1.069-6.867.364-2.047.75-4.07,1.16-6.037.3-1.467.6-2.911.9-4.286.239-1.046.466-2.069.7-3.058,1.342-5.833,2.615-10.551,3.229-12.779.261-.91.409-1.41.409-1.41,7.743-16.088,32.494-9.289,40.84-5.264a11.207,11.207,0,0,1,4.014,3.377,22.95,22.95,0,0,1,3.786,8.925,36.83,36.83,0,0,1,.864,6.572l-.1,5.423v.3l-.2,11.3a34.024,34.024,0,0,1,2.092,9.687c.034.364.057.75.068,1.148A25.069,25.069,0,0,1,579.286,171.824Z" transform="translate(-522.207 -87.248)" fill="#f8c5aa"/>
          <path id="Trazado_125516" data-name="Trazado 125516" d="M588.282,141.392a12.071,12.071,0,0,1-24.047,2.149c-.591-6.64,5.389-9.948,12.029-10.54S587.69,134.752,588.282,141.392Z" transform="translate(-516.456 -83.773)" fill="#f8c5aa"/>
          <path id="Trazado_125517" data-name="Trazado 125517" d="M576.356,160.09s2.047,15.235-27.856,22.682" transform="translate(-518.606 -80.05)" fill="none" stroke="#de7c65" stroke-miterlimit="10" stroke-width="0.75"/>
          <g id="Grupo_93288" data-name="Grupo 93288" transform="translate(58.973 54.583)">
            <path id="Trazado_125518" data-name="Trazado 125518" d="M580.482,142.51c.807,1.671-.637,2.16-2.308,2.967s-2.956,1.637-3.763-.045a3.369,3.369,0,0,1,6.071-2.922Z" transform="translate(-574.076 -137.303)" fill="#de7c65"/>
            <path id="Trazado_125519" data-name="Trazado 125519" d="M580.875,137.7s-8.925,1.194-5.889,7.754" transform="translate(-574.038 -137.7)" fill="none" stroke="#de7c65" stroke-miterlimit="10" stroke-width="0.75"/>
          </g>
          <path id="Trazado_125520" data-name="Trazado 125520" d="M552.423,131.245c0,1.944-2.877.716-5.912.716s-5.071,1.228-5.071-.716,2.456-3.525,5.491-3.525S552.423,129.289,552.423,131.245Z" transform="translate(-519.573 -84.484)" fill="#40170e"/>
          <path id="Trazado_125521" data-name="Trazado 125521" d="M536.413,131.245c0,1.944-2.877.716-5.912.716s-5.071,1.228-5.071-.716,2.456-3.525,5.492-3.525S536.413,129.289,536.413,131.245Z" transform="translate(-521.766 -84.484)" fill="#40170e"/>
          <g id="Grupo_93289" data-name="Grupo 93289" transform="translate(25.13 50.319)">
            <path id="Trazado_125522" data-name="Trazado 125522" d="M548.471,136.031a2.081,2.081,0,1,1-2.081-2.081A2.082,2.082,0,0,1,548.471,136.031Z" transform="translate(-544.31 -133.95)" fill="#40170e"/>
            <path id="Trazado_125523" data-name="Trazado 125523" d="M549.1,136.371c-.546-.864-1.808-2.535-3.184-2.41l.557,3.377a3.59,3.59,0,0,1,2.422-.7A.176.176,0,0,0,549.1,136.371Z" transform="translate(-544.089 -133.949)" fill="#40170e"/>
          </g>
          <g id="Grupo_93290" data-name="Grupo 93290" transform="translate(6.339 49.762)">
            <path id="Trazado_125524" data-name="Trazado 125524" d="M528.5,135.381a1.922,1.922,0,1,0,1.922-1.921A1.919,1.919,0,0,0,528.5,135.381Z" transform="translate(-527.685 -133.46)" fill="#40170e"/>
            <path id="Trazado_125525" data-name="Trazado 125525" d="M527.814,135.7c.5-.8,1.66-2.331,2.922-2.217l-.512,3.1a3.281,3.281,0,0,0-2.217-.648C527.848,135.971,527.723,135.823,527.814,135.7Z" transform="translate(-527.783 -133.458)" fill="#40170e"/>
          </g>
          <path id="Trazado_125526" data-name="Trazado 125526" d="M538.753,133.95s-2.24,8.368-5.1,10.46,2.626,5.1,4.332,3.866" transform="translate(-520.752 -83.631)" fill="none" stroke="#de7c65" stroke-miterlimit="10" stroke-width="0.75"/>
          <path id="Trazado_125527" data-name="Trazado 125527" d="M548.227,147.144a4.67,4.67,0,0,1-8.7,3.32c-.841-2.217,1.762-2.319,4.161-3.24S547.386,144.927,548.227,147.144Z" transform="translate(-519.857 -81.987)" fill="#fff"/>
          <path id="Trazado_125528" data-name="Trazado 125528" d="M548.252,154.074a1.9,1.9,0,0,0-3.5,1.342c.307.807,1.137.171,2.1-.193S548.559,154.892,548.252,154.074Z" transform="translate(-519.131 -81.004)" fill="#de7c65"/>
          <path id="Trazado_125529" data-name="Trazado 125529" d="M579.052,137.274l-2.524,11.006-3.866-.83V133.818s-4.491-4.491-5.492-8.5,4.718-9.13,4.718-9.13-41.92,6.651-37.281,1.853,6.151-6.185,6.151-6.185l-11.529,7.595s.887-16.259,26.1-13.314,25.434,19.647,25.707,22.432S579.052,137.274,579.052,137.274Z" transform="translate(-521.245 -87.489)" fill="#40170e"/>
          <path id="Trazado_125530" data-name="Trazado 125530" d="M563.37,125.264a22.52,22.52,0,0,1,18.612-1.046l-2.74,10.1-4.866.648-2.524,11.006-3.866-.83V131.506C567.986,131.494,564.245,127.526,563.37,125.264Z" transform="translate(-516.569 -85.177)" fill="#683229"/>
          <path id="Trazado_125531" data-name="Trazado 125531" d="M569.04,116.4s5.344-14.064,13.109-12.666" transform="translate(-515.793 -87.783)" fill="none" stroke="#40170e" stroke-miterlimit="10" stroke-width="1"/>
          <path id="Trazado_125532" data-name="Trazado 125532" d="M569.04,113.326s.841-10.562,4.536-13" transform="translate(-515.793 -88.235)" fill="none" stroke="#40170e" stroke-miterlimit="10" stroke-width="1"/>
          <path id="Trazado_125533" data-name="Trazado 125533" d="M560.429,143.566c0,1.91-2.41,3.456-5.389,3.456s-5.389-1.546-5.389-3.456,2.41-3.456,5.389-3.456S560.429,141.668,560.429,143.566Z" transform="translate(-518.449 -82.787)" fill="#de7c65"/>
          <path id="Trazado_125534" data-name="Trazado 125534" d="M529.238,144.2c0,1.91-2.41,3.456-5.389,3.456a6.348,6.348,0,0,1-.819-.045c.307-2.274.671-4.582,1.069-6.867C526.964,140.831,529.238,142.354,529.238,144.2Z" transform="translate(-522.095 -82.701)" fill="#de7c65"/>
        </g>
        <path id="Trazado_125535" data-name="Trazado 125535" d="M654.375,437.183H579.017c-2.126-8.652-3.9-17.566-5.321-26.616-15.5-97.54,6.5-212.4,6.5-212.4s3.809.512,9.607,1.433c17.43,2.751,52.869,9.13,57.064,16.145,5.571,9.334-9.3,108.387-9.3,108.387Z" transform="translate(-353.664 -72.959)" fill="#281f3a"/>
        <path id="Trazado_125536" data-name="Trazado 125536" d="M606.382,298.575c-12.393,11.154-18.589,13.53-18.589,13.53s7.026,5.889,7.436,22c.409,15.986-21.2,74.448-21.523,75.347-15.5-97.029,6.5-211.282,6.5-211.282s3.809.512,9.607,1.421C596.5,220.932,616.808,289.184,606.382,298.575Z" transform="translate(-353.663 -72.959)" fill="#544a6b" opacity="0.42"/>
        <path id="Trazado_125537" data-name="Trazado 125537" d="M589.805,199.42s22.444,71.549,19.613,91.037c-2.206,15.178-21.625,21.477-21.625,21.477l-19.613,5.571" transform="translate(-353.662 -72.788)" fill="none" stroke="#968faa" stroke-miterlimit="10" stroke-width="1"/>
        <path id="Trazado_125538" data-name="Trazado 125538" d="M573.03,395.727s15.838-45.945,18.18-56.2,8.914-20.59-4.093-41.147" transform="translate(-352.998 -59.234)" fill="none" stroke="#968faa" stroke-miterlimit="10" stroke-width="1"/>
        <path id="Trazado_125539" data-name="Trazado 125539" d="M529.1,406.429c.6,10.915,1.467,21.261,2.683,30.744H481.212l6.64-134.776s-9.425-82.5-6.64-90.514c2.183-6.276,29.6-12.643,45.786-13.6,4.491-.261,8.118-.114,10.108.568,0,.011-12.7,121.189-8,207.575Z" transform="translate(-365.644 -72.96)" fill="#281f3a"/>
        <path id="Trazado_125540" data-name="Trazado 125540" d="M526.392,406.417h0c-.364.614-22.716-30.357-25.582-48.776-2.9-18.578,13.78-49.981,13.78-49.981s-1.808,0-10.062-10.744c-7-9.107,13.382-77.916,19.76-98.632,4.491-.261,8.118-.114,10.108.568C534.4,198.865,521.7,320.042,526.392,406.417Z" transform="translate(-362.936 -72.96)" fill="#544a6b" opacity="0.36"/>
        <path id="Trazado_125541" data-name="Trazado 125541" d="M524,198.28s-28.39,85.034-19.76,98.632a61.055,61.055,0,0,0,21.75,20.124" transform="translate(-362.644 -72.944)" fill="none" stroke="#968faa" stroke-miterlimit="10" stroke-width="1"/>
        <path id="Trazado_125542" data-name="Trazado 125542" d="M526.391,393.139s-38.611-39.76-21.557-75.654l9.391-22.375" transform="translate(-362.934 -59.682)" fill="none" stroke="#968faa" stroke-miterlimit="10" stroke-width="1"/>
        <path id="Trazado_125543" data-name="Trazado 125543" d="M449.991,166.894s-26.673,83.2-7.97,95.3,24.024-51.345,77.007-54.9v94.038s-84.158,65.637-122.11,12.018c-40.726-57.519,2.751-156.526,2.751-156.526Z" transform="translate(-379.504 -78.623)" fill="#281f3a"/>
        <path id="Trazado_125544" data-name="Trazado 125544" d="M617.4,277.888s38.827,25.343,46.377,52.312S617.4,378.737,617.4,378.737l12.4,48.537S725.8,415.4,719.329,321.025,620.015,205.93,620.015,205.93Z" transform="translate(-346.921 -71.896)" fill="#281f3a"/>
        <path id="Trazado_125545" data-name="Trazado 125545" d="M543.059,237.3s4.537-5.8,7.527-5.8,16.145,6.5,16.543,13.632,27.537-30.391,17.68-45.717c0,0-1.467-3.854-2.865-3.854s-15.554,25.7-28.64,27.89C538.477,225.917,543.855,231.875,543.059,237.3Z" transform="translate(-357.147 -73.317)" fill="#fff"/>
        <path id="Trazado_125546" data-name="Trazado 125546" d="M546.03,237.164s1.66-7.049-.193-10.494-9.767-3.945-11.972-8.061,1.967-21.42,0-21.159-2.433-.159-3.445.819-8.129,41.408-5.037,42.341,8.9-10.608,13.553-9.221S544.45,237.278,546.03,237.164Z" transform="translate(-359.63 -73.058)" fill="#fff"/>
        <g id="Grupo_93292" data-name="Grupo 93292" transform="translate(164.966 157.681)">
          <path id="Trazado_125547" data-name="Trazado 125547" d="M538.282,227.8s-2.092,9.244,0,10.892,11.6,3.513,13.871,0-.819-11.461-.819-11.461S540.113,225.786,538.282,227.8Z" transform="translate(-522.851 -226.729)" fill="#ffc107"/>
          <path id="Trazado_125548" data-name="Trazado 125548" d="M541.291,376.257s-17.248-17.759-16.679-29.334S540.029,237.24,540.029,237.24H553.9s9.71,98.939,8.47,111.741S541.291,376.257,541.291,376.257Z" transform="translate(-524.598 -225.289)" fill="#ffc107"/>
          <path id="Trazado_125549" data-name="Trazado 125549" d="M538.17,237.25s4.73,5.582,13.871,0" transform="translate(-522.739 -225.288)" fill="none" stroke="#4ba5a8" stroke-miterlimit="10" stroke-width="1"/>
        </g>
      </g>
    </g>
  </g>
</svg>
