<svg xmlns="http://www.w3.org/2000/svg" xmlns:xlink="http://www.w3.org/1999/xlink" width="720" height="274.5" viewBox="0 0 720 274.5">
  <defs>
    <clipPath id="clip-path">
      <path id="Trazado_625617" data-name="Trazado 625617" d="M807.2,303.5H139.8a26.3,26.3,0,0,1-26.3-26.3V126.8a26.3,26.3,0,0,1,26.3-26.3H244.56L302,62l85,38.5L366,54,631,29l42.43,71.5H807.2a26.3,26.3,0,0,1,26.3,26.3V277.2A26.307,26.307,0,0,1,807.2,303.5Z"/>
    </clipPath>
    <clipPath id="clip-path-4">
      <path id="Trazado_625680" data-name="Trazado 625680" d="M807.2,303.5H139.8a26.3,26.3,0,0,1-26.3-26.3V126.8a26.3,26.3,0,0,1,26.3-26.3H244.56L302,62l85,38.5-9.973-18.178L627.1,58.877,673.43,100.5H807.2a26.3,26.3,0,0,1,26.3,26.3V277.2A26.307,26.307,0,0,1,807.2,303.5Z"/>
    </clipPath>
  </defs>
  <g id="Grupo_1004896" data-name="Grupo 1004896" transform="translate(-2279 -3582.254)">
    <path id="Trazado_643320" data-name="Trazado 643320" d="M807.2,303.5H139.8a26.3,26.3,0,0,1-26.3-26.3V126.8a26.3,26.3,0,0,1,26.3-26.3H807.2a26.3,26.3,0,0,1,26.3,26.3V277.2A26.307,26.307,0,0,1,807.2,303.5Z" transform="translate(2165.5 3553.254)" fill="#cee284"/>
    <g id="Grupo_1004850" data-name="Grupo 1004850" transform="translate(2165.5 3553.254)">
      <g id="Grupo_901546" data-name="Grupo 901546" clip-path="url(#clip-path)">
        <g id="Grupo_901541" data-name="Grupo 901541">
          <path id="Trazado_625608" data-name="Trazado 625608" d="M98.83,145.61,79.08,240.93c8.78,8.91,18.1,17.34,33.13,20.52l72.34,12.71,16.99-112.05Z" fill="#fafafa"/>
          <path id="Trazado_625609" data-name="Trazado 625609" d="M94.7,139.73,74.96,235.05l33.13,20.52,72.34,12.71,21.35-107.56Z" fill="#f5f5f5"/>
          <path id="Trazado_625610" data-name="Trazado 625610" d="M88.44,229.96l-13.48,5.09s4.87,7.94,11.96,12.24a60.359,60.359,0,0,0,21.17,8.28S92.3,247.71,88.44,229.96Z" fill="#e1e1e1"/>
        </g>
        <path id="Trazado_625611" data-name="Trazado 625611" d="M83.71,160.19l49.44-15.33-3.16-10.41L79.74,149.06Z" fill="#ececec"/>
        <path id="Trazado_625612" data-name="Trazado 625612" d="M210.34,186.44l-32.05-40.65-8.58,6.68,31.66,41.67Z" fill="#ececec"/>
        <g id="Grupo_901542" data-name="Grupo 901542">
          <path id="Trazado_625613" data-name="Trazado 625613" d="M183.18,192.39c-.04.19-18.29-3.22-40.77-7.62s-40.68-8.12-40.64-8.31,18.29,3.22,40.78,7.62C165.02,188.48,183.22,192.2,183.18,192.39Z" fill="#e1e1e1"/>
        </g>
        <g id="Grupo_901543" data-name="Grupo 901543">
          <path id="Trazado_625614" data-name="Trazado 625614" d="M179.95,207c-.04.19-18.29-3.22-40.77-7.62s-40.68-8.12-40.64-8.31,18.29,3.22,40.78,7.62C161.79,203.09,179.99,206.81,179.95,207Z" fill="#e1e1e1"/>
        </g>
        <g id="Grupo_901544" data-name="Grupo 901544">
          <path id="Trazado_625615" data-name="Trazado 625615" d="M177.86,220.11c-.04.19-18.29-3.22-40.77-7.62s-40.68-8.12-40.64-8.31,18.29,3.22,40.78,7.62C159.7,216.2,177.9,219.92,177.86,220.11Z" fill="#e1e1e1"/>
        </g>
        <g id="Grupo_901545" data-name="Grupo 901545">
          <path id="Trazado_625616" data-name="Trazado 625616" d="M175.32,232.62c-.04.19-18.29-3.22-40.77-7.62s-40.68-8.12-40.64-8.31,18.29,3.22,40.78,7.62C157.16,228.71,175.36,232.43,175.32,232.62Z" fill="#e1e1e1"/>
        </g>
      </g>
      <g id="Grupo_901552" data-name="Grupo 901552" clip-path="url(#clip-path)">
        <g id="Grupo_901547" data-name="Grupo 901547">
          <path id="Trazado_625618" data-name="Trazado 625618" d="M843.66,229.78,818.1,292.1c-8.49,1.71-17.09,2.94-26.95-1.05l-46.41-20.7,33.62-70.85Z" fill="#fafafa"/>
          <path id="Trazado_625619" data-name="Trazado 625619" d="M848.3,228l-25.56,62.32-26.94-1.05-46.42-20.7,29.38-69.96Z" fill="#f5f5f5"/>
          <path id="Trazado_625620" data-name="Trazado 625620" d="M816.98,282.19l5.77,8.14s-5.87,2.67-11.6,2.39a41.883,41.883,0,0,1-15.35-3.44C795.8,289.27,807.9,290.88,816.98,282.19Z" fill="#e1e1e1"/>
        </g>
        <path id="Trazado_625621" data-name="Trazado 625621" d="M846.69,244l-22.42-27.93,5.84-4.75,23.17,27.82Z" fill="#ececec"/>
        <path id="Trazado_625622" data-name="Trazado 625622" d="M763.9,210.05l34.11-10.91,2.34,7.15-34.29,11.65Z" fill="#ececec"/>
        <g id="Grupo_901548" data-name="Grupo 901548">
          <path id="Trazado_625623" data-name="Trazado 625623" d="M777.17,223.97c.08-.18,11.97,4.68,26.57,10.86s26.37,11.33,26.3,11.51-11.97-4.68-26.57-10.86S777.1,224.15,777.17,223.97Z" fill="#e1e1e1"/>
        </g>
        <g id="Grupo_901549" data-name="Grupo 901549">
          <path id="Trazado_625624" data-name="Trazado 625624" d="M773.37,233.61c.08-.18,11.97,4.68,26.57,10.86s26.37,11.33,26.3,11.51-11.97-4.68-26.57-10.86S773.3,233.78,773.37,233.61Z" fill="#e1e1e1"/>
        </g>
        <g id="Grupo_901550" data-name="Grupo 901550">
          <path id="Trazado_625625" data-name="Trazado 625625" d="M769.5,241.93c.08-.18,11.97,4.68,26.57,10.86s26.37,11.33,26.3,11.51-11.97-4.68-26.57-10.86S769.42,242.11,769.5,241.93Z" fill="#e1e1e1"/>
        </g>
        <g id="Grupo_901551" data-name="Grupo 901551">
          <path id="Trazado_625626" data-name="Trazado 625626" d="M766.11,250.09c.08-.18,11.97,4.68,26.57,10.86s26.37,11.33,26.3,11.51-11.97-4.68-26.57-10.86S766.04,250.27,766.11,250.09Z" fill="#e1e1e1"/>
        </g>
      </g>
      <g id="Grupo_901576" data-name="Grupo 901576" clip-path="url(#clip-path)">
        <g id="Grupo_901559" data-name="Grupo 901559">
          <g id="Grupo_901558" data-name="Grupo 901558">
            <g id="Grupo_901557" data-name="Grupo 901557">
              <g id="Grupo_901556" data-name="Grupo 901556">
                <path id="Trazado_625629" data-name="Trazado 625629" d="M641.13,257.2a185.542,185.542,0,0,1,9.49-34.32,378.445,378.445,0,0,1,18.06-39.66q2.67-5.145,5.27-10.15c1.74-3.33,3.46-6.63,5.34-9.75a188.846,188.846,0,0,1,11.85-17.33c4.04-5.33,8.06-10.24,11.86-14.81s7.44-8.74,10.91-12.41a149.463,149.463,0,0,1,17.65-16.08c2.22-1.73,3.99-3.01,5.2-3.87.58-.41,1.04-.72,1.38-.96a3.385,3.385,0,0,1,.49-.31,2.684,2.684,0,0,1-.44.37c-.33.26-.78.59-1.34,1.03-1.18.9-2.92,2.22-5.11,3.98a157.678,157.678,0,0,0-17.43,16.23c-3.44,3.68-7.03,7.88-10.81,12.45s-7.77,9.5-11.78,14.83a191.918,191.918,0,0,0-11.77,17.29c-1.87,3.11-3.57,6.38-5.31,9.72s-3.48,6.72-5.26,10.15a389.891,389.891,0,0,0-18.08,39.55,189.252,189.252,0,0,0-9.61,34.16" fill="#e1e1e1"/>
              </g>
            </g>
          </g>
        </g>
        <g id="Grupo_901563" data-name="Grupo 901563">
          <g id="Grupo_901562" data-name="Grupo 901562">
            <g id="Grupo_901561" data-name="Grupo 901561">
              <g id="Grupo_901560" data-name="Grupo 901560">
                <path id="Trazado_625630" data-name="Trazado 625630" d="M679.51,163.31a8.9,8.9,0,0,1-.28-1.83c-.14-1.18-.27-2.9-.42-5.03-.29-4.25-.48-10.14-.67-16.63s-.47-12.36-.82-16.6c-.17-2.12-.32-3.83-.44-5.01a9.178,9.178,0,0,1-.1-1.85,8.988,8.988,0,0,1,.4,1.81c.21,1.17.45,2.88.69,5,.49,4.24.86,10.12,1.05,16.62.17,6.4.32,12.2.44,16.63.07,2,.12,3.68.17,5.04A8.652,8.652,0,0,1,679.51,163.31Z" fill="#e1e1e1"/>
              </g>
            </g>
          </g>
        </g>
        <g id="Grupo_901571" data-name="Grupo 901571">
          <g id="Grupo_901570" data-name="Grupo 901570">
            <g id="Grupo_901569" data-name="Grupo 901569">
              <g id="Grupo_901568" data-name="Grupo 901568">
                <path id="Trazado_625632" data-name="Trazado 625632" d="M651.36,221.93a2.416,2.416,0,0,1-.32-.69c-.21-.55-.47-1.22-.78-2.03-.67-1.77-1.58-4.36-2.66-7.57-2.16-6.42-4.86-15.38-7.72-25.31s-5.47-18.91-7.49-25.36c-.99-3.14-1.81-5.72-2.42-7.64-.26-.83-.47-1.52-.65-2.08a3.334,3.334,0,0,1-.18-.74,2.416,2.416,0,0,1,.32.69c.21.55.47,1.22.78,2.03.67,1.77,1.58,4.36,2.66,7.57,2.16,6.42,4.86,15.38,7.72,25.31s5.47,18.9,7.49,25.36c.99,3.14,1.81,5.72,2.42,7.64.26.83.47,1.52.65,2.08A2.315,2.315,0,0,1,651.36,221.93Z" fill="#e1e1e1"/>
              </g>
            </g>
          </g>
        </g>
        <g id="Grupo_901575" data-name="Grupo 901575">
          <g id="Grupo_901574" data-name="Grupo 901574">
            <g id="Grupo_901573" data-name="Grupo 901573">
              <g id="Grupo_901572" data-name="Grupo 901572">
                <path id="Trazado_625633" data-name="Trazado 625633" d="M725.29,204.02a2.79,2.79,0,0,1-.74.24c-.58.15-1.29.33-2.15.55-1.98.48-4.66,1.14-7.92,1.93-6.69,1.63-15.89,4-26.06,6.62s-19.41,4.9-26.13,6.4c-3.36.75-6.09,1.33-7.98,1.69-.87.16-1.59.29-2.18.4a3.692,3.692,0,0,1-.77.09,2.616,2.616,0,0,1,.74-.24c.58-.15,1.29-.33,2.15-.55,1.98-.48,4.66-1.14,7.92-1.93,6.69-1.63,15.89-3.99,26.07-6.62s19.41-4.9,26.13-6.4c3.36-.75,6.09-1.33,7.98-1.69.87-.16,1.59-.3,2.18-.4A2.427,2.427,0,0,1,725.29,204.02Z" fill="#e1e1e1"/>
              </g>
            </g>
          </g>
        </g>
      </g>
      <g id="Grupo_901703" data-name="Grupo 901703" clip-path="url(#clip-path-4)">
        <path id="Trazado_625635" data-name="Trazado 625635" d="M525.17,284.32l-6.54,60.9s-12.75-19.27-21.37-10.68c-8.22,8.18-22.73,67.93-22.73,67.93s-.2,19.48,10.17,24.63c33.19,16.48,70.15-14.59,70.15-14.59l-5.24-174.14h0A69.856,69.856,0,0,0,525.17,284.32Z" fill="#996350"/>
        <g id="Grupo_901633" data-name="Grupo 901633">
          <g id="Grupo_901632" data-name="Grupo 901632">
            <g id="Grupo_901631" data-name="Grupo 901631">
              <g id="Grupo_901627" data-name="Grupo 901627">
                <g id="Grupo_901625" data-name="Grupo 901625">
                  <g id="Grupo_901585" data-name="Grupo 901585">
                    <g id="Grupo_901584" data-name="Grupo 901584">
                      <g id="Grupo_901583" data-name="Grupo 901583">
                        <g id="Grupo_901579" data-name="Grupo 901579">
                          <g id="Grupo_901578" data-name="Grupo 901578">
                            <g id="Grupo_901577" data-name="Grupo 901577">
                              <path id="Trazado_625636" data-name="Trazado 625636" d="M637.22,242.03l-57.48-4.59c-.36-6.71.12-32.67.12-32.67s-23.91-3.72-24.21-27.63,3.85-78.81,3.85-78.81h0a83.1,83.1,0,0,1,83.5,10.5l3.54,2.73Z" fill="#c78976"/>
                            </g>
                          </g>
                        </g>
                        <g id="Grupo_901582" data-name="Grupo 901582">
                          <g id="Grupo_901581" data-name="Grupo 901581">
                            <g id="Grupo_901580" data-name="Grupo 901580">
                              <path id="Trazado_625637" data-name="Trazado 625637" d="M579.83,204.43s15.11,1.23,31.17-8.86c0,0-7.37,17.21-31.23,15.05Z" fill="#bf654e"/>
                            </g>
                          </g>
                        </g>
                      </g>
                    </g>
                  </g>
                  <g id="Grupo_901593" data-name="Grupo 901593">
                    <g id="Grupo_901588" data-name="Grupo 901588">
                      <g id="Grupo_901587" data-name="Grupo 901587">
                        <g id="Grupo_901586" data-name="Grupo 901586">
                          <path id="Trazado_625638" data-name="Trazado 625638" d="M643.61,136.32c.41-.18,16.43-4.86,15.91,11.49s-16.83,12.45-16.84,11.98S643.61,136.32,643.61,136.32Z" fill="#c78976"/>
                        </g>
                      </g>
                    </g>
                    <g id="Grupo_901592" data-name="Grupo 901592">
                      <g id="Grupo_901591" data-name="Grupo 901591">
                        <g id="Grupo_901590" data-name="Grupo 901590">
                          <g id="Grupo_901589" data-name="Grupo 901589">
                            <path id="Trazado_625639" data-name="Trazado 625639" d="M647.86,153.75c.07-.05.28.21.75.44a2.86,2.86,0,0,0,2.13.11c1.75-.58,3.29-3.27,3.46-6.22a9.371,9.371,0,0,0-.67-4.1,3.288,3.288,0,0,0-2.07-2.25,1.451,1.451,0,0,0-1.71.73c-.23.45-.14.78-.23.8-.05.04-.34-.28-.19-.96a1.8,1.8,0,0,1,.68-1,2.153,2.153,0,0,1,1.59-.37,3.979,3.979,0,0,1,2.89,2.63,9.641,9.641,0,0,1,.84,4.59c-.21,3.29-1.99,6.32-4.38,6.93a3.029,3.029,0,0,1-2.59-.52C647.88,154.15,647.81,153.78,647.86,153.75Z" fill="#bf654e"/>
                          </g>
                        </g>
                      </g>
                    </g>
                  </g>
                  <g id="Grupo_901624" data-name="Grupo 901624">
                    <g id="Grupo_901623" data-name="Grupo 901623">
                      <g id="Grupo_901616" data-name="Grupo 901616">
                        <g id="Grupo_901615" data-name="Grupo 901615">
                          <g id="Grupo_901614" data-name="Grupo 901614">
                            <g id="Grupo_901601" data-name="Grupo 901601">
                              <g id="Grupo_901596" data-name="Grupo 901596">
                                <g id="Grupo_901595" data-name="Grupo 901595">
                                  <g id="Grupo_901594" data-name="Grupo 901594">
                                    <path id="Trazado_625640" data-name="Trazado 625640" d="M564.78,135.39a3.413,3.413,0,0,0,3.29,3.44,3.267,3.267,0,0,0,3.52-3.08,3.422,3.422,0,0,0-3.29-3.45A3.268,3.268,0,0,0,564.78,135.39Z" fill="#1a2e35"/>
                                  </g>
                                </g>
                              </g>
                              <g id="Grupo_901600" data-name="Grupo 901600">
                                <g id="Grupo_901599" data-name="Grupo 901599">
                                  <g id="Grupo_901598" data-name="Grupo 901598">
                                    <g id="Grupo_901597" data-name="Grupo 901597">
                                      <path id="Trazado_625641" data-name="Trazado 625641" d="M564.03,131.97c.42.45,3.01-1.47,6.68-1.46,3.67-.04,6.37,1.85,6.77,1.4.2-.2-.24-1-1.41-1.86a9.4,9.4,0,0,0-5.42-1.67,9,9,0,0,0-5.32,1.72C564.21,130.96,563.83,131.77,564.03,131.97Z" fill="#1a2e35"/>
                                    </g>
                                  </g>
                                </g>
                              </g>
                            </g>
                            <g id="Grupo_901609" data-name="Grupo 901609">
                              <g id="Grupo_901604" data-name="Grupo 901604">
                                <g id="Grupo_901603" data-name="Grupo 901603">
                                  <g id="Grupo_901602" data-name="Grupo 901602">
                                    <path id="Trazado_625642" data-name="Trazado 625642" d="M600.76,136.67a3.413,3.413,0,0,0,3.29,3.44,3.267,3.267,0,0,0,3.52-3.08,3.422,3.422,0,0,0-3.29-3.45A3.28,3.28,0,0,0,600.76,136.67Z" fill="#1a2e35"/>
                                  </g>
                                </g>
                              </g>
                              <g id="Grupo_901608" data-name="Grupo 901608">
                                <g id="Grupo_901607" data-name="Grupo 901607">
                                  <g id="Grupo_901606" data-name="Grupo 901606">
                                    <g id="Grupo_901605" data-name="Grupo 901605">
                                      <path id="Trazado_625643" data-name="Trazado 625643" d="M600.15,132.65c.42.45,3.01-1.47,6.69-1.46,3.67-.04,6.37,1.85,6.77,1.4.2-.2-.23-1-1.41-1.86a9.4,9.4,0,0,0-5.42-1.67,9,9,0,0,0-5.32,1.72C600.33,131.65,599.94,132.45,600.15,132.65Z" fill="#1a2e35"/>
                                    </g>
                                  </g>
                                </g>
                              </g>
                            </g>
                            <g id="Grupo_901613" data-name="Grupo 901613">
                              <g id="Grupo_901612" data-name="Grupo 901612">
                                <g id="Grupo_901611" data-name="Grupo 901611">
                                  <g id="Grupo_901610" data-name="Grupo 901610">
                                    <path id="Trazado_625644" data-name="Trazado 625644" d="M586.82,159.9c.02-.21-2.27-.6-5.97-1.08-.94-.1-1.83-.28-1.98-.92a4.743,4.743,0,0,1,.63-2.78c.88-2.27,1.81-4.65,2.77-7.14,3.85-10.17,6.64-18.54,6.23-18.69s-3.87,7.97-7.72,18.14c-.93,2.51-1.81,4.9-2.66,7.19-.35,1.07-.97,2.28-.49,3.68a2.343,2.343,0,0,0,1.54,1.37,6.625,6.625,0,0,0,1.59.22C584.49,160.09,586.8,160.11,586.82,159.9Z" fill="#1a2e35"/>
                                  </g>
                                </g>
                              </g>
                            </g>
                          </g>
                        </g>
                      </g>
                      <g id="Grupo_901619" data-name="Grupo 901619">
                        <g id="Grupo_901618" data-name="Grupo 901618">
                          <g id="Grupo_901617" data-name="Grupo 901617">
                            <path id="Trazado_625645" data-name="Trazado 625645" d="M599.2,118.25c.36,1,4.03.53,8.34,1.05,4.32.43,7.8,1.69,8.37.8.26-.43-.35-1.37-1.76-2.34a14.6,14.6,0,0,0-12.73-1.4C599.84,116.99,599.05,117.78,599.2,118.25Z" fill="#1a2e35"/>
                          </g>
                        </g>
                      </g>
                      <g id="Grupo_901622" data-name="Grupo 901622">
                        <g id="Grupo_901621" data-name="Grupo 901621">
                          <g id="Grupo_901620" data-name="Grupo 901620">
                            <path id="Trazado_625646" data-name="Trazado 625646" d="M565.39,121.33c.65.83,3.18-.03,6.22-.07,3.04-.15,5.62.56,6.21-.31.26-.42-.15-1.26-1.27-2.05a9,9,0,0,0-10.02.31C565.45,120.07,565.1,120.92,565.39,121.33Z" fill="#1a2e35"/>
                          </g>
                        </g>
                      </g>
                    </g>
                  </g>
                </g>
                <g id="Grupo_901626" data-name="Grupo 901626">
                  <path id="Trazado_625647" data-name="Trazado 625647" d="M547.86,83.24a8.841,8.841,0,0,1,3.26-7.89c2.41-1.74,6.15-1.63,8.11.61a7.306,7.306,0,0,1,6.28-8.86c3.9-.25,7.23,2.7,10.99,3.73,3.68,1.01,7.63.14,11.16-1.29s6.85-3.39,10.43-4.7A30.573,30.573,0,0,1,637.2,82.79c5.23-1.63,11.17,1.02,14.4,5.45s4.05,10.25,3.41,15.69a50.005,50.005,0,0,1-2.73,10.73c0,.31.03.61.03.92-.25,13.15-1.73,28.59-7.34,28.67-9.78.15-7.45-18.27-7.45-18.27-12-4.64-7.53-22.61-10.53-25.34s-9.28-9.06-34.4,3.78c-9.75,4.99-22.72,4.83-29.8,3.22-.21-.05-.42-.08-.63-.13-.04-.01-.1-.02-.15-.03-.08-.02-.13-.06-.21-.08a22.672,22.672,0,0,1-6.44-2.73,12.747,12.747,0,0,1-5.31-5.9,6.978,6.978,0,0,1,1.37-7.48A15.468,15.468,0,0,1,547.86,83.24Z" fill="#1a2e35"/>
                </g>
              </g>
              <g id="Grupo_901630" data-name="Grupo 901630">
                <g id="Grupo_901629" data-name="Grupo 901629">
                  <g id="Grupo_901628" data-name="Grupo 901628">
                    <path id="Trazado_625648" data-name="Trazado 625648" d="M684.24,392.07,686.05,426l4.04,48.74H536.47l6.67-72.01L530.06,288.96c1.14-40.2,16.57-56.92,48.16-60.76.26-.03-2.75.34-2.49.31,4.35-.51,0,0,2.49-.31a101.631,101.631,0,0,0,61.28-.04h0c9.47.4,17.32,3.32,25.37,4.86,25.37,4.86,46.27,24.47,51.34,41.53,4.18,14.05,34.39,135.9,34.39,135.9H690.5Z" fill="#996350"/>
                  </g>
                </g>
              </g>
            </g>
          </g>
        </g>
        <path id="Trazado_625649" data-name="Trazado 625649" d="M583.7,171.2a16.482,16.482,0,0,0,2.13,4.18,5.537,5.537,0,0,0,3.94,2.29,4.972,4.972,0,0,0,4.21-2.3,7.932,7.932,0,0,0,1.17-4.79c-.07-1.51-.76-3.31-2.26-3.49a3.894,3.894,0,0,0-1.82.4c-2.63,1.07-5.26,2.13-7.89,3.2" fill="#bf654e"/>
        <g id="Grupo_901634" data-name="Grupo 901634">
          <path id="Trazado_625650" data-name="Trazado 625650" d="M586.85,177.69c.04-.25,1.77.46,4.21-.52a5.969,5.969,0,0,0,3.18-2.89,6.328,6.328,0,0,0,.1-5.16,5.3,5.3,0,0,0-.69-1.18c-.31-.33-.25-.31-.6-.26-.32.09-.84.33-1.26.5-.44.18-.87.36-1.3.53-1.69.68-3.22,1.28-4.51,1.76-2.58.96-4.22,1.47-4.29,1.29s1.42-1.01,3.9-2.21c1.24-.6,2.73-1.29,4.39-2.04.42-.19.84-.38,1.28-.57a12.466,12.466,0,0,1,1.44-.59,1.815,1.815,0,0,1,1.17.03,2.1,2.1,0,0,1,.87.69,7.07,7.07,0,0,1,.89,1.5,7.4,7.4,0,0,1-.24,6.31,6.755,6.755,0,0,1-4,3.24,6.332,6.332,0,0,1-3.42.13C587.19,178.04,586.82,177.77,586.85,177.69Z" fill="#1a2e35"/>
        </g>
        <g id="Grupo_901680" data-name="Grupo 901680">
          <g id="Grupo_901679" data-name="Grupo 901679">
            <g id="Grupo_901638" data-name="Grupo 901638">
              <g id="Grupo_901637" data-name="Grupo 901637">
                <g id="Grupo_901636" data-name="Grupo 901636">
                  <g id="Grupo_901635" data-name="Grupo 901635">
                    <path id="Trazado_625651" data-name="Trazado 625651" d="M529.8,385.28,493.62,274.2l-3.28-18.65s-9.84-41.58-10.28-45.69c-.51-4.75-2.92-5.65-4.66-5.35-2.71.48-4.28,4.05-3.98,8.14.11,1.42,2.68,23.67,2.68,23.67a54.046,54.046,0,0,0-4.96-5.55c-3.74-3.81-11.73-5.36-19.64-4.25s-10.03,2.12-9.74,5.21a3.981,3.981,0,0,0,1.88,2.83,7.8,7.8,0,0,0,5.43,1.24c12.69-1.6,16.85,4.82,16.85,4.82l.43,2.44s-8.33-4.69-14.23-1.69a7.492,7.492,0,0,0-2.29,1.78,10,10,0,0,0-7.02,15.77c.98,1.38,2.65,2.57,4.27,2.06a5.3,5.3,0,0,0,2.1-1.61,7.892,7.892,0,0,1,1.04-.96l2.16,6.67s5.65,14.72,7.38,21.4l17.62,111.85a28.068,28.068,0,0,0,32.59,23.28h0A28.048,28.048,0,0,0,529.8,385.28Z" fill="#c78976"/>
                  </g>
                </g>
              </g>
            </g>
            <g id="Grupo_901648" data-name="Grupo 901648">
              <g id="Grupo_901642" data-name="Grupo 901642">
                <g id="Grupo_901641" data-name="Grupo 901641">
                  <g id="Grupo_901640" data-name="Grupo 901640">
                    <g id="Grupo_901639" data-name="Grupo 901639">
                      <path id="Trazado_625652" data-name="Trazado 625652" d="M489.8,273.07c-2.27.89-4.84-.56-6.33-2.49s-2.27-4.31-3.61-6.34c-4.01-6.08-12.35-8.28-16.06-14.55-.52-.87-.88-2.11-.14-2.8.69-.64,1.79-.31,2.66.05q11.115,4.68,22.22,9.35" fill="#c78976"/>
                    </g>
                  </g>
                </g>
              </g>
              <g id="Grupo_901647" data-name="Grupo 901647">
                <g id="Grupo_901646" data-name="Grupo 901646">
                  <g id="Grupo_901645" data-name="Grupo 901645">
                    <g id="Grupo_901644" data-name="Grupo 901644">
                      <g id="Grupo_901643" data-name="Grupo 901643">
                        <path id="Trazado_625653" data-name="Trazado 625653" d="M488.55,256.29a9.439,9.439,0,0,0-2.3-1.26c-1.52-.73-3.73-1.74-6.47-2.96-2.86-1.25-6.11-2.67-9.66-4.23-.92-.39-1.85-.79-2.8-1.2-.92-.31-1.97-1.13-3.56-.61a2.04,2.04,0,0,0-1.19,1.95,4.144,4.144,0,0,0,.56,1.89,15.66,15.66,0,0,0,2.14,2.84c3.31,3.46,7.31,5.43,10.32,7.89a18.236,18.236,0,0,1,3.78,3.9c.96,1.4,1.62,2.91,2.38,4.23,1.4,2.75,3.68,4.43,5.43,4.71,1.79.33,2.68-.36,2.63-.38a7.086,7.086,0,0,1-2.5-.14,8.225,8.225,0,0,1-4.71-4.65,47.28,47.28,0,0,0-2.29-4.4,18.911,18.911,0,0,0-3.93-4.26c-3.1-2.6-7.06-4.63-10.11-7.84a15.012,15.012,0,0,1-1.94-2.56c-.5-.87-.54-1.8-.02-1.95.54-.25,1.56.18,2.51.59.96.39,1.9.78,2.82,1.16,3.59,1.45,6.88,2.78,9.78,3.95,2.79,1.11,5.06,1.98,6.64,2.56A9.236,9.236,0,0,0,488.55,256.29Z" fill="#bf654e"/>
                      </g>
                    </g>
                  </g>
                </g>
              </g>
            </g>
            <g id="Grupo_901653" data-name="Grupo 901653">
              <g id="Grupo_901652" data-name="Grupo 901652">
                <g id="Grupo_901651" data-name="Grupo 901651">
                  <g id="Grupo_901650" data-name="Grupo 901650">
                    <g id="Grupo_901649" data-name="Grupo 901649">
                      <path id="Trazado_625654" data-name="Trazado 625654" d="M464.67,243.16a9.884,9.884,0,0,0-1.92-4.13,7.667,7.667,0,0,0-4.17-2.39,19.757,19.757,0,0,0-6.11-.22,31.679,31.679,0,0,1-6.35.13,10.18,10.18,0,0,1-4.93-1.83,3.961,3.961,0,0,1-1.61-3.16,2.439,2.439,0,0,1,.29-1.27c.09.01-.01.47.06,1.25a3.737,3.737,0,0,0,1.64,2.67,10.016,10.016,0,0,0,4.64,1.52,34.589,34.589,0,0,0,6.18-.2,19.213,19.213,0,0,1,6.38.31,8.01,8.01,0,0,1,4.46,2.79,7.278,7.278,0,0,1,1.44,3.24A2.572,2.572,0,0,1,464.67,243.16Z" fill="#bf654e"/>
                    </g>
                  </g>
                </g>
              </g>
            </g>
            <g id="Grupo_901658" data-name="Grupo 901658">
              <g id="Grupo_901657" data-name="Grupo 901657">
                <g id="Grupo_901656" data-name="Grupo 901656">
                  <g id="Grupo_901655" data-name="Grupo 901655">
                    <g id="Grupo_901654" data-name="Grupo 901654">
                      <path id="Trazado_625655" data-name="Trazado 625655" d="M471.34,211.08a24.677,24.677,0,0,1,.54,4.42c.29,3.04.64,6.66,1.03,10.67.45,4,.85,7.62,1.19,10.65a24.056,24.056,0,0,1,.38,4.44,19.426,19.426,0,0,1-1-4.35c-.48-2.71-1.02-6.48-1.45-10.65s-.69-7.97-.78-10.72A19.744,19.744,0,0,1,471.34,211.08Z" fill="#bf654e"/>
                    </g>
                  </g>
                </g>
              </g>
            </g>
            <g id="Grupo_901663" data-name="Grupo 901663">
              <g id="Grupo_901662" data-name="Grupo 901662">
                <g id="Grupo_901661" data-name="Grupo 901661">
                  <g id="Grupo_901660" data-name="Grupo 901660">
                    <g id="Grupo_901659" data-name="Grupo 901659">
                      <path id="Trazado_625656" data-name="Trazado 625656" d="M460.18,248.72a5.783,5.783,0,0,1-1.35-.36,4.13,4.13,0,0,0-3.44.2,2.206,2.206,0,0,0-.95,1.97,11.585,11.585,0,0,0,.52,2.86,5.01,5.01,0,0,1-.15,3.54,4.274,4.274,0,0,1-3.2,2.13,4.867,4.867,0,0,1-3.65-1.13,6.048,6.048,0,0,1-1.98-2.92,19.526,19.526,0,0,1-.52-5.71,11.574,11.574,0,0,1,.74-3.79c.37-.85.76-1.21.79-1.18a13.06,13.06,0,0,1-.46,1.3,13.56,13.56,0,0,0-.43,3.69,21.184,21.184,0,0,0,.68,5.46c.56,1.8,2.52,3.68,4.73,3.41a3.431,3.431,0,0,0,2.55-1.65,4.281,4.281,0,0,0,.12-2.96,11.872,11.872,0,0,1-.46-3.06,2.879,2.879,0,0,1,1.36-2.48,4.332,4.332,0,0,1,3.89,0A3.358,3.358,0,0,1,460.18,248.72Z" fill="#bf654e"/>
                    </g>
                  </g>
                </g>
              </g>
            </g>
            <g id="Grupo_901668" data-name="Grupo 901668">
              <g id="Grupo_901667" data-name="Grupo 901667">
                <g id="Grupo_901666" data-name="Grupo 901666">
                  <g id="Grupo_901665" data-name="Grupo 901665">
                    <g id="Grupo_901664" data-name="Grupo 901664">
                      <path id="Trazado_625657" data-name="Trazado 625657" d="M448.25,257.21c.04-.01.21.45.01,1.27a3.867,3.867,0,0,1-2.34,2.56,5.175,5.175,0,0,1-5.04-.98,8.47,8.47,0,0,1-2.81-5.63,10.279,10.279,0,0,1,1.26-6.15,9.685,9.685,0,0,1,3.63-3.61,9.133,9.133,0,0,1,3.24-1.14,2.724,2.724,0,0,1,1.26-.01,16.118,16.118,0,0,0-4.17,1.69,9.625,9.625,0,0,0-3.24,3.48,9.794,9.794,0,0,0-1.1,5.66,7.8,7.8,0,0,0,2.45,5.09,4.607,4.607,0,0,0,4.3,1.02,3.692,3.692,0,0,0,2.22-2.08C448.22,257.67,448.17,257.21,448.25,257.21Z" fill="#bf654e"/>
                    </g>
                  </g>
                </g>
              </g>
            </g>
            <g id="Grupo_901673" data-name="Grupo 901673">
              <g id="Grupo_901672" data-name="Grupo 901672">
                <g id="Grupo_901671" data-name="Grupo 901671">
                  <g id="Grupo_901670" data-name="Grupo 901670">
                    <g id="Grupo_901669" data-name="Grupo 901669">
                      <path id="Trazado_625658" data-name="Trazado 625658" d="M465.19,270.44a3.619,3.619,0,0,1,2.13-.2,8.363,8.363,0,0,1,4.94,2.31l-.72.3a26.833,26.833,0,0,1,.17-3.02c.67-5.87,3.43-9.94,3.59-9.79.25.11-2.07,4.24-2.71,9.89-.12,1.02-.18,2.01-.2,2.92l-.02,1.01-.7-.71a8.811,8.811,0,0,0-4.42-2.38A18.855,18.855,0,0,1,465.19,270.44Z" fill="#bf654e"/>
                    </g>
                  </g>
                </g>
              </g>
            </g>
            <g id="Grupo_901678" data-name="Grupo 901678">
              <g id="Grupo_901677" data-name="Grupo 901677">
                <g id="Grupo_901676" data-name="Grupo 901676">
                  <g id="Grupo_901675" data-name="Grupo 901675">
                    <g id="Grupo_901674" data-name="Grupo 901674">
                      <path id="Trazado_625659" data-name="Trazado 625659" d="M460.69,232.59c.22.08-.47,1.77-2.33,2.82-1.86,1.07-3.66.79-3.62.56,0-.26,1.57-.39,3.18-1.33C459.55,233.73,460.47,232.46,460.69,232.59Z" fill="#bf654e"/>
                    </g>
                  </g>
                </g>
              </g>
            </g>
          </g>
        </g>
        <g id="Grupo_901681" data-name="Grupo 901681">
          <path id="Trazado_625660" data-name="Trazado 625660" d="M558.46,232.58c.03.04-.49.54-1.4,1.58a16.2,16.2,0,0,0-3.14,5.04,6.81,6.81,0,0,0-.36,1.95,4.486,4.486,0,0,0,.52,2.05,7.276,7.276,0,0,0,3.9,2.9c3.43,1.28,7.71,1.66,12.36,1.75,2.33.04,4.84.13,7.41.28,1.29.15,2.6.3,3.94.46s2.67.5,4.05.76a41.013,41.013,0,0,1,16.25,7.22,29.83,29.83,0,0,1,6.71,7.04,24.958,24.958,0,0,1,1.27,2.19c.39.79.67,1.57.99,2.35a29.165,29.165,0,0,1,1.41,4.94,31.39,31.39,0,0,1-3.18,20.78,30.241,30.241,0,0,1-15.98,13.64,31.494,31.494,0,0,1-9.95,1.98,38.243,38.243,0,0,1-9.62-1.17,62.293,62.293,0,0,0-8.85-1.58,15.309,15.309,0,0,0-8.03,1.42,20.5,20.5,0,0,0-6.01,4.88c-1.68,1.89-3.12,3.88-4.54,5.77-2.81,3.77-5.78,7.09-9.24,8.83a11.409,11.409,0,0,1-5.15,1.35,11.645,11.645,0,0,1-4.39-.82,9.546,9.546,0,0,1-3.01-1.9,7.207,7.207,0,0,1-1.51-2.13,4.844,4.844,0,0,1-.48-2.08,19.958,19.958,0,0,0,.73,1.95,7.227,7.227,0,0,0,1.54,1.95,9.2,9.2,0,0,0,2.93,1.7,10.72,10.72,0,0,0,8.98-.71c3.25-1.71,6.07-4.95,8.81-8.73,1.38-1.89,2.81-3.93,4.52-5.89a21.708,21.708,0,0,1,6.3-5.2,16.542,16.542,0,0,1,8.64-1.61,62.293,62.293,0,0,1,9.05,1.55,37.515,37.515,0,0,0,9.3,1.1,30.215,30.215,0,0,0,9.51-1.92,28.991,28.991,0,0,0,15.23-13.03,30.037,30.037,0,0,0,3.06-19.84,27.183,27.183,0,0,0-1.33-4.73c-.32-.76-.59-1.54-.93-2.22a21.8,21.8,0,0,0-1.18-2.05,28.708,28.708,0,0,0-6.38-6.75,40.085,40.085,0,0,0-15.72-7.11c-1.34-.26-2.64-.62-3.96-.78s-2.6-.33-3.86-.49c-2.55-.18-4.97-.29-7.34-.37-4.72-.16-9.05-.6-12.63-2.01a7.82,7.82,0,0,1-4.2-3.31,4.985,4.985,0,0,1-.53-2.37,7,7,0,0,1,.45-2.12,15.358,15.358,0,0,1,3.45-5.05A6.867,6.867,0,0,1,558.46,232.58Z" fill="#fafafa"/>
        </g>
        <g id="Grupo_901682" data-name="Grupo 901682">
          <path id="Trazado_625661" data-name="Trazado 625661" d="M661.3,322.72a10.181,10.181,0,0,1-.65-3.04,25.116,25.116,0,0,1,.56-8.48,32.532,32.532,0,0,1,5.25-11.47,37.617,37.617,0,0,1,11.36-10.47,47.851,47.851,0,0,1,14.43-5.45,62.957,62.957,0,0,1,12.5-1.29,68.607,68.607,0,0,1,8.44.43,12.174,12.174,0,0,1,3.05.53c-.02.25-4.41-.24-11.46.04a68.942,68.942,0,0,0-12.25,1.56,48.663,48.663,0,0,0-13.99,5.4,37.728,37.728,0,0,0-11.02,10.02,33.152,33.152,0,0,0-5.33,10.95,27.868,27.868,0,0,0-.98,8.2A18.331,18.331,0,0,1,661.3,322.72Z" fill="#fafafa"/>
        </g>
        <g id="Grupo_901683" data-name="Grupo 901683">
          <path id="Trazado_625662" data-name="Trazado 625662" d="M735.18,346.23a9.837,9.837,0,0,1-1.59,2.38,39.256,39.256,0,0,1-5.44,5.59,44.4,44.4,0,0,1-48.55,5.86,39.7,39.7,0,0,1-6.62-4.13,10.118,10.118,0,0,1-2.11-1.93c.16-.23,3.25,2.47,9.15,5.16a45.4,45.4,0,0,0,47.5-5.73C732.61,349.4,734.97,346.05,735.18,346.23Z" fill="#fafafa"/>
        </g>
        <g id="Grupo_901684" data-name="Grupo 901684">
          <path id="Trazado_625663" data-name="Trazado 625663" d="M667.28,341.9a7.074,7.074,0,0,1-1.23.5,9.145,9.145,0,0,0-3.09,2.06,14.955,14.955,0,0,0-3.11,4.99,46.552,46.552,0,0,0-2.17,7.63,90.2,90.2,0,0,1-2.2,9.53,21.99,21.99,0,0,1-2.34,5.04,19.73,19.73,0,0,1-3.94,4.4,30.936,30.936,0,0,1-11.17,5.65c-4.16,1.23-8.58,1.91-13,2.78-8.84,1.63-16.95,4.91-23.11,9.63a37.911,37.911,0,0,0-7.7,7.76,34.307,34.307,0,0,0-4.4,8.46,29.378,29.378,0,0,0-1.43,13.68c.49,3.26,1.22,4.97,1.08,5.02a4.541,4.541,0,0,1-.57-1.22,12.41,12.41,0,0,1-.52-1.54,16.449,16.449,0,0,1-.53-2.17,28.517,28.517,0,0,1,1.02-14.09,34.535,34.535,0,0,1,4.39-8.82,38.33,38.33,0,0,1,7.87-8.12c6.31-4.92,14.65-8.32,23.63-9.98,4.47-.87,8.84-1.54,12.89-2.72a30,30,0,0,0,10.73-5.32,18.378,18.378,0,0,0,3.73-4.08,21.6,21.6,0,0,0,2.27-4.73,92.654,92.654,0,0,0,2.33-9.37,44.57,44.57,0,0,1,2.42-7.72,14.957,14.957,0,0,1,3.46-5.08,8.751,8.751,0,0,1,3.37-1.93A3.959,3.959,0,0,1,667.28,341.9Z" fill="#fafafa"/>
        </g>
        <g id="Grupo_901685" data-name="Grupo 901685">
          <path id="Trazado_625664" data-name="Trazado 625664" d="M631.05,336.26a5.586,5.586,0,0,1,.7,2.77,11.9,11.9,0,0,1-2.16,7.48,11.649,11.649,0,0,1-4.07,3.7,11.115,11.115,0,0,1-2.93,1.07,11.688,11.688,0,0,1-3.3.14,12.91,12.91,0,0,1-6.49-2.63,11.589,11.589,0,0,1-4.19-6.27,10.135,10.135,0,0,1,2.09-9.22,22.5,22.5,0,0,1,2.97-3.24,10.878,10.878,0,0,1,1.72-1.29,4.591,4.591,0,0,1,2.12-.74l.18,1.21c-.23.06-.45.11-.67.17l-.34-1.16a11.565,11.565,0,0,1,7.45.4,12.233,12.233,0,0,1,4.7,3.25,10.081,10.081,0,0,1,1.92,3.11,3.065,3.065,0,0,1,.3,1.25c-.18.08-.59-1.74-2.73-3.89a12.162,12.162,0,0,0-4.53-2.81,10.691,10.691,0,0,0-6.74-.18l-.34-1.16.66-.18.18,1.21a6.154,6.154,0,0,0-3.02,1.77,22.172,22.172,0,0,0-2.75,3.08,8.888,8.888,0,0,0-1.82,8.07,10.294,10.294,0,0,0,3.67,5.52,11.716,11.716,0,0,0,5.78,2.42,11.008,11.008,0,0,0,2.93-.06,9.743,9.743,0,0,0,2.62-.88,10.757,10.757,0,0,0,3.8-3.24,12.066,12.066,0,0,0,2.42-6.89C631.23,337.27,630.92,336.3,631.05,336.26Z" fill="#fafafa"/>
        </g>
        <g id="Grupo_901686" data-name="Grupo 901686">
          <path id="Trazado_625665" data-name="Trazado 625665" d="M543.81,292.1a1.226,1.226,0,0,1,.01.36c-.01.28-.02.63-.03,1.06-.05.99-.12,2.35-.2,4.08-.21,3.54-.42,8.66-.71,14.99-.53,12.66-1.05,30.17-1.46,49.5s-.67,36.86-.85,49.53c-.1,6.3-.17,11.41-.23,15.01q-.06,2.6-.09,4.08c-.02.43-.03.78-.04,1.06a1.259,1.259,0,0,1-.04.36,1.649,1.649,0,0,1-.03-.36c-.01-.28-.02-.63-.03-1.06-.01-.99-.03-2.35-.04-4.08V411.62c.05-12.68.23-30.19.64-49.54s1.01-36.85,1.66-49.51c.35-6.33.63-11.45.93-14.99.14-1.73.25-3.09.33-4.07.04-.43.08-.78.1-1.06A2.689,2.689,0,0,1,543.81,292.1Z" fill="#1a2e35"/>
        </g>
        <g id="Grupo_901687" data-name="Grupo 901687" opacity="0.2">
          <path id="Trazado_625666" data-name="Trazado 625666" d="M517.97,417.81c7.54,3.61,17.4-3.32,21.26-10.74,0,0,2.01-16.35,1.73-24.71-.52-15.47.61-30.78.09-46.25a48.716,48.716,0,0,1-11.04,25.13c-1.66,1.96-3.53,3.9-4.15,6.39-1.11,4.46,2.3,12.48,4.49,16.52,6.7,12.36-7.98,33.75-11.9,33.35"/>
        </g>
        <g id="Grupo_901688" data-name="Grupo 901688" opacity="0.2">
          <path id="Trazado_625667" data-name="Trazado 625667" d="M659.16,316.89q3.7,46.245,7.41,92.48a27.292,27.292,0,0,0,1.62,8.57c1.14,2.69,3.36,5.09,6.22,5.67,4.38.89,8.63-2.88,9.87-7.17s.25-8.89-.83-13.23c-1.83-7.39-3.91-14.73-5.99-22.05q-9.045-31.89-18.1-63.79"/>
        </g>
        <g id="Grupo_901689" data-name="Grupo 901689">
          <path id="Trazado_625668" data-name="Trazado 625668" d="M574.42,474.79a18.069,18.069,0,0,0,2.06-4.91c.77-3.33.29-8.5-2.3-14.09-1.28-2.79-3.07-5.69-4.88-8.89a39.092,39.092,0,0,1-4.58-10.92,25.983,25.983,0,0,1,.96-13.08c1.32-4.36,3.3-8.59,4.89-13.02a38.93,38.93,0,0,0,.67-25.86,38.328,38.328,0,0,0-5.12-10.26,39.407,39.407,0,0,0-6.84-7.33,40.307,40.307,0,0,0-12.69-7.08c-3.28-1.1-5.2-1.4-5.18-1.53a5.46,5.46,0,0,1,1.4.12,29.272,29.272,0,0,1,3.94.88,38.542,38.542,0,0,1,13.16,6.83,40.324,40.324,0,0,1,7.16,7.42,38.64,38.64,0,0,1,5.41,10.54,39.788,39.788,0,0,1-.58,26.73c-1.63,4.52-3.6,8.72-4.9,12.95a25.02,25.02,0,0,0-1.01,12.42,38.027,38.027,0,0,0,4.33,10.62c1.75,3.2,3.51,6.15,4.77,9.06,2.54,5.8,2.89,11.19,1.92,14.63a12.706,12.706,0,0,1-1.67,3.71A5.492,5.492,0,0,1,574.42,474.79Z" fill="#fafafa"/>
        </g>
        <g id="Grupo_901690" data-name="Grupo 901690">
          <path id="Trazado_625669" data-name="Trazado 625669" d="M701.34,252.37a7.554,7.554,0,0,1-1.31,2.69,19.693,19.693,0,0,1-5.87,5.7,25,25,0,0,1-11.53,3.81,38.219,38.219,0,0,1-14.73-1.88,30.714,30.714,0,0,1-12.85-7.46,19.241,19.241,0,0,1-3.75-5.41,18.1,18.1,0,0,1-1.46-5.54,14.131,14.131,0,0,1,1.5-8.05,8.111,8.111,0,0,1,.69-1.1,5.147,5.147,0,0,1,.59-.74c.35-.38.54-.55.58-.52.1.08-.6.89-1.36,2.6a14.473,14.473,0,0,0-1,7.7,17.225,17.225,0,0,0,1.53,5.16,18.373,18.373,0,0,0,3.61,4.99,30.244,30.244,0,0,0,12.35,7.03,38.324,38.324,0,0,0,14.2,1.93,24.851,24.851,0,0,0,11.1-3.37,21.471,21.471,0,0,0,5.95-5.17C700.74,253.26,701.23,252.32,701.34,252.37Z" fill="#fafafa"/>
        </g>
        <g id="Grupo_901691" data-name="Grupo 901691">
          <path id="Trazado_625670" data-name="Trazado 625670" d="M682.83,397.81a2.036,2.036,0,0,1-.14-.38c-.09-.29-.21-.67-.35-1.13-.31-1.05-.74-2.51-1.29-4.37-1.1-3.86-2.67-9.35-4.6-16.12-3.83-13.67-9.1-32.49-14.93-53.27-2.89-10.41-5.63-20.33-8.14-29.35a101.378,101.378,0,0,1-2.88-13.01,40.054,40.054,0,0,1-.04-11.62,24.955,24.955,0,0,1,7.65-14.71,18.418,18.418,0,0,1,3.8-2.55c.45-.19.81-.34,1.1-.46.25-.1.38-.15.38-.13a21.116,21.116,0,0,0-5.09,3.35,25.054,25.054,0,0,0-7.34,14.59,40.178,40.178,0,0,0,.12,11.46,101.679,101.679,0,0,0,2.93,12.91c2.52,9.02,5.28,18.93,8.19,29.34,5.75,20.8,10.95,39.63,14.73,53.32,1.84,6.8,3.34,12.31,4.39,16.18.49,1.88.88,3.35,1.16,4.41.12.47.21.85.28,1.15A1.545,1.545,0,0,1,682.83,397.81Z" fill="#1a2e35"/>
        </g>
        <g id="Grupo_901692" data-name="Grupo 901692">
          <path id="Trazado_625671" data-name="Trazado 625671" d="M627.77,98.41a13.8,13.8,0,0,0,.01-2.89,11.307,11.307,0,0,0-3.74-6.72c-2.41-2.29-6.37-3.66-10.76-3.55-4.42.04-9.13,1.49-13.99,3.13-2.44.8-4.85,1.57-7.24,2.1a37.689,37.689,0,0,1-18.77-.7,36.026,36.026,0,0,1-7.37-3.13c-.83-.46-1.44-.86-1.85-1.14a3.655,3.655,0,0,1-.61-.45c.04-.06.91.51,2.59,1.36a41.164,41.164,0,0,0,7.38,2.89,38.587,38.587,0,0,0,11.62,1.38,38,38,0,0,0,6.86-.87c2.35-.53,4.73-1.29,7.17-2.1,4.85-1.63,9.65-3.11,14.2-3.11,4.51-.08,8.65,1.4,11.11,3.84a11.282,11.282,0,0,1,3.67,7.05A6.479,6.479,0,0,1,627.77,98.41Z" fill="#375a64"/>
        </g>
        <g id="Grupo_901693" data-name="Grupo 901693">
          <path id="Trazado_625672" data-name="Trazado 625672" d="M646.36,138.82a1.831,1.831,0,0,1-.31-.5c-.19-.34-.44-.85-.74-1.52a30.189,30.189,0,0,1-1.9-5.94,32.9,32.9,0,0,1-.62-9.24c.22-3.51,1.31-7.22,2.13-11.11.85-3.87,1.05-7.73.02-10.99a10.97,10.97,0,0,0-2.29-4.16,8.352,8.352,0,0,0-3.44-2.25,7.832,7.832,0,0,0-5.9.15,11.848,11.848,0,0,0-1.84,1.29,4.559,4.559,0,0,1,1.71-1.53,7.942,7.942,0,0,1,6.19-.38,8.776,8.776,0,0,1,3.71,2.33,11.671,11.671,0,0,1,2.48,4.36c1.11,3.4.91,7.41.05,11.33-.83,3.94-1.93,7.59-2.18,11.02a33.551,33.551,0,0,0,.46,9.09,35.541,35.541,0,0,0,1.67,5.94A20.171,20.171,0,0,1,646.36,138.82Z" fill="#375a64"/>
        </g>
        <g id="Grupo_901694" data-name="Grupo 901694">
          <path id="Trazado_625673" data-name="Trazado 625673" d="M630.07,96.48a5.366,5.366,0,0,1,.01-.96c.03-.7.06-1.61.1-2.74a32.039,32.039,0,0,0-1.1-9.93,17.722,17.722,0,0,0-3.19-6.03,12.357,12.357,0,0,0-6.41-4.24,16.176,16.176,0,0,0-8.56.35,39.51,39.51,0,0,0-8.56,3.88,70.945,70.945,0,0,1-8.48,4.36,25.923,25.923,0,0,1-8.74,1.76,27.8,27.8,0,0,1-8.01-.98,30.953,30.953,0,0,1-6.5-2.68,26.581,26.581,0,0,1-7.69-6.57,15.889,15.889,0,0,1-1.56-2.27,5.329,5.329,0,0,1-.46-.84,5.164,5.164,0,0,1,.58.76,21.44,21.44,0,0,0,1.65,2.18,27.31,27.31,0,0,0,7.72,6.3,31.611,31.611,0,0,0,6.41,2.55,27.484,27.484,0,0,0,7.84.9,25.317,25.317,0,0,0,8.51-1.75,72.094,72.094,0,0,0,8.39-4.34,40.046,40.046,0,0,1,8.71-3.93,16.724,16.724,0,0,1,8.91-.31,12.887,12.887,0,0,1,6.69,4.49,17.817,17.817,0,0,1,3.22,6.26,30.229,30.229,0,0,1,.9,10.08c-.07,1.19-.16,2.12-.23,2.74A4.83,4.83,0,0,1,630.07,96.48Z" fill="#375a64"/>
        </g>
        <g id="Grupo_901702" data-name="Grupo 901702">
          <g id="Grupo_901700" data-name="Grupo 901700">
            <g id="Grupo_901696" data-name="Grupo 901696">
              <path id="Trazado_625674" data-name="Trazado 625674" d="M594.36,434.53l101.1-15.08-1.63-8.99h54.42l1.59,13.83a41.832,41.832,0,0,1-40.66,49.73l-117.92-1.31Z" fill="#c78976"/>
              <g id="Grupo_901695" data-name="Grupo 901695">
                <path id="Trazado_625675" data-name="Trazado 625675" d="M601.66,436.27c-.54.18-7.35-2.87-13.45-5.7a43.861,43.861,0,0,0-20.71-4.01l-28.11,1.43s1.74,4.64,4.72,6.29,20.46,2,20.46,2l-.89.92a20.207,20.207,0,0,1-13.99,6.12l-2.69.07a26.185,26.185,0,0,1-5.87-1.15l-6.93-2.8c-2.1-.95-4.31-.79-5.23,1.32-.83,1.91-.22,4.54,5.5,7.43,3.2,1.61,15.06,5.71,15.06,5.71a28.464,28.464,0,0,0,.69,5.01c.52,1.73,5.18,3.45,5.18,3.45s2.93,6.04,4.14,7.42c.54.62,4.76,1.93,9.25,3.19a39.727,39.727,0,0,0,22.15-.17l10.71-3.2V436.97" fill="#c78976"/>
              </g>
            </g>
            <g id="Grupo_901697" data-name="Grupo 901697">
              <path id="Trazado_625676" data-name="Trazado 625676" d="M563.2,457.59c-.01.18-3.35.01-7.31-1.04s-6.95-2.53-6.88-2.69c.08-.19,3.15.99,7.06,2.01S563.23,457.38,563.2,457.59Z" fill="#bf654e"/>
            </g>
            <g id="Grupo_901698" data-name="Grupo 901698">
              <path id="Trazado_625677" data-name="Trazado 625677" d="M562.21,464.17c0,.18-1.81.3-3.95-.29s-3.65-1.6-3.56-1.75c.1-.18,1.69.52,3.74,1.07C560.49,463.77,562.22,463.97,562.21,464.17Z" fill="#bf654e"/>
            </g>
            <g id="Grupo_901699" data-name="Grupo 901699">
              <path id="Trazado_625678" data-name="Trazado 625678" d="M722.17,443.03c-.13.05-.8-1.96-2.42-4.92a39.691,39.691,0,0,0-3.24-4.95,39.136,39.136,0,0,0-10.72-9.63,40.635,40.635,0,0,0-5.27-2.69c-3.12-1.29-5.18-1.74-5.15-1.88a5.788,5.788,0,0,1,1.46.24,13.688,13.688,0,0,1,1.68.44,22.407,22.407,0,0,1,2.19.73,34.726,34.726,0,0,1,5.42,2.59,36.978,36.978,0,0,1,10.9,9.79,34.347,34.347,0,0,1,3.16,5.11,22.91,22.91,0,0,1,.96,2.1,15.587,15.587,0,0,1,.62,1.63A5.9,5.9,0,0,1,722.17,443.03Z" fill="#bf654e"/>
            </g>
          </g>
          <g id="Grupo_901701" data-name="Grupo 901701">
            <path id="Trazado_625679" data-name="Trazado 625679" d="M567.35,433.74a12.45,12.45,0,0,1-2.17,2.32,35.247,35.247,0,0,1-6.12,4.64,24.394,24.394,0,0,1-7.18,2.77,10.2,10.2,0,0,1-3.16.34c-.07-.26,4.87-.71,9.99-3.72a47.06,47.06,0,0,0,6.15-4.4A16.982,16.982,0,0,1,567.35,433.74Z" fill="#bf654e"/>
          </g>
        </g>
      </g>
      <g id="Grupo_901843" data-name="Grupo 901843" clip-path="url(#clip-path)">
        <path id="Trazado_625681" data-name="Trazado 625681" d="M276.49,401.64c2.41,0-18.41,55.94-23.77,70.23-.59,1.58-1.01,2.98-1.01,2.98l145.77.25-1.72-135.63a2.457,2.457,0,0,0-.02-.27l-12.19-97.02a2.389,2.389,0,0,0-1.74-2.01c-5.77-1.57-26.57-6.93-42.48-7.52-18.66-.69-45.63,3.01-45.63,3.01s-24.21,2.5-37.53,7.3a2.392,2.392,0,0,0-1.56,2.59Z" fill="#ffc107"/>
        <g id="Grupo_901704" data-name="Grupo 901704">
          <path id="Trazado_625682" data-name="Trazado 625682" d="M343.81,341.52a10.741,10.741,0,0,1-.73,1.76,18.135,18.135,0,0,1-1.02,1.99,27.628,27.628,0,0,1-1.55,2.53,29.958,29.958,0,0,1-2.13,2.9,41.268,41.268,0,0,1-2.73,3.1,43.811,43.811,0,0,1-15.74,10.31c-1.38.48-2.67.97-3.94,1.27a30.691,30.691,0,0,1-3.51.79,29.376,29.376,0,0,1-2.94.41,17.678,17.678,0,0,1-2.23.14,11.79,11.79,0,0,1-1.91-.03c-.01-.15,2.72-.14,6.98-1a33.537,33.537,0,0,0,3.45-.87c1.24-.32,2.51-.82,3.86-1.31a45.388,45.388,0,0,0,15.51-10.16c.99-1.04,1.95-2.01,2.74-3.02.84-.96,1.54-1.93,2.17-2.81C342.6,343.96,343.68,341.45,343.81,341.52Z" fill="#1a2e35"/>
        </g>
        <g id="Grupo_901705" data-name="Grupo 901705" opacity="0.2">
          <path id="Trazado_625683" data-name="Trazado 625683" d="M256.66,461.3c13.8,5.85,29.69,3.57,41.82-5.23,5.26-3.82,9.67-8.81,15.34-11.97,7.87-4.39,17.24-4.81,26.23-5.45,12.03-.86,24.15-2.33,35.45-6.52,2.29-.85,4.63-1.87,6.2-3.75s2.09-4.84.56-6.74c-1.56-1.95-4.44-2.06-6.93-1.98-37.7,1.11-72.14,4.13-108.84,12.85"/>
        </g>
        <path id="Trazado_625684" data-name="Trazado 625684" d="M297.29,93.1c11.65-11.86,30.04-18.87,45.27-12.2,10.24,4.48,17.19,14.09,26.18,20.74,6.55,4.84,14.64,8.58,18.07,15.96,3.02,6.51,1.57,14.08.84,21.23s-.22,15.38,5.31,19.95c2.9,2.4,6.72,3.35,9.99,5.23,6.58,3.77,10.49,11.11,11.9,18.57s.65,15.13-.12,22.68l-31.38,5.98-5.15-8.67-1.8,13.63-40.04,3.61Z" fill="#1a2e35"/>
        <g id="Grupo_901772" data-name="Grupo 901772">
          <g id="Grupo_901771" data-name="Grupo 901771">
            <g id="Grupo_901770" data-name="Grupo 901770">
              <g id="Grupo_901759" data-name="Grupo 901759">
                <g id="Grupo_901758" data-name="Grupo 901758">
                  <g id="Grupo_901757" data-name="Grupo 901757">
                    <g id="Grupo_901710" data-name="Grupo 901710">
                      <g id="Grupo_901709" data-name="Grupo 901709">
                        <g id="Grupo_901708" data-name="Grupo 901708">
                          <g id="Grupo_901707" data-name="Grupo 901707">
                            <g id="Grupo_901706" data-name="Grupo 901706">
                              <path id="Trazado_625685" data-name="Trazado 625685" d="M292.11,106.05l-.07,8.73-2.47,130.88c-.21,15.17,14.3,28.09,30.55,28.19h0c16.41.11,23.1-12.22,23.57-27.54.49-16.08,1.31-33,1.31-33s20.81-2.87,25.85-29.78c2.51-13.38,2.44-35.44,1.8-53.49a28.555,28.555,0,0,0-30.75-27.48Z" fill="#ffbf9d"/>
                            </g>
                          </g>
                        </g>
                      </g>
                    </g>
                    <g id="Grupo_901722" data-name="Grupo 901722">
                      <g id="Grupo_901715" data-name="Grupo 901715">
                        <g id="Grupo_901714" data-name="Grupo 901714">
                          <g id="Grupo_901713" data-name="Grupo 901713">
                            <g id="Grupo_901712" data-name="Grupo 901712">
                              <g id="Grupo_901711" data-name="Grupo 901711">
                                <path id="Trazado_625686" data-name="Trazado 625686" d="M365.52,147.42a3.48,3.48,0,0,1-3.44,3.41,3.321,3.321,0,0,1-3.49-3.22,3.48,3.48,0,0,1,3.44-3.41A3.321,3.321,0,0,1,365.52,147.42Z" fill="#1a2e35"/>
                              </g>
                            </g>
                          </g>
                        </g>
                      </g>
                      <g id="Grupo_901721" data-name="Grupo 901721">
                        <g id="Grupo_901720" data-name="Grupo 901720">
                          <g id="Grupo_901719" data-name="Grupo 901719">
                            <g id="Grupo_901718" data-name="Grupo 901718">
                              <g id="Grupo_901717" data-name="Grupo 901717">
                                <g id="Grupo_901716" data-name="Grupo 901716">
                                  <path id="Trazado_625687" data-name="Trazado 625687" d="M367.55,141.37c-.44.44-3.02-1.58-6.75-1.67-3.72-.15-6.52,1.7-6.91,1.23-.19-.21.27-1.01,1.48-1.85a9.492,9.492,0,0,1,5.55-1.54,9.2,9.2,0,0,1,5.35,1.89C367.4,140.35,367.77,141.18,367.55,141.37Z" fill="#1a2e35"/>
                                </g>
                              </g>
                            </g>
                          </g>
                        </g>
                      </g>
                    </g>
                    <g id="Grupo_901734" data-name="Grupo 901734">
                      <g id="Grupo_901727" data-name="Grupo 901727">
                        <g id="Grupo_901726" data-name="Grupo 901726">
                          <g id="Grupo_901725" data-name="Grupo 901725">
                            <g id="Grupo_901724" data-name="Grupo 901724">
                              <g id="Grupo_901723" data-name="Grupo 901723">
                                <path id="Trazado_625688" data-name="Trazado 625688" d="M328.77,147.42a3.48,3.48,0,0,1-3.44,3.41,3.321,3.321,0,0,1-3.49-3.22,3.48,3.48,0,0,1,3.44-3.41A3.315,3.315,0,0,1,328.77,147.42Z" fill="#1a2e35"/>
                              </g>
                            </g>
                          </g>
                        </g>
                      </g>
                      <g id="Grupo_901733" data-name="Grupo 901733">
                        <g id="Grupo_901732" data-name="Grupo 901732">
                          <g id="Grupo_901731" data-name="Grupo 901731">
                            <g id="Grupo_901730" data-name="Grupo 901730">
                              <g id="Grupo_901729" data-name="Grupo 901729">
                                <g id="Grupo_901728" data-name="Grupo 901728">
                                  <path id="Trazado_625689" data-name="Trazado 625689" d="M330.86,141.06c-.44.44-3.02-1.58-6.75-1.67-3.72-.15-6.52,1.7-6.91,1.23-.19-.21.26-1.01,1.48-1.85a9.481,9.481,0,0,1,5.54-1.54,9.2,9.2,0,0,1,5.35,1.89C330.71,140.03,331.08,140.86,330.86,141.06Z" fill="#1a2e35"/>
                                </g>
                              </g>
                            </g>
                          </g>
                        </g>
                      </g>
                    </g>
                    <g id="Grupo_901740" data-name="Grupo 901740">
                      <g id="Grupo_901739" data-name="Grupo 901739">
                        <g id="Grupo_901738" data-name="Grupo 901738">
                          <g id="Grupo_901737" data-name="Grupo 901737">
                            <g id="Grupo_901736" data-name="Grupo 901736">
                              <g id="Grupo_901735" data-name="Grupo 901735">
                                <path id="Trazado_625690" data-name="Trazado 625690" d="M343.64,169.1c-.01-.21,2.32-.55,6.09-.93.96-.07,1.86-.24,2.04-.88a4.89,4.89,0,0,0-.56-2.84q-1.245-3.5-2.62-7.33c-3.63-10.44-6.22-19.01-5.8-19.15s3.7,8.2,7.33,18.64c.87,2.57,1.7,5.02,2.5,7.37.33,1.09.92,2.34.39,3.75a2.417,2.417,0,0,1-1.61,1.35,6.669,6.669,0,0,1-1.62.18C345.99,169.36,343.65,169.31,343.64,169.1Z" fill="#1a2e35"/>
                              </g>
                            </g>
                          </g>
                        </g>
                      </g>
                    </g>
                    <g id="Grupo_901745" data-name="Grupo 901745">
                      <g id="Grupo_901744" data-name="Grupo 901744">
                        <g id="Grupo_901743" data-name="Grupo 901743">
                          <g id="Grupo_901742" data-name="Grupo 901742">
                            <g id="Grupo_901741" data-name="Grupo 901741">
                              <path id="Trazado_625691" data-name="Trazado 625691" d="M345,213.31a68.8,68.8,0,0,1-35.94-10.66s8.27,18.81,35.39,17.03Z" fill="#ff9a6c"/>
                            </g>
                          </g>
                        </g>
                      </g>
                    </g>
                    <g id="Grupo_901750" data-name="Grupo 901750">
                      <g id="Grupo_901749" data-name="Grupo 901749">
                        <g id="Grupo_901748" data-name="Grupo 901748">
                          <g id="Grupo_901747" data-name="Grupo 901747">
                            <g id="Grupo_901746" data-name="Grupo 901746">
                              <path id="Trazado_625692" data-name="Trazado 625692" d="M341.81,178.04a6.72,6.72,0,0,0-5.96-2.66,6.117,6.117,0,0,0-4.3,2.16,3.892,3.892,0,0,0-.42,4.44c.97,1.44,3.06,1.83,4.86,1.37a14.375,14.375,0,0,0,4.85-2.71,4.309,4.309,0,0,0,1.1-1.07,1.257,1.257,0,0,0,.03-1.39" fill="#ff9a6c"/>
                            </g>
                          </g>
                        </g>
                      </g>
                    </g>
                    <g id="Grupo_901756" data-name="Grupo 901756">
                      <g id="Grupo_901755" data-name="Grupo 901755">
                        <g id="Grupo_901754" data-name="Grupo 901754">
                          <g id="Grupo_901753" data-name="Grupo 901753">
                            <g id="Grupo_901752" data-name="Grupo 901752">
                              <g id="Grupo_901751" data-name="Grupo 901751">
                                <path id="Trazado_625693" data-name="Trazado 625693" d="M332.59,171.37c.61-.02.5,4.03,3.89,7s7.71,2.64,7.73,3.21c.05.25-.98.76-2.81.76a10.059,10.059,0,0,1-6.45-2.45,8.755,8.755,0,0,1-3-5.86C331.83,172.33,332.31,171.34,332.59,171.37Z" fill="#1a2e35"/>
                              </g>
                            </g>
                          </g>
                        </g>
                      </g>
                    </g>
                  </g>
                </g>
              </g>
              <g id="Grupo_901764" data-name="Grupo 901764">
                <g id="Grupo_901763" data-name="Grupo 901763">
                  <g id="Grupo_901762" data-name="Grupo 901762">
                    <g id="Grupo_901761" data-name="Grupo 901761">
                      <g id="Grupo_901760" data-name="Grupo 901760">
                        <path id="Trazado_625694" data-name="Trazado 625694" d="M332.05,130.21c-.4,1-4.11.42-8.5.83-4.4.32-7.96,1.5-8.52.58-.25-.44.39-1.38,1.85-2.32a14.862,14.862,0,0,1,12.97-1.07C331.43,128.91,332.22,129.73,332.05,130.21Z" fill="#1a2e35"/>
                      </g>
                    </g>
                  </g>
                </g>
              </g>
              <g id="Grupo_901769" data-name="Grupo 901769">
                <g id="Grupo_901768" data-name="Grupo 901768">
                  <g id="Grupo_901767" data-name="Grupo 901767">
                    <g id="Grupo_901766" data-name="Grupo 901766">
                      <g id="Grupo_901765" data-name="Grupo 901765">
                        <path id="Trazado_625695" data-name="Trazado 625695" d="M367.69,133.84c-.82.82-3.93-.14-7.69-.29-3.75-.25-6.96.38-7.67-.53-.31-.44.22-1.27,1.63-2.04a12.455,12.455,0,0,1,6.29-1.22,12.2,12.2,0,0,1,6.08,1.87C367.64,132.55,368.05,133.43,367.69,133.84Z" fill="#1a2e35"/>
                      </g>
                    </g>
                  </g>
                </g>
              </g>
            </g>
          </g>
        </g>
        <path id="Trazado_625696" data-name="Trazado 625696" d="M264.22,240.48s-43.48,10.2-51.91,51.43c-3.87,18.94-9.3,127.73,16.04,144.63,32.71,21.81,74.28,1.96,74.28,1.96l-5.34-52.62h-27l-3.64-57.64C267.67,332.66,264.22,240.48,264.22,240.48Z" fill="#ffc107"/>
        <path id="Trazado_625697" data-name="Trazado 625697" d="M418.89,421.57a33.614,33.614,0,0,0,30.16-34.9L431.29,311.2s-11.52-64.77-47.93-70.61l12.41,98.74-1.18,20.81s.56,13.77,1.96,39.56Z" fill="#ffc107"/>
        <g id="Grupo_901773" data-name="Grupo 901773">
          <path id="Trazado_625698" data-name="Trazado 625698" d="M423.6,374.35a45.787,45.787,0,0,0-6.56.72,26.635,26.635,0,0,0-20.9,21.33,44.884,44.884,0,0,0-.58,6.57,7.218,7.218,0,0,1-.21-1.78,24.162,24.162,0,0,1,.3-4.88,26.157,26.157,0,0,1,21.28-21.72,24.006,24.006,0,0,1,4.87-.4A6.794,6.794,0,0,1,423.6,374.35Z" fill="#1a2e35"/>
        </g>
        <path id="Trazado_625699" data-name="Trazado 625699" d="M311.42,90.09c4.9,6.57,7.22,11.62,10.16,23.31,1.44,5.73-3.22,9.77-7.84,13.26a3.727,3.727,0,0,1-5.89-2.16h0s1.61,17.91-4.87,25.94c-3.04,3.76-3.16,8.59-2.44,12.66a21.441,21.441,0,0,0,5.79,10.95c7.51,7.89,9.6,20.77,4.41,30.46-1.33,2.48-3.06,4.75-4.12,7.35a10.976,10.976,0,0,0-.86,4.75,3.766,3.766,0,0,1-3.19,4,296.232,296.232,0,0,1-67.2,2.02,3.676,3.676,0,0,1-3.29-2.79c-1.75-7.42,1.17-15.52,4.92-22.35,4.19-7.63,9.52-14.96,10.97-23.54,1.36-8.08-.85-16.79,2.4-24.32,3.98-9.23,14.82-13.6,20.24-22.07,5.12-7.99,4.71-18.47,9.29-26.78,5.87-10.64,20.35-15.56,31.52-10.69" fill="#1a2e35"/>
        <path id="Trazado_625700" data-name="Trazado 625700" d="M312.67,100.01c8.5,4.37,12.43,14.77,20.69,19.58,7.52,4.38,16.91,3.23,25.52,1.93l-.96-5.73a15.42,15.42,0,0,0,3.19,4.64,5.248,5.248,0,0,0,5.23,1.24c2.89-1.16,3.27-5.14,2.53-8.16a28.045,28.045,0,0,0-7.52-12.73,38.118,38.118,0,0,0-49.73-3.97" fill="#1a2e35"/>
        <g id="Grupo_901774" data-name="Grupo 901774">
          <path id="Trazado_625701" data-name="Trazado 625701" d="M392.39,292.46a6.873,6.873,0,0,1,.08,1.06c.02.76.05,1.78.09,3.05.05,2.64.19,6.47.39,11.19.39,9.45,1.27,22.49,2.34,36.89s1.87,27.46,2.13,36.92c.14,4.73.2,8.56.16,11.21-.02,1.27-.03,2.28-.04,3.05a7.2,7.2,0,0,1-.06,1.06,6.873,6.873,0,0,1-.08-1.06c-.02-.76-.05-1.78-.09-3.05-.05-2.64-.19-6.47-.39-11.19-.39-9.45-1.27-22.49-2.34-36.89s-1.87-27.45-2.13-36.92c-.14-4.73-.2-8.56-.16-11.21.02-1.27.03-2.29.04-3.05A7.36,7.36,0,0,1,392.39,292.46Z" fill="#1a2e35"/>
        </g>
        <g id="Grupo_901775" data-name="Grupo 901775">
          <path id="Trazado_625702" data-name="Trazado 625702" d="M270.29,385.89a3.3,3.3,0,0,1-.1-.76c-.04-.57-.08-1.29-.14-2.17-.11-1.98-.26-4.69-.45-7.98-.38-6.74-.98-16.05-1.68-26.33-.71-10.24-1.36-19.5-1.83-26.32-.22-3.3-.39-6-.52-7.98-.05-.88-.08-1.6-.11-2.17a2.6,2.6,0,0,1,.01-.76,3.361,3.361,0,0,1,.13.75q.09.855.24,2.16c.19,1.98.44,4.67.75,7.96.59,6.73,1.34,16.03,2.04,26.31s1.22,19.6,1.47,26.35c.12,3.38.21,6.11.22,8,0,.88.01,1.6.01,2.18A2.684,2.684,0,0,1,270.29,385.89Z" fill="#1a2e35"/>
        </g>
        <g id="Grupo_901776" data-name="Grupo 901776">
          <path id="Trazado_625703" data-name="Trazado 625703" d="M270.29,385.89c.01.13-1.41.19-3.54.91a15.744,15.744,0,0,0-10.67,12.66c-.35,2.22-.17,3.63-.29,3.64a2.677,2.677,0,0,1-.21-.98,12.331,12.331,0,0,1,.01-2.73,15.153,15.153,0,0,1,11.01-13.06,12.439,12.439,0,0,1,2.69-.47C269.94,385.81,270.29,385.84,270.29,385.89Z" fill="#1a2e35"/>
        </g>
        <g id="Grupo_901777" data-name="Grupo 901777">
          <path id="Trazado_625704" data-name="Trazado 625704" d="M302.63,438.5a4.025,4.025,0,0,1-.16-.83c-.08-.62-.18-1.42-.31-2.4-.25-2.18-.59-5.18-1.01-8.84-.79-7.55-1.87-17.84-3.07-29.2-.4-3.95-.78-7.77-1.13-11.31l.34.3c-8.67-.05-16.18-.09-21.62-.12-2.61-.04-4.72-.07-6.28-.1-.68-.02-1.23-.04-1.68-.06a2.225,2.225,0,0,1-.58-.06,2.225,2.225,0,0,1,.58-.06c.45-.02,1-.03,1.68-.06,1.55-.02,3.67-.06,6.28-.1,5.45-.03,12.95-.07,21.62-.12h.31l.03.31c.36,3.54.76,7.36,1.16,11.31,1.11,11.37,2.12,21.66,2.86,29.22.33,3.68.59,6.68.79,8.86.07.99.13,1.79.18,2.41A4.206,4.206,0,0,1,302.63,438.5Z" fill="#1a2e35"/>
        </g>
        <g id="Grupo_901778" data-name="Grupo 901778">
          <path id="Trazado_625705" data-name="Trazado 625705" d="M302.63,438.5a6.768,6.768,0,0,1-1.02.38c-.74.24-1.73.55-2.97.95-2.58.8-6.33,1.94-11,3.19a138.726,138.726,0,0,1-16.65,3.46,57.676,57.676,0,0,1-20.77-.98,87.927,87.927,0,0,1-10.4-2.93c-1.64-.59-3.25-1.19-4.8-1.83-.77-.33-1.54-.63-2.28-1.03l-1.11-.56-1.03-.66a25.292,25.292,0,0,1-6.52-6.39,44.932,44.932,0,0,1-4.02-6.86,80.969,80.969,0,0,1-4.09-10.72c-.39-1.29-.69-2.3-.87-2.99a6.243,6.243,0,0,1-.25-1.06,5.99,5.99,0,0,1,.39,1.02c.25.74.58,1.72,1,2.95a90.174,90.174,0,0,0,4.28,10.58,44.547,44.547,0,0,0,4.04,6.73,25.085,25.085,0,0,0,6.4,6.2l1,.64,1.07.53c.71.38,1.48.68,2.25,1,1.54.64,3.14,1.23,4.77,1.81a89.046,89.046,0,0,0,10.32,2.89,57.622,57.622,0,0,0,20.54,1.03,145.819,145.819,0,0,0,16.61-3.3c4.68-1.18,8.44-2.25,11.05-2.97,1.25-.34,2.25-.61,3-.82A5.854,5.854,0,0,1,302.63,438.5Z" fill="#1a2e35"/>
        </g>
        <path id="Trazado_625706" data-name="Trazado 625706" d="M279.69,122.12a17.286,17.286,0,0,0-3.95-18.91,19.46,19.46,0,0,0-19.14-4.15,14.762,14.762,0,0,0-7.47,5.11c-3.31,4.58-2.67,11.31.76,15.81s9.14,6.87,14.78,7.18,11.25-1.24,16.46-3.41" fill="#1a2e35"/>
        <g id="Grupo_901786" data-name="Grupo 901786">
          <g id="Grupo_901781" data-name="Grupo 901781">
            <path id="Trazado_625707" data-name="Trazado 625707" d="M324.64,336.55c9.46,7.8,31.71,26.27,31.71,26.27l12.46-2.22-37.75-31.75a5.01,5.01,0,0,0-6.86.38h0A5.017,5.017,0,0,0,324.64,336.55Z" fill="#375a64"/>
            <path id="Trazado_625708" data-name="Trazado 625708" d="M323.65,332.49l-4.9-4.42a2.394,2.394,0,0,1-.23-3.32h0a2.4,2.4,0,0,1,3.45-.22l4.71,4.32Z" fill="#375a64"/>
            <g id="Grupo_901779" data-name="Grupo 901779">
              <path id="Trazado_625709" data-name="Trazado 625709" d="M338.23,334.87c.14.13-1.22,1.8-3.04,3.72s-3.41,3.37-3.55,3.24,1.22-1.8,3.04-3.72S338.09,334.74,338.23,334.87Z" fill="#1a2e35"/>
            </g>
            <g id="Grupo_901780" data-name="Grupo 901780">
              <path id="Trazado_625710" data-name="Trazado 625710" d="M338.61,350.42a24.627,24.627,0,0,1-3.77-2.46c-2.25-1.62-5.29-3.98-8.49-6.76a13.977,13.977,0,0,1-3.97-4.58,6.561,6.561,0,0,1-.13-4.97,6.254,6.254,0,0,1,2-2.69,2.7,2.7,0,0,1,1.07-.59c.03.05-.34.27-.9.79a6.618,6.618,0,0,0-1.71,2.65,6.16,6.16,0,0,0,.25,4.53,14.106,14.106,0,0,0,3.85,4.31c3.18,2.77,6.16,5.18,8.33,6.9A35.548,35.548,0,0,1,338.61,350.42Z" fill="#1a2e35"/>
            </g>
          </g>
          <g id="Grupo_901785" data-name="Grupo 901785">
            <path id="Trazado_625711" data-name="Trazado 625711" d="M297.72,390.1c8.96-3.01,18.49-.98,27.46-4,3.01-1.01,6.1-2.07,8.47-4.18,2.85-2.53,4.3-6.25,6.57-9.3,6.79-9.14,19.46-11.03,30.79-12.19a22.943,22.943,0,0,1,7.93.11c2.58.65,5.04,2.41,5.76,4.97s-.93,5.75-3.57,6.01c2.48.11,4.22,2.63,4.67,5.07s.05,4.97.38,7.43c.46,3.46,2.35,6.69,2.24,10.18-.15,4.77-4.11,8.7-8.51,10.54s-9.28,2.08-14.01,2.74c-23.21,3.27-40.87,16.45-63.26,26.41" fill="#ffbf9d"/>
            <path id="Trazado_625712" data-name="Trazado 625712" d="M386.01,379.8a3.2,3.2,0,0,0,4.57.94,4.888,4.888,0,0,0,1.75-4.72,11.023,11.023,0,0,0-2.24-4.75,60.45,60.45,0,0,0-6.5-7.17l-7.19,6.02Z" fill="#ffbf9d"/>
            <g id="Grupo_901782" data-name="Grupo 901782">
              <path id="Trazado_625713" data-name="Trazado 625713" d="M383.36,371.94c-.01.22-4.41-.14-9.72.68-5.33.78-9.42,2.43-9.49,2.22a9.53,9.53,0,0,1,2.62-1.21,36.122,36.122,0,0,1,13.72-2.07A9.445,9.445,0,0,1,383.36,371.94Z" fill="#ff9a6c"/>
            </g>
            <g id="Grupo_901783" data-name="Grupo 901783">
              <path id="Trazado_625714" data-name="Trazado 625714" d="M386.52,386.03c-.04.21-3.7-.54-8.25-.41-4.56.1-8.17,1.03-8.22.81-.06-.16,3.54-1.42,8.21-1.52C382.91,384.79,386.58,385.86,386.52,386.03Z" fill="#ff9a6c"/>
            </g>
            <g id="Grupo_901784" data-name="Grupo 901784">
              <path id="Trazado_625715" data-name="Trazado 625715" d="M385.76,381.86c-.11-.01,0-1.06-.2-2.71a14.258,14.258,0,0,0-2.18-6.01c-.29-.45-.61-.86-.92-1.25l-.2-.25.23-.22a6.494,6.494,0,0,0,1.87-4.76c-.03-1.34-.4-2.12-.3-2.16a3.545,3.545,0,0,1,.76,2.13,6.55,6.55,0,0,1-1.84,5.28l.02-.47a12.214,12.214,0,0,1,.98,1.32,12.893,12.893,0,0,1,2.08,6.35A5.982,5.982,0,0,1,385.76,381.86Z" fill="#ff9a6c"/>
            </g>
          </g>
        </g>
        <path id="Trazado_625716" data-name="Trazado 625716" d="M386.01,379.03l11.8,11.07,1.51,6.57-10.91-2.46C386.85,388.66,385.7,383.37,386.01,379.03Z" fill="#375a64"/>
        <path id="Trazado_625717" data-name="Trazado 625717" d="M370.05,393.13c-.24.43-63.64,31.69-63.64,31.69v6.72l64.7-33.65,80.28-3.03V390.1Z" fill="#f5f5f5"/>
        <path id="Trazado_625718" data-name="Trazado 625718" d="M306.41,432.51c.44-.3,70-6.57,70-6.57l74.97-31.08-80.28,3.03-64.7,33.65v.97Z" fill="#1a2e35"/>
        <g id="Grupo_901790" data-name="Grupo 901790">
          <path id="Trazado_625719" data-name="Trazado 625719" d="M373.01,415.86c-.56-3.64,2.93-6.76,6.48-7.74s7.36-.59,10.95-1.41a50.1,50.1,0,0,0,6.68-2.38c11.09-4.26,23.25-4.47,35.13-4.64a7.553,7.553,0,0,1-2.69,9.22,12.387,12.387,0,0,1-.37,8.9,27.767,27.767,0,0,1-4.95,7.61,17.275,17.275,0,0,1-5.86,4.91,19.665,19.665,0,0,1-7.52,1.16c-7.97.17-16.51.17-23.1-4.3-5.12-3.48-8.67-9.45-14.61-11.22l1.41.06" fill="#ffbf9d"/>
          <g id="Grupo_901787" data-name="Grupo 901787">
            <path id="Trazado_625720" data-name="Trazado 625720" d="M426.14,411.44a6.025,6.025,0,0,1-1.52.14c-1.13.04-2.52.08-4.16.13-3.51.08-8.37.14-13.72.17h-7.56a10.387,10.387,0,0,1-3.34-.51,5.147,5.147,0,0,1-2.42-1.76,3.234,3.234,0,0,1-.63-2.39,2.975,2.975,0,0,1,.84-1.66c.78-.73,1.45-.61,1.43-.59a3.093,3.093,0,0,0-1.23.78,2.765,2.765,0,0,0-.01,3.57,4.723,4.723,0,0,0,2.21,1.51,9.878,9.878,0,0,0,3.16.41c2.34-.02,4.88-.04,7.55-.06,5.36-.03,10.21-.01,13.73.03,1.64.04,3.03.07,4.16.09A6.635,6.635,0,0,1,426.14,411.44Z" fill="#ff9a6c"/>
          </g>
          <g id="Grupo_901788" data-name="Grupo 901788">
            <path id="Trazado_625721" data-name="Trazado 625721" d="M422.06,418.12a9.906,9.906,0,0,1-1.91.37c-1.24.19-3.04.45-5.27.66a52.165,52.165,0,0,1-7.9.19,59.189,59.189,0,0,1-9.54-1.6,74.537,74.537,0,0,0-17.27-2.12c-2.23-.01-4.04.08-5.29.15a11.992,11.992,0,0,1-1.95.06,9.436,9.436,0,0,1,1.92-.33c1.25-.15,3.06-.32,5.31-.37a67.511,67.511,0,0,1,17.43,1.93,61.939,61.939,0,0,0,9.43,1.64,55.882,55.882,0,0,0,7.82-.04c2.23-.15,4.03-.33,5.28-.44A10.1,10.1,0,0,1,422.06,418.12Z" fill="#ff9a6c"/>
          </g>
          <g id="Grupo_901789" data-name="Grupo 901789">
            <path id="Trazado_625722" data-name="Trazado 625722" d="M415.44,425.26a6.05,6.05,0,0,1-1.49.28c-.97.13-2.36.3-4.1.45a49.3,49.3,0,0,1-13.63-.44c-5.34-1.02-9.49-3.74-12.67-5a32.182,32.182,0,0,0-5.34-1.64,4.643,4.643,0,0,1,1.52.08,19.135,19.135,0,0,1,4,1.1c3.3,1.18,7.44,3.79,12.62,4.78a55.26,55.26,0,0,0,13.46.63c1.62-.09,2.99-.16,4.11-.22A5.591,5.591,0,0,1,415.44,425.26Z" fill="#ff9a6c"/>
          </g>
        </g>
        <g id="Grupo_901791" data-name="Grupo 901791" opacity="0.2">
          <path id="Trazado_625723" data-name="Trazado 625723" d="M397.45,388.97a45.48,45.48,0,0,1,3.95-14.29,22.06,22.06,0,0,1,10.21-10.44c4.52-2.05,10.14-1.97,14.21.87a7.326,7.326,0,0,1,2.83,3.38,4.16,4.16,0,0,1-.68,4.2c-1.49,1.59-4.02,1.33-6.19,1.24a26.069,26.069,0,0,0-24.1,14.52"/>
        </g>
        <g id="Grupo_901792" data-name="Grupo 901792" opacity="0.2">
          <path id="Trazado_625724" data-name="Trazado 625724" d="M280.05,384.85c5.37-9.69,3.47-21.84-.65-32.12s-10.28-19.74-13.43-30.36a187.374,187.374,0,0,0,9.26,63.49"/>
        </g>
        <path id="Trazado_625725" data-name="Trazado 625725" d="M289.57,236.58s6.56,15.46,30.21,14.47,24.42-19.34,24.42-19.34l15.83,16.83L345,279.52,324.8,294.6l-27.51-11.31L274.62,265.7Z" fill="#ffc107"/>
        <g id="Grupo_901793" data-name="Grupo 901793" opacity="0.5">
          <path id="Trazado_625726" data-name="Trazado 625726" d="M234.17,302.64c.24.3-2.85,3.19-6.91,6.45s-7.55,5.65-7.79,5.35,2.85-3.19,6.91-6.45S233.93,302.33,234.17,302.64Z" fill="#fafafa"/>
        </g>
        <g id="Grupo_901794" data-name="Grupo 901794">
          <path id="Trazado_625727" data-name="Trazado 625727" d="M245.26,285.96c-.12.35-3.86-.7-7.9-3.2-4.05-2.48-6.68-5.33-6.43-5.6.27-.3,3.24,2,7.16,4.4C242,283.98,245.4,285.59,245.26,285.96Z" fill="#fafafa"/>
        </g>
        <g id="Grupo_901795" data-name="Grupo 901795">
          <path id="Trazado_625728" data-name="Trazado 625728" d="M265.58,287.77c.32.25-2.67,4.59-6.07,10.11-3.42,5.51-5.97,10.12-6.34,9.94-.34-.16,1.67-5.1,5.14-10.68C261.76,291.55,265.28,287.54,265.58,287.77Z" fill="#fafafa"/>
        </g>
        <g id="Grupo_901796" data-name="Grupo 901796">
          <path id="Trazado_625729" data-name="Trazado 625729" d="M248.21,334.75c-.28.25-3.4-2.94-6.13-7.66-2.75-4.72-3.97-9-3.62-9.12.38-.14,2.15,3.82,4.83,8.42S248.53,334.49,248.21,334.75Z" fill="#fafafa"/>
        </g>
        <g id="Grupo_901797" data-name="Grupo 901797">
          <path id="Trazado_625730" data-name="Trazado 625730" d="M230.07,357.49c-.39.05-1.17-3.39-1.76-7.68s-.75-7.82-.36-7.88,1.17,3.39,1.76,7.69S230.46,357.44,230.07,357.49Z" fill="#fafafa"/>
        </g>
        <g id="Grupo_901798" data-name="Grupo 901798" opacity="0.5">
          <path id="Trazado_625731" data-name="Trazado 625731" d="M247.16,363.68c-.34-.2,1.4-3.82,3.88-8.09s4.76-7.58,5.1-7.39-1.4,3.82-3.88,8.09S247.49,363.88,247.16,363.68Z" fill="#fafafa"/>
        </g>
        <g id="Grupo_901799" data-name="Grupo 901799">
          <path id="Trazado_625732" data-name="Trazado 625732" d="M227.31,387.22c-.28.25-3.3-2.7-6.22-6.98-2.94-4.27-4.61-8.15-4.27-8.32.35-.19,2.55,3.33,5.44,7.52C225.12,383.64,227.61,386.96,227.31,387.22Z" fill="#fafafa"/>
        </g>
        <g id="Grupo_901800" data-name="Grupo 901800">
          <path id="Trazado_625733" data-name="Trazado 625733" d="M254.28,383.34c.28.27-2.83,3.85-6.93,8s-7.66,7.28-7.93,7,2.83-3.85,6.93-8S254,383.06,254.28,383.34Z" fill="#fafafa"/>
        </g>
        <g id="Grupo_901801" data-name="Grupo 901801" opacity="0.5">
          <path id="Trazado_625734" data-name="Trazado 625734" d="M238.95,431.92c-.26.27-3.25-2.23-5.98-6.14-2.75-3.9-4.07-7.57-3.73-7.72.37-.17,2.22,3.12,4.89,6.91C236.77,428.76,239.24,431.63,238.95,431.92Z" fill="#fafafa"/>
        </g>
        <g id="Grupo_901802" data-name="Grupo 901802">
          <path id="Trazado_625735" data-name="Trazado 625735" d="M273.75,422.08c.19.34-3.13,2.6-7.42,5.04s-7.93,4.16-8.12,3.82,3.13-2.6,7.42-5.04S273.56,421.75,273.75,422.08Z" fill="#fafafa"/>
        </g>
        <g id="Grupo_901803" data-name="Grupo 901803">
          <path id="Trazado_625736" data-name="Trazado 625736" d="M287.32,410.89c-.24.28-3.4-2.12-6.26-6.06-2.88-3.92-4.21-7.66-3.86-7.8.37-.17,2.22,3.19,5,6.97C284.95,407.8,287.59,410.59,287.32,410.89Z" fill="#fafafa"/>
        </g>
        <g id="Grupo_901804" data-name="Grupo 901804">
          <path id="Trazado_625737" data-name="Trazado 625737" d="M311.24,333.03c.23.31-3.35,3.39-7.99,6.87s-8.61,6.05-8.84,5.74,3.35-3.38,8-6.87S311,332.72,311.24,333.03Z" fill="#fafafa"/>
        </g>
        <g id="Grupo_901805" data-name="Grupo 901805">
          <path id="Trazado_625738" data-name="Trazado 625738" d="M286.02,331.41c-.39-.04-.32-3.74.14-8.27s1.15-8.17,1.54-8.13.32,3.74-.14,8.27S286.41,331.44,286.02,331.41Z" fill="#fafafa"/>
        </g>
        <g id="Grupo_901806" data-name="Grupo 901806" opacity="0.5">
          <path id="Trazado_625739" data-name="Trazado 625739" d="M309.27,299.73c-.22.31-4.41-2.27-9.01-6.2s-7.82-7.65-7.54-7.92,3.9,2.97,8.46,6.84C305.73,296.34,309.5,299.41,309.27,299.73Z" fill="#fafafa"/>
        </g>
        <g id="Grupo_901807" data-name="Grupo 901807">
          <path id="Trazado_625740" data-name="Trazado 625740" d="M291.82,260.23c.3.25-2.66,4.23-6.6,8.87s-7.38,8.22-7.68,7.96,2.66-4.22,6.61-8.87C288.08,263.54,291.52,259.98,291.82,260.23Z" fill="#fafafa"/>
        </g>
        <g id="Grupo_901808" data-name="Grupo 901808" opacity="0.5">
          <path id="Trazado_625741" data-name="Trazado 625741" d="M271.82,256c-.21.35-3.23-1.21-7.16-2.52-3.92-1.34-7.26-1.95-7.22-2.35.02-.37,3.57-.38,7.67,1.02C269.22,253.52,272.03,255.69,271.82,256Z" fill="#fafafa"/>
        </g>
        <g id="Grupo_901809" data-name="Grupo 901809">
          <path id="Trazado_625742" data-name="Trazado 625742" d="M322.64,274.21c-.37-.11.27-3.4,1.43-7.35s2.4-7.06,2.78-6.95-.27,3.4-1.43,7.35S323.02,274.32,322.64,274.21Z" fill="#fafafa"/>
        </g>
        <g id="Grupo_901810" data-name="Grupo 901810">
          <path id="Trazado_625743" data-name="Trazado 625743" d="M334.79,305.33c-.39-.02-.52-3.24-.29-7.19s.73-7.13,1.11-7.11.52,3.24.29,7.19S335.18,305.35,334.79,305.33Z" fill="#fafafa"/>
        </g>
        <g id="Grupo_901811" data-name="Grupo 901811">
          <path id="Trazado_625744" data-name="Trazado 625744" d="M354.76,328.68c-.24.3-3.2-1.67-6.61-4.41s-5.97-5.21-5.73-5.51,3.2,1.67,6.61,4.41S355.01,328.38,354.76,328.68Z" fill="#fafafa"/>
        </g>
        <g id="Grupo_901812" data-name="Grupo 901812">
          <path id="Trazado_625745" data-name="Trazado 625745" d="M376.04,296.07c.26.29-2.38,3.04-5.9,6.14s-6.57,5.38-6.83,5.09,2.38-3.04,5.9-6.14S375.79,295.78,376.04,296.07Z" fill="#fafafa"/>
        </g>
        <g id="Grupo_901813" data-name="Grupo 901813" opacity="0.5">
          <path id="Trazado_625746" data-name="Trazado 625746" d="M366.26,280.68c-.21.32-3.55-1.52-7.15-4.51s-6.03-5.93-5.75-6.19c.29-.28,3.11,2.18,6.65,5.11S366.48,280.35,366.26,280.68Z" fill="#fafafa"/>
        </g>
        <g id="Grupo_901814" data-name="Grupo 901814">
          <path id="Trazado_625747" data-name="Trazado 625747" d="M390.85,253.24c.31.21-1.33,3.01-4.22,5.72s-5.78,4.18-5.97,3.86c-.22-.34,2.23-2.27,5.01-4.89C388.45,255.33,390.53,253,390.85,253.24Z" fill="#fafafa"/>
        </g>
        <g id="Grupo_901815" data-name="Grupo 901815" opacity="0.5">
          <path id="Trazado_625748" data-name="Trazado 625748" d="M373.94,250.67c-.05.37-4.37.07-9.52-1.24s-9.1-3.08-8.97-3.43c.14-.38,4.24.79,9.31,2.07S374,250.27,373.94,250.67Z" fill="#fafafa"/>
        </g>
        <g id="Grupo_901816" data-name="Grupo 901816" opacity="0.5">
          <path id="Trazado_625749" data-name="Trazado 625749" d="M405.34,294.36c-.37-.08.47-5.36,2.4-11.65s4.17-11.15,4.52-11.01c.37.15-1.28,5.18-3.17,11.42C407.18,289.35,405.73,294.45,405.34,294.36Z" fill="#fafafa"/>
        </g>
        <g id="Grupo_901817" data-name="Grupo 901817">
          <path id="Trazado_625750" data-name="Trazado 625750" d="M412.3,324.18c-.28.27-3.62-2.81-7.46-6.87s-6.71-7.57-6.43-7.84,3.62,2.81,7.46,6.87S412.58,323.92,412.3,324.18Z" fill="#fafafa"/>
        </g>
        <g id="Grupo_901818" data-name="Grupo 901818" opacity="0.5">
          <path id="Trazado_625751" data-name="Trazado 625751" d="M423.07,341.08c-.39-.01-.63-4.44-.54-9.9s.48-9.88.87-9.87.63,4.44.54,9.9S423.46,341.09,423.07,341.08Z" fill="#fafafa"/>
        </g>
        <g id="Grupo_901819" data-name="Grupo 901819">
          <path id="Trazado_625752" data-name="Trazado 625752" d="M412.14,368.9c-.3.22-3.21-3.32-5.88-8.27-2.69-4.94-4.07-9.31-3.72-9.44.37-.15,2.31,3.91,4.96,8.77C410.12,364.82,412.47,368.67,412.14,368.9Z" fill="#fafafa"/>
        </g>
        <g id="Grupo_901820" data-name="Grupo 901820">
          <path id="Trazado_625753" data-name="Trazado 625753" d="M440.06,373.98c.27.28-1.6,2.55-4.19,5.07s-4.9,4.35-5.17,4.07,1.6-2.55,4.19-5.07S439.79,373.7,440.06,373.98Z" fill="#fafafa"/>
        </g>
        <g id="Grupo_901821" data-name="Grupo 901821" opacity="0.5">
          <path id="Trazado_625754" data-name="Trazado 625754" d="M372.08,342.27c-.35-.11.9-4.54,4.1-9.15,3.18-4.63,6.88-7.37,7.1-7.08.28.31-2.89,3.42-5.95,7.88C374.25,338.36,372.47,342.42,372.08,342.27Z" fill="#fafafa"/>
        </g>
        <g id="Grupo_901822" data-name="Grupo 901822">
          <path id="Trazado_625755" data-name="Trazado 625755" d="M293.24,379.37c-.38-.09.29-4.12,1.49-8.98s2.48-8.74,2.85-8.65-.29,4.11-1.49,8.98S293.62,379.46,293.24,379.37Z" fill="#fafafa"/>
        </g>
        <g id="Grupo_901823" data-name="Grupo 901823">
          <path id="Trazado_625756" data-name="Trazado 625756" d="M326.45,382.67c-.21.33-3.58-1.49-7.52-4.06s-6.96-4.92-6.75-5.24,3.58,1.49,7.52,4.06S326.66,382.34,326.45,382.67Z" fill="#fafafa"/>
        </g>
        <g id="Grupo_901824" data-name="Grupo 901824">
          <path id="Trazado_625757" data-name="Trazado 625757" d="M324.79,358.71c-.32.22-1.91-1.58-3.53-4.02s-2.69-4.59-2.36-4.8,1.91,1.58,3.53,4.02S325.11,358.5,324.79,358.71Z" fill="#fafafa"/>
        </g>
        <g id="Grupo_901825" data-name="Grupo 901825">
          <path id="Trazado_625758" data-name="Trazado 625758" d="M339.43,364.17c.22.32-1.2,1.7-3.18,3.09s-3.76,2.26-3.99,1.94,1.2-1.7,3.18-3.09S339.21,363.85,339.43,364.17Z" fill="#fafafa"/>
        </g>
        <g id="Grupo_901826" data-name="Grupo 901826" opacity="0.5">
          <path id="Trazado_625759" data-name="Trazado 625759" d="M301.19,461.37c-.38-.12.24-3.19.8-6.98s.87-6.91,1.27-6.91c.38-.01.71,3.2.12,7.11C302.81,458.51,301.55,461.49,301.19,461.37Z" fill="#fafafa"/>
        </g>
        <g id="Grupo_901827" data-name="Grupo 901827" opacity="0.5">
          <path id="Trazado_625760" data-name="Trazado 625760" d="M334.89,450.4c-.34.19-2.91-3.68-5.73-8.65s-4.85-9.16-4.51-9.35,2.9,3.68,5.73,8.65S335.23,450.21,334.89,450.4Z" fill="#fafafa"/>
        </g>
        <g id="Grupo_901828" data-name="Grupo 901828" opacity="0.5">
          <path id="Trazado_625761" data-name="Trazado 625761" d="M370.63,435.33c.31.24-3.08,5.18-7.57,11.05s-8.38,10.43-8.68,10.19,3.08-5.18,7.57-11.05S370.32,435.09,370.63,435.33Z" fill="#fafafa"/>
        </g>
        <g id="Grupo_901829" data-name="Grupo 901829" opacity="0.5">
          <path id="Trazado_625762" data-name="Trazado 625762" d="M380.7,464.03c.06.38-4.42,1.35-9.99,2.16s-10.14,1.15-10.2.76,4.42-1.35,10-2.16C376.07,463.99,380.64,463.65,380.7,464.03Z" fill="#fafafa"/>
        </g>
        <g id="Grupo_901830" data-name="Grupo 901830">
          <path id="Trazado_625763" data-name="Trazado 625763" d="M382.24,449.57c-.39-.09-.04-2.97.11-6.52s.06-6.45.46-6.5c.37-.06,1.11,2.87.95,6.56S382.61,449.66,382.24,449.57Z" fill="#fafafa"/>
        </g>
        <g id="Grupo_901831" data-name="Grupo 901831">
          <path id="Trazado_625764" data-name="Trazado 625764" d="M333.99,466.41c-.14.34-3.79-.87-7.6-3.62-3.83-2.74-6.14-5.81-5.86-6.05.3-.28,2.99,2.27,6.68,4.91C330.88,464.3,334.16,466.04,333.99,466.41Z" fill="#fafafa"/>
        </g>
        <g id="Grupo_901832" data-name="Grupo 901832">
          <path id="Trazado_625765" data-name="Trazado 625765" d="M276.66,464.28c-.38-.09.08-3.18,1.01-6.9s2-6.65,2.38-6.56-.08,3.18-1.01,6.9S277.03,464.37,276.66,464.28Z" fill="#fafafa"/>
        </g>
        <g id="Grupo_901833" data-name="Grupo 901833">
          <path id="Trazado_625766" data-name="Trazado 625766" d="M270.42,122.31c.09-.11,1.62,1.21,4.45,2.76a32.929,32.929,0,0,0,5.18,2.26,35.168,35.168,0,0,0,6.74,1.5,35.671,35.671,0,0,0,6.91.07,32.209,32.209,0,0,0,5.56-1.03c3.11-.87,4.9-1.81,4.96-1.68a5.692,5.692,0,0,1-1.23.71,11.878,11.878,0,0,1-1.52.69,20.358,20.358,0,0,1-2.08.75,29.26,29.26,0,0,1-5.63,1.19,31.284,31.284,0,0,1-13.93-1.6,29.32,29.32,0,0,1-5.21-2.44,19.871,19.871,0,0,1-1.85-1.21,11.147,11.147,0,0,1-1.32-1.02A4.834,4.834,0,0,1,270.42,122.31Z" fill="#375a64"/>
        </g>
        <g id="Grupo_901834" data-name="Grupo 901834">
          <path id="Trazado_625767" data-name="Trazado 625767" d="M305.35,137.87a6.19,6.19,0,0,1-1.47.46c-.96.24-2.36.56-4.11.87a37.519,37.519,0,0,1-13.85.08,21.587,21.587,0,0,1-11.97-6.82,14.9,14.9,0,0,1-2.27-3.57,4.673,4.673,0,0,1-.49-1.47,23.3,23.3,0,0,0,3.14,4.7,22.133,22.133,0,0,0,11.74,6.46,40.791,40.791,0,0,0,13.63.12c1.74-.24,3.15-.48,4.13-.64A6.1,6.1,0,0,1,305.35,137.87Z" fill="#375a64"/>
        </g>
        <g id="Grupo_901835" data-name="Grupo 901835">
          <path id="Trazado_625768" data-name="Trazado 625768" d="M257.21,220.61c-.01.01-.07-.06-.18-.19a6.674,6.674,0,0,1-.46-.6,7.73,7.73,0,0,1-1.08-2.71,12.4,12.4,0,0,1,2.97-10.04,25.655,25.655,0,0,1,5.65-4.77c2.22-1.46,4.71-2.81,7.15-4.45a21.654,21.654,0,0,0,6.51-6.36,11.607,11.607,0,0,0,1.62-4.47,13.879,13.879,0,0,0-.26-4.92,61.477,61.477,0,0,0-3.42-9.32,26.017,26.017,0,0,1-2.29-9.1,24.258,24.258,0,0,1,4.64-14.99,22.787,22.787,0,0,1,7.97-7.03c.56-.27,1.06-.51,1.51-.72.44-.15.83-.29,1.16-.41a6.09,6.09,0,0,1,.97-.29,5.389,5.389,0,0,1-.92.42c-.32.13-.7.29-1.12.47-.44.23-.93.49-1.47.77a23.211,23.211,0,0,0-7.7,7.08,24.064,24.064,0,0,0-4.4,14.67,25.245,25.245,0,0,0,2.28,8.87,61.044,61.044,0,0,1,3.47,9.43,14.723,14.723,0,0,1,.27,5.16,12.345,12.345,0,0,1-1.72,4.73,22.279,22.279,0,0,1-6.74,6.54c-2.5,1.66-4.99,2.98-7.2,4.41a24.878,24.878,0,0,0-5.59,4.61,12.263,12.263,0,0,0-3.08,9.67A9.518,9.518,0,0,0,257.21,220.61Z" fill="#375a64"/>
        </g>
        <g id="Grupo_901836" data-name="Grupo 901836">
          <path id="Trazado_625769" data-name="Trazado 625769" d="M293.22,221.1a4.348,4.348,0,0,1-.78-.44,6.335,6.335,0,0,1-1.74-1.9,9.156,9.156,0,0,1-1.22-3.9,14.68,14.68,0,0,1,.59-5.38c1.1-3.97,4.42-7.58,6.91-12.11a15.136,15.136,0,0,0,2.03-7.7,20.793,20.793,0,0,0-2.17-8.35c-2.57-5.44-6.52-9.76-9.24-14.28a29.379,29.379,0,0,1-3.19-6.8,16.422,16.422,0,0,1-.66-6.52,12.9,12.9,0,0,1,3.94-8.45,9.246,9.246,0,0,1,2.17-1.39,4.837,4.837,0,0,1,.84-.3,13.963,13.963,0,0,0-2.83,1.89,12.857,12.857,0,0,0-3.63,8.3,15.972,15.972,0,0,0,.73,6.3,29.691,29.691,0,0,0,3.18,6.63c1.38,2.21,3.02,4.42,4.69,6.74a47.917,47.917,0,0,1,4.64,7.58,21.237,21.237,0,0,1,2.22,8.63,15.732,15.732,0,0,1-2.15,8.02c-2.59,4.61-5.9,8.15-7,11.95a14.535,14.535,0,0,0-.67,5.2,9.007,9.007,0,0,0,1.06,3.79A7.842,7.842,0,0,0,293.22,221.1Z" fill="#375a64"/>
        </g>
        <g id="Grupo_901837" data-name="Grupo 901837">
          <path id="Trazado_625770" data-name="Trazado 625770" d="M346.57,119.61a1.536,1.536,0,0,1-.51-.22,11.063,11.063,0,0,1-1.34-.85,16.364,16.364,0,0,1-3.89-4.34,47.35,47.35,0,0,1-3.74-7.76c-.62-1.49-1.29-3.04-2.1-4.57a28.41,28.41,0,0,0-2.98-4.46,30.548,30.548,0,0,0-15.63-10.07,41.437,41.437,0,0,0-7.78-1.11,10.834,10.834,0,0,1,2.13-.12,28.239,28.239,0,0,1,5.77.75,29.906,29.906,0,0,1,16.05,10.11,28.71,28.71,0,0,1,3.05,4.58,47.855,47.855,0,0,1,2.09,4.65,51.9,51.9,0,0,0,3.57,7.75,17.522,17.522,0,0,0,3.64,4.39C345.93,119.2,346.61,119.55,346.57,119.61Z" fill="#375a64"/>
        </g>
        <g id="Grupo_901838" data-name="Grupo 901838">
          <path id="Trazado_625771" data-name="Trazado 625771" d="M365.43,119.5a2.883,2.883,0,0,1-.73-.08,10.545,10.545,0,0,1-2.03-.53,17.707,17.707,0,0,1-6.45-4.19,38.874,38.874,0,0,1-6.69-9.24c-2.12-3.72-4.17-7.99-7.35-11.71a23.129,23.129,0,0,0-11.47-7.16,44.672,44.672,0,0,0-11.16-1.49c-3.23-.07-5.84.06-7.65.13-.84.03-1.53.06-2.08.08a2.553,2.553,0,0,1-.73-.02,2.876,2.876,0,0,1,.72-.12c.47-.06,1.17-.14,2.08-.21,1.8-.15,4.42-.37,7.67-.36a43.382,43.382,0,0,1,11.33,1.36,23.438,23.438,0,0,1,11.83,7.32c3.26,3.82,5.31,8.14,7.39,11.85a39.716,39.716,0,0,0,6.47,9.2,18.412,18.412,0,0,0,6.19,4.29C364.44,119.3,365.45,119.42,365.43,119.5Z" fill="#375a64"/>
        </g>
        <g id="Grupo_901839" data-name="Grupo 901839">
          <path id="Trazado_625772" data-name="Trazado 625772" d="M397.35,207.25c-.08-.03.35-.96.8-2.73a25.577,25.577,0,0,0-5.93-24.04c-1.57-1.74-3.36-3.39-5.17-5.12a47.558,47.558,0,0,1-5.01-5.38,33.692,33.692,0,0,1-3.61-5.84,34.4,34.4,0,0,1-3.2-11.11,31.349,31.349,0,0,1,.08-7.79c.11-.92.27-1.61.37-2.09a2.6,2.6,0,0,1,.2-.71c.07.01-.14,1.01-.3,2.83a34.476,34.476,0,0,0,.14,7.7,33.536,33.536,0,0,0,1.08,5.2,32.468,32.468,0,0,0,2.2,5.68,33.012,33.012,0,0,0,3.57,5.7,47.817,47.817,0,0,0,4.95,5.29c1.81,1.73,3.61,3.39,5.19,5.17a26.259,26.259,0,0,1,3.93,5.63,25.594,25.594,0,0,1,2.79,11.21,24.283,24.283,0,0,1-1.05,7.73,17.047,17.047,0,0,1-.73,1.99C397.49,207.03,397.38,207.26,397.35,207.25Z" fill="#375a64"/>
        </g>
        <g id="Grupo_901840" data-name="Grupo 901840">
          <path id="Trazado_625773" data-name="Trazado 625773" d="M249.25,118.43a4.153,4.153,0,0,1,.17-1.33,12.818,12.818,0,0,1,1.33-3.4,14.446,14.446,0,0,1,21-5.03,12.981,12.981,0,0,1,2.72,2.43,4.024,4.024,0,0,1,.75,1.1,24.206,24.206,0,0,0-3.75-3.12,14.387,14.387,0,0,0-20.31,4.85A24.579,24.579,0,0,0,249.25,118.43Z" fill="#375a64"/>
        </g>
        <g id="Grupo_901841" data-name="Grupo 901841">
          <path id="Trazado_625774" data-name="Trazado 625774" d="M262.35,124.12a10.618,10.618,0,0,1,.38-3.07,13.558,13.558,0,0,1,3.2-6.78,7.159,7.159,0,0,1,7.17-1.81,4.219,4.219,0,0,1,1.92,1.31c.34.43.44.72.41.74a6.283,6.283,0,0,0-2.48-1.58,6.953,6.953,0,0,0-6.51,1.83,14.645,14.645,0,0,0-3.21,6.4A18.736,18.736,0,0,1,262.35,124.12Z" fill="#375a64"/>
        </g>
        <g id="Grupo_901842" data-name="Grupo 901842">
          <path id="Trazado_625775" data-name="Trazado 625775" d="M279.52,104.32c.18.13-2.07,3.09-3.55,7.36-1.52,4.26-1.61,7.98-1.83,7.97-.17.03-.39-3.81,1.17-8.2C276.83,107.04,279.41,104.19,279.52,104.32Z" fill="#ff4f5b"/>
        </g>
      </g>
      <g id="Grupo_901854" data-name="Grupo 901854" clip-path="url(#clip-path)">
        <g id="Grupo_901850" data-name="Grupo 901850">
          <g id="Grupo_901845" data-name="Grupo 901845">
            <g id="Grupo_901844" data-name="Grupo 901844">
              <path id="Trazado_625777" data-name="Trazado 625777" d="M495.81,137.27a4.21,4.21,0,1,0,4.21-4.21A4.21,4.21,0,0,0,495.81,137.27Z" fill="#375a64"/>
            </g>
          </g>
          <g id="Grupo_901847" data-name="Grupo 901847">
            <g id="Grupo_901846" data-name="Grupo 901846">
              <circle id="Elipse_5264" data-name="Elipse 5264" cx="4.21" cy="4.21" r="4.21" transform="translate(478.97 133.06)" fill="#375a64"/>
            </g>
          </g>
          <g id="Grupo_901849" data-name="Grupo 901849">
            <g id="Grupo_901848" data-name="Grupo 901848">
              <path id="Trazado_625778" data-name="Trazado 625778" d="M462.18,135.17a4.209,4.209,0,1,0,5.75-1.54A4.214,4.214,0,0,0,462.18,135.17Z" fill="#375a64"/>
            </g>
          </g>
        </g>
        <g id="Grupo_901853" data-name="Grupo 901853">
          <g id="Grupo_901852" data-name="Grupo 901852">
            <g id="Grupo_901851" data-name="Grupo 901851">
              <path id="Trazado_625779" data-name="Trazado 625779" d="M482.92,88.13a4.991,4.991,0,0,0-.85-.01c-.62.02-1.45.04-2.5.07-.55.03-1.17.03-1.84.08-.68.1-1.41.2-2.21.31s-1.66.24-2.57.37c-.9.22-1.86.46-2.88.71a46.505,46.505,0,0,0-13.94,6.08,49.925,49.925,0,0,0-14.41,14.04,50.525,50.525,0,0,0-8.18,22.93,52.045,52.045,0,0,0-.14,6.74c.08,1.14.06,2.3.22,3.45s.35,2.31.52,3.47a49.655,49.655,0,0,0,4.68,13.72,53.165,53.165,0,0,0,8.96,12.33,51.513,51.513,0,0,0,12.91,9.27,46.933,46.933,0,0,0,15.73,4.83,32.6,32.6,0,0,0,4.2.36,39.951,39.951,0,0,0,4.24.08,51.191,51.191,0,0,0,8.5-1.07,49.593,49.593,0,0,0,16.91-7.12l-.51.05q8.79,3.525,17.23,6.91l1.02.41-.29-1.06q-2.61-9.48-5.06-18.42l-.09.45a49.413,49.413,0,0,0,9.19-21.05,44.84,44.84,0,0,0,.67-10.78,34.044,34.044,0,0,0-.49-5.18q-.2-1.275-.39-2.52c-.15-.83-.41-1.63-.6-2.44a49.278,49.278,0,0,0-19.22-28.02,46.737,46.737,0,0,0-11.44-6.03c-.89-.32-1.75-.63-2.58-.92-.85-.22-1.66-.42-2.45-.62s-1.53-.38-2.24-.55c-.72-.14-1.41-.21-2.06-.31-1.3-.17-2.45-.39-3.45-.44-.99-.03-1.83-.06-2.53-.09-.64-.01-1.15-.03-1.55-.03a1.669,1.669,0,0,0-.51,0,1.994,1.994,0,0,0,.52.07l1.54.12c.7.05,1.53.1,2.52.17s2.13.33,3.42.52a49.006,49.006,0,0,1,39.18,36.34c.19.79.43,1.58.58,2.4.12.82.25,1.65.37,2.48a34.151,34.151,0,0,1,.46,5.09,44.116,44.116,0,0,1-.7,10.57,48.6,48.6,0,0,1-9.07,20.59l-.16.21.07.25q2.43,8.925,5.03,18.43l.73-.65q-8.415-3.39-17.22-6.93l-.27-.11-.24.16a48.576,48.576,0,0,1-24.84,8,35.883,35.883,0,0,1-4.15-.07,29.323,29.323,0,0,1-4.1-.35,45.722,45.722,0,0,1-15.39-4.71,50.761,50.761,0,0,1-12.64-9.05,51.833,51.833,0,0,1-8.8-12.05,48.4,48.4,0,0,1-4.63-13.42c-.18-1.14-.35-2.28-.53-3.4s-.15-2.26-.23-3.38a48.532,48.532,0,0,1,22.11-43.14,46.913,46.913,0,0,1,13.71-6.18c1-.27,1.95-.52,2.84-.76l2.55-.42,2.18-.36c.67-.07,1.28-.09,1.83-.14,1.05-.08,1.87-.14,2.49-.18A5.172,5.172,0,0,0,482.92,88.13Z" fill="#375a64"/>
            </g>
          </g>
        </g>
      </g>
    </g>
  </g>
</svg>
