<svg xmlns="http://www.w3.org/2000/svg" xmlns:xlink="http://www.w3.org/1999/xlink" width="453" height="338" viewBox="0 0 453 338">
  <defs>
    <clipPath id="clip-path">
      <rect id="Rectángulo_347411" data-name="Rectángulo 347411" width="453" height="338" transform="translate(268 1129)" fill="#fff" stroke="#707070" stroke-width="1"/>
    </clipPath>
  </defs>
  <g id="Grupo_1004830" data-name="Grupo 1004830" transform="translate(-285.512 -7226.148)">
    <g id="Enmascarar_grupo_868559" data-name="Enmascarar grupo 868559" transform="translate(17.512 6097.148)" clip-path="url(#clip-path)">
      <g id="Grupo_1004808" data-name="Grupo 1004808" transform="translate(-218.032 -365.751)">
        <g id="Grupo_1004782" data-name="Grupo 1004782" transform="translate(529.383 1559.751)">
          <g id="Grupo_1004618" data-name="Grupo 1004618" transform="translate(0 388.99)">
            <g id="Grupo_1004592" data-name="Grupo 1004592" transform="translate(23.007 368.186)">
              <g id="Grupo_1004591" data-name="Grupo 1004591">
                <path id="Trazado_643175" data-name="Trazado 643175" d="M494.806,400.02l-14.168,62.4-27.118-2.8,4.67-59.582Z" transform="translate(-453.52 -400.02)" fill="#df6966"/>
              </g>
            </g>
            <g id="Grupo_1004610" data-name="Grupo 1004610" transform="translate(0 414.913)">
              <g id="Grupo_1004594" data-name="Grupo 1004594">
                <g id="Grupo_1004593" data-name="Grupo 1004593">
                  <path id="Trazado_643176" data-name="Trazado 643176" d="M457.356,462.058h56.965s-1.918-29.644-4.557-36.706-6.024,7.061-6.024,7.061-5.324-11.01-14.574-11.641c-3.61-.248-7.219.564-8.8,4.219-.677-1.444-1.692-2.865-2.82-2.459-2.143.767-2.955,14.845-2.978,15.183-2.459,2.549-5.821,5.482-8.663,5.888C459.229,444.506,453.972,451.613,457.356,462.058Z" transform="translate(-456.3 -420.732)" fill="#e79e25"/>
                </g>
              </g>
              <g id="Grupo_1004597" data-name="Grupo 1004597" transform="translate(21.968 8.182)">
                <g id="Grupo_1004596" data-name="Grupo 1004596">
                  <g id="Grupo_1004595" data-name="Grupo 1004595">
                    <path id="Trazado_643177" data-name="Trazado 643177" d="M481.451,429.1a12,12,0,0,0-16.289-2.662c-.745.5-.045,1.669.7,1.2a10.674,10.674,0,0,1,14.619,2.437c.564.7,1.534-.293.97-.97Z" transform="translate(-464.844 -424.358)" fill="#fff"/>
                  </g>
                </g>
              </g>
              <g id="Grupo_1004600" data-name="Grupo 1004600" transform="translate(20.862 12.694)">
                <g id="Grupo_1004599" data-name="Grupo 1004599">
                  <g id="Grupo_1004598" data-name="Grupo 1004598">
                    <path id="Trazado_643178" data-name="Trazado 643178" d="M481.946,431.1a12,12,0,0,0-16.289-2.662c-.745.5-.045,1.669.7,1.2a10.674,10.674,0,0,1,14.619,2.437c.541.7,1.512-.271.97-.97Z" transform="translate(-465.339 -426.358)" fill="#fff"/>
                  </g>
                </g>
              </g>
              <g id="Grupo_1004603" data-name="Grupo 1004603" transform="translate(20.187 17.94)">
                <g id="Grupo_1004602" data-name="Grupo 1004602">
                  <g id="Grupo_1004601" data-name="Grupo 1004601">
                    <path id="Trazado_643179" data-name="Trazado 643179" d="M481.307,433.548c-3.5-4.918-9.566-6.565-14.6-2.8-.7.519-.023,1.715.7,1.2,4.4-3.294,9.611-2.053,12.724,2.3.5.722,1.669.023,1.173-.7Z" transform="translate(-466.417 -428.684)" fill="#fff"/>
                  </g>
                </g>
              </g>
              <g id="Grupo_1004606" data-name="Grupo 1004606" transform="translate(50.788 13.37)">
                <g id="Grupo_1004605" data-name="Grupo 1004605">
                  <g id="Grupo_1004604" data-name="Grupo 1004604">
                    <path id="Trazado_643180" data-name="Trazado 643180" d="M461.327,426.888c-4.805,5.753-4.535,13.175-3.722,20.214.09.88,1.466.88,1.376,0-.767-6.588-1.2-13.83,3.339-19.244.541-.677-.429-1.647-.993-.97Z" transform="translate(-457.14 -426.658)" fill="#201626"/>
                  </g>
                </g>
              </g>
              <g id="Grupo_1004609" data-name="Grupo 1004609" transform="translate(1.795 33.588)">
                <g id="Grupo_1004608" data-name="Grupo 1004608">
                  <g id="Grupo_1004607" data-name="Grupo 1004607">
                    <path id="Trazado_643181" data-name="Trazado 643181" d="M511.518,435.62q-27.14.271-54.28.564a.689.689,0,0,0,0,1.376q27.14-.271,54.28-.564a.689.689,0,0,0,0-1.376Z" transform="translate(-456.577 -435.62)" fill="#201626"/>
                  </g>
                </g>
              </g>
            </g>
            <g id="Grupo_1004612" data-name="Grupo 1004612" transform="translate(10.983)">
              <g id="Grupo_1004611" data-name="Grupo 1004611">
                <path id="Trazado_643182" data-name="Trazado 643182" d="M555.138,237.722s-30.344,158.171-41.173,185.785c-4.016,10.265-32.735,202.683-32.735,202.683l-66.17-.474S427.152,432.126,431.3,404.038c6.43-43.5,15.725-167.218,15.725-167.218Z" transform="translate(-415.06 -236.82)" fill="#2b1473"/>
              </g>
            </g>
            <g id="Grupo_1004613" data-name="Grupo 1004613" transform="translate(26.355 183.583)">
              <path id="Trazado_643183" data-name="Trazado 643183" d="M486.376,322.133a31.989,31.989,0,0,1-28.855-2.346c-.925-.564-.068-2.03.857-1.466a30.345,30.345,0,0,0,27.546,2.166c.993-.406,1.444,1.218.451,1.647Z" transform="translate(-457.124 -318.194)" fill="#4d36f2"/>
            </g>
            <g id="Grupo_1004615" data-name="Grupo 1004615" transform="translate(67.598 78.473)">
              <g id="Grupo_1004614" data-name="Grupo 1004614">
                <path id="Trazado_643184" data-name="Trazado 643184" d="M427.766,569.145a1.149,1.149,0,0,0,1.151-1.015c.2-1.647,20.891-163.947,26.531-185.763,5.64-21.861,28.313-108.426,28.539-109.305a1.166,1.166,0,0,0-2.256-.587c-.226.88-22.9,87.422-28.539,109.305-5.663,21.951-25.719,179.355-26.576,186.056a1.166,1.166,0,0,0,1.015,1.308Z" transform="translate(-426.604 -271.604)" fill="#4d36f2"/>
              </g>
            </g>
            <g id="Grupo_1004617" data-name="Grupo 1004617" transform="translate(5.704 372.179)">
              <g id="Grupo_1004616" data-name="Grupo 1004616">
                <path id="Trazado_643185" data-name="Trazado 643185" d="M446.516,401.79l77,1.444-2.639,19.65L444.44,421.1Z" transform="translate(-444.44 -401.79)" fill="#4d36f2"/>
              </g>
            </g>
          </g>
          <g id="Grupo_1004649" data-name="Grupo 1004649" transform="translate(39.532 368.617)">
            <g id="Grupo_1004638" data-name="Grupo 1004638" transform="translate(116.108 384.836)">
              <g id="Grupo_1004620" data-name="Grupo 1004620">
                <g id="Grupo_1004619" data-name="Grupo 1004619">
                  <path id="Trazado_643186" data-name="Trazado 643186" d="M395.44,398.37l3.61,61.071,26.012,2.076,10.062-60.056Z" transform="translate(-395.44 -398.37)" fill="#df6966"/>
                </g>
              </g>
              <g id="Grupo_1004622" data-name="Grupo 1004622" transform="translate(2.142 52.033)">
                <g id="Grupo_1004621" data-name="Grupo 1004621">
                  <path id="Trazado_643187" data-name="Trazado 643187" d="M392.319,426.524s3.948-4.873,8.957-3.226c5.008,1.669,11.573,9.882,11.573,9.882s27.163,8.708,34.517,9.182c7.332.451,13.762,4.58,16.514,18.815H374.9s-3.5-32.1-4.038-37.608,8.167,1.376,8.167,1.376Z" transform="translate(-370.84 -421.434)" fill="#e79e25"/>
                </g>
              </g>
              <g id="Grupo_1004625" data-name="Grupo 1004625" transform="translate(3.593 65.076)">
                <g id="Grupo_1004624" data-name="Grupo 1004624">
                  <g id="Grupo_1004623" data-name="Grupo 1004623">
                    <path id="Trazado_643188" data-name="Trazado 643188" d="M407.267,428.49c6.723,3.79,10.6,11.37,7.242,18.793-.361.79.812,1.512,1.2.7,3.677-8.1-.316-16.469-7.738-20.665a.683.683,0,0,0-.7,1.173Z" transform="translate(-406.935 -427.215)" fill="#201626"/>
                  </g>
                </g>
              </g>
              <g id="Grupo_1004628" data-name="Grupo 1004628" transform="translate(5.725 85.256)">
                <g id="Grupo_1004627" data-name="Grupo 1004627">
                  <g id="Grupo_1004626" data-name="Grupo 1004626">
                    <path id="Trazado_643189" data-name="Trazado 643189" d="M372.377,437.536q35.059.372,70.118.722c5.347.045,10.694.113,16.04.158a.689.689,0,0,0,0-1.376q-35.059-.372-70.118-.722c-5.347-.045-10.694-.113-16.041-.158a.689.689,0,0,0,0,1.376Z" transform="translate(-371.718 -436.16)" fill="#201626"/>
                  </g>
                </g>
              </g>
              <g id="Grupo_1004631" data-name="Grupo 1004631" transform="translate(39.691 63.809)">
                <g id="Grupo_1004630" data-name="Grupo 1004630">
                  <g id="Grupo_1004629" data-name="Grupo 1004629">
                    <path id="Trazado_643190" data-name="Trazado 643190" d="M390.083,432.218c3.091-4.354,8.325-5.6,12.724-2.3.7.542,1.4-.654.7-1.2-5.031-3.768-11.1-2.121-14.6,2.8-.519.722.677,1.421,1.173.7Z" transform="translate(-388.782 -426.654)" fill="#fff"/>
                  </g>
                </g>
              </g>
              <g id="Grupo_1004634" data-name="Grupo 1004634" transform="translate(47.362 66.133)">
                <g id="Grupo_1004633" data-name="Grupo 1004633">
                  <g id="Grupo_1004632" data-name="Grupo 1004632">
                    <path id="Trazado_643191" data-name="Trazado 643191" d="M386.683,433.248c3.091-4.354,8.325-5.572,12.724-2.3.7.541,1.4-.654.7-1.2-5.031-3.768-11.1-2.121-14.6,2.8-.519.722.677,1.4,1.173.7Z" transform="translate(-385.382 -427.684)" fill="#fff"/>
                  </g>
                </g>
              </g>
              <g id="Grupo_1004637" data-name="Grupo 1004637" transform="translate(55.279 68.434)">
                <g id="Grupo_1004636" data-name="Grupo 1004636">
                  <g id="Grupo_1004635" data-name="Grupo 1004635">
                    <path id="Trazado_643192" data-name="Trazado 643192" d="M383.174,434.268c3.091-4.354,8.325-5.572,12.724-2.3.7.542,1.4-.654.7-1.2-5.031-3.768-11.1-2.121-14.6,2.8-.519.744.654,1.421,1.173.7Z" transform="translate(-381.872 -428.704)" fill="#fff"/>
                  </g>
                </g>
              </g>
            </g>
            <g id="Grupo_1004639" data-name="Grupo 1004639" transform="translate(84.321)">
              <path id="Trazado_643193" data-name="Trazado 643193" d="M461.591,227.79,486.2,422.261,466.058,637.284H392.827l11.122-207.218L380.08,251.23Z" transform="translate(-380.08 -227.79)" fill="#2b1473"/>
            </g>
            <g id="Grupo_1004640" data-name="Grupo 1004640" transform="translate(152.493 195.404)">
              <path id="Trazado_643194" data-name="Trazado 643194" d="M416.982,315.975a53.266,53.266,0,0,1-35.781,6.971c-1.083-.158-.609-1.8.451-1.624a51.607,51.607,0,0,0,34.495-6.791.834.834,0,0,1,.835,1.444Z" transform="translate(-380.587 -314.404)" fill="#4d36f2"/>
            </g>
            <g id="Grupo_1004641" data-name="Grupo 1004641" transform="translate(147.671 21.144)">
              <path id="Trazado_643195" data-name="Trazado 643195" d="M412.089,283.294a42.389,42.389,0,0,1-23.869-45.527c.18-1.06,1.8-.609,1.624.451a40.7,40.7,0,0,0,23.079,43.609c.993.474.135,1.94-.835,1.466Z" transform="translate(-387.634 -237.162)" fill="#4d36f2"/>
            </g>
            <g id="Grupo_1004642" data-name="Grupo 1004642" transform="translate(0 31.229)">
              <path id="Trazado_643196" data-name="Trazado 643196" d="M482.489,242.462a53.462,53.462,0,0,1-31.043,49.746c-.993.451-1.85-1.015-.857-1.466A51.8,51.8,0,0,0,480.8,242.462c-.045-1.105,1.647-1.105,1.692,0Z" transform="translate(-450.148 -241.633)" fill="#4d36f2"/>
            </g>
            <g id="Grupo_1004644" data-name="Grupo 1004644" transform="translate(94.777 39.74)">
              <g id="Grupo_1004643" data-name="Grupo 1004643">
                <path id="Trazado_643197" data-name="Trazado 643197" d="M426.722,602.052a1.182,1.182,0,0,0,1.173-1.105l10.31-198.938a.924.924,0,0,0-.023-.248L412.306,246.387a1.178,1.178,0,0,0-2.324.384l25.854,155.261-10.287,198.8a1.163,1.163,0,0,0,1.105,1.218Z" transform="translate(-409.97 -245.405)" fill="#4d36f2"/>
              </g>
            </g>
            <g id="Grupo_1004646" data-name="Grupo 1004646" transform="translate(75.809 25.148)">
              <g id="Grupo_1004645" data-name="Grupo 1004645">
                <path id="Trazado_643198" data-name="Trazado 643198" d="M439.8,288.847a14.826,14.826,0,0,0,5.211-.9,1.173,1.173,0,0,0-.9-2.166,12.183,12.183,0,0,1-12.431-2.482c-4.828-4.467-9.047-32.78-10.265-43.316a1.169,1.169,0,0,0-2.324.248c.451,3.971,4.647,38.872,10.987,44.76A14,14,0,0,0,439.8,288.847Z" transform="translate(-419.081 -238.937)" fill="#4d36f2"/>
              </g>
            </g>
            <g id="Grupo_1004648" data-name="Grupo 1004648" transform="translate(93.751 392.552)">
              <g id="Grupo_1004647" data-name="Grupo 1004647">
                <path id="Trazado_643199" data-name="Trazado 643199" d="M386.723,404.023l81.962-2.233-.745,18.635-81.421,1.9Z" transform="translate(-386.52 -401.79)" fill="#4d36f2"/>
              </g>
            </g>
          </g>
          <g id="Grupo_1004693" data-name="Grupo 1004693" transform="translate(126.639 111.642)">
            <g id="Grupo_1004650" data-name="Grupo 1004650" transform="translate(26.082 20.993)">
              <path id="Trazado_643200" data-name="Trazado 643200" d="M324.71,195.5s61.77,24.952,93.31,24.7S522.9,140.4,522.9,140.4l-5.8-17.011s-93.874,51.821-99.131,53.085S332.4,123.19,332.4,123.19,315.19,170.973,324.71,195.5Z" transform="translate(-321.84 -123.19)" fill="#df6966"/>
            </g>
            <g id="Grupo_1004651" data-name="Grupo 1004651" transform="translate(188.657 33.74)">
              <path id="Trazado_643201" data-name="Trazado 643201" d="M339.294,128.84s.925,15.928,11.551,22c0,0-2.775,6.655-8.731,8.505,0,0-10.852-11.325-12.724-25.065C329.39,134.255,332.391,129.81,339.294,128.84Z" transform="translate(-329.39 -128.84)" fill="#201626"/>
            </g>
            <g id="Grupo_1004653" data-name="Grupo 1004653" transform="translate(116.737 74.378)">
              <g id="Grupo_1004652" data-name="Grupo 1004652">
                <path id="Trazado_643202" data-name="Trazado 643202" d="M372.7,147.523a66.615,66.615,0,0,1-4.76,15.5c-.474,1.038,1.105,1.9,1.579.835a69.281,69.281,0,0,0,4.918-15.928c.2-1.128-1.534-1.534-1.737-.406Z" transform="translate(-367.853 -146.853)" fill="#a53d31"/>
              </g>
            </g>
            <g id="Grupo_1004655" data-name="Grupo 1004655" transform="translate(121.238 76.724)">
              <g id="Grupo_1004654" data-name="Grupo 1004654">
                <path id="Trazado_643203" data-name="Trazado 643203" d="M366.073,149.285a51.111,51.111,0,0,1,4.444,14.145c.18,1.128,1.963,1.06,1.782-.068a53.242,53.242,0,0,0-4.738-15.025c-.474-1.038-1.985-.068-1.489.948Z" transform="translate(-365.974 -147.893)" fill="#a53d31"/>
              </g>
            </g>
            <g id="Grupo_1004657" data-name="Grupo 1004657" transform="translate(0 20.929)">
              <g id="Grupo_1004656" data-name="Grupo 1004656">
                <path id="Trazado_643204" data-name="Trazado 643204" d="M387.5,178.228c11.754,15.454,32.961,38.127,61.071,46.813l26.712-69.689s-30.772-22.606-56.649-30.592c-16.4-5.054-22.222,2.843-29.193,10.2C378.226,146.847,377.594,165.233,387.5,178.228Z" transform="translate(-380.52 -123.161)" fill="#c6781c"/>
              </g>
            </g>
            <g id="Grupo_1004659" data-name="Grupo 1004659" transform="translate(60.466 49.968)">
              <g id="Grupo_1004658" data-name="Grupo 1004658">
                <path id="Trazado_643205" data-name="Trazado 643205" d="M412.174,137.086q-13.942,33.671-27.885,67.32c-.429,1.015-2.076.519-1.647-.5q13.942-33.671,27.885-67.32c.406-1.015,2.053-.519,1.647.5Z" transform="translate(-382.572 -136.033)" fill="#fff"/>
              </g>
            </g>
            <g id="Grupo_1004692" data-name="Grupo 1004692" transform="translate(202.376)">
              <g id="Grupo_1004661" data-name="Grupo 1004661">
                <g id="Grupo_1004660" data-name="Grupo 1004660">
                  <path id="Trazado_643206" data-name="Trazado 643206" d="M305.364,151.821a17.068,17.068,0,0,1,6.024-20.214,53.618,53.618,0,0,1,6.2-3.7c4.625-2.369,15.273-8.37,19.289-10.806s6.43-4.873,7.738-1.715-12.16,14.439-12.16,14.439,26.148-6.881,29.893-2.933-5.55,5.369-5.55,5.369,11.37-.519,11.98,2.843-11.145,4.332-11.145,4.332,9.7.271,10.626,2.978-6.475,3.61-10.31,3.768c0,0,9,1.218,8.934,4.264-.068,3.068-8.392,1.286-13.83,1.376-5.437.113-18.7.745-23.35,5.775a12.8,12.8,0,0,1-6.43,3.722,15.438,15.438,0,0,1-17.913-9.5Z" transform="translate(-304.17 -113.885)" fill="#df6966"/>
                </g>
              </g>
              <g id="Grupo_1004666" data-name="Grupo 1004666" transform="translate(38.813 17.425)">
                <g id="Grupo_1004665" data-name="Grupo 1004665">
                  <g id="Grupo_1004664" data-name="Grupo 1004664">
                    <g id="Grupo_1004663" data-name="Grupo 1004663">
                      <g id="Grupo_1004662" data-name="Grupo 1004662">
                        <path id="Trazado_643207" data-name="Trazado 643207" d="M323.477,123.169a40.338,40.338,0,0,0-13.852.993.671.671,0,0,1-.293-1.309,41.318,41.318,0,0,1,14.213-1.038c.835.09.79,1.444-.068,1.354Z" transform="translate(-308.823 -121.608)" fill="#a53d31"/>
                      </g>
                    </g>
                  </g>
                </g>
              </g>
              <g id="Grupo_1004671" data-name="Grupo 1004671" transform="translate(41.305 24.64)">
                <g id="Grupo_1004670" data-name="Grupo 1004670">
                  <g id="Grupo_1004669" data-name="Grupo 1004669">
                    <g id="Grupo_1004668" data-name="Grupo 1004668">
                      <g id="Grupo_1004667" data-name="Grupo 1004667">
                        <path id="Trazado_643208" data-name="Trazado 643208" d="M321.773,126.236c-4.309-.2-8.641-.2-12.792,1.083-.835.248-1.128-1.06-.293-1.309,4.264-1.309,8.731-1.309,13.153-1.105a.667.667,0,0,1-.068,1.331Z" transform="translate(-308.189 -124.806)" fill="#a53d31"/>
                      </g>
                    </g>
                  </g>
                </g>
              </g>
              <g id="Grupo_1004676" data-name="Grupo 1004676" transform="translate(42.19 31.431)">
                <g id="Grupo_1004675" data-name="Grupo 1004675">
                  <g id="Grupo_1004674" data-name="Grupo 1004674">
                    <g id="Grupo_1004673" data-name="Grupo 1004673">
                      <g id="Grupo_1004672" data-name="Grupo 1004672">
                        <path id="Trazado_643209" data-name="Trazado 643209" d="M320.753,129.494a31.571,31.571,0,0,0-11.641.451.671.671,0,0,1-.293-1.308,32.564,32.564,0,0,1,12-.474c.835.113.79,1.466-.068,1.331Z" transform="translate(-308.303 -127.816)" fill="#a53d31"/>
                      </g>
                    </g>
                  </g>
                </g>
              </g>
              <g id="Grupo_1004681" data-name="Grupo 1004681" transform="translate(15.489 15.003)">
                <g id="Grupo_1004680" data-name="Grupo 1004680">
                  <g id="Grupo_1004679" data-name="Grupo 1004679">
                    <g id="Grupo_1004678" data-name="Grupo 1004678">
                      <g id="Grupo_1004677" data-name="Grupo 1004677">
                        <path id="Trazado_643210" data-name="Trazado 643210" d="M333.184,121.72a29.478,29.478,0,0,1-12.363,8.257c-.812.293-1.105-1.038-.293-1.309a27.962,27.962,0,0,0,11.754-7.919c.587-.654,1.489.338.9.97Z" transform="translate(-320.046 -120.535)" fill="#a53d31"/>
                      </g>
                    </g>
                  </g>
                </g>
              </g>
              <g id="Grupo_1004686" data-name="Grupo 1004686" transform="translate(13.39 20.293)">
                <g id="Grupo_1004685" data-name="Grupo 1004685">
                  <g id="Grupo_1004684" data-name="Grupo 1004684">
                    <g id="Grupo_1004683" data-name="Grupo 1004683">
                      <g id="Grupo_1004682" data-name="Grupo 1004682">
                        <path id="Trazado_643211" data-name="Trazado 643211" d="M333.594,123.557a21.016,21.016,0,0,1-11.077,18.951.677.677,0,0,1-.632-1.2A19.676,19.676,0,0,0,332.24,123.49c0-.857,1.331-.79,1.354.068Z" transform="translate(-321.537 -122.88)" fill="#a53d31"/>
                      </g>
                    </g>
                  </g>
                </g>
              </g>
              <g id="Grupo_1004691" data-name="Grupo 1004691" transform="translate(37.608 17.099)">
                <g id="Grupo_1004690" data-name="Grupo 1004690">
                  <g id="Grupo_1004689" data-name="Grupo 1004689">
                    <g id="Grupo_1004688" data-name="Grupo 1004688">
                      <g id="Grupo_1004687" data-name="Grupo 1004687">
                        <path id="Trazado_643212" data-name="Trazado 643212" d="M315.042,121.7a18.255,18.255,0,0,1,2.933,17.3c-.293.812-1.579.406-1.286-.406a16.809,16.809,0,0,0-2.64-16c-.541-.677.451-1.579.993-.9Z" transform="translate(-313.893 -121.464)" fill="#a53d31"/>
                      </g>
                    </g>
                  </g>
                </g>
              </g>
            </g>
          </g>
          <g id="Grupo_1004712" data-name="Grupo 1004712" transform="translate(24.339 111.39)">
            <g id="Grupo_1004696" data-name="Grupo 1004696" transform="translate(0.036)">
              <g id="Grupo_1004695" data-name="Grupo 1004695">
                <g id="Grupo_1004694" data-name="Grupo 1004694">
                  <path id="Trazado_643213" data-name="Trazado 643213" d="M559.619,301.627,408.78,327.346s-3.046-16.221-5.369-40.97c-.925-9.882-1.737-21.117-2.188-33.209-.451-12.025-.564-24.862-.068-38.1v-.023a361.363,361.363,0,0,1,6.452-58.071c2.5-12.521,17.936-22.312,35.194-30.547,4.76-2.279,9.182-4.2,13.153-5.8a166.977,166.977,0,0,1,19.56-6.7s13.649-1.444,34.382,4.6c1.308.384,2.594.767,3.88,1.173,22.357,6.881,40.406,15.77,39.616,22.109-.451,3.655,2.414,22.651.632,46.407-.97,12.792-1.015,26.531-1.6,40.361v.045c-.045.835-.068,1.647-.09,2.482C550.911,266.839,551.791,299.957,559.619,301.627Z" transform="translate(-400.83 -113.773)" fill="#e79e25"/>
                </g>
              </g>
            </g>
            <g id="Grupo_1004697" data-name="Grupo 1004697" transform="translate(55.16 0.023)">
              <path id="Trazado_643214" data-name="Trazado 643214" d="M460.585,140.736c-19.154-.587-33.277-13.2-39.594-20.1a166.986,166.986,0,0,1,19.56-6.7s13.649-1.444,34.382,4.6c1.308.384,2.594.767,3.88,1.173C479.987,127.718,479.288,141.3,460.585,140.736Z" transform="translate(-420.991 -113.783)" fill="#fff"/>
            </g>
            <g id="Grupo_1004700" data-name="Grupo 1004700" transform="translate(57.124 16.198)">
              <g id="Grupo_1004699" data-name="Grupo 1004699">
                <g id="Grupo_1004698" data-name="Grupo 1004698">
                  <path id="Trazado_643215" data-name="Trazado 643215" d="M418.63,122.029c9.769,6.9,20.192,13.875,32.149,16.176,10.265,1.963,21.432.316,29.509-6.678.609-.541-.338-1.376-.948-.857-8.054,6.971-19.47,8.28-29.577,6.024-11.213-2.5-21.026-9.069-30.276-15.612-.677-.474-1.534.474-.857.948Z" transform="translate(-418.383 -120.953)" fill="#c6781c"/>
                </g>
              </g>
            </g>
            <g id="Grupo_1004703" data-name="Grupo 1004703" transform="translate(2.254 102.62)">
              <g id="Grupo_1004702" data-name="Grupo 1004702">
                <g id="Grupo_1004701" data-name="Grupo 1004701">
                  <path id="Trazado_643216" data-name="Trazado 643216" d="M388.637,229.265c.316,9.182.271,19.718.271,30.569v4.309c0,3.429.023,6.881.045,10.31.045,6.339.135,12.611.361,18.657,0,.271.023.519.023.79.2,5.166.5,10.175.925,14.822,1.466,15.95,4.535,28.178,10.874,31.494,22.718,11.934,188.7,18.432,170.67-35.758-1.151-3.474-2.437-7.558-3.835-12.092-1.354-4.467-2.8-9.34-4.286-14.506-2.076-7.2-4.241-14.958-6.407-22.876-1.241-4.535-2.482-9.137-3.7-13.717-8.235-30.975-15.5-61.049-15.837-67.388-.09-1.354-.113-2.188-.113-2.369v-.023L389.607,159.26s-.993,15.476-1.263,36.841C388.209,206.163,388.254,217.556,388.637,229.265Z" transform="translate(-388.275 -159.26)" fill="#e79e25"/>
                </g>
              </g>
            </g>
            <g id="Grupo_1004711" data-name="Grupo 1004711" transform="translate(0 24.652)">
              <g id="Grupo_1004710" data-name="Grupo 1004710">
                <g id="Grupo_1004704" data-name="Grupo 1004704" transform="translate(5.189)">
                  <path id="Trazado_643217" data-name="Trazado 643217" d="M551.314,139.612a116.393,116.393,0,0,1-12.341,4.67c-23.8,7.535-49.656,10.4-74.517,11.28a335.532,335.532,0,0,1-61.116-3.5q.745-4.433,1.624-8.8a18.938,18.938,0,0,1,1.8-5.031q11.607,1.658,23.3,2.459a323.065,323.065,0,0,0,75.239-3.429c14.732-2.459,30.84-5.324,44.286-12.566a4.825,4.825,0,0,1,1.151,3.407C550.547,129.573,550.93,133.656,551.314,139.612Z" transform="translate(-403.34 -124.7)" fill="#c6781c"/>
                </g>
                <g id="Grupo_1004705" data-name="Grupo 1004705" transform="translate(0.722 41.331)">
                  <path id="Trazado_643218" data-name="Trazado 643218" d="M556.057,143.02c-.09,2.73-.226,5.55-.451,8.46-.18,2.527-.338,5.1-.474,7.693q-5.042,2.132-10.265,3.745c-23.8,7.535-49.656,10.4-74.517,11.28a338.867,338.867,0,0,1-67.23-4.444q.372-7.073,1.038-14.213a319.763,319.763,0,0,0,31.788,3.79,323.066,323.066,0,0,0,75.239-3.429C526.142,153.42,542.5,150.488,556.057,143.02Z" transform="translate(-403.12 -143.02)" fill="#c6781c"/>
                </g>
                <g id="Grupo_1004706" data-name="Grupo 1004706" transform="translate(0 84.827)">
                  <path id="Trazado_643219" data-name="Trazado 643219" d="M556.013,177.483c-.338.135-.677.271-1.038.406-2.346.9-4.715,1.737-7.107,2.482-23.8,7.535-49.656,10.4-74.517,11.28a337.068,337.068,0,0,1-67.23-4.444c-.722-.113-1.444-.248-2.166-.361q-.2-7.073-.226-14.461c.9.18,1.827.338,2.752.5a313.165,313.165,0,0,0,32.465,3.9,323.065,323.065,0,0,0,75.239-3.429c9.814-1.624,20.259-3.452,30.1-6.633a89.672,89.672,0,0,0,11.258-4.422c-.068,1.782-.113,3.565-.2,5.347h0v.045c0,.18.023.993.113,2.369C555.539,171.73,555.72,174.28,556.013,177.483Z" transform="translate(-403.73 -162.3)" fill="#c6781c"/>
                </g>
                <g id="Grupo_1004707" data-name="Grupo 1004707" transform="translate(1.624 125.323)">
                  <path id="Trazado_643220" data-name="Trazado 643220" d="M558.157,194.418c-2.346,1.106-4.76,2.1-7.2,3-2.008.745-4.016,1.444-6.069,2.076-23.8,7.535-49.655,10.4-74.517,11.28a339.946,339.946,0,0,1-68.358-4.625c-.068,0-.135-.023-.2-.023-.045-1.083-.09-2.143-.113-3.2-.338-3.632-.654-7.422-.97-11.393a6.47,6.47,0,0,0,.7.113,322.327,322.327,0,0,0,34.54,4.286,323.063,323.063,0,0,0,75.239-3.429c12.814-2.143,26.689-4.58,38.939-9.949,1.624-.722,3.226-1.489,4.783-2.3C555.833,184.762,556.893,189.545,558.157,194.418Z" transform="translate(-400.73 -180.25)" fill="#c6781c"/>
                </g>
                <g id="Grupo_1004708" data-name="Grupo 1004708" transform="translate(2.888 159.953)">
                  <path id="Trazado_643221" data-name="Trazado 643221" d="M395.31,214.19V218.5c0,3.429.023,6.881.045,10.31a373.069,373.069,0,0,0,67.952,4.354c24.862-.857,50.693-3.722,74.495-11.28A94.606,94.606,0,0,0,562.776,210.2c.316-.293.632-.587.925-.88-1.241-4.535-2.482-9.137-3.7-13.717-14.89,10.445-38.669,16.4-55.86,19.267a320.775,320.775,0,0,1-70.659,3.722l-4.58-.271c-10.806-.767-21.545-2.03-32.216-3.858C396.235,214.37,395.784,214.28,395.31,214.19Z" transform="translate(-395.31 -195.6)" fill="#c6781c"/>
                </g>
                <g id="Grupo_1004709" data-name="Grupo 1004709" transform="translate(3.316 196.569)">
                  <path id="Trazado_643222" data-name="Trazado 643222" d="M390.58,227.87c.2,5.166.5,10.175.925,14.822,22.876,3.294,53.265,5.46,75.42,4.783,26.238-.835,53.513-3.655,78.646-11.145a106.343,106.343,0,0,0,23.643-9.994c-1.354-4.467-2.8-9.34-4.286-14.506-15.476,10.964-36.255,14.484-54.912,17.394a357.075,357.075,0,0,1-74.585,3.61c-1.6-.09-3.226-.181-4.828-.293q-17.123-1.151-34.021-3.926C396.265,228.57,393.129,228.3,390.58,227.87Z" transform="translate(-390.58 -211.83)" fill="#c6781c"/>
                </g>
              </g>
            </g>
          </g>
          <g id="Grupo_1004738" data-name="Grupo 1004738" transform="translate(7.335 135.288)">
            <g id="Grupo_1004713" data-name="Grupo 1004713" transform="translate(7.635 56.05)">
              <path id="Trazado_643223" data-name="Trazado 643223" d="M458.987,159.543s-2.64,73.682,2.211,84.669,110.5,20.417,110.5,20.417v18.206s-98.363,20.71-143.575,1.76c-46-19.312-24.32-135.385-24.32-135.385Z" transform="translate(-398.7 -149.21)" fill="#df6966"/>
            </g>
            <g id="Grupo_1004729" data-name="Grupo 1004729" transform="translate(168.798 170.987)">
              <g id="Grupo_1004723" data-name="Grupo 1004723">
                <g id="Grupo_1004722" data-name="Grupo 1004722">
                  <g id="Grupo_1004721" data-name="Grupo 1004721">
                    <g id="Grupo_1004720" data-name="Grupo 1004720">
                      <g id="Grupo_1004719" data-name="Grupo 1004719">
                        <g id="Grupo_1004718" data-name="Grupo 1004718">
                          <g id="Grupo_1004717" data-name="Grupo 1004717">
                            <g id="Grupo_1004716" data-name="Grupo 1004716">
                              <g id="Grupo_1004715" data-name="Grupo 1004715">
                                <g id="Grupo_1004714" data-name="Grupo 1004714">
                                  <path id="Trazado_643224" data-name="Trazado 643224" d="M375.537,205.038c-3.023,6.43.09,14.01,6.43,17.236,3.339,1.715,6.836,3.88,9.047,6.339,5.3,5.888,9.949,14.326,13.469,16.559,5.211,3.271,3.971-3.249,3.7-4.016a92.837,92.837,0,0,0-5.211-11.574s9.092,9.949,10.852,14.958,6.249,6.633,7.287,1.015-6.7-18.658-9.836-21.681c0,0,7.2,4.693,9.791,11.393s4.422,8.753,6.7,10.6c2.256,1.827,5.482-3.068,1.6-12.341-3.858-9.272-7.671-11.867-11.461-14.98a51.873,51.873,0,0,1,9.43,4.49c5.64,3.271,8.031,11.28,11.912,11.551,3.993.293.835-8.8-3.158-13.04-3.971-4.241-6.52-7.648-13.288-10.716s-13.333-5.775-17.823-6.655c-4.49-.857-20.056-6.046-25.99-3.158A8.01,8.01,0,0,0,375.537,205.038Z" transform="translate(-374.373 -200.156)" fill="#df6966"/>
                                </g>
                              </g>
                            </g>
                          </g>
                        </g>
                      </g>
                    </g>
                  </g>
                </g>
              </g>
              <g id="Grupo_1004728" data-name="Grupo 1004728" transform="translate(18.288 0.201)">
                <g id="Grupo_1004727" data-name="Grupo 1004727">
                  <g id="Grupo_1004726" data-name="Grupo 1004726">
                    <g id="Grupo_1004725" data-name="Grupo 1004725">
                      <g id="Grupo_1004724" data-name="Grupo 1004724">
                        <path id="Trazado_643225" data-name="Trazado 643225" d="M382.847,201.339s13.807-2.143,18.206-.429,11.934,1.94,11.032,4.986-10.175,2.5-10.175,2.5Z" transform="translate(-382.847 -200.245)" fill="#df6966"/>
                      </g>
                    </g>
                  </g>
                </g>
              </g>
            </g>
            <g id="Grupo_1004731" data-name="Grupo 1004731" transform="translate(52.968 151.261)">
              <g id="Grupo_1004730" data-name="Grupo 1004730">
                <path id="Trazado_643226" data-name="Trazado 643226" d="M464.351,193.166a67.355,67.355,0,0,0-15.477,4.828c-1.038.474-1.9-1.083-.857-1.557a68.987,68.987,0,0,1,15.905-5.008c1.128-.2,1.557,1.534.429,1.737Z" transform="translate(-447.547 -191.413)" fill="#a53d31"/>
              </g>
            </g>
            <g id="Grupo_1004733" data-name="Grupo 1004733" transform="translate(48.306 147.677)">
              <g id="Grupo_1004732" data-name="Grupo 1004732">
                <path id="Trazado_643227" data-name="Trazado 643227" d="M465.089,196a51.119,51.119,0,0,0-14.168-4.377c-1.128-.18-1.083-1.963.045-1.782a54.558,54.558,0,0,1,15.07,4.647c1.015.5.068,2.008-.948,1.512Z" transform="translate(-450.097 -189.824)" fill="#a53d31"/>
              </g>
            </g>
            <g id="Grupo_1004735" data-name="Grupo 1004735">
              <g id="Grupo_1004734" data-name="Grupo 1004734">
                <path id="Trazado_643228" data-name="Trazado 643228" d="M464.353,140.529C454.156,157.043,440.62,185,442.6,214.346l74.63-.113s8.776-31.088,6.949-58.116c-1.173-17.123-9.385-25.471-18.77-29.329C490.3,120.608,472.926,126.631,464.353,140.529Z" transform="translate(-442.409 -124.366)" fill="#c6781c"/>
              </g>
            </g>
            <g id="Grupo_1004737" data-name="Grupo 1004737" transform="translate(1.149 79.806)">
              <g id="Grupo_1004736" data-name="Grupo 1004736">
                <path id="Trazado_643229" data-name="Trazado 643229" d="M519.088,162.2l-73.209-.744a.858.858,0,0,1,.045-1.715l73.209.745a.858.858,0,0,1-.045,1.715Z" transform="translate(-445.072 -159.74)" fill="#fff"/>
              </g>
            </g>
          </g>
          <g id="Grupo_1004779" data-name="Grupo 1004779" transform="translate(67.151)">
            <g id="Grupo_1004743" data-name="Grupo 1004743" transform="translate(20.194 80.295)">
              <g id="Grupo_1004740" data-name="Grupo 1004740">
                <g id="Grupo_1004739" data-name="Grupo 1004739">
                  <path id="Trazado_643230" data-name="Trazado 643230" d="M422.52,139.245s39.255,25.787,45.256,1.151l-5.685-17.078-3.745-11.258-2.617-7.9L423.242,99.99C425.385,114.745,424.956,127.694,422.52,139.245Z" transform="translate(-422.52 -99.99)" fill="#df6966"/>
                </g>
              </g>
              <g id="Grupo_1004742" data-name="Grupo 1004742" transform="translate(8.821 11.619)">
                <g id="Grupo_1004741" data-name="Grupo 1004741">
                  <path id="Trazado_643231" data-name="Trazado 643231" d="M424.4,105.14c15.138,16.514,28.065,17.913,32.194,16l-5.166-15.567Z" transform="translate(-424.4 -105.14)" fill="#201626"/>
                </g>
              </g>
            </g>
            <g id="Grupo_1004764" data-name="Grupo 1004764">
              <g id="Grupo_1004744" data-name="Grupo 1004744">
                <path id="Trazado_643232" data-name="Trazado 643232" d="M482.9,114.125s3.745-4.67,6.746-8.979-1.354-6.43-1.354-6.43,12.137-15.77,7.242-21.726-10.919,4.264-10.919,4.264S489.462,64.627,483.3,64.4c-6.136-.226-11.641,14.732-11.641,14.732s3.046-12.5-5.618-9.769c-8.641,2.73-9.182,11.98-9.182,11.98s-22.651,1.421-29.622,14.01c0,0-8.505-3.519-10.085,2.121-1.557,5.663,2.933,6.227,2.933,6.227s-6.971.677-3.587,6.588,5.73,3.587,5.73,3.587-3.271,3.587,1.85,16.4c5.121,12.837,16.965,13.085,16.965,13.085Z" transform="translate(-415.574 -64.399)" fill="#4e372a"/>
              </g>
              <g id="Grupo_1004746" data-name="Grupo 1004746" transform="translate(14.045 27.01)">
                <g id="Grupo_1004745" data-name="Grupo 1004745">
                  <path id="Trazado_643233" data-name="Trazado 643233" d="M423.206,120.971a27.037,27.037,0,0,0,.677,3.61A22.553,22.553,0,0,0,427,131.6a72.9,72.9,0,0,0,8.212,9.769c5.73,6.091,14.236,7.693,22.2,6.836,21.139-2.3,21.455-16.92,17.281-38.466-2.594-13.378.384-21.3-3.565-26.17h0c-.248-.226-.519-.429-.767-.632a30.579,30.579,0,0,0-21.906-6.43q-2.267.2-4.332.541c-.316.045-.632.09-.925.158-.135.023-.248.045-.384.068-.338.068-.7.113-1.038.2a6.788,6.788,0,0,0-.722.158c-.564.113-1.083.248-1.6.361-16.65,4.2-19.7,14.935-19.154,25.155C420.634,110.074,422.664,116.774,423.206,120.971Z" transform="translate(-420.238 -76.371)" fill="#df6966"/>
                </g>
              </g>
              <g id="Grupo_1004747" data-name="Grupo 1004747" transform="translate(11.902 23.593)">
                <path id="Trazado_643234" data-name="Trazado 643234" d="M478.291,88.761s-.18,5.5-1.647,5.821-5.843-9.114-8.55-8.844-3.249,4.038-7.264,4.58-3.474-4.9-12.431-1.94-.135,9.43-6.091,15.093c-5.956,5.685,1.76,13.22-4.241,14.326s-16.2-.135-17.236-11.619c-1.06-11.483,8.438-32.216,33.728-31.291C475.313,75.654,478.291,88.761,478.291,88.761Z" transform="translate(-420.75 -74.857)" fill="#4e372a"/>
              </g>
              <g id="Grupo_1004749" data-name="Grupo 1004749" transform="translate(52.575 55.643)">
                <g id="Grupo_1004748" data-name="Grupo 1004748">
                  <path id="Trazado_643235" data-name="Trazado 643235" d="M426.27,89.35l6.024,6.971a.852.852,0,0,1-.045,1.2,19.134,19.134,0,0,0-2.888,3.294c-.609.9-2.053,0-1.444-.9a20.956,20.956,0,0,1,3.158-3.61c-.023.406-.023.79-.045,1.2l-6.024-6.971c-.677-.835.564-2.008,1.263-1.173Z" transform="translate(-424.811 -89.063)" fill="#201626"/>
                </g>
              </g>
              <g id="Grupo_1004751" data-name="Grupo 1004751" transform="translate(46.702 57.577)">
                <g id="Grupo_1004750" data-name="Grupo 1004750">
                  <path id="Trazado_643236" data-name="Trazado 643236" d="M432.576,92c.023,1.151-.677,2.1-1.534,2.1-.857.023-1.579-.9-1.6-2.076-.023-1.151.677-2.1,1.534-2.1C431.854,89.92,432.554,90.845,432.576,92Z" transform="translate(-429.44 -89.92)" fill="#201626"/>
                </g>
              </g>
              <g id="Grupo_1004753" data-name="Grupo 1004753" transform="translate(60.531 56.336)">
                <g id="Grupo_1004752" data-name="Grupo 1004752">
                  <path id="Trazado_643237" data-name="Trazado 643237" d="M426.446,91.446c.023,1.151-.677,2.1-1.534,2.1-.857.023-1.579-.9-1.6-2.076-.023-1.151.677-2.1,1.534-2.1A1.886,1.886,0,0,1,426.446,91.446Z" transform="translate(-423.31 -89.37)" fill="#201626"/>
                </g>
              </g>
              <g id="Grupo_1004755" data-name="Grupo 1004755" transform="translate(38.956 64.528)">
                <g id="Grupo_1004754" data-name="Grupo 1004754">
                  <path id="Trazado_643238" data-name="Trazado 643238" d="M430.7,95.683c.158,1.151,2.076,1.873,4.286,1.579s3.9-1.444,3.745-2.617c-.158-1.151-2.076-1.873-4.286-1.579S430.568,94.533,430.7,95.683Z" transform="translate(-430.695 -93.001)" fill="#a53d31"/>
                </g>
              </g>
              <g id="Grupo_1004757" data-name="Grupo 1004757" transform="translate(62.101 62.768)">
                <g id="Grupo_1004756" data-name="Grupo 1004756">
                  <path id="Trazado_643239" data-name="Trazado 643239" d="M428.1,95.264a6.093,6.093,0,0,1-3.068,1.218c-2.211.293-4.129-.429-4.286-1.579s1.534-2.324,3.745-2.617a6.08,6.08,0,0,1,3.158.338Z" transform="translate(-420.74 -92.221)" fill="#a53d31"/>
                </g>
              </g>
              <g id="Grupo_1004760" data-name="Grupo 1004760" transform="translate(40.592 49.536)">
                <g id="Grupo_1004759" data-name="Grupo 1004759">
                  <g id="Grupo_1004758" data-name="Grupo 1004758">
                    <path id="Trazado_643240" data-name="Trazado 643240" d="M436.682,90.223c-1.376-.338-3.249,0-3.632,1.6a1.915,1.915,0,0,1-2.1,1.579,1.867,1.867,0,0,1-1.579-2.1,6.453,6.453,0,0,1,7.851-4.76,1.859,1.859,0,1,1-.542,3.677Z" transform="translate(-429.331 -86.356)" fill="#201626"/>
                  </g>
                </g>
              </g>
              <g id="Grupo_1004763" data-name="Grupo 1004763" transform="translate(57.01 48.038)">
                <g id="Grupo_1004762" data-name="Grupo 1004762">
                  <g id="Grupo_1004761" data-name="Grupo 1004761">
                    <path id="Trazado_643241" data-name="Trazado 643241" d="M428.66,90.583a3.533,3.533,0,0,0-4.061-.88c-2.233.88-3.655-2.549-1.444-3.429a7.138,7.138,0,0,1,7.761,1.376c1.76,1.6-.5,4.557-2.256,2.933Z" transform="translate(-422.047 -85.692)" fill="#201626"/>
                  </g>
                </g>
              </g>
            </g>
            <g id="Grupo_1004766" data-name="Grupo 1004766" transform="translate(17.689 75.219)">
              <g id="Grupo_1004765" data-name="Grupo 1004765">
                <path id="Trazado_643242" data-name="Trazado 643242" d="M447.948,99.094A11.654,11.654,0,0,1,440.3,97.74a22.552,22.552,0,0,0,3.113,7.016A11.717,11.717,0,0,0,447.948,99.094Z" transform="translate(-440.3 -97.74)" fill="#201626"/>
              </g>
            </g>
            <g id="Grupo_1004768" data-name="Grupo 1004768" transform="translate(47.672 71.835)">
              <g id="Grupo_1004767" data-name="Grupo 1004767">
                <path id="Trazado_643243" data-name="Trazado 643243" d="M438.664,96.24s-5.008.09-14.845.338c0,0,1.985,10.355,9.047,9.408C438.845,105.2,438.664,96.24,438.664,96.24Z" transform="translate(-423.82 -96.24)" fill="#fff"/>
              </g>
            </g>
            <g id="Grupo_1004771" data-name="Grupo 1004771" transform="translate(53.332 84.173)">
              <g id="Grupo_1004770" data-name="Grupo 1004770">
                <g id="Grupo_1004769" data-name="Grupo 1004769">
                  <path id="Trazado_643244" data-name="Trazado 643244" d="M430.45,103.065a4.371,4.371,0,0,1-4.647-.09c-.722-.519.135-1.624.857-1.105,1.015.745,2.211.406,3.271-.09.812-.384,1.331.9.519,1.286Z" transform="translate(-425.529 -101.709)" fill="#a53d31"/>
                </g>
              </g>
            </g>
            <g id="Grupo_1004774" data-name="Grupo 1004774" transform="translate(9.894 52.736)">
              <g id="Grupo_1004773" data-name="Grupo 1004773">
                <g id="Grupo_1004772" data-name="Grupo 1004772">
                  <path id="Trazado_643245" data-name="Trazado 643245" d="M459.005,105.542a11.766,11.766,0,0,0-2.752-9.9c-3.023-3.542-8.483-8.889-12.882-7.693-6.475,1.76-6.5,7.738-5.076,13.627s6.339,13.22,14.416,10.9A8.529,8.529,0,0,0,459.005,105.542Z" transform="translate(-437.538 -87.774)" fill="#df6966"/>
                </g>
              </g>
            </g>
            <g id="Grupo_1004778" data-name="Grupo 1004778" transform="translate(14.22 57.612)">
              <g id="Grupo_1004777" data-name="Grupo 1004777">
                <g id="Grupo_1004776" data-name="Grupo 1004776">
                  <g id="Grupo_1004775" data-name="Grupo 1004775">
                    <path id="Trazado_643246" data-name="Trazado 643246" d="M449.645,102.782a15.409,15.409,0,0,0-1.421-7.467c-1.105-2.03-3.926-4.85-6.542-3.587-.88.429-1.692-.88-.812-1.309,2.549-1.218,5.279.023,7.107,1.963,2.662,2.8,3.2,6.678,3.2,10.378a.768.768,0,0,1-1.534.023Z" transform="translate(-440.49 -89.936)" fill="#201626"/>
                  </g>
                </g>
              </g>
            </g>
          </g>
          <g id="Grupo_1004781" data-name="Grupo 1004781" transform="translate(83.003 115.749)">
            <g id="Grupo_1004780" data-name="Grupo 1004780">
              <path id="Trazado_643247" data-name="Trazado 643247" d="M471,116.326a202.315,202.315,0,0,1,5.753,37.27c.519,9.024,1.918,20.959-3.948,28.7-5.46,7.219-15.77,6.633-22.606,1.76-8.663-6.182-13.108-17.529-17.236-26.937-5.64-12.859-10.175-26.148-14.709-39.413-.361-1.038,1.308-1.421,1.647-.406,3.632,10.626,7.264,21.274,11.461,31.7,3.858,9.521,7.828,19.989,14.191,28.155,5.64,7.264,17.687,13.378,25.223,4.941,6.2-6.949,4.76-18.951,4.309-27.456a199.347,199.347,0,0,0-5.753-37.9.86.86,0,0,1,1.669-.406Z" transform="translate(-418.207 -115.705)" fill="#fff"/>
            </g>
          </g>
        </g>
        <g id="Grupo_1004804" data-name="Grupo 1004804" transform="translate(751.815 1616.93)">
          <g id="Grupo_1004788" data-name="Grupo 1004788" transform="translate(0)">
            <g id="Grupo_1004787" data-name="Grupo 1004787">
              <g id="Grupo_1004786" data-name="Grupo 1004786">
                <g id="Grupo_1004785" data-name="Grupo 1004785">
                  <g id="Grupo_1004784" data-name="Grupo 1004784">
                    <g id="Grupo_1004783" data-name="Grupo 1004783">
                      <path id="Trazado_643248" data-name="Trazado 643248" d="M367.48,138.617a1.869,1.869,0,0,0,1.308-.564l13.423-13.807h45.166a12.083,12.083,0,0,0,12.07-12.07V86.3a12.083,12.083,0,0,0-12.07-12.07H370.3A12.084,12.084,0,0,0,358.23,86.3v25.854a12.144,12.144,0,0,0,7.445,11.167v13.446a1.824,1.824,0,0,0,1.128,1.692A1.486,1.486,0,0,0,367.48,138.617Zm59.9-62.7A10.379,10.379,0,0,1,437.756,86.3v25.854a10.394,10.394,0,0,1-10.378,10.378H381.513l-13.92,14.326a.1.1,0,0,1-.135.023.116.116,0,0,1-.09-.135V122.126l-.564-.2a10.407,10.407,0,0,1-6.881-9.791V86.3A10.379,10.379,0,0,1,370.3,75.922Z" transform="translate(-358.23 -74.23)" fill="#0b481e"/>
                    </g>
                  </g>
                </g>
              </g>
            </g>
          </g>
          <g id="Grupo_1004793" data-name="Grupo 1004793" transform="translate(19.357 21.41)">
            <g id="Grupo_1004792" data-name="Grupo 1004792">
              <g id="Grupo_1004791" data-name="Grupo 1004791">
                <g id="Grupo_1004790" data-name="Grupo 1004790">
                  <g id="Grupo_1004789" data-name="Grupo 1004789">
                    <path id="Trazado_643249" data-name="Trazado 643249" d="M391.076,88.593A4.873,4.873,0,1,1,386.2,83.72,4.882,4.882,0,0,1,391.076,88.593Z" transform="translate(-381.33 -83.72)" fill="#0b481e"/>
                  </g>
                </g>
              </g>
            </g>
          </g>
          <g id="Grupo_1004798" data-name="Grupo 1004798" transform="translate(53.784 21.41)">
            <g id="Grupo_1004797" data-name="Grupo 1004797">
              <g id="Grupo_1004796" data-name="Grupo 1004796">
                <g id="Grupo_1004795" data-name="Grupo 1004795">
                  <g id="Grupo_1004794" data-name="Grupo 1004794">
                    <circle id="Elipse_5372" data-name="Elipse 5372" cx="4.873" cy="4.873" r="4.873" fill="#0b481e"/>
                  </g>
                </g>
              </g>
            </g>
          </g>
          <g id="Grupo_1004803" data-name="Grupo 1004803" transform="translate(36.57 21.41)">
            <g id="Grupo_1004802" data-name="Grupo 1004802">
              <g id="Grupo_1004801" data-name="Grupo 1004801">
                <g id="Grupo_1004800" data-name="Grupo 1004800">
                  <g id="Grupo_1004799" data-name="Grupo 1004799">
                    <circle id="Elipse_5373" data-name="Elipse 5373" cx="4.873" cy="4.873" r="4.873" fill="#0b481e"/>
                  </g>
                </g>
              </g>
            </g>
          </g>
        </g>
        <g id="Grupo_1004806" data-name="Grupo 1004806" transform="translate(856.647 1790.871)">
          <g id="Grupo_1004805" data-name="Grupo 1004805" transform="translate(0)">
            <path id="Trazado_643250" data-name="Trazado 643250" d="M374.046,142.223a14.506,14.506,0,1,0-14.506-14.506A14.524,14.524,0,0,0,374.046,142.223Zm0-26.689a12.16,12.16,0,1,1-12.16,12.16A12.18,12.18,0,0,1,374.046,115.534Z" transform="translate(-359.54 -113.21)" fill="#ffc107"/>
          </g>
        </g>
        <g id="Grupo_1004807" data-name="Grupo 1004807" transform="translate(503.032 1688.213)">
          <path id="Trazado_643251" data-name="Trazado 643251" d="M395.29,97.231a2.393,2.393,0,0,0,2.391,2.391h5.888v5.888a2.391,2.391,0,0,0,4.783,0V99.622h5.888a2.391,2.391,0,1,0,0-4.783h-5.888V88.951a2.391,2.391,0,1,0-4.783,0V94.84h-5.888A2.378,2.378,0,0,0,395.29,97.231Z" transform="translate(-395.29 -86.56)" fill="#adce32"/>
        </g>
      </g>
      <g id="Grupo_1004809" data-name="Grupo 1004809" transform="translate(304 1435.399)">
        <path id="Trazado_643252" data-name="Trazado 643252" d="M191.434,124.981h32.78a1.4,1.4,0,0,0,1.218-2.1l-16.4-28.4a1.411,1.411,0,0,0-2.436,0l-16.4,28.4a1.407,1.407,0,0,0,0,1.4A1.487,1.487,0,0,0,191.434,124.981Zm30.344-2.82H193.871L207.813,98Z" transform="translate(-190.008 -93.78)" fill="#ffc107"/>
      </g>
    </g>
  </g>
</svg>
