<svg xmlns="http://www.w3.org/2000/svg" width="930" height="241.237" viewBox="0 0 930 241.237">
  <g id="Grupo_1004874" data-name="Grupo 1004874" transform="translate(1424.897 7292.137)">
    <rect id="Rectángulo_347389" data-name="Rectángulo 347389" width="930" height="203" rx="40" transform="translate(-1424.897 -7275.472)" fill="#eff5d6"/>
    <g id="Grupo_1004869" data-name="Grupo 1004869" transform="translate(-1686.497 -12800.473)">
      <path id="Trazado_123281" data-name="Trazado 123281" d="M14.174.294A7.085,7.085,0,0,1,23.237,6.8a11.6,11.6,0,0,1-1.511,6.365c-2.889,5.118-5.866,10.207-8.843,15.281A9.077,9.077,0,0,1,11.5,30.166C9.158,32.63,6.269,33.2,3.527,31.794A6.8,6.8,0,0,1,.344,23.611a21.377,21.377,0,0,1,1.877-3.974c2.86-5.133,6.247-9.972,8.2-15.6A6.329,6.329,0,0,1,14.174.294Z" transform="translate(1083.943 5710.741) rotate(13)" fill="none" stroke="#ffc107" stroke-width="3"/>
      <path id="Trazado_123282" data-name="Trazado 123282" d="M.3,26.385a10.433,10.433,0,0,1-.293-2.376q.528-8.051,1.247-16.1A9.927,9.927,0,0,1,3.483,2.539,6.174,6.174,0,0,1,10.009.193a5.838,5.838,0,0,1,4.444,4.444,9.741,9.741,0,0,1,.4,2.889Q14.233,16.3,13.47,25.079a8.219,8.219,0,0,1-.528,2.126,6.61,6.61,0,0,1-6.775,4.561C3.366,31.605,1.328,29.875.3,26.385Z" transform="translate(1072.358 5696.313) rotate(13)" fill="none" stroke="#ffc107" stroke-width="3"/>
    </g>
    <g id="formas_decoracion" data-name="formas decoracion" transform="translate(-1049.615 -7323.004) rotate(-51)">
      <path id="Trazado_123280" data-name="Trazado 123280" d="M356.308,325.8c-1.919,0-3.837.016-5.756,0a11.7,11.7,0,0,1-2.092-.142,3.392,3.392,0,0,1-2.815-4.262,21.5,21.5,0,0,1,1.022-3.24c3.46-8.87,7.234-17.614,11.543-26.091.629-1.242,1.352-2.453,2.06-3.649a12.335,12.335,0,0,1,1.069-1.494c1.9-2.233,4.23-2.328,6.338-.236a13.912,13.912,0,0,1,2.485,3.68,70.417,70.417,0,0,1,3.727,8.933c1.777,5.111,3.46,10.254,4.812,15.507a13.849,13.849,0,0,1,.5,3.1,4.96,4.96,0,0,1-3.46,5.284,23.986,23.986,0,0,1-5.347,1.227A120.728,120.728,0,0,1,356.308,325.8Zm1.007-4.278a106.966,106.966,0,0,0,14.343-1.573c3.539-.6,3.853-1.069,2.909-4.514-1.022-3.711-2.155-7.376-3.3-11.056a81.434,81.434,0,0,0-4.388-11.512,28.586,28.586,0,0,0-1.73-2.925.61.61,0,0,0-1.069.063c-.928,1.573-1.9,3.145-2.736,4.781-3.9,7.738-7.36,15.664-10.6,23.7-.157.409-.33.8-.456,1.227-.409,1.368-.126,1.793,1.258,1.809C353.462,321.539,355.381,321.523,357.315,321.523Z" transform="translate(-206.129 -22.397)" fill="#ffa686"/>
    </g>
  </g>
</svg>
