<svg xmlns="http://www.w3.org/2000/svg" xmlns:xlink="http://www.w3.org/1999/xlink" width="118.618" height="119.458" viewBox="0 0 118.618 119.458">
  <defs>
    <radialGradient id="radial-gradient" cx="0.076" cy="0.019" r="1.465" gradientTransform="translate(0.001)" gradientUnits="objectBoundingBox">
      <stop offset="0" stop-color="#f6f6f7"/>
      <stop offset="0.477" stop-color="#f9f9fa"/>
      <stop offset="0.715" stop-color="#fff"/>
    </radialGradient>
    <filter id="Trazado_40937" x="0" y="0.962" width="118.618" height="118.496" filterUnits="userSpaceOnUse">
      <feOffset dy="7" input="SourceAlpha"/>
      <feGaussianBlur stdDeviation="2.5" result="blur"/>
      <feFlood flood-opacity="0.102"/>
      <feComposite operator="in" in2="blur"/>
      <feComposite in="SourceGraphic"/>
    </filter>
  </defs>
  <g id="Grupo_1004968" data-name="Grupo 1004968" transform="translate(3807.16 -3691.808)">
    <g id="Grupo_1004831" data-name="Grupo 1004831" transform="translate(-4069.513 -5283.862)">
      <g id="Grupo_1004817" data-name="Grupo 1004817" transform="translate(35.479 7101.67)">
        <g id="Grupo_1004059" data-name="Grupo 1004059" transform="translate(233.033 1874)">
          <g id="Grupo_18423" data-name="Grupo 18423" transform="translate(0 0)">
            <g id="Grupo_18421" data-name="Grupo 18421">
              <g id="Grupo_18420" data-name="Grupo 18420">
                <g id="Grupo_18419" data-name="Grupo 18419">
                  <path id="Trazado_40936" data-name="Trazado 40936" d="M299.581,2198.2a52.479,52.479,0,1,1-52.478-52.478A52.479,52.479,0,0,1,299.581,2198.2Z" transform="translate(-194.623 -2145.721)" fill="#fff"/>
                </g>
              </g>
            </g>
            <g transform="matrix(1, 0, 0, 1, -6.16, 0)" filter="url(#Trazado_40937)">
              <path id="Trazado_40937-2" data-name="Trazado 40937" d="M299.095,2197.668a52.478,52.478,0,1,0-52.478,52.48A52.271,52.271,0,0,0,299.095,2197.668Z" transform="translate(-187.98 -2145.19)" fill="url(#radial-gradient)"/>
            </g>
            <g id="Grupo_18422" data-name="Grupo 18422" transform="translate(9.297 29.463)">
              <path id="Trazado_40939" data-name="Trazado 40939" d="M290.9,2164.488a52.485,52.485,0,0,1-90.355,52.261,52.319,52.319,0,0,0,90.355-52.261Z" transform="translate(-200.545 -2164.488)" fill="#eceef0"/>
            </g>
          </g>
        </g>
      </g>
      <g id="cooperacion" transform="translate(278.491 8985.648)">
        <g id="Grupo_1004249" data-name="Grupo 1004249" transform="translate(0.17)">
          <circle id="Elipse_5363" data-name="Elipse 5363" cx="41.255" cy="41.255" r="41.255" transform="translate(1.075 1.245)" fill="#deebad"/>
          <path id="Trazado_642870" data-name="Trazado 642870" d="M58.137,88.942a41.254,41.254,0,1,1,0-80.369,41.267,41.267,0,0,0,0,80.369Z" transform="translate(-6.425 -6.257)" fill="#eff5d6"/>
          <path id="Trazado_642871" data-name="Trazado 642871" d="M73.407,12.448a42.539,42.539,0,0,0-70.423,16.7C1.583,33.4,2.1,37.893,2.1,42.5c0,1.321-1.185,2.634-1.067,3.933A42.5,42.5,0,0,0,73.407,72.552,42.18,42.18,0,0,0,85.679,46.406c.117-1.291-.237-2.594-.237-3.906A42.565,42.565,0,0,0,84.4,31.39,42.257,42.257,0,0,0,73.407,12.448Zm9.937,28.807H69.564a62.907,62.907,0,0,0-3.834-21,42.729,42.729,0,0,0,6.743-5.193A39.7,39.7,0,0,1,83.343,41.255ZM44.6,2.546c5.757.507,11.168,4.518,15.351,11.427a42.344,42.344,0,0,1,2.669,5.219A39.736,39.736,0,0,1,44.6,24.1ZM42.11,24.1a39.734,39.734,0,0,1-18.019-4.906,42.338,42.338,0,0,1,2.668-5.218C30.942,7.064,36.353,3.053,42.11,2.546Zm0,2.492V41.255H19.636a60.589,60.589,0,0,1,3.525-19.731A42.222,42.222,0,0,0,42.11,26.589Zm0,17.156V58.412a42.222,42.222,0,0,0-18.947,5.065,60.585,60.585,0,0,1-3.526-19.732Zm0,17.159v21.55c-5.757-.507-11.168-4.518-15.351-11.427a42.324,42.324,0,0,1-2.668-5.218A39.734,39.734,0,0,1,42.11,60.9Zm2.49,0a39.737,39.737,0,0,1,18.019,4.905,42.331,42.331,0,0,1-2.668,5.218c-4.183,6.909-9.594,10.92-15.351,11.427Zm0-2.492V43.745H67.073a60.587,60.587,0,0,1-3.526,19.731A42.22,42.22,0,0,0,44.6,58.412Zm0-17.157V26.589a42.221,42.221,0,0,0,18.948-5.065,60.588,60.588,0,0,1,3.525,19.73ZM70.708,13.3a40.26,40.26,0,0,1-5.931,4.611,44.562,44.562,0,0,0-2.7-5.231,31,31,0,0,0-7.393-8.571A39.736,39.736,0,0,1,70.708,13.3Zm-46.079-.62a44.554,44.554,0,0,0-2.7,5.231A40.256,40.256,0,0,1,16,13.3a39.737,39.737,0,0,1,16.02-9.191A31,31,0,0,0,24.629,12.684ZM14.237,15.063a42.735,42.735,0,0,0,6.743,5.193,62.909,62.909,0,0,0-3.834,21H3.366A39.7,39.7,0,0,1,14.237,15.063ZM3.366,43.745h13.78a62.9,62.9,0,0,0,3.834,21,42.741,42.741,0,0,0-6.743,5.192A39.7,39.7,0,0,1,3.366,43.745ZM16,71.7a40.272,40.272,0,0,1,5.931-4.61,44.541,44.541,0,0,0,2.7,5.23,31,31,0,0,0,7.393,8.571A39.738,39.738,0,0,1,16,71.7Zm46.078.62a44.572,44.572,0,0,0,2.7-5.23,40.254,40.254,0,0,1,5.931,4.61,39.737,39.737,0,0,1-16.02,9.191A31,31,0,0,0,62.081,72.317Zm10.392-2.379a42.724,42.724,0,0,0-6.743-5.192,62.907,62.907,0,0,0,3.834-21h13.78A39.7,39.7,0,0,1,72.473,69.937Z" transform="translate(-1.025)" fill="#adce32"/>
        </g>
        <g id="Grupo_1004254" data-name="Grupo 1004254" transform="translate(0 24.128)">
          <path id="Trazado_642872" data-name="Trazado 642872" d="M413.272,145.339h16.389V168.3H413.272Z" transform="translate(-344.661 -145.338)" fill="#365e7d"/>
          <path id="Trazado_642873" data-name="Trazado 642873" d="M413.272,145.339h4.281V168.3h-4.281Z" transform="translate(-344.661 -145.338)" fill="#2b4d66"/>
          <path id="Trazado_642874" data-name="Trazado 642874" d="M413.272,245.131h16.389v6.4H413.272Z" transform="translate(-344.661 -228.563)" fill="#2b4d66"/>
          <path id="Trazado_642875" data-name="Trazado 642875" d="M0,145.34H18.4V168.3H0Z" transform="translate(0 -145.339)" fill="#ffd064"/>
          <path id="Trazado_642876" data-name="Trazado 642876" d="M0,248.831H18.4v5.781H0Z" transform="translate(0 -231.648)" fill="#ffc250"/>
          <path id="Trazado_642877" data-name="Trazado 642877" d="M54.949,145.34h9.28V168.3h-9.28Z" transform="translate(-45.826 -145.339)" fill="#ffc250"/>
          <path id="Trazado_642878" data-name="Trazado 642878" d="M73.361,174.574a4.91,4.91,0,0,1-4.91-4.91V145.336h9.82v24.328A4.91,4.91,0,0,1,73.361,174.574Z" transform="translate(-57.087 -145.335)" fill="#ffd064"/>
          <path id="Trazado_642879" data-name="Trazado 642879" d="M78.274,224.707v11.152a4.91,4.91,0,0,1-9.82,0V224.707a4.91,4.91,0,1,0,9.82,0Z" transform="translate(-57.089 -211.529)" fill="#ffc250"/>
          <g id="Grupo_1004250" data-name="Grupo 1004250" transform="translate(18.403)">
            <path id="Trazado_642880" data-name="Trazado 642880" d="M153.858,145.333l4.91,18.088-4.414,7.079-5.763,5.764L138.34,186.516a3.682,3.682,0,0,1-5.234-5.18l-2.514,2.514a3.682,3.682,0,0,1-5.226-5.187l-1.791,1.791a3.682,3.682,0,0,1-5.227-5.186l-1.213,1.213a3.682,3.682,0,1,1-5.207-5.207l20.094-20.094-8.782-3.473a8.1,8.1,0,0,1,5.73-2.374Z" transform="translate(-110.85 -145.333)" fill="#ffece4"/>
          </g>
          <path id="Trazado_642881" data-name="Trazado 642881" d="M127.76,206.2l2.2,1.94L113.993,224.1a3.679,3.679,0,0,0-.82,3.958,3.682,3.682,0,0,1-1.251-6.028l1.658-1.658,3.4-5.589Z" transform="translate(-92.442 -196.091)" fill="#ffddce"/>
          <g id="Grupo_1004251" data-name="Grupo 1004251" transform="translate(43.273 24.81)">
            <path id="Trazado_642882" data-name="Trazado 642882" d="M338.929,295.7l1.2,1.2a3.136,3.136,0,0,1-4.435,4.435l-1.2-1.2a3.136,3.136,0,0,1,4.435-4.435Z" transform="translate(-321.469 -294.776)" fill="#e2a770"/>
            <path id="Trazado_642883" data-name="Trazado 642883" d="M303.432,313.628l2.657,2.657a3.136,3.136,0,0,1-4.435,4.435L299,318.063a3.136,3.136,0,0,1,4.435-4.435Z" transform="translate(-291.865 -309.732)" fill="#e2a770"/>
            <path id="Trazado_642884" data-name="Trazado 642884" d="M285.5,349.125l1.2,1.2a3.136,3.136,0,0,1-4.435,4.435l-1.2-1.2a3.136,3.136,0,1,1,4.435-4.435Z" transform="translate(-276.909 -339.336)" fill="#e2a770"/>
            <path id="Trazado_642885" data-name="Trazado 642885" d="M266,383.061a3.136,3.136,0,1,1-4.435,0A3.136,3.136,0,0,1,266,383.061Z" transform="translate(-260.651 -367.638)" fill="#e2a770"/>
          </g>
          <g id="Grupo_1004252" data-name="Grupo 1004252" transform="translate(43.273 25.098)">
            <path id="Trazado_642886" data-name="Trazado 642886" d="M340.761,301.877a3.136,3.136,0,0,1-5.062.9l-1.2-1.2a3.139,3.139,0,0,1,.9-5.065,3.135,3.135,0,0,0,.629,3.538l1.2,1.2a3.142,3.142,0,0,0,3.534.631Z" transform="translate(-321.474 -296.511)" fill="#d5985c"/>
            <path id="Trazado_642887" data-name="Trazado 642887" d="M306.72,321.281a3.136,3.136,0,0,1-5.062.9L299,319.521a3.136,3.136,0,0,1,.9-5.062,3.141,3.141,0,0,0,.63,3.535l2.657,2.657a3.141,3.141,0,0,0,3.535.63Z" transform="translate(-291.867 -311.479)" fill="#d5985c"/>
            <path id="Trazado_642888" data-name="Trazado 642888" d="M287.328,355.306a3.136,3.136,0,0,1-5.062.9l-1.2-1.2a3.14,3.14,0,0,1,.9-5.066,3.136,3.136,0,0,0,.627,3.538l1.2,1.2a3.139,3.139,0,0,0,3.535.63Z" transform="translate(-276.911 -341.07)" fill="#d5985c"/>
            <path id="Trazado_642889" data-name="Trazado 642889" d="M266.634,388.042a3.137,3.137,0,1,1-4.164-4.167,3.138,3.138,0,0,0,4.164,4.167Z" transform="translate(-260.65 -369.371)" fill="#d5985c"/>
          </g>
          <path id="Trazado_642890" data-name="Trazado 642890" d="M155.733,162.915a4.77,4.77,0,0,1-6.746,0l-4.83-4.83-2.648-2.648-14.178,14.178.014-7.579.032-16.7h15.338a5.265,5.265,0,0,1,3.722,1.542l9.3,9.3A4.771,4.771,0,0,1,155.733,162.915Z" transform="translate(-106.192 -145.333)" fill="#e2a770"/>
          <path id="Trazado_642891" data-name="Trazado 642891" d="M154.4,196.23a4.756,4.756,0,0,1-3.374-1.4l-8.1-8.1a2.31,2.31,0,0,0-3.266,0l-.406.406L132.68,193.7a7.838,7.838,0,0,1-5.335,2.292l-.014,7.579,14.178-14.178,2.648,2.648h0l4.829,4.83a4.777,4.777,0,0,0,7.61-1.178,4.771,4.771,0,0,1-2.2.535Z" transform="translate(-106.192 -179.29)" fill="#d5985c"/>
          <g id="Grupo_1004253" data-name="Grupo 1004253" transform="translate(24.843 23.204)">
            <path id="Trazado_642892" data-name="Trazado 642892" d="M157.428,285.1l.331.349a2.513,2.513,0,0,1-.046,3.507l-4.924,4.925a3.679,3.679,0,0,0-.82,3.958,3.682,3.682,0,0,1-1.251-6.028Z" transform="translate(-149.639 -285.099)" fill="#ffddce"/>
            <path id="Trazado_642893" data-name="Trazado 642893" d="M199.7,305.556l.331.349a2.513,2.513,0,0,1-.046,3.507l-4.924,4.925a3.679,3.679,0,0,0-.82,3.958,3.682,3.682,0,0,1-1.251-6.028Z" transform="translate(-184.89 -302.16)" fill="#ffddce"/>
            <path id="Trazado_642894" data-name="Trazado 642894" d="M246.365,321.612l.331.349a2.513,2.513,0,0,1-.046,3.507l-4.924,4.925a3.679,3.679,0,0,0-.82,3.958,3.682,3.682,0,0,1-1.251-6.028Z" transform="translate(-223.811 -315.55)" fill="#ffddce"/>
          </g>
          <circle id="Elipse_5364" data-name="Elipse 5364" cx="2.242" cy="2.242" r="2.242" transform="translate(14.033 3.937)" fill="#f9f6f9"/>
          <path id="Trazado_642895" data-name="Trazado 642895" d="M374.814,174.574a4.91,4.91,0,0,1-4.91-4.91V145.336h9.82v24.328A4.91,4.91,0,0,1,374.814,174.574Z" transform="translate(-308.493 -145.335)" fill="#365e7d"/>
          <path id="Trazado_642896" data-name="Trazado 642896" d="M379.728,224.707v11.152a4.91,4.91,0,0,1-9.82,0V224.707a4.91,4.91,0,1,0,9.82,0Z" transform="translate(-308.497 -211.529)" fill="#2b4d66"/>
          <circle id="Elipse_5365" data-name="Elipse 5365" cx="2.242" cy="2.242" r="2.242" transform="translate(64.127 3.937)" fill="#f9f6f9"/>
        </g>
      </g>
    </g>
  </g>
</svg>
