<svg xmlns="http://www.w3.org/2000/svg" width="1052" height="310.168" viewBox="0 0 1052 310.168">
  <g id="Grupo_1004844" data-name="Grupo 1004844" transform="translate(-213 -600.71)">
    <g id="Grupo_93244" data-name="Grupo 93244" transform="translate(-104)">
      <rect id="Rectángulo_347319" data-name="Rectángulo 347319" width="1052" height="237" rx="10" transform="translate(317 645.057)" fill="#eff5d6"/>
      <path id="Trazado_628040" data-name="Trazado 628040" d="M0,29.428Z" transform="translate(337 626)" fill="#eff5d6"/>
      <g id="persona_3" data-name="persona 3" transform="translate(369.01 600.71)">
        <g id="Background_Complete" transform="translate(0 14.55)">
          <g id="Grupo_93167" data-name="Grupo 93167" transform="translate(21.461 47.874)">
            <rect id="Rectángulo_35013" data-name="Rectángulo 35013" width="28.833" height="9.176" transform="translate(20.6 11.956)" fill="#ebebeb"/>
            <rect id="Rectángulo_35014" data-name="Rectángulo 35014" width="28.833" height="9.176" transform="translate(198.854 54.604)" fill="#ebebeb"/>
            <path id="Trazado_125361" data-name="Trazado 125361" d="M84.943,77.485c-4.789.082-17.065.287-21.69.336l-7.143.033.377-.377.033,9.176-.41-.41c4.789.016,17,.057,21.625.123l7.208.09-.2.2.2-9.168Zm0,0,.2,9.176v.189h-.2c-3.6.049-10.816.131-14.417.156l-14.417.057H55.7v-.41l.033-9.176V77.1H56.1l7.274.033c4.6.066,16.827.279,21.567.353Z" transform="translate(-51.6 -77.1)" fill="#ebebeb"/>
            <path id="Trazado_125362" data-name="Trazado 125362" d="M171.395,285.9c-4.789.082-17.065.287-21.69.336l-7.143.033.377-.377.033,9.176-.41-.41c4.789.016,17,.057,21.625.123l7.208.09-.2.2.2-9.168Zm0,0,.2,9.176.008.189h-.2c-3.6.049-10.816.131-14.417.156l-14.417.057h-.41v-.41l.033-9.176v-.377h.369l7.274.033c4.592.066,16.819.271,21.559.353Z" transform="translate(-76.646 -164.747)" fill="#ebebeb"/>
            <path id="Trazado_125363" data-name="Trazado 125363" d="M151.785,271.785c-4.789.082-17.065.287-21.69.336l-7.143.033.377-.377.033,9.176-.41-.41c4.789.016,17,.057,21.625.123l7.208.09-.2.2.2-9.168Zm0,0,.2,9.176.008.189h-.2c-3.6.049-10.816.131-14.417.156l-14.417.057h-.41v-.41l.033-9.176V271.4h.369l7.274.033c4.592.066,16.811.271,21.559.353Z" transform="translate(-73.117 -160.578)" fill="#ebebeb"/>
            <rect id="Rectángulo_35015" data-name="Rectángulo 35015" width="28.833" height="9.176" transform="translate(33.819 121.163)" fill="#ebebeb"/>
            <rect id="Rectángulo_35016" data-name="Rectángulo 35016" width="28.833" height="9.176" transform="translate(317.696 97.865)" fill="#ebebeb"/>
            <rect id="Rectángulo_35017" data-name="Rectángulo 35017" width="28.833" height="9.176" transform="translate(278.654 194.772)" fill="#ebebeb"/>
            <path id="Trazado_125364" data-name="Trazado 125364" d="M450.425,376.285c-4.789.082-17.065.287-21.69.336l-7.143.033.377-.377.033,9.176-.41-.41c4.789.016,17,.057,21.625.123l7.208.09-.2.2.2-9.168Zm0,0,.2,9.176.008.189h-.2c-3.6.049-10.817.131-14.417.156l-14.417.057h-.41v-.41l.033-9.176V375.9h.369l7.274.033c4.592.066,16.819.279,21.559.353Z" transform="translate(-126.857 -193.085)" fill="#ebebeb"/>
            <path id="Trazado_125365" data-name="Trazado 125365" d="M91.513,390.4c-4.789.082-17.065.287-21.69.336l-7.143.033.377-.377.033,9.176-.41-.41,14.417.057c3.592.025,10.825.115,14.417.156l-.2.2.2-9.168Zm0,0,.2,9.176v.189h-.2c-3.6.049-10.816.131-14.417.156l-14.417.057h-.41v-.41l.033-9.176v-.377h.369l7.274.033c4.6.066,16.819.279,21.567.353Z" transform="translate(-62.27 -195.624)" fill="#ebebeb"/>
          </g>
          <g id="Grupo_93171" data-name="Grupo 93171" transform="translate(99.499 34.878)">
            <g id="Grupo_93168" data-name="Grupo 93168">
              <path id="Trazado_125366" data-name="Trazado 125366" d="M174.737,105.636l-.336,2.4a1.789,1.789,0,0,1-2.067,1.558,1.832,1.832,0,0,1-1.558-2.067l.541-3.846c.008-.033.041-.033.049-.066-.033-.041-.033-.041-.025-.082a1.881,1.881,0,0,1,2.067-1.558,4.182,4.182,0,1,0,1.156-8.283,4.145,4.145,0,0,0-3.838,1.533,1.832,1.832,0,1,1-2.887-2.255,7.85,7.85,0,1,1,6.9,12.662Zm-1.132,8.1-.09.664a1.789,1.789,0,0,1-2.067,1.558,1.832,1.832,0,0,1-1.558-2.067l.09-.664a1.86,1.86,0,0,1,2.067-1.558A1.812,1.812,0,0,1,173.606,113.738Z" transform="translate(-167.433 -89.986)" fill="#ebebeb"/>
            </g>
          </g>
          <g id="Grupo_93174" data-name="Grupo 93174" transform="translate(0 52.893)">
            <g id="Grupo_93173" data-name="Grupo 93173">
              <rect id="Rectángulo_35022" data-name="Rectángulo 35022" width="65.621" height="65.621" transform="translate(3.411 3.42)" fill="#fff"/>
              <rect id="Rectángulo_35023" data-name="Rectángulo 35023" width="17.131" height="49.498" transform="translate(14.695 13.916)" fill="#c7c7c7"/>
              <path id="Trazado_125370" data-name="Trazado 125370" d="M355.1,195.6v72.443h72.443V195.6Zm69.032,69.04H358.511V199.02h65.621Z" transform="translate(-355.1 -195.6)" fill="#dbdbdb"/>
              <rect id="Rectángulo_35024" data-name="Rectángulo 35024" width="26.201" height="26.201" transform="translate(23.125 23.125)" fill="#ebebeb"/>
              <rect id="Rectángulo_35025" data-name="Rectángulo 35025" width="2.796" height="72.452" transform="translate(72.452)" fill="#c7c7c7"/>
            </g>
          </g>
        </g>
        <g id="Table" transform="translate(9.299 279.541)">
          <path id="Trazado_125371" data-name="Trazado 125371" d="M47.44,437.65l41.527-.2,41.527-.074,83.055-.139,83.055.139,41.527.066,41.527.2-41.527.2-41.527.074-83.055.139-83.055-.139-41.527-.074Z" transform="translate(-47.44 -437.24)" fill="#263238"/>
        </g>
        <g id="Character" transform="translate(59.011)">
          <g id="Grupo_93221" data-name="Grupo 93221">
            <g id="Grupo_93220" data-name="Grupo 93220">
              <g id="Grupo_93176" data-name="Grupo 93176" transform="translate(121.932 105.986)">
                <path id="Trazado_125372" data-name="Trazado 125372" d="M282.276,240.186c41.38,43.233,92.9,133.644,82.776,151.669-11.284,20.067-68.909-40.535-68.63-44.02.213-2.632-19.558-57.379-34.573-97.2C246.842,210.844,272.042,229.492,282.276,240.186Z" transform="translate(-256.829 -225.737)" fill="#d3766a"/>
                <g id="Grupo_93175" data-name="Grupo 93175">
                  <path id="Trazado_125373" data-name="Trazado 125373" d="M295.948,347.755c-1.7-5.847-28.628-78.052-36.3-100.866s-.139-29.735,22.42-8.594S353.7,329.64,364.595,366.674c10.488,35.672-7.8,35.4-31.67,18.664C313.374,371.635,295.948,347.755,295.948,347.755Z" transform="translate(-256.748 -225.601)" fill="#ffc727"/>
                  <path id="Trazado_125374" data-name="Trazado 125374" d="M257.976,229.288c-.156-.057-.312-.115-.476-.189a3.056,3.056,0,0,1,.254-.582c.312.123.631.238.951.344,2.583.828,5.749,1.091,8.012-.689a5,5,0,0,0,.705-.672c.205.1.41.205.623.312C265.733,230.583,261.289,230.5,257.976,229.288Zm17.836,3.772c-.213-.172-.426-.336-.631-.5q-.541.258-1.082.492c-5.166,2.272-11.546,4.559-16.016,8.4.066.254.131.517.2.779a31.809,31.809,0,0,1,7.905-5C269.342,235.742,272.646,234.536,275.812,233.06Zm5.749,15.384a42.411,42.411,0,0,1,5.052-5.412c-.164-.18-.336-.353-.5-.525-4.715,4.108-8.094,10.365-12.58,14.343a21.731,21.731,0,0,1-8.66,4.961c.074.213.148.426.23.64a20.37,20.37,0,0,0,6.241-3.01C275.574,256.522,278.37,252.38,281.56,248.444Zm23.3,16.237c-6.823,9.258-19.2,11.481-30.055,13.121-1.312.2-2.624.41-3.936.672.09.238.172.484.262.73,4.584-.935,9.3-1.328,13.859-2.37,7.6-1.738,15.565-5.339,20.345-11.538v-.008C305.17,265.083,305.014,264.886,304.858,264.681Zm9.291,79.816c-4.691-1.173-8.955.385-13.08,2.567-1.353.722-2.723,1.484-4.117,2.2.139.18.3.385.467.607,5.56-2.862,10.915-6.429,17.319-4.346a7.527,7.527,0,0,1,4.912,4.133c1.066,2.714-.131,5.544-2.026,7.553-2.649,2.8-6.265,3.912-9.767,5.232l.607.681c1-.394,2.009-.779,3.026-1.181,4.174-1.648,9.078-4.691,9.381-9.709C321.111,348.154,317.815,345.407,314.149,344.5ZM297.83,294.465c3.313-4.666,6.355-9.513,9.66-14.187,1.427-2.025,2.928-4.1,4.568-6.044-.156-.213-.312-.418-.467-.631-.878,1.033-1.706,2.091-2.509,3.157-3.329,4.42-6.314,9.086-9.414,13.662-4.674,6.9-10.16,14.663-17.361,19.443.09.254.18.5.279.754C288.744,306.537,293.705,300.263,297.83,294.465Zm1.673,12.325a11.174,11.174,0,0,0,4.592,10.5c3.821,2.624,8.094,1.009,10.808-2.354,1.607-1.984,2.764-4.264,4.2-6.364a26.791,26.791,0,0,1,6.011-6.454,18.234,18.234,0,0,1,4.559-2.485l-.467-.713a17.527,17.527,0,0,0-2.919,1.435c-4.633,2.821-7.454,7.175-10.292,11.645-1.46,2.28-3.215,4.707-5.913,5.568a6.658,6.658,0,0,1-6.552-1.763,10.322,10.322,0,0,1-1.222-13.646c3.149-4.576,8.586-7.036,13.711-8.66,2.624-.828,5.33-1.525,7.979-2.37-.148-.221-.3-.443-.451-.664-5.33,1.714-11.013,2.911-15.581,5.617C304.038,298.41,300.225,302.076,299.5,306.791Zm43.43,14.2a32.613,32.613,0,0,1-7.79,6.823,34.625,34.625,0,0,1-16.073,5.642,22.189,22.189,0,0,1-15.811-4.732c-3.9-3.133-7.372-7.02-12.547-7.873a15.407,15.407,0,0,0-4.428-.09c.107.287.205.566.312.845a14.261,14.261,0,0,1,6.019.623,21.84,21.84,0,0,1,7.1,4.617,37.851,37.851,0,0,0,6.495,4.928,21.781,21.781,0,0,0,7.348,2.386,30.378,30.378,0,0,0,15.212-2.124c5.191-2.05,10.857-5.576,14.63-10.251C343.245,321.519,343.089,321.257,342.933,320.986Zm.041,70.844c.763.41,1.517.8,2.255,1.148a26.33,26.33,0,0,1,7.216,2.8,24.225,24.225,0,0,0,2.895.623,36.7,36.7,0,0,0-7.963-3.739A21.658,21.658,0,0,0,342.974,391.83Zm4.125-63.579c-.123-.213-.238-.426-.361-.64-6.921,1.484-13.383,6.437-15.958,12.744-2.034,4.978-.845,9.849,1.328,14.564a71.836,71.836,0,0,1,3.551,8.151A29.147,29.147,0,0,1,337,370.984a26.93,26.93,0,0,1-3.805,14.785q.32.234.64.443a26.8,26.8,0,0,0,3.756-11.079,29.861,29.861,0,0,0-2.058-14.63c-2.239-5.445-6.044-10.808-4.9-16.991C332.018,336.075,339.341,329.867,347.1,328.252Zm18.09,40.371a41.672,41.672,0,0,1-6.864,1.583c-2.788.344-6.15.221-7.79-2.444-1.181-1.935-.968-4.42-.328-6.5,1.4-4.543,5.076-7.151,8.545-10.029-.09-.23-.2-.459-.3-.689-1.747,1.435-3.584,2.788-5.158,4.3-2.821,2.706-4.92,7-4.256,10.989.82,5,5.9,5.7,10.128,5.043a46.78,46.78,0,0,0,6.2-1.591C365.312,369.066,365.255,368.844,365.189,368.623Z" transform="translate(-256.884 -225.943)" fill="#fff"/>
                </g>
                <path id="Trazado_125375" data-name="Trazado 125375" d="M332.925,386.022c-19.542-13.7-36.976-37.591-36.976-37.591-1.7-5.839-28.636-78.036-36.3-100.866-2.829-8.43-3.592-14.7-2.28-18.164Z" transform="translate(-256.749 -226.284)" opacity="0.1"/>
              </g>
              <g id="Grupo_93178" data-name="Grupo 93178" transform="translate(0 95.775)">
                <g id="Grupo_93177" data-name="Grupo 93177">
                  <path id="Trazado_125376" data-name="Trazado 125376" d="M267.863,397.178H108.06s32.687-127.018,86.688-179.591c7.249-7.052,35.451-5.863,41.946,4.748C261.057,262.172,268.306,396.612,267.863,397.178Z" transform="translate(-108.06 -213.148)" fill="#ffc727"/>
                </g>
                <path id="Trazado_125377" data-name="Trazado 125377" d="M248.939,326.061c-6.282,8.922.549,21.075,10.562,23.175a13.394,13.394,0,0,0,6.208-.2c.025.279.049.549.074.82a14.04,14.04,0,0,1-5.749.344c-8.906-1.386-16.385-10.874-14.015-19.911,1.837-7.044,8.988-11.948,16.139-12.17.033.3.074.582.115.877a13.633,13.633,0,0,0-1.829.148A17.26,17.26,0,0,0,248.939,326.061ZM116.32,374.616c-.082-.066-.164-.139-.246-.2-.09.271-.172.541-.254.812,6.241,5.158,7.528,14.449,9.529,22h.828C124.037,389.327,122.872,380.2,116.32,374.616ZM143,328.709c4.879-.312,9.832-1.943,12.809-6.036,2.3-3.157,3.493-7.6,1.8-11.292-1.968-4.272-6.774-5.4-11.071-5.3-1.862.041-3.7.221-5.527.426-.115.262-.23.533-.344.8a34.833,34.833,0,0,1,9.037-.3,9.194,9.194,0,0,1,6.716,3.83,8.791,8.791,0,0,1,.9,6.708c-1.246,5.371-5.626,8.758-10.841,9.89-4.617,1-9.316.459-13.965-.205-.1.254-.2.5-.3.746A54.836,54.836,0,0,0,143,328.709Zm6.88,59.774c-4.658-.853-12.137,3.625-14.646-2.46-1.886-4.559.812-9.652,3.707-13.08,3.518-4.158,8.061-7.266,12.547-10.292,8.283-5.6,28.349-22.748,18.771-30.014-8.93-6.765-20.4,12.973-27.119,19.165-5.937,5.462-14.63,10.406-23.125,10.283-.082.246-.164.484-.246.73,8.586.148,17.073-4.74,23.453-10.029,8.4-6.954,16.672-25.036,26.373-19.493,8.053,4.6-6.962,20.731-15.278,26.463-4.19,2.895-8.545,5.609-12.366,9-3.379,3-6.692,6.708-7.717,11.235-.754,3.346-.369,7.643,3.034,9.4,2.165,1.123,4.617.7,6.9.262,2.878-.558,5.576-.894,8.25.558a11.117,11.117,0,0,1,5.412,7.011h.877c0-.016-.008-.025-.008-.041C157.618,393.034,154.207,389.278,149.885,388.483Zm58.461-101.219a12.132,12.132,0,0,0-13.088.648c-4.125,2.9-6.618,7.594-8.545,12.12-2.149,5.06-4.076,10.636-8.283,14.408-2.263,2.042-5.831,3.83-8.611,1.657-1.812-1.427-2.5-3.944-2.567-6.167-.156-4.756,2.682-9.25,5.519-12.842,2.936-3.731,6.364-7.036,9.324-10.751,2.747-3.444,5.158-7.372,5.806-11.809.32-2.19.025-4.559-1.8-6.027a7.4,7.4,0,0,0-5.322-1.3c-4.658.451-8.635,3.838-11.44,7.364a40.824,40.824,0,0,0-4.108,6.421c-1.271,2.419-2.214,5-3.5,7.4-1.492,2.788-4.059,4.141-7.159,3.19a10.012,10.012,0,0,1-5.043-3.739c-.115.238-.23.476-.336.713,2.28,2.8,5.691,4.978,9.324,3.8,2.3-.754,3.543-2.837,4.494-4.929,1.1-2.427,2.165-4.863,3.461-7.192,2.6-4.682,6.216-9.48,11.349-11.555,2.157-.869,4.928-1.222,7.061-.1,2.977,1.566,2.6,5.224,1.821,7.987-2.608,9.16-11.227,14.95-16.368,22.568-2.362,3.493-4.322,7.709-3.764,12.03.508,3.887,3.264,7.5,7.585,6.56,5.06-1.1,8.356-6.437,10.415-10.751,2.345-4.888,3.92-10.177,7.257-14.54,3.346-4.379,8.463-7.282,14.015-5.388,5.945,2.026,9.349,7.9,9.57,13.957.41,11.046-7.356,20.19-15.319,26.857-7.643,6.4-16.278,11.62-23.347,18.714a52,52,0,0,0-14.54,29.087c-.992,6.749-.984,14.867,1.747,21.567h1.033a30.827,30.827,0,0,1-1.788-6.159c-2.1-11.267.459-23.47,6.1-33.352,5.437-9.521,13.982-16.04,22.633-22.461,7.61-5.65,15.573-11.538,20.395-19.911C217.424,306.494,218.646,292.988,208.346,287.264Zm26.627,52.147a16.124,16.124,0,0,0-6.913-12.678,11.5,11.5,0,0,0-12.719-.189c-3.944,2.526-6.495,7-7.471,11.5-1.419,6.519-.238,13.211-.107,19.788a65.868,65.868,0,0,1-9.783,35.721c-.779,1.255-1.615,2.485-2.526,3.674h1.115a56.851,56.851,0,0,0,6.626-11.776,66.78,66.78,0,0,0,4.847-17.442c.861-6.331.459-12.539.123-18.886-.32-6.085-.123-12.457,3.428-17.656,3.124-4.576,8.586-7.405,14.006-5.1,5.494,2.321,8.414,8.037,8.57,13.793.328,11.866-8.192,21.83-14.047,31.383a48.61,48.61,0,0,0-6.462,14.581,29.943,29.943,0,0,0-.361,11.1h.836a29.56,29.56,0,0,1,.722-12.555c3.01-10.669,10.857-19.033,15.868-28.735C233.342,350.859,235.334,345.2,234.974,339.411Zm23.823,36.1c-3.051-3.641-7.471-6.06-12.317-5.585-4.428.435-8.315,3.264-9.267,7.749-1.091,5.166,1.632,10.529,4.469,14.671,1.1,1.607,2.345,3.223,3.534,4.879h.927c-2.231-3.2-4.732-6.232-6.429-9.767-2.46-5.117-3.256-12.137,2.46-15.425,4.846-2.8,10.816-1.173,14.679,2.5,4.182,3.985,6.142,9.677,7.307,15.2.517,2.436.91,4.953,1.3,7.5h.779C265.086,389.467,263.921,381.619,258.8,375.51Zm-50.409-162.1q-.677.062-1.328.148a31.774,31.774,0,0,1-6.413,5.7,35.136,35.136,0,0,1-10.759,4.888c-.328.377-.664.746-1,1.132a26.5,26.5,0,0,0,2.747-.713C197.645,222.66,204.222,218.765,208.387,213.41Zm1.148,22.74a9.229,9.229,0,0,1-.713-6.347c.918-4.166,4.248-8.184,8.611-8.9,5.65-.918,10.111,4.051,15.048,5.847,2.509.918,5.658,1.189,8.053.066-.09-.2-.189-.385-.279-.566-2.14,1.082-4.814.787-7.044.074-5.019-1.607-9.053-6.257-14.605-6.191-7.421.1-13.039,9.488-9.808,16.106,1.123,2.3,3.239,3.854,5.125,5.494a16.721,16.721,0,0,1,4.518,5.888,17.177,17.177,0,0,1,.139,13.58,11.782,11.782,0,0,1-10.415,7.315,14.128,14.128,0,0,1-11.284-5.175,9.706,9.706,0,0,1-2.124-5.716c-.074-2.8.984-5.527,1.681-8.2,1.041-3.977,1.2-9.193-3.354-11.013-3.649-1.468-7.971.361-10.825,2.682-3.813,3.092-5.355,7.971-7.487,12.219-2.28,4.535-5.609,8.84-11.03,9.332-.344.033-.681.049-1.017.049-.148.262-.3.533-.451.8a1.852,1.852,0,0,0,.213.008,12.85,12.85,0,0,0,10.57-5.724c2.985-4.117,4.264-9.185,7.151-13.367,2.452-3.551,7.733-6.831,12.178-5.429,6.47,2.042,3.223,10.046,2.157,14.523-.968,4.043-.517,7.856,2.345,11.022,5.273,5.814,15.228,6.585,20.378.246,5.281-6.511,4.149-16.975-1.845-22.642C213.414,240.226,210.872,238.668,209.536,236.15Zm23.56,23.609c4.354,1.632,9.16-.369,12.752-2.854a26.5,26.5,0,0,0,4.2-3.666c-.066-.238-.131-.476-.2-.705-.582.623-1.189,1.222-1.812,1.78-3.78,3.354-9.537,6.724-14.72,4.756-5.339-2.026-6.47-8.258-4.781-13.154,1.9-5.519,7.126-8.865,12.153-11.227q1.4-.652,2.829-1.255c-.074-.213-.164-.418-.254-.631-7.692,3.338-15.745,7.659-16.212,16.877C226.839,253.978,228.922,258.193,233.1,259.759Zm27.185,44.955a29.791,29.791,0,0,1-11.35,6.273c-5.863,1.624-11.809.213-15.532-4.781a24.29,24.29,0,0,1-3.575-7.372c-1.009-3.256-1.738-6.815-.845-10.185,1.493-5.658,6.921-9.2,12.2-10.857,4.527-1.427,9.283-1.9,13.974-2.665-.057-.262-.107-.525-.156-.787-1.919.344-3.83.648-5.691.927-5.535.836-11.218,1.968-15.729,5.494a14.187,14.187,0,0,0-5.65,13.326c.648,5.068,2.673,10.628,6.306,14.318s8.717,4.7,13.67,3.649a28.965,28.965,0,0,0,12.506-6.454C260.362,305.3,260.321,305.01,260.28,304.715Z" transform="translate(-109.456 -213.196)" fill="#fff"/>
              </g>
              <g id="Grupo_93184" data-name="Grupo 93184" transform="translate(14.912 219.616)">
                <g id="Grupo_93181" data-name="Grupo 93181">
                  <path id="Trazado_125378" data-name="Trazado 125378" d="M360.27,415.956c-11.456,11.891-34.393,12.949-99.808,15.351-9.053.336-28.587-62.914-18.935-63.767,12.153-1.074,59.544-2.608,63.021-2.28C333.9,368.007,368.044,407.895,360.27,415.956Z" transform="translate(-146.519 -364.354)" fill="#d3766a"/>
                  <g id="Grupo_93180" data-name="Grupo 93180">
                    <path id="Trazado_125379" data-name="Trazado 125379" d="M242.3,368.876s-25.774-5.732-40.24-4.551c-19.378,1.583-35.459,10.923-41.962,15.245-13.572,9.021-40.15,40.224-32.5,49.441,6.921,8.348,32.482-24.913,32.482-24.913s-31.654,29.612-21.469,38.132,37.657-31.777,37.657-31.777-31.843,31.154-19.944,38.28c8.988,5.38,35.926-29.719,35.926-29.719s-27.185,26.972-18.181,32.9c9.947,6.56,36.845-24.282,36.845-24.282,25.43,11.235,42.134,6.175,53.59,1.164C267.273,427.6,242.3,368.876,242.3,368.876Z" transform="translate(-126.244 -364.165)" fill="#d3766a"/>
                    <g id="Grupo_93179" data-name="Grupo 93179" transform="translate(11.816 28.97)">
                      <path id="Trazado_125380" data-name="Trazado 125380" d="M172.961,399.515c-3.846,3.346-7.758,6.7-11.292,10.374s-6.946,7.479-10.119,11.464c-7.79,9.775-11.136,17.123-10.882,16.688,6.06-10.193,18.509-23.544,22.043-27.217s6.872-7.512,10.4-11.186C173.2,399.556,173.051,399.441,172.961,399.515Z" transform="translate(-140.654 -399.491)" fill="#263238"/>
                      <path id="Trazado_125381" data-name="Trazado 125381" d="M190.634,414.785c-4.723,4.486-9.578,8.758-14.1,13.449-4.5,4.666-8.373,9.5-12.539,14.458-.32.385-.008.426.328.057,4.363-4.8,8.775-8.9,13.195-13.637,4.4-4.732,8.66-9.668,13.236-14.228C190.823,414.818,190.708,414.72,190.634,414.785Z" transform="translate(-144.829 -402.239)" fill="#263238"/>
                      <path id="Trazado_125382" data-name="Trazado 125382" d="M208.59,425.341c-7.569,6.478-13.933,14.351-19.993,22.215-.3.394.107.41.435.025,6.511-7.512,11.563-13.449,19.78-21.977C208.942,425.473,208.745,425.2,208.59,425.341Z" transform="translate(-149.262 -404.136)" fill="#263238"/>
                    </g>
                  </g>
                </g>
                <g id="Grupo_93183" data-name="Grupo 93183" transform="translate(102.544 0.677)">
                  <path id="Trazado_125383" data-name="Trazado 125383" d="M251.3,365.751l45.808,70.688s56.567-5.216,67.129-18.32c6.954-8.627-27.677-52.434-60.339-53Z" transform="translate(-251.292 -365.013)" fill="#ffc727"/>
                  <path id="Trazado_125384" data-name="Trazado 125384" d="M260.717,366.8a26.189,26.189,0,0,1-1.287,9.48l-.549-.853a26.078,26.078,0,0,0,1.033-7.881,16.4,16.4,0,0,0-.148-1.8l.853-.008Q260.68,366.267,260.717,366.8Zm12.309,30.465.492.754a13.831,13.831,0,0,1,9.078,3.9c4.182,3.985,6.142,9.677,7.307,15.2.582,2.731,1,5.56,1.435,8.406l1.017,1.574c-1.32-8.537-2.14-17.434-7.815-24.2A14.591,14.591,0,0,0,273.026,397.26Zm62.75-11.907c-1.607-3.928-4.043-7.807-4.847-11.989-.254-.156-.508-.3-.763-.451a25.458,25.458,0,0,0,2.19,6.856,71.815,71.815,0,0,1,3.551,8.151,29.147,29.147,0,0,1,1.337,7.914c.328,10.8-5.585,21.387-16.36,24.421-9.693,2.731-20.69-1.46-23.4-11.735a18.085,18.085,0,0,1,1.361-13.063c2.747-5.093,7.831-6.659,12.9-8.668,4.174-1.648,9.078-4.691,9.381-9.709.238-4.076-3.059-6.823-6.724-7.733-4.691-1.173-8.955.385-13.08,2.567-5.01,2.649-10.152,5.954-16.073,4.707a16.875,16.875,0,0,1-12.219-11.03l-.992.008a17.893,17.893,0,0,0,13.744,11.981c10.693,1.665,18.492-10.694,29.21-7.208A7.527,7.527,0,0,1,319.9,374.5c1.066,2.714-.131,5.544-2.026,7.553-4.15,4.379-10.661,4.625-15.417,8.045-6.749,4.855-7.971,14.72-4.543,21.912,4.043,8.488,14.179,11.374,22.822,9.086,9.783-2.591,16.016-11.284,17.1-21.116A29.862,29.862,0,0,0,335.776,385.353Zm20.96,10.57c-.2-.246-.4-.492-.6-.738-2.108-.057-4.174-.656-5.355-2.575a6.707,6.707,0,0,1-.8-4.24l-.713-.713a9.8,9.8,0,0,0,.008,3.018C349.93,394.653,353.276,395.9,356.737,395.924Zm-9.111,21.592c-3.871-1.148-8.414-1.353-12.153.377-3.985,1.837-5.675,5.757-5.125,10.021a32.457,32.457,0,0,0,.779,3.756c.23-.041.459-.09.689-.131-.836-3.362-1.5-6.716.328-9.775,2.362-3.936,7.626-4.674,11.8-4.19,5.232.607,9.57,3.543,14.064,6.044.3-.148.6-.3.894-.451C355.22,421.107,351.669,418.7,347.626,417.516Z" transform="translate(-252.656 -365.098)" fill="#fff"/>
                  <g id="Grupo_93182" data-name="Grupo 93182" transform="translate(23.241)">
                    <path id="Trazado_125385" data-name="Trazado 125385" d="M349.583,381.022c-16.434-13.391-21.994-15.712-47.883-16.032-.213,0-.254.271-.041.279,28.382,1.288,41.486,11.776,47.727,15.958C349.558,381.334,349.731,381.145,349.583,381.022Z" transform="translate(-283.569 -364.99)" fill="#263238"/>
                    <path id="Trazado_125386" data-name="Trazado 125386" d="M319.042,429.268c-4.625-8.045-9.668-15.827-14.736-23.6s-10.128-15.573-15.392-23.224c-2.977-4.322-5.921-8.668-9.053-12.883-.082-.115-.287,0-.213.123,4.609,8.028,9.627,15.852,14.638,23.642q7.528,11.723,15.3,23.289c2.928,4.363,5.929,8.668,9.053,12.883C318.8,429.7,319.181,429.5,319.042,429.268Z" transform="translate(-279.631 -365.804)" fill="#263238"/>
                  </g>
                  <path id="Trazado_125387" data-name="Trazado 125387" d="M309.063,365.543l-.008.008-37.7,31.146L251.29,365.74l52.606-.64c.623.008,1.238.041,1.862.082l2.944.32Z" transform="translate(-251.29 -365.01)" opacity="0.1"/>
                </g>
              </g>
              <g id="Grupo_93192" data-name="Grupo 93192" transform="translate(65.463 108.457)">
                <g id="Grupo_93187" data-name="Grupo 93187" transform="translate(0 0.002)">
                  <g id="Grupo_93186" data-name="Grupo 93186">
                    <g id="Grupo_93185" data-name="Grupo 93185">
                      <path id="Trazado_125388" data-name="Trazado 125388" d="M189.825,264.062c-6.716,75.822,3.772,136.219,35.607,140.565,21.141,2.887,15.852-61.225,15.8-62.595-.164-4.691-2.608-43.815-17.59-86.368C207.153,208.848,192.826,230.186,189.825,264.062Z" transform="translate(-187.888 -228.616)" fill="#d3766a"/>
                    </g>
                  </g>
                </g>
                <g id="Grupo_93191" data-name="Grupo 93191">
                  <g id="Grupo_93189" data-name="Grupo 93189">
                    <g id="Grupo_93188" data-name="Grupo 93188">
                      <path id="Trazado_125389" data-name="Trazado 125389" d="M189.825,264.062c-6.716,75.822,3.772,136.219,35.607,140.565,21.141,2.887,24.1-51.179,24.052-52.549-.164-4.691-10.857-53.861-25.848-96.422C207.153,208.847,192.826,230.185,189.825,264.062Z" transform="translate(-187.888 -228.614)" fill="#ffc727"/>
                    </g>
                  </g>
                  <g id="Grupo_93190" data-name="Grupo 93190" transform="translate(37.592 32.446)">
                    <path id="Trazado_125390" data-name="Trazado 125390" d="M233.73,268.18c4.633,14.285,8.848,28.694,12.94,43.135,3.9,14.49,8.053,28.964,10.5,43.791-5.552-25.463-16.524-61.43-23.437-86.925Z" transform="translate(-233.73 -268.18)" fill="#263238"/>
                    <path id="Trazado_125391" data-name="Trazado 125391" d="M238.51,272.5c1.05,4.067,1.837,8.471.869,12.621.123-4.158-.648-8.471-.869-12.621Z" transform="translate(-234.59 -268.957)" fill="#263238"/>
                  </g>
                  <path id="Trazado_125392" data-name="Trazado 125392" d="M193.2,249.779c-.369.533-.705,1.074-1.033,1.632q.258-1.144.541-2.239a14.416,14.416,0,0,1,2.542-2.706c2.854-2.321,7.175-4.149,10.825-2.682,4.551,1.821,4.4,7.036,3.354,11.013-.7,2.673-1.755,5.4-1.681,8.2a9.706,9.706,0,0,0,2.124,5.716,14.128,14.128,0,0,0,11.284,5.175,11.191,11.191,0,0,0,6.888-2.608c.09.254.172.508.254.771-5.421,4.182-13.752,2.985-18.418-2.157-2.862-3.165-3.313-6.979-2.345-11.021,1.066-4.477,4.313-12.481-2.157-14.523C200.932,242.948,195.651,246.228,193.2,249.779Zm7.692,30.121c.32-2.19.025-4.559-1.8-6.027a7.4,7.4,0,0,0-5.322-1.3,12.222,12.222,0,0,0-4.518,1.386c-.025.287-.049.574-.066.861a13.413,13.413,0,0,1,1.624-.779c2.157-.869,4.928-1.222,7.061-.1,2.977,1.566,2.6,5.224,1.821,7.987-1.911,6.708-7.044,11.612-11.669,16.745-.016.369-.025.738-.025,1.1,2.354-2.7,4.855-5.265,7.085-8.069C197.832,288.264,200.243,284.336,200.891,279.9Zm24.429,40.814c5.093-8.848,6.314-22.355-3.985-28.079a12.132,12.132,0,0,0-13.088.648c-4.125,2.9-6.618,7.594-8.545,12.12-2.149,5.06-4.076,10.636-8.283,14.408a11.523,11.523,0,0,1-3.256,2.108c.016.3.025.582.041.869,4.469-1.558,7.446-6.446,9.357-10.447,2.345-4.887,3.92-10.177,7.257-14.54,3.346-4.379,8.463-7.282,14.015-5.388,5.945,2.026,9.349,7.9,9.57,13.957.41,11.046-7.356,20.19-15.319,26.857-7.274,6.093-15.442,11.112-22.305,17.7.057.385.115.771.18,1.148a131.159,131.159,0,0,1,13.965-11.448C212.536,334.974,220.5,329.086,225.321,320.714Zm18.394,40.593c2.427-4.715,4.322-9.931,4.289-15.286,0-.418-.016-.82-.041-1.238a17.746,17.746,0,0,0-1.624-6.47,14.925,14.925,0,0,0-5.289-6.208,11.5,11.5,0,0,0-12.719-.189c-3.944,2.526-6.495,7-7.471,11.5-1.419,6.519-.238,13.211-.107,19.788a65.869,65.869,0,0,1-9.783,35.721c-.18.3-.369.582-.558.877.221.213.451.418.681.623a60.5,60.5,0,0,0,5.093-9.6,66.778,66.778,0,0,0,4.847-17.442c.861-6.331.459-12.539.123-18.886-.32-6.085-.123-12.457,3.428-17.656,3.124-4.576,8.586-7.405,14.007-5.1,5.494,2.321,8.414,8.036,8.57,13.793.328,11.866-8.192,21.83-14.048,31.383a48.611,48.611,0,0,0-6.462,14.581,30.177,30.177,0,0,0,.5,15c.082.3.18.59.271.886.279-.008.558-.025.828-.057a29.945,29.945,0,0,1-.4-17.278C230.856,379.372,238.7,371.007,243.714,361.306Z" transform="translate(-187.909 -231.249)" fill="#fff"/>
                </g>
              </g>
              <g id="Grupo_93193" data-name="Grupo 93193" transform="translate(64.28 154.303)">
                <path id="Trazado_125393" data-name="Trazado 125393" d="M188.4,284.52c-.09,18.509.385,37.042,1.919,55.485,1.944,23.06,7.364,71.7,36.886,73.985a17.973,17.973,0,0,0,12.621-3.518c5.6-4.01,10.283-9.168,14.777-14.384,8.914-10.538,17-22.215,24.495-33.573l-1.8-1.829,1.862,1.763.025.025c-2.362,4-4.863,7.913-7.413,11.8-7.5,11.194-24.815,36.919-37.534,40.584-15.581,3.452-27.291-7.249-33.581-20.452-13.924-29.464-13.088-77.232-12.26-109.887Z" transform="translate(-186.727 -284.52)" fill="#263238"/>
                <path id="Trazado_125394" data-name="Trazado 125394" d="M186.6,290.11c.394,3.51.968,6.9,1.345,10.406A22.288,22.288,0,0,1,186.6,290.11Z" transform="translate(-186.446 -285.526)" fill="#263238"/>
              </g>
              <g id="Grupo_93213" data-name="Grupo 93213" transform="translate(52.728)">
                <path id="Trazado_125395" data-name="Trazado 125395" d="M239.7,255.253s-27.283-24.962-44.381-23.8l-14.1,13.383s-4.715,1.722-6.3-1.247c-3.9-7.356-5.232-25.405,9.931-37.665,13.883-11.218,43.184-10,62.808-5.527,18.845,4.3,29.505,14.95,24.183,27.324S239.7,255.253,239.7,255.253Z" transform="translate(-172.359 -114.497)" fill="#ffc727"/>
                <path id="Trazado_125396" data-name="Trazado 125396" d="M246.167,250.434s20.92-16.007,22.822-25.167-16.54-17.2-28.382-20.214c-18.328-4.65-30.654-3.067-40.5,6.962S246.167,250.434,246.167,250.434Z" transform="translate(-177.142 -115.468)" opacity="0.1"/>
                <g id="Grupo_93195" data-name="Grupo 93195" transform="translate(42.228 64.87)">
                  <g id="Grupo_93194" data-name="Grupo 93194">
                    <path id="Trazado_125397" data-name="Trazado 125397" d="M253.668,242.508c-9.775,1.23-24.577-15.1-29.776-27.595-.353-.861,1.8-9.258,3.944-19.591,1.271-6.273,2.542-13.293,3.239-19.78.139-1.328,39.617,14.253,39.617,14.253s-5.462,13.17-6.6,24.487a15.523,15.523,0,0,0-.008,2.69c0,.123.016.279.008.451C264.378,222.556,263.115,241.311,253.668,242.508Z" transform="translate(-223.854 -175.462)" fill="#d3766a"/>
                  </g>
                  <path id="Trazado_125398" data-name="Trazado 125398" d="M261.733,217.207a25.234,25.234,0,0,0,4.2.23c.008-.172-.008-.32-.008-.451a14.08,14.08,0,0,1,.016-2.69c1.148-11.309,6.593-24.479,6.593-24.479s-32.048-12.653-38.493-14.187C234.483,183.265,237.8,214.107,261.733,217.207Z" transform="translate(-225.687 -175.492)" fill="#263238"/>
                </g>
                <g id="Grupo_93205" data-name="Grupo 93205" transform="translate(34.755)">
                  <g id="Grupo_93196" data-name="Grupo 93196" transform="translate(1.71 0.668)">
                    <path id="Trazado_125399" data-name="Trazado 125399" d="M216.87,128.808c-1.025,15.13,15.934,54.214,28.095,60.979,17.639,9.808,41.782,5.519,48.924-14.605,6.921-19.5-16.081-70.049-29.227-75.707C245.293,91.143,218.387,106.453,216.87,128.808Z" transform="translate(-216.826 -97.172)" fill="#d3766a"/>
                  </g>
                  <path id="Trazado_125400" data-name="Trazado 125400" d="M255.487,214.9c-.008,0-.016-.008-.008-.016" transform="translate(-222.071 -117.686)" fill="none" stroke="#f5a79e" stroke-linecap="round" stroke-linejoin="round" stroke-width="0"/>
                  <g id="Grupo_93202" data-name="Grupo 93202" transform="translate(37.348 26.261)">
                    <g id="Grupo_93197" data-name="Grupo 93197" transform="translate(4.393 20.493)">
                      <path id="Trazado_125401" data-name="Trazado 125401" d="M272.454,155.646c-.066-.09-.156.213-.107.32,1.214,2.6,2.165,5.79.148,7.684-.066.057,0,.189.082.139C275.324,162.133,274.02,157.918,272.454,155.646Z" transform="translate(-266.845 -153.777)" fill="#263238"/>
                      <path id="Trazado_125402" data-name="Trazado 125402" d="M267.715,153.493c-4.379,1.492-1.074,10.144,2.985,8.758C274.693,160.9,271.389,152.247,267.715,153.493Z" transform="translate(-265.64 -153.371)" fill="#263238"/>
                    </g>
                    <g id="Grupo_93198" data-name="Grupo 93198" transform="translate(26.207 11.709)">
                      <path id="Trazado_125403" data-name="Trazado 125403" d="M292.36,147.542c-.016-.107.254.049.3.156.943,2.714,2.477,5.658,5.24,5.626.09,0,.131.139.033.156C294.812,154.193,292.811,150.257,292.36,147.542Z" transform="translate(-292.262 -143.532)" fill="#263238"/>
                      <path id="Trazado_125404" data-name="Trazado 125404" d="M293.659,142.955c4.182-1.976,7.832,6.536,3.953,8.373C293.8,153.124,290.149,144.612,293.659,142.955Z" transform="translate(-292.24 -142.66)" fill="#263238"/>
                    </g>
                    <path id="Trazado_125405" data-name="Trazado 125405" d="M263.028,152.455a35.541,35.541,0,0,0,3.51-1.46c1.345-.574,2.468-.894,3.3-2.173a1.969,1.969,0,0,0-.443-2.354c-1.451-1.148-3.272-.853-4.92-.23a7.152,7.152,0,0,0-3.936,3.3A2.1,2.1,0,0,0,263.028,152.455Z" transform="translate(-260.283 -131.496)" fill="#263238"/>
                    <path id="Trazado_125406" data-name="Trazado 125406" d="M292.357,133.21a36.513,36.513,0,0,1-3.78.426c-1.451.148-2.591.41-3.936-.3a1.95,1.95,0,0,1-.746-2.272c.713-1.714,2.452-2.329,4.19-2.583a7.119,7.119,0,0,1,5.043.992A2.088,2.088,0,0,1,292.357,133.21Z" transform="translate(-264.511 -128.381)" fill="#263238"/>
                    <path id="Trazado_125407" data-name="Trazado 125407" d="M280.847,185.74c.886.385,1.853,1,2.854.713a7.566,7.566,0,0,0,2.624-1.779.1.1,0,0,1,.172.09,3.853,3.853,0,0,1-2.846,2.755,3.054,3.054,0,0,1-3.018-1.566C280.535,185.822,280.716,185.683,280.847,185.74Z" transform="translate(-263.94 -138.506)" fill="#263238"/>
                    <g id="Grupo_93201" data-name="Grupo 93201" transform="translate(17.059 4.781)">
                      <g id="Grupo_93200" data-name="Grupo 93200">
                        <g id="Grupo_93199" data-name="Grupo 93199">
                          <path id="Trazado_125408" data-name="Trazado 125408" d="M282.59,172.441c2.878-2.665,7.413-3.928,10.308-4.658.3-.164.336-.886.271-1.2l-.008-.016c-.041-.1-2.37-5.593-2.37-5.593.886.082,5.355.32,4.879-.722-3.953-8.611-8.348-18.189-14.1-25.93a.264.264,0,0,0-.459.254c3.469,8.43,8.4,16.188,12.022,24.6-1.394.008-3.7-.074-4.756.361-.254.2,2.813,5.8,3.067,6.749,0,0-6.036.484-9.357,5C281.229,172.466,281.212,173.712,282.59,172.441Z" transform="translate(-281.086 -134.212)" fill="#263238"/>
                        </g>
                      </g>
                    </g>
                  </g>
                  <path id="Trazado_125409" data-name="Trazado 125409" d="M225.212,165.752c6.61-.607,8.5-11.44,8.619-15.745s-5.937-20.37-5.15-27.062,7-11.1,12.465-11.505,14.285,3.641,17.787,1.927,1.394-9.9,3.92-10.857c5.56-2.116,13.137,9.34,16.45,15.056,0,0-7.175-27.849-36.681-19.722-26.906,7.413-28.472,28.562-27.759,37.255C216.216,151.762,225.212,165.752,225.212,165.752Z" transform="translate(-214.74 -96.358)" fill="#263238"/>
                  <g id="Grupo_93203" data-name="Grupo 93203" transform="translate(6.757 32.024)">
                    <path id="Trazado_125410" data-name="Trazado 125410" d="M272.261,171.979a12.2,12.2,0,1,1,7.151-17.894h0a12.222,12.222,0,0,1-4.363,16.7A12.546,12.546,0,0,1,272.261,171.979Zm-6.306-21.887a10.572,10.572,0,1,0,12.055,4.814A10.531,10.531,0,0,0,265.955,150.092Z" transform="translate(-229.045 -137.684)" fill="#ebebeb"/>
                    <path id="Trazado_125411" data-name="Trazado 125411" d="M304.107,158.724c-4.486,1.3-9.882-2.132-12.342-8a14.55,14.55,0,0,1-.927-8.865,7.6,7.6,0,0,1,12-5.035,14.539,14.539,0,0,1,5.675,6.864c2.6,6.2.968,12.826-3.649,14.769A6.318,6.318,0,0,1,304.107,158.724Zm-7.471-21.461a4.9,4.9,0,0,0-.582.205,6.5,6.5,0,0,0-3.625,4.773,12.921,12.921,0,0,0,.845,7.856c2.255,5.371,7.167,8.463,10.964,6.864s5.035-7.257,2.78-12.629a12.946,12.946,0,0,0-5.019-6.1A6.714,6.714,0,0,0,296.637,137.263Z" transform="translate(-235.133 -135.409)" fill="#ebebeb"/>
                    <path id="Trazado_125412" data-name="Trazado 125412" d="M284.282,156.054l-1.451-.746c1.107-2.149,4.24-5.732,8.225-3.944l-.664,1.484C286.824,151.241,284.388,155.858,284.282,156.054Z" transform="translate(-233.75 -138.193)" fill="#ebebeb"/>
                    <path id="Trazado_125413" data-name="Trazado 125413" d="M224.6,182.382l-1.624-.131c.066-.763.681-7.462,3.813-9.422,2.928-1.821,23.88-8.4,24.774-8.668l.484,1.558c-6.011,1.878-22.133,7.085-24.4,8.5C225.588,175.51,224.751,180.545,224.6,182.382Z" transform="translate(-222.98 -140.583)" fill="#ebebeb"/>
                  </g>
                  <g id="Grupo_93204" data-name="Grupo 93204" transform="translate(2 57.046)">
                    <path id="Trazado_125414" data-name="Trazado 125414" d="M236.082,173.161s-12.522-10.8-17.648-6.019,6.61,22.076,14.269,22.9a7.339,7.339,0,0,0,8.561-6.249Z" transform="translate(-217.18 -165.921)" fill="#d3766a"/>
                    <path id="Trazado_125415" data-name="Trazado 125415" d="M222.943,173.327c-.115.016-.1.18.008.2,5.412.738,9.152,4.633,12.153,8.9-1.919-1.443-4.158-1.935-6.15.418-.107.123.066.3.2.23a4.518,4.518,0,0,1,5.207.3,22.1,22.1,0,0,1,3.3,3.313c.344.377,1.074-.057.779-.517a.465.465,0,0,1-.066-.107C236.9,179.773,229.815,172.253,222.943,173.327Z" transform="translate(-218.202 -167.235)" fill="#263238"/>
                  </g>
                </g>
                <path id="Trazado_125416" data-name="Trazado 125416" d="M245.789,252.644S223.41,217.5,196.84,214.84l2.887,19.8s15.786-.492,44.381,23.8Z" transform="translate(-176.764 -117.678)" fill="#ffc727"/>
                <g id="Grupo_93206" data-name="Grupo 93206" transform="translate(8.866 116.722)">
                  <path id="Trazado_125417" data-name="Trazado 125417" d="M191.68,239.527c4.822-.763,9.668.148,14.261,1.427a62.471,62.471,0,0,1,13.2,5.626,108.148,108.148,0,0,1,12.112,7.782l5.683,4.453,5.486,4.715.615.533.656-.361a123.072,123.072,0,0,0,13.974-9.07,69.655,69.655,0,0,0,6.4-5.314,42.613,42.613,0,0,0,5.552-6.175,73.585,73.585,0,0,1-12.809,10.292c-2.28,1.525-4.625,2.944-7,4.322s-4.756,2.747-7.159,3.994l1.271.164-5.494-4.879c-1.894-1.55-3.83-3.059-5.773-4.559-2.026-1.386-4.026-2.821-6.1-4.133-2.124-1.246-4.207-2.559-6.437-3.608a57.843,57.843,0,0,0-13.843-5.084c-1.2-.3-2.427-.467-3.633-.664-1.23-.115-2.452-.254-3.682-.271A21.544,21.544,0,0,0,191.68,239.527Z" transform="translate(-184.701 -238.693)" fill="#263238"/>
                  <path id="Trazado_125418" data-name="Trazado 125418" d="M183.17,252.353a71.826,71.826,0,0,0,7.454-6.257,70.057,70.057,0,0,0,6.634-7.126,70.981,70.981,0,0,0-7.454,6.257A74.817,74.817,0,0,0,183.17,252.353Z" transform="translate(-183.17 -238.743)" fill="#263238"/>
                </g>
                <g id="Grupo_93209" data-name="Grupo 93209" transform="translate(58.2 127.725)">
                  <g id="Grupo_93207" data-name="Grupo 93207">
                    <path id="Trazado_125419" data-name="Trazado 125419" d="M244.027,252.348a145.564,145.564,0,0,0-.336,25.176c.385,5.855,4.453,26.611,10.874,25.29S249.243,288.889,246.43,278c-2.862-11.054-.566-19.238-.746-25.889Z" transform="translate(-243.33 -252.11)" fill="#ffc727"/>
                  </g>
                  <g id="Grupo_93208" data-name="Grupo 93208" opacity="0.1">
                    <path id="Trazado_125420" data-name="Trazado 125420" d="M244.027,252.348a145.564,145.564,0,0,0-.336,25.176c.385,5.855,4.453,26.611,10.874,25.29S249.243,288.889,246.43,278c-2.862-11.054-.566-19.238-.746-25.889Z" transform="translate(-243.33 -252.11)"/>
                  </g>
                </g>
                <g id="Grupo_93212" data-name="Grupo 93212" transform="translate(79.333 129.004)">
                  <g id="Grupo_93210" data-name="Grupo 93210">
                    <path id="Trazado_125421" data-name="Trazado 125421" d="M270.593,253.67a132.993,132.993,0,0,1,6.765,21.805c1.173,5.191,2.969,24.29-2.96,24.79s1.05-13.482.705-23.675c-.353-10.349-4.453-16.877-6-22.707Z" transform="translate(-269.1 -253.67)" fill="#ffc727"/>
                  </g>
                  <g id="Grupo_93211" data-name="Grupo 93211" opacity="0.1">
                    <path id="Trazado_125422" data-name="Trazado 125422" d="M270.593,253.67a132.993,132.993,0,0,1,6.765,21.805c1.173,5.191,2.969,24.29-2.96,24.79s1.05-13.482.705-23.675c-.353-10.349-4.453-16.877-6-22.707Z" transform="translate(-269.1 -253.67)"/>
                  </g>
                </g>
              </g>
              <g id="Grupo_93219" data-name="Grupo 93219" transform="translate(77.057 81.203)">
                <g id="Grupo_93217" data-name="Grupo 93217" transform="translate(6.043)">
                  <path id="Trazado_125423" data-name="Trazado 125423" d="M235.231,410.834c17.443-2.682,46.038-41.995,64.169-86.942,3.452-8.553-62.964-43.135-65.588-33.622-8.43,30.514-24.938,70.426-24.4,95.052C209.825,404.47,223.168,412.7,235.231,410.834Z" transform="translate(-209.395 -212.16)" fill="#d3766a"/>
                  <g id="Grupo_93216" data-name="Grupo 93216" transform="translate(23.13)">
                    <g id="Grupo_93214" data-name="Grupo 93214" transform="translate(5.95 7.038)">
                      <path id="Trazado_125424" data-name="Trazado 125424" d="M272.675,242.667c-4.24-5.183-4.879-19.681-8.676-28.226s-14.9-12.555-16.885-9.414.951,6.306,1.853,20.345c.582,9.029-6.323,27.07-3.379,43.455C247.073,277.06,276.915,247.85,272.675,242.667Z" transform="translate(-244.855 -203.962)" fill="#f7a9a0"/>
                      <path id="Trazado_125425" data-name="Trazado 125425" d="M272.675,242.667c-4.24-5.183-4.879-19.681-8.676-28.226s-14.9-12.555-16.885-9.414.951,6.306,1.853,20.345c.582,9.029-6.323,27.07-3.379,43.455C247.073,277.06,276.915,247.85,272.675,242.667Z" transform="translate(-244.855 -203.962)" fill="#d3766a"/>
                      <path id="Trazado_125426" data-name="Trazado 125426" d="M272.675,242.667c-4.24-5.183-4.879-19.681-8.676-28.226s-14.9-12.555-16.885-9.414.951,6.306,1.853,20.345c.582,9.029-6.323,27.07-3.379,43.455C247.073,277.06,276.915,247.85,272.675,242.667Z" transform="translate(-244.855 -203.962)" opacity="0.06"/>
                    </g>
                    <path id="Trazado_125427" data-name="Trazado 125427" d="M304.377,197.028c5.929,5.527-8.947,18.984-8.947,18.984s5.4-1.46,10.1,1.164c5.38,3,3.034,12.752,3.034,12.752a18.411,18.411,0,0,1,10.464,2.928c4.863,3.387,3.9,13.572,3.9,13.572s5.56,2.641,7.577,8.365c3.461,9.791-7.364,21.551-12.629,30.145-5.634,9.209-12.7,20.649-16.762,26.315L237.6,278.943s10.882-48.572,19.5-56.887C264.375,215.053,295.323,188.574,304.377,197.028Z" transform="translate(-237.6 -195.38)" fill="#d3766a"/>
                    <g id="Grupo_93215" data-name="Grupo 93215" transform="translate(32.058 20.557)">
                      <path id="Trazado_125428" data-name="Trazado 125428" d="M302.186,220.482c-9.5,5.593-17.656,13.449-25.438,21.116a.192.192,0,0,0,.271.271c7.651-7.717,17.549-13.572,25.487-20.969A.268.268,0,0,0,302.186,220.482Z" transform="translate(-276.693 -220.448)" fill="#263238"/>
                      <path id="Trazado_125429" data-name="Trazado 125429" d="M318.577,237.068a28.593,28.593,0,0,0-5.453,5.175c-1.8,1.96-3.567,3.961-5.306,5.978q-5.216,6.064-10.128,12.391c-.148.189.107.451.271.262,3.469-4.026,7-8,10.644-11.874q2.731-2.915,5.511-5.773a34.223,34.223,0,0,0,4.978-5.642A.381.381,0,0,0,318.577,237.068Z" transform="translate(-280.463 -223.429)" fill="#263238"/>
                      <path id="Trazado_125430" data-name="Trazado 125430" d="M337.322,257.817c-1.886,1.082-3.3,3.272-4.658,4.92q-2.325,2.817-4.666,5.6c-3.133,3.715-6.265,7.43-9.529,11.038-.164.18.107.451.271.262,3.329-3.649,6.708-7.249,10.013-10.923q2.436-2.706,4.83-5.445c1.361-1.55,3.239-3.329,3.944-5.314C337.551,257.858,337.412,257.768,337.322,257.817Z" transform="translate(-284.201 -227.17)" fill="#263238"/>
                    </g>
                    <path id="Trazado_125431" data-name="Trazado 125431" d="M299.84,195.38c-10.784,4.469-23.708,13.957-31.277,19.829a103.616,103.616,0,0,0-8.135,7c-2.509,2.518-4.141,5.724-5.74,8.9-1.082,2.14-2.017,4.354-2.928,6.593,1.64-5.74,3.608-11.842,7.692-16.426A81.56,81.56,0,0,1,267.6,214c7.635-5.863,15.45-11.8,24.331-15.63Z" transform="translate(-240.148 -195.38)" fill="#263238"/>
                  </g>
                </g>
                <g id="Grupo_93218" data-name="Grupo 93218" transform="translate(0.653 95.848)">
                  <path id="Trazado_125432" data-name="Trazado 125432" d="M218.951,312.26l62.857,55.214S248.94,420.6,233.622,419.556s-31.957-10.964-30.736-47.8C203.189,362.521,218.951,312.26,218.951,312.26Z" transform="translate(-202.823 -312.26)" fill="#ffc727"/>
                  <path id="Trazado_125433" data-name="Trazado 125433" d="M208.467,355.337c-.262.2-.525.385-.787.59.115-.443.238-.886.353-1.337,2.911-2.157,5.822-4.322,8.594-6.651,7-5.855,13.842-13.629,15.114-22.92l.623.549a29.454,29.454,0,0,1-3.5,9.857C224.04,343.8,216.077,349.687,208.467,355.337Zm36.123-8.52a11.5,11.5,0,0,0-12.719-.189c-3.944,2.526-6.495,7-7.471,11.5-1.419,6.519-.238,13.211-.107,19.788a65.809,65.809,0,0,1-9.6,35.418c.221.23.451.451.681.664a63.956,63.956,0,0,0,4.354-8.463,66.779,66.779,0,0,0,4.847-17.442c.861-6.331.459-12.539.123-18.886-.32-6.085-.123-12.457,3.428-17.656,3.124-4.576,8.586-7.405,14.007-5.1,5.494,2.321,8.414,8.036,8.57,13.793.328,11.866-8.192,21.83-14.048,31.383a48.61,48.61,0,0,0-6.462,14.581,30.177,30.177,0,0,0,.5,15,1.984,1.984,0,0,0,.066.205c.287.049.582.1.877.139a29.918,29.918,0,0,1-.246-16.795c3.01-10.669,10.857-19.033,15.868-28.735,2.616-5.076,4.609-10.734,4.248-16.524A16.123,16.123,0,0,0,244.591,346.817Zm18.418,43.192c-4.428.435-8.315,3.264-9.267,7.75a15.4,15.4,0,0,0,1.484,9.488c.189-.221.394-.443.59-.664-2.108-5-2.477-11.382,2.887-14.466a11.235,11.235,0,0,1,9.275-.754c.164-.221.32-.443.492-.664A12.457,12.457,0,0,0,263.009,390.009ZM282,369.172a13.407,13.407,0,0,1-5.97.148c-7.741-1.624-13.58-9.25-12.932-16.745l-.845-.746c-1.271,8.57,5.88,17.139,14.31,18.451a14.222,14.222,0,0,0,6.077-.435.75.75,0,0,1,.041-.074Z" transform="translate(-203.697 -314.556)" fill="#fff"/>
                  <path id="Trazado_125434" data-name="Trazado 125434" d="M221.563,340.1c3.075,2.567,5.945,5.4,8.865,8.143s5.822,5.519,8.676,8.332c5.716,5.626,11.407,11.276,17.016,17,1.534,1.566,3.067,3.133,4.576,4.732,1.616,1.706,3.018,3.616,4.642,5.306a.142.142,0,0,1-.205.2c-1.427-1.353-3.051-2.509-4.51-3.838-1.509-1.378-2.993-2.788-4.461-4.2q-4.33-4.17-8.627-8.381c-5.724-5.609-11.423-11.259-16.959-17.057-3.124-3.272-6.38-6.487-9.308-9.939A.209.209,0,0,1,221.563,340.1Z" transform="translate(-206.132 -317.259)" fill="#263238"/>
                </g>
                <path id="Trazado_125435" data-name="Trazado 125435" d="M225.926,318.434l-7.266-6.085.353-.1c-3.461,13.022-7.274,25.955-10.849,38.928a174.823,174.823,0,0,0-4.084,17.057,92.619,92.619,0,0,0-.066,22.551,70.489,70.489,0,0,1-1.722-22.756c1.78-12.588,5.814-24.733,9.578-36.829q3.2-9.779,6.856-19.4l.238.213,6.962,6.421Z" transform="translate(-202.026 -216.33)" fill="#263238"/>
              </g>
            </g>
          </g>
        </g>
        <g id="Plant" transform="translate(285.58 173.76)">
          <g id="Grupo_93233" data-name="Grupo 93233">
            <g id="Grupo_93230" data-name="Grupo 93230">
              <g id="Grupo_93223" data-name="Grupo 93223" transform="translate(29.9 27.734)">
                <path id="Trazado_125436" data-name="Trazado 125436" d="M445.51,342.258c-10.751,14.564-21.969,31.465-24.7,49.728a.244.244,0,0,0,.476.09,108.3,108.3,0,0,1,4.756-14.621c7.069-1.944,14.006-3.543,17.721-10.562,3.789-7.216,3.3-16.614,2.583-24.479C446.3,342,445.723,341.971,445.51,342.258Z" transform="translate(-420.808 -342.067)" fill="#adce32"/>
                <g id="Grupo_93222" data-name="Grupo 93222" transform="translate(5.319 4.592)">
                  <path id="Trazado_125437" data-name="Trazado 125437" d="M427.315,378.323c4.83-10.841,11.03-21.723,18.919-30.637.049-.057.139.025.09.09-5.158,6.347-9.086,13.26-12.916,20.3,3.559-3.616,7.462-6.856,10.833-10.685.066-.074.172.033.107.107-3.346,4.018-7.011,8.389-11.366,11.358q-1.759,3.235-3.551,6.487c.3-.164.6-.312.894-.459.049-.025.1.049.049.082-.336.172-.664.344-1.009.492-.566,1.025-1.132,2.05-1.714,3.075C427.529,378.749,427.209,378.552,427.315,378.323Z" transform="translate(-427.294 -347.666)" fill="#263238"/>
                  <path id="Trazado_125438" data-name="Trazado 125438" d="M431.687,379.227a64.574,64.574,0,0,0,8.258-5.511c.074-.057.172.041.1.1a43.829,43.829,0,0,1-8.233,5.609C431.671,379.5,431.556,379.3,431.687,379.227Z" transform="translate(-428.074 -352.351)" fill="#263238"/>
                </g>
              </g>
              <g id="Grupo_93225" data-name="Grupo 93225" transform="translate(27.883)">
                <path id="Trazado_125439" data-name="Trazado 125439" d="M419.121,383.186c.025.221.4.213.394-.016.057-6.011.008-12.055.1-18.1,1.542-3.108,4.846-4.83,7.151-7.323a32.235,32.235,0,0,0,4.289-5.97,42.851,42.851,0,0,0,4.978-16.59c.631-6.437-1.8-27.66-4.518-26.922-1.411.385-5.954,10.9-7.167,14.375a100.064,100.064,0,0,0-4.281,17.623C417.866,354.41,418.046,368.942,419.121,383.186Z" transform="translate(-418.348 -308.247)" fill="#adce32"/>
                <g id="Grupo_93224" data-name="Grupo 93224" transform="translate(0.677 3.708)">
                  <path id="Trazado_125440" data-name="Trazado 125440" d="M419.228,358.053l.025-.025c.328-7.61,2.042-15.294,3.649-22.674,1.73-7.954,3.748-15.442,7.84-22.527.074-.131.271-.016.2.115a83.424,83.424,0,0,0-6.3,17.295c.271-.426.607-.836.894-1.238.115-.156.377-.008.262.156a11.207,11.207,0,0,1-1.279,1.8c-.016.016-.033.016-.049.025-1.41,5.683-2.419,11.5-3.288,17.295.066-.074.131-.156.189-.221.041-.049.115.016.09.066-.107.189-.23.385-.344.574-.435,2.944-.836,5.88-1.246,8.791,5.24-4.477,9.718-9.759,12.243-16.262.008-.033.057-.016.049.016-2.477,6.749-6.372,12.744-12.375,16.844-.107.787-.221,1.566-.328,2.354-.025.164-.279.123-.279-.041,0-.7.033-1.386.066-2.083C419.171,358.242,419.138,358.127,419.228,358.053Z" transform="translate(-419.174 -312.769)" fill="#263238"/>
                  <path id="Trazado_125441" data-name="Trazado 125441" d="M422.246,350.5a121.547,121.547,0,0,0,10.677-18.386c.033-.074.156-.025.131.057a59.688,59.688,0,0,1-10.6,18.492C422.352,350.76,422.164,350.621,422.246,350.5Z" transform="translate(-419.723 -316.244)" fill="#263238"/>
                  <path id="Trazado_125442" data-name="Trazado 125442" d="M428.736,328.385c1.656-2.936,3.411-5.79,4.97-8.783.041-.082.156-.008.123.074a45.984,45.984,0,0,1-4.838,8.865C428.883,328.68,428.645,328.549,428.736,328.385Z" transform="translate(-420.891 -313.992)" fill="#263238"/>
                  <path id="Trazado_125443" data-name="Trazado 125443" d="M427.945,331.87a.025.025,0,1,1,0,.049C427.912,331.927,427.912,331.87,427.945,331.87Z" transform="translate(-420.748 -316.206)" fill="#263238"/>
                </g>
              </g>
              <g id="Grupo_93227" data-name="Grupo 93227" transform="translate(7.794 9.076)">
                <path id="Trazado_125444" data-name="Trazado 125444" d="M410.645,367.784a61.792,61.792,0,0,1-1.4,11.85c.066.426.123.853.189,1.3a56.434,56.434,0,0,0,2.116-13.211.4.4,0,0,0,.016-.41v-.016a87.371,87.371,0,0,0-1.328-17.894c-1.861-11.054-5.929-21.658-13.637-29.948a.554.554,0,0,0-.853.172c-3.108,7.905-2.026,17.344.623,25.241a46.471,46.471,0,0,0,6.109,11.989C405.126,360.576,408.5,363.717,410.645,367.784Z" transform="translate(-393.851 -319.315)" fill="#adce32"/>
                <g id="Grupo_93226" data-name="Grupo 93226" transform="translate(3.349 3.764)">
                  <path id="Trazado_125445" data-name="Trazado 125445" d="M398.243,323.983c7.307,11.858,12.391,25.914,13.014,39.92.008.246-.41.312-.443.057-.172-1.255-.369-2.509-.566-3.748-.008,0-.008,0-.016-.008-3.026-2.895-6.126-5.945-8.291-9.57-.041-.066.057-.139.107-.082a101.886,101.886,0,0,0,8.053,8.766c-.525-3.1-1.14-6.142-1.878-9.144-.2-.221-.385-.451-.574-.681-.123-.148.082-.369.213-.213l.172.2a104.53,104.53,0,0,0-3.821-12.129c-1.862-2.222-3.936-4.133-5.3-6.806a.057.057,0,0,1,.1-.057c1.091,1.525,2.14,3.067,3.379,4.486.492.566,1.033,1.091,1.542,1.648a93.65,93.65,0,0,0-5.978-12.465C397.857,323.966,398.136,323.8,398.243,323.983Z" transform="translate(-397.935 -323.905)" fill="#263238"/>
                  <path id="Trazado_125446" data-name="Trazado 125446" d="M400.071,341.831c2.362,3.182,5.052,6.208,7.249,9.5.066.09-.074.189-.156.115a48.641,48.641,0,0,1-7.257-9.521C399.85,341.822,400.006,341.732,400.071,341.831Z" transform="translate(-398.288 -327.123)" fill="#263238"/>
                  <path id="Trazado_125447" data-name="Trazado 125447" d="M409.321,354.306l.1.1c.074.074-.041.18-.107.107l-.1-.1C409.141,354.346,409.256,354.24,409.321,354.306Z" transform="translate(-399.96 -329.372)" fill="#263238"/>
                </g>
              </g>
              <g id="Grupo_93229" data-name="Grupo 93229" transform="translate(0 35.005)">
                <path id="Trazado_125448" data-name="Trazado 125448" d="M384.349,351.644a36.46,36.46,0,0,0,7.708,18.09,19.184,19.184,0,0,0,6.249,4.879c2.706,1.337,5.544,2.887,8.34,3.985a54.465,54.465,0,0,1,2.952,10.5c.09-.3.18-.623.271-.927-1.8-15.442-11.792-28.644-24.577-37.116A.6.6,0,0,0,384.349,351.644Z" transform="translate(-384.346 -350.934)" fill="#8aa428"/>
                <g id="Grupo_93228" data-name="Grupo 93228" transform="translate(4.392 5.082)">
                  <path id="Trazado_125449" data-name="Trazado 125449" d="M389.733,357.319c-.09-.082.033-.238.131-.172a52.3,52.3,0,0,1,16.286,20.075c.09.213-.2.394-.32.189-.59-1.041-1.2-2.05-1.812-3.051h-.008c-2.919-.549-5.683-2.6-7.848-4.551-.057-.049.025-.139.09-.09a17.71,17.71,0,0,0,3.69,2.591c1.189.607,2.468.984,3.707,1.468-1.082-1.714-2.206-3.362-3.387-4.961a33.908,33.908,0,0,1-8.766-4.928c-.082-.057-.008-.2.082-.139a87.5,87.5,0,0,0,8.151,4.354,72.74,72.74,0,0,0-5.757-6.708c-.992-.525-2-1.05-2.96-1.607a.081.081,0,0,1,.066-.148,10.788,10.788,0,0,1,2.272,1.115C392.193,359.6,391,358.442,389.733,357.319Z" transform="translate(-389.702 -357.131)" fill="#263238"/>
                  <path id="Trazado_125450" data-name="Trazado 125450" d="M390.043,363.857a3.568,3.568,0,0,1,.492.353c.049.041-.016.1-.066.082a3.956,3.956,0,0,1-.517-.287C389.871,363.947,389.953,363.8,390.043,363.857Z" transform="translate(-389.741 -358.339)" fill="#263238"/>
                </g>
              </g>
            </g>
            <g id="Grupo_93232" data-name="Grupo 93232" transform="translate(10.451 62.745)">
              <g id="Grupo_93231" data-name="Grupo 93231" transform="translate(0 4.92)">
                <path id="Trazado_125451" data-name="Trazado 125451" d="M432.123,429.7H397.09l2.829-31.9.623-7.036h28.136l.615,7.036Z" transform="translate(-397.09 -390.76)" fill="#455a64"/>
                <path id="Trazado_125452" data-name="Trazado 125452" d="M429.914,397.8H400.54l.623-7.036H429.3Z" transform="translate(-397.711 -390.76)" fill="#263238"/>
              </g>
              <rect id="Rectángulo_35026" data-name="Rectángulo 35026" width="31.482" height="6.962" transform="translate(1.78)" fill="#455a64"/>
            </g>
          </g>
        </g>
        <g id="Speech_Bubble" transform="translate(231.138 33.744)">
          <g id="Grupo_93238" data-name="Grupo 93238">
            <g id="Grupo_93234" data-name="Grupo 93234" transform="translate(15.18 73.293)">
              <path id="Trazado_125453" data-name="Trazado 125453" d="M352.164,131.956a8.6,8.6,0,1,1-9.308-7.823A8.6,8.6,0,0,1,352.164,131.956Z" transform="translate(-334.625 -123.922)" fill="#fff"/>
              <path id="Trazado_125454" data-name="Trazado 125454" d="M352.081,131.917c.738,7.651-8.356,12.481-14.326,7.585a8.893,8.893,0,0,1-1.091-12.6c5.035-5.855,14.835-2.649,15.417,5.019Zm0,0a8.393,8.393,0,1,0-13.875,7.052,8.413,8.413,0,0,0,13.875-7.052Z" transform="translate(-334.542 -123.883)" fill="#263238"/>
            </g>
            <g id="Grupo_93235" data-name="Grupo 93235" transform="translate(0 85.696)">
              <path id="Trazado_125455" data-name="Trazado 125455" d="M326.053,143.6a4.787,4.787,0,1,1-5.183-4.354A4.788,4.788,0,0,1,326.053,143.6Z" transform="translate(-316.115 -139.047)" fill="#fff"/>
              <path id="Trazado_125456" data-name="Trazado 125456" d="M325.969,143.561a4.991,4.991,0,1,1-8.693-2.895,5.01,5.01,0,0,1,8.693,2.895Zm0,0c-.722-6.044-9.463-5.24-9.127.787.705,6,9.455,5.289,9.127-.787Z" transform="translate(-316.031 -139.008)" fill="#263238"/>
            </g>
            <g id="Grupo_93237" data-name="Grupo 93237" transform="translate(14.976)">
              <g id="Grupo_93236" data-name="Grupo 93236">
                <path id="Trazado_125457" data-name="Trazado 125457" d="M427.2,79.009a25.108,25.108,0,0,1-34.68,26.16,21.061,21.061,0,0,1-33.5-.074,16.717,16.717,0,0,1-2.821.59,17.073,17.073,0,0,1-16.04-26.758,25.1,25.1,0,0,1,33.794-36.312,21.068,21.068,0,0,1,36.164,5.74,13.3,13.3,0,0,1,2.7-.607A13.775,13.775,0,0,1,424.655,70.7,24.286,24.286,0,0,1,427.2,79.009Z" transform="translate(-334.377 -34.543)" fill="#fff"/>
                <path id="Trazado_125458" data-name="Trazado 125458" d="M427.112,78.973a25.2,25.2,0,0,1-34.737,26.291l.172-.049a21.268,21.268,0,0,1-33.819-.008l.279.09a16.108,16.108,0,0,1-3.953.689c-14.441.9-23.576-15.45-15.286-27.316l.008.443C327.394,63.588,337.21,40.274,356.924,38.1a25.323,25.323,0,0,1,17.082,4.256l-.336.049c10.242-12.785,30.736-9.5,36.476,5.855l-.156-.074a12.335,12.335,0,0,1,3.354-.648,13.845,13.845,0,0,1,11.251,23.134,23.832,23.832,0,0,1,2.518,8.3Zm0,0a24.468,24.468,0,0,0-2.567-8.315,13.708,13.708,0,0,0-14.589-22.191c-5.634-15.105-25.848-18.41-35.894-5.74l-.148.18-.189-.131A24.691,24.691,0,0,0,357,38.708c-19.156,2.214-28.513,24.807-16.631,39.953l.172.221-.156.23c-8.036,11.391.722,27.16,14.646,26.356a15.4,15.4,0,0,0,4-.7,20.864,20.864,0,0,0,33.286.279l.074-.09.107.041a25.052,25.052,0,0,0,34.614-26.028Z" transform="translate(-334.292 -34.507)" fill="#263238"/>
              </g>
            </g>
          </g>
        </g>
        <g id="Symbol" transform="translate(281.083 52.96)">
          <g id="Grupo_93240" data-name="Grupo 93240">
            <g id="Grupo_93239" data-name="Grupo 93239">
              <path id="Trazado_125459" data-name="Trazado 125459" d="M392.661,82.171l-.2,3.469a2.561,2.561,0,0,1-2.764,2.468,2.628,2.628,0,0,1-2.468-2.755l.312-5.544c0-.049.057-.049.057-.107-.049-.057-.049-.057-.049-.107a2.7,2.7,0,0,1,2.755-2.468,5.98,5.98,0,1,0,.672-11.94,5.9,5.9,0,0,0-5.281,2.641,2.636,2.636,0,0,1-3.682.754,2.605,2.605,0,0,1-.705-3.625,11.224,11.224,0,1,1,11.349,17.213Zm-.656,11.678-.057.959a2.561,2.561,0,0,1-2.764,2.468,2.631,2.631,0,0,1-2.468-2.764l.057-.959a2.661,2.661,0,0,1,2.755-2.468A2.6,2.6,0,0,1,392.005,93.849Z" transform="translate(-380.863 -59.939)" fill="#ffc107"/>
            </g>
          </g>
        </g>
      </g>
      <path id="Trazado_125461" data-name="Trazado 125461" d="M14.174.294A7.085,7.085,0,0,1,23.237,6.8a11.6,11.6,0,0,1-1.511,6.365c-2.889,5.118-5.866,10.207-8.843,15.281A9.077,9.077,0,0,1,11.5,30.166C9.158,32.63,6.269,33.2,3.527,31.794A6.8,6.8,0,0,1,.345,23.611a21.377,21.377,0,0,1,1.877-3.974c2.86-5.133,6.247-9.972,8.2-15.6A6.329,6.329,0,0,1,14.174.294Z" transform="translate(1300.734 872.046) rotate(13)" fill="none" stroke="#ffc107" stroke-width="3"/>
      <path id="Trazado_125462" data-name="Trazado 125462" d="M.3,26.385a10.433,10.433,0,0,1-.293-2.376q.528-8.051,1.247-16.1A9.927,9.927,0,0,1,3.484,2.539,6.174,6.174,0,0,1,10.01.193a5.838,5.838,0,0,1,4.444,4.444,9.741,9.741,0,0,1,.4,2.889Q14.233,16.3,13.47,25.079a8.219,8.219,0,0,1-.528,2.126,6.61,6.61,0,0,1-6.775,4.561C3.366,31.605,1.328,29.875.3,26.385Z" transform="translate(1289.15 857.618) rotate(13)" fill="none" stroke="#ffc107" stroke-width="3"/>
    </g>
    <g id="formas_decoracion" data-name="formas decoracion" transform="translate(813.281 593.27) rotate(-51)">
      <path id="Trazado_123280" data-name="Trazado 123280" d="M356.308,325.8c-1.919,0-3.837.016-5.756,0a11.7,11.7,0,0,1-2.092-.142,3.392,3.392,0,0,1-2.815-4.262,21.5,21.5,0,0,1,1.022-3.24c3.46-8.87,7.234-17.614,11.543-26.091.629-1.242,1.352-2.453,2.06-3.649a12.335,12.335,0,0,1,1.069-1.494c1.9-2.233,4.23-2.328,6.338-.236a13.912,13.912,0,0,1,2.485,3.68,70.417,70.417,0,0,1,3.727,8.933c1.777,5.111,3.46,10.254,4.812,15.507a13.849,13.849,0,0,1,.5,3.1,4.96,4.96,0,0,1-3.46,5.284,23.986,23.986,0,0,1-5.347,1.227A120.728,120.728,0,0,1,356.308,325.8Zm1.007-4.278a106.966,106.966,0,0,0,14.343-1.573c3.539-.6,3.853-1.069,2.909-4.514-1.022-3.711-2.155-7.376-3.3-11.056a81.434,81.434,0,0,0-4.388-11.512,28.586,28.586,0,0,0-1.73-2.925.61.61,0,0,0-1.069.063c-.928,1.573-1.9,3.145-2.736,4.781-3.9,7.738-7.36,15.664-10.6,23.7-.157.409-.33.8-.456,1.227-.409,1.368-.126,1.793,1.258,1.809C353.462,321.539,355.381,321.523,357.315,321.523Z" transform="translate(-206.129 -22.397)" fill="#adce32"/>
    </g>
  </g>
</svg>
