<svg xmlns="http://www.w3.org/2000/svg" xmlns:xlink="http://www.w3.org/1999/xlink" width="246.723" height="388.579" viewBox="0 0 246.723 388.579">
  <defs>
    <clipPath id="clip-path">
      <path id="Trazado_123057" data-name="Trazado 123057" d="M601.83,568.455l161.9.817L765.7,251.709S754.63,187.29,686.013,187.29,603.8,249.666,603.8,249.666L601.83,568.455Z" transform="translate(-601.83 -187.29)" fill="#e2c5ba"/>
    </clipPath>
    <clipPath id="clip-path-2">
      <path id="Trazado_123064" data-name="Trazado 123064" d="M645.961,384.131c1.393,9.9,2.879,10.959,3.046,20.972-9.622.26-19.393.8-28.922-.464a.558.558,0,0,1-.2-1.04c4.811-2.619,7.95-7.913,9.1-13.337,1.282-6.056-.093-4.458-1.04-10.569a1.516,1.516,0,0,1,.149-1.245,1.614,1.614,0,0,1,1.337-.427h15.213l1.282,6.13Z" transform="translate(-619.597 -378.02)" fill="#c23f37"/>
    </clipPath>
    <clipPath id="clip-path-3">
      <path id="Trazado_123071" data-name="Trazado 123071" d="M673.461,384.131c1.393,9.9,2.879,10.959,3.046,20.972-9.622.26-19.393.8-28.922-.464a.558.558,0,0,1-.2-1.04c4.811-2.619,7.95-7.913,9.1-13.337,1.282-6.056-.093-4.458-1.04-10.569a1.515,1.515,0,0,1,.149-1.245,1.614,1.614,0,0,1,1.337-.427h15.213l1.282,6.13Z" transform="translate(-647.097 -378.02)" fill="#c23f37"/>
    </clipPath>
  </defs>
  <g id="Grupo_1004317" data-name="Grupo 1004317" transform="translate(10152.722 2767.764)">
    <g id="Grupo_1004311" data-name="Grupo 1004311" transform="translate(-10152.722 -2767.764)">
      <path id="Trazado_123040" data-name="Trazado 123040" d="M651.16,375.1c.966,4.458,2.043,8.9,3.269,13.281a2.2,2.2,0,0,0,.5,1.022,2.078,2.078,0,0,0,1.1.409,41.09,41.09,0,0,0,9.548.483,1.649,1.649,0,0,0,1.04-.316,1.74,1.74,0,0,0,.353-1.3c-.037-6.761-.056-13.523-.093-20.284a25.036,25.036,0,0,1-10.328,1.356l-5.387,5.313Z" transform="translate(-489.309 -29.592)" fill="#cb7748"/>
      <path id="Trazado_123041" data-name="Trazado 123041" d="M767.473,573.831l-166.843-.836,1.988-321.52.056-.26A89.647,89.647,0,0,1,618.5,219.042a80.3,80.3,0,0,1,25.838-22.123c12.446-6.669,26.9-10.049,42.965-10.049s30.426,3.492,42.63,10.384a76.669,76.669,0,0,1,24.984,22.866,89.671,89.671,0,0,1,14.526,33.213l.037.223v.223l-1.988,320.034ZM605.59,568.072l156.961.78,1.95-314.87a87.229,87.229,0,0,0-13.764-31.169c-14.563-20.581-35.906-31-63.453-31s-49.373,10.124-64.754,30.073a86.906,86.906,0,0,0-14.972,30.129l-1.95,316.04Z" transform="translate(-532.64 -185.251)" fill="#fff"/>
      <g id="Grupo_86564" data-name="Grupo 86564" transform="translate(70.219 2.399)">
        <path id="Trazado_123042" data-name="Trazado 123042" d="M601.83,568.455l161.9.817L765.7,251.709S754.63,187.29,686.013,187.29,603.8,249.666,603.8,249.666L601.83,568.455Z" transform="translate(-601.83 -187.29)" fill="#e2c5ba"/>
        <g id="Grupo_86563" data-name="Grupo 86563" clip-path="url(#clip-path)">
          <path id="Trazado_123043" data-name="Trazado 123043" d="M768.573,343.195c-2.192-2.638-6.2-2.341-9.548-3.121-4.291-1-8.415-4.161-12.687-3.009a13.366,13.366,0,0,0-3.325,1.6c-2.526,1.5-5.034,3.009-7.56,4.514a.409.409,0,0,0-.149.019c-1.375.223-2.638.446-3.9.724a28.625,28.625,0,0,0,6.929-7.263,17.585,17.585,0,0,0,11.647-2.508c1.783-1.115,3.362-2.582,5.313-3.381,3.232-1.337,7.449-.892,9.678-3.585,1.728-2.08,1.43-5.127,1.059-7.8-.279-1.932-.557-3.882-.836-5.814a3.58,3.58,0,0,0-.557-1.69,3.127,3.127,0,0,0-2.136-.947,13.443,13.443,0,0,0-10.477,3.251c-2.34,2.08-3.938,5-6.52,6.8-2.415,1.69-5.573,2.322-7.467,4.57-2.582,3.028-1.783,7.56-.854,11.424l.372-.427c-3.9,4.124-8.879,7.189-13.969,9.752-5.907,2.972-12.074,5.387-17.814,8.656l.13-8.043a37,37,0,0,0,10.625-9.771l.371-.372c-.279.5.39.984.929,1.189,2.675.984,5.5,1.895,8.322,1.467,2.823-.409,5.573-2.545,5.758-5.387a3.191,3.191,0,0,0-.167-1.319c-.539-1.486-2.34-2.1-3.919-2.192a12.287,12.287,0,0,0-9.028,3.381,80.117,80.117,0,0,0,6.167-11.888c.111-.242.2-.5.3-.762a4.536,4.536,0,0,0,1.43-.5A25.825,25.825,0,0,0,733,316.8a8.576,8.576,0,0,0,2.972-6.594c-.074-1.189-.483-2.322-.5-3.511-.056-3.566,3.325-6.891,2.192-10.272a5.862,5.862,0,0,0-2.879-3.1c-.167-.093-.334-.167-.5-.241.632-1.6,1-3.306,1.728-4.867.966-2.08,2.545-3.882,3.306-6.056a14.33,14.33,0,0,0,.483-6.093c-.2-2.3-.892-4.978-3.046-5.833-2.006-.8-4.291.5-5.628,2.173-1.356,1.69-2.136,3.771-3.492,5.443a26.418,26.418,0,0,1-3.659,3.381c.539-1.672,1.077-3.325,1.616-5,.446-1.393.854-3.028-.037-4.179a4.688,4.688,0,0,0-1.69-1.17c-1.337-.632-2.656-1.282-3.994-1.913a3.69,3.69,0,0,0-4.755.427,27.844,27.844,0,0,0-6.316,5.758,11.773,11.773,0,0,0-2.526,8.006,22.042,22.042,0,0,0,.892,3.789,23.344,23.344,0,0,1,.892,4.7c-.353-.613-.724-1.226-1.077-1.82-1.43-2.359-3.325-5-5.926-5.443a25.989,25.989,0,0,1-.817-2.768,10.379,10.379,0,0,0,.149-2.731,5.707,5.707,0,0,0,4.7-2.433c1.449-2.006,2.062-4.514,3.566-6.483a35.572,35.572,0,0,1,2.842-2.953,16.619,16.619,0,0,0,4.291-13.987c-.409-2.489-1.746-5.183-4.217-5.777-2.248-.539-4.5.892-6.056,2.6a16.031,16.031,0,0,0-1.932,2.638c-.093-1.653-.2-3.325-.334-4.978-.409-5.127-.966-10.346-2.954-15.083a8.853,8.853,0,0,0-2.248-3.418,6.36,6.36,0,0,0-6.316-.8,9.72,9.72,0,0,0-4.755,4.5c-3.177,5.758-1.839,12.836-.427,19.263a36.12,36.12,0,0,0,2.916,9.232c.334.632.706,1.245,1.077,1.858a35.805,35.805,0,0,0-4.068-1.319,2.562,2.562,0,0,0-1.579-.074,2.279,2.279,0,0,0-.836.687,10.171,10.171,0,0,0-1.245,1.82c-1.43-2.025-2.9-3.994-4.421-5.944-1.653-2.118-3.678-4.384-6.353-4.57a6.788,6.788,0,0,0-5.535,2.8,20.371,20.371,0,0,0-2.823,5.777,7.764,7.764,0,0,0-.669,3.9c.52,2.842,3.827,4.049,5.963,6.018,1.727,1.6,2.73,3.827,3.845,5.907.26.483.52.966.8,1.43-.056-.056-.093-.111-.149-.167-.984-.984-2.248-1.95-3.641-1.765a3.979,3.979,0,0,0-2.712,2.266,8.708,8.708,0,0,0-.539,6.817c1,2.916,3.6,5.461,3.251,8.526a15.5,15.5,0,0,1-.316,1.56,6.384,6.384,0,0,0-2.768-1.207,6.738,6.738,0,0,0-2.786.2,5.881,5.881,0,0,0-2.471,1.189c-1.727,1.5-1.858,4.272-.854,6.334a12.685,12.685,0,0,0,4.83,4.774,7.627,7.627,0,0,1,2.73,2.415c.613,1.1.594,2.415,1.04,3.585a5.787,5.787,0,0,0,5.2,3.474,8.374,8.374,0,0,0,5.944-2.526c.613-.594,1.17-1.245,1.8-1.8a4.348,4.348,0,0,1-.223.91,2.285,2.285,0,0,0,.78.483c2.953,8.452,9.343,15.6,15.492,22.29,1.337,1.467,2.693,2.916,4.031,4.384,0,3.344-.037,6.929-.074,10.7a144.294,144.294,0,0,1-15.752-15.678c.037-.984,1.412-1.8,1.765-2.861.446-1.337-.873-2.638-2.21-3.1s-2.842-.52-3.994-1.319c-1.913-1.337-2.1-4.18-3.752-5.833-1.077-1.059-2.6-1.467-3.882-2.266-2.006-1.226-3.474-3.381-5.721-4.049a5.089,5.089,0,0,0-5.8,2.452c-1.3,2.489-.279,5.5.743,8.117.576,1.486,1.17,2.972,1.746,4.458a6.3,6.3,0,0,1-1.393.836c-1.82.78-4.031.353-5.74,1.356-1.672.984-2.378,3.065-2.489,5.015a6.688,6.688,0,0,0,1.022,4.384,5.584,5.584,0,0,0,4.514,2.1,10.016,10.016,0,0,0,4.885-1.486c2.229-1.282,4.532-3.158,7.04-2.638a14.509,14.509,0,0,1,2.4.929,8.283,8.283,0,0,0,7.133-.409,7.24,7.24,0,0,0,3.195-3.919,47.91,47.91,0,0,0,16.328,16.291c-.241,20.86-.817,46.327-.854,63.973a75.3,75.3,0,0,0-10.439.111,47.758,47.758,0,0,0-.557-6.316,10.684,10.684,0,0,0-1.653-4.551c-2.006-2.712-6.093-3.306-9.158-1.913a12.562,12.562,0,0,0-6.241,7.616.2.2,0,0,0-.093.316,35.619,35.619,0,0,0-1.282,8.99.932.932,0,0,0-.167.65,3.514,3.514,0,0,0-1.746,1.765,9.056,9.056,0,0,0-.52,3.529l-.26,31.411c-.037,3.474-.056,6.947.223,10.4a4.945,4.945,0,0,0,.5,2.136,5.123,5.123,0,0,0,1.412,1.486c1.077.854,2.173,1.672,3.306,2.433.037,4.142,2.285,7.486,5.071,7.486h5.164l-6.409,51.194c-.223,1.728.539,3.381,1.709,3.715l1.467.409c1.152.316,2.266-.817,2.489-2.545l3.269-26.135H722.71l3.269,26.135c.223,1.727,1.337,2.861,2.489,2.545l1.467-.409c1.152-.316,1.913-1.988,1.709-3.715l-6.409-51.194h7.226c2.8,0,5.071-3.381,5.071-7.56h-1.542c.464-4.514,2.991-42.779,1.059-53.311a15.442,15.442,0,0,0-2.173-6.278c-2.786-3.827-10.328-4.718-14.377-2.248a18.075,18.075,0,0,0-5.257,4.96,89,89,0,0,0-9.733-.947c-.2,0-.409,0-.613-.019l.985-61.893c9.529-3.641,17.684-11.424,27.863-11.963.186,0,.39-.019.594-.037a.15.15,0,0,0,.186.149c.334,0,.65-.037.984-.056a4.476,4.476,0,0,0,1.3,1.133c2.155,1.245,4.328,2.489,6.483,3.734,4.068,2.341,8.953,4.755,13.263,2.879,1.263-.539,2.4-1.449,3.771-1.616,1.616-.2,3.139.669,4.681,1.189,1.542.539,3.548.594,4.5-.743a4.116,4.116,0,0,0,.576-2.155c.13-2.043-.074-4.272-1.393-5.833Zm-82.27-7.133a1.4,1.4,0,0,1-.13-.149V335.8c-.093,0-.111,0-.13-.037,0-.13.019-.242.019-.372Zm-.464,76.177a19.5,19.5,0,0,1,.892,6.706q-4.765.892-9.529,1.8a26.878,26.878,0,0,1,1.375-7.56,7.667,7.667,0,0,1,1.69-3.1,3.221,3.221,0,0,1,3.251-.91c1.263.446,1.913,1.82,2.322,3.083Zm2.248,92.468,2.6-20.823a55.28,55.28,0,0,0,10.291,1.95,56.336,56.336,0,0,0,18.408-1.393l2.545,20.284H688.1ZM728.618,419.3c2.229.2,2.693,2.3,2.86,4.087a3.634,3.634,0,0,0,.037.427c-.446-.2-.91-.39-1.356-.557-2.341-.873-4.681-1.616-7.059-2.248a7.115,7.115,0,0,1,2.192-1.542,19.967,19.967,0,0,1,3.344-.167Zm-15.993-109.78v.111c-.074-.167-.13-.316-.223-.483-.111-.2-.223-.39-.353-.594.167.074.334.111.5.167.019.26.037.539.056.8Zm10.365-8.972a17.91,17.91,0,0,0,2.155-.65c-.52,1.765-.353,3.7-.91,5.461a10.075,10.075,0,0,1-1.1,2.248c-.167-.5-.316-1.022-.483-1.523-.241-.743-.483-1.486-.78-2.21a20.424,20.424,0,0,0,.594-3.381c.111-.019.2-.037.316-.056a.187.187,0,0,0,.2.111Zm-12.613,5.108a.451.451,0,0,1-.111-.186C710.3,305.524,710.34,305.6,710.377,305.654Zm11.628-4.4c-.056.39-.111.78-.186,1.152-.056.3-.13.613-.2.91-.074-.167-.167-.334-.26-.5a11.429,11.429,0,0,0,.632-1.56Zm-16.049,43.262.167-10.755a7.067,7.067,0,0,0,4.012-4.347c.929-2.731.687-5.721,1.208-8.563.446-2.452,1.449-4.978,1.709-7.411a6.218,6.218,0,0,0,.817,1.95c1.1,1.69,3.046,2.582,4.755,3.659a19.284,19.284,0,0,1,4.087,3.474,54.313,54.313,0,0,1-16.774,21.993ZM681.6,310.335s.019.093.037.149c-.687-.687-1.43-1.375-2.062-2.1.186-.186.353-.39.52-.594l1.523,2.563Zm3.344,4.161a6.313,6.313,0,0,0,2.526-1.895,16.259,16.259,0,0,0,1.486-1.895c.966.947,1.69,2.155,2.861,2.823a3.653,3.653,0,0,0,1.208.446c-.483,1.635-1.56,3.1-2.006,4.774a10.1,10.1,0,0,0,.966,6.929,46.676,46.676,0,0,1-7.3-11.108,1.834,1.834,0,0,0,.3-.093Zm9.734,14.1v.111c-.019-.019-.037-.056-.074-.074A.141.141,0,0,0,694.681,328.594Zm5.052-9.715a.27.27,0,0,0-.093.056,2.83,2.83,0,0,0-.223.241,15.873,15.873,0,0,0-.223-2.3,25.323,25.323,0,0,0-1.077-4.2c.316-.2.632-.409.91-.632a10.5,10.5,0,0,0,1.356-1.207c1,1.746,1.672,3.492,1.059,5.368a8.3,8.3,0,0,1-1.727,2.712Zm.65-35.312c.074.242.167.483.26.724a4.179,4.179,0,0,0-.483,0,1.81,1.81,0,0,0-.446.037c.093-.613.241-1.245.353-1.858.093.372.2.743.316,1.115Zm-17.758,6.891a4.554,4.554,0,0,0-.149.724,1.474,1.474,0,0,1-.037.316,7.432,7.432,0,0,0-1.077,1.319,56.082,56.082,0,0,0-2.9-6.576,47.163,47.163,0,0,0,4.161,4.235Zm12.39,38.618c0-.223.019-.427.037-.65a7.419,7.419,0,0,0,2.768-2.6,2.518,2.518,0,0,0,1.523,1.467.168.168,0,0,0,.186-.056c.539.39,1.1.743,1.616,1.1a13.163,13.163,0,0,1,1.059.8c.037,2.1.056,4.421.074,6.966-2.47-2.266-4.922-4.569-7.263-7Z" transform="translate(-555.644 -152.612)" fill="#cea69d"/>
          <path id="Trazado_123044" data-name="Trazado 123044" d="M692.6,265.872c-1.375-3.418-4.012-6.576-7.69-7.6a8.508,8.508,0,0,0-9.344,3.121c-2.173,3.269-1.393,7.579-.334,11.089a35.532,35.532,0,0,0,4.44,10.049,15.32,15.32,0,0,0,4.217,4.254c1.579,1.04,4.049,2.21,5.8.854a.647.647,0,0,0,.223-.854.629.629,0,0,0-.854-.223c-1.375,1.059-3.325-.056-4.551-.854a13.41,13.41,0,0,1-3.344-3.214,31.006,31.006,0,0,1-4.291-8.935c-1.04-3.121-2.1-6.761-1-10.012a6.884,6.884,0,0,1,7.5-4.347c3.789.446,6.669,3.6,8.025,6.984.3.724,1.486.409,1.189-.334h0Z" transform="translate(-539.784 -126.706)" fill="#b28780"/>
          <path id="Trazado_123045" data-name="Trazado 123045" d="M685,264.416c1.412,5.015,3.083,11.554-.52,16.068-.483.613.372,1.5.873.873,3.938-4.941,2.4-11.721.836-17.275a.618.618,0,0,0-1.189.334h0Z" transform="translate(-531.081 -121.813)" fill="#b28780"/>
          <path id="Trazado_123046" data-name="Trazado 123046" d="M689.44,266.489c-.873-4.254-1.783-8.6-3.938-12.408a15.878,15.878,0,0,0-8.006-7.337,6.34,6.34,0,0,0-5.777.3,6.918,6.918,0,0,0-2.8,4.384,16.056,16.056,0,0,0,.427,6.706,33.689,33.689,0,0,0,1.765,6c1.653,3.845,5.09,7.43,9.566,7.282a.623.623,0,0,0,0-1.245c-3.566.111-6.427-2.545-7.969-5.535a32.279,32.279,0,0,1-2.749-11.331,6.676,6.676,0,0,1,1.783-4.681,4.782,4.782,0,0,1,5.015-.836,14.18,14.18,0,0,1,7.467,6.52c2.266,3.808,3.158,8.247,4.049,12.538.167.78,1.356.446,1.189-.334h0Z" transform="translate(-544.478 -136.778)" fill="#b28780"/>
          <path id="Trazado_123047" data-name="Trazado 123047" d="M662.843,251.115c2.545,6.278,5.7,13.43,12.817,15.473a10.494,10.494,0,0,0,5.517.13.618.618,0,0,0-.334-1.189,10.572,10.572,0,0,1-8.619-1.969,19.469,19.469,0,0,1-5.888-7.523c-.854-1.709-1.579-3.474-2.285-5.238-.3-.724-1.486-.409-1.189.334h0Z" transform="translate(-549.534 -133.18)" fill="#b28780"/>
          <path id="Trazado_123048" data-name="Trazado 123048" d="M677.979,263.158c-.427-2.526-3.566-2.972-5.554-2.1-3.046,1.356-3.046,5.331-2.638,8.117.91,6.334,2.972,13.969,9.325,16.848,3.046,1.393,6.761,1.579,9.566-.464.632-.464.019-1.542-.632-1.059a8,8,0,0,1-7.374.836,11.775,11.775,0,0,1-6.223-5.22,26.844,26.844,0,0,1-3.028-8.656c-.52-2.6-1.393-6.186.446-8.47,1.133-1.412,4.532-1.765,4.9.5.13.78,1.319.446,1.189-.334h0Z" transform="translate(-543.717 -124.382)" fill="#b28780"/>
          <path id="Trazado_123049" data-name="Trazado 123049" d="M683.949,261.561c2.786,3.492,8.025,4.254,11.944,2.378a8.713,8.713,0,0,0,2.916-2.266c.5-.613-.372-1.486-.873-.873a8.742,8.742,0,0,1-13.114-.093c-.5-.613-1.375.26-.873.873h0Z" transform="translate(-531.539 -124.512)" fill="#b28780"/>
          <path id="Trazado_123050" data-name="Trazado 123050" d="M686.82,272.463a9.549,9.549,0,0,0,9.492,4.068c.78-.13.446-1.319-.334-1.189a8.251,8.251,0,0,1-8.1-3.511c-.446-.669-1.5-.037-1.059.632h0Z" transform="translate(-529.041 -115.037)" fill="#b28780"/>
          <path id="Trazado_123051" data-name="Trazado 123051" d="M681.353,274.53a14.953,14.953,0,0,0,.186,14.266c1.114,1.913,3.6,3.864,5.684,2.025a6.191,6.191,0,0,0,1.579-2.953,20.245,20.245,0,0,0,.78-3.938,20.65,20.65,0,0,0-1.189-9.195c-.279-.743-1.467-.427-1.189.334a19.734,19.734,0,0,1,1.245,7.04,18.86,18.86,0,0,1-.371,3.678,13.941,13.941,0,0,1-.947,3.139c-.409.836-1.115,1.635-2.136,1.393a4.009,4.009,0,0,1-2.285-1.988,12.926,12.926,0,0,1-1.8-6.13,13.732,13.732,0,0,1,1.523-7.021c.371-.706-.687-1.319-1.059-.632h0Z" transform="translate(-535.11 -112.72)" fill="#b28780"/>
          <path id="Trazado_123052" data-name="Trazado 123052" d="M667.059,293.951A14.283,14.283,0,0,1,661,286.093c-.854-2.731-1.245-6.78,1.115-8.916a4.016,4.016,0,0,1,4.662-.2,14.016,14.016,0,0,1,4.161,3.659,22.585,22.585,0,0,1,3.009,4.681,20.3,20.3,0,0,1,1.04,2.545,6.884,6.884,0,0,1,.52,3.1,4.171,4.171,0,0,1-3.529,3.269,6.346,6.346,0,0,1-5.368-2.192c-.557-.576-1.43.3-.873.873a7.888,7.888,0,0,0,5.387,2.6,5.724,5.724,0,0,0,4.792-2.378c1.3-1.839.817-4.049.111-6.018a23.627,23.627,0,0,0-2.953-5.684,20.314,20.314,0,0,0-4.347-4.662c-1.6-1.189-3.678-2.118-5.684-1.523-3.808,1.115-4.291,5.926-3.752,9.195a15.575,15.575,0,0,0,7.1,10.569c.687.427,1.3-.65.632-1.059h0Z" transform="translate(-552.709 -112.024)" fill="#b28780"/>
          <path id="Trazado_123053" data-name="Trazado 123053" d="M659.707,266.109c5.665-2.173,12.353-.26,16.439,4.124a11.528,11.528,0,0,1,3.4,8.266,4.706,4.706,0,0,1-1.932,3.789c-1.579,1-3.585.687-5.294.223a24.811,24.811,0,0,1-5.331-2.08,6.419,6.419,0,0,1-3.381-3.789.618.618,0,0,0-1.189.334c.966,3.6,4.848,5.145,8.025,6.26a11.765,11.765,0,0,0,6.018.836,5.172,5.172,0,0,0,3.882-3.381c1.208-3.232-.093-7-2.006-9.678a16.837,16.837,0,0,0-7.913-5.963,15.727,15.727,0,0,0-11.052-.111c-.743.279-.409,1.486.334,1.189h0Z" transform="translate(-552.843 -121.518)" fill="#b28780"/>
          <path id="Trazado_123054" data-name="Trazado 123054" d="M683.936,242.251a22.4,22.4,0,0,1-1.3,19.485,21.253,21.253,0,0,1-3.474,4.551.618.618,0,0,0,.873.873,23.7,23.7,0,0,0,6.557-19.708,21.919,21.919,0,0,0-1.6-5.833.625.625,0,0,0-.854-.223.647.647,0,0,0-.223.854h0Z" transform="translate(-535.668 -140.96)" fill="#b28780"/>
          <path id="Trazado_123055" data-name="Trazado 123055" d="M665.088,334.524a85.374,85.374,0,0,0,22.9,6.371,55.379,55.379,0,0,0,22.42-1.672,44.215,44.215,0,0,0,11.275-5.145c.669-.427.056-1.5-.632-1.059a45.546,45.546,0,0,1-20.451,6.854,64.25,64.25,0,0,1-22.718-2.21,97.642,97.642,0,0,1-12.446-4.328.633.633,0,0,0-.761.427.65.65,0,0,0,.427.762h0Z" transform="translate(-547.952 -62.414)" fill="#b28780"/>
          <path id="Trazado_123056" data-name="Trazado 123056" d="M665.028,361.225a92.245,92.245,0,0,0,21.752,6.13,47.769,47.769,0,0,0,20.749-1.467,34.783,34.783,0,0,0,10.179-5.052c.632-.464.019-1.542-.632-1.059a37.475,37.475,0,0,1-18.613,6.65,59.3,59.3,0,0,1-21.194-2.322,123.612,123.612,0,0,1-11.925-4.087c-.743-.3-1.059.91-.334,1.189h0Z" transform="translate(-548.003 -39.482)" fill="#b28780"/>
        </g>
      </g>
      <path id="Trazado_123058" data-name="Trazado 123058" d="M623.87,373.168q2.118,9.446,4.254,18.872a63.462,63.462,0,0,0,12.873.632q-.529-11.591-1.059-23.182l-16.068,3.678Z" transform="translate(-512.711 -28.649)" fill="#cb7748"/>
      <g id="Grupo_86566" data-name="Grupo 86566" transform="translate(103.222 356.686)">
        <path id="Trazado_123059" data-name="Trazado 123059" d="M645.961,384.131c1.393,9.9,2.879,10.959,3.046,20.972-9.622.26-19.393.8-28.922-.464a.558.558,0,0,1-.2-1.04c4.811-2.619,7.95-7.913,9.1-13.337,1.282-6.056-.093-4.458-1.04-10.569a1.516,1.516,0,0,1,.149-1.245,1.614,1.614,0,0,1,1.337-.427h15.213l1.282,6.13Z" transform="translate(-619.597 -378.02)" fill="#c23f37"/>
        <g id="Grupo_86565" data-name="Grupo 86565" clip-path="url(#clip-path-2)">
          <path id="Trazado_123060" data-name="Trazado 123060" d="M619.066,391.649l28.81.78,8.229.223a.465.465,0,0,0,0-.929l-28.81-.78-8.229-.223a.465.465,0,0,0,0,.929Z" transform="translate(-620.435 -367.129)" fill="#fff"/>
          <path id="Trazado_123061" data-name="Trazado 123061" d="M619.246,389.26a20.407,20.407,0,0,1,10.662,4.328c.464.372,1.115-.279.65-.65a21.61,21.61,0,0,0-11.312-4.607c-.594-.056-.594.873,0,.929h0Z" transform="translate(-620.28 -369.18)" fill="#fff"/>
          <path id="Trazado_123062" data-name="Trazado 123062" d="M639.267,386.564a8.077,8.077,0,0,0-6.483,8.155c.037.594.966.594.929,0a7.152,7.152,0,0,1,5.8-7.263c.594-.093.334-1-.241-.892Z" transform="translate(-608.297 -370.701)" fill="#fff"/>
          <path id="Trazado_123063" data-name="Trazado 123063" d="M625.207,392.6c1.43,1.746,4.5,1.1,5.5-.8,1.319-2.526-1.319-5.443-3.9-5.257a.457.457,0,0,0-.446.334,3.144,3.144,0,0,0,3.548,3.455,3.812,3.812,0,0,0,2.953-4.235A4.925,4.925,0,0,0,629,382.03c-.854-.13-1.895.334-1.616,1.375A3,3,0,0,0,629,385.188a3.756,3.756,0,0,0,4.811-1.263.462.462,0,0,0-.8-.464,2.69,2.69,0,0,1-2.842,1.133,2.72,2.72,0,0,1-1.393-.669,1.736,1.736,0,0,1-.464-.687c-.111-.372.3-.353.576-.316a4.083,4.083,0,0,1,2.991,2.8,3.04,3.04,0,0,1-1.449,3.455c-1.356.687-3.4-.464-3.158-2.1l-.446.334c1.895-.13,4.179,2.006,3.065,3.957a2.559,2.559,0,0,1-3.994.52c-.372-.464-1.04.2-.65.65h0Z" transform="translate(-614.855 -374.6)" fill="#fff"/>
        </g>
      </g>
      <path id="Trazado_123065" data-name="Trazado 123065" d="M651.37,373.168q2.118,9.446,4.254,18.872a63.461,63.461,0,0,0,12.873.632q-.53-11.591-1.059-23.182l-16.068,3.678Z" transform="translate(-489.129 -28.649)" fill="#cb7748"/>
      <g id="Grupo_86568" data-name="Grupo 86568" transform="translate(154.304 356.686)">
        <path id="Trazado_123066" data-name="Trazado 123066" d="M673.461,384.131c1.393,9.9,2.879,10.959,3.046,20.972-9.622.26-19.393.8-28.922-.464a.558.558,0,0,1-.2-1.04c4.811-2.619,7.95-7.913,9.1-13.337,1.282-6.056-.093-4.458-1.04-10.569a1.515,1.515,0,0,1,.149-1.245,1.614,1.614,0,0,1,1.337-.427h15.213l1.282,6.13Z" transform="translate(-647.097 -378.02)" fill="#c23f37"/>
        <g id="Grupo_86567" data-name="Grupo 86567" clip-path="url(#clip-path-3)">
          <path id="Trazado_123067" data-name="Trazado 123067" d="M646.566,391.649l28.81.78,8.229.223a.465.465,0,0,0,0-.929l-28.81-.78-8.229-.223a.465.465,0,0,0,0,.929Z" transform="translate(-647.935 -367.129)" fill="#fff"/>
          <path id="Trazado_123068" data-name="Trazado 123068" d="M646.746,389.26a20.407,20.407,0,0,1,10.662,4.328c.464.372,1.115-.279.65-.65a21.611,21.611,0,0,0-11.312-4.607c-.594-.056-.594.873,0,.929h0Z" transform="translate(-647.78 -369.18)" fill="#fff"/>
          <path id="Trazado_123069" data-name="Trazado 123069" d="M666.767,386.564a8.077,8.077,0,0,0-6.483,8.155c.037.594.966.594.929,0a7.152,7.152,0,0,1,5.8-7.263c.594-.093.334-1-.241-.892Z" transform="translate(-635.797 -370.701)" fill="#fff"/>
          <path id="Trazado_123070" data-name="Trazado 123070" d="M652.707,392.6c1.43,1.746,4.5,1.1,5.5-.8,1.319-2.526-1.319-5.443-3.9-5.257a.457.457,0,0,0-.446.334,3.144,3.144,0,0,0,3.548,3.455,3.812,3.812,0,0,0,2.954-4.235,4.925,4.925,0,0,0-3.864-4.068c-.854-.13-1.895.334-1.616,1.375a3,3,0,0,0,1.616,1.783,3.756,3.756,0,0,0,4.811-1.263.462.462,0,0,0-.8-.464,2.69,2.69,0,0,1-2.842,1.133,2.72,2.72,0,0,1-1.393-.669,1.737,1.737,0,0,1-.464-.687c-.111-.372.3-.353.576-.316a4.083,4.083,0,0,1,2.991,2.8,3.04,3.04,0,0,1-1.449,3.455c-1.356.687-3.4-.464-3.158-2.1l-.446.334c1.895-.13,4.179,2.006,3.065,3.957a2.559,2.559,0,0,1-3.994.52c-.371-.464-1.04.2-.65.65h0Z" transform="translate(-642.355 -374.6)" fill="#fff"/>
        </g>
      </g>
      <path id="Trazado_123072" data-name="Trazado 123072" d="M688.209,290.6q.836,13.04,1.653,26.061c1.1,17.145,2.173,34.327,5.015,51.268,1.932,11.572,4.681,56.209,8.192,67.41.669,2.118,1.3,4.625-.056,6.39-.817,1.059-2.47,1.022-3.474,1.913-8.935,7.876-19.244,3.009-28.68.892.687-3.957-1.876-7.634-3.752-11.182-2.842-5.368-4.254-20.823-5.647-26.73-3.474-14.8-6.074-59.2-9.548-74-3.009,19.207-3.548,78,.149,97.075,1.077,5.554,1.077,9.12-2.9,13.133-3.455,3.474-8.4,2.712-13.04,1.189s-8.749-.576-13.616-1.022c-1.95-.186-4.235-.149-5.424-1.709a5.813,5.813,0,0,1-.854-3.548c-1.022-39.4,4.068-110.765,13-149.16l59.032,2.025Z" transform="translate(-519.373 -98.032)" fill="#4b402a"/>
      <path id="Trazado_123073" data-name="Trazado 123073" d="M604.4,229.011H765.431a2.471,2.471,0,1,0,0-4.941H604.4a2.471,2.471,0,1,0,0,4.941Z" transform="translate(-531.526 -153.351)" fill="#fff"/>
      <path id="Trazado_123074" data-name="Trazado 123074" d="M628.451,241.566c0-.279.037-.557.056-.854,0-.149.037-.279.037-.409,0-.074.037-.167.037-.241,0,.111-.111.8-.037.353.093-.669.223-1.337.371-2.006a33.994,33.994,0,0,1,1.319-4.514c.149-.39.3-.8.446-1.189.074-.2.167-.409.241-.613.037-.093.074-.186.111-.3.13-.334-.279.65-.074.167.371-.854.761-1.709,1.189-2.563a45.921,45.921,0,0,1,3.009-5.145l.892-1.282c.149-.223.316-.427.464-.632.056-.093.13-.167.186-.26.223-.3-.186.26-.186.241,0-.074.13-.149.167-.2.65-.836,1.337-1.653,2.062-2.433a43.845,43.845,0,0,1,4.922-4.551s-.52.409-.223.186c.037-.037.093-.074.13-.111.111-.074.223-.167.316-.242.242-.186.5-.353.743-.539.483-.334.966-.65,1.449-.966a32.9,32.9,0,0,1,3.046-1.728c.539-.279,1.1-.539,1.653-.78l.39-.167s-.613.26-.241.111c.056-.019.111-.056.167-.074.316-.13.613-.241.929-.353a34.879,34.879,0,0,1,3.585-1.133c1.3-.334,2.6-.594,3.919-.8.111,0,.669-.093.223-.037-.464.056.111,0,.223-.019.372-.037.743-.093,1.115-.111.706-.074,1.43-.111,2.136-.149a59.068,59.068,0,0,1,9.232.39c.334.037.687.074,1.022.13.316.037-.539-.074-.223-.037a.929.929,0,0,1,.223.037c.2.037.427.056.632.093.687.111,1.375.223,2.062.353,1.263.241,2.508.539,3.752.873,1.17.334,2.322.706,3.455,1.133.26.093.5.186.761.3.13.056.241.093.372.149.279.111-.539-.241-.279-.111.093.037.167.074.26.111.5.223,1,.446,1.5.687a35.319,35.319,0,0,1,5.182,3.195c.2.149-.372-.279-.316-.241a1.033,1.033,0,0,1,.149.111c.093.074.167.13.26.2.2.167.39.316.594.483.353.3.687.594,1.022.91a26.756,26.756,0,0,1,1.895,1.95c.3.334.576.669.855,1.022.056.074.13.167.186.241.279.353-.056-.037-.149-.186a4.042,4.042,0,0,0,.427.557c.5.669.966,1.375,1.412,2.1a36.4,36.4,0,0,1,2.285,4.384c.056.13.316.743.111.26-.223-.5.056.149.111.3.149.371.3.743.427,1.115.279.724.52,1.467.761,2.192.446,1.393.836,2.8,1.189,4.217.594,2.415,1.077,4.867,1.672,7.3.111.464.241.947.39,1.412a2.476,2.476,0,1,0,4.774-1.319c-.669-2.266-1.1-4.588-1.635-6.891a66.009,66.009,0,0,0-2.508-8.6,37.582,37.582,0,0,0-5-9.325,32.708,32.708,0,0,0-9.176-8.322,41.557,41.557,0,0,0-13.876-5.052,57.15,57.15,0,0,0-18.984-.52,38.11,38.11,0,0,0-14.637,5.517,41.587,41.587,0,0,0-10.365,9.473,48.791,48.791,0,0,0-6.446,10.829,37.818,37.818,0,0,0-2.879,9.622c-.111.78-.2,1.542-.241,2.322a2.481,2.481,0,0,0,2.471,2.47,2.519,2.519,0,0,0,2.471-2.47h0Z" transform="translate(-513.038 -171.2)" fill="#fff"/>
      <path id="Trazado_123075" data-name="Trazado 123075" d="M626.441,193.724q7.022,12.148,14.024,24.315,7.022,12.148,14.024,24.315l7.913,13.709a2.5,2.5,0,0,0,4.272,0q5.377-10.086,10.829-20.154,4.57-8.442,9.195-16.829c2.359-4.309,4.755-8.6,7.133-12.891q2.368-4.235,4.755-8.47c.65-1.133,1.319-2.266,1.932-3.418a2.471,2.471,0,1,0-4.235-2.545c-.52.91-1.04,1.839-1.56,2.749-1.486,2.619-2.954,5.257-4.44,7.895q-3.455,6.186-6.873,12.371-4.514,8.192-8.972,16.383c-3.548,6.557-7.1,13.114-10.588,19.69-.483.892-.966,1.8-1.449,2.693h4.272q-7.022-12.148-14.024-24.315-7.022-12.148-14.024-24.315L630.713,191.2a2.472,2.472,0,1,0-4.272,2.489h0Z" transform="translate(-510.786 -182.595)" fill="#fff"/>
      <path id="Trazado_123076" data-name="Trazado 123076" d="M652.456,257.31c.409,1.932.446,3.957,1.189,5.777s2.526,3.455,4.477,3.176,3.028-3.325,1.319-4.309a3.69,3.69,0,0,0,4.328-5.647,6.5,6.5,0,0,0,5.164-5.405,11.18,11.18,0,0,1,.409-2.842,10.5,10.5,0,0,1,1.653-2.229,7.481,7.481,0,0,0-2.285-10.755c1.375-.836,1.282-2.879.743-4.4a14.52,14.52,0,0,0-12.111-9.455,10.415,10.415,0,0,0-9.919-5.888,15.2,15.2,0,0,1-3.306.167c-1.059-.167-2.025-.743-3.083-.966a4.865,4.865,0,0,0-5.015,2.21c-2.526-1.69-6.557.316-6.724,3.344s3.622,5.48,6.316,4.068a1.821,1.821,0,0,0-2.118,1.523,3.373,3.373,0,0,0,.947,2.693,6.22,6.22,0,0,0,9.511-.78c.594,5.015,7.374,8.062,11.517,5.164l-3.028,24.557Z" transform="translate(-508.065 -161.607)" fill="#47111c"/>
      <path id="Trazado_123077" data-name="Trazado 123077" d="M647.275,243.39c6.111-.632,11.851.966,17.944.334,4.384-.446,11.61,3.083,15.6,4.941,4.5,2.1,8.693,30.018,6.371,57.992,0,0-1.115,10.439-2.025,23.776-16.4,3.176-57.695-1.932-58.066-2.378-.316-.372-4.811-27.176-7.523-41.627a46.728,46.728,0,0,1,1.728-24.185c7.17-20.377,22.792-18.835,25.95-18.835h0Z" transform="translate(-517.113 -136.913)" fill="#f59f18"/>
      <path id="Trazado_123078" data-name="Trazado 123078" d="M639.161,221.389a120.543,120.543,0,0,1-4.829,11.591l-5.944-1.727,4.179,6.836s-5.647,13.579-5.814,14.544c-1,5.926,8.786,5.071,11.071,4.681,1.616,6.334.446,6.483,2.062,12.817a2.881,2.881,0,0,0,.836,1.672,2.8,2.8,0,0,0,2.025.39c3.529-.242,10.068-2.563,13.746-3.957a3.456,3.456,0,0,0,2.173-3.864L655.9,249.716s5.925-.539,5.944-4.031c.037-3.492-2.9-6.167-5.888-4.347l3.975-16.551-20.786-3.418Z" transform="translate(-510.3 -155.667)" fill="#cb7748"/>
      <path id="Trazado_123079" data-name="Trazado 123079" d="M658.045,253.39c-18.167-2.378-33.417-5.387-42.463-20.73-4.662,5.424-10.755,10.365-15.4,15.808-.446.52,20.377,32.451,39.1,36.333.372.074,1.207-4.012,1.56-4.142a1.977,1.977,0,0,0,.984-1.1l6.018-11.145,10.2-15.027Z" transform="translate(-533.029 -145.985)" fill="#f59f18"/>
      <path id="Trazado_123080" data-name="Trazado 123080" d="M655.6,246.08c9.845.52,30.073,36.816,32.544,48.909a4.637,4.637,0,0,1,.056,2.415,4.458,4.458,0,0,1-1.69,1.932,52.507,52.507,0,0,1-16.811,8.47,4.27,4.27,0,0,1-2.916.111,4.361,4.361,0,0,1-1.653-1.727q-9.139-14.015-18.3-28.03a4.5,4.5,0,0,1-.929-2.192,4.82,4.82,0,0,1,1.059-2.749,58.031,58.031,0,0,0,8.285-21.529l.353-5.591Z" transform="translate(-493.821 -134.477)" fill="#f59f18"/>
      <path id="Trazado_123081" data-name="Trazado 123081" d="M605.211,298.991h154.9a2.47,2.47,0,1,0,0-4.941h-154.9a2.47,2.47,0,1,0,0,4.941Z" transform="translate(-530.831 -93.341)" fill="#fff"/>
      <g id="Grupo_86570" data-name="Grupo 86570" transform="translate(99.16 201.526)">
        <g id="Grupo_86569" data-name="Grupo 86569" transform="translate(2.601)">
          <path id="Trazado_123082" data-name="Trazado 123082" d="M668.76,296.923V478.218c0,3.176,4.941,3.195,4.941,0V296.923c0-3.176-4.941-3.195-4.941,0Z" transform="translate(-575.976 -294.453)" fill="#fff"/>
          <path id="Trazado_123083" data-name="Trazado 123083" d="M618.81,296.961V474.949a2.471,2.471,0,0,0,4.941,0V296.961a2.471,2.471,0,0,0-4.941,0Z" transform="translate(-618.81 -294.49)" fill="#fff"/>
          <path id="Trazado_123084" data-name="Trazado 123084" d="M643.79,296.961V475.766a2.471,2.471,0,0,0,4.941,0V296.961a2.471,2.471,0,1,0-4.941,0Z" transform="translate(-597.389 -294.49)" fill="#fff"/>
        </g>
        <path id="Trazado_123085" data-name="Trazado 123085" d="M677.424,333.369c0,5.684-2.3,10.309-5.127,10.309s-5.127-4.607-5.127-10.309,2.3-10.309,5.127-10.309S677.424,327.667,677.424,333.369Z" transform="translate(-574.739 -269.99)" fill="#fff"/>
        <path id="Trazado_123086" data-name="Trazado 123086" d="M627.664,333.369c0,5.684-2.3,10.309-5.127,10.309s-5.127-4.607-5.127-10.309,2.3-10.309,5.127-10.309S627.664,327.667,627.664,333.369Z" transform="translate(-617.41 -269.99)" fill="#fff"/>
        <path id="Trazado_123087" data-name="Trazado 123087" d="M652.324,333.369c0,5.684-2.3,10.309-5.127,10.309s-5.127-4.607-5.127-10.309,2.3-10.309,5.127-10.309S652.324,327.667,652.324,333.369Z" transform="translate(-596.263 -269.99)" fill="#fff"/>
      </g>
      <path id="Trazado_123088" data-name="Trazado 123088" d="M642.423,236.919c1.207-.91,2.415-1.839,3.6-2.749a.652.652,0,0,0,.223-.854.634.634,0,0,0-.855-.223c-1.207.91-2.415,1.839-3.6,2.749a.652.652,0,0,0-.223.854.634.634,0,0,0,.854.223Z" transform="translate(-497.605 -145.693)" fill="#47111c"/>
      <path id="Trazado_123089" data-name="Trazado 123089" d="M642.86,234.929c.3.5.613,1,.91,1.5a.627.627,0,0,0,.372.279.719.719,0,0,0,.483-.056.634.634,0,0,0,.223-.854c-.3-.5-.613-1-.91-1.5a.627.627,0,0,0-.371-.279.719.719,0,0,0-.483.056.634.634,0,0,0-.223.854Z" transform="translate(-496.5 -144.836)" fill="#47111c"/>
      <path id="Trazado_123090" data-name="Trazado 123090" d="M634.677,221.513c-1.467.427-1.839,2.452-1.226,3.845a4.59,4.59,0,0,0,8.08.576c-1.6.817-1.133,3.566.52,4.291s3.622-.149,4.811-1.5c-1.82.557-2.229,3.232-1.059,4.755,1.152,1.5,3.251,2.006,5.145,1.95-1.375.78-2.879,1.69-3.4,3.195s.687,3.585,2.229,3.195c-.762-.78-2.266.186-2.155,1.263a2.239,2.239,0,0,0,2.415,1.709,5.94,5.94,0,0,0,2.935-1.319,6.2,6.2,0,0,1,2.953,3.084,2.675,2.675,0,0,0,.892,1.393,1.778,1.778,0,0,0,1.988-.446,4.953,4.953,0,0,0,1.282-4.217,14.829,14.829,0,0,0-1.486-4.309,3.2,3.2,0,0,0,2.433-2.4,9.7,9.7,0,0,0,.111-3.585c-.093-1-.2-2.006-.3-3.009a11.363,11.363,0,0,0-.372-2.248,5.952,5.952,0,0,0-9.956-2.452.891.891,0,0,0,1.04.724,5.579,5.579,0,0,0-8.507-4.867,4.549,4.549,0,0,0-8.508,1.17l.093-.743Z" transform="translate(-504.738 -157.983)" fill="#47111c"/>
      <path id="Trazado_123091" data-name="Trazado 123091" d="M632.68,242.093l12.891-2.953-11.963,7.709Z" transform="translate(-505.156 -140.428)" fill="#47111c" opacity="0.55"/>
      <path id="Trazado_123092" data-name="Trazado 123092" d="M636.241,230.8c-.464,1.226-1.579,1.932-2.489,1.579a2.128,2.128,0,0,1-.761-2.842c.464-1.226,1.579-1.932,2.489-1.579A2.128,2.128,0,0,1,636.241,230.8Z" transform="translate(-505.076 -150.092)"/>
      <path id="Trazado_123093" data-name="Trazado 123093" d="M630.068,233.786a4.194,4.194,0,0,0,6.39-.5.624.624,0,0,0-1.077-.632,1.943,1.943,0,0,1-.427.464,2.512,2.512,0,0,1-.52.353,2.175,2.175,0,0,1-.557.2,2.385,2.385,0,0,1-.353.074,2.1,2.1,0,0,0-.26.037,2.587,2.587,0,0,1-1.3-.186,3.091,3.091,0,0,1-.557-.279,1.942,1.942,0,0,1-.464-.427c-.539-.594-1.412.279-.873.873h0Z" transform="translate(-507.541 -146.257)" fill="#47111c"/>
      <path id="Trazado_123094" data-name="Trazado 123094" d="M629.558,237.257a1.95,1.95,0,0,0-.446,3.864.64.64,0,0,0,.762-.427.625.625,0,0,0-.427-.762.658.658,0,0,1-.2-.056c-.111-.037.111.056,0,0l-.111-.056c-.019,0-.111-.093-.037-.019l-.037-.037-.074-.074s-.093-.13-.037-.037,0-.019-.019-.037a.391.391,0,0,0-.074-.111c-.037-.093-.037-.074,0,0a.264.264,0,0,0-.037-.111.263.263,0,0,0-.037-.111c-.019-.111,0-.093,0,.019v-.223c0-.13-.037.149,0,0a.234.234,0,0,1,.019-.111c0-.056.074-.13,0,0a.158.158,0,0,1,.056-.093.411.411,0,0,0,.056-.093c.056-.093.037-.074,0,0,.037,0,.13-.13.149-.167.093-.093.019,0,0,0a.407.407,0,0,1,.093-.056c.037-.019.056-.037.093-.056.111-.056.019,0,0,0,.037,0,.2-.056.241-.056h.13a.631.631,0,0,0,.613-.613.607.607,0,0,0-.613-.613h0Z" transform="translate(-509.576 -142.075)" fill="#47111c"/>
      <g id="Grupo_86573" data-name="Grupo 86573">
        <g id="Grupo_86572" data-name="Grupo 86572">
          <rect id="Rect치ngulo_34887" data-name="Rect치ngulo 34887" width="55.8" height="36.036" transform="translate(1.274 39.04) rotate(-38.98)" fill="#fff"/>
          <rect id="Rect치ngulo_34888" data-name="Rect치ngulo 34888" width="55.8" height="36.036" transform="translate(2.47 35.101) rotate(-38.98)" fill="#c23f37"/>
          <g id="Grupo_86571" data-name="Grupo 86571" transform="translate(38.047 12.132)">
            <path id="Trazado_123095" data-name="Trazado 123095" d="M598.035,198.8c-2.359-.149-4.031-1.969-5.108-3.789-.353-.613-.687-1.245-1-1.858a.136.136,0,0,0-.2-.056c-.5.427-1.226,1-1.95.724-.39-.149-.687-.52-1.059-.706a2.449,2.449,0,0,0-2.4.111c-.056,0-.111.056-.149.093-.056.037-.093.074-.149.111a3.006,3.006,0,0,0-.594,1.282,2.2,2.2,0,0,0,.056,1.1c.111.409.409.762.5,1.17.13.743-.557,1.356-1.077,1.783a.131.131,0,0,0,0,.2c.557.427,1.115.873,1.653,1.337,1.6,1.393,3.065,3.362,2.768,5.61,2.4.26,4.049,2.08,5.127,3.9.353.613.687,1.245,1,1.858a.136.136,0,0,0,.2.056c.5-.427,1.226-1,1.95-.724.39.149.687.52,1.059.706a2.449,2.449,0,0,0,2.4-.111c.056,0,.111-.056.149-.093.056-.037.093-.074.149-.111a3.006,3.006,0,0,0,.594-1.282,2.2,2.2,0,0,0-.056-1.1c-.111-.409-.409-.762-.5-1.17-.13-.743.557-1.356,1.077-1.783a.131.131,0,0,0,0-.2c-.557-.427-1.115-.873-1.653-1.337-1.6-1.393-3.065-3.362-2.768-5.61a.845.845,0,0,1-.019-.111Zm-.149,1.839c.557,2.34,2.471,3.919,4.291,5.331a2.266,2.266,0,0,0-1.059,1.895,9.979,9.979,0,0,0,.5,1.226,2.063,2.063,0,0,1,.019,1.115,2.3,2.3,0,0,1-.613,1.1,2.4,2.4,0,0,1-1.189.409,2.237,2.237,0,0,1-1.1-.223,10.15,10.15,0,0,0-1.1-.724,2.219,2.219,0,0,0-2.062.687c-1.059-2.043-2.248-4.217-4.44-5.2a4.612,4.612,0,0,0-1.579-.409,4.722,4.722,0,0,0-.111-1.616c-.557-2.34-2.471-3.919-4.291-5.331A2.266,2.266,0,0,0,586.221,197a9.98,9.98,0,0,0-.5-1.226,2.062,2.062,0,0,1-.019-1.115,2.3,2.3,0,0,1,.613-1.1,2.464,2.464,0,0,1,1.189-.409,2.237,2.237,0,0,1,1.1.223,10.153,10.153,0,0,0,1.1.724,2.219,2.219,0,0,0,2.062-.687c1.059,2.043,2.248,4.217,4.439,5.2a4.612,4.612,0,0,0,1.579.409A4.722,4.722,0,0,0,597.887,200.643Z" transform="translate(-584.215 -192.247)" fill="#7f1816"/>
            <path id="Trazado_123096" data-name="Trazado 123096" d="M600.02,212.87a3.032,3.032,0,0,1-1.356-.316,3.463,3.463,0,0,1-.576-.39,1.5,1.5,0,0,0-.427-.279c-.39-.149-1,.353-1.319.632a.77.77,0,0,1-.632.167.81.81,0,0,1-.539-.409c-.316-.613-.632-1.226-.984-1.839-.892-1.523-2.415-3.344-4.5-3.455h-.149a.974.974,0,0,1-.353-.2l-.074-.093a.744.744,0,0,1-.149-.427c.3-2.21-1.226-4.031-2.545-5.2-.52-.464-1.077-.892-1.616-1.3a.768.768,0,0,1-.3-.576.742.742,0,0,1,.279-.613c.334-.26.947-.762.854-1.189a1.7,1.7,0,0,0-.2-.483,4.023,4.023,0,0,1-.279-.632,2.863,2.863,0,0,1-.056-1.375,3.236,3.236,0,0,1,.427-1.115l-.093-.093.446-.409s.093-.074.149-.111a.858.858,0,0,0,.13-.13l.483-.39.093.111a3.121,3.121,0,0,1,1.17-.223,3.013,3.013,0,0,1,1.337.316,3.463,3.463,0,0,1,.576.39,1.5,1.5,0,0,0,.427.279c.39.149,1-.353,1.319-.632a.771.771,0,0,1,.632-.167.81.81,0,0,1,.539.409c.316.613.632,1.226.984,1.839.892,1.523,2.415,3.344,4.5,3.455h.149a1.058,1.058,0,0,1,.371.241.724.724,0,0,1,.186.483c-.3,2.21,1.226,4.031,2.545,5.2.52.464,1.077.892,1.616,1.3a.768.768,0,0,1,.3.576.742.742,0,0,1-.279.613c-.334.26-.947.762-.873,1.189a1.943,1.943,0,0,0,.2.483,3.612,3.612,0,0,1,.279.65,2.866,2.866,0,0,1,.056,1.375,3.236,3.236,0,0,1-.427,1.115l.093.093-.446.409s-.093.074-.149.111c-.037.037-.093.074-.13.111l-.483.39-.093-.13a3.1,3.1,0,0,1-1.152.223Zm-2.508-2.545a2.08,2.08,0,0,1,.65.111,2.769,2.769,0,0,1,.8.483,1.957,1.957,0,0,0,.372.26,1.78,1.78,0,0,0,.78.167,1.577,1.577,0,0,0,.817-.26,1.6,1.6,0,0,0,.409-.762,1.927,1.927,0,0,0,0-.8,2.57,2.57,0,0,0-.186-.409,2.851,2.851,0,0,1-.334-.873,2.4,2.4,0,0,1,.706-1.95c-1.82-1.449-3.4-2.991-3.938-5.238a5.53,5.53,0,0,1-.149-1.226,5.509,5.509,0,0,1-1.189-.371c-2.1-.947-3.325-2.786-4.4-4.848a2.323,2.323,0,0,1-2.043.334,2.768,2.768,0,0,1-.8-.483,1.953,1.953,0,0,0-.372-.26,1.78,1.78,0,0,0-.78-.167,1.577,1.577,0,0,0-.817.26,1.6,1.6,0,0,0-.409.762,1.927,1.927,0,0,0,0,.8,2.571,2.571,0,0,0,.186.409,2.851,2.851,0,0,1,.334.873,2.377,2.377,0,0,1-.706,1.95c1.82,1.449,3.4,2.991,3.938,5.238a5.53,5.53,0,0,1,.149,1.226,5.511,5.511,0,0,1,1.189.372c2.1.947,3.325,2.786,4.4,4.848a2.639,2.639,0,0,1,1.393-.446Z" transform="translate(-584.51 -192.53)" fill="#7f1816"/>
          </g>
          <path id="Trazado_123097" data-name="Trazado 123097" d="M568.416,209.069a7.975,7.975,0,0,0-3.622,2.953c-.557-.947-1.579-1.579.39-3.957.706-.854,7.895-5.926,7.895-5.926l-4.681,6.929Z" transform="translate(-564.027 -172.157)" fill="#c23f37"/>
          <path id="Trazado_123098" data-name="Trazado 123098" d="M565.51,205.841a2.375,2.375,0,0,0-1.245,2.415,6.541,6.541,0,0,0,1.523,3.009c1.523,2.136,3.065,4.235,4.662,6.334,3.121,4.105,6.371,8.136,9.715,12.055,1.932,2.266,3.919,4.477,5.926,6.669.539.594,1.412-.3.873-.873a257.05,257.05,0,0,1-18.52-22.606c-.78-1.077-1.579-2.136-2.322-3.232-.5-.762-1.133-2.173,0-2.693.724-.316.093-1.393-.632-1.059h0Z" transform="translate(-563.834 -169.022)" fill="#c23f37"/>
          <path id="Trazado_123099" data-name="Trazado 123099" d="M567.014,221.287q8.275-6.548,16.551-13.114,7.857-6.213,15.7-12.445,4.82-3.817,9.622-7.616c.464-.371-.186-1.022-.65-.65q-8.275,6.548-16.551,13.114-7.857,6.213-15.7,12.445-4.82,3.817-9.622,7.616c-.464.371.186,1.022.65.65Z" transform="translate(-562.161 -184.84)" fill="#7a1a1a"/>
          <path id="Trazado_123100" data-name="Trazado 123100" d="M567.4,209.476q6.492,7.969,13,15.938c.13.149.334-.074.223-.223q-6.492-7.969-13-15.938c-.13-.149-.334.074-.223.223Z" transform="translate(-561.159 -166.1)" fill="#e2c5ba"/>
          <path id="Trazado_123101" data-name="Trazado 123101" d="M568,209.046q6.325,8.3,13,16.346c.13.149.353-.074.223-.223q-6.631-8.025-12.947-16.291c-.111-.149-.39,0-.26.149h0Z" transform="translate(-560.637 -166.431)" fill="#e2c5ba"/>
          <path id="Trazado_123102" data-name="Trazado 123102" d="M569.858,213.385c4.087,4.662,8.1,9.418,12.018,14.21.13.149.334-.074.223-.223q-5.879-7.217-12.018-14.21c-.13-.149-.353.074-.223.223Z" transform="translate(-559.061 -162.747)" fill="#e2c5ba"/>
          <path id="Trazado_123103" data-name="Trazado 123103" d="M577.771,220.095a16.242,16.242,0,0,0-.5,2.991.158.158,0,0,0,.316,0,15.246,15.246,0,0,1,.5-2.9.153.153,0,0,0-.3-.074h0Z" transform="translate(-552.672 -156.843)" fill="#e2c5ba"/>
          <path id="Trazado_123104" data-name="Trazado 123104" d="M579.327,225.277q7.746-6.186,15.473-12.39c.149-.13-.056-.334-.223-.223q-7.746,6.186-15.473,12.39c-.149.13.056.334.223.223Z" transform="translate(-551.143 -163.159)" fill="#e2c5ba"/>
          <path id="Trazado_123105" data-name="Trazado 123105" d="M581.467,226.14q7.523-6.659,15.38-12.947c1.5-1.207,3.009-2.4,4.532-3.585.149-.13-.056-.334-.223-.223q-7.941,6.186-15.547,12.743-2.2,1.895-4.347,3.789c-.149.13.074.353.223.223h0Z" transform="translate(-549.29 -165.972)" fill="#e2c5ba"/>
        </g>
        <path id="Trazado_123106" data-name="Trazado 123106" d="M627.922,262.545q-10.477-15.631-20.953-31.244c-1.746-2.6-3.566-5.48-3.269-8.6.316-3.344,3.028-6.613,1.746-9.7a8.53,8.53,0,0,0-2.6-2.991q-4.235-3.511-8.47-7a4.4,4.4,0,0,0-1.765-1.04c-2.452-.557-1.876,4.105-.334,6.074,5.535,7.114,4.347,8.693,4.347,8.693l-10.272,8.693s2.508,5.052,3.678,7.356q7.467,14.656,14.953,29.33c2.545,5,5.22,10.142,9.622,13.634a55.682,55.682,0,0,1,10.532-9.158l2.786-4.049Z" transform="translate(-544.885 -172.341)" fill="#cb7748"/>
        <path id="Trazado_123107" data-name="Trazado 123107" d="M588.57,202.877a14.549,14.549,0,0,0,1.375,5.517,18.055,18.055,0,0,0,3.307,4.458,4.2,4.2,0,0,1,1.282,2.1c.111.892-.632,1.653-.966,2.433a6,6,0,0,0-.019,4.365,6.085,6.085,0,0,0,3.362,3.548c.743.3,1.059-.892.334-1.189A4.953,4.953,0,0,1,595,217.291a3.914,3.914,0,0,0,.761-2.4,4.146,4.146,0,0,0-.947-2.118c-.52-.687-1.152-1.263-1.727-1.913a12.149,12.149,0,0,1-1.579-2.192,12.778,12.778,0,0,1-1.69-5.8.623.623,0,0,0-1.245,0h0Z" transform="translate(-542.982 -172.039)" fill="#47111c"/>
      </g>
      <path id="Trazado_123108" data-name="Trazado 123108" d="M685.983,290.255q-16.328,2.257-32.581,5.015a24.877,24.877,0,0,0-7.69,2.192c-5.573,2.972-8.08,9.529-9.771,15.6-1.3,4.662-1.82,14.21.037,19.3a.605.605,0,0,0,1.114.037c1.95-4.179,2.675-12.315,2.954-16.291a31.4,31.4,0,0,0-3.195,13.8c0,1.449,1.393,6.037,2.786,5.591.743-.241.464-3.7.687-4.44.929-3.121,1.876-6.223,2.8-9.343l-2.34,6.427a5.284,5.284,0,0,0,1.858,5.888c1.858,1.245.743-1.653,1.5-2.656a20.958,20.958,0,0,0,3.641-7.69,9.83,9.83,0,0,0-2.693,8.247c2.118.539,3.4-3.6,4.44-5.535,2.563-4.774,4.179-8.247,3.548-13.653-.186-1.523-.3-4.532.39-4.532a268.759,268.759,0,0,0,38.655-2.043c3.641-.5,7.634-1.263,9.956-4.124,2.656-3.251,2.155-8.062.762-12.037-1.393-3.957-3.566-7.746-3.9-11.944q-6.827,5.071-13.634,10.161L686,290.2Z" transform="translate(-503.365 -107.045)" fill="#cb7748"/>
      <path id="Trazado_123109" data-name="Trazado 123109" d="M657.33,285.556c.446,3.882,1.839,8.786,5.721,9.158a8.6,8.6,0,0,0,4.309-1.133c4.031-1.857,8.062-3.7,12.093-5.554,1.82-.836,3.771-1.783,4.718-3.567,1.56-2.9-.242-6.408-2.006-9.176a4.247,4.247,0,0,0-1.635-1.746c-1.207-.557-2.582.093-3.752.724-6.78,3.715-9.139,4.607-15.919,8.3l-3.511,2.972Z" transform="translate(-484.018 -111.113)" fill="#a86109"/>
      <path id="Trazado_123110" data-name="Trazado 123110" d="M599.725,250.922c-.91,2.6,1.932,5.313,4.681,5.294s5.145-1.839,7.189-3.678a67.025,67.025,0,0,0,7.059-7.467,14.885,14.885,0,0,0,3.492-6.52c.427-2.452-.483-5.331-2.712-6.427-3.028-1.5-6.5.78-9.1,2.953-4.607,3.808-9.306,7.727-12.223,12.947-.613,1.1-1.059,2.675-.056,3.455l1.672-.539Z" transform="translate(-535.357 -146.86)" fill="#a86109"/>
      <path id="Trazado_123111" data-name="Trazado 123111" d="M628.674,249.536c-5.554,3.994-8.582,10.514-9.659,17.126a38.151,38.151,0,0,0-.279,8.73c.223,3.288.632,6.557,1.059,9.826.446,3.288.947,6.576,1.263,9.882.074.78,1.319.8,1.245,0-.576-6.037-1.69-12.018-2.192-18.055a44.3,44.3,0,0,1-.111-8.452,30.518,30.518,0,0,1,2.563-9.473,21.222,21.222,0,0,1,6.761-8.526c.632-.464.019-1.542-.632-1.059h0Z" transform="translate(-517.217 -131.618)" fill="#a86109"/>
      <path id="Trazado_123112" data-name="Trazado 123112" d="M632.932,250.283a3.917,3.917,0,0,0,3.028,3.251c1.932.5,4.031-.056,5.907-.52a43.2,43.2,0,0,0,5.647-1.765,18.825,18.825,0,0,0,5.015-2.471c1.412-1.1,2.322-3.176,1.189-4.811-.446-.65-1.523-.037-1.059.632.836,1.207-.037,2.619-1.077,3.362a19.17,19.17,0,0,1-4.217,2.025,43.446,43.446,0,0,1-4.625,1.523,22.222,22.222,0,0,1-4.9.947c-1.43.056-3.455-.483-3.659-2.192-.093-.78-1.337-.78-1.245,0h0Z" transform="translate(-504.944 -136.526)" fill="#a86109"/>
      <path id="Trazado_123113" data-name="Trazado 123113" d="M653.6,248.282c-1.672,3.306-3.269,6.631-3.808,10.328a32.655,32.655,0,0,0,.427,11,104.539,104.539,0,0,0,2.953,11.071c1.17,3.789,2.322,7.579,3.492,11.368q1.978,6.408,3.957,12.836c.241.762,1.43.427,1.189-.334q-3.427-11.173-6.873-22.327c-2.155-7-4.718-14.284-4.124-21.733A22.861,22.861,0,0,1,652.1,254.6a52.213,52.213,0,0,1,2.582-5.684c.353-.706-.706-1.337-1.059-.632h0Z" transform="translate(-490.729 -132.853)" fill="#a86109"/>
      <path id="Trazado_123114" data-name="Trazado 123114" d="M644.753,247.077a21.325,21.325,0,0,1,10.755,4.384c.613.483,1.5-.39.873-.873a22.836,22.836,0,0,0-11.628-4.755c-.8-.093-.78,1.152,0,1.245h0Z" transform="translate(-495.31 -134.694)" fill="#a86109"/>
      <path id="Trazado_123115" data-name="Trazado 123115" d="M628.207,247.149a16.414,16.414,0,0,1,8.935.2c.762.241,1.1-.966.334-1.189a17.688,17.688,0,0,0-9.585-.2.618.618,0,0,0,.334,1.189h0Z" transform="translate(-509.636 -135.063)" fill="#a86109"/>
      <path id="Trazado_123116" data-name="Trazado 123116" d="M629.179,244.4A34.563,34.563,0,0,0,626,250.068a.652.652,0,0,0,.223.854.634.634,0,0,0,.854-.223,35.987,35.987,0,0,1,3.176-5.665.624.624,0,0,0-1.077-.632Z" transform="translate(-510.942 -136.181)" fill="#a86109"/>
      <path id="Trazado_123117" data-name="Trazado 123117" d="M640.985,300.38a37.682,37.682,0,0,0-.743,12.241c.074.78,1.319.8,1.245,0a36.773,36.773,0,0,1,.706-11.925c.167-.78-1.022-1.1-1.189-.334h0Z" transform="translate(-498.843 -88.303)" fill="#47111c"/>
      <path id="Trazado_123118" data-name="Trazado 123118" d="M637.759,300.882c-.52,3.957-.669,8.155.539,12.018.242.762,1.43.427,1.189-.334-1.17-3.752-1-7.839-.483-11.7a.618.618,0,0,0-.613-.613.631.631,0,0,0-.613.613h0Z" transform="translate(-501.133 -88.025)" fill="#47111c"/>
      <path id="Trazado_123119" data-name="Trazado 123119" d="M635.81,301.173a36.435,36.435,0,0,0,.557,11.089c.167.78,1.356.446,1.189-.334a35.457,35.457,0,0,1-.52-10.755c.074-.8-1.152-.78-1.245,0h0Z" transform="translate(-502.639 -87.741)" fill="#47111c"/>
      <path id="Trazado_123120" data-name="Trazado 123120" d="M636.427,302.115a40.008,40.008,0,0,1,9.956-1.3.623.623,0,0,0,0-1.245,40.7,40.7,0,0,0-10.272,1.337.618.618,0,0,0,.334,1.189h0Z" transform="translate(-502.587 -88.608)" fill="#47111c"/>
      <path id="Trazado_123121" data-name="Trazado 123121" d="M642.5,291.931c1.189,1.765,2.4,3.511,3.585,5.275a.647.647,0,0,0,.854.223.634.634,0,0,0,.223-.854c-1.189-1.765-2.4-3.511-3.585-5.275a.647.647,0,0,0-.854-.223.634.634,0,0,0-.223.854Z" transform="translate(-496.809 -95.959)" fill="#47111c"/>
      <path id="Trazado_123122" data-name="Trazado 123122" d="M661.965,285.933c3.1.539,6.186,1.077,9.288,1.6.78.13,1.115-1.059.334-1.189-3.1-.539-6.186-1.077-9.288-1.6-.78-.13-1.115,1.059-.334,1.189Z" transform="translate(-480.424 -101.329)" fill="#47111c"/>
      <path id="Trazado_123123" data-name="Trazado 123123" d="M647.37,370.589c7.189,1.932,15.046,3.919,22.309,1.115a16.515,16.515,0,0,0,4.922-2.916c.613-.52-.279-1.393-.873-.873-5.405,4.644-13.077,4.458-19.634,3.065-2.136-.446-4.254-1.022-6.371-1.579a.618.618,0,0,0-.334,1.189h0Z" transform="translate(-492.912 -30.138)" fill="#231b0c"/>
      <path id="Trazado_123124" data-name="Trazado 123124" d="M647.876,299.116a40.77,40.77,0,0,0,9.455,10.569c.613.483,1.5-.39.873-.873a40.233,40.233,0,0,1-9.269-10.309c-.427-.669-1.486-.056-1.059.632h0Z" transform="translate(-492.21 -89.77)" fill="#4b402a"/>
      <path id="Trazado_123125" data-name="Trazado 123125" d="M651.443,298.766A121.382,121.382,0,0,1,655.1,315.2a138.6,138.6,0,0,1,1.393,16.848c.149,5.145.223,10.272.5,15.417.186,3.251.39,6.52.632,9.771q.892,11.981,2.136,23.925c.873,8.359,1.839,16.7,3.009,25.04.984,7.059,2.062,14.117,3.566,21.1.149.687.3,1.393.464,2.08.186.78,1.375.446,1.189-.334-1.542-6.669-2.619-13.467-3.622-20.247-1.207-8.266-2.21-16.569-3.083-24.872q-1.31-12.148-2.248-24.315c-.613-7.932-1.022-15.845-1.208-23.814-.13-5.684-.334-11.387-1-17.034a124.867,124.867,0,0,0-3.083-16.346c-.353-1.337-.724-2.675-1.115-3.994a.618.618,0,0,0-1.189.334h0Z" transform="translate(-489.09 -89.958)" fill="#231b0c"/>
      <path id="Trazado_123126" data-name="Trazado 123126" d="M631.865,311.675c3.994.8,7.523,3.083,11.517,3.882.78.149,1.115-1.04.334-1.189-3.994-.8-7.523-3.083-11.517-3.882-.78-.149-1.115,1.04-.334,1.189Z" transform="translate(-506.235 -79.258)" fill="#231b0c"/>
      <path id="Trazado_123127" data-name="Trazado 123127" d="M635.549,311.845c-1.3,6.093-2.192,12.278-2.916,18.464-.854,7.282-1.43,14.582-1.858,21.9q-.669,11.591-.8,23.182-.139,11.145.26,22.272c.241,6.371.632,12.761,1.319,19.114.074.687.149,1.393.241,2.08.093.78,1.337.78,1.245,0-.761-6.167-1.189-12.371-1.467-18.575-.334-7.3-.446-14.619-.409-21.919q.056-11.563.65-23.108.557-11.09,1.709-22.123c.669-6.334,1.523-12.65,2.768-18.91.13-.687.279-1.375.427-2.043.167-.78-1.022-1.115-1.189-.334h0Z" transform="translate(-507.504 -78.462)" fill="#231b0c"/>
      <path id="Trazado_123128" data-name="Trazado 123128" d="M623.667,368.094c3.864,1.245,7.765,2.786,11.814,3.232,3.418.372,7.059-.3,9.659-2.656.594-.539-.279-1.412-.873-.873-2.471,2.229-6,2.675-9.176,2.248a34.91,34.91,0,0,1-5.5-1.337c-1.858-.576-3.715-1.189-5.573-1.8-.761-.242-1.077.947-.334,1.189h0Z" transform="translate(-513.232 -30.894)" fill="#231b0c"/>
      <path id="Trazado_123129" data-name="Trazado 123129" d="M616.578,366c.669.26,1.337.539,2.025.8a.72.72,0,0,0,.483-.056.617.617,0,0,0-.149-1.133c-.669-.26-1.337-.539-2.025-.8a.732.732,0,0,0-.483.056.617.617,0,0,0,.149,1.133Z" transform="translate(-519.35 -32.682)" fill="#4b402a"/>
      <path id="Trazado_123130" data-name="Trazado 123130" d="M625.513,290.753c-.167,1.337-.334,2.675-.5,4.031a.613.613,0,0,0,1.226,0c.167-1.337.334-2.675.5-4.031a.613.613,0,0,0-1.226,0Z" transform="translate(-511.734 -96.695)" fill="#4b402a"/>
      <path id="Trazado_123131" data-name="Trazado 123131" d="M626.856,290.753c-.056,1.467-.13,2.953-.186,4.421a.631.631,0,0,0,.613.613.619.619,0,0,0,.613-.613c.056-1.467.13-2.953.186-4.421a.631.631,0,0,0-.613-.613.619.619,0,0,0-.613.613Z" transform="translate(-510.31 -96.694)" fill="#4b402a"/>
      <path id="Trazado_123132" data-name="Trazado 123132" d="M627.242,267.061q13.569,6.548,27.157,13.114c2.582,1.245,5.182,2.489,7.764,3.752.706.353,1.337-.724.632-1.059q-13.569-6.548-27.157-13.114c-2.582-1.245-5.182-2.489-7.765-3.752-.706-.353-1.337.724-.632,1.059Z" transform="translate(-510.083 -117.453)" fill="#a86109"/>
      <path id="Trazado_123133" data-name="Trazado 123133" d="M629.845,270.406A127.4,127.4,0,0,1,647.38,277.8c.706.353,1.337-.706.632-1.059a131.787,131.787,0,0,0-17.832-7.523c-.762-.26-1.077.947-.334,1.189h0Z" transform="translate(-507.949 -114.668)" fill="#a86109"/>
      <path id="Trazado_123134" data-name="Trazado 123134" d="M629.213,287.224c.372,1.077.743,2.173,1.133,3.251a.633.633,0,0,0,.762.427.625.625,0,0,0,.427-.762c-.371-1.077-.743-2.173-1.133-3.251a.633.633,0,0,0-.761-.427.625.625,0,0,0-.427.762Z" transform="translate(-508.153 -99.871)" fill="#a86109"/>
      <path id="Trazado_123135" data-name="Trazado 123135" d="M631.287,287.315a6.372,6.372,0,0,0-.3,3.585.625.625,0,0,0,.762.427.633.633,0,0,0,.427-.762.927.927,0,0,0-.037-.223c-.037-.186,0,.13,0-.074a3.041,3.041,0,0,0-.037-.409c0-.26,0-.52.019-.78,0-.019.019-.223,0-.093a.515.515,0,0,1,.019-.167c.019-.13.056-.26.074-.39a6.277,6.277,0,0,1,.241-.78.633.633,0,0,0-.427-.762.65.65,0,0,0-.761.427h0Z" transform="translate(-506.716 -99.497)" fill="#a86109"/>
      <path id="Trazado_123136" data-name="Trazado 123136" d="M659.99,275.962a10.8,10.8,0,0,1,.743.836,7.044,7.044,0,0,1,.632.836,13.675,13.675,0,0,1,1.133,1.95.629.629,0,0,0,.854.223.647.647,0,0,0,.223-.854,14.893,14.893,0,0,0-2.712-3.882.617.617,0,0,0-.873.873h0Z" transform="translate(-481.886 -109.766)" fill="#a86109"/>
      <path id="Trazado_123137" data-name="Trazado 123137" d="M661.144,275.443l1.616,3.232a.63.63,0,0,0,.854.223.647.647,0,0,0,.223-.854l-1.616-3.232a.63.63,0,0,0-.854-.223.647.647,0,0,0-.223.854Z" transform="translate(-480.81 -110.101)" fill="#a86109"/>
      <path id="Trazado_123138" data-name="Trazado 123138" d="M663.518,274.845l.836,3.622a.61.61,0,0,0,.762.427.633.633,0,0,0,.427-.762l-.836-3.622a.61.61,0,0,0-.762-.427.633.633,0,0,0-.427.762Z" transform="translate(-478.726 -110.488)" fill="#a86109"/>
      <path id="Trazado_123139" data-name="Trazado 123139" d="M604.83,243.167l3.176,3.288a.617.617,0,0,0,.873,0,.634.634,0,0,0,0-.873l-3.176-3.288a.617.617,0,0,0-.873,0,.634.634,0,0,0,0,.873Z" transform="translate(-529.187 -137.879)" fill="#a86109"/>
      <path id="Trazado_123140" data-name="Trazado 123140" d="M606.459,242.187c1.207.817,2.415,1.635,3.6,2.452a.634.634,0,0,0,.855-.223.652.652,0,0,0-.223-.854c-1.208-.817-2.415-1.635-3.6-2.452a.634.634,0,0,0-.854.223.652.652,0,0,0,.223.854Z" transform="translate(-527.899 -138.813)" fill="#a86109"/>
      <path id="Trazado_123141" data-name="Trazado 123141" d="M659.123,289.1a78.338,78.338,0,0,1,15.845-10.867c1.635-.854,3.288-1.635,4.978-2.378.724-.316.093-1.375-.632-1.059a79.848,79.848,0,0,0-16.774,9.9c-1.467,1.133-2.916,2.322-4.309,3.548-.594.52.279,1.393.873.873h0Z" transform="translate(-483.415 -109.901)" fill="#774106"/>
      <path id="Trazado_123142" data-name="Trazado 123142" d="M661.079,288.424q7.5-5.21,14.99-10.4c.65-.446.037-1.523-.632-1.059q-7.5,5.21-14.99,10.4c-.65.446-.037,1.523.632,1.059Z" transform="translate(-481.581 -108.092)" fill="#774106"/>
      <path id="Trazado_123143" data-name="Trazado 123143" d="M599.551,247.807c3.214-3.511,6.446-7,9.659-10.514.539-.576-.334-1.467-.873-.873-3.214,3.511-6.446,7-9.659,10.514-.539.576.334,1.467.873.873Z" transform="translate(-534.459 -142.928)" fill="#774106"/>
      <path id="Trazado_123144" data-name="Trazado 123144" d="M602.841,246.933c2.768-3.009,5.554-6,8.322-9.009.539-.576-.334-1.467-.873-.873-2.768,3.009-5.554,6-8.322,9.009-.539.576.334,1.467.873.873Z" transform="translate(-531.637 -142.388)" fill="#774106"/>
      <path id="Trazado_123145" data-name="Trazado 123145" d="M658.78,261.755c.409.669.8,1.337,1.207,2.025a.624.624,0,0,0,1.077-.632c-.409-.669-.8-1.337-1.207-2.025a.624.624,0,0,0-1.077.632Z" transform="translate(-482.849 -121.843)" fill="#a86109"/>
      <path id="Trazado_123146" data-name="Trazado 123146" d="M661.326,263.554c.26.669.539,1.337.8,2.025a.688.688,0,0,0,.279.372.625.625,0,0,0,.483.056.71.71,0,0,0,.371-.279.554.554,0,0,0,.056-.483c-.26-.669-.539-1.337-.8-2.025a.687.687,0,0,0-.279-.372.625.625,0,0,0-.483-.056.71.71,0,0,0-.372.279.555.555,0,0,0-.056.483Z" transform="translate(-480.621 -120.169)" fill="#a86109"/>
      <path id="Trazado_123147" data-name="Trazado 123147" d="M658.256,257.7c.427,1.059.854,2.136,1.282,3.2a.625.625,0,0,0,.762.427.618.618,0,0,0,.427-.762c-.427-1.059-.854-2.136-1.282-3.195a.624.624,0,0,0-.761-.427.618.618,0,0,0-.427.762Z" transform="translate(-483.253 -125.186)" fill="#a86109"/>
      <path id="Trazado_123148" data-name="Trazado 123148" d="M663.04,268.392v.8a.686.686,0,0,0,.186.446.482.482,0,0,0,.2.13.515.515,0,0,0,.241.056.576.576,0,0,0,.446-.186.685.685,0,0,0,.186-.446v-.8a.685.685,0,0,0-.186-.446.481.481,0,0,0-.2-.13.514.514,0,0,0-.242-.056.576.576,0,0,0-.446.186.686.686,0,0,0-.186.446Z" transform="translate(-479.121 -115.886)" fill="#a86109"/>
      <path id="Trazado_123149" data-name="Trazado 123149" d="M611.025,250.21a9.412,9.412,0,0,0,4.7,4.031.61.61,0,0,0,.761-.427.633.633,0,0,0-.427-.762,3.608,3.608,0,0,1-.557-.26,6.58,6.58,0,0,1-.613-.353c-.186-.111-.372-.241-.557-.372-.167-.13-.3-.223-.483-.39a7.784,7.784,0,0,1-1.728-2.1.617.617,0,0,0-1.059.632h0Z" transform="translate(-523.772 -131.734)" fill="#a86109"/>
      <path id="Trazado_123150" data-name="Trazado 123150" d="M612.911,249.214c.836.632,1.672,1.263,2.508,1.913a.615.615,0,0,0,.483.056.6.6,0,0,0,.427-.762.791.791,0,0,0-.279-.371c-.836-.632-1.672-1.263-2.508-1.913a.615.615,0,0,0-.483-.056.6.6,0,0,0-.427.762.791.791,0,0,0,.279.371Z" transform="translate(-522.37 -132.781)" fill="#a86109"/>
      <path id="Trazado_123151" data-name="Trazado 123151" d="M614.356,247.767l.8.8a.649.649,0,0,0,.446.186.361.361,0,0,0,.241-.056.48.48,0,0,0,.2-.13.649.649,0,0,0,.186-.446.6.6,0,0,0-.186-.446l-.8-.8a.649.649,0,0,0-.446-.186.361.361,0,0,0-.241.056.48.48,0,0,0-.2.13.649.649,0,0,0-.186.446.6.6,0,0,0,.186.446Z" transform="translate(-521.029 -133.954)" fill="#a86109"/>
      <path id="Trazado_123152" data-name="Trazado 123152" d="M617.086,252.179l1.207,1.616a.627.627,0,0,0,.371.279.719.719,0,0,0,.483-.056.642.642,0,0,0,.223-.854c-.409-.539-.8-1.077-1.207-1.616a.627.627,0,0,0-.372-.279.719.719,0,0,0-.483.056.642.642,0,0,0-.223.854Z" transform="translate(-518.596 -130.044)" fill="#a86109"/>
      <path id="Trazado_123153" data-name="Trazado 123153" d="M644.58,261.873v2.415a.613.613,0,0,0,1.226,0v-2.415a.613.613,0,0,0-1.226,0Z" transform="translate(-494.951 -121.46)" fill="#a86109"/>
      <path id="Trazado_123154" data-name="Trazado 123154" d="M647.19,267.3a6.077,6.077,0,0,0,.761,2.786.634.634,0,0,0,.854.223.647.647,0,0,0,.223-.854c-.056-.093-.093-.186-.149-.279-.019-.056-.056-.111-.074-.167a.974.974,0,0,1-.111-.3,2.03,2.03,0,0,1-.093-.316c-.056-.2-.093-.39-.13-.594-.019-.167,0,.093,0-.037v-.483a.618.618,0,0,0-.613-.613.607.607,0,0,0-.613.613h0Z" transform="translate(-492.713 -116.821)" fill="#a86109"/>
      <path id="Trazado_123155" data-name="Trazado 123155" d="M649.326,271.916a5.97,5.97,0,0,0,.5,5.313c.427.669,1.486.056,1.059-.632a4.779,4.779,0,0,1-.372-4.365.61.61,0,0,0-.427-.762.633.633,0,0,0-.761.427h0Z" transform="translate(-491.227 -112.723)" fill="#a86109"/>
      <path id="Trazado_123156" data-name="Trazado 123156" d="M634.02,226.285a8.13,8.13,0,0,0,5.331,3.083,3.928,3.928,0,0,0-4.848-3.734l-.483.65Z" transform="translate(-504.007 -152.13)" fill="#47111c"/>
      <path id="Trazado_123157" data-name="Trazado 123157" d="M652.768,356.613c.39,2.025.8,4.031,1.189,6.056a.61.61,0,0,0,.762.427.624.624,0,0,0,.427-.762c-.39-2.025-.8-4.031-1.189-6.056a.61.61,0,0,0-.761-.427.625.625,0,0,0-.427.762Z" transform="translate(-487.945 -40.365)" fill="#231b0c"/>
      <path id="Trazado_123158" data-name="Trazado 123158" d="M655.048,359.538a5.333,5.333,0,0,0,.3,2.749.687.687,0,0,0,.279.372.624.624,0,0,0,.483.056.618.618,0,0,0,.427-.762,3.452,3.452,0,0,1-.186-.576c-.019-.093-.037-.167-.056-.26a.543.543,0,0,0-.037-.167h0c0-.186-.037-.372-.037-.576v-.446c0-.037.037-.241,0-.056a.731.731,0,0,0-.056-.483.642.642,0,0,0-.854-.223.563.563,0,0,0-.279.372h0Z" transform="translate(-486.026 -37.57)" fill="#231b0c"/>
      <path id="Trazado_123159" data-name="Trazado 123159" d="M653.826,349.942c.223,1.3.446,2.619.669,3.919a.617.617,0,1,0,1.189-.334c-.223-1.3-.446-2.619-.669-3.919a.617.617,0,1,0-1.189.334Z" transform="translate(-487.033 -46.085)" fill="#231b0c"/>
      <path id="Trazado_123160" data-name="Trazado 123160" d="M625.869,354.156a32.237,32.237,0,0,0,.372,6.817.61.61,0,0,0,.761.427.625.625,0,0,0,.427-.762,31.491,31.491,0,0,1-.316-6.483c.037-.8-1.189-.8-1.245,0h0Z" transform="translate(-511.032 -42.312)" fill="#231b0c"/>
      <path id="Trazado_123161" data-name="Trazado 123161" d="M627.058,350.594a8.5,8.5,0,0,0,.223,3.678.618.618,0,0,0,.762.427.633.633,0,0,0,.427-.762c-.074-.26-.13-.52-.186-.8a.657.657,0,0,0-.037-.186v-.13a2.772,2.772,0,0,0-.037-.39c0-.279-.019-.539,0-.817a2.492,2.492,0,0,1,.019-.372v-.334a.617.617,0,1,0-1.189-.334h0Z" transform="translate(-510.066 -45.25)" fill="#231b0c"/>
      <path id="Trazado_123162" data-name="Trazado 123162" d="M627.47,345.533v2.415a.613.613,0,0,0,1.226,0v-2.415a.613.613,0,0,0-1.226,0Z" transform="translate(-509.624 -49.719)" fill="#231b0c"/>
      <g id="Grupo_86574" data-name="Grupo 86574" transform="translate(201.011 150.76)">
        <path id="Trazado_123163" data-name="Trazado 123163" d="M680.3,299.213c.669-1.04-.074-2.489-1.114-3.158a31.017,31.017,0,0,0-3.436-1.412,6.377,6.377,0,0,1-3.269-3.771,4,4,0,0,1,.5-3.752,3.94,3.94,0,0,1,4.384-.78,10.391,10.391,0,0,1,3.678,2.935,24.116,24.116,0,0,1-2.025-5.61,8.164,8.164,0,0,1,0-4.625,3.566,3.566,0,0,1,3.566-2.47,4.419,4.419,0,0,1,2.619,1.765,10.877,10.877,0,0,1,1.69,10.4,6.5,6.5,0,0,1,1.152-6.3,1.388,1.388,0,0,1,2.322-.037,7.5,7.5,0,0,1,1.56,9.028,20.813,20.813,0,0,1,6.483-18.928,1.97,1.97,0,0,1,1.245-.632,1.849,1.849,0,0,1,1.337.836,8.014,8.014,0,0,1-.2,9.975,6.794,6.794,0,0,1,1.932-2.991,2.327,2.327,0,0,1,3.213.223,3.164,3.164,0,0,1,.316,2.192,14.44,14.44,0,0,1-3.214,7.3c-.13-1.579,2.452-2.266,3.362-.966s-.074,3.288-1.6,3.7a7.479,7.479,0,0,1,1.8-5.888c1.04-1.17,2.731-2.025,4.2-1.467,1.839.706,2.322,3.232,1.56,5.034-.761,1.82-2.34,3.121-3.734,4.5-1.393,1.393-2.712,3.1-2.656,5.071a13.108,13.108,0,0,0-4.96-.78c-5.331-.167-10.644-.316-15.975-.483l-4.737,1.077Z" transform="translate(-672.242 -263.121)" fill="#adce32"/>
        <path id="Trazado_123164" data-name="Trazado 123164" d="M682.3,293.335c.929-1.319.353-2.991-.594-4.124-1.077-1.3-2.768-1.8-3.994-2.916-.761-.687-1.579-2.359-.557-3.214.65-.557,1.672-.074,2.322.26a7.412,7.412,0,0,1,1.858,1.375,7.928,7.928,0,0,1,2.322,4.718l1.059-.446a5.581,5.581,0,0,1,.056-7.579A3.273,3.273,0,0,1,687,280.332a3.673,3.673,0,0,1,2.34.929,5.142,5.142,0,0,1,1.728,3.641,5.343,5.343,0,0,1-1.6,4.254c.353.093.687.186,1.04.279a7.1,7.1,0,0,1,3.678-7.412c.464-.242,1.337-.724,1.8-.334a2.886,2.886,0,0,1,.613,1.913,4.793,4.793,0,0,1-.427,2.266c-.334.706.65,1.319,1.059.632a17.348,17.348,0,0,1,3.938-4.607,18.922,18.922,0,0,1,2.489-1.69c.594-.334,1.969-1.3,2.619-.724.5.446.353,1.412.223,1.988a11.456,11.456,0,0,1-1,2.489,18.695,18.695,0,0,1-8.842,8.563c-.724.334-.093,1.393.632,1.059a19.869,19.869,0,0,0,9.418-9.288c.743-1.542,1.876-3.957.576-5.517a2.292,2.292,0,0,0-2.786-.353,15.9,15.9,0,0,0-3.046,1.727,18.606,18.606,0,0,0-5.294,5.74c.353.2.706.409,1.059.632a6.061,6.061,0,0,0,.334-4.347,2.762,2.762,0,0,0-1-1.56,2.227,2.227,0,0,0-2.08-.019,8.316,8.316,0,0,0-4.885,5.108,7.715,7.715,0,0,0-.279,4.105.629.629,0,0,0,1.04.279,6.769,6.769,0,0,0,.093-9.436,4.465,4.465,0,0,0-5.758-.706,6.422,6.422,0,0,0-2.6,4.532,6.663,6.663,0,0,0,1.765,5.443c.353.353,1.114.111,1.059-.446a9.407,9.407,0,0,0-2.043-4.867,7.7,7.7,0,0,0-4.57-2.916,2.491,2.491,0,0,0-2.786,2.9c.167,1.857,1.542,2.935,3.028,3.826a7.493,7.493,0,0,1,2.415,1.876,2.111,2.111,0,0,1,.26,2.47c-.464.65.613,1.263,1.059.632h0Z" transform="translate(-669.453 -257.763)" fill="#0b481e"/>
        <path id="Trazado_123165" data-name="Trazado 123165" d="M690.38,279.15a11.662,11.662,0,0,1,8.1-7.69,14,14,0,0,1-7.337,7.04,13.6,13.6,0,0,0,11.257,1.635,9.572,9.572,0,0,0-11.089-1.523l-.91.557Z" transform="translate(-656.688 -263.473)" fill="#adce32"/>
        <path id="Trazado_123166" data-name="Trazado 123166" d="M683.6,279a12.234,12.234,0,0,1-4.161-11.777,12.544,12.544,0,0,1,4.718,11.87L683.6,279Z" transform="translate(-666.277 -267.109)" fill="#adce32"/>
        <path id="Trazado_123167" data-name="Trazado 123167" d="M682.99,276.541a10.652,10.652,0,0,1,3.622-9.381,8.93,8.93,0,0,1-3.529,9.585Z" transform="translate(-663.099 -267.16)" fill="#adce32"/>
        <path id="Trazado_123168" data-name="Trazado 123168" d="M674.89,285.23c-.242,5.535,1.56,14.767,6.557,17.145,2.8,1.337,6.074,1.17,9.176.984,1.895-.111,3.789-.241,5.665-.353a10.817,10.817,0,0,0,5.368-1.282c1.69-1.115,2.6-3.083,3.288-5a40.538,40.538,0,0,0,2.3-11.5Z" transform="translate(-669.989 -251.664)" fill="#ffc107"/>
        <path id="Trazado_123169" data-name="Trazado 123169" d="M675.5,289.059h29.628a.465.465,0,0,0,0-.929H675.5a.465.465,0,0,0,0,.929Z" transform="translate(-669.834 -249.178)" fill="#1c4b5f"/>
      </g>
    </g>
  </g>
</svg>
