<svg xmlns="http://www.w3.org/2000/svg" width="1050" height="398" viewBox="0 0 1050 398">
  <g id="Grupo_1004311" data-name="Grupo 1004311" transform="translate(10335 3268.2)">
    <rect id="Rectángulo_347351" data-name="Rectángulo 347351" width="1050" height="398" rx="40" transform="translate(-10335 -3268.2)" fill="#eff5d6"/>
    <g id="Grupo_86576" data-name="Grupo 86576" transform="translate(-9474.861 -2902.469)">
      <path id="Trazado_123170" data-name="Trazado 123170" d="M379.978,296.979h50.764a.365.365,0,0,0,0-.729H379.978a.365.365,0,0,0,0,.729Z" transform="translate(-361.393 -296.25)" fill="#cee284"/>
      <path id="Trazado_123171" data-name="Trazado 123171" d="M379.978,311.929h70.064a.365.365,0,0,0,0-.729H379.978a.365.365,0,0,0,0,.729Z" transform="translate(-361.393 -294.935)" fill="#cee284"/>
      <path id="Trazado_123172" data-name="Trazado 123172" d="M407.7,296.618v16.265a.365.365,0,0,0,.729,0V296.618a.365.365,0,0,0-.729,0Z" transform="translate(-358.924 -296.248)" fill="#cee284"/>
      <path id="Trazado_123173" data-name="Trazado 123173" d="M363.218,325.969h54.7a.365.365,0,0,0,0-.729h-54.7a.365.365,0,0,0,0,.729Z" transform="translate(-362.867 -293.7)" fill="#cee284"/>
      <path id="Trazado_123174" data-name="Trazado 123174" d="M390.94,311.568v15.275a.365.365,0,0,0,.729,0V311.568a.365.365,0,0,0-.729,0Z" transform="translate(-360.398 -294.934)" fill="#cee284"/>
    </g>
    <g id="Grupo_86578" data-name="Grupo 86578" transform="translate(-10255.282 -3205.469)">
      <g id="Grupo_86577" data-name="Grupo 86577" transform="translate(10.158 21.676)">
        <path id="Trazado_123175" data-name="Trazado 123175" d="M259.7,291.72h64.75a.465.465,0,0,0,0-.93H259.7a.465.465,0,0,0,0,.93Z" transform="translate(-259.248 -290.79)" fill="#cee284"/>
        <path id="Trazado_123176" data-name="Trazado 123176" d="M259.7,306.57h89.367a.465.465,0,0,0,0-.93H259.7a.465.465,0,0,0,0,.93Z" transform="translate(-259.248 -285.033)" fill="#cee284"/>
        <path id="Trazado_123177" data-name="Trazado 123177" d="M287.32,291.255v20.607a.465.465,0,0,0,.93,0V291.255a.465.465,0,0,0-.93,0Z" transform="translate(-248.364 -290.783)" fill="#cee284"/>
      </g>
      <path id="Trazado_123178" data-name="Trazado 123178" d="M252.375,276.1h60.351a.465.465,0,0,0,0-.93H252.375a.465.465,0,0,0,0,.93h0Z" transform="translate(-251.927 -275.17)" fill="#cee284"/>
      <path id="Trazado_123179" data-name="Trazado 123179" d="M270.26,275.635v21.676a.465.465,0,0,0,.93,0V275.635a.465.465,0,0,0-.93,0Z" transform="translate(-244.82 -275.163)" fill="#cee284"/>
    </g>
  </g>
</svg>
