<svg xmlns="http://www.w3.org/2000/svg" width="1241.175" height="201.901" viewBox="0 0 1241.175 201.901">
  <g id="Grupo_1004884" data-name="Grupo 1004884" transform="translate(-8695 11607)">
    <g id="Grupo_1004942" data-name="Grupo 1004942" transform="translate(1329.987 -12973.145)">
      <g id="Grupo_1004912" data-name="Grupo 1004912" transform="translate(7365.013 1366.144)">
        <g id="Grupo_80263" data-name="Grupo 80263" transform="translate(82.176 93.079) rotate(-162)">
          <path id="Trazado_113537" data-name="Trazado 113537" d="M18.375,65.467c2.33-1.48,3.884-3.883,5.293-6.191.737-1.206,1.41-2.455,2.177-3.643a9.416,9.416,0,0,1,1.606-1.96,10.474,10.474,0,0,0,.909-.792,1.591,1.591,0,0,1,1.077.524,2.145,2.145,0,0,1,.109,1.968,11.9,11.9,0,0,1-1.9,4.037,15.716,15.716,0,0,1-3.373,3.153,15.313,15.313,0,0,1-1.82,1.159,7.126,7.126,0,0,0-1.707.96c-1.91,1.849,2.432,2.853,3.482,3.022a13.156,13.156,0,0,0,7.6-.747c4.178-1.915,6.946-6.317,9-10.243,1.224-2.337,2.325-4.723,3.728-6.964a23.931,23.931,0,0,1,2.244-3.2c.24-.272.618-.759.971-.49.316.24.2,1.366.194,1.737-.062,6.158-3.406,11.812-7.581,16.122a17.189,17.189,0,0,1-2.99,2.485c-.589.387-1.46,1-1.25,1.829.5,1.988,4.413,1.6,5.821,1.383,4.706-.73,10.084-3.014,12.3-7.48,1.386-2.792,1.756-5.938,2.114-9,.393-3.368.837-6.742,1.088-10.124a12.781,12.781,0,0,1,1.244-5.541c.327-.579.837-1.407,1.553-1.536,1.045-.188,1.645,1.107,1.937,1.912.965,2.655.373,5.627.025,8.341a52.914,52.914,0,0,1-5.058,17.644.859.859,0,0,0,.237,1.5c2.02.755,4.365-.284,6.247-1.008a20.567,20.567,0,0,0,6.277-3.711c3.73-3.265,5.37-8.131,5.694-12.966.383-5.7-1.388-11.509-2.05-17.142a16.155,16.155,0,0,1-.2-5.264c.644-2.74,3.681,1.3,4.194,2.331A30.45,30.45,0,0,1,80.23,35.91a66.088,66.088,0,0,1,.526,9.219.42.42,0,0,0,.09.24c.142.888.983,1.148,1.847.449,1.762-1.428,2.282-4.059,2.727-6.146,1.1-5.185,1.536-10.791-.032-15.92A30.862,30.862,0,0,0,77.2,10.935,39.061,39.061,0,0,0,71.054,6a32.754,32.754,0,0,0-7.335-3.215A64.6,64.6,0,0,0,55.342.411c-2.117-.392-4.677-.726-6.755.1C47.129.454,45.675.419,44.234.4c-6.739-.084-14.16.855-19.558,5.25-1.833,1.493-3.94,3.711-4.558,6.051a2.12,2.12,0,0,0,.712,2.444c1.172.743,2.834.214,4.1.05A32.316,32.316,0,0,1,36.3,15.265c3.305.776,6.7,1.954,9.269,4.251a10.214,10.214,0,0,1,3.1,4.467c.728,2.567-1.959,3.109-3.877,2.539-2.063-.613-3.979-1.74-6.008-2.474-2.149-.777-4.348-1.37-6.546-1.991-6.916-1.954-14.705-2.163-20.9,2.043a14.216,14.216,0,0,0-5.273,6.235,3.635,3.635,0,0,0,.152,3.5c.924,1.265,2.552,1.23,3.91.784,2.042-.672,3.943-1.716,6.008-2.362a42.911,42.911,0,0,1,6.644-1.636,17.6,17.6,0,0,1,6.066.38,26.139,26.139,0,0,1,4.891,1.211c.524.212,3.753,2.26,2.7,2.644-.875.319-2.508-.369-3.4-.545a47.942,47.942,0,0,0-6.673-1.11,37.137,37.137,0,0,0-6.868.522A26.9,26.9,0,0,0,9.041,36.935a19.958,19.958,0,0,0-7.2,7.205C1.25,45.17.6,46.426,1.167,47.59a.834.834,0,0,0,.947.37c1.514-.6,3.156-.684,4.7-1.186A34.6,34.6,0,0,1,12.6,45.162a7.579,7.579,0,0,1,6.076,1.7c.045,1.173-1.032,1.917-2.129,2.23-2.3.659-4.728.646-7.032,1.367a12.045,12.045,0,0,0-5.589,3.515A21.648,21.648,0,0,0,1.654,57.3c-.691,1.17-1.81,2.848-1.636,4.266a.671.671,0,0,0,.032.117.2.2,0,0,0,.03.205,8.577,8.577,0,0,0,3.84,2.273c1.664.623,3.381,1.164,5.088,1.649C12.091,66.687,15.518,67.281,18.375,65.467ZM49.717,16.309c-1.613-.624-5.838-3.316-4.3-5.471,1.561-2.182,5.94-.623,7.827.026,3.12,1.073,7.747,2.956,9.909,5.605,1.163,1.424.226,1.989-1.207,1.983a39.8,39.8,0,0,1-5.157-.347,31.074,31.074,0,0,1-7.072-1.8Z" transform="translate(0)" fill="#4f9638"/>
          <g id="Grupo_80113" data-name="Grupo 80113" transform="translate(5.114 11.066)" opacity="0.7">
            <path id="Trazado_113538" data-name="Trazado 113538" d="M3.6,40.361q2.389-1.311,4.749-2.674c4.266-2.447,8.54-4.871,12.76-7.4,3.872-2.317,7.687-4.757,11.4-7.323,4.623-3.2,9.206-6.578,13.563-10.141a30.324,30.324,0,0,1,1.075,5.629c.02.18.321.25.346.038a11.671,11.671,0,0,0-.074-3.367,18.891,18.891,0,0,0-.719-2.806c.112-.093.23-.183.342-.277A155.848,155.848,0,0,0,59.764.645.39.39,0,0,0,59.207.1,138.225,138.225,0,0,1,47.154,10.02C42.38,13.7,37.483,17.242,32.59,20.756,25.109,26.126,17.2,31.013,9.33,35.78c-2.965,1.794-6.1,3.271-9.085,5-.517.3-.133,1,.4.9A10.368,10.368,0,0,0,3.6,40.361Z" transform="translate(15.138 0)" fill="#0a481c"/>
            <path id="Trazado_113539" data-name="Trazado 113539" d="M2.915.136a63.582,63.582,0,0,1-.655,12.84c-.3,2-.7,3.992-1.106,5.976C.764,20.868.007,22.9,0,24.855a.208.208,0,0,0,.386.1,22.227,22.227,0,0,0,1.523-5.809c.434-2.14.741-4.3.986-6.465A68.84,68.84,0,0,0,3.189.129C3.176-.047,2.9-.042,2.915.136Z" transform="translate(59.931 24.565)" fill="#0a481c"/>
            <path id="Trazado_113540" data-name="Trazado 113540" d="M6.523,16.683A45.462,45.462,0,0,0,7.675,7.54,24.64,24.64,0,0,0,6.987.088C6.938-.074,6.675.009,6.738.16c.935,2.278.4,4.994.34,7.393A45.613,45.613,0,0,1,5.944,16.3,34.284,34.284,0,0,1,.055,30a.192.192,0,0,0,.234.3c1.778-.832,2.531-3.753,3.264-5.406.524-1.184,1.24-2.275,1.73-3.473a27.185,27.185,0,0,0,1.24-4.738Z" transform="translate(40.818 23.526)" fill="#0a481c"/>
            <path id="Trazado_113541" data-name="Trazado 113541" d="M2.156,10.712c.6-1.122,1.215-2.237,1.767-3.386A16.024,16.024,0,0,0,5.834.284.306.306,0,0,0,5.223.3,15.56,15.56,0,0,1,3.1,7.6c-.569,1.088-1.184,2.152-1.779,3.226A7.418,7.418,0,0,0,0,13.832a.2.2,0,0,0,.341.134,4.962,4.962,0,0,0,.892-1.487C1.53,11.885,1.842,11.3,2.156,10.712Z" transform="translate(28.452 33.692)" fill="#0a481c"/>
            <path id="Trazado_113542" data-name="Trazado 113542" d="M2.14,4.879A13.9,13.9,0,0,0,3.727,3.538,24.15,24.15,0,0,0,6.259.328c.147-.206-.184-.445-.352-.264-.9.968-1.869,1.859-2.848,2.744-.477.431-.966.856-1.481,1.24S.358,4.744.038,5.3a.317.317,0,0,0,.281.467A3.292,3.292,0,0,0,2.14,4.879Z" transform="translate(21.277 49.195)" fill="#0a481c"/>
            <path id="Trazado_113543" data-name="Trazado 113543" d="M11.023.731A25.853,25.853,0,0,1,22.153,3.04c.419.212.779-.417.361-.638C19.144.622,15.147.139,11.382,0a22.909,22.909,0,0,0-5.6.579,21.239,21.239,0,0,0-5.7,1.731.169.169,0,0,0,.091.312A25.553,25.553,0,0,0,5.282,1.483,23.727,23.727,0,0,1,11.023.731Z" transform="translate(3.212 27.762)" fill="#0a481c"/>
            <path id="Trazado_113544" data-name="Trazado 113544" d="M9.279.528c.3-.2.021-.675-.29-.484A48.565,48.565,0,0,1,.077,4.034c-.115.042-.1.233.035.225A14.2,14.2,0,0,0,4.877,2.933,29.225,29.225,0,0,0,9.279.528Z" transform="translate(3.922 42.915)" fill="#0a481c"/>
            <path id="Trazado_113545" data-name="Trazado 113545" d="M.928,1.189c.266-.108.538-.215.8-.336.5-.235,1-.472,1.511-.685A.086.086,0,1,0,3.19,0C2.635.117,2.063.217,1.52.379a5.955,5.955,0,0,0-.809.31,3.617,3.617,0,0,0-.668.476c-.111.089.014.266.137.229C.425,1.32.69,1.285.928,1.189Z" transform="translate(0 47.463)" fill="#0a481c"/>
            <path id="Trazado_113546" data-name="Trazado 113546" d="M.054.325a8.5,8.5,0,0,0,2.73,1.816,6.629,6.629,0,0,1,2.589,2.05.283.283,0,0,0,.485-.29,6.569,6.569,0,0,0-2.51-2.29C2.358,1.034,1.31.529.282.022a.192.192,0,0,0-.228.3Z" transform="translate(34.905 18.23)" fill="#0a481c"/>
            <path id="Trazado_113547" data-name="Trazado 113547" d="M2.68,2.783A15.361,15.361,0,0,1,5.6,1.573a21.747,21.747,0,0,1,6.08-.847,32.35,32.35,0,0,1,11.96,2.345c.127.05.215-.168.09-.225A31.1,31.1,0,0,0,11.353,0,20.506,20.506,0,0,0,5.082.866C3.391,1.385,1.01,2.2.027,3.786a.231.231,0,0,0,.264.332A16.67,16.67,0,0,0,2.68,2.783Z" transform="translate(7.925 13.898)" fill="#0a481c"/>
          </g>
        </g>
        <path id="Rectángulo_33936" data-name="Rectángulo 33936" d="M0,0H1155c46.944,0,85,45.761,85,102.21v50.3H0Z" transform="translate(0.001 40.335)" fill="#deebad"/>
        <g id="Grupo_80262" data-name="Grupo 80262" transform="translate(1135.001 123.767) rotate(-9)">
          <path id="Trazado_113591" data-name="Trazado 113591" d="M26.364.108c-6.639.835-8.483,7.079-7.723,12.93.654,5.029,4.037,9.876,3.725,15-.222,3.642-3.955,2.7-6.474,2.058-3.184-.811-6.487-1.955-9.82-1.7C3.532,28.589.96,29.947.18,32.541c-.665,2.21.609,4.225,2.2,5.659,4.665,4.192,11.827,5.988,17.542,8.137,2.12.8,8.744,1.669,9.283,4.215.375,1.78-3.523,1.885-4.655,1.967-4.212.309-8.412-.241-12.621-.146-2.768.062-9.752.412-9.123,4.68.43,2.9,3.575,5.173,5.9,6.515A71.96,71.96,0,0,0,19.6,68.617a94.9,94.9,0,0,0,14.609,3.819,108.834,108.834,0,0,0,14.45,2.134c2.225.138,4.451.1,6.674.288a1.125,1.125,0,0,0,.807.945,74.411,74.411,0,0,0,13.027,3.085c3.48.445,7.277.387,10.211-1.8,3.332-2.478,5.274-6.657,7.616-9.985,2.155-3.066,4.778-5.96,6.328-9.4,1.591-3.533,3.153-9.647-1.093-12.022-5.4-3.015-11.709,2.447-17.039,3.007-1.3.136-3.513.017-4.062-1.492-.373-1.031.4-2.235.934-3.062a34.579,34.579,0,0,1,6.094-6.5c3.758-3.412,8.295-7.2,5.984-12.9-2.628-6.48-11.2-6.814-16.274-3.173A18.737,18.737,0,0,0,61.9,29.8a31.006,31.006,0,0,0-1.4,4.167c-.638,2.406-2.212,3.574-4.618,2.023-3.675-2.367-4.9-7.927-6.322-11.728A68.21,68.21,0,0,0,43.745,11.68C39.848,5.483,34.47-.912,26.364.108Z" transform="translate(0 0)" fill="#add031"/>
          <g id="Grupo_80153" data-name="Grupo 80153" transform="translate(25.647 10.581)">
            <path id="Trazado_113592" data-name="Trazado 113592" d="M0,.74A49.018,49.018,0,0,0,2.539,12.068,82.126,82.126,0,0,0,7.19,22.061,119.911,119.911,0,0,0,19.681,40.776,124.034,124.034,0,0,0,35.737,56.982q4.1,3.472,8.444,6.659c3.015,2.208,6.39,4.937,10.1,5.764.488.109.934-.512.517-.889-2.634-2.381-6.03-3.97-8.931-6.021-3.033-2.146-5.978-4.437-8.83-6.818A111.573,111.573,0,0,1,22,40.249,120.844,120.844,0,0,1,9.871,22.041C6.272,15.452,2.866,7.967,1.5.538,1.346-.293-.1-.112.006.738Z" fill="#4f9638"/>
          </g>
          <g id="Grupo_80154" data-name="Grupo 80154" transform="translate(70.628 49.079)">
            <path id="Trazado_113593" data-name="Trazado 113593" d="M1.089,20.222c2.148-3.344,4.173-6.768,6.359-10.086C8.516,8.515,9.621,6.92,10.8,5.38c1.239-1.62,2.677-3.14,3.764-4.867.171-.27-.181-.658-.457-.457A20.573,20.573,0,0,0,10.121,4.3c-1.237,1.6-2.4,3.26-3.513,4.951C4.359,12.665,2.291,16.194.093,19.639c-.4.63.6,1.208,1,.584Z" fill="#4f9638"/>
          </g>
          <g id="Grupo_80155" data-name="Grupo 80155" transform="translate(38.159 7.936)">
            <path id="Trazado_113594" data-name="Trazado 113594" d="M5.272,33.336c1.947-5.281,1.541-11.287.6-16.731a68.394,68.394,0,0,0-2.2-9.057C2.917,5.139,2.142,2.18.6.14.4-.129-.095.009.016.387c.7,2.364,1.926,4.6,2.7,6.954A68.927,68.927,0,0,1,4.965,16.1C6,21.6,6.8,27.837,5.037,33.272c-.049.15.181.208.235.064Z" transform="translate(0)" fill="#4f9638"/>
          </g>
          <g id="Grupo_80156" data-name="Grupo 80156" transform="translate(2.336 34.465)">
            <path id="Trazado_113595" data-name="Trazado 113595" d="M35.344,6.315c-3.167-.294-6.271-.4-9.429-.844-3.013-.418-6.058-.578-9.065-1.049a80.51,80.51,0,0,1-9.1-1.91C5.268,1.821,2.92.141.329,0A.338.338,0,0,0,.16.625C5.138,3.8,11.419,4.932,17.175,5.72c2.85.389,5.723.619,8.586.881,3.21.294,6.375.054,9.582.231.335.018.327-.486,0-.517Z" transform="translate(0 0)" fill="#4f9638"/>
          </g>
          <g id="Grupo_80157" data-name="Grupo 80157" transform="translate(8.23 57.266)">
            <path id="Trazado_113596" data-name="Trazado 113596" d="M.233.881c6.707,3.188,14.076,4.461,21.433,5.2a80.632,80.632,0,0,0,11.913.142c1.928-.093,3.856-.216,5.783-.3,1.729-.078,3.671.233,5.223-.6a.491.491,0,0,0,0-.84c-1.373-.7-2.885-.418-4.4-.358-1.928.078-3.856.185-5.783.268a94.5,94.5,0,0,1-11.57-.086A98.687,98.687,0,0,1,.6.021C.1-.138-.255.65.233.881Z" transform="translate(0)" fill="#4f9638"/>
          </g>
          <g id="Grupo_80158" data-name="Grupo 80158" transform="translate(55.152 22.441)">
            <path id="Trazado_113597" data-name="Trazado 113597" d="M.455,33.349c1.432-3.488,2.918-6.9,4.653-10.25a61.161,61.161,0,0,1,6.017-9.09,45.453,45.453,0,0,1,7.7-7.435c1.27-1.035,2.434-2.192,3.721-3.206C23.7,2.461,25.327,1.853,26.327.82a.475.475,0,0,0-.208-.788c-2.653-.416-5.544,3.367-7.3,4.91C17.464,6.136,15.967,7.148,14.658,8.4c-1.461,1.4-2.729,2.974-4.107,4.455A37.549,37.549,0,0,0,4.1,22.189,97.857,97.857,0,0,0,.015,33.228C-.085,33.51.346,33.613.455,33.349Z" fill="#4f9638"/>
          </g>
        </g>
      </g>
    </g>
  </g>
</svg>
