<svg xmlns="http://www.w3.org/2000/svg" xmlns:xlink="http://www.w3.org/1999/xlink" width="719.99" height="276.14" viewBox="0 0 719.99 276.14">
  <defs>
    <clipPath id="clip-path">
      <path id="Trazado_626860" data-name="Trazado 626860" d="M1592.7,856H925.3A26.3,26.3,0,0,1,899,829.7V631.3A26.3,26.3,0,0,1,925.3,605h667.39a26.3,26.3,0,0,1,26.3,26.3V829.7A26.292,26.292,0,0,1,1592.7,856Z"/>
    </clipPath>
  </defs>
  <g id="Grupo_1004902" data-name="Grupo 1004902" transform="translate(98.328 -4789.678)">
    <g id="Grupo_903662" data-name="Grupo 903662" transform="translate(-1371.5 4606.318)">
      <g id="Grupo_903651" data-name="Grupo 903651">
        <g id="Grupo_903492" data-name="Grupo 903492">
          <g id="Grupo_903491" data-name="Grupo 903491">
            <path id="Trazado_626512" data-name="Trazado 626512" d="M1687.48,308.13c0-.3.94-.55,2.1-.55l-.55.55h0v-.21c0-.06.01-.13.01-.21.01-.11.02-.23.03-.39a5.087,5.087,0,0,1,.12-.67c.1-.38.24-.62.39-.62s.29.24.39.62a5.087,5.087,0,0,1,.12.67q.015.24.03.39c0,.08.01.15.01.21v.21h0l-.55.55C1688.42,308.68,1687.48,308.43,1687.48,308.13Z" fill="#e1e1e1"/>
          </g>
        </g>
        <g id="Grupo_903494" data-name="Grupo 903494">
          <g id="Grupo_903493" data-name="Grupo 903493">
            <path id="Trazado_626513" data-name="Trazado 626513" d="M1679.24,308.13c0-.3.92-.55,2.06-.55s2.06.24,2.06.55-.92.55-2.06.55S1679.24,308.43,1679.24,308.13Z" fill="#e1e1e1"/>
          </g>
        </g>
        <g id="Grupo_903496" data-name="Grupo 903496">
          <g id="Grupo_903495" data-name="Grupo 903495">
            <path id="Trazado_626514" data-name="Trazado 626514" d="M1671,308.13c0-.3.92-.55,2.06-.55s2.06.24,2.06.55-.92.55-2.06.55S1671,308.43,1671,308.13Z" fill="#e1e1e1"/>
          </g>
        </g>
        <g id="Grupo_903498" data-name="Grupo 903498">
          <g id="Grupo_903497" data-name="Grupo 903497">
            <ellipse id="Elipse_5265" data-name="Elipse 5265" cx="2.06" cy="0.55" rx="2.06" ry="0.55" transform="translate(1662.76 307.58)" fill="#e1e1e1"/>
          </g>
        </g>
        <g id="Grupo_903500" data-name="Grupo 903500">
          <g id="Grupo_903499" data-name="Grupo 903499">
            <ellipse id="Elipse_5266" data-name="Elipse 5266" cx="2.06" cy="0.55" rx="2.06" ry="0.55" transform="translate(1654.52 307.58)" fill="#e1e1e1"/>
          </g>
        </g>
        <g id="Grupo_903502" data-name="Grupo 903502">
          <g id="Grupo_903501" data-name="Grupo 903501">
            <path id="Trazado_626515" data-name="Trazado 626515" d="M1646.28,308.13c0-.3.92-.55,2.06-.55s2.06.24,2.06.55-.92.55-2.06.55S1646.28,308.43,1646.28,308.13Z" fill="#e1e1e1"/>
          </g>
        </g>
        <g id="Grupo_903504" data-name="Grupo 903504">
          <g id="Grupo_903503" data-name="Grupo 903503">
            <path id="Trazado_626516" data-name="Trazado 626516" d="M1638.04,308.13c0-.3.92-.55,2.06-.55s2.06.24,2.06.55-.92.55-2.06.55S1638.04,308.43,1638.04,308.13Z" fill="#e1e1e1"/>
          </g>
        </g>
        <g id="Grupo_903506" data-name="Grupo 903506">
          <g id="Grupo_903505" data-name="Grupo 903505">
            <path id="Trazado_626517" data-name="Trazado 626517" d="M1629.8,308.13c0-.3.92-.55,2.06-.55s2.06.24,2.06.55-.92.55-2.06.55S1629.8,308.43,1629.8,308.13Z" fill="#e1e1e1"/>
          </g>
        </g>
        <g id="Grupo_903508" data-name="Grupo 903508">
          <g id="Grupo_903507" data-name="Grupo 903507">
            <path id="Trazado_626518" data-name="Trazado 626518" d="M1621.56,308.13c0-.3.92-.55,2.06-.55s2.06.24,2.06.55-.92.55-2.06.55S1621.56,308.43,1621.56,308.13Z" fill="#e1e1e1"/>
          </g>
        </g>
        <g id="Grupo_903510" data-name="Grupo 903510">
          <g id="Grupo_903509" data-name="Grupo 903509">
            <path id="Trazado_626519" data-name="Trazado 626519" d="M1613.32,308.13c0-.3.92-.55,2.06-.55s2.06.24,2.06.55-.92.55-2.06.55S1613.32,308.43,1613.32,308.13Z" fill="#e1e1e1"/>
          </g>
        </g>
        <g id="Grupo_903512" data-name="Grupo 903512">
          <g id="Grupo_903511" data-name="Grupo 903511">
            <path id="Trazado_626520" data-name="Trazado 626520" d="M1605.08,308.13c0-.3.92-.55,2.06-.55s2.06.24,2.06.55-.92.55-2.06.55S1605.08,308.43,1605.08,308.13Z" fill="#e1e1e1"/>
          </g>
        </g>
        <g id="Grupo_903514" data-name="Grupo 903514">
          <g id="Grupo_903513" data-name="Grupo 903513">
            <ellipse id="Elipse_5267" data-name="Elipse 5267" cx="2.06" cy="0.55" rx="2.06" ry="0.55" transform="translate(1596.84 307.58)" fill="#e1e1e1"/>
          </g>
        </g>
        <g id="Grupo_903516" data-name="Grupo 903516">
          <g id="Grupo_903515" data-name="Grupo 903515">
            <ellipse id="Elipse_5268" data-name="Elipse 5268" cx="2.06" cy="0.55" rx="2.06" ry="0.55" transform="translate(1588.6 307.58)" fill="#e1e1e1"/>
          </g>
        </g>
        <g id="Grupo_903518" data-name="Grupo 903518">
          <g id="Grupo_903517" data-name="Grupo 903517">
            <path id="Trazado_626521" data-name="Trazado 626521" d="M1580.36,308.13c0-.3.92-.55,2.06-.55s2.06.24,2.06.55-.92.55-2.06.55S1580.36,308.43,1580.36,308.13Z" fill="#e1e1e1"/>
          </g>
        </g>
        <g id="Grupo_903520" data-name="Grupo 903520">
          <g id="Grupo_903519" data-name="Grupo 903519">
            <path id="Trazado_626522" data-name="Trazado 626522" d="M1572.12,308.13c0-.3.92-.55,2.06-.55s2.06.24,2.06.55-.92.55-2.06.55S1572.12,308.43,1572.12,308.13Z" fill="#e1e1e1"/>
          </g>
        </g>
        <g id="Grupo_903522" data-name="Grupo 903522">
          <g id="Grupo_903521" data-name="Grupo 903521">
            <ellipse id="Elipse_5269" data-name="Elipse 5269" cx="2.06" cy="0.55" rx="2.06" ry="0.55" transform="translate(1563.88 307.58)" fill="#e1e1e1"/>
          </g>
        </g>
        <g id="Grupo_903524" data-name="Grupo 903524">
          <g id="Grupo_903523" data-name="Grupo 903523">
            <ellipse id="Elipse_5270" data-name="Elipse 5270" cx="2.06" cy="0.55" rx="2.06" ry="0.55" transform="translate(1555.64 307.58)" fill="#e1e1e1"/>
          </g>
        </g>
        <g id="Grupo_903526" data-name="Grupo 903526">
          <g id="Grupo_903525" data-name="Grupo 903525">
            <path id="Trazado_626523" data-name="Trazado 626523" d="M1547.4,308.13c0-.3.92-.55,2.06-.55s2.06.24,2.06.55-.92.55-2.06.55S1547.4,308.43,1547.4,308.13Z" fill="#e1e1e1"/>
          </g>
        </g>
        <g id="Grupo_903528" data-name="Grupo 903528">
          <g id="Grupo_903527" data-name="Grupo 903527">
            <path id="Trazado_626524" data-name="Trazado 626524" d="M1539.16,308.13c0-.3.92-.55,2.06-.55s2.06.24,2.06.55-.92.55-2.06.55S1539.16,308.43,1539.16,308.13Z" fill="#e1e1e1"/>
          </g>
        </g>
        <g id="Grupo_903530" data-name="Grupo 903530">
          <g id="Grupo_903529" data-name="Grupo 903529">
            <ellipse id="Elipse_5271" data-name="Elipse 5271" cx="2.06" cy="0.55" rx="2.06" ry="0.55" transform="translate(1530.92 307.58)" fill="#e1e1e1"/>
          </g>
        </g>
        <g id="Grupo_903532" data-name="Grupo 903532">
          <g id="Grupo_903531" data-name="Grupo 903531">
            <path id="Trazado_626525" data-name="Trazado 626525" d="M1522.68,308.13c0-.3.92-.55,2.06-.55s2.06.24,2.06.55-.92.55-2.06.55S1522.68,308.43,1522.68,308.13Z" fill="#e1e1e1"/>
          </g>
        </g>
        <g id="Grupo_903534" data-name="Grupo 903534">
          <g id="Grupo_903533" data-name="Grupo 903533">
            <path id="Trazado_626526" data-name="Trazado 626526" d="M1514.44,308.13c0-.3.92-.55,2.06-.55s2.06.24,2.06.55-.92.55-2.06.55S1514.44,308.43,1514.44,308.13Z" fill="#e1e1e1"/>
          </g>
        </g>
        <g id="Grupo_903536" data-name="Grupo 903536">
          <g id="Grupo_903535" data-name="Grupo 903535">
            <path id="Trazado_626527" data-name="Trazado 626527" d="M1506.19,308.13c0-.3.92-.55,2.06-.55s2.06.24,2.06.55-.92.55-2.06.55S1506.19,308.43,1506.19,308.13Z" fill="#e1e1e1"/>
          </g>
        </g>
        <g id="Grupo_903538" data-name="Grupo 903538">
          <g id="Grupo_903537" data-name="Grupo 903537">
            <ellipse id="Elipse_5272" data-name="Elipse 5272" cx="2.06" cy="0.55" rx="2.06" ry="0.55" transform="translate(1497.95 307.58)" fill="#e1e1e1"/>
          </g>
        </g>
        <g id="Grupo_903540" data-name="Grupo 903540">
          <g id="Grupo_903539" data-name="Grupo 903539">
            <path id="Trazado_626528" data-name="Trazado 626528" d="M1489.71,308.13c0-.3.92-.55,2.06-.55s2.06.24,2.06.55-.92.55-2.06.55S1489.71,308.43,1489.71,308.13Z" fill="#e1e1e1"/>
          </g>
        </g>
        <g id="Grupo_903542" data-name="Grupo 903542">
          <g id="Grupo_903541" data-name="Grupo 903541">
            <path id="Trazado_626529" data-name="Trazado 626529" d="M1481.47,308.13c0-.3.92-.55,2.06-.55s2.06.24,2.06.55-.92.55-2.06.55S1481.47,308.43,1481.47,308.13Z" fill="#e1e1e1"/>
          </g>
        </g>
        <g id="Grupo_903544" data-name="Grupo 903544">
          <g id="Grupo_903543" data-name="Grupo 903543">
            <path id="Trazado_626530" data-name="Trazado 626530" d="M1475.25,306.03c.3,0,.55.94.55,2.1l-.55-.55h.21c.06,0,.13.01.21.01.11.01.23.02.39.03a5.094,5.094,0,0,1,.67.12c.38.1.62.24.62.39s-.24.29-.62.39a5.09,5.09,0,0,1-.67.12q-.24.015-.39.03c-.08,0-.15.01-.21.01h-.21l-.55-.55C1474.71,306.97,1474.95,306.03,1475.25,306.03Z" fill="#e1e1e1"/>
          </g>
        </g>
        <g id="Grupo_903546" data-name="Grupo 903546">
          <g id="Grupo_903545" data-name="Grupo 903545">
            <path id="Trazado_626531" data-name="Trazado 626531" d="M1475.25,297.32c.3,0,.55.97.55,2.18s-.24,2.18-.55,2.18-.55-.97-.55-2.18S1474.95,297.32,1475.25,297.32Z" fill="#e1e1e1"/>
          </g>
        </g>
        <g id="Grupo_903548" data-name="Grupo 903548">
          <g id="Grupo_903547" data-name="Grupo 903547">
            <path id="Trazado_626532" data-name="Trazado 626532" d="M1475.25,288.61c.3,0,.55.97.55,2.18s-.24,2.18-.55,2.18-.55-.97-.55-2.18S1474.95,288.61,1475.25,288.61Z" fill="#e1e1e1"/>
          </g>
        </g>
        <g id="Grupo_903550" data-name="Grupo 903550">
          <g id="Grupo_903549" data-name="Grupo 903549">
            <ellipse id="Elipse_5273" data-name="Elipse 5273" cx="0.55" cy="2.18" rx="0.55" ry="2.18" transform="translate(1474.7 279.9)" fill="#e1e1e1"/>
          </g>
        </g>
        <g id="Grupo_903552" data-name="Grupo 903552">
          <g id="Grupo_903551" data-name="Grupo 903551">
            <ellipse id="Elipse_5274" data-name="Elipse 5274" cx="0.55" cy="2.18" rx="0.55" ry="2.18" transform="translate(1474.7 271.19)" fill="#e1e1e1"/>
          </g>
        </g>
        <g id="Grupo_903554" data-name="Grupo 903554">
          <g id="Grupo_903553" data-name="Grupo 903553">
            <path id="Trazado_626533" data-name="Trazado 626533" d="M1475.25,262.49c.3,0,.55.97.55,2.18s-.24,2.18-.55,2.18-.55-.97-.55-2.18S1474.95,262.49,1475.25,262.49Z" fill="#e1e1e1"/>
          </g>
        </g>
        <g id="Grupo_903556" data-name="Grupo 903556">
          <g id="Grupo_903555" data-name="Grupo 903555">
            <path id="Trazado_626534" data-name="Trazado 626534" d="M1475.25,253.78c.3,0,.55.97.55,2.18s-.24,2.18-.55,2.18-.55-.97-.55-2.18S1474.95,253.78,1475.25,253.78Z" fill="#e1e1e1"/>
          </g>
        </g>
        <g id="Grupo_903558" data-name="Grupo 903558">
          <g id="Grupo_903557" data-name="Grupo 903557">
            <path id="Trazado_626535" data-name="Trazado 626535" d="M1475.25,245.07c.3,0,.55.97.55,2.18s-.24,2.18-.55,2.18-.55-.97-.55-2.18S1474.95,245.07,1475.25,245.07Z" fill="#e1e1e1"/>
          </g>
        </g>
        <g id="Grupo_903560" data-name="Grupo 903560">
          <g id="Grupo_903559" data-name="Grupo 903559">
            <ellipse id="Elipse_5275" data-name="Elipse 5275" cx="0.55" cy="2.18" rx="0.55" ry="2.18" transform="translate(1474.7 236.36)" fill="#e1e1e1"/>
          </g>
        </g>
        <g id="Grupo_903562" data-name="Grupo 903562">
          <g id="Grupo_903561" data-name="Grupo 903561">
            <ellipse id="Elipse_5276" data-name="Elipse 5276" cx="0.55" cy="2.18" rx="0.55" ry="2.18" transform="translate(1474.7 227.65)" fill="#e1e1e1"/>
          </g>
        </g>
        <g id="Grupo_903564" data-name="Grupo 903564">
          <g id="Grupo_903563" data-name="Grupo 903563">
            <ellipse id="Elipse_5277" data-name="Elipse 5277" cx="0.55" cy="2.18" rx="0.55" ry="2.18" transform="translate(1474.7 218.94)" fill="#e1e1e1"/>
          </g>
        </g>
        <g id="Grupo_903566" data-name="Grupo 903566">
          <g id="Grupo_903565" data-name="Grupo 903565">
            <path id="Trazado_626536" data-name="Trazado 626536" d="M1475.25,210.24c.3,0,.55.97.55,2.18s-.24,2.18-.55,2.18-.55-.97-.55-2.18S1474.95,210.24,1475.25,210.24Z" fill="#e1e1e1"/>
          </g>
        </g>
        <g id="Grupo_903568" data-name="Grupo 903568">
          <g id="Grupo_903567" data-name="Grupo 903567">
            <path id="Trazado_626537" data-name="Trazado 626537" d="M1475.25,201.53c.3,0,.55.97.55,2.18s-.24,2.18-.55,2.18-.55-.97-.55-2.18S1474.95,201.53,1475.25,201.53Z" fill="#e1e1e1"/>
          </g>
        </g>
        <g id="Grupo_903570" data-name="Grupo 903570">
          <g id="Grupo_903569" data-name="Grupo 903569">
            <path id="Trazado_626538" data-name="Trazado 626538" d="M1475.25,192.82c.3,0,.55.97.55,2.18s-.24,2.18-.55,2.18-.55-.97-.55-2.18S1474.95,192.82,1475.25,192.82Z" fill="#e1e1e1"/>
          </g>
        </g>
        <g id="Grupo_903572" data-name="Grupo 903572">
          <g id="Grupo_903571" data-name="Grupo 903571">
            <path id="Trazado_626539" data-name="Trazado 626539" d="M1477.35,186.36c0,.3-.94.55-2.1.55l.55-.55h0v.21c0,.06-.01.13-.01.21-.01.11-.02.23-.03.39a5.086,5.086,0,0,1-.12.67c-.1.38-.24.62-.39.62s-.29-.24-.39-.62a5.086,5.086,0,0,1-.12-.67q-.015-.24-.03-.39c0-.08-.01-.15-.01-.21v-.21h0l.55-.55C1476.41,185.82,1477.35,186.06,1477.35,186.36Z" fill="#e1e1e1"/>
          </g>
        </g>
        <g id="Grupo_903574" data-name="Grupo 903574">
          <g id="Grupo_903573" data-name="Grupo 903573">
            <ellipse id="Elipse_5278" data-name="Elipse 5278" cx="2.06" cy="0.55" rx="2.06" ry="0.55" transform="translate(1481.47 185.81)" fill="#e1e1e1"/>
          </g>
        </g>
        <g id="Grupo_903576" data-name="Grupo 903576">
          <g id="Grupo_903575" data-name="Grupo 903575">
            <path id="Trazado_626540" data-name="Trazado 626540" d="M1493.83,186.36c0,.3-.92.55-2.06.55s-2.06-.25-2.06-.55.92-.55,2.06-.55S1493.83,186.06,1493.83,186.36Z" fill="#e1e1e1"/>
          </g>
        </g>
        <g id="Grupo_903578" data-name="Grupo 903578">
          <g id="Grupo_903577" data-name="Grupo 903577">
            <path id="Trazado_626541" data-name="Trazado 626541" d="M1502.07,186.36c0,.3-.92.55-2.06.55s-2.06-.25-2.06-.55.92-.55,2.06-.55S1502.07,186.06,1502.07,186.36Z" fill="#e1e1e1"/>
          </g>
        </g>
        <g id="Grupo_903580" data-name="Grupo 903580">
          <g id="Grupo_903579" data-name="Grupo 903579">
            <ellipse id="Elipse_5279" data-name="Elipse 5279" cx="2.06" cy="0.55" rx="2.06" ry="0.55" transform="translate(1506.19 185.81)" fill="#e1e1e1"/>
          </g>
        </g>
        <g id="Grupo_903582" data-name="Grupo 903582">
          <g id="Grupo_903581" data-name="Grupo 903581">
            <path id="Trazado_626542" data-name="Trazado 626542" d="M1518.56,186.36c0,.3-.92.55-2.06.55s-2.06-.25-2.06-.55.92-.55,2.06-.55S1518.56,186.06,1518.56,186.36Z" fill="#e1e1e1"/>
          </g>
        </g>
        <g id="Grupo_903584" data-name="Grupo 903584">
          <g id="Grupo_903583" data-name="Grupo 903583">
            <path id="Trazado_626543" data-name="Trazado 626543" d="M1526.8,186.36c0,.3-.92.55-2.06.55s-2.06-.25-2.06-.55.92-.55,2.06-.55S1526.8,186.06,1526.8,186.36Z" fill="#e1e1e1"/>
          </g>
        </g>
        <g id="Grupo_903586" data-name="Grupo 903586">
          <g id="Grupo_903585" data-name="Grupo 903585">
            <ellipse id="Elipse_5280" data-name="Elipse 5280" cx="2.06" cy="0.55" rx="2.06" ry="0.55" transform="translate(1530.92 185.81)" fill="#e1e1e1"/>
          </g>
        </g>
        <g id="Grupo_903588" data-name="Grupo 903588">
          <g id="Grupo_903587" data-name="Grupo 903587">
            <ellipse id="Elipse_5281" data-name="Elipse 5281" cx="2.06" cy="0.55" rx="2.06" ry="0.55" transform="translate(1539.16 185.81)" fill="#e1e1e1"/>
          </g>
        </g>
        <g id="Grupo_903590" data-name="Grupo 903590">
          <g id="Grupo_903589" data-name="Grupo 903589">
            <path id="Trazado_626544" data-name="Trazado 626544" d="M1551.52,186.36c0,.3-.92.55-2.06.55s-2.06-.25-2.06-.55.92-.55,2.06-.55S1551.52,186.06,1551.52,186.36Z" fill="#e1e1e1"/>
          </g>
        </g>
        <g id="Grupo_903592" data-name="Grupo 903592">
          <g id="Grupo_903591" data-name="Grupo 903591">
            <path id="Trazado_626545" data-name="Trazado 626545" d="M1559.76,186.36c0,.3-.92.55-2.06.55s-2.06-.25-2.06-.55.92-.55,2.06-.55S1559.76,186.06,1559.76,186.36Z" fill="#e1e1e1"/>
          </g>
        </g>
        <g id="Grupo_903594" data-name="Grupo 903594">
          <g id="Grupo_903593" data-name="Grupo 903593">
            <path id="Trazado_626546" data-name="Trazado 626546" d="M1568,186.36c0,.3-.92.55-2.06.55s-2.06-.25-2.06-.55.92-.55,2.06-.55S1568,186.06,1568,186.36Z" fill="#e1e1e1"/>
          </g>
        </g>
        <g id="Grupo_903596" data-name="Grupo 903596">
          <g id="Grupo_903595" data-name="Grupo 903595">
            <path id="Trazado_626547" data-name="Trazado 626547" d="M1576.24,186.36c0,.3-.92.55-2.06.55s-2.06-.25-2.06-.55.92-.55,2.06-.55S1576.24,186.06,1576.24,186.36Z" fill="#e1e1e1"/>
          </g>
        </g>
        <g id="Grupo_903598" data-name="Grupo 903598">
          <g id="Grupo_903597" data-name="Grupo 903597">
            <path id="Trazado_626548" data-name="Trazado 626548" d="M1584.48,186.36c0,.3-.92.55-2.06.55s-2.06-.25-2.06-.55.92-.55,2.06-.55S1584.48,186.06,1584.48,186.36Z" fill="#e1e1e1"/>
          </g>
        </g>
        <g id="Grupo_903600" data-name="Grupo 903600">
          <g id="Grupo_903599" data-name="Grupo 903599">
            <path id="Trazado_626549" data-name="Trazado 626549" d="M1592.72,186.36c0,.3-.92.55-2.06.55s-2.06-.25-2.06-.55.92-.55,2.06-.55S1592.72,186.06,1592.72,186.36Z" fill="#e1e1e1"/>
          </g>
        </g>
        <g id="Grupo_903602" data-name="Grupo 903602">
          <g id="Grupo_903601" data-name="Grupo 903601">
            <path id="Trazado_626550" data-name="Trazado 626550" d="M1600.96,186.36c0,.3-.92.55-2.06.55s-2.06-.25-2.06-.55.92-.55,2.06-.55S1600.96,186.06,1600.96,186.36Z" fill="#e1e1e1"/>
          </g>
        </g>
        <g id="Grupo_903604" data-name="Grupo 903604">
          <g id="Grupo_903603" data-name="Grupo 903603">
            <ellipse id="Elipse_5282" data-name="Elipse 5282" cx="2.06" cy="0.55" rx="2.06" ry="0.55" transform="translate(1605.08 185.81)" fill="#e1e1e1"/>
          </g>
        </g>
        <g id="Grupo_903606" data-name="Grupo 903606">
          <g id="Grupo_903605" data-name="Grupo 903605">
            <path id="Trazado_626551" data-name="Trazado 626551" d="M1617.44,186.36c0,.3-.92.55-2.06.55s-2.06-.25-2.06-.55.92-.55,2.06-.55S1617.44,186.06,1617.44,186.36Z" fill="#e1e1e1"/>
          </g>
        </g>
        <g id="Grupo_903608" data-name="Grupo 903608">
          <g id="Grupo_903607" data-name="Grupo 903607">
            <path id="Trazado_626552" data-name="Trazado 626552" d="M1625.68,186.36c0,.3-.92.55-2.06.55s-2.06-.25-2.06-.55.92-.55,2.06-.55S1625.68,186.06,1625.68,186.36Z" fill="#e1e1e1"/>
          </g>
        </g>
        <g id="Grupo_903610" data-name="Grupo 903610">
          <g id="Grupo_903609" data-name="Grupo 903609">
            <ellipse id="Elipse_5283" data-name="Elipse 5283" cx="2.06" cy="0.55" rx="2.06" ry="0.55" transform="translate(1629.8 185.81)" fill="#e1e1e1"/>
          </g>
        </g>
        <g id="Grupo_903612" data-name="Grupo 903612">
          <g id="Grupo_903611" data-name="Grupo 903611">
            <ellipse id="Elipse_5284" data-name="Elipse 5284" cx="2.06" cy="0.55" rx="2.06" ry="0.55" transform="translate(1638.04 185.81)" fill="#e1e1e1"/>
          </g>
        </g>
        <g id="Grupo_903614" data-name="Grupo 903614">
          <g id="Grupo_903613" data-name="Grupo 903613">
            <path id="Trazado_626553" data-name="Trazado 626553" d="M1650.4,186.36c0,.3-.92.55-2.06.55s-2.06-.25-2.06-.55.92-.55,2.06-.55S1650.4,186.06,1650.4,186.36Z" fill="#e1e1e1"/>
          </g>
        </g>
        <g id="Grupo_903616" data-name="Grupo 903616">
          <g id="Grupo_903615" data-name="Grupo 903615">
            <path id="Trazado_626554" data-name="Trazado 626554" d="M1658.64,186.36c0,.3-.92.55-2.06.55s-2.06-.25-2.06-.55.92-.55,2.06-.55S1658.64,186.06,1658.64,186.36Z" fill="#e1e1e1"/>
          </g>
        </g>
        <g id="Grupo_903618" data-name="Grupo 903618">
          <g id="Grupo_903617" data-name="Grupo 903617">
            <ellipse id="Elipse_5285" data-name="Elipse 5285" cx="2.06" cy="0.55" rx="2.06" ry="0.55" transform="translate(1662.76 185.81)" fill="#e1e1e1"/>
          </g>
        </g>
        <g id="Grupo_903620" data-name="Grupo 903620">
          <g id="Grupo_903619" data-name="Grupo 903619">
            <path id="Trazado_626555" data-name="Trazado 626555" d="M1675.12,186.36c0,.3-.92.55-2.06.55s-2.06-.25-2.06-.55.92-.55,2.06-.55S1675.12,186.06,1675.12,186.36Z" fill="#e1e1e1"/>
          </g>
        </g>
        <g id="Grupo_903622" data-name="Grupo 903622">
          <g id="Grupo_903621" data-name="Grupo 903621">
            <path id="Trazado_626556" data-name="Trazado 626556" d="M1683.36,186.36c0,.3-.92.55-2.06.55s-2.06-.25-2.06-.55.92-.55,2.06-.55S1683.36,186.06,1683.36,186.36Z" fill="#e1e1e1"/>
          </g>
        </g>
        <g id="Grupo_903624" data-name="Grupo 903624">
          <g id="Grupo_903623" data-name="Grupo 903623">
            <path id="Trazado_626557" data-name="Trazado 626557" d="M1689.58,188.47c-.3,0-.55-.94-.55-2.1l.55.55h-.21c-.06,0-.13-.01-.21-.01-.11-.01-.23-.02-.39-.03a5.094,5.094,0,0,1-.67-.12c-.38-.1-.62-.24-.62-.39s.24-.29.62-.39a5.088,5.088,0,0,1,.67-.12q.24-.015.39-.03c.08,0,.15-.01.21-.01h.21l.55.55C1690.13,187.52,1689.89,188.47,1689.58,188.47Z" fill="#e1e1e1"/>
          </g>
        </g>
        <g id="Grupo_903626" data-name="Grupo 903626">
          <g id="Grupo_903625" data-name="Grupo 903625">
            <path id="Trazado_626558" data-name="Trazado 626558" d="M1689.58,197.17c-.3,0-.55-.97-.55-2.18s.25-2.18.55-2.18.55.97.55,2.18S1689.89,197.17,1689.58,197.17Z" fill="#e1e1e1"/>
          </g>
        </g>
        <g id="Grupo_903628" data-name="Grupo 903628">
          <g id="Grupo_903627" data-name="Grupo 903627">
            <path id="Trazado_626559" data-name="Trazado 626559" d="M1689.58,205.88c-.3,0-.55-.97-.55-2.18s.25-2.18.55-2.18.55.97.55,2.18S1689.89,205.88,1689.58,205.88Z" fill="#e1e1e1"/>
          </g>
        </g>
        <g id="Grupo_903630" data-name="Grupo 903630">
          <g id="Grupo_903629" data-name="Grupo 903629">
            <path id="Trazado_626560" data-name="Trazado 626560" d="M1689.58,214.59c-.3,0-.55-.97-.55-2.18s.25-2.18.55-2.18.55.97.55,2.18S1689.89,214.59,1689.58,214.59Z" fill="#e1e1e1"/>
          </g>
        </g>
        <g id="Grupo_903632" data-name="Grupo 903632">
          <g id="Grupo_903631" data-name="Grupo 903631">
            <path id="Trazado_626561" data-name="Trazado 626561" d="M1689.58,223.3c-.3,0-.55-.97-.55-2.18s.25-2.18.55-2.18.55.97.55,2.18S1689.89,223.3,1689.58,223.3Z" fill="#e1e1e1"/>
          </g>
        </g>
        <g id="Grupo_903634" data-name="Grupo 903634">
          <g id="Grupo_903633" data-name="Grupo 903633">
            <path id="Trazado_626562" data-name="Trazado 626562" d="M1689.58,232.01c-.3,0-.55-.97-.55-2.18s.25-2.18.55-2.18.55.97.55,2.18S1689.89,232.01,1689.58,232.01Z" fill="#e1e1e1"/>
          </g>
        </g>
        <g id="Grupo_903636" data-name="Grupo 903636">
          <g id="Grupo_903635" data-name="Grupo 903635">
            <path id="Trazado_626563" data-name="Trazado 626563" d="M1689.58,240.71c-.3,0-.55-.97-.55-2.18s.25-2.18.55-2.18.55.97.55,2.18S1689.89,240.71,1689.58,240.71Z" fill="#e1e1e1"/>
          </g>
        </g>
        <g id="Grupo_903638" data-name="Grupo 903638">
          <g id="Grupo_903637" data-name="Grupo 903637">
            <path id="Trazado_626564" data-name="Trazado 626564" d="M1689.58,249.42c-.3,0-.55-.97-.55-2.18s.25-2.18.55-2.18.55.97.55,2.18S1689.89,249.42,1689.58,249.42Z" fill="#e1e1e1"/>
          </g>
        </g>
        <g id="Grupo_903640" data-name="Grupo 903640">
          <g id="Grupo_903639" data-name="Grupo 903639">
            <path id="Trazado_626565" data-name="Trazado 626565" d="M1689.58,258.13c-.3,0-.55-.97-.55-2.18s.25-2.18.55-2.18.55.97.55,2.18S1689.89,258.13,1689.58,258.13Z" fill="#e1e1e1"/>
          </g>
        </g>
        <g id="Grupo_903642" data-name="Grupo 903642">
          <g id="Grupo_903641" data-name="Grupo 903641">
            <path id="Trazado_626566" data-name="Trazado 626566" d="M1689.58,266.84c-.3,0-.55-.97-.55-2.18s.25-2.18.55-2.18.55.97.55,2.18S1689.89,266.84,1689.58,266.84Z" fill="#e1e1e1"/>
          </g>
        </g>
        <g id="Grupo_903644" data-name="Grupo 903644">
          <g id="Grupo_903643" data-name="Grupo 903643">
            <path id="Trazado_626567" data-name="Trazado 626567" d="M1689.58,275.55c-.3,0-.55-.97-.55-2.18s.25-2.18.55-2.18.55.97.55,2.18S1689.89,275.55,1689.58,275.55Z" fill="#e1e1e1"/>
          </g>
        </g>
        <g id="Grupo_903646" data-name="Grupo 903646">
          <g id="Grupo_903645" data-name="Grupo 903645">
            <path id="Trazado_626568" data-name="Trazado 626568" d="M1689.58,284.26c-.3,0-.55-.97-.55-2.18s.25-2.18.55-2.18.55.97.55,2.18S1689.89,284.26,1689.58,284.26Z" fill="#e1e1e1"/>
          </g>
        </g>
        <g id="Grupo_903648" data-name="Grupo 903648">
          <g id="Grupo_903647" data-name="Grupo 903647">
            <path id="Trazado_626569" data-name="Trazado 626569" d="M1689.58,292.96c-.3,0-.55-.97-.55-2.18s.25-2.18.55-2.18.55.97.55,2.18S1689.89,292.96,1689.58,292.96Z" fill="#e1e1e1"/>
          </g>
        </g>
        <g id="Grupo_903650" data-name="Grupo 903650">
          <g id="Grupo_903649" data-name="Grupo 903649">
            <path id="Trazado_626570" data-name="Trazado 626570" d="M1689.58,301.67c-.3,0-.55-.97-.55-2.18s.25-2.18.55-2.18.55.97.55,2.18S1689.89,301.67,1689.58,301.67Z" fill="#e1e1e1"/>
          </g>
        </g>
      </g>
      <g id="Grupo_903653" data-name="Grupo 903653">
        <g id="Grupo_903652" data-name="Grupo 903652">
          <path id="Trazado_626571" data-name="Trazado 626571" d="M1490.98,249.99" fill="none" stroke="#ffa7ad" stroke-miterlimit="10" stroke-width="0.05"/>
        </g>
      </g>
      <g id="Grupo_903654" data-name="Grupo 903654">
        <rect id="Rectángulo_329889" data-name="Rectángulo 329889" width="6.02" height="6.02" transform="translate(1472.24 305.12)" fill="#e1e1e1"/>
      </g>
      <g id="Grupo_903655" data-name="Grupo 903655">
        <rect id="Rectángulo_329890" data-name="Rectángulo 329890" width="6.02" height="6.02" transform="translate(1472.24 183.36)" fill="#e1e1e1"/>
      </g>
      <g id="Grupo_903656" data-name="Grupo 903656">
        <rect id="Rectángulo_329891" data-name="Rectángulo 329891" width="6.02" height="6.02" transform="translate(1686.58 183.36)" fill="#e1e1e1"/>
      </g>
      <g id="Grupo_903657" data-name="Grupo 903657">
        <rect id="Rectángulo_329892" data-name="Rectángulo 329892" width="6.02" height="6.02" transform="translate(1686.58 305.12)" fill="#e1e1e1"/>
      </g>
      <g id="Grupo_903658" data-name="Grupo 903658">
        <rect id="Rectángulo_329893" data-name="Rectángulo 329893" width="6.02" height="6.02" transform="translate(1579.41 305.12)" fill="#e1e1e1"/>
      </g>
      <g id="Grupo_903659" data-name="Grupo 903659">
        <rect id="Rectángulo_329894" data-name="Rectángulo 329894" width="6.02" height="6.02" transform="translate(1582.42 183.36)" fill="#e1e1e1"/>
      </g>
      <g id="Grupo_903660" data-name="Grupo 903660">
        <rect id="Rectángulo_329895" data-name="Rectángulo 329895" width="6.02" height="6.02" transform="translate(1472.24 242.08)" fill="#e1e1e1"/>
      </g>
      <g id="Grupo_903661" data-name="Grupo 903661">
        <rect id="Rectángulo_329896" data-name="Rectángulo 329896" width="6.02" height="6.02" transform="translate(1686.58 242.07)" fill="#e1e1e1"/>
      </g>
    </g>
    <g id="Grupo_904438" data-name="Grupo 904438" transform="translate(-997.328 4209.818)">
      <g id="Grupo_904336" data-name="Grupo 904336" clip-path="url(#clip-path)">
        <path id="Trazado_626859" data-name="Trazado 626859" d="M1594.2,857.5H926.8a26.3,26.3,0,0,1-26.3-26.3V680.8a26.3,26.3,0,0,1,26.3-26.3h667.39a26.3,26.3,0,0,1,26.3,26.3V831.2A26.292,26.292,0,0,1,1594.2,857.5Z" fill="#cee284"/>
      </g>
      <g id="Grupo_904371" data-name="Grupo 904371" clip-path="url(#clip-path)">
        <path id="Trazado_626861" data-name="Trazado 626861" d="M1219.52,1020.01c-88.91,0-161.25-72.34-161.25-161.25s72.34-161.25,161.25-161.25,161.25,72.34,161.25,161.25S1308.43,1020.01,1219.52,1020.01Zm0-321.06c-88.12,0-159.8,71.69-159.8,159.8s71.69,159.81,159.8,159.81,159.81-71.69,159.81-159.81S1307.63,698.95,1219.52,698.95Z" fill="#ececec"/>
        <path id="Trazado_626862" data-name="Trazado 626862" d="M1219.52,1002.53c-79.28,0-143.77-64.5-143.77-143.77s64.5-143.77,143.77-143.77,143.77,64.5,143.77,143.77S1298.79,1002.53,1219.52,1002.53Zm0-286.1c-78.48,0-142.33,63.85-142.33,142.33s63.85,142.33,142.33,142.33,142.33-63.85,142.33-142.33S1297.99,716.43,1219.52,716.43Z" fill="#ececec"/>
        <g id="Grupo_904353" data-name="Grupo 904353">
          <g id="Grupo_904338" data-name="Grupo 904338">
            <g id="Grupo_904337" data-name="Grupo 904337">
              <rect id="Rectángulo_329921" data-name="Rectángulo 329921" width="1.45" height="26.6" transform="translate(1119.437 612.964) rotate(-21.999)" fill="#ececec"/>
              <rect id="Rectángulo_329922" data-name="Rectángulo 329922" width="1.45" height="43.87" transform="translate(1133.819 648.565) rotate(-21.999)" fill="#ececec"/>
            </g>
          </g>
          <g id="Grupo_904340" data-name="Grupo 904340">
            <g id="Grupo_904339" data-name="Grupo 904339">
              <rect id="Rectángulo_329923" data-name="Rectángulo 329923" width="1.45" height="26.6" transform="translate(974.896 755.701) rotate(-67.002)" fill="#ececec"/>
              <rect id="Rectángulo_329924" data-name="Rectángulo 329924" width="1.45" height="43.87" transform="translate(1010.23 770.704) rotate(-67.002)" fill="#ececec"/>
            </g>
          </g>
          <g id="Grupo_904342" data-name="Grupo 904342">
            <g id="Grupo_904341" data-name="Grupo 904341">
              <rect id="Rectángulo_329925" data-name="Rectángulo 329925" width="26.6" height="1.45" transform="translate(973.178 957.52) rotate(-21.999)" fill="#ececec"/>
              <rect id="Rectángulo_329926" data-name="Rectángulo 329926" width="43.87" height="1.45" transform="translate(1008.763 943.161) rotate(-21.999)" fill="#ececec"/>
            </g>
          </g>
          <g id="Grupo_904344" data-name="Grupo 904344">
            <g id="Grupo_904343" data-name="Grupo 904343">
              <rect id="Rectángulo_329927" data-name="Rectángulo 329927" width="26.6" height="1.45" transform="translate(1115.109 1102.753) rotate(-67.002)" fill="#ececec"/>
              <rect id="Rectángulo_329928" data-name="Rectángulo 329928" width="43.87" height="1.45" transform="translate(1130.104 1067.417) rotate(-67.002)" fill="#ececec"/>
            </g>
          </g>
          <g id="Grupo_904346" data-name="Grupo 904346">
            <g id="Grupo_904345" data-name="Grupo 904345">
              <rect id="Rectángulo_329929" data-name="Rectángulo 329929" width="1.45" height="26.6" transform="translate(1308.319 1080.47) rotate(-21.999)" fill="#ececec"/>
              <rect id="Rectángulo_329930" data-name="Rectángulo 329930" width="1.45" height="43.87" transform="translate(1287.465 1028.876) rotate(-21.999)" fill="#ececec"/>
            </g>
          </g>
          <g id="Grupo_904348" data-name="Grupo 904348">
            <g id="Grupo_904347" data-name="Grupo 904347">
              <rect id="Rectángulo_329931" data-name="Rectángulo 329931" width="1.45" height="26.6" transform="translate(1439.012 952.714) rotate(-67.002)" fill="#ececec"/>
              <rect id="Rectángulo_329932" data-name="Rectángulo 329932" width="1.45" height="43.87" transform="translate(1387.78 930.962) rotate(-67.002)" fill="#ececec"/>
            </g>
          </g>
          <g id="Grupo_904350" data-name="Grupo 904350">
            <g id="Grupo_904349" data-name="Grupo 904349">
              <rect id="Rectángulo_329933" data-name="Rectángulo 329933" width="26.6" height="1.45" transform="translate(1440.686 768.638) rotate(-21.999)" fill="#ececec"/>
              <rect id="Rectángulo_329934" data-name="Rectángulo 329934" width="43.87" height="1.45" transform="translate(1389.071 789.501) rotate(-21.999)" fill="#ececec"/>
            </g>
          </g>
          <g id="Grupo_904352" data-name="Grupo 904352">
            <g id="Grupo_904351" data-name="Grupo 904351">
              <rect id="Rectángulo_329935" data-name="Rectángulo 329935" width="26.6" height="1.45" transform="translate(1312.108 638.632) rotate(-67.002)" fill="#ececec"/>
              <rect id="Rectángulo_329936" data-name="Rectángulo 329936" width="43.87" height="1.45" transform="translate(1290.37 689.871) rotate(-67.002)" fill="#ececec"/>
            </g>
          </g>
        </g>
        <g id="Grupo_904370" data-name="Grupo 904370">
          <g id="Grupo_904355" data-name="Grupo 904355">
            <g id="Grupo_904354" data-name="Grupo 904354">
              <rect id="Rectángulo_329937" data-name="Rectángulo 329937" width="1.45" height="65.42" transform="translate(1218.79 572.72)" fill="#ececec"/>
              <rect id="Rectángulo_329938" data-name="Rectángulo 329938" width="1.45" height="22.72" transform="translate(1218.79 652.89)" fill="#ececec"/>
            </g>
          </g>
          <g id="Grupo_904357" data-name="Grupo 904357">
            <g id="Grupo_904356" data-name="Grupo 904356">
              <rect id="Rectángulo_329939" data-name="Rectángulo 329939" width="1.45" height="65.42" transform="translate(1016.728 657.009) rotate(-45)" fill="#ececec"/>
              <rect id="Rectángulo_329940" data-name="Rectángulo 329940" width="1.45" height="22.72" transform="translate(1073.423 713.709) rotate(-45)" fill="#ececec"/>
            </g>
          </g>
          <g id="Grupo_904359" data-name="Grupo 904359">
            <g id="Grupo_904358" data-name="Grupo 904358">
              <rect id="Rectángulo_329941" data-name="Rectángulo 329941" width="65.42" height="1.45" transform="translate(933.48 858.03)" fill="#ececec"/>
              <rect id="Rectángulo_329942" data-name="Rectángulo 329942" width="22.72" height="1.45" transform="translate(1013.65 858.03)" fill="#ececec"/>
            </g>
          </g>
          <g id="Grupo_904361" data-name="Grupo 904361">
            <g id="Grupo_904360" data-name="Grupo 904360">
              <rect id="Rectángulo_329943" data-name="Rectángulo 329943" width="65.42" height="1.45" transform="translate(1016.734 1060.499) rotate(-45)" fill="#ececec"/>
              <rect id="Rectángulo_329944" data-name="Rectángulo 329944" width="22.72" height="1.45" transform="translate(1073.42 1003.805) rotate(-45)" fill="#ececec"/>
            </g>
          </g>
          <g id="Grupo_904363" data-name="Grupo 904363">
            <g id="Grupo_904362" data-name="Grupo 904362">
              <rect id="Rectángulo_329945" data-name="Rectángulo 329945" width="1.45" height="65.42" transform="translate(1218.79 1079.37)" fill="#ececec"/>
              <rect id="Rectángulo_329946" data-name="Rectángulo 329946" width="1.45" height="22.72" transform="translate(1218.79 1041.91)" fill="#ececec"/>
            </g>
          </g>
          <g id="Grupo_904365" data-name="Grupo 904365">
            <g id="Grupo_904364" data-name="Grupo 904364">
              <rect id="Rectángulo_329947" data-name="Rectángulo 329947" width="1.45" height="65.42" transform="translate(1374.984 1015.267) rotate(-45)" fill="#ececec"/>
              <rect id="Rectángulo_329948" data-name="Rectángulo 329948" width="1.45" height="22.72" transform="translate(1348.496 988.767) rotate(-45)" fill="#ececec"/>
            </g>
          </g>
          <g id="Grupo_904367" data-name="Grupo 904367">
            <g id="Grupo_904366" data-name="Grupo 904366">
              <rect id="Rectángulo_329949" data-name="Rectángulo 329949" width="65.42" height="1.45" transform="translate(1440.13 858.03)" fill="#ececec"/>
              <rect id="Rectángulo_329950" data-name="Rectángulo 329950" width="22.72" height="1.45" transform="translate(1402.67 858.03)" fill="#ececec"/>
            </g>
          </g>
          <g id="Grupo_904369" data-name="Grupo 904369">
            <g id="Grupo_904368" data-name="Grupo 904368">
              <rect id="Rectángulo_329951" data-name="Rectángulo 329951" width="65.42" height="1.45" transform="translate(1374.985 702.25) rotate(-45)" fill="#ececec"/>
              <rect id="Rectángulo_329952" data-name="Rectángulo 329952" width="22.72" height="1.45" transform="translate(1348.503 728.749) rotate(-45)" fill="#ececec"/>
            </g>
          </g>
        </g>
        <circle id="Elipse_5290" data-name="Elipse 5290" cx="3.3" cy="3.3" r="3.3" transform="translate(1216.22 855.45)" fill="#ececec"/>
      </g>
      <g id="Grupo_904436" data-name="Grupo 904436" clip-path="url(#clip-path)">
        <g id="Grupo_904372" data-name="Grupo 904372">
          <path id="Trazado_626864" data-name="Trazado 626864" d="M1254.54,892.16c-11.94,6.78-19.87,18.74-30.36,27.38-4.37,3.59-8.74,6.72-14.5,5.08-2.59-.74-4.76-2.4-7.2-3.48-5.08-2.22-10.24-1.75-15.24.31-7.29,3.01-12.84,9.01-19.22,13.51a43.713,43.713,0,0,1-17.36,7.48c-11.97,2.25-24.61-.28-35.4-5.87-6.62-3.42-12.32-8.34-18.75-12.08-6.08-3.53-44.27-10.4-51.81-30.12-4.78-12.5-5.07-27.03,9.58-46.45,2.93-3.88,6.23-7.61,6.37-12.73.14-4.34-1.91-7.98-3.64-11.8-1.95-4.29-4.05-8.74-3.14-13.6.91-4.9,4.67-8.36,7.56-12.11,5.43-7.03,3.73-16.72-1.83-28.45-4.75-10.01-3.48-21.64,1.84-31.04,3.24-5.72,8.02-10.03,12.59-14.68,6.72-6.82,8.83-12.88,8.95-22.48.14-11.93,4.25-21.13,15.09-27.1,9.75-5.38,20.98-5.64,31.87-4.64,10.36-6.97,22.95-12.98,35.47-12.12,11.86.82,22.06,7.87,31.4,14.62,8.35,6.04,16.03,12.61,17.15,23.46.65,6.26-.57,12.58.14,18.83.89,7.94,5.85,12.76,11.74,17.51,8.17,6.62,15.37,14.68,17.86,25.19,1.97,8.43-5.95,22.07,5.08,34.1,9.74,10.62,26.44,22.56,31.51,36.31C1296,869.85,1265.98,885.66,1254.54,892.16Z" fill="#1a2e35"/>
          <path id="Trazado_626865" data-name="Trazado 626865" d="M1105.09,922.86c-17.7-2.37-41.75.82-53.05-12.86,7.87,4.7,17.55,7.15,26.44,7.62.27.01.25-.4-.02-.42-10.26-.83-20.49-3.62-28.41-10.01a30.873,30.873,0,0,1-4.01-12.4c-1.6-13.01,3.15-23.38,8.35-34.87a67,67,0,0,0,4.49-13.66,24.694,24.694,0,0,0,1.66-3.71c3.09-8.95-1.11-17.52-5.49-25.18-.06-.11-.25-.02-.2.09,2.11,4.53,4.38,9.33,5.19,14.29a81.132,81.132,0,0,1-1.5,11.72c-2.42,5.25-6.85,9.56-10.54,13.86-6.38,7.44-12,16.53-11.91,26.66.09,10.57,5.27,18.43,12.74,23.89,10.7,18.55,38.05,13.9,56.12,15.56C1105.33,923.47,1105.48,922.91,1105.09,922.86Zm-61.13-21.95c-8.71-11.61-7.03-24.96.81-36.49,3.6-5.29,8.74-9.94,12.41-15.35-.34,1.2-.71,2.39-1.11,3.56-2.37,6.86-6.24,13.04-8.69,19.86-3.58,9.94-4.28,21.92-.26,31.87.05.13.11.24.17.37A33.134,33.134,0,0,1,1043.96,900.91Z" fill="#1a2e35"/>
          <path id="Trazado_626866" data-name="Trazado 626866" d="M1286.11,825.42c-3.9-9.24-10.68-15.18-18.47-20.59a27.374,27.374,0,0,0,2.89.81c.24.07.2-.14-.03-.22-12.93-4.63-18.67-15.48-18.41-28.84.17-8.64,1.75-17.86-1.57-26.15-3.5-8.73-11.47-12.57-19.34-16.6-4.26-2.79-8.71-5.38-12.75-8.25a22.766,22.766,0,0,1-4.82-6.59c-.03-.06-.12-.01-.1.05a18.22,18.22,0,0,0,1.87,4.23c-.56-.46-1.13-.91-1.66-1.39a.032.032,0,1,0-.04.05c.67.66,1.37,1.3,2.08,1.93,3.14,4.85,8.26,7.97,13.6,10.7.84.43,1.67.86,2.48,1.29,10.18,7.51,18.6,15.9,15.34,31.04-1.14,5.27-2.97,10.65-2.84,16.06a33.643,33.643,0,0,1-3.23-8.91c-.02-.12-.24-.08-.22.04a33.522,33.522,0,0,0,3.5,9.98,18.806,18.806,0,0,0,.67,3.81c1.81,6.28,6.36,10.96,11.79,14.32.32.2.57-.31.27-.51-5.88-4-9.22-8.63-10.57-13.98,6.4,9.6,16.62,17.03,24.95,24.67a100.583,100.583,0,0,1,14.21,15.84c5.7,17.15,4.52,39.52-11.9,50.16a.243.243,0,0,0,.26.41c15.88-10.09,18.21-29.55,14.22-46.62,6.79,11.21,9.74,23.99,2.95,36.93a.333.333,0,0,0,.59.31C1300.4,854.81,1295.6,838.16,1286.11,825.42Zm-39.89-39.26a32.452,32.452,0,0,1,.82-13.5c1.72-7,3.64-13.78.96-20.82a29.056,29.056,0,0,0-7.05-10.42c6.34,4.74,10.5,10.76,10.89,21.02.37,9.71-1.9,20.12,2.19,29.35a24.523,24.523,0,0,0,5.14,7.42c-1.48-.96-2.97-1.93-4.46-2.94A59.623,59.623,0,0,1,1246.22,786.16Zm9.38,10.98c2.07,1.49,4.18,2.94,6.28,4.41.5.38,1.02.74,1.55,1.08,7.41,5.2,14.57,10.67,19.1,18.43C1275.01,812.73,1264.32,805.49,1255.6,797.14Z" fill="#1a2e35"/>
          <path id="Trazado_626867" data-name="Trazado 626867" d="M1267.1,881.71c-.09,0-.08.15.01.14A.07.07,0,0,0,1267.1,881.71Z" fill="#1a2e35"/>
          <path id="Trazado_626868" data-name="Trazado 626868" d="M1076.35,720.79a241.461,241.461,0,0,0-17.99,18.63c-3.84,4.5-6.17,9.46-6.13,15.5.05,6.12,2.64,10.95,6.37,15.63,1.48,1.85,2.95,3.75,4.29,5.7a23.021,23.021,0,0,1-1.11,10.98c-2.49,6.73-8.75,11.11-11.34,17.94-4.19,11.02,1.76,19.59,7.12,28.97.04.06.12,0,.09-.06-3.92-7.72-9.22-15.25-7.12-24.29,1.73-7.45,7.07-11.66,10.9-17.83a23.517,23.517,0,0,0,3.3-12.85c4.2,7.04,6.02,14.62-.15,22.61-.27.36.21.82.52.48,7.89-8.57,5.06-18.3-.61-26.63a46.666,46.666,0,0,0-4.41-14.54c-.24-.49-.96-.09-.83.4.98,3.72,2.19,7.39,2.99,11.09-.32-.41-.64-.81-.97-1.2-7.26-8.77-10.53-19.27-3.46-29.44,5.29-7.6,12.8-13.75,18.79-20.82A.184.184,0,1,0,1076.35,720.79Z" fill="#1a2e35"/>
          <path id="Trazado_626869" data-name="Trazado 626869" d="M1225.68,735.68c-11.54-11.52-5.54-27.1-7.93-41.34-1.58-9.44-6.9-17.69-13.85-24.11-4.62-4.27-10.24-8.39-16.35-10.73-7.67-4.31-16.1-7.28-24.97-6.05-11.82,1.64-23.96,8.78-33.37,16.15-.01-.01,0-.03-.02-.03-7.94-1.96-15.94-3.89-24.11-2.15-7.25,1.54-13.06,6.05-18.11,11.28-4.46,4.61-8.28,9.86-8.65,16.47-.24,4.3,1.07,8.47,1.69,12.68,1.06,7.25-.47,13.09-4.51,19.11-.25.38.23.84.55.48a22.135,22.135,0,0,0,5.5-13.51c.5-9.18-4.39-17.63.15-26.54,3.29-6.45,10.04-12.67,16.26-16.16,9.54-5.36,20.89-3.41,31.13-1.54-.41.32-.82.64-1.22.96a.187.187,0,0,0,.21.31c10.79-7,22.72-15.4,35.86-16.71,6.32-.63,12.96,1.05,19.15,3.89a26.065,26.065,0,0,0-4.73-.61c-11.89-.38-24.89,3.64-36.19,6.95-.07.02-.03.12.04.1,11.62-3.05,26.14-7.74,38.33-6.2a27.1,27.1,0,0,1,6.05,1.52,69.466,69.466,0,0,1,12.31,8.55c11.65,10.12,11.83,22.14,10.36,36.51-.92,9.01-1.35,18.01,2.95,26.24.15.29.64.04.51-.26-6.34-14.58.2-28.51-1.67-43.37-1.19-9.48-7.36-17.02-14.84-22.52a58.54,58.54,0,0,1,14,14.02c8.18,11.81,6.23,23.76,6.83,37.22.33,7.47,2.16,15.03,8.2,19.91A.341.341,0,0,0,1225.68,735.68Z" fill="#1a2e35"/>
        </g>
        <g id="Grupo_904380" data-name="Grupo 904380">
          <g id="Grupo_904378" data-name="Grupo 904378">
            <g id="Grupo_904373" data-name="Grupo 904373">
              <path id="Trazado_626870" data-name="Trazado 626870" d="M1150.19,852.91c3.8,33.1,17.83,153.21,38.75,177.17,25.84,29.59,111.68,68.22,129.19,75,16.61,6.43,44.53-84.8,29.29-90.06-35.16-12.13-87.55-37.97-96.34-42.96-8.11-4.61-35.02-80.27-59.22-125.08C1172.5,811.12,1146.67,822.2,1150.19,852.91Z" fill="#864240"/>
            </g>
            <g id="Grupo_904377" data-name="Grupo 904377">
              <path id="Trazado_626871" data-name="Trazado 626871" d="M1351.91,1115.55c-20.67-1.46-61.77-20.99-69.87-29.51s22.77-79.5,34.47-82.47,80.91,7.35,96.44,21.7S1373.32,1117.07,1351.91,1115.55Z" fill="#864240"/>
              <g id="Grupo_904375" data-name="Grupo 904375">
                <path id="Trazado_626872" data-name="Trazado 626872" d="M1384.62,1008c-9.77,5,1.72,13.66,1.72,13.66s-19.54-8.47-27.62.59c-7.76,8.75,6.48,18.71,7.5,19.44-1.04-.44-19.2-7.75-26.38,2.18-7.46,10.33,8.56,17.88,9.6,18.36-1.11-.11-15.81-1.27-19.55,7.52-6.42,15.1,31.08,19.12,38.98,29.81,0,0-16.58,15.46-16.97,16.01,0,0,35.6,4.55,49.42-6.91,7.28-6.04,3.09-14.02,3.09-14.02s11.32,2.74,17.22-4.91c3.02-3.93-.58-12.26-.58-12.26s9.15,1.81,13.98-5.31c3.87-5.68-.35-13.14-.35-13.14s9.6-2.34,11.66-9.42C1450.55,1035.3,1405.56,997.3,1384.62,1008Z" fill="#864240"/>
                <g id="Grupo_904374" data-name="Grupo 904374">
                  <path id="Trazado_626873" data-name="Trazado 626873" d="M1434.2,1057.71a.153.153,0,0,0,.24-.19c-11.75-16.11-29.59-30.2-48.67-36.39-.63-.2-1.23.72-.58,1.08C1403.63,1032.34,1419.19,1042.81,1434.2,1057.71Z" fill="#1a2e35"/>
                  <path id="Trazado_626874" data-name="Trazado 626874" d="M1421.35,1077.55c.16.16.43-.1.29-.3-12.2-16.53-32.73-31.85-55.56-36.4-.78-.15-1.64.49-.76.74C1380.28,1045.76,1407.91,1064.07,1421.35,1077.55Z" fill="#1a2e35"/>
                  <path id="Trazado_626875" data-name="Trazado 626875" d="M1347.74,1062.45c21.72,5.2,39.59,16.85,56.22,31.45.22.19.46-.14.32-.34-6.19-9.36-17.76-17.56-27.3-23.18a58.94,58.94,0,0,0-29.06-8.69C1347.51,1061.68,1347.27,1062.34,1347.74,1062.45Z" fill="#1a2e35"/>
                </g>
                <path id="Trazado_626876" data-name="Trazado 626876" d="M1386.34,1021.65a67.423,67.423,0,0,0-11.96-2.74c-3.99-.47-8.23-.51-11.69,1.05a7.38,7.38,0,0,0-3.79,3.71,10.775,10.775,0,0,0-.87,5.38c.37,3.6,3.04,6.83,6,8.84l7.44,5.06-8.75-2.16a36.971,36.971,0,0,0-11.88-1.06c-3.89.34-7.68,1.71-9.75,4.58-2.22,2.96-2.43,6.6-.18,9.47,2.1,2.93,5.69,5.23,9.18,6.78l9.75,4.32-10.58-.88a34.791,34.791,0,0,0-8.82.38c-2.85.53-5.65,1.54-7.5,3.39a6.763,6.763,0,0,0-1.8,6.91c.87,2.42,3.2,4.5,5.6,6.24,4.94,3.5,10.71,5.99,16.29,8.74,2.81,1.36,5.64,2.72,8.4,4.21,2.7,1.53,5.58,3.11,7.44,5.67-2.11-2.34-5.06-3.56-7.83-4.9-2.84-1.27-5.74-2.4-8.64-3.54a100.815,100.815,0,0,1-17.11-8.06c-2.64-1.79-5.45-3.83-6.95-7.27a9.6,9.6,0,0,1,2.27-10.3,17.492,17.492,0,0,1,9.19-4.45,37.957,37.957,0,0,1,9.82-.57l-.83,3.43c-4.14-1.79-7.98-4.06-10.92-7.9a10.915,10.915,0,0,1-2.26-7.03,12.27,12.27,0,0,1,2.61-6.81c3.04-4,7.99-5.5,12.34-5.8a39.827,39.827,0,0,1,13.05,1.37l-1.31,2.9c-3.68-2.69-6.51-6.61-6.84-11.33a13.084,13.084,0,0,1,1.42-6.59,9.526,9.526,0,0,1,5.03-4.52c4.23-1.62,8.59-1.06,12.65-.32A54.766,54.766,0,0,1,1386.34,1021.65Z" fill="#1a2e35"/>
              </g>
              <g id="Grupo_904376" data-name="Grupo 904376">
                <path id="Trazado_626877" data-name="Trazado 626877" d="M1328.6,1003.25s83.06-28.81,78.41,9.17c-1.38,11.29-20.52,55.98-29.57,52.31-11.69-4.74-7.18-24.89-2.34-37.09,0,0-26.87,13.78-42.04-2.07C1323.54,1015.64,1328.6,1003.25,1328.6,1003.25Z" fill="#864240"/>
                <path id="Trazado_626878" data-name="Trazado 626878" d="M1407.2,1009.25c.17,4.48-.87,8.92-2.01,13.25a98.509,98.509,0,0,1-4.45,12.7,153.492,153.492,0,0,1-12.36,23.96,25.425,25.425,0,0,1-4.64,5.43,9.5,9.5,0,0,1-3.59,1.95,6.428,6.428,0,0,1-4.41-.26,11.287,11.287,0,0,1-5.7-5.39,21.108,21.108,0,0,1-1.95-7.07,40.787,40.787,0,0,1,1.29-13.82,91.487,91.487,0,0,1,4.26-12.9l2.19,1.94a54.436,54.436,0,0,1-9.71,3.47,50.175,50.175,0,0,1-10.11,1.57,34.622,34.622,0,0,1-10.15-1.06,26.367,26.367,0,0,1-9.12-4.29,29.557,29.557,0,0,0,9.34,3.23,36.41,36.41,0,0,0,9.78.16,48.05,48.05,0,0,0,9.56-2.05,51.445,51.445,0,0,0,8.94-3.77l3.51-1.92-1.32,3.85a97.759,97.759,0,0,0-3.71,12.55,39.231,39.231,0,0,0-1.04,12.64c.44,3.99,2.12,8.14,5.32,9.4,2.71,1.35,5.99-2.28,8.39-5.68a129.3,129.3,0,0,0,6.89-11.19c2.18-3.85,4.31-7.73,6.23-11.71C1402.3,1026.25,1406.12,1018.11,1407.2,1009.25Z" fill="#1a2e35"/>
              </g>
            </g>
          </g>
          <g id="Grupo_904379" data-name="Grupo 904379">
            <path id="Trazado_626879" data-name="Trazado 626879" d="M1323.93,999.23l-33.32,103.54s-85.25-46.83-103.08-68.53-32.51-119.99-37.73-175.7,30.44-42.1,46.16-10.63,53.22,117.4,55.24,119.85S1323.93,999.23,1323.93,999.23Z" fill="#ffc800"/>
            <path id="Trazado_626880" data-name="Trazado 626880" d="M1323.93,999.23l-33.32,103.54s-85.25-46.83-103.08-68.53-32.51-119.99-37.73-175.7,30.44-42.1,46.16-10.63,53.22,117.4,55.24,119.85S1323.93,999.23,1323.93,999.23Z" opacity="0.1"/>
            <path id="Trazado_626881" data-name="Trazado 626881" d="M1279.69,1038.52c-2.63,7.23-5.09,14.51-7.55,21.8-1.18,3.5-2.4,6.99-3.46,10.52-1.15,3.8-2.63,7.62-3.51,11.49a.214.214,0,0,0,.4.15c1.8-3.53,3.09-7.41,4.64-11.07,1.45-3.39,2.74-6.86,4.06-10.3,2.77-7.17,5.53-14.35,8.13-21.58,5.21-14.5,9.98-29.09,14.59-43.79a.288.288,0,0,0-.54-.2C1290.61,1009.78,1284.95,1024.05,1279.69,1038.52Z" fill="#1a2e35"/>
          </g>
        </g>
        <g id="Grupo_904387" data-name="Grupo 904387">
          <g id="Grupo_904386" data-name="Grupo 904386">
            <g id="Grupo_904382" data-name="Grupo 904382">
              <g id="Grupo_904381" data-name="Grupo 904381">
                <path id="Trazado_626882" data-name="Trazado 626882" d="M1260.32,1232.61H1147.29c-6.84-26.86-17.37-68.2-26.55-104.22,0-.02,0-.06-.02-.07-.55-2.21-1.12-4.4-1.66-6.56-.35-1.34-.68-2.67-1.01-3.98-8.82-34.62-15.79-62-15.95-62.62-.09-.39-.18-.68-.24-.92-.09-.33-.13-.52-.13-.52h151.94s14.84,66.84,13.58,89.41C1265.96,1166.26,1260.32,1232.61,1260.32,1232.61Z" fill="#2b454e"/>
              </g>
            </g>
            <g id="Grupo_904385" data-name="Grupo 904385">
              <g id="Grupo_904383" data-name="Grupo 904383">
                <path id="Trazado_626883" data-name="Trazado 626883" d="M1254.49,1053.65s-.04.11,0,.07c2.14-2.14-20.63,115.48-32.66,133.32-.02.02-42.16,19.7-44.51,20.75-.04.02-12.62,24.82-12.62,24.82H991.21l10.92-31.5c-.97-5.37-2.42-31.83.32-47.74,5.17-30.03,45.02-99.65,45.02-99.65Z" fill="#2b454e"/>
                <path id="Trazado_626884" data-name="Trazado 626884" d="M1167.56,1232.61h-3.87c2.83-6.06,14.12-26.47,14.21-27.05a.417.417,0,0,1,.82.03C1178.72,1206.01,1170.69,1226.32,1167.56,1232.61Z" fill="#1a2e35"/>
              </g>
              <g id="Grupo_904384" data-name="Grupo 904384">
                <path id="Trazado_626885" data-name="Trazado 626885" d="M1144.78,1222.05c6.98-4.84,14.51-8.9,21.89-13.08,7.56-4.27,15.22-8.36,23.09-12.02,15.36-7.15,31.58-12.31,47.73-17.33.41-.13.68.54.28.71-15.56,6.69-30.65,14.35-46.13,21.22-7.79,3.46-15.64,6.76-23.44,10.2s-15.4,7.33-23.26,10.6A.17.17,0,0,1,1144.78,1222.05Z" fill="#1a2e35"/>
                <path id="Trazado_626886" data-name="Trazado 626886" d="M1187.37,1145.87c.19-7.63.73-15.26,1.11-22.88.89-18,1.59-36.1,3.26-54.05a.561.561,0,0,1,1.12.03c.23,13.93-.31,27.89-.59,41.82-.14,6.97-.35,13.93-.54,20.9-.18,6.63-.63,13.34-.13,19.97.37,5.02,1.48,14.78,8.03,15.38,6.17.57,9.55-6.09,11.1-10.97,3.91-12.4,5.31-25.79,6.57-38.68.75-7.63,1.51-15.25,1.96-22.91.46-7.73,1.07-19.13.65-26.85-.03-.5.68-.47.77.02,1.21,6.62,1.26,20.06,1.09,27.97-1.5,71.03-12.7,75.08-18.63,76.24a11.975,11.975,0,0,1-2.2.22c-.07,1.62-.29,3.24-.4,4.84-.18,2.52-.49,5.03-.83,7.54a56.547,56.547,0,0,1-1.54,7.29,27.114,27.114,0,0,1-2.56,6.97.386.386,0,0,1-.71-.21,34.077,34.077,0,0,1,.6-7.19c.33-2.45.68-4.93,1.18-7.35.5-2.38.94-4.78,1.43-7.16.33-1.6.55-3.24.85-4.87a11.677,11.677,0,0,1-8.74-6.88C1187.44,1159.18,1187.21,1152.24,1187.37,1145.87Z" fill="#1a2e35"/>
                <path id="Trazado_626887" data-name="Trazado 626887" d="M1064.08,1137.79c9.92.69,19.7,1.97,29.65.79a51.63,51.63,0,0,0,25.82-10.12c16.35-12.68,23.52-33.43,27.95-52.9a.349.349,0,0,1,.69.1c-1.85,16.88-5.49,34.34-16.38,47.93a52.487,52.487,0,0,1-17.39,14.33c-7.08,3.54-15.14,4.75-22.98,4.73a110.8,110.8,0,0,1-27.52-3.72A.576.576,0,0,1,1064.08,1137.79Z" fill="#1a2e35"/>
                <path id="Trazado_626888" data-name="Trazado 626888" d="M1265.81,1133.87c-2.76-.32-5.47-.09-8.27-2.12-2.63-1.91-5.19-5.7-7.38-11.73-4.78-13.16-7.12-32.82-8.68-51.04-.03-.41-.21-.39-.19.03.79,15.61,2.1,31.92,5.37,45.38a67.812,67.812,0,0,0,5.09,14.77c2.04,3.92,4.3,5.79,6.5,6.53a9.566,9.566,0,0,0,7.62-.76C1266.07,1134.83,1266.02,1133.89,1265.81,1133.87Z" fill="#1a2e35"/>
                <path id="Trazado_626889" data-name="Trazado 626889" d="M1062.37,1061.12c-9.39,28.14-19.8,56.55-29.68,84.54-2.7,8.41-6.48,16.56-7.21,25.39a182.473,182.473,0,0,0,.43,26.86c-1.72,5.43-3.42,10.87-5.21,16.28-1.76,5.35-3.47,10.72-5.31,16.05,1.3-5.49,2.72-10.94,4.11-16.4,1.37-5.47,2.83-10.91,4.27-16.36a146.637,146.637,0,0,1-1.27-26.65,38.566,38.566,0,0,1,1.52-9.13c3.44-11.58,7.55-22.77,11.68-34.01,8.34-22.4,17.15-44.62,26.67-66.57Z" fill="#1a2e35"/>
              </g>
            </g>
          </g>
        </g>
        <g id="Grupo_904435" data-name="Grupo 904435">
          <g id="Grupo_904391" data-name="Grupo 904391">
            <g id="Grupo_904388" data-name="Grupo 904388">
              <path id="Trazado_626890" data-name="Trazado 626890" d="M1038.31,1063.29h222.73l-13.55-72.99s19.13-28.97,16.1-42.96c-7.4-34.19-55.5-89.85-73.14-110.04-21.8-24.96-53.15-28.03-76.79,6.07-33.6,48.47-45.8,157.92-45.8,157.92C1050.95,1029.7,1038.31,1063.29,1038.31,1063.29Z" fill="#a674f1"/>
            </g>
            <g id="Grupo_904390" data-name="Grupo 904390">
              <g id="Grupo_904389" data-name="Grupo 904389">
                <path id="Trazado_626891" data-name="Trazado 626891" d="M1185.5,982.45a153.377,153.377,0,0,1,26.82,3.25c4.41,1.01,8.75,2.25,13.1,3.61,2.17.68,4.34,1.26,6.52,1.84a24.54,24.54,0,0,0,6.92,1.04c.21-.01.23.36.03.38a39.961,39.961,0,0,1-6.56.34,40.693,40.693,0,0,1-6.36-.95c-4.48-.97-8.92-2.19-13.38-3.21-9.01-2.07-18.02-4.13-27.12-5.41C1185.04,983.28,1185.07,982.43,1185.5,982.45Z" fill="#1a2e35"/>
                <path id="Trazado_626892" data-name="Trazado 626892" d="M1164.26,993.59a162.646,162.646,0,0,1,21.96-2.93,107.762,107.762,0,0,1,11.08-.03c1.77.07,3.54.19,5.3.32,1.94.15,3.88.61,5.83.73.2.01.23.39.02.38-1.83-.04-3.67.28-5.5.36s-3.68.15-5.52.24c-3.68.17-7.36.38-11.05.51-7.38.25-14.72.59-22.08,1.15C1163.9,994.35,1163.88,993.66,1164.26,993.59Z" fill="#1a2e35"/>
              </g>
            </g>
          </g>
          <g id="Grupo_904404" data-name="Grupo 904404">
            <g id="Grupo_904392" data-name="Grupo 904392">
              <path id="Trazado_626893" data-name="Trazado 626893" d="M1144.96,830.32c1.1,4.06,21.6,29.92,40.28,28.37,6.08-.52,4.75-33.84,4.75-33.84l.46-2.48,6.47-34.75-41.44-24.52-5.98-3.23s-1.14,9.62-2.44,21.62c-.06.56-.13,1.11-.19,1.71-.09.68-.19,1.31-.24,1.95-.22,1.79-.43,3.62-.61,5.45-.14,1.39-.28,2.74-.38,4.2-.13,1.47-.23,2.89-.36,4.36C1144.31,813.63,1144.52,828.59,1144.96,830.32Z" fill="#864240"/>
              <path id="Trazado_626894" data-name="Trazado 626894" d="M1147.06,781.48a70.911,70.911,0,0,0,43.39,40.88l6.47-34.75-41.44-24.52-5.98-3.23C1149.51,759.86,1148.36,769.48,1147.06,781.48Z" fill="#1a2e35"/>
            </g>
            <g id="Grupo_904403" data-name="Grupo 904403">
              <path id="Trazado_626895" data-name="Trazado 626895" d="M1235.16,717.06c23.35,57.48-8.44,77.96-20.84,82.98-11.26,4.56-50.17,18.65-79.33-36.11s-9.83-83.79,15.37-95.58S1211.8,659.58,1235.16,717.06Z" fill="#864240"/>
              <g id="Grupo_904393" data-name="Grupo 904393">
                <path id="Trazado_626896" data-name="Trazado 626896" d="M1170.68,676.55s6,8.09,5.5,15.87c-1.04,15.99-18.64,18.94-22.05,26.47-3.19,7.05,2.75,16.64.05,23.5-3.74,9.5-10.13,6.32-9.35,11.39s3.62,21.08-1.54,25.33-71.67-83.15,6.91-111.04c0,0,8.95-9.28,28.66-6.89,28.06,3.41,44.16,32.25,44.16,32.25s-5.08.86-8.66-.41c-5.05-1.8-7.88-3.52-11.47-4.55-5.64-1.63-7.34,1.8-13.11.33C1180.99,686.57,1170.68,676.55,1170.68,676.55Z" fill="#1a2e35"/>
                <path id="Trazado_626897" data-name="Trazado 626897" d="M1168.67,673.55a56.1,56.1,0,0,1,6.99,10.92c1.89,3.82,3.34,8.04,2.95,12.16-.44,4.03-3.03,7.7-6.11,10.46-3.14,2.83-7.04,4.84-10.36,8a13.066,13.066,0,0,0-3.63,5.97,17.29,17.29,0,0,0,.11,6.85c.77,4.29,1.5,8.54,0,12.42a14.394,14.394,0,0,1-8.63,8.5c-3.89,1.57-8.64,2.2-11.75,5.43,3.37-2.97,7.9-3.17,12.1-4.49a15.672,15.672,0,0,0,9.75-8.86c1.95-4.32,1.03-9.13.38-13.29a15.681,15.681,0,0,1-.05-6.1,11.06,11.06,0,0,1,3.16-4.97c2.94-2.91,6.86-5.04,10.17-8.08a22.155,22.155,0,0,0,4.3-5.23,13.6,13.6,0,0,0,2.14-6.5c.21-4.64-1.54-8.92-3.64-12.75A57.1,57.1,0,0,0,1168.67,673.55Z" fill="#1a2e35"/>
                <path id="Trazado_626898" data-name="Trazado 626898" d="M1171.56,676.48a45.859,45.859,0,0,0,8.01,9.16,21.4,21.4,0,0,0,11.17,5.42,31.686,31.686,0,0,0,6.18-.06,9.871,9.871,0,0,1,5.3,1.13,30.182,30.182,0,0,0,5.19,3.22,13.6,13.6,0,0,0,6.05.9,14.814,14.814,0,0,1-5.61-1.81,30.759,30.759,0,0,1-4.73-3.61,10.483,10.483,0,0,0-6.23-1.75,33.662,33.662,0,0,1-5.87-.03,22.733,22.733,0,0,1-10.42-4.69A91.673,91.673,0,0,1,1171.56,676.48Z" fill="#1a2e35"/>
              </g>
              <g id="Grupo_904395" data-name="Grupo 904395">
                <g id="Grupo_904394" data-name="Grupo 904394">
                  <path id="Trazado_626899" data-name="Trazado 626899" d="M1145.92,764.64s-18.65-14.51-25.62-7.31,11.04,31.03,22.03,31.65,11.77-9.53,11.77-9.53Z" fill="#864240"/>
                  <path id="Trazado_626900" data-name="Trazado 626900" d="M1125.63,764.03c-.16.03-.12.27.03.28,7.78.67,13.39,5.95,17.99,11.81-2.85-1.92-6.08-2.46-8.75,1.04-.14.18.12.41.3.31,2.64-1.48,4.84-1.62,7.45.06a30.886,30.886,0,0,1,4.94,4.49c.51.52,1.53-.16,1.07-.8a1.343,1.343,0,0,0-.11-.14C1146.02,772.22,1135.36,762,1125.63,764.03Z" fill="#1a2e35"/>
                </g>
              </g>
              <g id="Grupo_904402" data-name="Grupo 904402">
                <path id="Trazado_626901" data-name="Trazado 626901" d="M1212.9,708.04a39.766,39.766,0,0,1-4.14,1.17c-1.59.43-2.82.94-4.45.39a2.208,2.208,0,0,1-1.25-2.39c.48-2.04,2.3-3.06,4.2-3.65a8.085,8.085,0,0,1,5.81.17C1215,704.49,1214.71,707.34,1212.9,708.04Z" fill="#1a2e35"/>
                <path id="Trazado_626902" data-name="Trazado 626902" d="M1176.93,734.64a41.5,41.5,0,0,0,3.31-2.74c1.26-1.07,2.37-1.78,2.84-3.44a2.216,2.216,0,0,0-1.26-2.39c-1.95-.76-3.82.16-5.39,1.38a8.125,8.125,0,0,0-3.16,4.88C1172.81,734.36,1175.33,735.74,1176.93,734.64Z" fill="#1a2e35"/>
                <g id="Grupo_904397" data-name="Grupo 904397">
                  <g id="Grupo_904396" data-name="Grupo 904396">
                    <path id="Trazado_626903" data-name="Trazado 626903" d="M1189.3,738.3c-.11-.13-.19.34-.1.49,2.18,3.64,4.05,8.17,1.39,11.27-.08.1.03.28.15.19C1194.5,747.4,1191.95,741.4,1189.3,738.3Z" fill="#1a2e35"/>
                    <path id="Trazado_626904" data-name="Trazado 626904" d="M1183.85,736.27c-6.21,2.86-.04,15.07,5.71,12.42C1195.22,746.09,1189.05,733.88,1183.85,736.27Z" fill="#1a2e35"/>
                  </g>
                  <path id="Trazado_626905" data-name="Trazado 626905" d="M1181.78,738.13c-.72,1.23-1.15,2.98-2.37,3.75-1.41.9-3.18.19-4.78-.55-.17-.08-.22.08-.14.25,1.15,2.36,3.26,4.3,5.95,3.38,2.45-.84,3.05-3.74,2.44-6.39C1182.77,738.08,1182.06,737.63,1181.78,738.13Z" fill="#1a2e35"/>
                </g>
                <g id="Grupo_904399" data-name="Grupo 904399">
                  <g id="Grupo_904398" data-name="Grupo 904398">
                    <path id="Trazado_626906" data-name="Trazado 626906" d="M1212.29,727.33c-.03-.16.38.05.45.21,1.57,3.94,4.02,8.19,8.1,7.95.13-.01.2.19.06.23C1216.35,736.99,1213.14,731.31,1212.29,727.33Z" fill="#1a2e35"/>
                    <path id="Trazado_626907" data-name="Trazado 626907" d="M1213.99,721.76c6.05-3.19,11.99,9.14,6.38,12.09C1214.87,736.76,1208.93,724.44,1213.99,721.76Z" fill="#1a2e35"/>
                  </g>
                  <path id="Trazado_626908" data-name="Trazado 626908" d="M1216.73,721.25c1.41.18,3.06.9,4.42.4,1.57-.57,2.09-2.41,2.47-4.13.04-.18.2-.12.28.04,1.17,2.35,1.43,5.21-.93,6.78-2.16,1.43-4.82.14-6.56-1.95C1216.09,722.01,1216.16,721.17,1216.73,721.25Z" fill="#1a2e35"/>
                </g>
                <path id="Trazado_626909" data-name="Trazado 626909" d="M1202.41,768.69c1.27.64,2.65,1.63,4.15,1.29a11.246,11.246,0,0,0,4.02-2.4.147.147,0,0,1,.24.15,5.713,5.713,0,0,1-4.43,3.83c-1.93.26-3.34-1.03-4.31-2.56C1201.95,768.78,1202.23,768.6,1202.41,768.69Z" fill="#1a2e35"/>
                <g id="Grupo_904400" data-name="Grupo 904400">
                  <path id="Trazado_626910" data-name="Trazado 626910" d="M1213.93,746.72s3.08,5.6,4.15,8.39c.1.26-.53.64-1.45,1.06-.04.03-.06.06-.11.05a14.208,14.208,0,0,1-14.77-.02c-.3-.2-.05-.62.27-.54,4.71,1.29,9.04.43,13.43-1.16-.1-.85-5.59-9.41-5.17-9.62,1.48-.71,4.88-.83,6.88-.99-6.08-11.85-14-22.63-19.88-34.52a.408.408,0,0,1,.66-.46c9.11,10.71,16.4,24.19,22.99,36.27C1221.77,746.67,1215.23,746.77,1213.93,746.72Z" fill="#1a2e35"/>
                </g>
                <g id="Grupo_904401" data-name="Grupo 904401">
                  <path id="Trazado_626911" data-name="Trazado 626911" d="M1215.01,755.44a16.323,16.323,0,0,1-4,7.24,7.367,7.367,0,0,1-3.99,2.02c-3.3.5-4.54-2.19-5-4.75a17.55,17.55,0,0,1-.2-4.13A21.144,21.144,0,0,0,1215.01,755.44Z" fill="#1a2e35"/>
                  <path id="Trazado_626912" data-name="Trazado 626912" d="M1211.01,762.68a7.367,7.367,0,0,1-3.99,2.02c-3.3.5-4.54-2.19-5-4.75C1205.33,758.9,1209.41,759.71,1211.01,762.68Z" fill="#ff98bb"/>
                </g>
              </g>
            </g>
          </g>
          <g id="Grupo_904434" data-name="Grupo 904434">
            <g id="Grupo_904420" data-name="Grupo 904420">
              <g id="Grupo_904407" data-name="Grupo 904407">
                <g id="Grupo_904405" data-name="Grupo 904405">
                  <path id="Trazado_626913" data-name="Trazado 626913" d="M1300.29,776.07l-27.74,8.52s-10.14-2.1-15.93-16.12c-5.63-13.64-.43-23.73-.43-23.73l25.35-12.39.53,1.23a34.6,34.6,0,0,0,1.47,22.6c5.84,14.38,16.27,18.74,16.27,18.74Z" fill="#ffc800"/>
                </g>
                <g id="Grupo_904406" data-name="Grupo 904406" opacity="0.5">
                  <path id="Trazado_626914" data-name="Trazado 626914" d="M1300.29,776.07l-27.74,8.52s-10.14-2.1-15.93-16.12c-5.63-13.64-.43-23.73-.43-23.73l25.35-12.39.53,1.23a34.6,34.6,0,0,0,1.47,22.6c5.84,14.38,16.27,18.74,16.27,18.74Z"/>
                </g>
                <path id="Trazado_626915" data-name="Trazado 626915" d="M1281.54,732.36s-5.24,11.23,1.87,26.43c6.93,14.81,16.88,17.28,16.88,17.28l-.49-1.15s-10.43-4.36-16.27-18.74a34.69,34.69,0,0,1-1.47-22.59Z" opacity="0.1"/>
              </g>
              <g id="Grupo_904410" data-name="Grupo 904410">
                <g id="Grupo_904408" data-name="Grupo 904408">
                  <path id="Trazado_626916" data-name="Trazado 626916" d="M1372.03,864.33l6.13-6.76s-18.09-29.47-22.13-37.5-16.53-59.25-16.53-59.25l-6.17.85.74,55.4Z" fill="#ffc800"/>
                  <path id="Trazado_626917" data-name="Trazado 626917" d="M1372.03,864.33l6.13-6.76s-18.09-29.47-22.13-37.5-16.53-59.25-16.53-59.25l-6.17.85.74,55.4Z" opacity="0.1"/>
                </g>
                <path id="Trazado_626918" data-name="Trazado 626918" d="M1300.43,769.81s6.64,52.59,10.89,67.56,17.07,40.77,17.07,40.77l43.64-13.82s-17.31-29.79-21.25-37.96c-8.5-17.59-17.45-64.71-17.45-64.71Z" fill="#ffc800"/>
                <g id="Grupo_904409" data-name="Grupo 904409">
                  <path id="Trazado_626919" data-name="Trazado 626919" d="M1326.3,881.08l45.73-16.75,6.13-6.76-15.89-28.76-1.57-.38-6.52,4.39-38.95,15.89-.45-1.44-1.31,3.66Z" fill="#2b454e"/>
                  <path id="Trazado_626920" data-name="Trazado 626920" d="M1313.47,850.93l41.75-17,7.05-5.12-1.57-.38-6.52,4.39-38.95,15.89-.45-1.44Z" fill="#375a64"/>
                  <path id="Trazado_626921" data-name="Trazado 626921" d="M1355.22,833.93l16.81,30.4,6.13-6.76-15.89-28.76Z" fill="#1a2e35"/>
                </g>
                <path id="Trazado_626922" data-name="Trazado 626922" d="M1342.62,773.33l-7.27,1.01-32.76,11.76c-.89-8.6-2.17-16.3-2.17-16.3l32.9-8.15,6.17-.84C1339.5,760.81,1341.04,766.18,1342.62,773.33Z" opacity="0.15"/>
              </g>
              <path id="Trazado_626923" data-name="Trazado 626923" d="M1398.53,626.37s-23.48,43.11-63.08,72.45c-24.17,17.91-42,26.44-43.83,27.28,0,0-10.81,7.36-3.29,29.39,9.31,21.34,22.26,19.48,22.26,19.48,1.92-.62,20.84-6.34,50.76-9.43,49.02-5.06,95.44,10.93,95.44,10.93l.09-.21c-9.27-2.19-21.42-16.32-32.6-37.27-.72-1.35-1.43-2.72-2.13-4.13a255.29,255.29,0,0,1-11.64-26.78,258.359,258.359,0,0,1-9.47-27.62c-.43-1.51-.83-3.01-1.21-4.49-5.88-23-6.45-41.64-1.08-49.5C1398.67,626.43,1398.6,626.4,1398.53,626.37Z" fill="#ffc800"/>
              <path id="Trazado_626924" data-name="Trazado 626924" d="M1398.53,626.37s-23.48,43.11-63.08,72.45c-24.17,17.91-42,26.44-43.83,27.28,0,0-8.5,5.79-5.18,22.46.04.21.08.41.13.62a57.263,57.263,0,0,0,1.76,6.31c9.31,21.34,22.26,19.48,22.26,19.48,1.92-.62,20.84-6.34,50.76-9.43,49.02-5.07,95.44,10.92,95.44,10.92l.09-.21c-9.27-2.19-21.42-16.33-32.6-37.27q-1.08-2.025-2.14-4.13a255.29,255.29,0,0,1-11.64-26.78c-1.54-3.8-2.97-7.57-4.29-11.27a.487.487,0,0,0-.04-.11c-.37-1.04-.73-2.07-1.08-3.1q-1.335-3.945-2.51-7.79c-.55-1.8-1.07-3.59-1.56-5.35-.43-1.51-.83-3-1.21-4.48-.43-1.7-.84-3.39-1.22-5.04-.32-1.39-.62-2.76-.89-4.11-.14-.71-.28-1.42-.42-2.12-3.38-17.73-3.02-31.7,1.44-38.24A1.688,1.688,0,0,0,1398.53,626.37Z" fill="#ffc800"/>
              <path id="Trazado_626925" data-name="Trazado 626925" d="M1393.6,657.08l-.74.31.02.05,9.32,27.57-12.37-24.94-2.05.83,7.6,24.27-9.93-21.07-3.03,1.18,9.16,30.82-11.37-22.42-3.97,1.62,6.95,22.56-9.18-18.61-4.58,1.79,5.9,20.33-6.69-11.76-4.75,1.93,3.07,11.84-6.35-10.71-4.8,2.15,4.78,15.13-8.31-13.71-4.73,1.88,3.9,17.99-6.53-10.55-4.42,1.95,4.22,14.72-6.84-9.85-4.11,1.85,1.35,5.38-3.77-6.4-3.95,1.65,3.02,10.95-4.33-4.83-3.46,1.95,1.07,3.39-2.26-3.13-3.42,1.54,1.82,7.71-5.35-8.05-3.07,1.29,1.34,5.96-4-5.95-2.78,1.18,2.65,11.62-4.73-8.51-2.23.7,1.2,10.07-2.87-4.26-1.83.79,1.49,6.21-3.81-6.07-1.36.45,1.2,11.8-7.35-9.41-.68.25.73,10.42-1.93-2.37c.04.21.08.41.13.62l1.88,2.43.33-.12-.33-9.79,7.54,10.26,1.04-.4-.84-10.65,4.85,8.17,1.64-.67-1.36-6.18,2.24,3.42,1.97-.72-.87-8.42,6.23,11.73,2.55-.95-2.78-13.09,4.21,6.4,2.93-1.25-1.15-5.37,5.76,8.9,3.3-1.41-1.87-8.31,3.82,5.37,3.5-1.74-1.87-6.08,3.95,4.47,3.57-1.93-1.02-3.78,3.32,5.72,4.11-1.67-2.02-8.23,7.8,11.35,4.22-1.99-3.23-11.49,4.89,8.01,4.6-1.84-3.68-17.26,11.64,19.32,4.77-2.15-4.52-14.39,4.21,7.08,4.79-2-2.82-10.78,7.77,13.62,4.68-1.99-4.26-14.45,9.88,19.75,4.32-1.73-8.45-26.77,9.97,19.19,3.55-1.43-9.42-30.5,9.65,19.91,2.58-1.03-9.9-30.26,11.96,23.32.02-.01a.487.487,0,0,0-.04-.11c-.37-1.04-.73-2.07-1.08-3.1q-1.335-3.945-2.51-7.79c-.55-1.8-1.07-3.59-1.56-5.35-.43-1.51-.83-3-1.21-4.48-.43-1.7-.84-3.39-1.22-5.04l-2.85-7.91c.64,1.24,1.3,2.51,1.96,3.8-.14-.71-.28-1.42-.42-2.12Z" fill="#fff" opacity="0.3"/>
              <g id="Grupo_904415" data-name="Grupo 904415">
                <g id="Grupo_904411" data-name="Grupo 904411">
                  <path id="Trazado_626926" data-name="Trazado 626926" d="M1315.6,775.31l-33.08,10.17s-12.1-2.51-19-19.23c-6.72-16.26-.51-28.3-.51-28.3l30.23-14.78.63,1.46s-4.24,12.19,1.75,26.95c6.96,17.15,19.4,22.35,19.4,22.35Z" fill="#ffc800"/>
                </g>
                <g id="Grupo_904412" data-name="Grupo 904412" opacity="0.2">
                  <path id="Trazado_626927" data-name="Trazado 626927" d="M1315.6,775.31l-33.08,10.17s-12.1-2.51-19-19.23c-6.72-16.26-.51-28.3-.51-28.3l30.23-14.78.63,1.46s-4.24,12.19,1.75,26.95c6.96,17.15,19.4,22.35,19.4,22.35Z"/>
                </g>
                <path id="Trazado_626928" data-name="Trazado 626928" d="M1293.24,723.18s-6.25,13.39,2.23,31.52c8.27,17.66,20.13,20.61,20.13,20.61l-.59-1.38s-12.44-5.19-19.4-22.35c-5.89-14.54-1.88-26.56-1.75-26.94Z" opacity="0.1"/>
                <g id="Grupo_904413" data-name="Grupo 904413" opacity="0.2">
                  <path id="Trazado_626929" data-name="Trazado 626929" d="M1267.26,740.39a.888.888,0,0,1-.44-1.7l7.35-3.13a.885.885,0,1,1,.69,1.63l-7.35,3.13A.784.784,0,0,1,1267.26,740.39Z"/>
                  <path id="Trazado_626930" data-name="Trazado 626930" d="M1267.09,744.81a.888.888,0,0,1-.44-1.7l7.35-3.13a.885.885,0,1,1,.69,1.63l-7.35,3.13A.716.716,0,0,1,1267.09,744.81Z"/>
                </g>
                <g id="Grupo_904414" data-name="Grupo 904414" opacity="0.2">
                  <path id="Trazado_626931" data-name="Trazado 626931" d="M1282.55,778.88a.887.887,0,0,1-.35-1.72l7.5-2.73a.889.889,0,1,1,.61,1.67l-7.5,2.73A2.009,2.009,0,0,1,1282.55,778.88Z"/>
                  <path id="Trazado_626932" data-name="Trazado 626932" d="M1285.96,781.88a.887.887,0,0,1-.35-1.72l7.51-2.73a.889.889,0,1,1,.61,1.67l-7.51,2.73A.8.8,0,0,1,1285.96,781.88Z"/>
                </g>
              </g>
              <path id="Trazado_626933" data-name="Trazado 626933" d="M1456.87,776.25l-.09.21s-46.42-15.98-95.44-10.92a302.433,302.433,0,0,0-46.65,8.24c.21.1.33.15.33.15l.59,1.38-33.08,10.17s-12.1-2.5-19-19.22c-6.72-16.26-.51-28.3-.51-28.3-.09,6.35,9.13,19.22,19.8,17.41,8.03-1.36,9.81-15.84,9.81-15.84s28.7,22.2,81.78,7.33c17.58-4.92,36.16-18.78,39.66-29.67,2.57,6.25,5.28,12.16,8.07,17.67.71,1.41,1.41,2.78,2.14,4.13C1435.45,759.93,1447.61,774.07,1456.87,776.25Z" opacity="0.1"/>
              <g id="Grupo_904419" data-name="Grupo 904419">
                <g id="Grupo_904417" data-name="Grupo 904417">
                  <path id="Trazado_626934" data-name="Trazado 626934" d="M1398.53,625.93a9.172,9.172,0,0,1,3.96-3.35c13.06-5.49,37.94,24.19,55.6,66.26s21.38,80.65,8.34,86.11c-.26.11-.5.19-.76.28a1.054,1.054,0,0,1-.24.06c-4.91,1.34-11.3-1.79-18.25-8.34-9.57-9.01-20.23-24.46-29.67-43.6-2.32-4.68-4.56-9.59-6.69-14.68-3.23-7.71-6.01-15.3-8.28-22.6C1393.84,658.36,1392.19,634.98,1398.53,625.93Z" fill="#ffc800"/>
                  <path id="Trazado_626935" data-name="Trazado 626935" d="M1398.53,625.93a9.172,9.172,0,0,1,3.96-3.35c13.06-5.49,37.94,24.19,55.6,66.26s21.38,80.65,8.34,86.11c-.26.11-.5.19-.76.28a1.054,1.054,0,0,1-.24.06c-4.91,1.34-11.3-1.79-18.25-8.34-9.57-9.01-20.23-24.46-29.67-43.6-2.32-4.68-4.56-9.59-6.69-14.68-3.23-7.71-6.01-15.3-8.28-22.6C1393.84,658.36,1392.19,634.98,1398.53,625.93Z" opacity="0.6"/>
                  <path id="Trazado_626936" data-name="Trazado 626936" d="M1469.32,721.71l-59.49-15.39c.32.79.64,1.58.97,2.36,2.14,5.09,4.37,10,6.69,14.68,9.45,19.15,20.11,34.59,29.67,43.6,6.96,6.54,13.35,9.68,18.25,8.34.08-.02.16-.03.25-.06.26-.08.5-.17.76-.27C1475.93,770.98,1476.53,749.4,1469.32,721.71Z" opacity="0.2"/>
                  <g id="Grupo_904416" data-name="Grupo 904416" opacity="0.1">
                    <path id="Trazado_626937" data-name="Trazado 626937" d="M1460.06,693.66l-50.22,12.66v-.01l43.73-27.64q2.325,4.95,4.52,10.18C1458.76,690.46,1459.42,692.07,1460.06,693.66Z" fill="#fff"/>
                    <path id="Trazado_626938" data-name="Trazado 626938" d="M1448.91,669.28l-39.08,37.04,35.73-43.24Q1447.255,666.1,1448.91,669.28Z" fill="#fff"/>
                  </g>
                </g>
                <path id="Trazado_626939" data-name="Trazado 626939" d="M1403.58,689.33a21.858,21.858,0,1,1,19.06,36.98,20.973,20.973,0,0,1-4.08.29c-2.32-4.68-4.56-9.59-6.69-14.68C1408.63,704.22,1405.85,696.63,1403.58,689.33Z" fill="#ffc800"/>
                <g id="Grupo_904418" data-name="Grupo 904418">
                  <path id="Trazado_626940" data-name="Trazado 626940" d="M1403.84,618.73c7.51-1.24,16.87,4.57,27.3,17,10.71,12.77,21.38,31.17,30.05,51.83s14.32,41.16,15.92,57.76c1.75,18.11-1.49,29.44-9.39,32.75-.32.13-.62.24-.93.34a4.425,4.425,0,0,1-.65.18c-6.01,1.59-13.16-1.53-21.28-9.17-10.11-9.53-20.9-25.35-30.38-44.56-2.32-4.68-4.6-9.69-6.78-14.87-3.28-7.83-6.1-15.53-8.39-22.9-9.23-29.48-10.56-53.05-3.54-63.07a12.512,12.512,0,0,1,5.41-4.52A12.055,12.055,0,0,1,1403.84,618.73Zm60.9,153.28c.14-.05.27-.09.41-.15,4.61-1.93,6.64-11.86,5.28-25.9-1.54-15.95-7.02-35.77-15.43-55.81s-18.71-37.84-29-50.11c-9.06-10.8-17.56-16.32-22.2-14.36a5.824,5.824,0,0,0-2.5,2.16l-.01.02c-4.64,6.61-5.06,26.87,4.45,57.22,2.23,7.17,4.98,14.67,8.17,22.31,2.12,5.05,4.34,9.92,6.6,14.49,9,18.25,19.56,33.79,28.97,42.65,6.11,5.74,11.59,8.47,15.07,7.54Z" fill="#ffc800"/>
                  <path id="Trazado_626941" data-name="Trazado 626941" d="M1403.84,618.73c7.51-1.24,16.87,4.57,27.3,17,10.71,12.77,21.38,31.17,30.05,51.83s14.32,41.16,15.92,57.76c1.75,18.11-1.49,29.44-9.39,32.75-.32.13-.62.24-.93.34a4.425,4.425,0,0,1-.65.18c-6.01,1.59-13.16-1.53-21.28-9.17-10.11-9.53-20.9-25.35-30.38-44.56-2.32-4.68-4.6-9.69-6.78-14.87-3.28-7.83-6.1-15.53-8.39-22.9-9.23-29.48-10.56-53.05-3.54-63.07a12.512,12.512,0,0,1,5.41-4.52A12.055,12.055,0,0,1,1403.84,618.73Zm60.9,153.28c.14-.05.27-.09.41-.15,4.61-1.93,6.64-11.86,5.28-25.9-1.54-15.95-7.02-35.77-15.43-55.81s-18.71-37.84-29-50.11c-9.06-10.8-17.56-16.32-22.2-14.36a5.824,5.824,0,0,0-2.5,2.16l-.01.02c-4.64,6.61-5.06,26.87,4.45,57.22,2.23,7.17,4.98,14.67,8.17,22.31,2.12,5.05,4.34,9.92,6.6,14.49,9,18.25,19.56,33.79,28.97,42.65,6.11,5.74,11.59,8.47,15.07,7.54Z" opacity="0.2"/>
                </g>
              </g>
            </g>
            <g id="Grupo_904424" data-name="Grupo 904424">
              <g id="Grupo_904422" data-name="Grupo 904422">
                <g id="Grupo_904421" data-name="Grupo 904421">
                  <path id="Trazado_626942" data-name="Trazado 626942" d="M1119.59,885.34c22.46,84.48,55.74,159.3,91.6,151.58,23.82-5.13,19.65-73.53,19.07-74.99-2.01-5-42.1-59.12-78.24-109.03C1118.62,806.77,1109.56,847.59,1119.59,885.34Z" fill="#a674f1"/>
                </g>
              </g>
              <g id="Grupo_904423" data-name="Grupo 904423">
                <path id="Trazado_626943" data-name="Trazado 626943" d="M1173,876.83c2.09,3.64,4.24,7.26,6.46,10.83-.66-.79-1.3-1.59-1.97-2.38-5.42-6.38-10.91-12.71-16.39-19.04-.11-.13-.32.07-.22.2,8.97,11.83,17.83,23.74,26.76,35.6,8.9,11.82,17.82,23.64,26.16,35.92,4.73,6.96,9.5,14,13.7,21.35.09.15.34.01.25-.14-3.55-6.61-7.03-13.24-10.9-19.64-3.85-6.35-7.83-12.62-12.04-18.7q-9.57-13.785-20.04-26.75a187.476,187.476,0,0,0-11.36-17.56C1173.26,876.31,1172.86,876.59,1173,876.83Z" fill="#1a2e35"/>
              </g>
            </g>
            <g id="Grupo_904430" data-name="Grupo 904430">
              <g id="Grupo_904427" data-name="Grupo 904427">
                <path id="Trazado_626944" data-name="Trazado 626944" d="M1201.96,1035.37c34.01,7.89,112.71-54.85,157.32-104.04,8.49-9.36-80.75-81.45-88.63-70.47C1225.67,923.52,1164.72,1026.73,1201.96,1035.37Z" fill="#864240"/>
                <g id="Grupo_904426" data-name="Grupo 904426">
                  <path id="Trazado_626945" data-name="Trazado 626945" d="M1405.56,803.91c3.22,11.67-4.3,12.35-4.3,12.35s8.02,2.37,11.95,9.38c4.51,8.02-6.1,18.6-6.1,18.6s7.62,4.08,11.03,11.9c3.54,8.11-5.64,20.32-5.64,20.32s5.01,7.7,3.11,16.57c-3.25,15.17-68.18,48.88-86.4,55.84l-58.56-88s43.34-61.21,77.1-66.84C1362.61,791.55,1400.63,786.07,1405.56,803.91Z" fill="#864240"/>
                  <g id="Grupo_904425" data-name="Grupo 904425">
                    <path id="Trazado_626946" data-name="Trazado 626946" d="M1400.92,815.99c-16.47-.31-32.98,3.33-48.88,7.01a.283.283,0,0,0,.13.55c15.77-3.85,32.94-3.57,48.83-6.78A.4.4,0,0,0,1400.92,815.99Z" fill="#1a2e35"/>
                    <path id="Trazado_626947" data-name="Trazado 626947" d="M1406.37,843.17c-3.73.04-7.43,1.31-10.99,2.33q-5.745,1.635-11.42,3.47-11.385,3.645-22.57,7.87c-.33.13-.22.66.13.55,7.57-2.41,15.17-4.71,22.83-6.81q5.745-1.575,11.53-3.05c3.58-.92,7.44-1.59,10.75-3.3A.571.571,0,0,0,1406.37,843.17Z" fill="#1a2e35"/>
                    <path id="Trazado_626948" data-name="Trazado 626948" d="M1412.18,876.55c-3.24-.09-6.75,1.58-9.78,2.62q-5.145,1.77-10.32,3.49c-6.89,2.29-13.78,4.57-20.75,6.61-.35.1-.22.65.13.55,7.09-2.04,14.21-3.98,21.28-6.09q5.2-1.545,10.4-3.16c2.94-.91,6.72-1.71,9.17-3.68A.2.2,0,0,0,1412.18,876.55Z" fill="#1a2e35"/>
                  </g>
                </g>
              </g>
              <g id="Grupo_904429" data-name="Grupo 904429">
                <path id="Trazado_626949" data-name="Trazado 626949" d="M1264.02,864.31l82.83,90.99s-120.61,103.02-151.36,77.8S1264.02,864.31,1264.02,864.31Z" fill="#ffc800"/>
                <g id="Grupo_904428" data-name="Grupo 904428">
                  <path id="Trazado_626950" data-name="Trazado 626950" d="M1256.31,890.2c32,42.24,57.4,69.84,62.39,75.01a.15.15,0,0,0,.24-.18c-21.69-30.1-59.61-72.97-62.18-75.27C1256.48,889.51,1256.1,889.93,1256.31,890.2Z" fill="#1a2e35"/>
                  <path id="Trazado_626951" data-name="Trazado 626951" d="M1267.3,866.01c-1.14-.93-3.91-3.84-4.35-3.27-14.19,18.25-41.82,56.9-59.49,106.28-.06.17.19.23.26.07,3.84-9.09,40.4-78.87,60.08-103.9.83.66,1.59,1.26,2.42,1.92C1267.23,867.91,1268.32,866.85,1267.3,866.01Z" fill="#1a2e35"/>
                </g>
              </g>
            </g>
            <g id="Grupo_904433" data-name="Grupo 904433">
              <g id="Grupo_904431" data-name="Grupo 904431">
                <path id="Trazado_626952" data-name="Trazado 626952" d="M1125.8,907.93c11.79,34.72,33.6,96.34,59.99,120.82,8.45,7.78,16.44,8.68,27.43,6.89,14.88-2.61,28.83-8.91,42.19-15.84a301.3,301.3,0,0,0,26.11-15.35,268.673,268.673,0,0,1-25.65,16.2c-16.22,8.72-47.48,24.49-65.06,14.09-29.93-18.2-55.2-92.96-65.01-126.81Z" fill="#1a2e35"/>
              </g>
              <g id="Grupo_904432" data-name="Grupo 904432">
                <path id="Trazado_626953" data-name="Trazado 626953" d="M1125.74,917.25a91.873,91.873,0,0,0,5.92,7.55,18.407,18.407,0,0,1-5.92-7.55Z" fill="#1a2e35"/>
              </g>
            </g>
          </g>
        </g>
      </g>
      <g id="Grupo_904437" data-name="Grupo 904437" clip-path="url(#clip-path)">
        <path id="Trazado_626955" data-name="Trazado 626955" d="M1521.74,719.65l-30.22-12.93,4.64-4.56,3.11,13.31,1.35,5.79c-2.49-1.51-28.36-17.02-31.59-18.97l29.01,11.76-3.4,2.94-5.38-12.56-2.81-6.57c4.69,1.27,33.82,9.14,39.18,10.59l-3.89,11.2Z" fill="#1a2e35"/>
        <path id="Trazado_626956" data-name="Trazado 626956" d="M1458.66,620.91l-6.87,23.9-3.86-3.05,9.7-3.59,4.22-1.56c-.9,2.01-10.11,22.89-11.26,25.49l6.1-22.88,2.52,2.27-8.92,5.22-4.67,2.73c.51-3.64,3.68-26.24,4.27-30.41l8.77,1.88Z" fill="#1a2e35"/>
        <path id="Trazado_626957" data-name="Trazado 626957" d="M1529,621.74l-42.33,28.66-2.07-9.9,20.03,7.12,8.71,3.1c-4.07,1.99-46.12,22.8-51.37,25.38l39.77-28.07.98,6.92-20.96-3.52-10.96-1.84c5.61-5.07,40.39-36.57,46.8-42.36l11.4,14.51Z" fill="#1a2e35"/>
      </g>
    </g>
  </g>
</svg>
