<svg xmlns="http://www.w3.org/2000/svg" xmlns:xlink="http://www.w3.org/1999/xlink" width="720" height="264" viewBox="0 0 720 264">
  <defs>
    <clipPath id="clip-path">
      <path id="Trazado_626073" data-name="Trazado 626073" d="M805.7,852H138.3A26.3,26.3,0,0,1,112,825.7V675.3A26.3,26.3,0,0,1,138.3,649H372.47L430,588l32.48,61H805.7A26.3,26.3,0,0,1,832,675.3V825.7A26.307,26.307,0,0,1,805.7,852Z"/>
    </clipPath>
    <clipPath id="clip-path-5">
      <path id="Trazado_626406" data-name="Trazado 626406" d="M805.7,844.967H138.3c-14.53,0-26.3-11.466-26.3-25.6V672.974c0-14.143,11.78-25.6,26.3-25.6H372.47L384.9,633.323l12-6.735,11.787-8.419,11.365-.842,15.313-4.562,12.922,8.656,14.2,25.954H805.7c14.53,0,26.3,11.466,26.3,25.6V819.367C832,833.5,820.22,844.967,805.7,844.967Z" transform="translate(0 7.033)"/>
    </clipPath>
  </defs>
  <g id="Grupo_1004898" data-name="Grupo 1004898" transform="translate(-810.5 -3777.235)">
    <g id="Grupo_902955" data-name="Grupo 902955" transform="translate(698.5 3189.235)" clip-path="url(#clip-path)">
      <path id="Trazado_626072" data-name="Trazado 626072" d="M806.2,852.5H138.8a26.3,26.3,0,0,1-26.3-26.3V675.8a26.3,26.3,0,0,1,26.3-26.3H806.2a26.3,26.3,0,0,1,26.3,26.3V826.2A26.307,26.307,0,0,1,806.2,852.5Z" fill="#cee284"/>
    </g>
    <g id="Grupo_902989" data-name="Grupo 902989" transform="translate(698.5 3189.235)" clip-path="url(#clip-path)">
      <g id="Grupo_902956" data-name="Grupo 902956">
        <path id="Trazado_626074" data-name="Trazado 626074" d="M137.45,1146.95c83.7-.61,177.61-.62,261.31,0-83.71.62-177.61.61-261.31,0Z" fill="#ececec"/>
      </g>
      <g id="Grupo_902957" data-name="Grupo 902957">
        <path id="Trazado_626075" data-name="Trazado 626075" d="M107.86,1114.94c86.24-.61,183-.62,269.24,0-86.25.62-183,.62-269.24,0Z" fill="#ececec"/>
      </g>
      <g id="Grupo_902958" data-name="Grupo 902958">
        <path id="Trazado_626076" data-name="Trazado 626076" d="M164.5,1146.95a251.4,251.4,0,0,1,0-32.01,251.4,251.4,0,0,1,0,32.01Z" fill="#ececec"/>
      </g>
      <g id="Grupo_902959" data-name="Grupo 902959">
        <path id="Trazado_626077" data-name="Trazado 626077" d="M296.16,1146.95a251.4,251.4,0,0,1,0-32.01,251.4,251.4,0,0,1,0,32.01Z" fill="#ececec"/>
      </g>
      <g id="Grupo_902960" data-name="Grupo 902960">
        <path id="Trazado_626078" data-name="Trazado 626078" d="M628.18,1146.95a251.4,251.4,0,0,1,0-32.01,247.756,247.756,0,0,1,0,32.01Z" fill="#ececec"/>
      </g>
      <g id="Grupo_902961" data-name="Grupo 902961">
        <path id="Trazado_626079" data-name="Trazado 626079" d="M561.39,1114.95a251.4,251.4,0,0,1,0-32.01,251.4,251.4,0,0,1,0,32.01Z" fill="#ececec"/>
      </g>
      <g id="Grupo_902962" data-name="Grupo 902962">
        <path id="Trazado_626080" data-name="Trazado 626080" d="M230.4,1115.08a251.4,251.4,0,0,1,0-32.01,251.389,251.389,0,0,1,0,32.01Z" fill="#ececec"/>
      </g>
      <g id="Grupo_902963" data-name="Grupo 902963">
        <path id="Trazado_626081" data-name="Trazado 626081" d="M228.8,577.93c83.7-.61,177.61-.62,261.31,0-83.7.62-177.6.61-261.31,0Z" fill="#ececec"/>
      </g>
      <g id="Grupo_902964" data-name="Grupo 902964">
        <path id="Trazado_626082" data-name="Trazado 626082" d="M166.15,545.92c86.24-.61,183-.62,269.24,0-86.25.62-183,.61-269.24,0Z" fill="#ececec"/>
      </g>
      <g id="Grupo_902965" data-name="Grupo 902965">
        <path id="Trazado_626083" data-name="Trazado 626083" d="M479.64,609.72c53.7-.65,113.95-.66,167.64,0-53.69.65-113.94.65-167.64,0Z" fill="#ececec"/>
      </g>
      <g id="Grupo_902966" data-name="Grupo 902966">
        <path id="Trazado_626084" data-name="Trazado 626084" d="M538.97,577.93c53.7-.65,113.95-.66,167.64,0-53.69.66-113.94.65-167.64,0Z" fill="#ececec"/>
      </g>
      <g id="Grupo_902967" data-name="Grupo 902967">
        <path id="Trazado_626085" data-name="Trazado 626085" d="M296.35,577.93a251.4,251.4,0,0,1,0-32.01,251.4,251.4,0,0,1,0,32.01Z" fill="#ececec"/>
      </g>
      <g id="Grupo_902968" data-name="Grupo 902968">
        <path id="Trazado_626086" data-name="Trazado 626086" d="M428.2,577.93a251.4,251.4,0,0,1,0-32.01,247.756,247.756,0,0,1,0,32.01Z" fill="#ececec"/>
      </g>
      <g id="Grupo_902969" data-name="Grupo 902969">
        <path id="Trazado_626087" data-name="Trazado 626087" d="M560.06,577.93a251.4,251.4,0,0,1,0-32.01,251.4,251.4,0,0,1,0,32.01Z" fill="#ececec"/>
      </g>
      <g id="Grupo_902970" data-name="Grupo 902970">
        <path id="Trazado_626088" data-name="Trazado 626088" d="M230.4,546.06a251.4,251.4,0,0,1,0-32.01,251.39,251.39,0,0,1,0,32.01Z" fill="#ececec"/>
      </g>
      <g id="Grupo_902971" data-name="Grupo 902971">
        <path id="Trazado_626089" data-name="Trazado 626089" d="M362.46,546.06a251.4,251.4,0,0,1,0-32.01,247.756,247.756,0,0,1,0,32.01Z" fill="#ececec"/>
      </g>
      <g id="Grupo_902972" data-name="Grupo 902972">
        <path id="Trazado_626090" data-name="Trazado 626090" d="M654.82,934.05c52.86-.65,112.16-.66,165.02,0-52.86.66-112.16.65-165.02,0Z" fill="#ececec"/>
      </g>
      <g id="Grupo_902973" data-name="Grupo 902973">
        <path id="Trazado_626091" data-name="Trazado 626091" d="M592.16,902.04c55.4-.65,117.55-.66,172.95,0-55.4.66-117.55.65-172.95,0Z" fill="#ececec"/>
      </g>
      <g id="Grupo_902974" data-name="Grupo 902974">
        <path id="Trazado_626092" data-name="Trazado 626092" d="M539.42,1114.94c55.4-.65,117.55-.66,172.95,0-55.4.66-117.55.66-172.95,0Z" fill="#ececec"/>
      </g>
      <g id="Grupo_902975" data-name="Grupo 902975">
        <path id="Trazado_626093" data-name="Trazado 626093" d="M626.07,934.05a251.4,251.4,0,0,1,0-32.01,251.4,251.4,0,0,1,0,32.01Z" fill="#ececec"/>
      </g>
      <g id="Grupo_902976" data-name="Grupo 902976">
        <path id="Trazado_626094" data-name="Trazado 626094" d="M362.19,934.05a251.4,251.4,0,0,1,0-32.01,251.4,251.4,0,0,1,0,32.01Z" fill="#ececec"/>
      </g>
      <g id="Grupo_902977" data-name="Grupo 902977">
        <path id="Trazado_626095" data-name="Trazado 626095" d="M230.38,934.05a251.4,251.4,0,0,1,0-32.01,251.4,251.4,0,0,1,0,32.01Z" fill="#ececec"/>
      </g>
      <g id="Grupo_902978" data-name="Grupo 902978">
        <path id="Trazado_626096" data-name="Trazado 626096" d="M230.63,934.05a251.4,251.4,0,0,1,0-32.01,251.4,251.4,0,0,1,0,32.01Z" fill="#ececec"/>
      </g>
      <g id="Grupo_902979" data-name="Grupo 902979">
        <path id="Trazado_626097" data-name="Trazado 626097" d="M757.93,934.05a251.4,251.4,0,0,1,0-32.01,251.4,251.4,0,0,1,0,32.01Z" fill="#ececec"/>
      </g>
      <g id="Grupo_902980" data-name="Grupo 902980">
        <path id="Trazado_626098" data-name="Trazado 626098" d="M692.18,902.18a251.4,251.4,0,0,1,0-32.01,247.756,247.756,0,0,1,0,32.01Z" fill="#ececec"/>
      </g>
      <g id="Grupo_902981" data-name="Grupo 902981">
        <path id="Trazado_626099" data-name="Trazado 626099" d="M626.6,610.61a251.4,251.4,0,0,1,0-32.01,251.373,251.373,0,0,1,0,32.01Z" fill="#ececec"/>
      </g>
      <g id="Grupo_902982" data-name="Grupo 902982">
        <path id="Trazado_626100" data-name="Trazado 626100" d="M107.86,934.12c72.38-.65,153.59-.66,225.97,0-72.39.65-153.59.65-225.97,0Z" fill="#ececec"/>
      </g>
      <g id="Grupo_902983" data-name="Grupo 902983">
        <path id="Trazado_626101" data-name="Trazado 626101" d="M201.07,902.11c57.96-.65,122.99-.66,180.94,0-57.95.66-122.98.65-180.94,0Z" fill="#ececec"/>
      </g>
      <g id="Grupo_902984" data-name="Grupo 902984">
        <path id="Trazado_626102" data-name="Trazado 626102" d="M296.29,902.11a251.4,251.4,0,0,1,0-32.01,247.756,247.756,0,0,1,0,32.01Z" fill="#ececec"/>
      </g>
      <g id="Grupo_902985" data-name="Grupo 902985">
        <path id="Trazado_626103" data-name="Trazado 626103" d="M410.76,699.48c35.98-.66,75.99-.65,112,0-36.01.65-76,.67-112,0Z" fill="#ececec"/>
      </g>
      <g id="Grupo_902986" data-name="Grupo 902986">
        <path id="Trazado_626104" data-name="Trazado 626104" d="M384.57,667.48c57.96-.65,122.99-.66,180.94,0-57.96.65-122.98.65-180.94,0Z" fill="#ececec"/>
      </g>
      <g id="Grupo_902987" data-name="Grupo 902987">
        <path id="Trazado_626105" data-name="Trazado 626105" d="M441.96,731.49a251.4,251.4,0,0,1,0-32.01,251.384,251.384,0,0,1,0,32.01Z" fill="#ececec"/>
      </g>
      <g id="Grupo_902988" data-name="Grupo 902988">
        <path id="Trazado_626106" data-name="Trazado 626106" d="M507.85,699.48a251.4,251.4,0,0,1,0-32.01,247.756,247.756,0,0,1,0,32.01Z" fill="#ececec"/>
      </g>
    </g>
    <g id="Grupo_903000" data-name="Grupo 903000" transform="translate(698.5 3189.235)" clip-path="url(#clip-path)">
      <g id="Grupo_902994" data-name="Grupo 902994">
        <path id="Trazado_626108" data-name="Trazado 626108" d="M580.48,529.8h77.13a70.828,70.828,0,0,1,70.83,70.83v606.72a6.653,6.653,0,0,1-6.65,6.65H516.31a6.653,6.653,0,0,1-6.65-6.65V600.63A70.813,70.813,0,0,1,580.48,529.8Z" fill="#ececec"/>
        <g id="Grupo_902993" data-name="Grupo 902993">
          <g id="Grupo_902992" data-name="Grupo 902992">
            <g id="Grupo_902990" data-name="Grupo 902990">
              <rect id="Rectángulo_329872" data-name="Rectángulo 329872" width="92.39" height="182.11" transform="translate(521.58 736.09)" fill="#fff"/>
              <rect id="Rectángulo_329873" data-name="Rectángulo 329873" width="92.39" height="182.11" transform="translate(624.13 736.09)" fill="#fff"/>
              <rect id="Rectángulo_329874" data-name="Rectángulo 329874" width="92.39" height="272.21" transform="translate(521.58 928.36)" fill="#fff"/>
              <rect id="Rectángulo_329875" data-name="Rectángulo 329875" width="92.39" height="272.21" transform="translate(624.13 928.36)" fill="#fff"/>
              <path id="Trazado_626109" data-name="Trazado 626109" d="M613.97,543.1V725.92H521.58V640.44A97.491,97.491,0,0,1,613.97,543.1Z" fill="#fff"/>
              <path id="Trazado_626110" data-name="Trazado 626110" d="M716.52,640.45v85.48H624.13V543.1A97.493,97.493,0,0,1,716.52,640.45Z" fill="#fff"/>
            </g>
            <g id="Grupo_902991" data-name="Grupo 902991" opacity="0.3">
              <path id="Trazado_626111" data-name="Trazado 626111" d="M521.57,675.44l92.39-92.39v51.01l-91.87,91.86h-.52Z" fill="#ececec"/>
              <path id="Trazado_626112" data-name="Trazado 626112" d="M681.99,566.04,624.13,623.9V572.89l25.12-25.12A96.363,96.363,0,0,1,681.99,566.04Z" fill="#ececec"/>
              <path id="Trazado_626113" data-name="Trazado 626113" d="M590.87,1200.57l23.09-23.09v23.09Z" fill="#ececec"/>
              <path id="Trazado_626114" data-name="Trazado 626114" d="M716.51,1074.93v51.01l-74.63,74.63H624.13v-33.25Z" fill="#ececec"/>
              <path id="Trazado_626115" data-name="Trazado 626115" d="M521.57,901.61l92.39-92.39v7.74l-92.39,92.38Z" fill="#ececec"/>
              <path id="Trazado_626116" data-name="Trazado 626116" d="M694.83,736.09l-70.7,70.7v-7.73l62.97-62.97Z" fill="#ececec"/>
              <path id="Trazado_626117" data-name="Trazado 626117" d="M716.51,706.67v7.73l-11.52,11.52h-7.73Z" fill="#ececec"/>
              <path id="Trazado_626118" data-name="Trazado 626118" d="M563.35,1200.57l50.61-50.61v7.73l-42.88,42.88Z" fill="#ececec"/>
              <path id="Trazado_626119" data-name="Trazado 626119" d="M716.51,1047.4v7.74l-92.38,92.39v-7.74Z" fill="#ececec"/>
              <path id="Trazado_626120" data-name="Trazado 626120" d="M593.21,546.45l-68.18,68.18a92.637,92.637,0,0,1,4.07-11.79l52.33-52.33A91.438,91.438,0,0,1,593.21,546.45Z" fill="#ececec"/>
              <path id="Trazado_626121" data-name="Trazado 626121" d="M535.71,736.09h26.44l-40.58,40.57V750.23Z" fill="#ececec"/>
              <path id="Trazado_626122" data-name="Trazado 626122" d="M613.96,657.84v26.44l-41.65,41.64H545.88Z" fill="#ececec"/>
              <path id="Trazado_626123" data-name="Trazado 626123" d="M704.59,593.65l-80.46,80.46V647.68l69.73-69.73A99.62,99.62,0,0,1,704.59,593.65Z" fill="#ececec"/>
              <path id="Trazado_626124" data-name="Trazado 626124" d="M521.57,1145.13l92.39-92.41v26.45l-92.39,92.38Z" fill="#ececec"/>
              <path id="Trazado_626125" data-name="Trazado 626125" d="M716.51,950.17v26.45l-92.38,92.39v-26.45Z" fill="#ececec"/>
            </g>
          </g>
        </g>
      </g>
      <g id="Grupo_902999" data-name="Grupo 902999">
        <path id="Trazado_626126" data-name="Trazado 626126" d="M219.09,519.8h77.13a70.828,70.828,0,0,1,70.83,70.83v606.72a6.653,6.653,0,0,1-6.65,6.65H154.91a6.653,6.653,0,0,1-6.65-6.65V590.63A70.828,70.828,0,0,1,219.09,519.8Z" fill="#ececec"/>
        <g id="Grupo_902998" data-name="Grupo 902998">
          <g id="Grupo_902997" data-name="Grupo 902997">
            <g id="Grupo_902995" data-name="Grupo 902995">
              <rect id="Rectángulo_329876" data-name="Rectángulo 329876" width="92.39" height="182.11" transform="translate(160.19 726.09)" fill="#fff"/>
              <rect id="Rectángulo_329877" data-name="Rectángulo 329877" width="92.39" height="182.11" transform="translate(262.74 726.09)" fill="#fff"/>
              <rect id="Rectángulo_329878" data-name="Rectángulo 329878" width="92.39" height="272.21" transform="translate(160.19 918.36)" fill="#fff"/>
              <rect id="Rectángulo_329879" data-name="Rectángulo 329879" width="92.39" height="272.21" transform="translate(262.74 918.36)" fill="#fff"/>
              <path id="Trazado_626127" data-name="Trazado 626127" d="M252.57,533.1V715.92H160.18V630.44A97.505,97.505,0,0,1,252.57,533.1Z" fill="#fff"/>
              <path id="Trazado_626128" data-name="Trazado 626128" d="M355.13,630.45v85.48H262.74V533.1A97.5,97.5,0,0,1,355.13,630.45Z" fill="#fff"/>
            </g>
            <g id="Grupo_902996" data-name="Grupo 902996" opacity="0.3">
              <path id="Trazado_626129" data-name="Trazado 626129" d="M160.18,665.44l92.39-92.39v51.01L160.7,715.92h-.52Z" fill="#ececec"/>
              <path id="Trazado_626130" data-name="Trazado 626130" d="M320.59,556.04,262.73,613.9V562.89l25.12-25.12A96.175,96.175,0,0,1,320.59,556.04Z" fill="#ececec"/>
              <path id="Trazado_626131" data-name="Trazado 626131" d="M229.48,1190.57l23.09-23.09v23.09Z" fill="#ececec"/>
              <path id="Trazado_626132" data-name="Trazado 626132" d="M355.12,1064.93v51.01l-74.63,74.63H262.73v-33.25Z" fill="#ececec"/>
              <path id="Trazado_626133" data-name="Trazado 626133" d="M160.18,891.61l92.39-92.39v7.74l-92.39,92.38Z" fill="#ececec"/>
              <path id="Trazado_626134" data-name="Trazado 626134" d="M333.43,726.09l-70.7,70.7v-7.73l62.97-62.97Z" fill="#ececec"/>
              <path id="Trazado_626135" data-name="Trazado 626135" d="M355.12,696.67v7.73L343.6,715.92h-7.73Z" fill="#ececec"/>
              <path id="Trazado_626136" data-name="Trazado 626136" d="M201.95,1190.57l50.62-50.61v7.73l-42.88,42.88Z" fill="#ececec"/>
              <path id="Trazado_626137" data-name="Trazado 626137" d="M355.12,1037.4v7.74l-92.39,92.39v-7.74Z" fill="#ececec"/>
              <path id="Trazado_626138" data-name="Trazado 626138" d="M231.82,536.45l-68.18,68.18a92.64,92.64,0,0,1,4.07-11.79l52.33-52.33A91.442,91.442,0,0,1,231.82,536.45Z" fill="#ececec"/>
              <path id="Trazado_626139" data-name="Trazado 626139" d="M174.32,726.09h26.44l-40.58,40.57V740.23Z" fill="#ececec"/>
              <path id="Trazado_626140" data-name="Trazado 626140" d="M252.57,647.84v26.44l-41.65,41.64H184.48Z" fill="#ececec"/>
              <path id="Trazado_626141" data-name="Trazado 626141" d="M343.19,583.65l-80.46,80.46V637.68l69.73-69.73A98.288,98.288,0,0,1,343.19,583.65Z" fill="#ececec"/>
              <path id="Trazado_626142" data-name="Trazado 626142" d="M160.18,1135.13l92.39-92.41v26.45l-92.39,92.38Z" fill="#ececec"/>
              <path id="Trazado_626143" data-name="Trazado 626143" d="M355.12,940.17v26.45l-92.39,92.39v-26.45Z" fill="#ececec"/>
            </g>
          </g>
        </g>
      </g>
    </g>
    <g id="Grupo_903042" data-name="Grupo 903042" transform="translate(698.5 3189.235)" clip-path="url(#clip-path)">
      <g id="Grupo_903001" data-name="Grupo 903001">
        <line id="Línea_201" data-name="Línea 201" y1="136.95" x2="33.5" transform="translate(669.97 506.01)" fill="none" stroke="#1a2e35" stroke-miterlimit="10" stroke-width="2"/>
        <line id="Línea_202" data-name="Línea 202" x1="33.5" y1="136.95" transform="translate(710.37 506.01)" fill="none" stroke="#1a2e35" stroke-miterlimit="10" stroke-width="2"/>
        <line id="Línea_203" data-name="Línea 203" y1="136.95" transform="translate(706.75 506.01)" fill="none" stroke="#1a2e35" stroke-miterlimit="10" stroke-width="2"/>
        <path id="Trazado_626145" data-name="Trazado 626145" d="M711.61,501.91a4.87,4.87,0,1,1-4.87-4.87A4.87,4.87,0,0,1,711.61,501.91Z" fill="none" stroke="#ffc800" stroke-miterlimit="10" stroke-width="3"/>
        <line id="Línea_204" data-name="Línea 204" y1="12.23" transform="translate(706.75 486.53)" fill="none" stroke="#1a2e35" stroke-miterlimit="10" stroke-width="2"/>
      </g>
    </g>
    <g id="Grupo_903135" data-name="Grupo 903135" transform="translate(698.5 3185.718)" clip-path="url(#clip-path-5)">
      <g id="Grupo_903043" data-name="Grupo 903043">
        <path id="Trazado_626193" data-name="Trazado 626193" d="M578.93,1151.92H548.11L502.18,898.53h76.75Z" fill="#2b454e"/>
      </g>
      <g id="Grupo_903044" data-name="Grupo 903044">
        <rect id="Rectángulo_329880" data-name="Rectángulo 329880" width="61.99" height="253.39" transform="translate(578.93 898.53)" fill="#375a64"/>
        <path id="Trazado_626194" data-name="Trazado 626194" d="M578.93,898.53c.48,18.13.71,58.15.9,76.27l.27,54.38-.27,54.38-.33,27.19-.57,27.19-.57-27.19-.33-27.19-.27-54.38.27-54.38C578.22,956.67,578.45,916.66,578.93,898.53Z" fill="#1a2e35"/>
      </g>
      <g id="Grupo_903046" data-name="Grupo 903046">
        <g id="Grupo_903045" data-name="Grupo 903045">
          <path id="Trazado_626195" data-name="Trazado 626195" d="M328.01,1033.12H254.39L216.64,823.06l67.4-30.96Z" fill="#2b454e"/>
        </g>
      </g>
      <g id="Grupo_903047" data-name="Grupo 903047">
        <path id="Trazado_626196" data-name="Trazado 626196" d="M526.72,1033.12H328.01L284.04,792.1H482.75Z" fill="#375a64"/>
      </g>
      <g id="Grupo_903048" data-name="Grupo 903048">
        <rect id="Rectángulo_329881" data-name="Rectángulo 329881" width="228.66" height="51.84" transform="translate(350.27 981.76)" fill="#375a64"/>
      </g>
      <g id="Grupo_903049" data-name="Grupo 903049">
        <path id="Trazado_626197" data-name="Trazado 626197" d="M218.33,1151.91l-1.53,18.76L213.24,1214H196.9l-3.56-43.33-1.53-18.76Z" fill="#ffc800"/>
        <path id="Trazado_626198" data-name="Trazado 626198" d="M218.33,1151.91l-1.53,18.76L213.24,1214H196.9l-3.56-43.33-1.53-18.76Z" opacity="0.4"/>
        <path id="Trazado_626199" data-name="Trazado 626199" d="M191.81,1151.91h26.52l-.42,5.08-25.51,2.11Z" opacity="0.1"/>
      </g>
      <g id="Grupo_903050" data-name="Grupo 903050">
        <path id="Trazado_626200" data-name="Trazado 626200" d="M332.53,1151.91,331,1170.67,327.44,1214H311.1l-3.56-43.33-1.53-18.76Z" fill="#ffc800"/>
        <path id="Trazado_626201" data-name="Trazado 626201" d="M332.53,1151.91,331,1170.67,327.44,1214H311.1l-3.56-43.33-1.53-18.76Z" opacity="0.4"/>
        <path id="Trazado_626202" data-name="Trazado 626202" d="M306.01,1151.91h26.52l-.42,5.08-25.51,2.11Z" opacity="0.1"/>
      </g>
      <g id="Grupo_903051" data-name="Grupo 903051">
        <path id="Trazado_626203" data-name="Trazado 626203" d="M509.95,1151.91l-1.53,18.76L504.86,1214H488.53l-3.57-43.33-1.52-18.76Z" fill="#ffc800"/>
        <path id="Trazado_626204" data-name="Trazado 626204" d="M509.95,1151.91l-1.53,18.76L504.86,1214H488.53l-3.57-43.33-1.52-18.76Z" opacity="0.4"/>
        <path id="Trazado_626205" data-name="Trazado 626205" d="M483.44,1151.91h26.51l-.41,5.08-25.52,2.11Z" opacity="0.1"/>
      </g>
      <g id="Grupo_903052" data-name="Grupo 903052">
        <path id="Trazado_626206" data-name="Trazado 626206" d="M624.18,1151.91l-1.53,18.76L619.09,1214H602.75l-3.56-43.33-1.53-18.76Z" fill="#ffc800"/>
        <path id="Trazado_626207" data-name="Trazado 626207" d="M624.18,1151.91l-1.53,18.76L619.09,1214H602.75l-3.56-43.33-1.53-18.76Z" opacity="0.4"/>
        <path id="Trazado_626208" data-name="Trazado 626208" d="M597.66,1151.91h26.52l-.41,5.08-25.52,2.11Z" opacity="0.1"/>
      </g>
      <g id="Grupo_903053" data-name="Grupo 903053">
        <rect id="Rectángulo_329882" data-name="Rectángulo 329882" width="228.66" height="118.8" transform="translate(350.27 1033.12)" fill="#375a64"/>
      </g>
      <g id="Grupo_903054" data-name="Grupo 903054">
        <path id="Trazado_626209" data-name="Trazado 626209" d="M578.93,1033.12c-20.06.48-40.11.71-60.17.9l-60.16.27-48.17-.27-30.08-.33-30.08-.57,30.08-.57,30.08-.33,48.17-.27,60.16.27C538.82,1032.41,558.88,1032.64,578.93,1033.12Z" fill="#1a2e35"/>
        <path id="Trazado_626210" data-name="Trazado 626210" d="M578.93,981.76c-20.06.48-40.11.71-60.17.9l-60.16.27-48.17-.27-30.08-.33-30.08-.57,30.08-.57,30.08-.33,48.17-.27,60.16.27C538.82,981.05,558.88,981.28,578.93,981.76Z" fill="#1a2e35"/>
      </g>
      <g id="Grupo_903055" data-name="Grupo 903055" opacity="0.2">
        <path id="Trazado_626211" data-name="Trazado 626211" d="M310.33,895a1.206,1.206,0,0,0,0,2.41A1.206,1.206,0,0,0,310.33,895Z"/>
        <path id="Trazado_626212" data-name="Trazado 626212" d="M312.39,1042.39a1.206,1.206,0,0,0,0,2.41A1.206,1.206,0,0,0,312.39,1042.39Z"/>
        <path id="Trazado_626213" data-name="Trazado 626213" d="M241.82,821.46a2.474,2.474,0,0,0-.19-.36.543.543,0,0,0-.93,0c-.07.12-.13.24-.19.36C239.83,822.89,242.51,822.89,241.82,821.46Z"/>
        <path id="Trazado_626214" data-name="Trazado 626214" d="M261.21,1045.43a3.122,3.122,0,0,0-.19-.36.543.543,0,0,0-.93,0c-.07.12-.13.24-.19.36C259.22,1046.85,261.9,1046.85,261.21,1045.43Z"/>
        <path id="Trazado_626215" data-name="Trazado 626215" d="M320.69,902.35a.921.921,0,0,0,0,1.84A.921.921,0,0,0,320.69,902.35Z"/>
        <path id="Trazado_626216" data-name="Trazado 626216" d="M480.15,1079.8a1.206,1.206,0,0,0,0,2.41A1.206,1.206,0,0,0,480.15,1079.8Z"/>
        <path id="Trazado_626217" data-name="Trazado 626217" d="M375.37,1110.44a.921.921,0,0,0,0,1.84A.921.921,0,0,0,375.37,1110.44Z"/>
        <path id="Trazado_626218" data-name="Trazado 626218" d="M243.31,995.77a.921.921,0,0,0,0,1.84A.921.921,0,0,0,243.31,995.77Z"/>
        <path id="Trazado_626219" data-name="Trazado 626219" d="M364.13,851a1.286,1.286,0,0,0-1.8,0,1.791,1.791,0,0,0-.44,1.74,1.4,1.4,0,0,0,2.67,0A1.769,1.769,0,0,0,364.13,851Z"/>
        <path id="Trazado_626220" data-name="Trazado 626220" d="M322.48,1035.57a1.286,1.286,0,0,0-1.8,0,1.791,1.791,0,0,0-.44,1.74,1.4,1.4,0,0,0,2.68,0A1.774,1.774,0,0,0,322.48,1035.57Z"/>
        <path id="Trazado_626221" data-name="Trazado 626221" d="M205.97,1113.11a1.286,1.286,0,0,0-1.8,0,1.791,1.791,0,0,0-.44,1.74,1.4,1.4,0,0,0,2.68,0A1.8,1.8,0,0,0,205.97,1113.11Z"/>
        <path id="Trazado_626222" data-name="Trazado 626222" d="M549.09,1048a1.206,1.206,0,0,0,0-2.41A1.206,1.206,0,0,0,549.09,1048Z"/>
        <path id="Trazado_626223" data-name="Trazado 626223" d="M489.19,887.18a1.206,1.206,0,0,0,0-2.41A1.206,1.206,0,0,0,489.19,887.18Z"/>
        <path id="Trazado_626224" data-name="Trazado 626224" d="M601.37,1036.62c.06.12.12.24.19.36a.543.543,0,0,0,.93,0c.07-.12.13-.24.19-.36C603.36,1035.2,600.68,1035.2,601.37,1036.62Z"/>
        <path id="Trazado_626225" data-name="Trazado 626225" d="M615.87,933.9a3.122,3.122,0,0,0,.19.36.543.543,0,0,0,.93,0c.07-.12.13-.24.19-.36C617.86,932.48,615.19,932.48,615.87,933.9Z"/>
        <path id="Trazado_626226" data-name="Trazado 626226" d="M612.07,1101.05a3.122,3.122,0,0,0,.19.36.543.543,0,0,0,.93,0c.07-.12.13-.24.19-.36C614.07,1099.63,611.39,1099.63,612.07,1101.05Z"/>
        <path id="Trazado_626227" data-name="Trazado 626227" d="M452.44,964.04a1.286,1.286,0,0,0,1.8,0,1.791,1.791,0,0,0,.44-1.74,1.4,1.4,0,0,0-2.68,0A1.774,1.774,0,0,0,452.44,964.04Z"/>
        <path id="Trazado_626228" data-name="Trazado 626228" d="M627.42,939.33a1.286,1.286,0,0,0,1.8,0,1.791,1.791,0,0,0,.44-1.74,1.4,1.4,0,0,0-2.67,0A1.747,1.747,0,0,0,627.42,939.33Z"/>
      </g>
      <g id="Grupo_903130" data-name="Grupo 903130">
        <g id="Grupo_903066" data-name="Grupo 903066">
          <g id="Grupo_903065" data-name="Grupo 903065">
            <g id="Grupo_903060" data-name="Grupo 903060">
              <path id="Trazado_626229" data-name="Trazado 626229" d="M764.5,1215.26c-5.16,1.39-153.83-8.28-159.12-12.17-.62-.4,1.13-49.71,1.13-49.71.24-.68-16.28-70.89-16.28-70.89l92.29-3.99,20.05,83.84s19.56,9.63,36.54,19.01c.02.03.05.03.05.05,10.46,5.76,19.54,11,21.61,12.84C766.07,1199.09,769.66,1213.92,764.5,1215.26Z" fill="#ff9581"/>
              <path id="Trazado_626230" data-name="Trazado 626230" d="M764.51,1215.26c-5.17,1.39-153.83-8.28-159.14-12.17-.62-.41,1.14-49.7,1.14-49.7.06-.17-2.99-13.76-2.99-13.76l94.67,5.28,4.39,17.44s19.56,9.62,36.53,19.02c.04.02.06.02.06.04,10.47,5.77,19.54,11.01,21.61,12.85C766.07,1199.09,769.65,1213.91,764.51,1215.26Z" fill="#ececec"/>
              <g id="Grupo_903059" data-name="Grupo 903059">
                <g id="Grupo_903056" data-name="Grupo 903056">
                  <path id="Trazado_626231" data-name="Trazado 626231" d="M765.08,1215.87c-5.32,1.39-154.14-8.68-159.57-12.65-2.07-1.5-2.75-24.59,1.01-49.83l95.94,6.61s53.4,29.24,58.89,34.23C766.81,1199.22,770.39,1214.48,765.08,1215.87Z" fill="#ffc800"/>
                </g>
                <g id="Grupo_903058" data-name="Grupo 903058">
                  <g id="Grupo_903057" data-name="Grupo 903057">
                    <path id="Trazado_626232" data-name="Trazado 626232" d="M763.35,1209.77c-24.91-2.3-125.58-9.23-150.37-9.61-.2,0-.21.13-.01.16,24.64,2.82,125.36,8.93,150.36,9.86C763.85,1210.2,763.87,1209.82,763.35,1209.77Z" fill="#1a2e35"/>
                    <path id="Trazado_626233" data-name="Trazado 626233" d="M752.14,1188.22a20.126,20.126,0,0,0-15.34,5.08c-3.33,3.18-6.3,7.76-6.48,12.94,0,.15.27.17.3.02,2.09-9.67,11.55-17.64,21.49-17.73A.156.156,0,0,0,752.14,1188.22Z" fill="#1a2e35"/>
                    <path id="Trazado_626234" data-name="Trazado 626234" d="M710.11,1163.03c-9.98-.81-21.79,1.93-28.55,9.67-.26.3.17.67.48.54a138.636,138.636,0,0,1,28.16-8.97A.63.63,0,0,0,710.11,1163.03Z" fill="#1a2e35"/>
                    <path id="Trazado_626235" data-name="Trazado 626235" d="M717.61,1166.55c-9.98-.81-21.79,1.93-28.55,9.67-.26.3.17.67.48.53a138.636,138.636,0,0,1,28.16-8.97A.623.623,0,0,0,717.61,1166.55Z" fill="#1a2e35"/>
                    <path id="Trazado_626236" data-name="Trazado 626236" d="M725.12,1170.08c-9.98-.81-21.79,1.93-28.55,9.67-.26.3.17.67.48.54a138.636,138.636,0,0,1,28.16-8.97A.63.63,0,0,0,725.12,1170.08Z" fill="#1a2e35"/>
                    <path id="Trazado_626237" data-name="Trazado 626237" d="M732.62,1173.61c-9.98-.81-21.79,1.93-28.55,9.67-.26.3.17.67.48.53a138.636,138.636,0,0,1,28.16-8.97A.623.623,0,0,0,732.62,1173.61Z" fill="#1a2e35"/>
                    <path id="Trazado_626238" data-name="Trazado 626238" d="M620.93,1176.9c-11.21-.73-12.35,16.69-1.13,17.41S632.16,1177.62,620.93,1176.9Z" fill="#1a2e35"/>
                  </g>
                  <path id="Trazado_626239" data-name="Trazado 626239" d="M722.7,1137.11c-4.77-4.53-11.42-.87-14.83,3.27a52.565,52.565,0,0,0-10.8,24.92.266.266,0,0,0,.29.31,1.224,1.224,0,0,0,1.74.93c7.44-4.44,15.95-8.26,21.81-14.85C724.33,1147.85,727.21,1141.4,722.7,1137.11Zm-13.69,20.4c-3.61,2.27-7.3,4.35-10.83,6.75a156.258,156.258,0,0,1,6.63-14.41,59.088,59.088,0,0,1,4.1-6.49c2.39-3.15,12.76-10.83,13.02.1C722.08,1149.48,713.31,1154.8,709.01,1157.51Z" fill="#1a2e35"/>
                  <path id="Trazado_626240" data-name="Trazado 626240" d="M672.02,1167.33c8.6,1.92,17.74.06,26.37-.69a1.22,1.22,0,0,0,.87-1.77.269.269,0,0,0,.06-.42A52.426,52.426,0,0,0,676,1150.54c-5.19-1.37-12.72-.46-13.95,6.01C660.89,1162.65,666.99,1166.2,672.02,1167.33Zm-5.65-6.09c-6.18-9.02,6.72-8.84,10.51-7.68a56.946,56.946,0,0,1,7.12,2.87,157.451,157.451,0,0,1,13.8,7.83c-4.26.11-8.48.58-12.73.84C680,1165.41,669.78,1166.21,666.37,1161.24Z" fill="#1a2e35"/>
                </g>
              </g>
            </g>
            <g id="Grupo_903064" data-name="Grupo 903064">
              <path id="Trazado_626241" data-name="Trazado 626241" d="M701.34,1153.16l-100.37-3.78s-35.89-162.72-46.22-169.59c-12.47-8.3-142.75,3.86-182.35-28.74-22.7-18.69-26.78-55.68-26.78-55.68l72.16-33.57s13.55,11.51,17.79,13.15c15.79,6.13,149.18-7.11,187.17,21.72C664,927.99,701.34,1153.16,701.34,1153.16Z" fill="#1a2e35"/>
              <path id="Trazado_626242" data-name="Trazado 626242" d="M701.34,1153.16l-100.37-3.78s-35.89-162.72-46.22-169.59c-12.47-8.3-142.75,3.86-182.35-28.74-22.7-18.69-26.78-55.68-26.78-55.68l72.16-33.57s13.55,11.51,17.79,13.15c15.79,6.13,149.18-7.11,187.17,21.72C664,927.99,701.34,1153.16,701.34,1153.16Z" fill="#ffc800"/>
              <path id="Trazado_626243" data-name="Trazado 626243" d="M701.34,1153.16l-100.37-3.78s-35.89-162.72-46.22-169.59c-12.47-8.3-142.75,3.86-182.35-28.74-22.7-18.69-26.78-55.68-26.78-55.68l72.16-33.57s13.55,11.51,17.79,13.15c15.79,6.13,149.18-7.11,187.17,21.72C664,927.99,701.34,1153.16,701.34,1153.16Z" opacity="0.4"/>
              <path id="Trazado_626244" data-name="Trazado 626244" d="M701.34,1153.16l-100.37-3.78s-35.89-162.72-46.22-169.59c-12.47-8.3-142.75,3.86-182.35-28.74-22.7-18.69-26.78-55.68-26.78-55.68l72.16-33.57s13.55,11.51,17.79,13.15c15.79,6.13,149.18-7.11,187.17,21.72C664,927.99,701.34,1153.16,701.34,1153.16Z" fill="#fff" opacity="0.5"/>
              <g id="Grupo_903063" data-name="Grupo 903063">
                <g id="Grupo_903062" data-name="Grupo 903062">
                  <g id="Grupo_903061" data-name="Grupo 903061">
                    <path id="Trazado_626245" data-name="Trazado 626245" d="M692.19,1134.29c-17-.96-12.11-.91-29.12-1.69-8.32-.38-50.16-2.39-57.99-1.45a.171.171,0,0,0-.01.33c7.74,1.51,49.61,2.61,57.94,2.84,17.02.47,12.14.16,29.17.44A.235.235,0,1,0,692.19,1134.29Z" fill="#1a2e35"/>
                  </g>
                </g>
              </g>
              <path id="Trazado_626246" data-name="Trazado 626246" d="M363.62,900.72c7.82,18.44,18.96,37.56,37.09,47.31a52.646,52.646,0,0,0,11.6,3.4c40.57,6.65,81.87,6.16,122.9,8.76,8.23.55,16.45,1.01,24.73,2.29,2.23.48,4.69.66,6.55,2.21a20.446,20.446,0,0,1,3.66,5.58c8.45,18.92,13.49,39.09,18.99,58.94q12.66,47.76,22.92,96.1c-10.14-39.86-20.19-79.77-32.09-119.15-2.39-7.86-4.87-15.69-7.69-23.38-2.14-5.35-4.06-11.64-7.73-15.96-1.18-.86-3.49-1.16-5.1-1.47-7.99-1.19-16.25-1.62-24.43-2.11-38.8-2.52-85.13-2.63-123.13-9.88a42.888,42.888,0,0,1-22.21-10.98c-12.16-11.31-20.38-26.23-26.06-41.66Z" fill="#1a2e35"/>
              <path id="Trazado_626247" data-name="Trazado 626247" d="M563.37,879.86,443.4,972.2c-29.05-3.09-56.27-9.04-70.99-21.14-22.71-18.69-26.79-55.68-26.79-55.68l72.17-33.58s13.54,11.51,17.78,13.15C446.27,879.11,510.96,874.36,563.37,879.86Z" opacity="0.2"/>
            </g>
          </g>
        </g>
        <g id="Grupo_903114" data-name="Grupo 903114">
          <g id="Grupo_903067" data-name="Grupo 903067">
            <path id="Trazado_626248" data-name="Trazado 626248" d="M418.44,728.64c51.93,24.27,101.95,52.93,111.17,72.55,12.76,27.15-2.3,40.37-10.1,42.83-21.25,6.72-86.35-67.83-109.88-96.69C386.76,719.3,407.04,723.31,418.44,728.64Z" fill="#ffc800"/>
            <path id="Trazado_626249" data-name="Trazado 626249" d="M502.78,839.67c-28.25-16.17-74.2-69.08-93.16-92.34-22.58-27.69-3.05-24.11,8.41-18.86Z" opacity="0.1"/>
          </g>
          <g id="Grupo_903069" data-name="Grupo 903069">
            <g id="Grupo_903068" data-name="Grupo 903068">
              <path id="Trazado_626250" data-name="Trazado 626250" d="M317.83,896.02c.33.39,137.43-18.58,138.8-20.06,1.92-2.07-13.63-113.03-36.68-145.26-5.76-8.06-26.04-9.12-35.69-2.2C336.42,762.83,316.66,894.62,317.83,896.02Z" fill="#ffc800"/>
            </g>
          </g>
          <g id="Grupo_903071" data-name="Grupo 903071">
            <path id="Trazado_626251" data-name="Trazado 626251" d="M378.72,731.17c-40.6,30.7-80.94,84.29-81.8,114.66-.84,29.99,9.66,27.28,12.63,27.14,18.14-.85,62.37-83.53,75.99-117.32C399.06,722.11,388.76,723.58,378.72,731.17Z" fill="#ffc800"/>
            <g id="Grupo_903070" data-name="Grupo 903070">
              <path id="Trazado_626252" data-name="Trazado 626252" d="M334.06,849.99c2.17-3.74,4.4-7.44,6.51-11.21l6.45-11.23c4.26-7.51,8.58-14.98,12.72-22.55,4.29-7.49,8.4-15.08,12.49-22.67,2.06-3.79,4.08-7.61,6.03-11.45,2.03-3.81,3.88-7.71,5.77-11.6a232.171,232.171,0,0,1-10.37,23.79c-3.81,7.77-7.95,15.37-12.1,22.96-4.3,7.5-8.61,15.01-13.17,22.35S339.16,843,334.06,849.99Z" fill="#1a2e35"/>
              <path id="Trazado_626253" data-name="Trazado 626253" d="M379.62,769.24a36.384,36.384,0,0,1,2.54-3.87c.46-.61.9-1.23,1.39-1.82s.94-1.21,1.5-1.79a11.638,11.638,0,0,1-2.05,4.23A12.757,12.757,0,0,1,379.62,769.24Z" fill="#1a2e35"/>
            </g>
          </g>
          <g id="Grupo_903088" data-name="Grupo 903088">
            <path id="Trazado_626254" data-name="Trazado 626254" d="M386.84,729.38c1.17,1.59,2.4,3.14,3.64,4.67,1.26,1.52,2.54,3,3.84,4.47,2.61,2.93,5.29,5.78,8.1,8.48s5.67,5.34,8.67,7.81c2.97,2.49,6.07,4.81,9.23,7.04l-1.07.24c.05-.1.18-.35.26-.56a6.852,6.852,0,0,0,.26-.68c.16-.47.32-.94.46-1.42.29-.96.53-1.95.77-2.95.47-1.99.86-4,1.24-6.03s.7-4.06,1.04-6.09l.96-6.13c-.06,2.07-.19,4.13-.34,6.2-.13,2.07-.36,4.13-.6,6.19-.27,2.06-.57,4.11-.97,6.16-.21,1.02-.43,2.04-.71,3.06q-.2.765-.45,1.53c-.09.26-.17.51-.27.77-.05.13-.1.26-.16.39a2.966,2.966,0,0,1-.22.44l-.41.7-.66-.46a110.866,110.866,0,0,1-9.38-7.09c-1.52-1.24-2.97-2.58-4.43-3.9-.73-.66-1.42-1.37-2.13-2.05s-1.41-1.38-2.09-2.1a110.518,110.518,0,0,1-7.81-8.92A87.486,87.486,0,0,1,386.84,729.38Z" fill="#1a2e35"/>
            <g id="Grupo_903086" data-name="Grupo 903086">
              <g id="Grupo_903073" data-name="Grupo 903073">
                <g id="Grupo_903072" data-name="Grupo 903072">
                  <path id="Trazado_626255" data-name="Trazado 626255" d="M412.92,750.11c-6.18-.41-17.66-13.33-21.56-23.57-.26-.7,1.69-7.45,3.67-15.75,1.18-5.04,2.38-10.69,3.11-15.92l31.7,12.5s-4.74,10.52-5.94,19.64a12.408,12.408,0,0,0-.07,2.18c0,.1.01.22,0,.36C423.92,733.72,422.59,750.76,412.92,750.11Z" fill="#ff9581"/>
                </g>
                <path id="Trazado_626256" data-name="Trazado 626256" d="M423.82,729.19c0,.1.02.21.01.36a21,21,0,0,1-3.4-.29c-18.59-3-20.01-26.35-19.99-33.49l29.42,11.59s-4.74,10.52-5.97,19.65A13.411,13.411,0,0,0,423.82,729.19Z" fill="#e26d57"/>
              </g>
              <g id="Grupo_903085" data-name="Grupo 903085">
                <g id="Grupo_903074" data-name="Grupo 903074">
                  <path id="Trazado_626257" data-name="Trazado 626257" d="M396.68,655.89c-4.79,11.3-2.15,45.68,5.37,54.07,10.9,12.16,30.5,15.27,41.28,1.77,10.45-13.09,6.22-57.83-2.34-65.63C428.38,634.6,403.75,639.2,396.68,655.89Z" fill="#ff9581"/>
                </g>
                <g id="Grupo_903081" data-name="Grupo 903081">
                  <path id="Trazado_626258" data-name="Trazado 626258" d="M421.84,676.76a27.831,27.831,0,0,0,2.94-.93,5,5,0,0,0,2.81-1.52,1.586,1.586,0,0,0-.19-1.93c-1.09-1.03-2.58-.92-3.95-.54a5.751,5.751,0,0,0-3.41,2.39A1.7,1.7,0,0,0,421.84,676.76Z" fill="#bb672f"/>
                  <path id="Trazado_626259" data-name="Trazado 626259" d="M445.52,676.05a27.742,27.742,0,0,1-3.01-.64,4.966,4.966,0,0,1-2.95-1.24,1.591,1.591,0,0,1,0-1.94c.99-1.13,2.48-1.17,3.88-.91a5.745,5.745,0,0,1,3.62,2.05A1.688,1.688,0,0,1,445.52,676.05Z" fill="#bb672f"/>
                  <path id="Trazado_626260" data-name="Trazado 626260" d="M424.92,703.79c.58.52,1.17,1.24,2.01,1.27a6.194,6.194,0,0,0,2.47-.7c.07-.03.15.04.11.11a3.115,3.115,0,0,1-2.89,1.39,2.481,2.481,0,0,1-1.92-1.97C424.66,703.77,424.84,703.71,424.92,703.79Z" fill="#1a2e35"/>
                  <g id="Grupo_903076" data-name="Grupo 903076">
                    <g id="Grupo_903075" data-name="Grupo 903075">
                      <path id="Trazado_626261" data-name="Trazado 626261" d="M427.05,696.73a7.908,7.908,0,0,0,5.43,3.28,10.077,10.077,0,0,0,2.85,0,2.343,2.343,0,0,0,.54-.09c.17-.03.32-.05.51-.1a.567.567,0,0,0,.44-.54v-.02a2.248,2.248,0,0,0-.03-.24V699l-.01-.2c-.03-1.79-.33-4.5-.33-4.5.67.3,4.06,1.64,3.97.71-.81-7.7-1.71-16.27-4.14-23.77a.215.215,0,0,0-.42.08c.49,7.44,2.27,14.73,2.88,22.2a13.736,13.736,0,0,0-3.78-.96c-.25.08.67,5.23.61,6.03a.617.617,0,0,1-.01.09c-2.98.52-5.29-.29-8.29-2.17C427.08,696.39,426.9,696.55,427.05,696.73Z" fill="#1a2e35"/>
                    </g>
                  </g>
                  <g id="Grupo_903078" data-name="Grupo 903078">
                    <g id="Grupo_903077" data-name="Grupo 903077">
                      <path id="Trazado_626262" data-name="Trazado 626262" d="M427.59,682.31c-.02-.09-.18.11-.17.21.11,2.3-.16,4.96-2.24,5.76-.06.02-.06.14.02.13C427.74,688.01,428.06,684.48,427.59,682.31Z" fill="#1a2e35"/>
                      <path id="Trazado_626263" data-name="Trazado 626263" d="M425.5,679.93c-3.71-.23-3.9,7.21-.46,7.43C428.42,687.57,428.61,680.12,425.5,679.93Z" fill="#1a2e35"/>
                    </g>
                  </g>
                  <g id="Grupo_903080" data-name="Grupo 903080">
                    <g id="Grupo_903079" data-name="Grupo 903079">
                      <path id="Trazado_626264" data-name="Trazado 626264" d="M441.03,681.75c.02-.09.18.12.17.21-.15,2.3.07,4.97,2.13,5.8.06.03.05.14-.02.13C440.77,687.45,440.52,683.91,441.03,681.75Z" fill="#1a2e35"/>
                      <path id="Trazado_626265" data-name="Trazado 626265" d="M443.17,679.41c3.72-.16,3.76,7.29.32,7.43C440.1,686.99,440.05,679.55,443.17,679.41Z" fill="#1a2e35"/>
                    </g>
                  </g>
                </g>
                <g id="Grupo_903082" data-name="Grupo 903082">
                  <path id="Trazado_626266" data-name="Trazado 626266" d="M397.76,701.19s-3.63-.45-4.5-2.83,1.83-8.66-4.31-12.15c-2.13-1.21-3.84-1.9-4.78-3.83-1.75-3.6.21-6.34-.39-8.65-.74-2.86-5.83-3.62-6.33-9.2-.66-7.41,5.71-9.25,6.88-11.75s-.21-6.25,3.4-10.79c3.32-4.18,8.8-2.78,12.09-4.43,3.51-1.76,2.36-7.3,8.49-9.93,4.47-1.92,9.81,2.38,12.93,1.61,4.94-1.22,5.13-5.99,11.56-6.81,7.18-.92,16.47,11.29,17.74,16.01,1.43,5.28-2.29,8.28-1.36,11.61,1.32,4.77,5.49,4.6,5.6,8.82.11,4.17-2.65,6.09-2.8,8.74-.21,3.59.41,4.36.18,7.47a6.6,6.6,0,0,1-2.8,4.81s-.98-15.65-6.18-26.49c-1.73-3.61-4.13-6.16-5.32-5.94-1.56.3-.89,6.16-3.53,6.51s-8.05-5.92-11.77-3.87c-4.96,2.73-3,10.51-8.18,12.93s-7.9.89-9.5,3.29c-1.99,2.98.72,5.31.91,10.81.17,4.96-.96,6.63-.96,6.63l-3.61.48s-4.22-3.64-5.59-3.09C394.24,681.72,397.76,701.19,397.76,701.19Z" fill="#bb672f"/>
                  <path id="Trazado_626267" data-name="Trazado 626267" d="M385.42,649.1c-.43,5.65-7.69,7.7-8.87,12.97-.64,4.34,1.84,7.19,5.29,9.46,1.04.8,2.44,1.81,2.28,3.3-.17-1.43-1.54-2.08-2.65-2.74-2.43-1.29-5-3.09-5.84-5.92a7.872,7.872,0,0,1,1.71-8.18c2.6-3.09,6.95-4.77,8.08-8.89Z" fill="#bb672f"/>
                  <path id="Trazado_626268" data-name="Trazado 626268" d="M450.13,652.24c1.9,1.49,4.77,1.96,5.97,4.35,1.89,3.82-.43,6.42-2.96,9.02a4.481,4.481,0,0,0-1.16,2,3.818,3.818,0,0,1,.64-2.37c1.11-1.89,3-3.83,2.86-6.03a5.094,5.094,0,0,0-1.77-3.76c-1.13-.99-2.69-1.82-3.58-3.21Z" fill="#bb672f"/>
                </g>
                <g id="Grupo_903083" data-name="Grupo 903083">
                  <path id="Trazado_626269" data-name="Trazado 626269" d="M421.5,694.89a10.7,10.7,0,1,1,11.64-12.24h0a10.708,10.708,0,0,1-8.98,12.17A11.325,11.325,0,0,1,421.5,694.89Zm1.98-19.86a9.265,9.265,0,1,0,8.24,7.84A9.263,9.263,0,0,0,423.48,675.03Z" fill="#375a64"/>
                  <path id="Trazado_626270" data-name="Trazado 626270" d="M446.04,694.33c-4.07-.41-7.35-4.95-7.45-10.52a12.755,12.755,0,0,1,2.13-7.51,6.656,6.656,0,0,1,11.4-.2,12.8,12.8,0,0,1,2.39,7.44c.1,5.89-3.38,10.75-7.77,10.83C446.5,694.36,446.27,694.35,446.04,694.33Zm.89-19.9a3.249,3.249,0,0,0-.54-.02,5.693,5.693,0,0,0-4.5,2.71,11.368,11.368,0,0,0-1.87,6.67c.09,5.11,3.08,9.22,6.69,9.15s6.46-4.27,6.37-9.38a11.308,11.308,0,0,0-2.1-6.6A5.879,5.879,0,0,0,446.93,674.43Z" fill="#375a64"/>
                  <path id="Trazado_626271" data-name="Trazado 626271" d="M432.8,683.89l-.94-1.08c1.6-1.39,5.32-3.29,7.97-.54l-1.03.99C436.43,680.8,432.95,683.77,432.8,683.89Z" fill="#375a64"/>
                  <path id="Trazado_626272" data-name="Trazado 626272" d="M385.21,687.47l-1.28-.63c.3-.6,2.98-5.85,6.16-6.43,2.98-.53,22.17.93,22.98,1l-.11,1.42c-5.5-.42-20.32-1.43-22.62-1.01C388.25,682.2,385.93,686.03,385.21,687.47Z" fill="#375a64"/>
                </g>
                <g id="Grupo_903084" data-name="Grupo 903084">
                  <path id="Trazado_626273" data-name="Trazado 626273" d="M401.98,683.97s-6.72-11.57-11.91-9.27-.78,18.63,4.86,21.29a5.937,5.937,0,0,0,8.2-2.51Z" fill="#ff9581"/>
                  <path id="Trazado_626274" data-name="Trazado 626274" d="M391.46,679.35c-.09-.02-.12.11-.04.15,3.94,2,5.77,5.96,6.95,10.02-1.09-1.61-2.67-2.58-4.81-1.31-.11.07-.02.24.09.23a3.644,3.644,0,0,1,3.9,1.61,18.408,18.408,0,0,1,1.65,3.4c.16.38.84.24.73-.19-.01-.03-.02-.07-.03-.1C400.43,687.97,397,680.34,391.46,679.35Z" fill="#1a2e35"/>
                </g>
              </g>
            </g>
            <g id="Grupo_903087" data-name="Grupo 903087">
              <path id="Trazado_626275" data-name="Trazado 626275" d="M424.26,726.74l-8.58,18.24-23.46-24.26L385.03,728s22.39,38.03,22.61,36.35l8.69-15.67,11.23,11.5.12-27.9Z" fill="#ececec"/>
              <path id="Trazado_626276" data-name="Trazado 626276" d="M428.45,746.39c-.14-4.61-.15-9.25-.52-13.85-.01-.16-.28-.25-.33-.05-1.15,4.4-.5,22.02-.68,26.23l-.05-.05c-.47-.5-10.43-10.14-10.54-9.99-1.85,2.47-8.22,13.89-8.67,14.93-3.54-6.04-18.64-29.89-22.88-35.63-.12-.16-.39-.04-.3.15,3.09,6.35,22.57,37.81,22.86,37.74.19.15,8.11-13.9,9.09-16.57,1.67,2.08,11.68,12.92,11.75,12.24A136.843,136.843,0,0,0,428.45,746.39Z" fill="#1a2e35"/>
            </g>
          </g>
          <g id="Grupo_903092" data-name="Grupo 903092">
            <g id="Grupo_903091" data-name="Grupo 903091">
              <g id="Grupo_903089" data-name="Grupo 903089">
                <path id="Trazado_626277" data-name="Trazado 626277" d="M498.67,831.25c-3.71-13.54,14.16-31.01,45.62-61.63,5.52-5.37,60.37,10.84,56.24,17.97-5.21,8.97-41.19,42.48-52.09,49.02C526.94,849.51,503,847.06,498.67,831.25Z" fill="#ff9581"/>
              </g>
              <g id="Grupo_903090" data-name="Grupo 903090">
                <path id="Trazado_626278" data-name="Trazado 626278" d="M526.55,786.27l57.64,24.25s-29.55,26.38-44.48,31.43-33.57,7-41.87-10.03C491.62,819.16,526.55,786.27,526.55,786.27Z" fill="#ffc800"/>
                <path id="Trazado_626279" data-name="Trazado 626279" d="M504.45,811.41c1.48-2.39,3.12-4.66,4.8-6.89,1.66-2.25,3.45-4.41,5.25-6.55,1.83-2.12,3.7-4.2,5.7-6.17a48.335,48.335,0,0,1,6.35-5.52c-1.88,2.09-3.67,4.2-5.46,6.34L515.7,799c-1.83,2.1-3.63,4.23-5.51,6.29S506.44,809.42,504.45,811.41Z" fill="#1a2e35"/>
                <path id="Trazado_626280" data-name="Trazado 626280" d="M523.33,798.13c3.05,1.07,6.02,2.4,9,3.65s5.96,2.53,8.91,3.84c5.91,2.63,11.8,5.29,17.66,8.03,1.6.75,3.2,1.5,4.79,2.28,1.7.83,3.3,1.88,5,2.69a.116.116,0,0,1-.1.21c-1.46-.62-3.01-1.03-4.49-1.62-1.53-.61-3.05-1.26-4.56-1.91q-4.455-1.935-8.89-3.89c-5.91-2.62-11.81-5.28-17.63-8.09-3.29-1.59-6.65-3.1-9.84-4.88A.173.173,0,0,1,523.33,798.13Z" fill="#1a2e35"/>
              </g>
            </g>
          </g>
          <g id="Grupo_903110" data-name="Grupo 903110">
            <g id="Grupo_903104" data-name="Grupo 903104">
              <g id="Grupo_903098" data-name="Grupo 903098">
                <path id="Trazado_626281" data-name="Trazado 626281" d="M485.23,884.57c-33.16-5.55-65.07-12.86-96.19-21q33.885-81.615,46.79-163.24a843.16,843.16,0,0,1,101.14,11.21Q511.185,798.06,485.23,884.57Z" fill="#ffc800"/>
                <path id="Trazado_626282" data-name="Trazado 626282" d="M485.23,884.57c-33.16-5.55-65.07-12.86-96.19-21q33.885-81.615,46.79-163.24a843.16,843.16,0,0,1,101.14,11.21Q511.185,798.06,485.23,884.57Z" fill="#fff" opacity="0.7"/>
                <g id="Grupo_903097" data-name="Grupo 903097">
                  <g id="Grupo_903093" data-name="Grupo 903093">
                    <path id="Trazado_626283" data-name="Trazado 626283" d="M528.31,723.92c-29.01-4.86-58.75-8.69-89.54-10.82.23-1.26.47-2.53.69-3.79a898.763,898.763,0,0,1,90.03,10.62C529.09,721.26,528.7,722.59,528.31,723.92Z" opacity="0.1"/>
                    <path id="Trazado_626284" data-name="Trazado 626284" d="M529.79,718.87a888.969,888.969,0,0,0-90.16-10.56c.04-.25.09-.5.13-.75a888.071,888.071,0,0,1,90.27,10.52C529.96,718.34,529.88,718.61,529.79,718.87Z" opacity="0.1"/>
                    <path id="Trazado_626285" data-name="Trazado 626285" d="M527.64,726.2c-28.95-4.86-58.59-8.73-89.28-10.94.05-.25.1-.5.14-.76,30.72,2.18,60.4,6.04,89.37,10.9C527.8,725.67,527.72,725.94,527.64,726.2Z" opacity="0.1"/>
                  </g>
                  <path id="Trazado_626286" data-name="Trazado 626286" d="M520.28,751.22c-28.4-4.91-57.22-9.21-86.81-12.22q2.235-9.975,4.17-19.94c30.5,2.33,60,6.27,88.85,11.14Q523.385,740.715,520.28,751.22Z" fill="#ffc800"/>
                  <g id="Grupo_903096" data-name="Grupo 903096">
                    <g id="Grupo_903094" data-name="Grupo 903094">
                      <path id="Trazado_626287" data-name="Trazado 626287" d="M439.44,811.47q17.34,3.33,34.76,6.63,8.7-27.93,16.71-55.85-17.61-2.895-35.44-5.44Q448.21,784.14,439.44,811.47Z" opacity="0.1"/>
                    </g>
                    <g id="Grupo_903095" data-name="Grupo 903095">
                      <path id="Trazado_626288" data-name="Trazado 626288" d="M462.75,871.94q9.975,1.95,20.09,3.72,7.155-23.415,14.23-46.82-9.705-1.74-19.36-3.55Q470.42,848.615,462.75,871.94Z" fill="#ffc800"/>
                    </g>
                    <path id="Trazado_626289" data-name="Trazado 626289" d="M492.34,757.2q-17.67-2.865-35.58-5.33l.96-3.72q17.985,2.4,35.7,5.25C493.06,754.67,492.7,755.94,492.34,757.2Z" opacity="0.3"/>
                    <path id="Trazado_626290" data-name="Trazado 626290" d="M451.16,751.15q-9.915-1.3-19.93-2.46c.29-1.21.57-2.41.85-3.62q10.065,1.095,20.02,2.38C451.79,748.69,451.48,749.92,451.16,751.15Z" opacity="0.3"/>
                    <path id="Trazado_626291" data-name="Trazado 626291" d="M430.89,820.04q-9.57-1.92-19.1-3.86c.41-1.21.81-2.41,1.21-3.62q9.555,1.89,19.11,3.78C431.71,817.58,431.3,818.81,430.89,820.04Z" opacity="0.3"/>
                    <path id="Trazado_626292" data-name="Trazado 626292" d="M449.42,757.85q-9.855-1.365-19.79-2.59c.15-.59.29-1.19.44-1.78q9.96,1.2,19.83,2.56C449.74,756.64,449.58,757.25,449.42,757.85Z" opacity="0.1"/>
                    <path id="Trazado_626293" data-name="Trazado 626293" d="M447.87,763.69q-9.795-1.425-19.67-2.71c.15-.59.3-1.19.45-1.78q9.9,1.26,19.71,2.68C448.19,762.48,448.03,763.09,447.87,763.69Z" opacity="0.1"/>
                    <path id="Trazado_626294" data-name="Trazado 626294" d="M446.27,769.54q-9.75-1.47-19.57-2.83c.16-.59.31-1.19.47-1.78q9.84,1.335,19.6,2.79C446.61,768.33,446.44,768.93,446.27,769.54Z" opacity="0.1"/>
                    <path id="Trazado_626295" data-name="Trazado 626295" d="M444.64,775.38q-9.705-1.53-19.48-2.95c.16-.59.32-1.19.48-1.78q9.78,1.395,19.5,2.91C444.98,774.17,444.81,774.77,444.64,775.38Z" opacity="0.1"/>
                    <path id="Trazado_626296" data-name="Trazado 626296" d="M442.97,781.22q-9.675-1.575-19.39-3.07c.17-.59.33-1.19.5-1.78q9.735,1.47,19.42,3.03C443.31,780.01,443.14,780.62,442.97,781.22Z" opacity="0.1"/>
                    <path id="Trazado_626297" data-name="Trazado 626297" d="M441.26,787.06q-9.645-1.635-19.32-3.19c.17-.59.34-1.19.51-1.78q9.69,1.53,19.34,3.15C441.61,785.85,441.43,786.46,441.26,787.06Z" opacity="0.1"/>
                    <path id="Trazado_626298" data-name="Trazado 626298" d="M439.51,792.91q-9.615-1.68-19.26-3.31c.18-.59.35-1.19.53-1.78q9.66,1.605,19.28,3.27C439.87,791.7,439.69,792.3,439.51,792.91Z" opacity="0.1"/>
                    <path id="Trazado_626299" data-name="Trazado 626299" d="M437.72,798.75q-9.6-1.74-19.21-3.42c.18-.59.36-1.19.54-1.78q9.615,1.665,19.22,3.39C438.09,797.54,437.91,798.14,437.72,798.75Z" opacity="0.1"/>
                    <path id="Trazado_626300" data-name="Trazado 626300" d="M435.9,804.59q-9.585-1.785-19.16-3.54c.19-.59.37-1.19.56-1.78q9.585,1.725,19.18,3.51C436.28,803.38,436.09,803.99,435.9,804.59Z" opacity="0.1"/>
                    <path id="Trazado_626301" data-name="Trazado 626301" d="M434.03,810.43q-9.57-1.845-19.13-3.66c.19-.59.38-1.18.57-1.78q9.57,1.8,19.14,3.62C434.42,809.22,434.23,809.83,434.03,810.43Z" opacity="0.1"/>
                    <path id="Trazado_626302" data-name="Trazado 626302" d="M515.2,768.35q-9.66-1.7-19.35-3.33c.18-.62.36-1.24.54-1.87q9.705,1.62,19.37,3.32C515.57,767.1,515.38,767.72,515.2,768.35Z" opacity="0.1"/>
                    <path id="Trazado_626303" data-name="Trazado 626303" d="M513.4,774.38q-9.63-1.7-19.31-3.35c.18-.62.36-1.24.54-1.87q9.675,1.635,19.32,3.34C513.77,773.13,513.59,773.76,513.4,774.38Z" opacity="0.1"/>
                    <path id="Trazado_626304" data-name="Trazado 626304" d="M511.61,780.41q-9.63-1.7-19.27-3.37c.18-.62.37-1.24.55-1.87q9.66,1.665,19.28,3.36C511.98,779.16,511.79,779.79,511.61,780.41Z" opacity="0.1"/>
                    <path id="Trazado_626305" data-name="Trazado 626305" d="M509.8,786.44q-9.615-1.71-19.25-3.39c.18-.62.37-1.24.55-1.87q9.63,1.68,19.25,3.39C510.18,785.2,509.99,785.82,509.8,786.44Z" opacity="0.1"/>
                    <path id="Trazado_626306" data-name="Trazado 626306" d="M508,792.48q-9.615-1.71-19.23-3.41c.19-.62.37-1.24.56-1.87q9.615,1.7,19.23,3.41C508.37,791.23,508.19,791.85,508,792.48Z" opacity="0.1"/>
                    <path id="Trazado_626307" data-name="Trazado 626307" d="M506.19,798.51q-9.615-1.71-19.23-3.44c.19-.62.37-1.24.56-1.87q9.615,1.71,19.23,3.43C506.57,797.26,506.38,797.88,506.19,798.51Z" opacity="0.1"/>
                    <path id="Trazado_626308" data-name="Trazado 626308" d="M504.39,804.54q-9.63-1.725-19.23-3.46c.19-.62.38-1.24.57-1.87q9.615,1.725,19.23,3.45C504.76,803.29,504.57,803.92,504.39,804.54Z" opacity="0.1"/>
                    <path id="Trazado_626309" data-name="Trazado 626309" d="M502.57,810.57q-9.645-1.725-19.25-3.48c.19-.62.38-1.24.57-1.87q9.615,1.755,19.24,3.47C502.95,809.32,502.76,809.95,502.57,810.57Z" opacity="0.1"/>
                    <path id="Trazado_626310" data-name="Trazado 626310" d="M500.76,816.6q-9.66-1.725-19.28-3.5c.19-.62.38-1.24.57-1.87q9.615,1.77,19.27,3.5C501.14,815.36,500.95,815.98,500.76,816.6Z" opacity="0.1"/>
                    <path id="Trazado_626311" data-name="Trazado 626311" d="M498.94,822.64q-9.675-1.725-19.31-3.52c.19-.62.39-1.24.58-1.87q9.63,1.785,19.3,3.52C499.32,821.39,499.13,822.01,498.94,822.64Z" opacity="0.1"/>
                    <path id="Trazado_626312" data-name="Trazado 626312" d="M428.63,826.74q-9.57-1.98-19.1-3.99c.21-.59.41-1.19.62-1.78q9.54,1.98,19.1,3.96C429.05,825.53,428.84,826.13,428.63,826.74Z" opacity="0.1"/>
                    <path id="Trazado_626313" data-name="Trazado 626313" d="M426.63,832.58q-9.57-2.04-19.11-4.11c.21-.59.42-1.18.63-1.78q9.525,2.055,19.1,4.08C427.05,831.37,426.84,831.98,426.63,832.58Z" opacity="0.1"/>
                    <path id="Trazado_626314" data-name="Trazado 626314" d="M424.58,838.42q-9.585-2.085-19.13-4.23c.22-.59.43-1.19.65-1.78q9.54,2.115,19.12,4.19C425.01,837.21,424.8,837.82,424.58,838.42Z" opacity="0.1"/>
                    <path id="Trazado_626315" data-name="Trazado 626315" d="M422.5,844.27q-9.615-2.145-19.16-4.35c.22-.59.44-1.19.66-1.78q9.54,2.19,19.15,4.31C422.93,843.06,422.72,843.66,422.5,844.27Z" opacity="0.1"/>
                    <path id="Trazado_626316" data-name="Trazado 626316" d="M420.38,850.11q-9.63-2.19-19.2-4.47c.23-.59.45-1.19.68-1.78q9.555,2.25,19.18,4.43C420.82,848.9,420.6,849.5,420.38,850.11Z" opacity="0.1"/>
                    <path id="Trazado_626317" data-name="Trazado 626317" d="M418.22,855.95q-9.66-2.25-19.25-4.59c.23-.59.46-1.19.69-1.78q9.57,2.31,19.23,4.55C418.67,854.74,418.44,855.35,418.22,855.95Z" opacity="0.1"/>
                    <path id="Trazado_626318" data-name="Trazado 626318" d="M416.02,861.8q-9.705-2.3-19.31-4.71c.24-.59.47-1.19.71-1.78q9.6,2.385,19.29,4.67C416.48,860.59,416.25,861.19,416.02,861.8Z" opacity="0.1"/>
                    <path id="Trazado_626319" data-name="Trazado 626319" d="M471.1,827.96c-11.65-2.22-23.25-4.52-34.81-6.83.41-1.24.82-2.48,1.22-3.72q17.34,3.42,34.78,6.75C471.9,825.43,471.5,826.7,471.1,827.96Z" opacity="0.3"/>
                    <path id="Trazado_626320" data-name="Trazado 626320" d="M468.91,834.84c-11.69-2.25-23.31-4.6-34.87-6.98.21-.61.41-1.22.61-1.82q17.355,3.555,34.85,6.94C469.31,833.6,469.11,834.22,468.91,834.84Z" opacity="0.1"/>
                    <path id="Trazado_626321" data-name="Trazado 626321" d="M466.99,840.84q-17.6-3.42-34.95-7.11c.21-.61.42-1.22.63-1.82q17.37,3.645,34.93,7.07C467.39,839.59,467.19,840.22,466.99,840.84Z" opacity="0.1"/>
                    <path id="Trazado_626322" data-name="Trazado 626322" d="M465.05,846.83Q447.4,843.365,430,839.59c.21-.61.42-1.22.64-1.82q17.4,3.72,35.02,7.2C465.45,845.59,465.25,846.21,465.05,846.83Z" opacity="0.1"/>
                    <path id="Trazado_626323" data-name="Trazado 626323" d="M463.09,852.83q-17.73-3.5-35.16-7.36c.22-.61.43-1.22.65-1.82q17.43,3.81,35.13,7.32C463.5,851.59,463.3,852.21,463.09,852.83Z" opacity="0.1"/>
                    <path id="Trazado_626324" data-name="Trazado 626324" d="M461.12,858.83q-17.8-3.54-35.3-7.49c.22-.61.44-1.22.66-1.82q17.475,3.9,35.25,7.45C461.53,857.59,461.33,858.21,461.12,858.83Z" opacity="0.1"/>
                    <path id="Trazado_626325" data-name="Trazado 626325" d="M459.13,864.83q-17.91-3.585-35.45-7.62c.22-.61.45-1.22.67-1.82q17.535,3.99,35.4,7.58C459.55,863.59,459.34,864.21,459.13,864.83Z" opacity="0.1"/>
                    <path id="Trazado_626326" data-name="Trazado 626326" d="M457.13,870.83q-18.015-3.615-35.62-7.75c.23-.61.45-1.22.68-1.82q17.61,4.08,35.57,7.71C457.54,869.59,457.34,870.21,457.13,870.83Z" opacity="0.1"/>
                    <path id="Trazado_626327" data-name="Trazado 626327" d="M517.25,761.43q-9.675-1.7-19.42-3.3c.36-1.27.73-2.54,1.09-3.8q9.765,1.59,19.46,3.29C518.01,758.89,517.63,760.16,517.25,761.43Z" opacity="0.3"/>
                  </g>
                </g>
              </g>
              <g id="Grupo_903103" data-name="Grupo 903103">
                <path id="Trazado_626328" data-name="Trazado 626328" d="M572.52,863.46c-28.98,8.26-58.14,15.66-87.33,21.24q25.935-86.52,51.74-173.03a644.158,644.158,0,0,1,85.98-11.45A936.73,936.73,0,0,0,572.52,863.46Z" fill="#ffc800"/>
                <path id="Trazado_626329" data-name="Trazado 626329" d="M572.52,863.46c-28.98,8.26-58.14,15.66-87.33,21.24q25.935-86.52,51.74-173.03a644.158,644.158,0,0,1,85.98-11.45A936.73,936.73,0,0,0,572.52,863.46Z" fill="#fff" opacity="0.5"/>
                <g id="Grupo_903102" data-name="Grupo 903102">
                  <g id="Grupo_903099" data-name="Grupo 903099">
                    <path id="Trazado_626330" data-name="Trazado 626330" d="M530.71,745.48c25.16-4.99,50.34-9.27,75.42-12.13-.46,1.26-.92,2.53-1.37,3.79-25.03,2.99-50.15,7.34-75.25,12.34C529.91,748.14,530.31,746.81,530.71,745.48Z" opacity="0.1"/>
                    <path id="Trazado_626331" data-name="Trazado 626331" d="M529.19,750.53c25.09-5,50.2-9.36,75.21-12.39-.09.25-.18.5-.27.76-25.01,3.05-50.11,7.43-75.19,12.43C529.02,751.06,529.1,750.79,529.19,750.53Z" opacity="0.1"/>
                    <path id="Trazado_626332" data-name="Trazado 626332" d="M531.4,743.19c25.2-4.99,50.4-9.23,75.53-12.01-.09.25-.18.5-.28.76-25.11,2.81-50.31,7.07-75.49,12.06Z" opacity="0.1"/>
                  </g>
                  <path id="Trazado_626333" data-name="Trazado 626333" d="M538.93,718.18a685.442,685.442,0,0,1,77.02-10.74q-3.93,9.975-7.63,19.94c-25.19,2.66-50.47,6.83-75.74,11.81Q535.76,728.69,538.93,718.18Z" fill="#ffc800"/>
                  <g id="Grupo_903101" data-name="Grupo 903101">
                    <g id="Grupo_903100" data-name="Grupo 903100">
                      <path id="Trazado_626334" data-name="Trazado 626334" d="M507.57,822.75q8.58-1.755,17.16-3.57,8.145-27.99,16.71-55.97-8.55,1.65-17.1,3.38Q515.925,794.655,507.57,822.75Z" opacity="0.1"/>
                    </g>
                    <path id="Trazado_626335" data-name="Trazado 626335" d="M578.83,751.81q-15.48,2.49-30.99,5.42c.39-1.27.79-2.53,1.18-3.8q15.525-2.88,31.04-5.34Q579.43,749.965,578.83,751.81Z" opacity="0.3"/>
                    <path id="Trazado_626336" data-name="Trazado 626336" d="M542.99,758.18q-8.565,1.635-17.12,3.36c.38-1.27.76-2.54,1.15-3.82q8.58-1.725,17.15-3.35C543.77,755.65,543.38,756.91,542.99,758.18Z" opacity="0.3"/>
                    <path id="Trazado_626337" data-name="Trazado 626337" d="M521.87,829.07q-8.625,1.845-17.25,3.6c.38-1.27.76-2.54,1.13-3.82q8.61-1.755,17.21-3.59C522.6,826.53,522.24,827.8,521.87,829.07Z" opacity="0.3"/>
                    <path id="Trazado_626338" data-name="Trazado 626338" d="M576.62,758.58q-15.45,2.595-30.92,5.57l.57-1.86q15.48-2.94,30.94-5.53C577.01,757.36,576.82,757.97,576.62,758.58Z" opacity="0.1"/>
                    <path id="Trazado_626339" data-name="Trazado 626339" d="M574.73,764.45q-15.42,2.685-30.87,5.7l.57-1.86q15.45-2.985,30.89-5.66C575.12,763.23,574.93,763.84,574.73,764.45Z" opacity="0.1"/>
                    <path id="Trazado_626340" data-name="Trazado 626340" d="M572.87,770.32q-15.405,2.76-30.84,5.82l.57-1.86c10.29-2.01,20.58-3.96,30.85-5.78C573.26,769.11,573.06,769.72,572.87,770.32Z" opacity="0.1"/>
                    <path id="Trazado_626341" data-name="Trazado 626341" d="M571.04,776.2q-15.405,2.85-30.83,5.95c.19-.62.37-1.24.56-1.86q15.42-3.06,30.83-5.91C571.42,774.98,571.23,775.59,571.04,776.2Z" opacity="0.1"/>
                    <path id="Trazado_626342" data-name="Trazado 626342" d="M569.23,782.07q-15.39,2.94-30.82,6.08c.19-.62.37-1.24.56-1.86q15.42-3.105,30.82-6.04C569.61,780.85,569.42,781.46,569.23,782.07Z" opacity="0.1"/>
                    <path id="Trazado_626343" data-name="Trazado 626343" d="M598.47,755.15q-8.5,1.23-17.04,2.63c.2-.6.4-1.21.59-1.82q8.535-1.38,17.05-2.6C598.87,753.96,598.67,754.56,598.47,755.15Z" opacity="0.1"/>
                    <path id="Trazado_626344" data-name="Trazado 626344" d="M596.55,760.87q-8.5,1.3-17.01,2.75c.19-.61.39-1.21.59-1.82q8.52-1.425,17.02-2.72C596.94,759.69,596.74,760.28,596.55,760.87Z" opacity="0.1"/>
                    <path id="Trazado_626345" data-name="Trazado 626345" d="M594.66,766.6c-5.66.91-11.32,1.88-16.99,2.87.19-.61.38-1.21.58-1.82q8.5-1.485,17-2.84C595.05,765.41,594.86,766.01,594.66,766.6Z" opacity="0.1"/>
                    <path id="Trazado_626346" data-name="Trazado 626346" d="M592.82,772.32q-8.49,1.44-16.98,2.99c.19-.6.38-1.21.57-1.82q8.5-1.53,16.98-2.96C593.2,771.14,593.01,771.73,592.82,772.32Z" opacity="0.1"/>
                    <path id="Trazado_626347" data-name="Trazado 626347" d="M519.89,835.96q-8.655,1.86-17.32,3.63c.19-.62.37-1.25.56-1.87q8.655-1.755,17.3-3.62C520.25,834.71,520.07,835.34,519.89,835.96Z" opacity="0.1"/>
                    <path id="Trazado_626348" data-name="Trazado 626348" d="M518.18,841.97q-8.7,1.875-17.39,3.65c.19-.62.37-1.25.56-1.87q8.685-1.755,17.37-3.64C518.53,840.72,518.35,841.35,518.18,841.97Z" opacity="0.1"/>
                    <path id="Trazado_626349" data-name="Trazado 626349" d="M516.47,847.98q-8.73,1.905-17.48,3.67c.18-.62.37-1.25.55-1.87q8.73-1.77,17.45-3.66C516.82,846.74,516.65,847.36,516.47,847.98Z" opacity="0.1"/>
                    <path id="Trazado_626350" data-name="Trazado 626350" d="M514.77,853.99q-8.775,1.92-17.57,3.69c.18-.62.37-1.25.55-1.87q8.775-1.77,17.54-3.68C515.12,852.75,514.95,853.37,514.77,853.99Z" opacity="0.1"/>
                    <path id="Trazado_626351" data-name="Trazado 626351" d="M513.09,860.01q-8.835,1.935-17.66,3.71c.18-.62.37-1.25.55-1.87q8.82-1.77,17.63-3.7C513.44,858.76,513.26,859.38,513.09,860.01Z" opacity="0.1"/>
                    <path id="Trazado_626352" data-name="Trazado 626352" d="M511.41,866.02q-8.88,1.95-17.77,3.73c.18-.62.37-1.25.55-1.87q8.865-1.77,17.73-3.72C511.76,864.77,511.58,865.39,511.41,866.02Z" opacity="0.1"/>
                    <path id="Trazado_626353" data-name="Trazado 626353" d="M509.74,872.03q-8.94,1.965-17.88,3.75c.18-.62.37-1.25.55-1.87q8.925-1.77,17.85-3.74C510.09,870.78,509.92,871.41,509.74,872.03Z" opacity="0.1"/>
                    <path id="Trazado_626354" data-name="Trazado 626354" d="M566.33,791.73q-15.405,3.09-30.85,6.29c.37-1.27.75-2.53,1.13-3.8q15.435-3.15,30.84-6.21C567.06,789.25,566.69,790.49,566.33,791.73Z" opacity="0.3"/>
                    <path id="Trazado_626355" data-name="Trazado 626355" d="M564.34,798.46c-10.29,2.12-20.59,4.29-30.9,6.44.18-.62.37-1.24.55-1.86q15.45-3.21,30.89-6.4C564.7,797.24,564.52,797.85,564.34,798.46Z" opacity="0.1"/>
                    <path id="Trazado_626356" data-name="Trazado 626356" d="M562.64,804.33c-10.31,2.18-20.63,4.39-30.95,6.56l.54-1.86q15.48-3.255,30.94-6.52C562.99,803.12,562.81,803.73,562.64,804.33Z" opacity="0.1"/>
                    <path id="Trazado_626357" data-name="Trazado 626357" d="M560.96,810.21q-15.5,3.36-31.02,6.69l.54-1.86c10.34-2.19,20.68-4.43,31-6.65C561.31,808.99,561.14,809.6,560.96,810.21Z" opacity="0.1"/>
                    <path id="Trazado_626358" data-name="Trazado 626358" d="M559.32,816.08q-15.54,3.45-31.11,6.82l.54-1.86q15.555-3.33,31.08-6.78C559.66,814.86,559.49,815.47,559.32,816.08Z" opacity="0.1"/>
                    <path id="Trazado_626359" data-name="Trazado 626359" d="M557.7,821.95q-15.585,3.54-31.21,6.95c.18-.62.36-1.24.53-1.86q15.6-3.375,31.18-6.91C558.03,820.74,557.86,821.34,557.7,821.95Z" opacity="0.1"/>
                    <path id="Trazado_626360" data-name="Trazado 626360" d="M556.1,827.83q-15.645,3.63-31.32,7.07c.18-.62.35-1.24.53-1.86q15.66-3.405,31.29-7.03C556.43,826.61,556.27,827.22,556.1,827.83Z" opacity="0.1"/>
                    <path id="Trazado_626361" data-name="Trazado 626361" d="M554.54,833.7q-15.7,3.72-31.45,7.2c.17-.62.35-1.24.53-1.86q15.72-3.45,31.41-7.16C554.86,832.48,554.7,833.09,554.54,833.7Z" opacity="0.1"/>
                    <path id="Trazado_626362" data-name="Trazado 626362" d="M600.72,748.59q-8.535,1.155-17.08,2.49c.41-1.23.82-2.47,1.24-3.7q8.565-1.29,17.11-2.42C601.56,746.17,601.14,747.38,600.72,748.59Z" opacity="0.3"/>
                    <path id="Trazado_626363" data-name="Trazado 626363" d="M578.22,822.64q-8.61,2.025-17.25,4.05c.16-.6.32-1.21.49-1.81q8.625-2,17.23-4.01C578.53,821.46,578.38,822.05,578.22,822.64Z" opacity="0.1"/>
                    <path id="Trazado_626364" data-name="Trazado 626364" d="M576.75,828.37q-8.655,2.1-17.32,4.17c.16-.61.32-1.21.48-1.82q8.655-2.055,17.29-4.13C577.05,827.18,576.9,827.78,576.75,828.37Z" opacity="0.1"/>
                    <path id="Trazado_626365" data-name="Trazado 626365" d="M575.31,834.09q-8.685,2.16-17.4,4.29c.16-.6.31-1.21.47-1.82q8.7-2.1,17.37-4.25C575.6,832.91,575.45,833.5,575.31,834.09Z" opacity="0.1"/>
                    <path id="Trazado_626366" data-name="Trazado 626366" d="M573.91,839.82q-8.73,2.235-17.48,4.41c.15-.61.31-1.21.46-1.82q8.73-2.16,17.45-4.37C574.19,838.63,574.05,839.22,573.91,839.82Z" opacity="0.1"/>
                    <path id="Trazado_626367" data-name="Trazado 626367" d="M572.55,845.54q-8.775,2.3-17.58,4.53c.15-.61.3-1.21.45-1.82q8.79-2.2,17.55-4.49C572.82,844.36,572.68,844.95,572.55,845.54Z" opacity="0.1"/>
                    <path id="Trazado_626368" data-name="Trazado 626368" d="M571.22,851.27q-8.835,2.37-17.68,4.65c.15-.61.29-1.21.44-1.82q8.835-2.265,17.65-4.61C571.49,850.08,571.36,850.67,571.22,851.27Z" opacity="0.1"/>
                    <path id="Trazado_626369" data-name="Trazado 626369" d="M569.93,856.99q-8.88,2.43-17.79,4.77c.14-.6.29-1.21.43-1.82q8.895-2.31,17.76-4.73C570.2,855.81,570.07,856.4,569.93,856.99Z" opacity="0.1"/>
                    <path id="Trazado_626370" data-name="Trazado 626370" d="M579.96,816.08q-8.58,1.95-17.18,3.91c.34-1.23.67-2.47,1.02-3.7q8.58-1.92,17.14-3.83C580.61,813.67,580.28,814.88,579.96,816.08Z" opacity="0.3"/>
                    <path id="Trazado_626371" data-name="Trazado 626371" d="M547.11,863.06q-16.14,4.155-32.33,7.84,3.51-12.93,7.13-25.87,15.8-3.5,31.55-7.29Q550.175,850.415,547.11,863.06Z" opacity="0.1"/>
                    <path id="Trazado_626372" data-name="Trazado 626372" d="M582.87,805.47q-8.535,1.83-17.08,3.69,4.2-14.91,8.8-29.81,8.49-1.59,16.98-3.08Q586.98,790.865,582.87,805.47Z" fill="#ffc800"/>
                  </g>
                </g>
              </g>
            </g>
            <g id="Grupo_903109" data-name="Grupo 903109">
              <path id="Trazado_626373" data-name="Trazado 626373" d="M305.38,872.46c13.38,2.09,30.28-8.01,74.21-38.85,6.08-4.27-12.49-55.27-19.22-51.05-8.47,5.32-40.2,27.8-42.31,29.73C300.25,828.64,296.31,871.04,305.38,872.46Z" fill="#ff9581"/>
              <g id="Grupo_903106" data-name="Grupo 903106">
                <path id="Trazado_626374" data-name="Trazado 626374" d="M344.61,797.6s12.67-17.09,22.1-24.01c12.63-9.27,27.35-12.06,33.59-12.86,13.03-1.67,45.67,3.3,45.88,12.95.19,8.74-32.93,1.98-32.93,1.98s34.9,1.32,33.2,11.89-39.7.53-39.7.53,35.83,2.16,32.35,12.78c-2.63,8.02-37.56.87-37.56.87s30.78,2.07,28.43,10.44c-2.6,9.24-35.25,4.67-35.25,4.67-9.55,20.26-22.82,25.77-32.43,28.77C359.98,846.31,344.61,797.6,344.61,797.6Z" fill="#ff9581"/>
                <g id="Grupo_903105" data-name="Grupo 903105">
                  <path id="Trazado_626375" data-name="Trazado 626375" d="M401.22,774.42c4.1.01,8.26-.01,12.35.36s8.17.89,12.21,1.64c9.9,1.84,15.82,4.54,15.43,4.42-9.07-3.01-23.69-4.57-27.78-4.94s-8.15-.95-12.23-1.32C401.1,774.56,401.13,774.42,401.22,774.42Z" fill="#1a2e35"/>
                  <path id="Trazado_626376" data-name="Trazado 626376" d="M399.61,789.16c5.24.24,10.45.28,15.69.75,5.21.47,10.11,1.36,15.27,2.18.4.06.23.26-.17.21-5.19-.62-10.04-.78-15.23-1.34s-10.38-1.31-15.57-1.67A.065.065,0,0,1,399.61,789.16Z" fill="#1a2e35"/>
                  <path id="Trazado_626377" data-name="Trazado 626377" d="M395.95,801.57c7.73-.14,15.45,1.13,22.98,2.57.38.07.14.29-.25.24-7.62-1-13.59-1.83-22.73-2.54A.136.136,0,0,1,395.95,801.57Z" fill="#1a2e35"/>
                </g>
              </g>
              <g id="Grupo_903108" data-name="Grupo 903108">
                <path id="Trazado_626378" data-name="Trazado 626378" d="M344.74,790.71l15.92,62.55s-46.32,26.13-56.32,18.8-2.7-43.14,9.01-56.63C318.24,809.82,344.74,790.71,344.74,790.71Z" fill="#ffc800"/>
                <path id="Trazado_626379" data-name="Trazado 626379" d="M345.27,792.8l-.63-2.06.17.06c-4.39,3.45-8.8,6.88-13.15,10.37-4.37,3.46-8.71,6.96-12.86,10.65a62.135,62.135,0,0,0-5.93,5.76,47.138,47.138,0,0,0-4.74,6.73,52.841,52.841,0,0,0-5.82,15.52,43.881,43.881,0,0,1,4.78-16.09,39.134,39.134,0,0,1,4.7-7.07,62.837,62.837,0,0,1,5.98-6.01c4.23-3.7,8.64-7.15,13.11-10.51,4.52-3.29,9.09-6.51,13.8-9.53l.14-.09.03.15Z" fill="#1a2e35"/>
                <path id="Trazado_626380" data-name="Trazado 626380" d="M334.41,805.97c.99,3.07,1.72,6.25,2.53,9.38s1.58,6.27,2.32,9.42c1.47,6.3,2.91,12.6,4.26,18.93.37,1.73.74,3.46,1.08,5.2.36,1.86.5,3.77.87,5.62a.113.113,0,0,1-.22.05c-.39-1.54-1-3.03-1.42-4.56-.44-1.59-.84-3.19-1.23-4.79-.77-3.14-1.52-6.29-2.26-9.43-1.48-6.29-2.93-12.6-4.2-18.94-.72-3.58-1.55-7.17-2.05-10.79A.166.166,0,0,1,334.41,805.97Z" fill="#1a2e35"/>
                <g id="Grupo_903107" data-name="Grupo 903107">
                  <path id="Trazado_626381" data-name="Trazado 626381" d="M359.25,847.7c.59,1.88,1.12,3.78,1.69,5.67l-.16.09a196.176,196.176,0,0,1-29.04,14.23,105.779,105.779,0,0,1-10.25,3.36q5.04-1.905,9.99-4.01c9.86-4.3,19.53-9.02,29.07-13.98l-.11.26c-.4-1.87-.82-3.74-1.19-5.62Z" fill="#1a2e35"/>
                </g>
              </g>
            </g>
          </g>
          <g id="Grupo_903113" data-name="Grupo 903113">
            <g id="Grupo_903112" data-name="Grupo 903112">
              <path id="Trazado_626382" data-name="Trazado 626382" d="M614.76,781.11a6.74,6.74,0,0,0-.83-7.99s6.5-.46,8.29-5.53c.92-2.61-2.47-6.41-2.47-6.41s5.19-.59,6.5-5.2c1.04-3.67-2.51-6.93-2.51-6.93s4.68-2.88,4.54-6.97c-.29-8.3-30.94-20.85-40.19-11.6-4.31,4.31,3.34,6.97,3.34,6.97s-11.9-1.19-14.59,5,7.45,9.06,7.45,9.06-11.54-1.06-13.67,5.65c-2.22,6.98,8.39,8.12,8.39,8.12s-8.66,1.79-9.11,7.31c-.74,9.12,17.21,4.61,23.31,8.95l-1.67,12.15C591.52,793.68,611.94,786.22,614.76,781.11Z" fill="#ff9581"/>
              <g id="Grupo_903111" data-name="Grupo 903111">
                <path id="Trazado_626383" data-name="Trazado 626383" d="M623.25,748.46c.1.05.19-.08.09-.14-9.1-6.56-21.08-11.02-32.33-11.06-.37,0-.53.59-.12.67C602.5,740.18,612.63,743.09,623.25,748.46Z" fill="#1a2e35"/>
                <path id="Trazado_626384" data-name="Trazado 626384" d="M619.92,761.18c.11.06.21-.13.1-.21-9.41-6.71-23.04-11.36-35.99-9.89-.44.05-.79.54-.27.52C592.45,751.27,610.39,756.3,619.92,761.18Z" fill="#1a2e35"/>
                <path id="Trazado_626385" data-name="Trazado 626385" d="M578.09,765.68c12.47-.93,24.04,2.22,35.47,7.15.15.06.22-.15.11-.24-4.95-3.92-12.55-6.31-18.62-7.67a33.161,33.161,0,0,0-16.99.33C577.84,765.31,577.83,765.7,578.09,765.68Z" fill="#1a2e35"/>
              </g>
            </g>
          </g>
        </g>
        <g id="Grupo_903129" data-name="Grupo 903129">
          <g id="Grupo_903123" data-name="Grupo 903123">
            <path id="Trazado_626386" data-name="Trazado 626386" d="M756.45,890.15c-15.22-13.64-78.56-38.37-81.79-39.92-3.05-1.01-27.7-4.11-27.7-4.11-.71.14-65.45-29.04-65.45-29.04L560.04,892.6,638,915.94s66.22,23.11,85.72,22.98C736.44,938.83,764.94,897.75,756.45,890.15Z" fill="#ff9581"/>
            <path id="Trazado_626387" data-name="Trazado 626387" d="M723.73,938.92c-19.5.13-85.72-22.98-85.72-22.98l-16.92-5.05,15.61-69.14c5.98,2.63,10.01,4.37,10.27,4.37,0,0,24.65,3.11,27.7,4.11,3.22,1.55,66.57,26.28,81.8,39.91C764.94,897.75,736.43,938.82,723.73,938.92Z" fill="#ececec"/>
            <g id="Grupo_903122" data-name="Grupo 903122">
              <path id="Trazado_626388" data-name="Trazado 626388" d="M723.73,938.92c-19.5.13-85.72-22.98-85.72-22.98l-5.77-1.72c1.9-5.34,6.79-19.31,8.9-26.6,2.66-9.15,5.84-41.5,5.84-41.5s24.65,3.11,27.7,4.11c3.22,1.55,66.57,26.28,81.8,39.91C764.94,897.75,736.43,938.82,723.73,938.92Z" fill="#ffc800"/>
              <g id="Grupo_903121" data-name="Grupo 903121">
                <path id="Trazado_626389" data-name="Trazado 626389" d="M717.53,933.7c-2.27-11.6.07-23.69,4.3-30.92,4.06-6.94,10.32-13.35,18.11-14.28.22-.03.32.51.1.59-14.13,5.22-24.09,24.84-22.04,44.53C718.04,934.02,717.61,934.1,717.53,933.7Z" fill="#1a2e35"/>
                <g id="Grupo_903119" data-name="Grupo 903119">
                  <g id="Grupo_903115" data-name="Grupo 903115">
                    <path id="Trazado_626390" data-name="Trazado 626390" d="M663.95,907.85c-.81-9.98,1.93-21.79,9.68-28.55.3-.26.67.17.54.48a138.644,138.644,0,0,0-8.97,28.16A.635.635,0,0,1,663.95,907.85Z" fill="#1a2e35"/>
                  </g>
                  <g id="Grupo_903116" data-name="Grupo 903116">
                    <path id="Trazado_626391" data-name="Trazado 626391" d="M671.05,911.26c-.81-9.98,1.93-21.79,9.68-28.55.3-.26.67.17.53.48a138.644,138.644,0,0,0-8.97,28.16A.628.628,0,0,1,671.05,911.26Z" fill="#1a2e35"/>
                  </g>
                  <g id="Grupo_903117" data-name="Grupo 903117">
                    <path id="Trazado_626392" data-name="Trazado 626392" d="M678.15,914.68c-.81-9.98,1.93-21.79,9.68-28.55.3-.26.67.17.53.48a138.644,138.644,0,0,0-8.97,28.16A.63.63,0,0,1,678.15,914.68Z" fill="#1a2e35"/>
                  </g>
                  <g id="Grupo_903118" data-name="Grupo 903118">
                    <path id="Trazado_626393" data-name="Trazado 626393" d="M685.24,918.09c-.81-9.98,1.93-21.79,9.68-28.55.3-.26.67.17.53.48a138.644,138.644,0,0,0-8.97,28.16A.63.63,0,0,1,685.24,918.09Z" fill="#1a2e35"/>
                  </g>
                </g>
                <g id="Grupo_903120" data-name="Grupo 903120">
                  <path id="Trazado_626394" data-name="Trazado 626394" d="M649.77,912.71c7.26-5,12.11-12.96,17.44-19.8a1.22,1.22,0,0,0-.7-1.84.269.269,0,0,0-.27-.33,52.647,52.647,0,0,0-26.07,7.62c-4.53,2.87-8.99,9.01-5.09,14.31C638.77,917.68,645.53,915.62,649.77,912.71Zm-8.31-.01c-10.81-1.61-1.91-10.94,1.52-12.93a58.71,58.71,0,0,1,6.95-3.27,158.054,158.054,0,0,1,15.13-4.79c-2.82,3.2-5.34,6.61-8.05,9.9C653.79,905.55,647.43,913.59,641.46,912.7Z" fill="#1a2e35"/>
                  <path id="Trazado_626395" data-name="Trazado 626395" d="M662.21,854c-6.57.41-8.4,7.77-7.69,13.09a52.565,52.565,0,0,0,10.91,24.87.257.257,0,0,0,.42-.01,1.216,1.216,0,0,0,1.86-.64c1.81-8.47,4.8-17.31,3.96-26.08C671.19,860.11,668.42,853.62,662.21,854Zm5.63,23.91c-.79,4.19-1.78,8.31-2.42,12.53a154.879,154.879,0,0,1-6.05-14.67,54.775,54.775,0,0,1-1.96-7.42c-.68-3.9.74-16.72,8.93-9.47C670.85,862.88,668.78,872.92,667.84,877.91Z" fill="#1a2e35"/>
                </g>
              </g>
              <path id="Trazado_626396" data-name="Trazado 626396" d="M673.46,851.03c16.38,7.1,34.64,15.32,50.83,22.86,5,2.31,11.93,5.66,16.67,8.26,4.1,2.23,8.23,4.4,12.15,6.95.78.59,1.98,1.17,2.37,2.27,1.18,3.76-.29,7.78-1.46,11.22a65.469,65.469,0,0,1-3.95,8.49c-4.38,8.24-10.16,15.83-17.68,21.46-2.48,1.84-5.03,3.75-8.02,4.65,2.92-1.04,5.36-3.06,7.76-4.97a66.341,66.341,0,0,0,16.89-21.69c2.61-5.61,6.17-11.9,5.28-18.18-.23-1.13-1.1-1.36-2-2.06-13.7-8.4-30.83-16.14-45.41-23.09-8.32-3.95-25.14-12.09-33.43-16.17Z" fill="#1a2e35"/>
            </g>
          </g>
          <g id="Grupo_903128" data-name="Grupo 903128">
            <path id="Trazado_626397" data-name="Trazado 626397" d="M321.65,895.7s-.03,52.14,18.57,68.32c15.6,13.57,53.07,27.27,90.82,10.6,31.63-13.96,71.43-82.53,79.97-89.63,2.65-2.2,60.51,23.46,112.69,38.8l18.33-93.52c-8.22-1.53-135.28-46.7-159.37-43.42-37.84,5.14-92.92,93.96-92.92,93.96Z" fill="#ffc800"/>
            <path id="Trazado_626398" data-name="Trazado 626398" d="M321.65,895.7s-.03,52.14,18.57,68.32c15.6,13.57,53.07,27.27,90.82,10.6,31.63-13.96,71.43-82.53,79.97-89.63,2.65-2.2,60.51,23.46,112.69,38.8l18.33-93.52c-8.22-1.53-135.28-46.7-159.37-43.42-37.84,5.14-92.92,93.96-92.92,93.96Z" opacity="0.4"/>
            <path id="Trazado_626399" data-name="Trazado 626399" d="M321.65,895.7s-.03,52.14,18.57,68.32c15.6,13.57,53.07,27.27,90.82,10.6,31.63-13.96,71.43-82.53,79.97-89.63,2.65-2.2,60.51,23.46,112.69,38.8l18.33-93.52c-8.22-1.53-135.28-46.7-159.37-43.42-37.84,5.14-92.92,93.96-92.92,93.96Z" fill="#fff" opacity="0.5"/>
            <g id="Grupo_903124" data-name="Grupo 903124">
              <path id="Trazado_626400" data-name="Trazado 626400" d="M369.62,887.81c-.04-.27-.45-.18-.45.07a31.04,31.04,0,0,1-7.02,19.72c-5.17,6.1-12.79,9.52-19.7,13.09-.66.34-.11.84.58.63a58.127,58.127,0,0,0,12.15-4.81,29.744,29.744,0,0,0,9.17-7.8A27.257,27.257,0,0,0,369.62,887.81Z" fill="#1a2e35"/>
            </g>
            <g id="Grupo_903127" data-name="Grupo 903127">
              <g id="Grupo_903126" data-name="Grupo 903126">
                <g id="Grupo_903125" data-name="Grupo 903125">
                  <path id="Trazado_626401" data-name="Trazado 626401" d="M604.75,913.71c3.87-16.58,2.98-11.77,6.68-28.4,1.81-8.13,10.99-49,11.41-56.87a.169.169,0,0,0-.32-.07c-2.82,7.36-11.11,48.42-12.77,56.58-3.39,16.69-2.24,11.93-5.46,28.65A.237.237,0,1,0,604.75,913.71Z" fill="#1a2e35"/>
                </g>
              </g>
            </g>
            <path id="Trazado_626402" data-name="Trazado 626402" d="M390.47,880.52c-4.57,6.34-8.51,13.34-13.17,19.63,2.82-7.38,6.94-14.61,13.17-19.63Z" fill="#1a2e35"/>
            <path id="Trazado_626403" data-name="Trazado 626403" d="M329.23,899.41q1.575,11.265,3.73,22.45c1.5,7.42,3.05,14.89,5.65,21.96a23.2,23.2,0,0,0,6.2,9.18c15.39,14.03,43.42,20.94,63.37,14.5,27.42-10.41,52.74-49.18,69.04-73.13,4.19-6.32,8.25-12.72,12.49-19.04,1.07-1.58,2.14-3.15,3.32-4.68.86-1.12,2.17-2.89,3.89-2.54,4.35.54,8.41,2.21,12.45,3.61,14.24,5.34,28.17,11.34,42.24,17.01,14.07,5.62,36.52,13.92,51.19,17.84-14.73-3.67-37.33-11.66-51.49-17.09-14.13-5.52-28.14-11.39-42.38-16.56-4-1.34-7.96-2.97-12.09-3.48-1.37-.18-1.85,1.05-2.74,2.03-5.56,7.64-10.41,15.8-15.67,23.68-16.44,24.39-41.75,63.02-69.8,73.61-20.39,6.6-48.86-.7-64.44-15.13-5.89-5.22-7.72-13.19-9.41-20.54-2.48-11.1-4.15-22.38-5.55-33.68Z" fill="#1a2e35"/>
            <path id="Trazado_626404" data-name="Trazado 626404" d="M625.98,912.13l-2.14,11.68-.03.16-.16-.04c-17.96-4.97-44.09-13.25-61.5-19.91-13.99-5.17-34.77-14.43-48.94-18.24a5.458,5.458,0,0,0-1.73-.16c.03-.08-.15.12-.15.12-3.44,3.4-6.09,7.63-8.95,11.54-18.68,26.38-37.32,54.45-64.09,73.32,22.51-16.73,38.83-40.06,54.94-62.67,3.93-5.48,10.04-14.81,14.13-20a26.406,26.406,0,0,1,3.01-3.38,1.356,1.356,0,0,1,.56-.36,5.458,5.458,0,0,1,2.58.08,81.508,81.508,0,0,1,10.09,3.18c8.9,3.18,29.94,11.81,39.02,15.34,16.96,6.99,44.23,15.28,60.92,20.95,0,.01,2.44-11.61,2.44-11.61Z" fill="#1a2e35"/>
          </g>
        </g>
      </g>
      <g id="Grupo_903134" data-name="Grupo 903134">
        <g id="Grupo_903132" data-name="Grupo 903132">
          <g id="Grupo_903131" data-name="Grupo 903131">
            <rect id="Rectángulo_329883" data-name="Rectángulo 329883" width="112.82" height="253.39" transform="translate(175.45 898.53)" fill="#2b454e"/>
          </g>
        </g>
        <g id="Grupo_903133" data-name="Grupo 903133">
          <rect id="Rectángulo_329884" data-name="Rectángulo 329884" width="61.99" height="253.39" transform="translate(288.27 898.53)" fill="#375a64"/>
          <path id="Trazado_626405" data-name="Trazado 626405" d="M303.46,898.53l23.4-.42,23.4-.29.7-.01.01.72.26,27.09.1,48.98c.07,18.06.13,36.12.03,54.18-.06,18.06-.08,36.12-.31,54.18q-.225,27.09-.79,54.18-.57-27.09-.78-54.18c-.23-18.06-.25-36.12-.31-54.18-.1-18.06-.05-36.12.03-54.18l.1-48.98.26-27.09.71.71-23.4-.29Z" fill="#1a2e35"/>
        </g>
      </g>
    </g>
  </g>
</svg>
