<svg xmlns="http://www.w3.org/2000/svg" xmlns:xlink="http://www.w3.org/1999/xlink" width="720" height="309" viewBox="0 0 720 309">
  <defs>
    <clipPath id="clip-path">
      <path id="Trazado_626422" data-name="Trazado 626422" d="M1593.7,304H926.3A26.3,26.3,0,0,1,900,277.7V127.3A26.3,26.3,0,0,1,926.3,101h78.96L1019,12l98-17,33.83,106H1593.7a26.3,26.3,0,0,1,26.3,26.3V277.7A26.307,26.307,0,0,1,1593.7,304Z"/>
    </clipPath>
    <clipPath id="clip-path-6">
      <path id="Trazado_626475" data-name="Trazado 626475" d="M1593.7,304H926.3A26.3,26.3,0,0,1,900,277.7V127.3A26.3,26.3,0,0,1,926.3,101h78.96l5.942-36.835,21.691-33.28,44.787-16.817,33.439,2.534L1150.83,101H1593.7a26.3,26.3,0,0,1,26.3,26.3V277.7A26.307,26.307,0,0,1,1593.7,304Z"/>
    </clipPath>
  </defs>
  <g id="Grupo_1004899" data-name="Grupo 1004899" transform="translate(-832.5 -4139.754)">
    <g id="Grupo_903490" data-name="Grupo 903490" transform="translate(-67.5 4144.754)">
      <g id="Grupo_903146" data-name="Grupo 903146" clip-path="url(#clip-path)">
        <path id="Trazado_626421" data-name="Trazado 626421" d="M1594.2,303.5H926.8a26.3,26.3,0,0,1-26.3-26.3V126.8a26.3,26.3,0,0,1,26.3-26.3h667.39a26.3,26.3,0,0,1,26.3,26.3V277.2A26.292,26.292,0,0,1,1594.2,303.5Z" fill="#cee284"/>
      </g>
      <g id="Grupo_903155" data-name="Grupo 903155" clip-path="url(#clip-path)">
        <g id="Grupo_903148" data-name="Grupo 903148">
          <g id="Grupo_903147" data-name="Grupo 903147">
            <path id="Trazado_626423" data-name="Trazado 626423" d="M1387.81,143.99s-.23-.41-.62-1.21c-.41-.81-.99-1.98-1.75-3.49-1.52-3.08-3.74-7.56-6.58-13.28-5.65-11.46-13.73-27.88-23.54-47.77l.38.13c-25.3,12.4-56.47,27.67-90.13,44.16h-.01l.16-.47c11.55,23.64,22.5,46.05,32.2,65.89l-.43-.15c26.66-12.97,49.19-23.93,65.07-31.66,7.95-3.85,14.23-6.89,18.56-8.98,2.15-1.03,3.8-1.83,4.94-2.38.55-.26.97-.46,1.28-.61.31-.12.47-.18.47-.18s-.13.08-.4.22c-.3.15-.7.36-1.23.62-1.12.56-2.75,1.37-4.85,2.42-4.29,2.12-10.53,5.2-18.42,9.1-15.9,7.82-38.44,18.91-65.12,32.03l-.29.14-.14-.29c-9.72-19.84-20.69-42.24-32.26-65.86l-.16-.32.32-.15h.01c33.68-16.45,64.87-31.68,90.18-44.05l.26-.13.13.26c9.73,20.02,17.75,36.54,23.35,48.07,2.77,5.72,4.93,10.21,6.42,13.29.72,1.51,1.28,2.67,1.66,3.47C1387.64,143.59,1387.81,143.99,1387.81,143.99Z" fill="#e1e1e1"/>
          </g>
        </g>
        <g id="Grupo_903150" data-name="Grupo 903150">
          <g id="Grupo_903149" data-name="Grupo 903149">
            <path id="Trazado_626424" data-name="Trazado 626424" d="M1355.58,78.11a1.616,1.616,0,0,1-.09.35c-.08.27-.19.6-.32,1.02-.32.94-.75,2.24-1.3,3.88-1.18,3.42-2.86,8.27-4.92,14.24-4.23,12.05-10.06,28.6-16.48,46.89-.89.44-.26.12-.47.21l-.03-.01-.05-.02-.11-.04-.22-.07-.43-.14-.86-.29-1.71-.57c-1.14-.38-2.27-.75-3.39-1.13-2.24-.75-4.45-1.48-6.62-2.21-4.34-1.45-8.53-2.85-12.52-4.18-7.96-2.67-15.14-5.08-21.18-7.12-5.98-2.04-10.84-3.69-14.26-4.85-1.64-.57-2.93-1.03-3.87-1.35-.41-.15-.74-.27-1-.37a1.473,1.473,0,0,1-.33-.15,2.073,2.073,0,0,1,.36.08l1.02.3c.94.3,2.25.71,3.91,1.23,3.44,1.11,8.32,2.69,14.33,4.64l21.23,6.97c3.99,1.32,8.19,2.7,12.53,4.14q3.255,1.08,6.63,2.2c1.12.37,2.25.75,3.39,1.12l1.71.57.86.29.43.14.22.07.11.04.05.02.03.01c-.19.1.46-.21-.42.22,6.51-18.26,12.39-34.79,16.68-46.82,2.15-5.94,3.9-10.77,5.13-14.16.61-1.63,1.08-2.91,1.43-3.84q.24-.6.39-.99A1.581,1.581,0,0,1,1355.58,78.11Z" fill="#e1e1e1"/>
          </g>
        </g>
        <g id="Grupo_903152" data-name="Grupo 903152">
          <g id="Grupo_903151" data-name="Grupo 903151">
            <path id="Trazado_626425" data-name="Trazado 626425" d="M1309.85,136.98c.19.04-2.39,11.6-5.76,25.81s-6.26,25.69-6.45,25.65,2.39-11.6,5.76-25.81S1309.66,136.93,1309.85,136.98Z" fill="#e1e1e1"/>
          </g>
        </g>
        <g id="Grupo_903154" data-name="Grupo 903154">
          <g id="Grupo_903153" data-name="Grupo 903153">
            <path id="Trazado_626426" data-name="Trazado 626426" d="M1388.76,144.47c-.09.17-10.92-5.13-24.19-11.85s-23.96-12.3-23.87-12.48,10.92,5.13,24.19,11.85S1388.85,144.3,1388.76,144.47Z" fill="#e1e1e1"/>
          </g>
        </g>
      </g>
      <g id="Grupo_903164" data-name="Grupo 903164" clip-path="url(#clip-path)">
        <g id="Grupo_903157" data-name="Grupo 903157">
          <g id="Grupo_903156" data-name="Grupo 903156">
            <path id="Trazado_626428" data-name="Trazado 626428" d="M980.73,231.73s.21-.32.61-.9c.42-.6,1.03-1.45,1.81-2.55,1.6-2.25,3.93-5.51,6.91-9.67,5.98-8.33,14.56-20.27,24.99-34.8l.06.4c-19.28-13.92-43.43-31.36-69.57-50.24h-.01l.49-.08c-12.34,17.04-24.07,33.24-34.57,47.74l-.07-.45c20.43,14.86,37.74,27.45,49.98,36.35,6.1,4.46,10.93,7.99,14.27,10.43,1.64,1.21,2.91,2.14,3.79,2.79.42.31.74.55.98.73a2.974,2.974,0,0,1,.33.25,2.211,2.211,0,0,1-.33-.21c-.24-.17-.56-.39-.97-.68-.88-.63-2.15-1.53-3.79-2.69l-14.31-10.24c-12.32-8.86-29.76-21.41-50.33-36.21l-.26-.19.19-.26c10.49-14.52,22.2-30.72,34.52-47.78l.21-.29.29.21h.01c26.11,18.92,50.23,36.4,69.49,50.35l.23.17-.17.23c-10.58,14.51-19.27,26.44-25.33,34.77-3.01,4.11-5.36,7.32-6.99,9.54-.79,1.07-1.4,1.89-1.83,2.47C980.94,231.47,980.73,231.73,980.73,231.73Z" fill="#e1e1e1"/>
          </g>
        </g>
        <g id="Grupo_903159" data-name="Grupo 903159">
          <g id="Grupo_903158" data-name="Grupo 903158">
            <path id="Trazado_626429" data-name="Trazado 626429" d="M1015.28,183.97a7.575,7.575,0,0,1-1.17.21c-.83.12-1.95.27-3.37.47-3,.38-7.22.93-12.41,1.59-10.54,1.28-25,3.04-40.97,4.98-.78-.56-.22-.17-.39-.3v-.02l-.01-.05-.02-.09-.04-.18-.07-.37-.15-.74-.3-1.47c-.2-.98-.39-1.94-.59-2.91-.39-1.92-.77-3.82-1.14-5.68-.75-3.72-1.47-7.32-2.15-10.74-1.36-6.84-2.58-13-3.61-18.2-.99-5.14-1.8-9.32-2.37-12.28-.26-1.4-.46-2.52-.61-3.35a9.022,9.022,0,0,1-.17-1.18,7.242,7.242,0,0,1,.3,1.15c.18.82.43,1.93.74,3.32.63,2.95,1.51,7.12,2.59,12.24,1.07,5.19,2.34,11.34,3.76,18.17.7,3.42,1.43,7.01,2.19,10.73.38,1.86.76,3.76,1.16,5.68.2.96.39,1.93.59,2.91l.3,1.47.15.74.07.37.04.18.02.09.01.05v.02c-.17-.12.39.3-.38-.26,15.98-1.86,30.44-3.55,40.99-4.78,5.2-.57,9.43-1.04,12.43-1.37,1.42-.14,2.55-.25,3.39-.34A8.792,8.792,0,0,1,1015.28,183.97Z" fill="#e1e1e1"/>
          </g>
        </g>
        <g id="Grupo_903161" data-name="Grupo 903161">
          <g id="Grupo_903160" data-name="Grupo 903160">
            <path id="Trazado_626430" data-name="Trazado 626430" d="M953.45,171.77c.04.19-9.44,2.53-21.17,5.24s-21.29,4.74-21.33,4.55,9.44-2.53,21.18-5.24S953.41,171.58,953.45,171.77Z" fill="#e1e1e1"/>
          </g>
        </g>
        <g id="Grupo_903163" data-name="Grupo 903163">
          <g id="Grupo_903162" data-name="Grupo 903162">
            <path id="Trazado_626431" data-name="Trazado 626431" d="M980.77,232.61c-.19.01-.86-9.89-1.48-22.11s-.97-22.14-.78-22.15.86,9.89,1.48,22.11S980.97,232.6,980.77,232.61Z" fill="#e1e1e1"/>
          </g>
        </g>
      </g>
      <g id="Grupo_903173" data-name="Grupo 903173" clip-path="url(#clip-path)">
        <g id="Grupo_903166" data-name="Grupo 903166">
          <g id="Grupo_903165" data-name="Grupo 903165">
            <path id="Trazado_626433" data-name="Trazado 626433" d="M1609.88,229.53s.07-.39.24-1.11c.17-.74.42-1.8.73-3.17.66-2.79,1.61-6.84,2.82-12.02,2.46-10.37,5.99-25.23,10.29-43.32l.21.34c-24.03-5.77-54.12-13-86.71-20.83h-.01l.43-.26c-5.14,21.26-10.02,41.45-14.39,59.55l-.24-.39c25.51,6.22,47.12,11.49,62.4,15.21,7.63,1.88,13.67,3.36,17.83,4.39,2.05.51,3.64.91,4.75,1.18.52.13.93.24,1.23.32a2.44,2.44,0,0,1,.42.11,2.615,2.615,0,0,1-.4-.08q-.435-.105-1.2-.27c-1.09-.25-2.67-.62-4.7-1.09-4.15-.98-10.18-2.4-17.8-4.2-15.34-3.66-37.06-8.84-62.68-14.95l-.31-.07.08-.31c4.35-18.1,9.21-38.3,14.33-59.56l.08-.34.34.08h.01c32.58,7.88,62.66,15.16,86.68,20.97l.28.07-.07.28c-4.43,18.13-8.08,33.03-10.62,43.42-1.27,5.14-2.27,9.16-2.95,11.93-.34,1.34-.6,2.38-.78,3.1C1609.98,229.19,1609.88,229.53,1609.88,229.53Z" fill="#e1e1e1"/>
          </g>
        </g>
        <g id="Grupo_903168" data-name="Grupo 903168">
          <g id="Grupo_903167" data-name="Grupo 903167">
            <path id="Trazado_626434" data-name="Trazado 626434" d="M1624.24,169.97c.01.01-.08.07-.26.18-.21.13-.47.29-.79.48-.75.44-1.77,1.03-3.06,1.78-2.72,1.55-6.57,3.74-11.3,6.42-9.62,5.39-22.83,12.79-37.41,20.96-.93-.22-.27-.07-.48-.13l-.01-.02-.03-.04-.05-.08-.11-.16-.22-.33-.43-.65-.86-1.29c-.57-.86-1.14-1.71-1.71-2.56-1.13-1.7-2.25-3.37-3.34-5.01l-6.31-9.48c-4-6.04-7.61-11.48-10.65-16.07-2.98-4.55-5.41-8.25-7.13-10.87-.8-1.25-1.44-2.24-1.91-2.97q-.285-.465-.48-.78c-.11-.18-.15-.27-.14-.28s.08.07.2.24c.15.2.32.45.54.74.5.71,1.17,1.68,2.02,2.9,1.76,2.59,4.26,6.25,7.32,10.74,3.08,4.57,6.73,9.98,10.78,15.98,2.02,3.01,4.15,6.18,6.35,9.45q1.65,2.46,3.35,5c.57.85,1.14,1.7,1.71,2.56l.87,1.29.43.65.22.33.11.16.05.08.03.04.01.02c-.2-.04.47.13-.45-.1,14.63-8.1,27.86-15.43,37.51-20.78,4.78-2.61,8.66-4.73,11.41-6.23,1.31-.7,2.35-1.25,3.12-1.66.33-.17.6-.3.82-.42A1.321,1.321,0,0,1,1624.24,169.97Z" fill="#e1e1e1"/>
          </g>
        </g>
        <g id="Grupo_903170" data-name="Grupo 903170">
          <g id="Grupo_903169" data-name="Grupo 903169">
            <path id="Trazado_626435" data-name="Trazado 626435" d="M1559.99,182.65c.11.16-8.08,6.15-18.3,13.38s-18.59,12.96-18.7,12.81,8.08-6.15,18.3-13.38S1559.88,182.49,1559.99,182.65Z" fill="#e1e1e1"/>
          </g>
        </g>
        <g id="Grupo_903172" data-name="Grupo 903172">
          <g id="Grupo_903171" data-name="Grupo 903171">
            <path id="Trazado_626436" data-name="Trazado 626436" d="M1610.27,230.35c-.18.08-4.72-9.18-10.14-20.68s-9.68-20.9-9.51-20.98,4.72,9.17,10.14,20.68S1610.45,230.27,1610.27,230.35Z" fill="#e1e1e1"/>
          </g>
        </g>
      </g>
      <g id="Grupo_903175" data-name="Grupo 903175" clip-path="url(#clip-path)">
        <g id="Grupo_903174" data-name="Grupo 903174">
          <path id="Trazado_626438" data-name="Trazado 626438" d="M1550.63,330.11c0,.19-132.07.35-294.96.35-162.94,0-294.99-.16-294.99-.35s132.05-.35,294.99-.35C1418.56,329.76,1550.63,329.91,1550.63,330.11Z" fill="#1a2e35"/>
        </g>
      </g>
      <g id="Grupo_903293" data-name="Grupo 903293" clip-path="url(#clip-path-6)">
        <g id="Grupo_903182" data-name="Grupo 903182">
          <g id="Grupo_903179" data-name="Grupo 903179">
            <g id="Grupo_903178" data-name="Grupo 903178">
              <g id="Grupo_903177" data-name="Grupo 903177">
                <g id="Grupo_903176" data-name="Grupo 903176">
                  <path id="Trazado_626440" data-name="Trazado 626440" d="M1050.53,33.75c17.63-23.22,36.22-19.94,49.12-14.33a35.485,35.485,0,0,1,20.71,33.79c-.23,3.71-1.02,7.61.49,11.01,2.43,5.46,9.49,7,13.57,11.36,5.59,5.96,4.35,15.4,2.46,23.35s-3.87,17.03.8,23.73c4.28,6.14,12.45,7.78,19.18,11.05,8.9,4.32,16.05,12.38,18.63,21.92s.31,20.42-6.38,27.7c-6.55,7.13-16.38,10.29-25.95,11.7A95.6,95.6,0,0,1,1033.75,95.6" fill="#bf8e56"/>
                </g>
              </g>
            </g>
          </g>
          <g id="Grupo_903181" data-name="Grupo 903181">
            <g id="Grupo_903180" data-name="Grupo 903180">
              <path id="Trazado_626441" data-name="Trazado 626441" d="M1100.57,20.42a45.806,45.806,0,0,0-6.26.35c-3.85.51-8.94,2.25-14.56,4.22s-11.05,3.06-15,2.81a18.351,18.351,0,0,1-4.59-.76,5.843,5.843,0,0,1-1.58-.63,30.469,30.469,0,0,0,6.19.89c3.88.12,9.16-1.02,14.76-2.98s10.79-3.66,14.72-4.04a23.8,23.8,0,0,1,4.65-.12A6.22,6.22,0,0,1,1100.57,20.42Z" fill="#375a64"/>
            </g>
          </g>
        </g>
        <g id="Grupo_903183" data-name="Grupo 903183">
          <path id="Trazado_626442" data-name="Trazado 626442" d="M1141.11,205.14c.68,2.03,14.72,68.34,14.72,68.34l106.76,41.05-6.01,15.58-91.54-8.05h0c-53.42-7.97-56.4-34.19-53.17-63.5l5.53-50.22Z" fill="#ffbf9d"/>
        </g>
        <g id="Grupo_903218" data-name="Grupo 903218">
          <g id="Grupo_903194" data-name="Grupo 903194">
            <g id="Grupo_903184" data-name="Grupo 903184">
              <path id="Trazado_626443" data-name="Trazado 626443" d="M987.66,169.38c11.01-16.66,27.71-26.26,43-31.58l56.17,4a42.837,42.837,0,0,1,34.21,12.62l5.22,139.18,12.9,36.51H1005.54L987.66,169.38" fill="#0b2a48"/>
            </g>
            <g id="Grupo_903186" data-name="Grupo 903186">
              <g id="Grupo_903185" data-name="Grupo 903185">
                <path id="Trazado_626444" data-name="Trazado 626444" d="M1123.09,211.56a1.276,1.276,0,0,1-.32-.21c-.24-.18-.53-.4-.9-.68-.4-.29-.86-.71-1.47-1.09-.62-.4-1.32-.85-2.1-1.36-.83-.44-1.75-.94-2.78-1.45-1.07-.41-2.17-1.01-3.46-1.38a35.541,35.541,0,0,0-8.85-1.86,36.506,36.506,0,0,0-10.91.68,33.322,33.322,0,0,0-11.51,4.84,24.174,24.174,0,0,0-9.06,10.19,14.542,14.542,0,0,0-1.23,7.06,13.264,13.264,0,0,0,2.67,6.83,9.436,9.436,0,0,0,6.17,3.66,5.977,5.977,0,0,0,6.08-2.61,7.877,7.877,0,0,0,.11-6.63,12.313,12.313,0,0,0-1.6-2.97,16.288,16.288,0,0,0-2.25-2.44,24.215,24.215,0,0,0-11.08-5.54,34.147,34.147,0,0,0-10.9-.61,71.525,71.525,0,0,0-15.5,3.65c-1.75.59-3.13,1.06-4.12,1.39-.44.15-.8.26-1.08.35a1.523,1.523,0,0,1-.37.1,1.607,1.607,0,0,1,.35-.17q.405-.165,1.05-.42c.93-.36,2.3-.88,4.08-1.52a68.73,68.73,0,0,1,15.54-3.88,34.282,34.282,0,0,1,11.08.53,24.821,24.821,0,0,1,11.39,5.63,15.329,15.329,0,0,1,1.22,1.2,13.2,13.2,0,0,1,1.13,1.33,13.613,13.613,0,0,1,1.69,3.12,8.567,8.567,0,0,1-.14,7.22,5.935,5.935,0,0,1-2.91,2.5,7.761,7.761,0,0,1-3.85.46,10.092,10.092,0,0,1-6.64-3.92,13.925,13.925,0,0,1-2.81-7.2,15.109,15.109,0,0,1,1.3-7.4,24.788,24.788,0,0,1,9.33-10.46,33.807,33.807,0,0,1,11.75-4.88,37.135,37.135,0,0,1,11.08-.6,34.843,34.843,0,0,1,8.93,1.98c1.29.39,2.4,1.01,3.47,1.44,1.03.53,1.94,1.06,2.77,1.52.78.53,1.47,1,2.08,1.42s1.05.85,1.44,1.15c.35.3.64.55.86.74C1123,211.46,1123.09,211.55,1123.09,211.56Z" fill="#fafafa"/>
              </g>
            </g>
            <g id="Grupo_903187" data-name="Grupo 903187">
              <path id="Trazado_626445" data-name="Trazado 626445" d="M1121.04,154.42l33.15,59.62-36.78,11.3Z" fill="#0b2a48"/>
            </g>
            <g id="Grupo_903189" data-name="Grupo 903189">
              <g id="Grupo_903188" data-name="Grupo 903188">
                <path id="Trazado_626446" data-name="Trazado 626446" d="M1125.49,294.04a6.668,6.668,0,0,1-.11-1.04c-.04-.75-.1-1.75-.18-2.99-.12-2.67-.29-6.41-.5-11-.39-9.29-.86-22.14-1.27-36.32s-.68-27.04-.77-36.34c-.04-4.65-.06-8.42-.02-11.02.02-1.25.04-2.24.05-3a4.991,4.991,0,0,1,.07-1.04,6.549,6.549,0,0,1,.08,1.04c.02.75.05,1.75.08,2.99.06,2.68.14,6.42.24,11.01.25,9.36.59,22.17.97,36.33.41,14.15.79,26.96,1.06,36.33.12,4.59.21,8.34.28,11.01.02,1.25.03,2.24.04,3A6.366,6.366,0,0,1,1125.49,294.04Z" fill="#1a2e35"/>
              </g>
            </g>
            <g id="Grupo_903191" data-name="Grupo 903191">
              <g id="Grupo_903190" data-name="Grupo 903190">
                <path id="Trazado_626447" data-name="Trazado 626447" d="M1130.82,172.58a5.057,5.057,0,0,1-.76.53,19.745,19.745,0,0,1-2.34,1.27,24.544,24.544,0,0,1-23.35-1.96,15.512,15.512,0,0,1-3.24-2.75,7.9,7.9,0,0,1-1.99-4.02,5.465,5.465,0,0,1,1.19-4.51,4.864,4.864,0,0,1,4.6-1.33,5.956,5.956,0,0,1,3.96,2.71,6.828,6.828,0,0,1,.72,4.6,9.129,9.129,0,0,1-1.88,4.07,10.946,10.946,0,0,1-3.33,2.69,20.707,20.707,0,0,1-7.5,2.11,33.567,33.567,0,0,1-6.77.08,33.121,33.121,0,0,1-9.49-2.29,22.865,22.865,0,0,1-2.41-1.12,5.385,5.385,0,0,1-.8-.47,5.052,5.052,0,0,1,.86.34c.55.24,1.37.6,2.45.99a34.716,34.716,0,0,0,9.43,2.05,34.3,34.3,0,0,0,6.66-.16,20.416,20.416,0,0,0,7.26-2.1,10.255,10.255,0,0,0,3.11-2.54,8.51,8.51,0,0,0,1.72-3.77,6.116,6.116,0,0,0-.64-4.13,5.263,5.263,0,0,0-3.49-2.38,4.129,4.129,0,0,0-3.94,1.11,4.767,4.767,0,0,0-1.03,3.94,7.326,7.326,0,0,0,1.82,3.68,14.715,14.715,0,0,0,3.1,2.65,23.9,23.9,0,0,0,13.45,4.07,24.808,24.808,0,0,0,9.43-1.82C1129.72,173.23,1130.78,172.5,1130.82,172.58Z" fill="#fafafa"/>
              </g>
            </g>
            <g id="Grupo_903193" data-name="Grupo 903193">
              <g id="Grupo_903192" data-name="Grupo 903192">
                <path id="Trazado_626448" data-name="Trazado 626448" d="M1123.76,292.87a2.219,2.219,0,0,1-.38-.25c-.27-.2-.63-.46-1.08-.79a37.583,37.583,0,0,0-4.42-2.63,39.333,39.333,0,0,0-18.27-4.02c-7.98.06-17.41,2.66-26.55,7.96a38.5,38.5,0,0,0-6.55,4.68,22.547,22.547,0,0,0-5.17,6.51,12.806,12.806,0,0,0-1.22,8.3,7.334,7.334,0,0,0,2.08,3.68,4.033,4.033,0,0,0,3.9.95,5.551,5.551,0,0,0,3.13-2.77,9.433,9.433,0,0,0,1.13-4.14,14.452,14.452,0,0,0-2.58-8.05,19.664,19.664,0,0,0-5.99-5.72,23.1,23.1,0,0,0-7.43-2.91,42.966,42.966,0,0,0-14.86-.14,89.669,89.669,0,0,0-12.76,2.78,91.561,91.561,0,0,0-17.47,7.24c-1.96,1.08-3.46,1.96-4.47,2.57-.48.29-.86.52-1.15.7a3.5,3.5,0,0,1-.4.22,2.712,2.712,0,0,1,.36-.28c.28-.19.65-.44,1.11-.76.98-.65,2.46-1.58,4.41-2.69a87.9,87.9,0,0,1,17.46-7.48,86.884,86.884,0,0,1,12.82-2.88,43.44,43.44,0,0,1,15.08.08,23.684,23.684,0,0,1,7.65,2.98,20.55,20.55,0,0,1,6.21,5.91,15.145,15.145,0,0,1,2.71,8.46,10.033,10.033,0,0,1-1.22,4.46,6.191,6.191,0,0,1-3.55,3.1,4.773,4.773,0,0,1-4.57-1.11,8.023,8.023,0,0,1-2.29-4.04,13.467,13.467,0,0,1,1.29-8.77,23.141,23.141,0,0,1,5.34-6.7,39.489,39.489,0,0,1,6.68-4.74c9.23-5.31,18.79-7.9,26.86-7.89a38.9,38.9,0,0,1,18.4,4.28A25.688,25.688,0,0,1,1123.76,292.87Z" fill="#fafafa"/>
              </g>
            </g>
          </g>
          <g id="Grupo_903215" data-name="Grupo 903215">
            <g id="Grupo_903202" data-name="Grupo 903202">
              <g id="Grupo_903200" data-name="Grupo 903200">
                <g id="Grupo_903195" data-name="Grupo 903195">
                  <path id="Trazado_626449" data-name="Trazado 626449" d="M1028.41,184.78c-4.05-20.8-33.5-21.57-38.66-1.02-.08.32-.16.63-.23.96-7.58,32.39,18.06,128.09,24.95,133.6s13.72,11.78,25.5,6.89c6.88-2.86,78.42-66.07,78.42-66.07s16.54,15.85,22.05,14.47,16.06-17.64,16.06-17.64,10.22,15.34,11.51,15.57c3.65.67,5.51-3.45,4.13-5.51s-14.41-30.59-14.41-30.59,10.27-1.11,8.2-4.56c0,0-.26-3.17-7.2-2.56s-6.94-7.35-19.8-6.53-39.61,4.08-77.18,32.87l-17.35,12.25Z" fill="#ffbf9d"/>
                </g>
                <g id="Grupo_903197" data-name="Grupo 903197">
                  <g id="Grupo_903196" data-name="Grupo 903196">
                    <path id="Trazado_626450" data-name="Trazado 626450" d="M1061.76,254.67s.14-.13.43-.35c.31-.24.74-.56,1.3-.99,1.17-.88,2.87-2.15,5.06-3.8a200.961,200.961,0,0,1,20.11-12.67,132.26,132.26,0,0,1,33.86-13.07c3.41-.72,6.95-1.38,10.62-1.78q2.745-.3,5.58-.5a23.921,23.921,0,0,1,5.78.26,15.191,15.191,0,0,1,5.54,2.15c1.72,1.05,3.16,2.5,4.9,3.38a6.424,6.424,0,0,0,2.78.73c.95.02,2.02-.13,3.06-.09a9.825,9.825,0,0,1,3.15.53,3.35,3.35,0,0,1,2.33,2.39l-.05-.14a1.931,1.931,0,0,1,.27,1.46,2.434,2.434,0,0,1-.85,1.21,8.377,8.377,0,0,1-2.46,1.24,28.6,28.6,0,0,1-5.41,1.16l.27-.48c2.96,6.4,6.03,13.04,9.18,19.86,1.6,3.39,3.2,6.87,4.95,10.24a5.993,5.993,0,0,1,.66,1.39,4.208,4.208,0,0,1,.04,1.58,4.554,4.554,0,0,1-1.54,2.68,3.918,3.918,0,0,1-2.97.9l-.39-.04a.885.885,0,0,1-.29-.11c-.08-.05-.12-.09-.19-.13a5.978,5.978,0,0,1-.57-.55c-.34-.37-.66-.75-.97-1.14-3.53-4.52-6.65-9.2-9.77-13.81h.59a116.272,116.272,0,0,1-7.96,10.75,44.5,44.5,0,0,1-4.56,4.75c-.42.35-.86.68-1.29,1.03a15.928,15.928,0,0,1-1.43.86,5.5,5.5,0,0,1-1.66.49,5.825,5.825,0,0,1-1.68-.22,22.065,22.065,0,0,1-5.76-2.83c-1.77-1.14-3.45-2.39-5.08-3.66-3.25-2.55-6.3-5.22-9.19-7.95l.44.01c-22.68,19.96-42.11,36.71-55.99,48.32-6.94,5.8-12.5,10.32-16.4,13.29-1.94,1.49-3.48,2.59-4.55,3.28a9,9,0,0,1-1.69.94c-.02-.04.59-.29,1.63-1.03,1.05-.72,2.56-1.84,4.48-3.36,3.85-3.02,9.37-7.58,16.28-13.43,13.81-11.69,33.18-28.51,55.82-48.5l.22-.2.22.2c2.88,2.7,5.93,5.36,9.16,7.89,1.62,1.26,3.29,2.49,5.04,3.62a21.377,21.377,0,0,0,5.57,2.74c2.02.76,3.84-.68,5.45-2.02a44.18,44.18,0,0,0,4.48-4.68,118.378,118.378,0,0,0,7.9-10.68l.29-.44.29.44c3.1,4.59,6.25,9.28,9.73,13.75.3.38.61.75.93,1.1.16.17.33.34.48.47l.11.08.01.01c.01-.02-.01.04-.02.13.01-.06-.04.21.03-.11h.03l.33.04a3.212,3.212,0,0,0,2.46-.74,3.477,3.477,0,0,0,.68-4.75c-1.8-3.45-3.37-6.89-4.98-10.29-3.15-6.82-6.21-13.47-9.17-19.87l-.19-.42.47-.06a27.561,27.561,0,0,0,5.27-1.12,7.646,7.646,0,0,0,2.25-1.12,1.79,1.79,0,0,0,.63-.85,1.254,1.254,0,0,0-.19-.96l-.03-.05-.02-.09a2.809,2.809,0,0,0-1.91-1.83,9.008,9.008,0,0,0-2.93-.49c-1.01-.04-1.99.1-3.07.08a7.313,7.313,0,0,1-3.05-.8c-1.87-.96-3.29-2.41-4.95-3.42a14.425,14.425,0,0,0-5.31-2.07c-3.75-.68-7.54-.1-11.18.22a106.689,106.689,0,0,0-10.56,1.74,133.307,133.307,0,0,0-33.79,12.88,210.566,210.566,0,0,0-20.18,12.49c-2.22,1.61-3.94,2.86-5.12,3.71-.57.41-1.01.72-1.33.95C1061.92,254.58,1061.76,254.67,1061.76,254.67Z" fill="#ff9a6c"/>
                  </g>
                </g>
                <g id="Grupo_903199" data-name="Grupo 903199">
                  <g id="Grupo_903198" data-name="Grupo 903198">
                    <path id="Trazado_626451" data-name="Trazado 626451" d="M1037.97,290.21a3.083,3.083,0,0,1-.28-1.01,20.921,20.921,0,0,1-.35-2.83,28.769,28.769,0,0,1,4.97-17.84,19.538,19.538,0,0,1,1.76-2.24c.46-.49.72-.75.76-.72.09.08-.85,1.22-2.1,3.23a32.653,32.653,0,0,0-4.9,17.55C1037.87,288.73,1038.09,290.19,1037.97,290.21Z" fill="#ff9a6c"/>
                  </g>
                </g>
              </g>
              <g id="Grupo_903201" data-name="Grupo 903201">
                <path id="Trazado_626452" data-name="Trazado 626452" d="M1008.35,148.8c-.66.44-24.48,7.56-28.22,31.98s-1.5,66.93-1.5,66.93l64.61-4.44-18.52-85.87Z" fill="#0a2947"/>
              </g>
            </g>
            <g id="Grupo_903204" data-name="Grupo 903204">
              <g id="Grupo_903203" data-name="Grupo 903203">
                <path id="Trazado_626453" data-name="Trazado 626453" d="M1145.7,270.24a21.168,21.168,0,0,1,.03-2.22,11.655,11.655,0,0,0-4.73-8.96,19.113,19.113,0,0,1-1.84-1.23,4.4,4.4,0,0,1,2.12.82,10.57,10.57,0,0,1,4.95,9.39A4.558,4.558,0,0,1,1145.7,270.24Z" fill="#ff9a6c"/>
              </g>
            </g>
            <g id="Grupo_903206" data-name="Grupo 903206">
              <g id="Grupo_903205" data-name="Grupo 903205">
                <path id="Trazado_626454" data-name="Trazado 626454" d="M1151.63,263c-.22.03-.28-2.94-2.2-5.88-1.86-2.97-4.53-4.28-4.41-4.46a3.74,3.74,0,0,1,1.75.78,11.2,11.2,0,0,1,4.88,7.65A3.74,3.74,0,0,1,1151.63,263Z" fill="#ff9a6c"/>
              </g>
            </g>
            <g id="Grupo_903208" data-name="Grupo 903208">
              <g id="Grupo_903207" data-name="Grupo 903207">
                <path id="Trazado_626455" data-name="Trazado 626455" d="M1151.63,247.58c.05-.07.61.2,1.35.86a9.582,9.582,0,0,1,3.07,6.93c-.01,1-.18,1.59-.27,1.58-.22-.01,0-2.44-1.2-5.07C1153.43,249.22,1151.49,247.74,1151.63,247.58Z" fill="#ff9a6c"/>
              </g>
            </g>
            <g id="Grupo_903210" data-name="Grupo 903210">
              <g id="Grupo_903209" data-name="Grupo 903209">
                <path id="Trazado_626456" data-name="Trazado 626456" d="M1035.37,202.74a1.259,1.259,0,0,1-.34-.01c-.26-.03-.58-.06-.98-.11a34.622,34.622,0,0,0-3.76-.26,35.789,35.789,0,0,0-13.52,2.51,34.224,34.224,0,0,0-15.79,12.52c-2.1,3.17-3.75,7.08-3.47,11.23a12.485,12.485,0,0,0,1.89,5.91,9.131,9.131,0,0,0,4.91,3.89,8.68,8.68,0,0,0,6.23-.3,7.081,7.081,0,0,0,3.79-4.58,11.265,11.265,0,0,0-.24-5.96,16.869,16.869,0,0,0-2.58-5.22,25.841,25.841,0,0,0-17.11-10.12,26.191,26.191,0,0,0-13.53,1.82,30.56,30.56,0,0,0-3.37,1.68c-.34.21-.62.37-.84.51a1.416,1.416,0,0,1-.3.16,19.547,19.547,0,0,1,4.4-2.6,25.889,25.889,0,0,1,13.7-2.06,26.2,26.2,0,0,1,17.57,10.23,17.674,17.674,0,0,1,2.71,5.42,12.09,12.09,0,0,1,.26,6.33,7.706,7.706,0,0,1-4.16,5.04,9.379,9.379,0,0,1-6.74.33,9.853,9.853,0,0,1-5.28-4.19,13.258,13.258,0,0,1-1.99-6.24,19.118,19.118,0,0,1,3.62-11.64,34.476,34.476,0,0,1,16.15-12.63,35.065,35.065,0,0,1,13.71-2.32A25.986,25.986,0,0,1,1035.37,202.74Z" fill="#fafafa"/>
              </g>
            </g>
            <g id="Grupo_903212" data-name="Grupo 903212">
              <g id="Grupo_903211" data-name="Grupo 903211">
                <path id="Trazado_626457" data-name="Trazado 626457" d="M1033.15,167.69a9.224,9.224,0,0,1-1.64.76,16.765,16.765,0,0,1-1.99.72,23.806,23.806,0,0,1-2.7.75,28.23,28.23,0,0,1-3.35.63c-1.21.21-2.52.27-3.89.37a43.7,43.7,0,0,1-8.93-.61,44.226,44.226,0,0,1-8.59-2.54,38.577,38.577,0,0,1-3.52-1.7,31.713,31.713,0,0,1-2.92-1.75,25.459,25.459,0,0,1-2.27-1.65,14.863,14.863,0,0,1-1.62-1.37,8.068,8.068,0,0,1-1.27-1.28c.1-.12,1.95,1.68,5.43,3.87a32,32,0,0,0,2.92,1.66c1.05.59,2.25,1.07,3.49,1.62a42.414,42.414,0,0,0,17.24,3.1c1.35-.08,2.64-.12,3.84-.3a30.95,30.95,0,0,0,3.31-.54C1030.74,168.59,1033.1,167.55,1033.15,167.69Z" fill="#fafafa"/>
              </g>
            </g>
            <g id="Grupo_903214" data-name="Grupo 903214">
              <g id="Grupo_903213" data-name="Grupo 903213">
                <path id="Trazado_626458" data-name="Trazado 626458" d="M1038.49,209.09a2.978,2.978,0,0,1,.15.65c.08.49.19,1.11.32,1.88.26,1.72.63,4.11,1.08,7.08.88,6.13,2.11,14.64,3.54,24.52l.05.36-.36.03c-4.69.33-9.79.68-15.09,1.05-13.65.9-25.99,1.71-35.03,2.3-4.43.26-8.03.47-10.62.62-1.2.05-2.16.1-2.89.13a6.47,6.47,0,0,1-1.01,0,6.157,6.157,0,0,1,1-.14c.73-.07,1.68-.15,2.88-.26,2.58-.2,6.18-.49,10.6-.84,9.03-.65,21.37-1.53,35.01-2.51,5.3-.36,10.4-.7,15.09-1.02l-.31.38c-1.32-9.89-2.46-18.42-3.29-24.56-.37-2.98-.67-5.37-.89-7.11-.09-.78-.15-1.41-.21-1.9A3.02,3.02,0,0,1,1038.49,209.09Z" fill="#1a2e35"/>
              </g>
            </g>
          </g>
          <g id="Grupo_903217" data-name="Grupo 903217" opacity="0.2">
            <g id="Grupo_903216" data-name="Grupo 903216">
              <path id="Trazado_626459" data-name="Trazado 626459" d="M1007.16,148.12c-.64,2.28,1.16,4.42,2.34,6.48,2.27,3.96,2.4,8.74,2.6,13.3.37,8.34,1.23,16.75,3.83,24.68s7.07,15.44,13.67,20.56,15.47,7.62,23.55,5.51,14.92-9.26,15.57-17.59c.65-8.25-4.33-15.74-7.2-23.51-2.21-5.99-3.2-12.35-4.47-18.61s-2.9-12.56-6.22-18.02-8.58-10.02-14.86-11.17-13.46,1.82-16,7.68"/>
            </g>
          </g>
        </g>
        <g id="Grupo_903289" data-name="Grupo 903289">
          <g id="Grupo_903284" data-name="Grupo 903284">
            <g id="Grupo_903283" data-name="Grupo 903283">
              <g id="Grupo_903272" data-name="Grupo 903272">
                <g id="Grupo_903271" data-name="Grupo 903271">
                  <g id="Grupo_903270" data-name="Grupo 903270">
                    <g id="Grupo_903223" data-name="Grupo 903223">
                      <g id="Grupo_903222" data-name="Grupo 903222">
                        <g id="Grupo_903221" data-name="Grupo 903221">
                          <g id="Grupo_903220" data-name="Grupo 903220">
                            <g id="Grupo_903219" data-name="Grupo 903219">
                              <path id="Trazado_626460" data-name="Trazado 626460" d="M1038.37,38.84l.01,7.2-.47,107.74c-.05,12.51,10.66,22.52,24.05,22.47h0c13.53-.04,24.69-10.32,24.96-22.95.28-13.26.81-27.22.81-27.22s17.13-2.53,21.07-24.76c1.96-11.05,1.72-29.24,1.05-44.11a23.526,23.526,0,0,0-25.57-22.4Z" fill="#ffbf9d"/>
                            </g>
                          </g>
                        </g>
                      </g>
                    </g>
                    <g id="Grupo_903235" data-name="Grupo 903235">
                      <g id="Grupo_903228" data-name="Grupo 903228">
                        <g id="Grupo_903227" data-name="Grupo 903227">
                          <g id="Grupo_903226" data-name="Grupo 903226">
                            <g id="Grupo_903225" data-name="Grupo 903225">
                              <g id="Grupo_903224" data-name="Grupo 903224">
                                <path id="Trazado_626461" data-name="Trazado 626461" d="M1104.61,70.77a2.863,2.863,0,0,1-2.81,2.84,2.737,2.737,0,0,1-2.9-2.63,2.862,2.862,0,0,1,2.8-2.84A2.734,2.734,0,0,1,1104.61,70.77Z" fill="#1a2e35"/>
                              </g>
                            </g>
                          </g>
                        </g>
                      </g>
                      <g id="Grupo_903234" data-name="Grupo 903234">
                        <g id="Grupo_903233" data-name="Grupo 903233">
                          <g id="Grupo_903232" data-name="Grupo 903232">
                            <g id="Grupo_903231" data-name="Grupo 903231">
                              <g id="Grupo_903230" data-name="Grupo 903230">
                                <g id="Grupo_903229" data-name="Grupo 903229">
                                  <path id="Trazado_626462" data-name="Trazado 626462" d="M1105.74,66.6c-.36.37-2.5-1.27-5.57-1.32-3.07-.09-5.36,1.45-5.68,1.07-.16-.17.21-.84,1.21-1.53a7.82,7.82,0,0,1,4.56-1.32,7.477,7.477,0,0,1,4.43,1.52C1105.61,65.76,1105.92,66.43,1105.74,66.6Z" fill="#1a2e35"/>
                                </g>
                              </g>
                            </g>
                          </g>
                        </g>
                      </g>
                    </g>
                    <g id="Grupo_903247" data-name="Grupo 903247">
                      <g id="Grupo_903240" data-name="Grupo 903240">
                        <g id="Grupo_903239" data-name="Grupo 903239">
                          <g id="Grupo_903238" data-name="Grupo 903238">
                            <g id="Grupo_903237" data-name="Grupo 903237">
                              <g id="Grupo_903236" data-name="Grupo 903236">
                                <path id="Trazado_626463" data-name="Trazado 626463" d="M1075.48,70.26a2.863,2.863,0,0,1-2.81,2.84,2.737,2.737,0,0,1-2.9-2.63,2.862,2.862,0,0,1,2.8-2.84A2.739,2.739,0,0,1,1075.48,70.26Z" fill="#1a2e35"/>
                              </g>
                            </g>
                          </g>
                        </g>
                      </g>
                      <g id="Grupo_903246" data-name="Grupo 903246">
                        <g id="Grupo_903245" data-name="Grupo 903245">
                          <g id="Grupo_903244" data-name="Grupo 903244">
                            <g id="Grupo_903243" data-name="Grupo 903243">
                              <g id="Grupo_903242" data-name="Grupo 903242">
                                <g id="Grupo_903241" data-name="Grupo 903241">
                                  <path id="Trazado_626464" data-name="Trazado 626464" d="M1075.49,66.64c-.36.37-2.5-1.27-5.58-1.32-3.07-.09-5.36,1.45-5.69,1.07-.16-.17.21-.84,1.21-1.53a7.82,7.82,0,0,1,4.56-1.32,7.477,7.477,0,0,1,4.43,1.52C1075.36,65.79,1075.67,66.47,1075.49,66.64Z" fill="#1a2e35"/>
                                </g>
                              </g>
                            </g>
                          </g>
                        </g>
                      </g>
                    </g>
                    <g id="Grupo_903253" data-name="Grupo 903253">
                      <g id="Grupo_903252" data-name="Grupo 903252">
                        <g id="Grupo_903251" data-name="Grupo 903251">
                          <g id="Grupo_903250" data-name="Grupo 903250">
                            <g id="Grupo_903249" data-name="Grupo 903249">
                              <g id="Grupo_903248" data-name="Grupo 903248">
                                <path id="Trazado_626465" data-name="Trazado 626465" d="M1086.25,89.65c-.01-.17,1.91-.47,5.01-.81.79-.07,1.53-.21,1.67-.74a4,4,0,0,0-.48-2.34q-1.05-2.865-2.22-6.02c-3.07-8.57-5.28-15.62-4.94-15.74s3.12,6.73,6.19,15.3q1.11,3.165,2.12,6.06a4.567,4.567,0,0,1,.35,3.09,2,2,0,0,1-1.31,1.13,5.278,5.278,0,0,1-1.34.16C1088.2,89.84,1086.26,89.82,1086.25,89.65Z" fill="#1a2e35"/>
                              </g>
                            </g>
                          </g>
                        </g>
                      </g>
                    </g>
                    <g id="Grupo_903258" data-name="Grupo 903258">
                      <g id="Grupo_903257" data-name="Grupo 903257">
                        <g id="Grupo_903256" data-name="Grupo 903256">
                          <g id="Grupo_903255" data-name="Grupo 903255">
                            <g id="Grupo_903254" data-name="Grupo 903254">
                              <path id="Trazado_626466" data-name="Trazado 626466" d="M1087.73,126.09a56.738,56.738,0,0,1-29.71-8.49s6.97,15.44,29.32,13.75Z" fill="#ff9a6c"/>
                            </g>
                          </g>
                        </g>
                      </g>
                    </g>
                    <g id="Grupo_903263" data-name="Grupo 903263">
                      <g id="Grupo_903262" data-name="Grupo 903262">
                        <g id="Grupo_903261" data-name="Grupo 903261">
                          <g id="Grupo_903260" data-name="Grupo 903260">
                            <g id="Grupo_903259" data-name="Grupo 903259">
                              <path id="Trazado_626467" data-name="Trazado 626467" d="M1084.82,97.04a5.552,5.552,0,0,0-4.93-2.15,5.068,5.068,0,0,0-3.53,1.81,3.2,3.2,0,0,0-.31,3.66,3.722,3.722,0,0,0,4.01,1.09,11.541,11.541,0,0,0,3.97-2.28,3.464,3.464,0,0,0,.9-.89,1.029,1.029,0,0,0,.02-1.14" fill="#ff9a6c"/>
                            </g>
                          </g>
                        </g>
                      </g>
                    </g>
                    <g id="Grupo_903269" data-name="Grupo 903269">
                      <g id="Grupo_903268" data-name="Grupo 903268">
                        <g id="Grupo_903267" data-name="Grupo 903267">
                          <g id="Grupo_903266" data-name="Grupo 903266">
                            <g id="Grupo_903265" data-name="Grupo 903265">
                              <g id="Grupo_903264" data-name="Grupo 903264">
                                <path id="Trazado_626468" data-name="Trazado 626468" d="M1077.16,91.61c.5-.02.45,3.32,3.26,5.74s6.38,2.12,6.39,2.58c.04.21-.8.63-2.31.65a8.348,8.348,0,0,1-5.34-1.97,7.227,7.227,0,0,1-2.52-4.81C1076.55,92.41,1076.93,91.59,1077.16,91.61Z" fill="#1a2e35"/>
                              </g>
                            </g>
                          </g>
                        </g>
                      </g>
                    </g>
                  </g>
                </g>
              </g>
              <g id="Grupo_903277" data-name="Grupo 903277">
                <g id="Grupo_903276" data-name="Grupo 903276">
                  <g id="Grupo_903275" data-name="Grupo 903275">
                    <g id="Grupo_903274" data-name="Grupo 903274">
                      <g id="Grupo_903273" data-name="Grupo 903273">
                        <path id="Trazado_626469" data-name="Trazado 626469" d="M1076.5,54.59c-.32.83-3.38.38-7,.75-3.62.3-6.55,1.3-7.02.54-.21-.36.31-1.14,1.51-1.93a11.781,11.781,0,0,1,5.23-1.73,11.63,11.63,0,0,1,5.45.74C1075.98,53.53,1076.64,54.2,1076.5,54.59Z" fill="#1a2e35"/>
                      </g>
                    </g>
                  </g>
                </g>
              </g>
              <g id="Grupo_903282" data-name="Grupo 903282">
                <g id="Grupo_903281" data-name="Grupo 903281">
                  <g id="Grupo_903280" data-name="Grupo 903280">
                    <g id="Grupo_903279" data-name="Grupo 903279">
                      <g id="Grupo_903278" data-name="Grupo 903278">
                        <path id="Trazado_626470" data-name="Trazado 626470" d="M1104.77,57.68c-.55.69-2.66-.07-5.21-.15-2.54-.17-4.71.39-5.2-.35-.21-.36.14-1.05,1.1-1.7a7.532,7.532,0,0,1,8.38.41C1104.73,56.61,1105.01,57.34,1104.77,57.68Z" fill="#1a2e35"/>
                      </g>
                    </g>
                  </g>
                </g>
              </g>
            </g>
          </g>
          <g id="Grupo_903288" data-name="Grupo 903288">
            <g id="Grupo_903285" data-name="Grupo 903285">
              <path id="Trazado_626471" data-name="Trazado 626471" d="M1066.32,31.51c6.03,7.86-.06,19.13-6.85,26.34s-15.07,15.59-13.1,25.3c2.28,11.26,17.78,18.33,15.6,29.61-.8,4.12-4,7.65-3.98,11.84.05,7.57,9.87,11.15,12.76,18.14,3.96,9.59-6.57,19.29-6.63,29.66-.03,5.89,3.35,11.35,3.59,17.23.48,12.05-13.69,21.02-25.41,18.17s-19.84-14.18-22.51-25.95-.9-24.03.87-35.96c-1.12,5.09-8.83,6.12-12.64,2.56s-4.32-9.45-3.52-14.6c2.01-12.92,10.37-23.92,14.29-36.39,3.42-10.9,3.33-22.54,4.76-33.88s4.82-23.17,13.4-30.72,23.53-8.62,30.61.35" fill="#bf8e56"/>
            </g>
            <g id="Grupo_903287" data-name="Grupo 903287">
              <g id="Grupo_903286" data-name="Grupo 903286">
                <path id="Trazado_626472" data-name="Trazado 626472" d="M1035.76,203.51a2.337,2.337,0,0,1,.28-.45c.21-.31.49-.73.85-1.27a29.736,29.736,0,0,0,2.59-5.26,29.09,29.09,0,0,0,1.79-9.06,27.506,27.506,0,0,0-2.19-11.95c-1.78-4.2-4.9-8.16-8.2-12.4a64.633,64.633,0,0,1-4.78-6.87,27.3,27.3,0,0,1-3.16-8.33,16.415,16.415,0,0,1,.75-9.32,13.242,13.242,0,0,1,2.76-4.05,31.881,31.881,0,0,1,3.82-3.14c2.64-1.91,5.49-3.85,6.95-6.86a14.449,14.449,0,0,0,.62-9.87c-1.62-6.8-6.33-12.04-9.35-17.93a22.829,22.829,0,0,1-2.81-9.35,20.678,20.678,0,0,1,1.75-9.2c2.45-5.65,6.5-10.02,10.49-13.61,4.01-3.61,7.98-6.68,11.24-9.88a35.529,35.529,0,0,0,7.42-9.7,23.358,23.358,0,0,0,2.54-8.84,16.1,16.1,0,0,0-.58-5.8c-.37-1.29-.69-1.93-.65-1.95a10.975,10.975,0,0,1,.78,1.9,15.739,15.739,0,0,1,.72,5.85,23.145,23.145,0,0,1-2.46,9,35.544,35.544,0,0,1-7.43,9.89c-3.26,3.24-7.22,6.35-11.19,9.95-3.95,3.58-7.91,7.91-10.29,13.43a19.9,19.9,0,0,0-1.68,8.91,22.182,22.182,0,0,0,2.75,9.07c1.51,2.9,3.4,5.67,5.18,8.58a32.912,32.912,0,0,1,4.24,9.51,15.1,15.1,0,0,1-.67,10.35c-1.58,3.22-4.55,5.21-7.18,7.11a30.358,30.358,0,0,0-3.74,3.06,12.56,12.56,0,0,0-2.62,3.83,15.74,15.74,0,0,0-.73,8.94,26.922,26.922,0,0,0,3.06,8.14,63.308,63.308,0,0,0,4.71,6.83c3.27,4.25,6.41,8.27,8.19,12.56a27.815,27.815,0,0,1,2.13,12.16,29.166,29.166,0,0,1-1.93,9.14,27.82,27.82,0,0,1-2.73,5.24c-.38.56-.71.96-.91,1.23A2.076,2.076,0,0,1,1035.76,203.51Z" fill="#375a64"/>
              </g>
            </g>
          </g>
        </g>
        <g id="Grupo_903292" data-name="Grupo 903292">
          <g id="Grupo_903290" data-name="Grupo 903290">
            <path id="Trazado_626473" data-name="Trazado 626473" d="M1201.72,229.04l-51.29,89.56-72.63,2.51v8h212.19l57.75-94.6a5.37,5.37,0,0,0-4.59-8.17H1206.38A5.381,5.381,0,0,0,1201.72,229.04Z" fill="#1a2e35"/>
          </g>
          <g id="Grupo_903291" data-name="Grupo 903291">
            <path id="Trazado_626474" data-name="Trazado 626474" d="M1265.97,276.85c-3.22,5.01-8.18,7.56-11.08,5.7s-2.64-7.43.58-12.44,8.18-7.56,11.08-5.7S1269.19,271.84,1265.97,276.85Z" fill="#e1e1e1"/>
          </g>
        </g>
      </g>
      <g id="Grupo_903481" data-name="Grupo 903481" clip-path="url(#clip-path)">
        <g id="Grupo_903477" data-name="Grupo 903477">
          <g id="Grupo_903471" data-name="Grupo 903471">
            <g id="Grupo_903299" data-name="Grupo 903299">
              <g id="Grupo_903298" data-name="Grupo 903298">
                <g id="Grupo_903297" data-name="Grupo 903297">
                  <g id="Grupo_903296" data-name="Grupo 903296">
                    <g id="Grupo_903295" data-name="Grupo 903295">
                      <g id="Grupo_903294" data-name="Grupo 903294">
                        <path id="Trazado_626476" data-name="Trazado 626476" d="M1521.87,288.71a3.309,3.309,0,0,0-.29-.7c-.23-.49-.54-1.16-.94-2a50.663,50.663,0,0,1-2.76-8c-1.82-7.12-2.46-17.99.24-30.91a165.745,165.745,0,0,1,5.73-20.76c2.43-7.37,5.24-15.19,7.55-23.64,2.28-8.43,4.07-17.58,3.73-27.18s-3.19-19.21-6.33-28.76c-3.12-9.57-6.35-18.92-7.32-28.32a43.256,43.256,0,0,1,5.19-26.16c4.14-7.63,9.36-14.16,13.26-20.92a72.883,72.883,0,0,0,7.97-20.11,74.861,74.861,0,0,0,.5-31.16,58.4,58.4,0,0,0-3.25-11,3.958,3.958,0,0,0,.19.73c.16.52.38,1.22.66,2.11a79.43,79.43,0,0,1,2.02,8.24,75.833,75.833,0,0,1-.81,30.93,72.9,72.9,0,0,1-7.99,19.86c-3.89,6.68-9.13,13.18-13.35,20.9a44.044,44.044,0,0,0-5.36,26.69c.97,9.57,4.23,18.98,7.34,28.53,3.13,9.54,5.94,19.04,6.3,28.49s-1.4,18.51-3.64,26.9c-2.26,8.41-5.05,16.23-7.45,23.62a163.555,163.555,0,0,0-5.64,20.89c-2.62,13.01-1.88,24,.08,31.14a46.2,46.2,0,0,0,2.95,7.99c.43.83.78,1.48,1.03,1.96A5.84,5.84,0,0,0,1521.87,288.71Z" fill="#1a2e35"/>
                      </g>
                    </g>
                  </g>
                </g>
              </g>
            </g>
            <g id="Grupo_903311" data-name="Grupo 903311">
              <g id="Grupo_903304" data-name="Grupo 903304">
                <g id="Grupo_903303" data-name="Grupo 903303">
                  <g id="Grupo_903302" data-name="Grupo 903302">
                    <g id="Grupo_903301" data-name="Grupo 903301">
                      <g id="Grupo_903300" data-name="Grupo 903300">
                        <path id="Trazado_626477" data-name="Trazado 626477" d="M1534.63,78.03s7.92-25.33-6.29-40.16a.883.883,0,0,0-1.51.44C1526.08,42.49,1525.13,55.23,1534.63,78.03Z" fill="#ff4f5b"/>
                      </g>
                    </g>
                  </g>
                </g>
              </g>
              <g id="Grupo_903310" data-name="Grupo 903310">
                <g id="Grupo_903309" data-name="Grupo 903309">
                  <g id="Grupo_903308" data-name="Grupo 903308">
                    <g id="Grupo_903307" data-name="Grupo 903307">
                      <g id="Grupo_903306" data-name="Grupo 903306">
                        <g id="Grupo_903305" data-name="Grupo 903305">
                          <path id="Trazado_626478" data-name="Trazado 626478" d="M1529.89,46.31a23.575,23.575,0,0,0,.53,4.67c.52,3.22,1.13,7,1.81,11.17.66,4.18,1.26,7.95,1.77,11.17.43,2.86.69,4.63.84,4.62.13-.01.12-1.81-.14-4.71s-.77-6.88-1.49-11.25-1.48-8.31-2.1-11.14A21.656,21.656,0,0,0,1529.89,46.31Z" fill="#1a2e35"/>
                        </g>
                      </g>
                    </g>
                  </g>
                </g>
              </g>
            </g>
            <g id="Grupo_903323" data-name="Grupo 903323">
              <g id="Grupo_903316" data-name="Grupo 903316">
                <g id="Grupo_903315" data-name="Grupo 903315">
                  <g id="Grupo_903314" data-name="Grupo 903314">
                    <g id="Grupo_903313" data-name="Grupo 903313">
                      <g id="Grupo_903312" data-name="Grupo 903312">
                        <path id="Trazado_626479" data-name="Trazado 626479" d="M1525.33,137.77s-4.84-26.09-24.34-32.56a.88.88,0,0,0-1.13,1.09C1501.15,110.35,1506.27,122.06,1525.33,137.77Z" fill="#ff4f5b"/>
                      </g>
                    </g>
                  </g>
                </g>
              </g>
              <g id="Grupo_903322" data-name="Grupo 903322">
                <g id="Grupo_903321" data-name="Grupo 903321">
                  <g id="Grupo_903320" data-name="Grupo 903320">
                    <g id="Grupo_903319" data-name="Grupo 903319">
                      <g id="Grupo_903318" data-name="Grupo 903318">
                        <g id="Grupo_903317" data-name="Grupo 903317">
                          <path id="Trazado_626480" data-name="Trazado 626480" d="M1506.3,111.95c-.11.09.93,1.56,2.66,3.88,1.97,2.6,4.27,5.66,6.82,9.03s4.84,6.44,6.79,9.05c1.72,2.33,2.78,3.77,2.9,3.69s-.75-1.66-2.33-4.1-3.9-5.72-6.58-9.24-5.19-6.65-7.06-8.87S1506.41,111.86,1506.3,111.95Z" fill="#1a2e35"/>
                        </g>
                      </g>
                    </g>
                  </g>
                </g>
              </g>
            </g>
            <g id="Grupo_903335" data-name="Grupo 903335">
              <g id="Grupo_903328" data-name="Grupo 903328">
                <g id="Grupo_903327" data-name="Grupo 903327">
                  <g id="Grupo_903326" data-name="Grupo 903326">
                    <g id="Grupo_903325" data-name="Grupo 903325">
                      <g id="Grupo_903324" data-name="Grupo 903324">
                        <path id="Trazado_626481" data-name="Trazado 626481" d="M1530.6,203.23s2.94-26.37-13.83-38.22a.881.881,0,0,0-1.4.71C1515.42,169.97,1516.92,182.66,1530.6,203.23Z" fill="#ff4f5b"/>
                      </g>
                    </g>
                  </g>
                </g>
              </g>
              <g id="Grupo_903334" data-name="Grupo 903334">
                <g id="Grupo_903333" data-name="Grupo 903333">
                  <g id="Grupo_903332" data-name="Grupo 903332">
                    <g id="Grupo_903331" data-name="Grupo 903331">
                      <g id="Grupo_903330" data-name="Grupo 903330">
                        <g id="Grupo_903329" data-name="Grupo 903329">
                          <path id="Trazado_626482" data-name="Trazado 626482" d="M1519.89,172.99c-.13.05.44,1.76,1.42,4.49,1.12,3.06,2.45,6.65,3.91,10.62s2.76,7.57,3.87,10.63c.97,2.73,1.56,4.42,1.71,4.38a19.637,19.637,0,0,0-1.04-4.59c-.81-2.79-2.07-6.6-3.61-10.76s-3.03-7.87-4.18-10.54A22.312,22.312,0,0,0,1519.89,172.99Z" fill="#1a2e35"/>
                        </g>
                      </g>
                    </g>
                  </g>
                </g>
              </g>
            </g>
            <g id="Grupo_903347" data-name="Grupo 903347">
              <g id="Grupo_903340" data-name="Grupo 903340">
                <g id="Grupo_903339" data-name="Grupo 903339">
                  <g id="Grupo_903338" data-name="Grupo 903338">
                    <g id="Grupo_903337" data-name="Grupo 903337">
                      <g id="Grupo_903336" data-name="Grupo 903336">
                        <path id="Trazado_626483" data-name="Trazado 626483" d="M1515.91,269.07s2-26.46-15.19-37.7a.88.88,0,0,0-1.37.76C1499.55,236.37,1501.51,249,1515.91,269.07Z" fill="#ff4f5b"/>
                      </g>
                    </g>
                  </g>
                </g>
              </g>
              <g id="Grupo_903346" data-name="Grupo 903346">
                <g id="Grupo_903345" data-name="Grupo 903345">
                  <g id="Grupo_903344" data-name="Grupo 903344">
                    <g id="Grupo_903343" data-name="Grupo 903343">
                      <g id="Grupo_903342" data-name="Grupo 903342">
                        <g id="Grupo_903341" data-name="Grupo 903341">
                          <path id="Trazado_626484" data-name="Trazado 626484" d="M1504.12,239.24a23.979,23.979,0,0,0,1.57,4.43c1.23,3.02,2.68,6.56,4.28,10.47s3.03,7.46,4.25,10.48c1.07,2.69,1.72,4.36,1.86,4.31a19.959,19.959,0,0,0-1.2-4.55c-.91-2.76-2.3-6.52-3.99-10.62s-3.31-7.76-4.56-10.38C1505.1,240.77,1504.25,239.18,1504.12,239.24Z" fill="#1a2e35"/>
                        </g>
                      </g>
                    </g>
                  </g>
                </g>
              </g>
            </g>
            <g id="Grupo_903359" data-name="Grupo 903359">
              <g id="Grupo_903352" data-name="Grupo 903352">
                <g id="Grupo_903351" data-name="Grupo 903351">
                  <g id="Grupo_903350" data-name="Grupo 903350">
                    <g id="Grupo_903349" data-name="Grupo 903349">
                      <g id="Grupo_903348" data-name="Grupo 903348">
                        <path id="Trazado_626485" data-name="Trazado 626485" d="M1546.01,55.77s23.52-12.28,23.99-32.82a.878.878,0,0,0-1.37-.76C1565.13,24.62,1555.44,32.94,1546.01,55.77Z" fill="#ff4f5b"/>
                      </g>
                    </g>
                  </g>
                </g>
              </g>
              <g id="Grupo_903358" data-name="Grupo 903358">
                <g id="Grupo_903357" data-name="Grupo 903357">
                  <g id="Grupo_903356" data-name="Grupo 903356">
                    <g id="Grupo_903355" data-name="Grupo 903355">
                      <g id="Grupo_903354" data-name="Grupo 903354">
                        <g id="Grupo_903353" data-name="Grupo 903353">
                          <path id="Trazado_626486" data-name="Trazado 626486" d="M1565.12,30.01c-.11-.08-1.22,1.34-2.93,3.68-1.91,2.64-4.15,5.74-6.63,9.17s-4.74,6.51-6.66,9.15c-1.72,2.33-2.79,3.76-2.68,3.86a19.837,19.837,0,0,0,3.23-3.43c1.86-2.23,4.32-5.4,6.91-9s4.84-6.91,6.4-9.35S1565.23,30.09,1565.12,30.01Z" fill="#1a2e35"/>
                        </g>
                      </g>
                    </g>
                  </g>
                </g>
              </g>
            </g>
            <g id="Grupo_903371" data-name="Grupo 903371">
              <g id="Grupo_903364" data-name="Grupo 903364">
                <g id="Grupo_903363" data-name="Grupo 903363">
                  <g id="Grupo_903362" data-name="Grupo 903362">
                    <g id="Grupo_903361" data-name="Grupo 903361">
                      <g id="Grupo_903360" data-name="Grupo 903360">
                        <path id="Trazado_626487" data-name="Trazado 626487" d="M1520.75,110.17s24.23-10.83,25.93-31.3a.878.878,0,0,0-1.32-.84C1541.73,80.23,1531.55,87.96,1520.75,110.17Z" fill="#ff4f5b"/>
                      </g>
                    </g>
                  </g>
                </g>
              </g>
              <g id="Grupo_903370" data-name="Grupo 903370">
                <g id="Grupo_903369" data-name="Grupo 903369">
                  <g id="Grupo_903368" data-name="Grupo 903368">
                    <g id="Grupo_903367" data-name="Grupo 903367">
                      <g id="Grupo_903366" data-name="Grupo 903366">
                        <g id="Grupo_903365" data-name="Grupo 903365">
                          <path id="Trazado_626488" data-name="Trazado 626488" d="M1541.38,85.61a24.091,24.091,0,0,0-3.15,3.49c-2.07,2.52-4.49,5.48-7.18,8.75s-5.12,6.21-7.2,8.73c-1.86,2.22-3.01,3.59-2.91,3.69a19.645,19.645,0,0,0,3.43-3.22c2-2.11,4.64-5.13,7.44-8.56s5.25-6.61,6.96-8.95C1540.5,87.2,1541.49,85.7,1541.38,85.61Z" fill="#1a2e35"/>
                        </g>
                      </g>
                    </g>
                  </g>
                </g>
              </g>
            </g>
            <g id="Grupo_903383" data-name="Grupo 903383">
              <g id="Grupo_903376" data-name="Grupo 903376">
                <g id="Grupo_903375" data-name="Grupo 903375">
                  <g id="Grupo_903374" data-name="Grupo 903374">
                    <g id="Grupo_903373" data-name="Grupo 903373">
                      <g id="Grupo_903372" data-name="Grupo 903372">
                        <path id="Trazado_626489" data-name="Trazado 626489" d="M1534.69,170.85s16.63-20.68,8.83-39.68a.878.878,0,0,0-1.56-.15C1539.73,134.64,1534.19,146.15,1534.69,170.85Z" fill="#ff4f5b"/>
                      </g>
                    </g>
                  </g>
                </g>
              </g>
              <g id="Grupo_903382" data-name="Grupo 903382">
                <g id="Grupo_903381" data-name="Grupo 903381">
                  <g id="Grupo_903380" data-name="Grupo 903380">
                    <g id="Grupo_903379" data-name="Grupo 903379">
                      <g id="Grupo_903378" data-name="Grupo 903378">
                        <g id="Grupo_903377" data-name="Grupo 903377">
                          <path id="Trazado_626490" data-name="Trazado 626490" d="M1541.88,139.59c-.14-.02-.58,1.72-1.21,4.54-.69,3.19-1.51,6.93-2.4,11.06-.91,4.13-1.73,7.86-2.43,11.05-.64,2.82-1.05,4.57-.91,4.61a19.626,19.626,0,0,0,1.59-4.43c.81-2.79,1.8-6.68,2.73-11.01s1.66-8.27,2.12-11.14A22.617,22.617,0,0,0,1541.88,139.59Z" fill="#1a2e35"/>
                        </g>
                      </g>
                    </g>
                  </g>
                </g>
              </g>
            </g>
            <g id="Grupo_903395" data-name="Grupo 903395">
              <g id="Grupo_903388" data-name="Grupo 903388">
                <g id="Grupo_903387" data-name="Grupo 903387">
                  <g id="Grupo_903386" data-name="Grupo 903386">
                    <g id="Grupo_903385" data-name="Grupo 903385">
                      <g id="Grupo_903384" data-name="Grupo 903384">
                        <path id="Trazado_626491" data-name="Trazado 626491" d="M1518.22,242.25s24.04-11.24,25.4-31.73a.882.882,0,0,0-1.34-.82C1538.69,211.96,1528.64,219.86,1518.22,242.25Z" fill="#ff4f5b"/>
                      </g>
                    </g>
                  </g>
                </g>
              </g>
              <g id="Grupo_903394" data-name="Grupo 903394">
                <g id="Grupo_903393" data-name="Grupo 903393">
                  <g id="Grupo_903392" data-name="Grupo 903392">
                    <g id="Grupo_903391" data-name="Grupo 903391">
                      <g id="Grupo_903390" data-name="Grupo 903390">
                        <g id="Grupo_903389" data-name="Grupo 903389">
                          <path id="Trazado_626492" data-name="Trazado 626492" d="M1538.43,217.35a23.68,23.68,0,0,0-3.09,3.55c-2.03,2.56-4.4,5.56-7.03,8.87s-5.02,6.3-7.05,8.84a26.058,26.058,0,0,0-2.85,3.74,19.622,19.622,0,0,0,3.38-3.28c1.96-2.15,4.55-5.21,7.3-8.69s5.14-6.69,6.81-9.06S1538.54,217.43,1538.43,217.35Z" fill="#1a2e35"/>
                        </g>
                      </g>
                    </g>
                  </g>
                </g>
              </g>
            </g>
            <g id="Grupo_903470" data-name="Grupo 903470">
              <g id="Grupo_903401" data-name="Grupo 903401">
                <g id="Grupo_903400" data-name="Grupo 903400">
                  <g id="Grupo_903399" data-name="Grupo 903399">
                    <g id="Grupo_903398" data-name="Grupo 903398">
                      <g id="Grupo_903397" data-name="Grupo 903397">
                        <g id="Grupo_903396" data-name="Grupo 903396">
                          <path id="Trazado_626493" data-name="Trazado 626493" d="M1470.33,137.91a2.171,2.171,0,0,0-.03.58c.01.46.03,1.02.04,1.7.07,1.59.17,3.75.28,6.43.31,5.66.74,13.54,1.26,22.98v.02l.01.03c1.72,9.6,6.61,20.25,13.18,30.58,4.82,7.61,9.87,14.53,14.23,20.97a147.993,147.993,0,0,1,10.67,17.63,74.2,74.2,0,0,1,4.99,12.94c.42,1.59.74,2.82.92,3.67a7.823,7.823,0,0,0,.35,1.28,6.776,6.776,0,0,0-.16-1.32c-.12-.86-.38-2.12-.75-3.73a67.986,67.986,0,0,0-4.73-13.15,141.091,141.091,0,0,0-10.54-17.84c-4.33-6.48-9.35-13.41-14.15-20.99-6.54-10.28-11.4-20.76-13.18-30.21l.01.05c-.66-9.43-1.22-17.31-1.61-22.96-.22-2.68-.39-4.83-.52-6.42-.07-.67-.12-1.23-.17-1.69A1.8,1.8,0,0,0,1470.33,137.91Z" fill="#1a2e35"/>
                        </g>
                      </g>
                    </g>
                  </g>
                </g>
              </g>
              <g id="Grupo_903418" data-name="Grupo 903418">
                <g id="Grupo_903406" data-name="Grupo 903406">
                  <g id="Grupo_903405" data-name="Grupo 903405">
                    <g id="Grupo_903404" data-name="Grupo 903404">
                      <g id="Grupo_903403" data-name="Grupo 903403">
                        <g id="Grupo_903402" data-name="Grupo 903402">
                          <path id="Trazado_626494" data-name="Trazado 626494" d="M1484.65,198.27s-10.18-24.51,2.63-40.56a.879.879,0,0,1,1.54.3C1489.95,162.1,1492.04,174.7,1484.65,198.27Z" fill="#ff4f5b"/>
                        </g>
                      </g>
                    </g>
                  </g>
                </g>
                <g id="Grupo_903412" data-name="Grupo 903412">
                  <g id="Grupo_903411" data-name="Grupo 903411">
                    <g id="Grupo_903410" data-name="Grupo 903410">
                      <g id="Grupo_903409" data-name="Grupo 903409">
                        <g id="Grupo_903408" data-name="Grupo 903408">
                          <g id="Grupo_903407" data-name="Grupo 903407">
                            <path id="Trazado_626495" data-name="Trazado 626495" d="M1486.5,166.25c-.14-.01-.45,1.76-.81,4.64s-.76,6.87-1.08,11.28-.47,8.43-.47,11.33.16,4.7.29,4.7c.15,0,.24-1.79.42-4.68.22-3.25.47-7.07.75-11.29s.56-8.04.79-11.29C1486.57,168.06,1486.64,166.26,1486.5,166.25Z" fill="#1a2e35"/>
                          </g>
                        </g>
                      </g>
                    </g>
                  </g>
                </g>
                <g id="Grupo_903417" data-name="Grupo 903417" opacity="0.3">
                  <g id="Grupo_903416" data-name="Grupo 903416">
                    <g id="Grupo_903415" data-name="Grupo 903415">
                      <g id="Grupo_903414" data-name="Grupo 903414">
                        <g id="Grupo_903413" data-name="Grupo 903413">
                          <path id="Trazado_626496" data-name="Trazado 626496" d="M1484.65,198.27s-10.18-24.51,2.63-40.56a.879.879,0,0,1,1.54.3C1489.95,162.1,1492.04,174.7,1484.65,198.27Z"/>
                        </g>
                      </g>
                    </g>
                  </g>
                </g>
              </g>
              <g id="Grupo_903435" data-name="Grupo 903435">
                <g id="Grupo_903423" data-name="Grupo 903423">
                  <g id="Grupo_903422" data-name="Grupo 903422">
                    <g id="Grupo_903421" data-name="Grupo 903421">
                      <g id="Grupo_903420" data-name="Grupo 903420">
                        <g id="Grupo_903419" data-name="Grupo 903419">
                          <path id="Trazado_626497" data-name="Trazado 626497" d="M1516.18,257.32s-8.16-25.25,5.91-40.22a.877.877,0,0,1,1.51.42C1524.4,221.7,1525.47,234.43,1516.18,257.32Z" fill="#ff4f5b"/>
                        </g>
                      </g>
                    </g>
                  </g>
                </g>
                <g id="Grupo_903429" data-name="Grupo 903429">
                  <g id="Grupo_903428" data-name="Grupo 903428">
                    <g id="Grupo_903427" data-name="Grupo 903427">
                      <g id="Grupo_903426" data-name="Grupo 903426">
                        <g id="Grupo_903425" data-name="Grupo 903425">
                          <g id="Grupo_903424" data-name="Grupo 903424">
                            <path id="Trazado_626498" data-name="Trazado 626498" d="M1520.63,225.56c-.13-.03-.59,1.71-1.18,4.56s-1.32,6.78-1.99,11.16-1.15,8.36-1.38,11.26-.23,4.7-.1,4.71a25.706,25.706,0,0,0,.79-4.63c.48-3.22,1.04-7.01,1.67-11.19s1.21-7.96,1.7-11.19A24.2,24.2,0,0,0,1520.63,225.56Z" fill="#1a2e35"/>
                          </g>
                        </g>
                      </g>
                    </g>
                  </g>
                </g>
                <g id="Grupo_903434" data-name="Grupo 903434" opacity="0.3">
                  <g id="Grupo_903433" data-name="Grupo 903433">
                    <g id="Grupo_903432" data-name="Grupo 903432">
                      <g id="Grupo_903431" data-name="Grupo 903431">
                        <g id="Grupo_903430" data-name="Grupo 903430">
                          <path id="Trazado_626499" data-name="Trazado 626499" d="M1516.18,257.32s-8.16-25.25,5.91-40.22a.877.877,0,0,1,1.51.42C1524.4,221.7,1525.47,234.43,1516.18,257.32Z"/>
                        </g>
                      </g>
                    </g>
                  </g>
                </g>
              </g>
              <g id="Grupo_903452" data-name="Grupo 903452">
                <g id="Grupo_903440" data-name="Grupo 903440">
                  <g id="Grupo_903439" data-name="Grupo 903439">
                    <g id="Grupo_903438" data-name="Grupo 903438">
                      <g id="Grupo_903437" data-name="Grupo 903437">
                        <g id="Grupo_903436" data-name="Grupo 903436">
                          <path id="Trazado_626500" data-name="Trazado 626500" d="M1471.68,168.31s-21.74-15.22-19.55-35.64a.881.881,0,0,1,1.46-.58C1456.75,134.95,1465.28,144.46,1471.68,168.31Z" fill="#ff4f5b"/>
                        </g>
                      </g>
                    </g>
                  </g>
                </g>
                <g id="Grupo_903445" data-name="Grupo 903445" opacity="0.3">
                  <g id="Grupo_903444" data-name="Grupo 903444">
                    <g id="Grupo_903443" data-name="Grupo 903443">
                      <g id="Grupo_903442" data-name="Grupo 903442">
                        <g id="Grupo_903441" data-name="Grupo 903441">
                          <path id="Trazado_626501" data-name="Trazado 626501" d="M1471.68,168.31s-21.74-15.22-19.55-35.64a.881.881,0,0,1,1.46-.58C1456.75,134.95,1465.28,144.46,1471.68,168.31Z"/>
                        </g>
                      </g>
                    </g>
                  </g>
                </g>
                <g id="Grupo_903451" data-name="Grupo 903451">
                  <g id="Grupo_903450" data-name="Grupo 903450">
                    <g id="Grupo_903449" data-name="Grupo 903449">
                      <g id="Grupo_903448" data-name="Grupo 903448">
                        <g id="Grupo_903447" data-name="Grupo 903447">
                          <g id="Grupo_903446" data-name="Grupo 903446">
                            <path id="Trazado_626502" data-name="Trazado 626502" d="M1456.07,140.3c-.12.06.56,1.72,1.81,4.35s3.04,6.21,5.14,10.1,4.13,7.36,5.69,9.82,2.66,3.89,2.76,3.81c.12-.08-.76-1.64-2.16-4.17-1.56-2.86-3.39-6.22-5.42-9.93s-3.84-7.08-5.39-9.95A23.68,23.68,0,0,0,1456.07,140.3Z" fill="#1a2e35"/>
                          </g>
                        </g>
                      </g>
                    </g>
                  </g>
                </g>
              </g>
              <g id="Grupo_903469" data-name="Grupo 903469">
                <g id="Grupo_903457" data-name="Grupo 903457">
                  <g id="Grupo_903456" data-name="Grupo 903456">
                    <g id="Grupo_903455" data-name="Grupo 903455">
                      <g id="Grupo_903454" data-name="Grupo 903454">
                        <g id="Grupo_903453" data-name="Grupo 903453">
                          <path id="Trazado_626503" data-name="Trazado 626503" d="M1507.42,232.29s-26.22-4.09-33.25-23.39a.878.878,0,0,1,1.06-1.16C1479.31,208.91,1491.16,213.69,1507.42,232.29Z" fill="#ff4f5b"/>
                        </g>
                      </g>
                    </g>
                  </g>
                </g>
                <g id="Grupo_903462" data-name="Grupo 903462" opacity="0.3">
                  <g id="Grupo_903461" data-name="Grupo 903461">
                    <g id="Grupo_903460" data-name="Grupo 903460">
                      <g id="Grupo_903459" data-name="Grupo 903459">
                        <g id="Grupo_903458" data-name="Grupo 903458">
                          <path id="Trazado_626504" data-name="Trazado 626504" d="M1507.42,232.29s-26.22-4.09-33.25-23.39a.878.878,0,0,1,1.06-1.16C1479.31,208.91,1491.16,213.69,1507.42,232.29Z"/>
                        </g>
                      </g>
                    </g>
                  </g>
                </g>
                <g id="Grupo_903468" data-name="Grupo 903468">
                  <g id="Grupo_903467" data-name="Grupo 903467">
                    <g id="Grupo_903466" data-name="Grupo 903466">
                      <g id="Grupo_903465" data-name="Grupo 903465">
                        <g id="Grupo_903464" data-name="Grupo 903464">
                          <g id="Grupo_903463" data-name="Grupo 903463">
                            <path id="Trazado_626505" data-name="Trazado 626505" d="M1481.06,214.01c-.08.11,1.27,1.3,3.54,3.11s5.46,4.23,9.07,6.8,6.95,4.79,9.43,6.31a19.8,19.8,0,0,0,4.16,2.21,26.4,26.4,0,0,0-3.78-2.8c-2.66-1.88-5.79-4.09-9.24-6.53s-6.57-4.67-9.22-6.56A25.248,25.248,0,0,0,1481.06,214.01Z" fill="#1a2e35"/>
                          </g>
                        </g>
                      </g>
                    </g>
                  </g>
                </g>
              </g>
            </g>
          </g>
          <g id="Grupo_903476" data-name="Grupo 903476">
            <g id="Grupo_903475" data-name="Grupo 903475">
              <g id="Grupo_903474" data-name="Grupo 903474">
                <g id="Grupo_903473" data-name="Grupo 903473">
                  <g id="Grupo_903472" data-name="Grupo 903472">
                    <path id="Trazado_626506" data-name="Trazado 626506" d="M1538.44,280.54l-7.52,49.34-30.04-.05-10.11-49.29Z" fill="#375a64"/>
                  </g>
                </g>
              </g>
            </g>
          </g>
        </g>
        <g id="Grupo_903480" data-name="Grupo 903480">
          <g id="Grupo_903479" data-name="Grupo 903479">
            <g id="Grupo_903478" data-name="Grupo 903478">
              <path id="Trazado_626507" data-name="Trazado 626507" d="M1495.17,299.58c-.01.01.08.07.25.18s.43.28.79.45a11.1,11.1,0,0,0,3.36,1,12.228,12.228,0,0,0,5.52-.52,11.555,11.555,0,0,0,5.94-4.31,8.306,8.306,0,0,0,1.39-4.13,4.491,4.491,0,0,0-2.04-4.24,4.867,4.867,0,0,0-5.03.41,7.369,7.369,0,0,0-2.88,4.53,19.167,19.167,0,0,0-.37,5.57,18.253,18.253,0,0,0,1.22,5.7,12.665,12.665,0,0,0,3.48,4.97,9.7,9.7,0,0,0,5.78,2.41,10.556,10.556,0,0,0,6.01-1.75,18.341,18.341,0,0,0,4.49-4.05,9.823,9.823,0,0,0,2.27-5.42,6.261,6.261,0,0,0-2.13-5.23,4.891,4.891,0,0,0-5.32-.33,5.7,5.7,0,0,0-3.07,4.02,7.722,7.722,0,0,0,3.8,7.81,10.67,10.67,0,0,0,7.25,1.05,16.837,16.837,0,0,0,5.17-2.02,26.484,26.484,0,0,0,2.89-1.96,6.772,6.772,0,0,0,.93-.79,7.592,7.592,0,0,0-1.02.65,33.937,33.937,0,0,1-2.95,1.81,16.875,16.875,0,0,1-5.09,1.85,10.206,10.206,0,0,1-6.87-1.1,7.124,7.124,0,0,1-3.42-7.18,5.026,5.026,0,0,1,2.73-3.51,4.146,4.146,0,0,1,4.52.27,5.507,5.507,0,0,1,1.82,4.59,9.078,9.078,0,0,1-2.12,4.96,17.379,17.379,0,0,1-4.28,3.86,9.753,9.753,0,0,1-5.54,1.62,8.937,8.937,0,0,1-5.29-2.21,11.85,11.85,0,0,1-3.27-4.64,17.574,17.574,0,0,1-1.18-5.45,18.506,18.506,0,0,1,.33-5.34,6.6,6.6,0,0,1,2.54-4.11,4.171,4.171,0,0,1,4.29-.42,3.831,3.831,0,0,1,1.74,3.62,7.8,7.8,0,0,1-1.24,3.83,11.2,11.2,0,0,1-5.6,4.2,12.37,12.37,0,0,1-5.34.64A13.726,13.726,0,0,1,1495.17,299.58Z" fill="#1a2e35"/>
            </g>
          </g>
        </g>
      </g>
      <g id="Grupo_903489" data-name="Grupo 903489" clip-path="url(#clip-path)">
        <g id="Grupo_903484" data-name="Grupo 903484">
          <g id="Grupo_903483" data-name="Grupo 903483">
            <g id="Grupo_903482" data-name="Grupo 903482">
              <path id="Trazado_626509" data-name="Trazado 626509" d="M1405.15,316.29c-2.15-1.84-6.95-7.69-3.25-14.49,1.36-2.49,4.24-3.73,6.85-4.82s5.35-2.05,7.51-3.89c4.07-3.46,5.19-9.21,7.89-13.83,3.1-5.3,8.89-9.28,15.01-9,7,.32,12.85,6.04,15.49,12.56s2.74,13.76,2.8,20.81c.03,3.89-.14,8.29-3,10.92-2.64,2.43-6.61,2.46-10.18,2.35q-19.14-.585-38.28-1.18" fill="#f5f5f5"/>
            </g>
          </g>
        </g>
        <g id="Grupo_903488" data-name="Grupo 903488">
          <g id="Grupo_903487" data-name="Grupo 903487">
            <g id="Grupo_903486" data-name="Grupo 903486">
              <g id="Grupo_903485" data-name="Grupo 903485">
                <path id="Trazado_626510" data-name="Trazado 626510" d="M1478.36,211.04H1377.7l18.13,108.12a12.088,12.088,0,0,0,8.59,9.63c.12.04.24.06.35.1a9.134,9.134,0,0,0,.9.23,12.485,12.485,0,0,0,2.05.24c.01.03.01.07.02.1l.49-.08h44.86a12.438,12.438,0,0,0,2.46-.25,12.109,12.109,0,0,0,10.18-10.57l8.74-74.49.39-2.96h-.05l3.46-29.5ZM1459.37,280h-10.33l1.04-31.38h11.97Zm3.68-31.38h9.89L1469.26,280h-8.89Zm-29.51,66.17-.63-27.26h14.88l-.91,27.26Zm-16.08-27.26h14.45l.63,27.26h-12.96Zm1.12,27.26h-12.12c-1.15-7.36-2.65-16.92-4.27-27.26h14.27Zm-1.7-34.79-2.44-31.38h16.58l.72,31.38Zm15.86,0-.72-31.38h17.06L1448.04,280Zm-.89-38.9-.67-29.06h19.12l-.97,29.06Zm-1,0h-16.99l-2.26-29.06h18.58Zm-18,0h-17.98c-.64-4.01-1.24-7.81-1.79-11.23-1.88-11.75-2.58-16.17-2.97-17.83h20.48Zm.59,7.52,2.44,31.38h-14.87c-.5-3.18-1.01-6.4-1.51-9.63-1.17-7.41-2.33-14.81-3.43-21.75ZM1399.99,280h-9.71l-5.26-31.38h10.03C1396.58,258.32,1398.28,269.11,1399.99,280Zm1.19,7.53c1.48,9.43,2.94,18.73,4.27,27.26h-9.33l-4.57-27.26Zm46.71,27.26.91-27.26h9.94l-2.33,27.26Zm2.44-73.69.97-29.06h13.88l-2.48,29.06Zm-61.17-29.06c.4,2.1,2.24,13.54,4.7,29.06h-10.1l-4.87-29.06Zm76.02,102.75h-7.78l2.33-27.26h8.65Zm8.65-73.69H1463.7l2.48-29.06h11.06Z" fill="#e1e1e1"/>
              </g>
            </g>
          </g>
        </g>
      </g>
    </g>
  </g>
</svg>
