<svg xmlns="http://www.w3.org/2000/svg" xmlns:xlink="http://www.w3.org/1999/xlink" width="362.838" height="287.083" viewBox="0 0 362.838 287.083">
  <defs>
    <clipPath id="clip-path">
      <rect id="Rectángulo_35048" data-name="Rectángulo 35048" width="362.838" height="287.083"/>
    </clipPath>
  </defs>
  <g id="Grupo_1004885" data-name="Grupo 1004885" transform="translate(-2962.968 9193.637)">
    <g id="Grupo_1004883" data-name="Grupo 1004883" transform="translate(-88.032 -610.582)">
      <g id="Grupo_93295" data-name="Grupo 93295" transform="translate(3051 -8583.055)">
        <g id="Grupo_93294" data-name="Grupo 93294" clip-path="url(#clip-path)">
          <rect id="Rectángulo_35046" data-name="Rectángulo 35046" width="388.619" height="327.013" transform="translate(-25.781 50.8)" fill="#eff5d6"/>
          <rect id="Rectángulo_35047" data-name="Rectángulo 35047" width="338.032" height="416.242" transform="translate(24.806 -38.429)" fill="none"/>
          <g id="Grupo_93293" data-name="Grupo 93293" transform="translate(8.184 13.59)">
            <g id="Grupo_93287" data-name="Grupo 93287" transform="translate(24.585)">
              <path id="Trazado_125507" data-name="Trazado 125507" d="M434.426,178.269l10.928-28.106,21.92-20.613s-3.994-6.412-9.565-2.786-15.721,11.95-15.721,11.95,15.05-37.327,11.322-39.066-13.463,23.024-13.463,23.024,9.181-32.87,4.612-34.575-15.1,37.679-15.1,37.679,6.859-32.926,3.4-34.268-10.278,30.357-10.278,30.357,1.619-21.534-1.257-21.989-4.452,25.411-6.859,31.21-19.023,18.112-8.073,35.382l-.628,5.048Z" transform="translate(-402.586 -88.043)" fill="#f8c5aa"/>
              <path id="Trazado_125508" data-name="Trazado 125508" d="M411.3,149.286s11.12-22.864,30.132-16.1l6.4-4.866" transform="translate(-402.019 -82.526)" fill="none" stroke="#de7c65" stroke-miterlimit="10" stroke-width="0.75"/>
              <path id="Trazado_125509" data-name="Trazado 125509" d="M417.2,124.3s14.038-8.05,24.178-1.831" transform="translate(-401.635 -83.65)" fill="none" stroke="#de7c65" stroke-miterlimit="10" stroke-width="0.75"/>
              <path id="Trazado_125510" data-name="Trazado 125510" d="M425.184,103.95c-.181.671-4.292,18.2-4.8,20.966" transform="translate(-401.428 -85.864)" fill="none" stroke="#de7c65" stroke-miterlimit="10" stroke-width="0.75"/>
              <line id="Línea_189" data-name="Línea 189" x1="6.327" y2="20.158" transform="translate(26.834 16.642)" fill="none" stroke="#de7c65" stroke-miterlimit="10" stroke-width="0.75"/>
              <line id="Línea_190" data-name="Línea 190" x1="6.103" y2="13.496" transform="translate(36.154 23.18)" fill="none" stroke="#de7c65" stroke-miterlimit="10" stroke-width="0.75"/>
            </g>
            <path id="Trazado_125511" data-name="Trazado 125511" d="M638.117,215.187c-17.34-8.163-81.459-33.813-148.4-2.865-1.9.875-3.014,3.468-2.652,6.071L502.785,333.2c.021.318.043.637.064.966v97.7c0,2.99,1.843,5.412,4.111,5.412H631.9l-5.091-104.51,15.029-109.1C642.335,220.019,640.769,216.438,638.117,215.187Z" transform="translate(-372.506 -73.058)" fill="#efedf4"/>
            <g id="Grupo_93291" data-name="Grupo 93291" transform="translate(151.994 1.876)">
              <path id="Trazado_125512" data-name="Trazado 125512" d="M525.131,141.706s-3.483-22.091-1.885-25.036,3.909-1.239,3.909-1.239-4.271-23.74,13.3-25.6,32.571,16.008,32.347,24.126c0,0,7.743-.932,10.832,2.786S580.527,140,580.527,140l-4.2-.546Z" transform="translate(-522.167 -89.692)" fill="#40170e"/>
              <path id="Trazado_125513" data-name="Trazado 125513" d="M534.157,176.384l-2.9,49.185s.575,13.609,24.05,9.278,26.532-24.9,26.532-24.9L577.6,152.94Z" transform="translate(-521.618 -81.03)" fill="#f8c5aa"/>
              <path id="Trazado_125514" data-name="Trazado 125514" d="M564.543,166.15s-7.275,29.14-31.793,25.684l.788-13.757Z" transform="translate(-521.521 -79.22)" fill="#de7c65"/>
              <path id="Trazado_125515" data-name="Trazado 125515" d="M575.678,171.824c-2.439,5.059-7.019,10.29-15.54,14.053-.895.4-1.832.773-2.812,1.137-10.033,3.672-17.425,3.809-22.921,1.148-.106-.057-.2-.1-.3-.159-4.974-2.524-8.361-7.39-10.683-13.985-1.7-4.832-1.427-13.109-.341-21.852.288-2.274.628-4.582,1-6.867.341-2.047.7-4.07,1.086-6.037.277-1.467.565-2.911.841-4.286.224-1.046.437-2.069.66-3.058,1.257-5.833,2.45-10.551,3.025-12.779.245-.91.383-1.41.383-1.41,7.253-16.088,30.441-9.289,38.258-5.264a10.7,10.7,0,0,1,3.76,3.377,23.8,23.8,0,0,1,3.547,8.925,39.2,39.2,0,0,1,.809,6.572l-.1,5.423v.3l-.192,11.3a35.939,35.939,0,0,1,1.96,9.687c.032.364.053.75.064,1.148A26.519,26.519,0,0,1,575.678,171.824Z" transform="translate(-522.207 -87.248)" fill="#f8c5aa"/>
              <path id="Trazado_125516" data-name="Trazado 125516" d="M586.759,141.392c.554,6.64-4.037,12.507-10.257,13.1s-11.716-4.309-12.27-10.949,5.049-9.948,11.269-10.54S586.205,134.752,586.759,141.392Z" transform="translate(-519.474 -83.773)" fill="#f8c5aa"/>
              <path id="Trazado_125517" data-name="Trazado 125517" d="M574.6,160.09s1.917,15.235-26.1,22.682" transform="translate(-520.495 -80.05)" fill="none" stroke="#de7c65" stroke-miterlimit="10" stroke-width="0.75"/>
              <g id="Grupo_93288" data-name="Grupo 93288" transform="translate(55.246 54.583)">
                <path id="Trazado_125518" data-name="Trazado 125518" d="M580.077,142.51c.756,1.671-.6,2.16-2.162,2.967s-2.769,1.637-3.525-.045a3.46,3.46,0,0,1,1.481-4.491A3.051,3.051,0,0,1,580.077,142.51Z" transform="translate(-574.076 -137.303)" fill="#de7c65"/>
                <path id="Trazado_125519" data-name="Trazado 125519" d="M580.463,137.7s-8.361,1.194-5.517,7.754" transform="translate(-574.058 -137.7)" fill="none" stroke="#de7c65" stroke-miterlimit="10" stroke-width="0.75"/>
              </g>
              <path id="Trazado_125520" data-name="Trazado 125520" d="M551.729,131.245c0,1.944-2.695.716-5.539.716s-4.75,1.228-4.75-.716,2.3-3.525,5.144-3.525S551.729,129.289,551.729,131.245Z" transform="translate(-520.955 -84.484)" fill="#40170e"/>
              <path id="Trazado_125521" data-name="Trazado 125521" d="M535.719,131.245c0,1.944-2.695.716-5.539.716s-4.75,1.228-4.75-.716,2.3-3.525,5.144-3.525S535.719,129.289,535.719,131.245Z" transform="translate(-521.997 -84.484)" fill="#40170e"/>
              <g id="Grupo_93289" data-name="Grupo 93289" transform="translate(23.542 50.319)">
                <path id="Trazado_125522" data-name="Trazado 125522" d="M548.208,136.031a1.953,1.953,0,1,1-1.949-2.081A2.019,2.019,0,0,1,548.208,136.031Z" transform="translate(-544.31 -133.95)" fill="#40170e"/>
                <path id="Trazado_125523" data-name="Trazado 125523" d="M548.9,136.371c-.511-.864-1.694-2.535-2.982-2.41l.522,3.377a3.226,3.226,0,0,1,2.269-.7A.172.172,0,0,0,548.9,136.371Z" transform="translate(-544.205 -133.949)" fill="#40170e"/>
              </g>
              <g id="Grupo_93290" data-name="Grupo 93290" transform="translate(5.939 49.762)">
                <path id="Trazado_125524" data-name="Trazado 125524" d="M528.5,135.381a1.8,1.8,0,1,0,1.8-1.921A1.862,1.862,0,0,0,528.5,135.381Z" transform="translate(-527.736 -133.46)" fill="#40170e"/>
                <path id="Trazado_125525" data-name="Trazado 125525" d="M527.812,135.7c.469-.8,1.555-2.331,2.737-2.217l-.479,3.1a2.949,2.949,0,0,0-2.077-.648A.159.159,0,0,1,527.812,135.7Z" transform="translate(-527.783 -133.458)" fill="#40170e"/>
              </g>
              <path id="Trazado_125526" data-name="Trazado 125526" d="M538.379,133.95s-2.1,8.368-4.782,10.46,2.46,5.1,4.058,3.866" transform="translate(-521.515 -83.631)" fill="none" stroke="#de7c65" stroke-miterlimit="10" stroke-width="0.75"/>
              <path id="Trazado_125527" data-name="Trazado 125527" d="M547.667,147.144a4.575,4.575,0,0,1-2.641,5.673,4.112,4.112,0,0,1-5.507-2.354c-.788-2.217,1.651-2.319,3.9-3.24S546.879,144.927,547.667,147.144Z" transform="translate(-521.09 -81.987)" fill="#fff"/>
              <path id="Trazado_125528" data-name="Trazado 125528" d="M548.026,154.074a1.583,1.583,0,0,0-2.162-.8,1.77,1.77,0,0,0-1.118,2.137c.288.807,1.065.171,1.97-.193S548.313,154.892,548.026,154.074Z" transform="translate(-520.745 -81.004)" fill="#de7c65"/>
              <path id="Trazado_125529" data-name="Trazado 125529" d="M575.9,137.274l-2.365,11.006-3.621-.83V133.818s-4.207-4.491-5.144-8.5,4.42-9.13,4.42-9.13-39.27,6.651-34.925,1.853,5.762-6.185,5.762-6.185l-10.8,7.595s.831-16.259,24.455-13.314,23.826,19.647,24.082,22.432S575.9,137.274,575.9,137.274Z" transform="translate(-521.75 -87.489)" fill="#40170e"/>
              <path id="Trazado_125530" data-name="Trazado 125530" d="M563.37,125.264a19.937,19.937,0,0,1,17.436-1.046l-2.567,10.1-4.559.648-2.365,11.006-3.621-.83V131.506C567.694,131.494,564.19,127.526,563.37,125.264Z" transform="translate(-519.527 -85.177)" fill="#683229"/>
              <path id="Trazado_125531" data-name="Trazado 125531" d="M569.04,116.4s5.006-14.064,12.281-12.666" transform="translate(-519.158 -87.783)" fill="none" stroke="#40170e" stroke-miterlimit="10" stroke-width="1"/>
              <path id="Trazado_125532" data-name="Trazado 125532" d="M569.04,113.326s.788-10.562,4.25-13" transform="translate(-519.158 -88.235)" fill="none" stroke="#40170e" stroke-miterlimit="10" stroke-width="1"/>
              <path id="Trazado_125533" data-name="Trazado 125533" d="M559.747,143.566c0,1.91-2.258,3.456-5.049,3.456s-5.049-1.546-5.049-3.456,2.258-3.456,5.049-3.456S559.747,141.668,559.747,143.566Z" transform="translate(-520.421 -82.787)" fill="#de7c65"/>
              <path id="Trazado_125534" data-name="Trazado 125534" d="M528.846,144.2c0,1.91-2.258,3.456-5.049,3.456a5.576,5.576,0,0,1-.767-.045c.288-2.274.628-4.582,1-6.867C526.715,140.831,528.846,142.354,528.846,144.2Z" transform="translate(-522.154 -82.701)" fill="#de7c65"/>
            </g>
            <path id="Trazado_125535" data-name="Trazado 125535" d="M648.926,437.183h-70.6c-1.992-8.652-3.653-17.566-4.985-26.616-14.517-97.54,6.092-212.4,6.092-212.4s3.568.512,9,1.433c16.328,2.751,49.527,9.13,53.458,16.145,5.219,9.334-8.713,108.387-8.713,108.387Z" transform="translate(-367.222 -72.959)" fill="#281f3a"/>
            <path id="Trazado_125536" data-name="Trazado 125536" d="M603.968,298.575c-11.61,11.154-17.414,13.53-17.414,13.53s6.582,5.889,6.966,22c.383,15.986-19.864,74.448-20.162,75.347-14.517-97.029,6.092-211.282,6.092-211.282s3.568.512,9,1.421C594.712,220.932,613.735,289.184,603.968,298.575Z" transform="translate(-367.221 -72.959)" fill="#544a6b" opacity="0.42"/>
            <path id="Trazado_125537" data-name="Trazado 125537" d="M588.438,199.42s21.025,71.549,18.373,91.037c-2.066,15.178-20.258,21.477-20.258,21.477l-18.373,5.571" transform="translate(-367.221 -72.788)" fill="none" stroke="#968faa" stroke-miterlimit="10" stroke-width="1"/>
            <path id="Trazado_125538" data-name="Trazado 125538" d="M573.03,395.727s14.837-45.945,17.031-56.2,8.35-20.59-3.834-41.147" transform="translate(-366.905 -59.234)" fill="none" stroke="#968faa" stroke-miterlimit="10" stroke-width="1"/>
            <path id="Trazado_125539" data-name="Trazado 125539" d="M526.042,406.429c.565,10.915,1.374,21.261,2.514,30.744H481.18L487.4,302.4s-8.83-82.5-6.22-90.514c2.045-6.276,27.725-12.643,42.892-13.6,4.207-.261,7.6-.114,9.469.568,0,.011-11.9,121.189-7.5,207.575Z" transform="translate(-372.916 -72.96)" fill="#281f3a"/>
            <path id="Trazado_125540" data-name="Trazado 125540" d="M524.754,406.417h0c-.341.614-21.281-30.357-23.965-48.776-2.716-18.578,12.909-49.981,12.909-49.981s-1.693,0-9.426-10.744c-6.561-9.107,12.536-77.916,18.511-98.632,4.207-.261,7.6-.114,9.469.568C532.253,198.865,520.355,320.042,524.754,406.417Z" transform="translate(-371.629 -72.96)" fill="#544a6b" opacity="0.36"/>
            <path id="Trazado_125541" data-name="Trazado 125541" d="M522.645,198.28s-26.6,85.034-18.512,98.632a58.48,58.48,0,0,0,20.375,20.124" transform="translate(-371.49 -72.944)" fill="none" stroke="#968faa" stroke-miterlimit="10" stroke-width="1"/>
            <path id="Trazado_125542" data-name="Trazado 125542" d="M524.753,393.139s-36.171-39.76-20.194-75.654l8.8-22.375" transform="translate(-371.628 -59.682)" fill="none" stroke="#968faa" stroke-miterlimit="10" stroke-width="1"/>
            <path id="Trazado_125543" data-name="Trazado 125543" d="M445.536,166.894s-24.987,83.2-7.466,95.3,22.506-51.345,72.139-54.9v94.038s-78.839,65.637-114.392,12.018c-38.152-57.519,2.578-156.526,2.578-156.526Z" transform="translate(-379.504 -78.623)" fill="#281f3a"/>
            <path id="Trazado_125544" data-name="Trazado 125544" d="M617.4,277.888s36.373,25.343,43.445,52.312S617.4,378.737,617.4,378.737l11.62,48.537s89.927-11.87,83.866-106.249S619.85,205.93,619.85,205.93Z" transform="translate(-364.016 -71.896)" fill="#281f3a"/>
            <path id="Trazado_125545" data-name="Trazado 125545" d="M543.038,237.3s4.25-5.8,7.051-5.8,15.124,6.5,15.5,13.632,25.8-30.391,16.562-45.717c0,0-1.374-3.854-2.684-3.854s-14.571,25.7-26.83,27.89C538.746,225.917,543.784,231.875,543.038,237.3Z" transform="translate(-368.877 -73.317)" fill="#fff"/>
            <path id="Trazado_125546" data-name="Trazado 125546" d="M544.677,237.164s1.555-7.049-.181-10.494-9.149-3.945-11.216-8.061,1.843-21.42,0-21.159-2.279-.159-3.227.819-7.615,41.408-4.718,42.341,8.34-10.608,12.7-9.221S543.2,237.278,544.677,237.164Z" transform="translate(-370.057 -73.058)" fill="#fff"/>
            <g id="Grupo_93292" data-name="Grupo 93292" transform="translate(154.54 157.681)">
              <path id="Trazado_125547" data-name="Trazado 125547" d="M538.223,227.8s-1.96,9.244,0,10.892,10.864,3.513,12.994,0-.767-11.461-.767-11.461S539.938,225.786,538.223,227.8Z" transform="translate(-523.768 -226.729)" fill="#ffc107"/>
              <path id="Trazado_125548" data-name="Trazado 125548" d="M540.236,376.257s-16.158-17.759-15.625-29.334S539.054,237.24,539.054,237.24h12.994s9.1,98.939,7.935,111.741S540.236,376.257,540.236,376.257Z" transform="translate(-524.598 -225.289)" fill="#ffc107"/>
              <path id="Trazado_125549" data-name="Trazado 125549" d="M538.17,237.25s4.431,5.582,12.994,0" transform="translate(-523.714 -225.288)" fill="none" stroke="#4ba5a8" stroke-miterlimit="10" stroke-width="1"/>
            </g>
          </g>
        </g>
      </g>
    </g>
  </g>
</svg>
