<svg xmlns="http://www.w3.org/2000/svg" width="610" height="477.975" viewBox="0 0 610 477.975">
  <g id="Grupo_1004969" data-name="Grupo 1004969" transform="translate(4539.438 -3907.811)">
    <g id="personas_manos_feliz" data-name="personas manos feliz" transform="translate(-4539.438 3915.859)">
      <g id="Background_Complete" transform="translate(6.376 -49.492)">
        <g id="Grupo_87357" data-name="Grupo 87357" transform="translate(72.626 233.157)">
          <g id="Grupo_87355" data-name="Grupo 87355">
            <g id="Grupo_87354" data-name="Grupo 87354">
              <rect id="Rectángulo_34919" data-name="Rectángulo 34919" width="169.142" height="113.982" transform="translate(0.552 0.552)" fill="#fff"/>
              <path id="Trazado_123761" data-name="Trazado 123761" d="M333.715,301.974H163.47V186.9H333.715Zm-169.142-1.1H332.612V188H164.573Z" transform="translate(-163.47 -186.9)" fill="#ebebeb"/>
            </g>
          </g>
          <g id="Grupo_87356" data-name="Grupo 87356" transform="translate(9.112 5.284)">
            <path id="Trazado_123762" data-name="Trazado 123762" d="M179.519,195.584a3.894,3.894,0,1,1-3.894-3.894A3.894,3.894,0,0,1,179.519,195.584Z" transform="translate(-171.73 -191.69)" fill="#37474f"/>
            <path id="Trazado_123763" data-name="Trazado 123763" d="M193.929,195.584a3.894,3.894,0,1,1-3.894-3.894A3.894,3.894,0,0,1,193.929,195.584Z" transform="translate(-170.243 -191.69)" fill="#ebebeb"/>
            <path id="Trazado_123764" data-name="Trazado 123764" d="M208.349,195.584a3.894,3.894,0,1,1-3.894-3.894A3.894,3.894,0,0,1,208.349,195.584Z" transform="translate(-168.755 -191.69)" fill="#adce32"/>
          </g>
          <rect id="Rectángulo_34920" data-name="Rectángulo 34920" width="169.142" height="1.103" transform="translate(0.552 17.166)" fill="#ebebeb"/>
        </g>
        <g id="Grupo_87361" data-name="Grupo 87361" transform="translate(371.214 271.274)">
          <g id="Grupo_87359" data-name="Grupo 87359">
            <g id="Grupo_87358" data-name="Grupo 87358">
              <rect id="Rectángulo_34921" data-name="Rectángulo 34921" width="169.142" height="113.982" transform="translate(0.552 0.552)" fill="#fff"/>
              <path id="Trazado_123765" data-name="Trazado 123765" d="M608.035,345.825H437.79V230.74H608.035Zm-169.142-1.1H606.932V231.843H438.893Z" transform="translate(-437.79 -230.74)" fill="#ebebeb"/>
            </g>
          </g>
          <g id="Grupo_87360" data-name="Grupo 87360" transform="translate(9.101 5.284)">
            <path id="Trazado_123766" data-name="Trazado 123766" d="M453.829,239.424a3.894,3.894,0,1,1-3.894-3.894A3.894,3.894,0,0,1,453.829,239.424Z" transform="translate(-446.04 -235.53)" fill="#37474f"/>
            <path id="Trazado_123767" data-name="Trazado 123767" d="M468.249,239.424a3.894,3.894,0,1,1-3.894-3.894A3.894,3.894,0,0,1,468.249,239.424Z" transform="translate(-444.552 -235.53)" fill="#ebebeb"/>
            <path id="Trazado_123768" data-name="Trazado 123768" d="M482.669,239.424a3.894,3.894,0,1,1-3.894-3.894A3.894,3.894,0,0,1,482.669,239.424Z" transform="translate(-443.064 -235.53)" fill="#ffc727"/>
          </g>
          <rect id="Rectángulo_34922" data-name="Rectángulo 34922" width="169.142" height="1.103" transform="translate(0.552 17.166)" fill="#ebebeb"/>
        </g>
        <g id="Grupo_905574" data-name="Grupo 905574" transform="translate(376.927 41.445)">
          <g id="Grupo_87359-2" data-name="Grupo 87359">
            <g id="Grupo_87358-2" data-name="Grupo 87358">
              <rect id="Rectángulo_34921-2" data-name="Rectángulo 34921" width="108.485" height="73.106" transform="translate(0.354 0.354)" fill="#fff"/>
              <path id="Trazado_123765-2" data-name="Trazado 123765" d="M546.982,304.554H437.79V230.74H546.982ZM438.5,303.846H546.275v-72.4H438.5Z" transform="translate(-437.79 -230.74)" fill="#ebebeb"/>
            </g>
          </g>
          <g id="Grupo_87360-2" data-name="Grupo 87360" transform="translate(5.837 3.389)">
            <path id="Trazado_123766-2" data-name="Trazado 123766" d="M451.035,238.028a2.5,2.5,0,1,1-2.5-2.5A2.5,2.5,0,0,1,451.035,238.028Z" transform="translate(-446.04 -235.53)" fill="#37474f"/>
            <path id="Trazado_123767-2" data-name="Trazado 123767" d="M465.455,238.028a2.5,2.5,0,1,1-2.5-2.5A2.5,2.5,0,0,1,465.455,238.028Z" transform="translate(-450.257 -235.53)" fill="#ebebeb"/>
            <path id="Trazado_123768-2" data-name="Trazado 123768" d="M479.876,238.028a2.5,2.5,0,1,1-2.5-2.5A2.5,2.5,0,0,1,479.876,238.028Z" transform="translate(-454.474 -235.53)" fill="#ffc727"/>
          </g>
          <rect id="Rectángulo_34922-2" data-name="Rectángulo 34922" width="108.485" height="0.708" transform="translate(0.354 11.01)" fill="#ebebeb"/>
        </g>
        <g id="Grupo_87365" data-name="Grupo 87365" transform="translate(0 280.448)">
          <path id="Trazado_123769" data-name="Trazado 123769" d="M193.5,268.3a17.9,17.9,0,0,1-17.9,17.9c-.32,0-.618,0-.916-.022,0,0-31.353.066-31.86.066a17.9,17.9,0,1,1,0-35.81h31.562c.408-.022.805-.044,1.214-.044A17.9,17.9,0,0,1,193.5,268.3Z" transform="translate(-124.91 -250.4)" fill="#a6a6a6"/>
          <g id="Grupo_87364" data-name="Grupo 87364" transform="translate(18.092 11.01)">
            <g id="IaQ7Yo_2_">
              <g id="Grupo_87363" data-name="Grupo 87363">
                <g id="Grupo_87362" data-name="Grupo 87362">
                  <path id="Trazado_123770" data-name="Trazado 123770" d="M141.32,267.86a3.579,3.579,0,0,1,.618-1.864c.154-.254.331-.5.5-.739l1.081-1.081c.419-.3.827-.618,1.258-.9a15.516,15.516,0,0,1,5.67-2.206,36.1,36.1,0,0,1,14.1.022,15.536,15.536,0,0,1,5.6,2.173c.441.3.872.618,1.3.927l1.048,1.037a12.271,12.271,0,0,1,.772,1.247,10.693,10.693,0,0,1,.441,1.346c-.165.011-.243.022-.32.022-2.968,0-5.935.011-8.9.011a.341.341,0,0,1-.353-.21,3.087,3.087,0,0,0-2.637-1.677,63.286,63.286,0,0,0-8.053,0,3.1,3.1,0,0,0-2.626,1.688.312.312,0,0,1-.3.21h-9.035A.823.823,0,0,1,141.32,267.86Z" transform="translate(-141.309 -260.38)" fill="#fff"/>
                  <path id="Trazado_123771" data-name="Trazado 123771" d="M141.31,272.2v-3.144c0-.077.011-.165.011-.221,3.045,0,6.068-.011,9.123-.011-.011.2-.033.43-.033.673v2.681a1.024,1.024,0,0,1-1.158,1.158c-2.262,0-4.534.011-6.8.011A1.026,1.026,0,0,1,141.31,272.2Z" transform="translate(-141.31 -259.509)" fill="#fff"/>
                  <path id="Trazado_123772" data-name="Trazado 123772" d="M162.37,272.242c.011-1.147.055-2.284.088-3.431,2.923,0,5.946-.011,8.991-.011,0,.055.011.121.011.2,0,1.07.011,2.129,0,3.188a1,1,0,0,1-1.114,1.114c-2.295,0-4.589.011-6.873,0A.973.973,0,0,1,162.37,272.242Z" transform="translate(-139.137 -259.511)" fill="#fff"/>
                </g>
              </g>
            </g>
          </g>
        </g>
        <g id="Grupo_87366" data-name="Grupo 87366" transform="translate(34.293 57.536)">
          <path id="Trazado_123773" data-name="Trazado 123773" d="M568.447,177.384a4.951,4.951,0,0,1,.033-5.2c.265-.441.518-.883.761-1.335s.474-.916.7-1.39a4.937,4.937,0,0,1,4.291-2.89l6.4-.2-.651-20.839-6.443.2a4.946,4.946,0,0,1-4.457-2.626,29.423,29.423,0,0,0-1.589-2.581,5.006,5.006,0,0,1-.364-5.218l3.012-5.626-18.379-9.852-3.012,5.626a4.977,4.977,0,0,1-4.545,2.581,27.793,27.793,0,0,0-3.034.1,4.916,4.916,0,0,1-4.655-2.262l-3.4-5.472-17.717,10.988,3.387,5.461a4.89,4.89,0,0,1,.011,5.108c-.276.463-.552.927-.805,1.4s-.5.96-.728,1.445a4.876,4.876,0,0,1-4.28,2.824l-6.4.2.651,20.839,6.377-.2A4.862,4.862,0,0,1,518.053,171a32.4,32.4,0,0,0,1.743,2.824,4.876,4.876,0,0,1,.276,5.1l-3.012,5.626,18.379,9.852,3.012-5.626a4.982,4.982,0,0,1,4.556-2.581,28.068,28.068,0,0,0,3.045-.1,4.965,4.965,0,0,1,4.667,2.262l3.376,5.461,17.717-10.988Zm-30.878-4.291a17.085,17.085,0,1,1,19.913-6.023A17.1,17.1,0,0,1,537.569,173.092Z" transform="translate(-506.58 251.428)" fill="#eff5d6"/>
          <path id="Trazado_123774" data-name="Trazado 123774" d="M500.35,118.948a3.49,3.49,0,0,1-1.7-3.221c.022-.353.022-.717.022-1.07s-.011-.728-.022-1.081a3.462,3.462,0,0,1,1.7-3.21l3.883-2.239-7.3-12.654-3.883,2.239a3.442,3.442,0,0,1-3.641-.132,19.955,19.955,0,0,0-1.886-1.092A3.471,3.471,0,0,1,485.6,93.4V88.93H470.994V93.4a3.471,3.471,0,0,1-1.919,3.089,19.973,19.973,0,0,0-1.886,1.092,3.49,3.49,0,0,1-3.641.132l-3.883-2.239-7.3,12.654,3.894,2.251a3.452,3.452,0,0,1,1.688,3.21c-.022.353-.022.717-.022,1.07s.011.717.022,1.07a3.478,3.478,0,0,1-1.7,3.221l-3.894,2.239,7.3,12.654,3.872-2.239a3.465,3.465,0,0,1,3.641.121,19.964,19.964,0,0,0,1.886,1.092,3.471,3.471,0,0,1,1.919,3.089v4.468h14.606V135.9a3.471,3.471,0,0,1,1.92-3.089,19.968,19.968,0,0,0,1.887-1.092,3.465,3.465,0,0,1,3.641-.121l3.872,2.239,7.3-12.654Zm-22.042,7.678a11.964,11.964,0,1,1,11.959-11.97A11.973,11.973,0,0,1,478.308,126.626Z" transform="translate(30.595 -63.209)" fill="none" stroke="#00dcff" stroke-width="1"/>
          <path id="Trazado_123775" data-name="Trazado 123775" d="M201.883,124.637l7.3,12.654,3.872-2.239a3.465,3.465,0,0,1,3.641.121,19.968,19.968,0,0,0,1.886,1.092,3.471,3.471,0,0,1,1.92,3.089v4.468h14.606v-4.468a3.471,3.471,0,0,1,1.92-3.089,19.964,19.964,0,0,0,1.886-1.092,3.465,3.465,0,0,1,3.641-.121l3.872,2.239,7.3-12.654-3.894-2.239a3.49,3.49,0,0,1-1.7-3.221c.022-.353.022-.717.022-1.07s-.011-.717-.022-1.07a3.464,3.464,0,0,1,1.688-3.21l3.894-2.251-7.3-12.654-3.883,2.239a3.442,3.442,0,0,1-3.641-.132,19.96,19.96,0,0,0-1.886-1.092,3.471,3.471,0,0,1-1.92-3.089V92.38H220.483v4.468a3.471,3.471,0,0,1-1.92,3.089,19.964,19.964,0,0,0-1.886,1.092,3.49,3.49,0,0,1-3.641.132l-3.883-2.239-7.3,12.654,3.883,2.239a3.461,3.461,0,0,1,1.7,3.21c-.022.353-.022.717-.022,1.081s.011.717.022,1.07a3.479,3.479,0,0,1-1.7,3.221ZM215.85,118.1a11.964,11.964,0,1,1,11.959,11.97A11.954,11.954,0,0,1,215.85,118.1Z" transform="translate(-169.957 -92.38)" fill="#ffe9e1"/>
        </g>
        <g id="Grupo_87370" data-name="Grupo 87370" transform="translate(431.524 399.279)">
          <circle id="Elipse_5189" data-name="Elipse 5189" cx="49.522" cy="49.522" r="49.522" transform="translate(0 96.073) rotate(-75.936)" fill="#fff"/>
        </g>
      </g>
      <g id="Desk" transform="translate(0 405.993)">
        <path id="Trazado_123778" data-name="Trazado 123778" d="M95.52,398.272l76.253-.265,76.242-.1,152.506-.188,152.494.188,76.253.1,76.253.265-76.253.276-76.253.088-152.494.188-152.506-.188-76.242-.1Z" transform="translate(-95.52 -397.72)" fill="#263238"/>
      </g>
      <g id="Devices" transform="translate(10.9 301.852)">
        <g id="Grupo_87375" data-name="Grupo 87375">
          <g id="Grupo_87371" data-name="Grupo 87371">
            <path id="Trazado_123779" data-name="Trazado 123779" d="M269.2,406.579H117.171L105.4,303.32H257.431Z" transform="translate(-105.4 -303.32)" fill="#37474f"/>
          </g>
          <g id="Grupo_87372" data-name="Grupo 87372" transform="translate(8.285 6.928)">
            <path id="Trazado_123780" data-name="Trazado 123780" d="M260.142,399H123.1L112.91,309.6H249.96Z" transform="translate(-112.91 -309.6)" fill="#fff"/>
          </g>
          <g id="Grupo_87373" data-name="Grupo 87373" transform="translate(93.694 96.331)">
            <rect id="Rectángulo_34924" data-name="Rectángulo 34924" width="156.047" height="6.928" fill="#37474f"/>
            <rect id="Rectángulo_34925" data-name="Rectángulo 34925" width="78.536" height="6.928" transform="translate(77.499)" fill="#263238"/>
          </g>
          <g id="Grupo_87374" data-name="Grupo 87374" transform="translate(9.123 6.928)">
            <path id="Trazado_123781" data-name="Trazado 123781" d="M211.035,309.6l-88.708,88.708-2.648-23.2,65.5-65.508Z" transform="translate(-113.05 -309.6)" fill="#ebebeb"/>
            <path id="Trazado_123782" data-name="Trazado 123782" d="M248.594,374.351l-20.365,20.365H202.37l43.576-43.576Z" transform="translate(-104.517 -305.313)" fill="#ebebeb"/>
            <path id="Trazado_123783" data-name="Trazado 123783" d="M129.81,309.6l-15.235,15.235-.9-7.91L121,309.6Z" transform="translate(-113.67 -309.6)" fill="#ebebeb"/>
            <path id="Trazado_123784" data-name="Trazado 123784" d="M246.627,338.361l-58.491,58.491H179.31l66.412-66.412Z" transform="translate(-106.896 -307.449)" fill="#ebebeb"/>
            <path id="Trazado_123785" data-name="Trazado 123785" d="M141.132,309.6l-25.561,25.561-.221-1.986L138.925,309.6Z" transform="translate(-113.497 -309.6)" fill="#ebebeb"/>
            <path id="Trazado_123786" data-name="Trazado 123786" d="M222.549,309.6l-89.4,89.4H130.94l89.4-89.4Z" transform="translate(-111.888 -309.6)" fill="#ebebeb"/>
            <path id="Trazado_123787" data-name="Trazado 123787" d="M245.881,325.956,174.316,397.52H172.11l73.55-73.55Z" transform="translate(-107.639 -308.117)" fill="#ebebeb"/>
          </g>
        </g>
        <g id="Grupo_87380" data-name="Grupo 87380" transform="translate(344.207)">
          <g id="Grupo_87376" data-name="Grupo 87376" transform="translate(85.928)">
            <path id="Trazado_123788" data-name="Trazado 123788" d="M495.3,406.579H647.331L659.1,303.32H507.071Z" transform="translate(-495.3 -303.32)" fill="#37474f"/>
          </g>
          <g id="Grupo_87377" data-name="Grupo 87377" transform="translate(94.213 6.928)">
            <path id="Trazado_123789" data-name="Trazado 123789" d="M502.81,399H639.86l10.194-89.4H513Z" transform="translate(-502.81 -309.6)" fill="#fff"/>
          </g>
          <g id="Grupo_87378" data-name="Grupo 87378" transform="translate(0 96.331)">
            <rect id="Rectángulo_34926" data-name="Rectángulo 34926" width="156.047" height="6.928" fill="#37474f"/>
            <rect id="Rectángulo_34927" data-name="Rectángulo 34927" width="78.536" height="6.928" fill="#263238"/>
          </g>
          <g id="Grupo_87379" data-name="Grupo 87379" transform="translate(94.213 6.928)">
            <path id="Trazado_123790" data-name="Trazado 123790" d="M637.824,340.99l-3.332,29.19-25.583,25.583H583.05Z" transform="translate(-494.53 -306.361)" fill="#ebebeb"/>
            <path id="Trazado_123791" data-name="Trazado 123791" d="M597.508,309.6,508.116,399H502.81l2.648-23.2,66.2-66.2Z" transform="translate(-502.81 -309.6)" fill="#ebebeb"/>
            <path id="Trazado_123792" data-name="Trazado 123792" d="M538.633,309.6,508.99,339.243l1.136-9.962L529.807,309.6Z" transform="translate(-502.172 -309.6)" fill="#ebebeb"/>
            <path id="Trazado_123793" data-name="Trazado 123793" d="M633.438,309.6l-89.4,89.4H535.21l89.4-89.4Z" transform="translate(-499.467 -309.6)" fill="#ebebeb"/>
            <path id="Trazado_123794" data-name="Trazado 123794" d="M640.015,330.89l-.276,2.493-63.423,63.423H574.11Z" transform="translate(-495.452 -307.403)" fill="#ebebeb"/>
            <path id="Trazado_123795" data-name="Trazado 123795" d="M641.208,309.6,551.816,399H549.61l89.4-89.4Z" transform="translate(-497.981 -309.6)" fill="#ebebeb"/>
            <path id="Trazado_123796" data-name="Trazado 123796" d="M562.415,309.6,506.24,365.775l.287-2.493L560.208,309.6Z" transform="translate(-502.456 -309.6)" fill="#ebebeb"/>
          </g>
        </g>
      </g>
      <g id="Characters" transform="translate(59.085 133.295)">
        <g id="Grupo_87411" data-name="Grupo 87411" transform="translate(0 6.493)">
          <g id="Grupo_87410" data-name="Grupo 87410">
            <g id="Grupo_87383" data-name="Grupo 87383" transform="translate(102.49 91.668)">
              <g id="Grupo_87381" data-name="Grupo 87381" transform="translate(0.534 1.758)">
                <path id="Trazado_123797" data-name="Trazado 123797" d="M244.291,257.493c18.865,38.071,46.775,76.065,54.266,83.247,20.1,19.295,73.76,33.162,89.579,33.592,6.829.188,16.272-45.176,11.242-50.471s-71.288-19.692-74.841-22.417c-2.471-1.886-34.067-31.926-55.016-49.765C243.463,229.527,239.326,247.5,244.291,257.493Z" transform="translate(-242.465 -241.103)" fill="#f7a9a0"/>
              </g>
              <path id="Trazado_123798" data-name="Trazado 123798" d="M384.777,317.738l-17.1,54S311.6,356.923,296.6,342.548s-46.08-66.081-52.148-83.1-2.118-30.492,25.318-8.384,50.8,44.7,55.667,48.342S384.777,317.738,384.777,317.738Z" transform="translate(-241.981 -239.509)" fill="#455a64"/>
              <g id="Grupo_87382" data-name="Grupo 87382" transform="translate(111.665 73.256)">
                <path id="Trazado_123799" data-name="Trazado 123799" d="M355.683,312.677A2.762,2.762,0,1,0,358,309.533,2.765,2.765,0,0,0,355.683,312.677Z" transform="translate(-341.916 -305.543)" fill="#263238"/>
                <path id="Trazado_123800" data-name="Trazado 123800" d="M343.233,309.087a2.762,2.762,0,1,0,2.317-3.144A2.765,2.765,0,0,0,343.233,309.087Z" transform="translate(-343.201 -305.913)" fill="#263238"/>
              </g>
              <path id="Trazado_123801" data-name="Trazado 123801" d="M326.308,358.357c-12.279-4.766-23.983-10.315-29.709-15.8-15-14.386-46.08-66.081-52.148-83.115-3.883-10.889-3.674-20.31,4.159-19.924Z" transform="translate(-241.981 -239.509)" fill="#263238"/>
            </g>
            <g id="Grupo_87385" data-name="Grupo 87385" transform="translate(15.404 86.653)">
              <g id="Grupo_87384" data-name="Grupo 87384">
                <path id="Trazado_123802" data-name="Trazado 123802" d="M163.062,406.683l141.54.033c.563-5.174-28.562-149.395-42.418-167.476-2.968-3.861-12.753-4.942-21.071-3.905a36.194,36.194,0,0,0-6.4,1.313.705.705,0,0,1-.21.055,15.363,15.363,0,0,0-4.711,2.306C206.66,257.476,161.948,405.414,163.062,406.683Z" transform="translate(-163.041 -234.963)" fill="#455a64"/>
              </g>
            </g>
            <g id="Grupo_87386" data-name="Grupo 87386" transform="translate(103.029 111.813)">
              <path id="Trazado_123803" data-name="Trazado 123803" d="M242.47,269.486l6.023-11.716,7.767,8.473-1.909,8.439-7.667.982Z" transform="translate(-242.47 -257.77)" fill="#263238"/>
              <path id="Trazado_123804" data-name="Trazado 123804" d="M246.633,274.082l-3.663,86.193,16.151,28.507,8.384-32.081L254.3,273.1Z" transform="translate(-242.418 -256.188)" fill="#263238"/>
            </g>
            <g id="Grupo_87401" data-name="Grupo 87401" transform="translate(74.073)">
              <g id="Grupo_87388" data-name="Grupo 87388" transform="translate(11.343 59.658)">
                <g id="Grupo_87387" data-name="Grupo 87387">
                  <path id="Trazado_123805" data-name="Trazado 123805" d="M248.111,261.082c-2.228-.088-17.011-11.65-21.556-20.663-.309-.618.838-6.983,1.853-14.772.607-4.733,1.158-10.017,1.324-14.871.033-.993,3.365.949,3.365.949l6.233,1.732,20.63,5.748s-3.332,10.083-3.563,18.556a10.575,10.575,0,0,0,.143,2,2.377,2.377,0,0,1,.033.331C257.069,243.894,251.763,261.226,248.111,261.082Z" transform="translate(-226.504 -210.494)" fill="#f7a9a0"/>
                </g>
                <path id="Trazado_123806" data-name="Trazado 123806" d="M256.1,239.538a2.377,2.377,0,0,1,.033.331,20.69,20.69,0,0,1-3.133.066c-20.508-1.147-22.2-27.315-22.2-27.315l8.1.629L259.527,219s-3.332,10.083-3.563,18.556A10.665,10.665,0,0,0,256.1,239.538Z" transform="translate(-226.06 -210.274)" fill="#263238"/>
              </g>
              <g id="Grupo_87399" data-name="Grupo 87399">
                <path id="Trazado_123807" data-name="Trazado 123807" d="M239.681,229.871c-.011,0-.011-.011,0-.011" transform="translate(-213.802 -148.837)" fill="none" stroke="#f4a69d" stroke-linecap="round" stroke-linejoin="round" stroke-width="0"/>
                <g id="Grupo_87389" data-name="Grupo 87389" transform="translate(8.993 6.243)">
                  <path id="Trazado_123808" data-name="Trazado 123808" d="M225.175,180.074c-3.089,10.877,3.21,41.988,11.032,48.805,11.341,9.885,29.61,10.5,37.928-3.067,8.064-13.15-.872-53.549-9.576-59.716C251.729,157.017,229.742,164.011,225.175,180.074Z" transform="translate(-224.373 -162.075)" fill="#f7a9a0"/>
                </g>
                <g id="Grupo_87395" data-name="Grupo 87395" transform="translate(32.935 30.29)">
                  <g id="Grupo_87390" data-name="Grupo 87390" transform="translate(3.254 10.232)">
                    <path id="Trazado_123809" data-name="Trazado 123809" d="M253.145,194.812c-.033-.077-.143.132-.121.221.485,2.085.684,4.556-1.081,5.626-.055.033-.022.132.044.11C254.237,199.975,253.939,196.709,253.145,194.812Z" transform="translate(-248.728 -192.978)" fill="#263238"/>
                    <path id="Trazado_123810" data-name="Trazado 123810" d="M251.138,193.161c-3.42.408-2.35,7.226.816,6.851C255.087,199.637,254.006,192.808,251.138,193.161Z" transform="translate(-249.026 -193.148)" fill="#263238"/>
                  </g>
                  <g id="Grupo_87391" data-name="Grupo 87391" transform="translate(19.952 7.919)">
                    <path id="Trazado_123811" data-name="Trazado 123811" d="M264.171,193.382c0-.088.176.077.188.165.265,2.118.927,4.512,2.946,4.909.066.011.077.121,0,.121C264.921,198.611,264.071,195.434,264.171,193.382Z" transform="translate(-264.161 -190.813)" fill="#263238"/>
                    <path id="Trazado_123812" data-name="Trazado 123812" d="M265.7,191.116c3.354-.794,4.7,5.979,1.589,6.718C264.226,198.552,262.891,191.778,265.7,191.116Z" transform="translate(-264.162 -191.051)" fill="#263238"/>
                  </g>
                  <path id="Trazado_123813" data-name="Trazado 123813" d="M248.265,191.209a25.78,25.78,0,0,0,2.493-1.346,4.628,4.628,0,0,0,2.284-1.853,1.471,1.471,0,0,0-.507-1.71,3.614,3.614,0,0,0-3.663.2,5.358,5.358,0,0,0-2.67,2.747A1.555,1.555,0,0,0,248.265,191.209Z" transform="translate(-246.076 -183.666)" fill="#263238"/>
                  <path id="Trazado_123814" data-name="Trazado 123814" d="M268.026,188.007c-.971-.011-1.864-.177-2.824-.276a4.622,4.622,0,0,1-2.824-.827,1.48,1.48,0,0,1-.2-1.776,3.625,3.625,0,0,1,3.453-1.236,5.347,5.347,0,0,1,3.53,1.5A1.556,1.556,0,0,1,268.026,188.007Z" transform="translate(-244.436 -183.873)" fill="#263238"/>
                  <path id="Trazado_123815" data-name="Trazado 123815" d="M254.068,212.862c.585.419,1.191,1.015,1.975.96a5.492,5.492,0,0,0,2.184-.894.077.077,0,0,1,.11.1,2.881,2.881,0,0,1-2.5,1.567,2.279,2.279,0,0,1-1.953-1.611C253.837,212.873,253.991,212.8,254.068,212.862Z" transform="translate(-245.272 -180.884)" fill="#263238"/>
                  <g id="Grupo_87392" data-name="Grupo 87392" transform="translate(9.585 25.238)">
                    <path id="Trazado_123816" data-name="Trazado 123816" d="M262.03,208.294a8.657,8.657,0,0,1-3,3.188,3.817,3.817,0,0,1-2.306.507c-1.754-.177-2.041-1.721-1.942-3.089a9.164,9.164,0,0,1,.441-2.151A11.143,11.143,0,0,0,262.03,208.294Z" transform="translate(-254.764 -206.75)" fill="#fff"/>
                  </g>
                  <g id="Grupo_87394" data-name="Grupo 87394" transform="translate(9.967 0.947)">
                    <g id="Grupo_87393" data-name="Grupo 87393">
                      <path id="Trazado_123817" data-name="Trazado 123817" d="M255.176,209.088a7.322,7.322,0,0,0,5.306,2.449,9.478,9.478,0,0,0,2.6-.287,3.116,3.116,0,0,0,.485-.132c.154-.044.287-.088.452-.143a.542.542,0,0,0,.353-.541v-.011a.653.653,0,0,0-.055-.21V210.2l-.033-.188c-.21-1.633-.761-4.082-.761-4.082.64.2,3.883,1.092,3.707.254-1.522-6.972-3.221-14.717-6.211-21.336a.2.2,0,0,0-.375.11c1.2,6.752,3.585,13.249,4.9,20.023a12.446,12.446,0,0,0-3.552-.5c-.221.1,1.136,4.711,1.18,5.461a.149.149,0,0,1,0,.077c-2.681.783-4.865.276-7.811-1.136C255.165,208.768,255.022,208.934,255.176,209.088Z" transform="translate(-255.111 -184.731)" fill="#263238"/>
                    </g>
                  </g>
                </g>
                <g id="Grupo_87396" data-name="Grupo 87396">
                  <path id="Trazado_123818" data-name="Trazado 123818" d="M229.563,204.928c7.424-1.114,6.906-14.816,6.906-14.816s12.455-3.949,12.907-13.834c0,0,13.238,5.968,22.262,1.125s5.45-15.323,4.06-17.475-6.045,2.9-6.045,2.9-1.489-6.012-3.21-6.388-2.946,3.563-2.946,3.563-12.874-2.328-23.961-.386-14.959,13.966-14.959,13.966-5.77,2.129-7.094,6.586S224.819,205.634,229.563,204.928Z" transform="translate(-216.106 -156.416)" fill="#263238"/>
                  <path id="Trazado_123819" data-name="Trazado 123819" d="M231.979,189.068c10.061-.132,15.654-7.645,15.709-17.309a.094.094,0,0,1,.188-.011c1,8.848-5.792,19.868-15.919,17.772C231.7,189.465,231.714,189.068,231.979,189.068Z" transform="translate(-214.617 -154.843)" fill="#263238"/>
                  <path id="Trazado_123820" data-name="Trazado 123820" d="M224.913,171.781c.11-.044.188.121.088.188-2.57,1.688-5.6,3.111-7.171,5.9-1.9,3.387-.816,7.3.563,10.624,2.14,5.163,5.913,11.716,11.164,14.165.3.143.077.585-.232.463-6.233-2.548-10.9-11.087-12.609-17.276C214.808,178.918,218.614,174.252,224.913,171.781Z" transform="translate(-216.222 -154.831)" fill="#263238"/>
                  <path id="Trazado_123821" data-name="Trazado 123821" d="M256.59,177.148c4.733,1.986,11.2,1.158,15.026-2.449,4.656-4.391,2.681-10.2-.3-14.871-.143-.232.165-.541.375-.331,3.718,3.938,4.942,10.569,1.236,14.959-3.817,4.534-11.462,5.527-16.669,3.343C255.829,177.622,256.149,176.96,256.59,177.148Z" transform="translate(-212.111 -156.105)" fill="#263238"/>
                </g>
                <g id="Grupo_87397" data-name="Grupo 87397" transform="translate(6.054 33.169)">
                  <path id="Trazado_123822" data-name="Trazado 123822" d="M252.328,207.742A9.154,9.154,0,1,1,260.768,196h0a9.172,9.172,0,0,1-6.189,11.374A10.074,10.074,0,0,1,252.328,207.742Zm-.651-17.077a7.932,7.932,0,1,0,7.91,5.681A7.935,7.935,0,0,0,251.677,190.665Z" transform="translate(-219.53 -186.178)" fill="#455a64"/>
                  <path id="Trazado_123823" data-name="Trazado 123823" d="M270.95,204.693c-3.5.132-6.807-3.332-7.546-8.053a10.874,10.874,0,0,1,.927-6.619,5.712,5.712,0,0,1,9.653-1.511,10.832,10.832,0,0,1,2.89,6.023c.772,4.986-1.611,9.51-5.317,10.094A2.764,2.764,0,0,1,270.95,204.693Zm-1.567-16.978c-.154.011-.309.022-.463.044a4.867,4.867,0,0,0-3.5,2.824,9.722,9.722,0,0,0-.805,5.869c.673,4.325,3.7,7.447,6.752,6.972s4.975-4.38,4.3-8.693a9.652,9.652,0,0,0-2.559-5.35A5.111,5.111,0,0,0,269.383,187.715Z" transform="translate(-217.423 -186.483)" fill="#455a64"/>
                  <path id="Trazado_123824" data-name="Trazado 123824" d="M259.037,196.665l-.927-.805c1.191-1.368,4.126-3.409,6.7-1.39l-.75.96C261.762,193.62,259.147,196.543,259.037,196.665Z" transform="translate(-217.954 -185.746)" fill="#455a64"/>
                  <path id="Trazado_123825" data-name="Trazado 123825" d="M222.868,204.965l-1.158-.386c.188-.541,1.842-5.317,4.479-6.167,2.46-.794,18.909-1.809,19.6-1.842l.077,1.225c-4.711.287-17.4,1.169-19.295,1.787C224.821,200.144,223.31,203.664,222.868,204.965Z" transform="translate(-221.71 -185.442)" fill="#455a64"/>
                </g>
                <g id="Grupo_87398" data-name="Grupo 87398" transform="translate(4.656 42.305)">
                  <path id="Trazado_123826" data-name="Trazado 123826" d="M233.965,202.35s-7.447-9.818-11.937-7.116,1.4,17.122,6.851,18.909a5.481,5.481,0,0,0,7.215-3.221Z" transform="translate(-220.443 -194.763)" fill="#f7a9a0"/>
                  <path id="Trazado_123827" data-name="Trazado 123827" d="M223.517,198.9a.073.073,0,0,0-.022.143c3.828,1.379,5.946,4.8,7.48,8.362-1.18-1.346-2.736-2.052-4.545-.651-.1.077,0,.221.11.2a3.384,3.384,0,0,1,3.751,1.026,15.942,15.942,0,0,1,1.886,2.923c.188.331.794.121.651-.254-.011-.033-.022-.055-.033-.088C232.684,205.762,228.691,199.176,223.517,198.9Z" transform="translate(-220.133 -194.336)" fill="#263238"/>
                </g>
              </g>
              <g id="Grupo_87400" data-name="Grupo 87400" transform="translate(5.437 84.895)">
                <path id="Trazado_123828" data-name="Trazado 123828" d="M257.2,238.125l-7.369,18.081L227.5,233.37l-6.354,7.3s21.81,36.251,21.954,34.618l7.458-15.511,10.69,10.822-.816-27.117Z" transform="translate(-221.15 -233.37)" fill="#455a64"/>
                <path id="Trazado_123829" data-name="Trazado 123829" d="M261.521,256.335c-.287-4.468-.441-8.98-.938-13.437-.022-.154-.265-.232-.309-.044-.9,4.314.276,21.413.243,25.517l-.044-.044c-.441-.463-9.907-9.521-10.006-9.377-1.611,2.46-7.083,13.757-7.458,14.783-3.453-5.759-16.669-26.7-20.762-32.136-.121-.154-.364-.033-.265.154,3.045,6.079,20.541,34.265,20.817,34.188a174.49,174.49,0,0,0,7.8-16.393c1.6,1.975,11.153,12.19,11.186,11.528A142.746,142.746,0,0,0,261.521,256.335Z" transform="translate(-221.067 -232.528)" fill="#263238"/>
              </g>
            </g>
            <g id="Grupo_87405" data-name="Grupo 87405" transform="translate(34.973 190.725)">
              <g id="Grupo_87404" data-name="Grupo 87404" transform="translate(16.184)">
                <g id="Grupo_87402" data-name="Grupo 87402">
                  <path id="Trazado_123830" data-name="Trazado 123830" d="M306.113,416.653l-110.22,10.911-.353-85.442L305.76,331.2Z" transform="translate(-195.441 -329.104)" fill="#ffc727"/>
                  <path id="Trazado_123831" data-name="Trazado 123831" d="M231.524,329.3l-36.074,3.574.1,9.443,38.6-3.828Z" transform="translate(-195.45 -329.3)" fill="#ffc727"/>
                </g>
                <g id="Grupo_87403" data-name="Grupo 87403" opacity="0.1">
                  <path id="Trazado_123832" data-name="Trazado 123832" d="M306.113,416.653l-110.22,10.911-.353-85.442L305.76,331.2Z" transform="translate(-195.441 -329.104)"/>
                  <path id="Trazado_123833" data-name="Trazado 123833" d="M231.524,329.3l-36.074,3.574.1,9.443,38.6-3.828Z" transform="translate(-195.45 -329.3)"/>
                </g>
              </g>
              <path id="Trazado_123834" data-name="Trazado 123834" d="M307.066,416.59l-106.3,10.524-15.2-85.685,113.309-9.51Z" transform="translate(-180.287 -329.03)" fill="#ebebeb"/>
              <path id="Trazado_123835" data-name="Trazado 123835" d="M307.421,416.425,198.414,427.214,182.12,344.861,296.709,333.52Z" transform="translate(-180.642 -328.864)" fill="#fff"/>
              <path id="Trazado_123836" data-name="Trazado 123836" d="M307.36,416.227,196.9,427.16,180.78,346.583,291.243,335.65Z" transform="translate(-180.78 -328.645)" fill="#ffc727"/>
            </g>
            <g id="Grupo_87409" data-name="Grupo 87409" transform="translate(0 93.939)">
              <path id="Trazado_123837" data-name="Trazado 123837" d="M216.111,250.892c-37.674,34.177-64.857,93.11-64.029,108.984,1.1,20.972,39.1,56.837,63.842,67.218,6.266,2.626,30.47-48.607,21.314-51.265-9.664-2.813-32.015-23.079-33.1-23.994-2.328-1.964,15.687-46.786,23.222-73.991C235.858,247.108,231.964,236.507,216.111,250.892Z" transform="translate(-148.77 -241.259)" fill="#f7a9a0"/>
              <g id="Grupo_87406" data-name="Grupo 87406" transform="translate(53.165 132.716)">
                <path id="Trazado_123838" data-name="Trazado 123838" d="M197.27,407.156c23.961,17.3,56.539,21.049,62.165,20.486,4.788-.474,7.259-.761,7.259-.761,8.616-.673,11.7-4.766,11.7-4.766s10.194,2.151,12.51-3.795c2.626-6.652-12.2-8.373-19.769-14.3-17.353-13.58-38.226-37.729-42.837-42.153Z" transform="translate(-197.27 -361.87)" fill="#f7a9a0"/>
                <path id="Trazado_123839" data-name="Trazado 123839" d="M238.711,398.764c5.185,3.894,10.182,7.855,15.864,11.032,6.244,3.475,12.83,5.781,19.471,8.3a.173.173,0,0,1-.1.331,75.024,75.024,0,0,1-35.6-19.218C238.126,398.985,238.446,398.577,238.711,398.764Z" transform="translate(-193.039 -358.068)" fill="#263238"/>
                <path id="Trazado_123840" data-name="Trazado 123840" d="M229.9,407.185c5.262,3.508,14.54,9.62,33.526,14.816.066.022.055.132-.022.121a67.325,67.325,0,0,1-33.835-14.4C229.253,407.483,229.551,406.954,229.9,407.185Z" transform="translate(-193.951 -357.2)" fill="#263238"/>
                <path id="Trazado_123841" data-name="Trazado 123841" d="M248.348,386.339c-1.556-2.659-.177-3.5,4.931-1.489,5.174,2.019,23.608,14.286,27.348,7.469,3.762-6.84-22.615-23.774-31.375-26.466-8.759-2.714-23.873-3.982-23.873-3.982C229.859,366.206,239.688,377.734,248.348,386.339Z" transform="translate(-194.369 -361.87)" fill="#f7a9a0"/>
              </g>
              <g id="Grupo_87408" data-name="Grupo 87408">
                <path id="Trazado_123842" data-name="Trazado 123842" d="M203.1,423.421l30.018-50.383s-28.087-19.692-28.22-21.667,19.736-56.263,25.749-82.971,3.034-39.461-23.266-9.675-60.025,79.9-58.238,101.383S203.1,423.421,203.1,423.421Z" transform="translate(-149.078 -241.568)" fill="#455a64"/>
                <path id="Trazado_123843" data-name="Trazado 123843" d="M220.425,289.92c-1.092,1.909-2.262,3.784-3.243,5.748l-.96,1.92c.243-.772.5-1.544.739-2.317,1.544-4.843,3.034-9.708,4.336-14.617a.113.113,0,0,0-.21-.077c-3.475,8.34-6.332,16.934-9.179,25.506q-4.3,12.94-8.131,26.046c-1.434,4.876-2.912,9.763-4.038,14.717a.086.086,0,0,0,.165.044c1.655-4.247,3.056-8.6,4.49-12.918s2.879-8.638,4.291-12.962q3.359-10.359,6.663-20.729a23.193,23.193,0,0,0,2.4-4.159c1.015-2.008,1.842-4.093,2.747-6.156A.045.045,0,1,0,220.425,289.92Z" transform="translate(-143.85 -237.549)" fill="#263238"/>
                <g id="Grupo_87407" data-name="Grupo 87407" transform="translate(38.068 157.598)">
                  <path id="Trazado_123844" data-name="Trazado 123844" d="M193.233,395.118a2.756,2.756,0,1,0,3.475-1.765A2.757,2.757,0,0,0,193.233,395.118Z" transform="translate(-182.604 -383.517)" fill="#263238"/>
                  <path id="Trazado_123845" data-name="Trazado 123845" d="M183.723,386.328a2.756,2.756,0,1,0,3.475-1.765A2.757,2.757,0,0,0,183.723,386.328Z" transform="translate(-183.585 -384.425)" fill="#263238"/>
                </g>
                <path id="Trazado_123846" data-name="Trazado 123846" d="M166.61,377.14c3.475,2.968,6.741,6.134,9.973,9.333,1.6,1.611,3.21,3.221,4.788,4.865s3.133,3.3,4.689,4.975a96.4,96.4,0,0,1-10.249-9.057A126.788,126.788,0,0,1,166.61,377.14Z" transform="translate(-147.269 -227.578)" fill="#263238"/>
              </g>
            </g>
          </g>
        </g>
        <g id="Grupo_87445" data-name="Grupo 87445" transform="translate(208.609)">
          <g id="Grupo_87444" data-name="Grupo 87444">
            <g id="Grupo_87412" data-name="Grupo 87412" transform="translate(193.615)">
              <path id="Trazado_123847" data-name="Trazado 123847" d="M514.95,172.868c2.361-7.59,12.687-24.292,29.356-19.251,23.785,7.193,22.88,54.266,33.57,69.965,19.372,28.462,17.618,54.652-.706,57.134-20.53,2.78-38.038-20.63-32.886-67.207,3.221-29.124-3.784-42.826-9.686-42.506s-9.774,7.369-9.774,7.369Z" transform="translate(-513.547 -150.308)" fill="#263238"/>
              <path id="Trazado_123848" data-name="Trazado 123848" d="M515.93,170.255a46.947,46.947,0,0,1,5.825-9.807,27.918,27.918,0,0,1,8.726-7.579A19.006,19.006,0,0,1,542,150.684a24.513,24.513,0,0,1,10.966,4.192,27.52,27.52,0,0,1,7.766,8.748,51.042,51.042,0,0,1,4.479,10.646,102.371,102.371,0,0,1,3.53,22.527,151.684,151.684,0,0,0-5.119-22.02A54.545,54.545,0,0,0,559,164.662a25.954,25.954,0,0,0-7.27-8.042,22.759,22.759,0,0,0-10.006-3.927,17.757,17.757,0,0,0-10.491,1.666,28.574,28.574,0,0,0-8.682,6.774,48.23,48.23,0,0,0-3.541,4.369Q517.4,167.817,515.93,170.255Z" transform="translate(-513.446 -150.53)" fill="#263238"/>
              <path id="Trazado_123849" data-name="Trazado 123849" d="M543.318,193.24c-.187,4.656-.894,9.267-1.412,13.878-.6,4.6-1.169,9.2-1.6,13.812-.408,4.6-.739,9.212-.706,13.812a70.389,70.389,0,0,0,1.2,13.647,35.635,35.635,0,0,0,4.766,12.576,39.381,39.381,0,0,0,9.322,9.763,29.088,29.088,0,0,0,12.4,5.306,25.8,25.8,0,0,0,6.84.276,23.854,23.854,0,0,0,3.409-.552,11.818,11.818,0,0,0,3.254-1.158,17.1,17.1,0,0,1-6.586,2.273,27.4,27.4,0,0,1-7.049.2,28.81,28.81,0,0,1-6.906-1.666,31.56,31.56,0,0,1-6.31-3.31,36.694,36.694,0,0,1-5.483-4.545l-1.236-1.28-1.169-1.335a26.543,26.543,0,0,1-2.184-2.868,37.405,37.405,0,0,1-5.163-13.271c-1.765-9.344-1.224-18.82-.055-28.054.585-4.633,1.39-9.212,2.228-13.79C541.751,202.385,542.656,197.84,543.318,193.24Z" transform="translate(-511.213 -146.123)" fill="#263238"/>
              <path id="Trazado_123850" data-name="Trazado 123850" d="M513.68,171.485c-.066-2.184,1.511-4.986,2.924-5.373s11.87,4.1,12.775,6.785-3.751,5.053-3.751,5.053Z" transform="translate(-513.678 -148.925)" fill="#455a64"/>
            </g>
            <g id="Grupo_87419" data-name="Grupo 87419" transform="translate(0 85.364)">
              <path id="Trazado_123851" data-name="Trazado 123851" d="M536.515,259.945c-6.211,13.525-52.468,77.113-75.425,78.845-24.028,1.82-81.669-37.453-87.185-40.719-15.147-8.969,27.083-50.306,34.387-42.969,12.2,12.268,41.381,35.4,48.518,33.835,14.992-3.287,46.235-29.521,68.387-43.168C538.556,237.528,543.388,244.975,536.515,259.945Z" transform="translate(-334.823 -226.419)" fill="#ad6359"/>
              <g id="Grupo_87416" data-name="Grupo 87416">
                <g id="Grupo_87414" data-name="Grupo 87414">
                  <path id="Trazado_123852" data-name="Trazado 123852" d="M380.874,301.659c-2.615-1.732-23.63-13.415-31.518-24.678-4.181-5.968-13.812-23.652-10.5-26.653,3.023-2.736,6.851,1.467,6.851,1.467s-4.181-7.954.066-11.7,10.348,3.663,10.348,3.663-3.7-8.473.805-11.914,9.388,5.053,9.388,5.053-3.74-7.59,1.158-8.87c5.891-1.533,11.208,13.249,16.923,18.931,1.3,1.291,28.176,24.281,28.176,24.281Z" transform="translate(-338.174 -227.91)" fill="#ad6359"/>
                  <g id="Grupo_87413" data-name="Grupo 87413" transform="translate(7.574 8.657)">
                    <path id="Trazado_123853" data-name="Trazado 123853" d="M364.032,236.091c3.938,10.855,7.535,14.926,16.515,21.9.177.132.011.43-.188.3-9.421-6.023-14.672-10.48-16.868-22.042C363.392,235.683,363.844,235.573,364.032,236.091Z" transform="translate(-343.137 -235.757)" fill="#263238"/>
                    <path id="Trazado_123854" data-name="Trazado 123854" d="M354.8,242.263c5.075,10.922,8.936,15.367,17.806,23.366.121.11-.055.342-.188.232-9.355-7.116-14.5-11.672-18.125-23.255C354.117,242.087,354.57,241.767,354.8,242.263Z" transform="translate(-344.089 -235.111)" fill="#263238"/>
                    <path id="Trazado_123855" data-name="Trazado 123855" d="M345.448,249.948c5.67,10.216,9.7,15.279,19.306,21.931a.213.213,0,0,1-.221.364c-10.458-5.836-15.533-12.113-19.372-22.1C344.9,249.474,345.1,249.3,345.448,249.948Z" transform="translate(-345.039 -234.335)" fill="#263238"/>
                  </g>
                </g>
                <g id="Grupo_87415" data-name="Grupo 87415" transform="translate(43.786 5.955)">
                  <path id="Trazado_123856" data-name="Trazado 123856" d="M417.574,267.377s-5.968-13.183-9.862-18.4-25.572-19.295-28.882-14.794c-4.269,5.825,6.641,16.416,12.665,20.906,0,0-9.9,13.459-3.707,22.759S417.574,267.377,417.574,267.377Z" transform="translate(-377.864 -233.307)" fill="#ad6359"/>
                  <path id="Trazado_123857" data-name="Trazado 123857" d="M378.177,235.9c-.066,8.12,8.219,13.5,13.735,18.3a.664.664,0,0,1-.066,1.092c-3.773,5.913-7.369,15.367-4.512,22.2a.168.168,0,0,1-.3.154c-4.06-6.917-1.28-16.482,3.265-22.7-5.737-4.832-13.812-10.591-12.2-19.052C378.111,235.859,378.177,235.859,378.177,235.9Z" transform="translate(-377.862 -233.043)" fill="#263238"/>
                </g>
              </g>
              <g id="Grupo_87418" data-name="Grupo 87418" transform="translate(59.006 14.927)">
                <path id="Trazado_123858" data-name="Trazado 123858" d="M533.718,263.879c-7.2,14.353-49.18,75.58-71.862,76.551s-70.2-18.39-70.2-18.39l35.2-53.6s24.37,17.585,28.187,17.728S510.044,252.494,522,245.069,545.423,240.535,533.718,263.879Z" transform="translate(-391.66 -241.44)" fill="#00dcff"/>
                <g id="Grupo_87417" data-name="Grupo 87417" transform="translate(18.037 28.044)">
                  <path id="Trazado_123859" data-name="Trazado 123859" d="M420.8,315.772a21.748,21.748,0,0,1,1.335-9.642,21.75,21.75,0,0,1-1.335,9.642Z" transform="translate(-406.701 -262.809)" fill="#fff"/>
                  <path id="Trazado_123860" data-name="Trazado 123860" d="M484.31,306.042a21.749,21.749,0,0,1,1.335-9.642,19.623,19.623,0,0,1-.121,4.9A19.237,19.237,0,0,1,484.31,306.042Z" transform="translate(-400.147 -263.813)" fill="#fff"/>
                  <path id="Trazado_123861" data-name="Trazado 123861" d="M488.722,268.305a21.752,21.752,0,0,1-9.642-1.335,19.114,19.114,0,0,1,4.9.121A18.642,18.642,0,0,1,488.722,268.305Z" transform="translate(-400.676 -266.861)" fill="#fff"/>
                  <path id="Trazado_123862" data-name="Trazado 123862" d="M437.532,285.075a21.75,21.75,0,0,1-9.642-1.335,19.62,19.62,0,0,1,4.9.121A18.528,18.528,0,0,1,437.532,285.075Z" transform="translate(-405.959 -265.13)" fill="#fff"/>
                  <path id="Trazado_123863" data-name="Trazado 123863" d="M444.146,330.08a2.341,2.341,0,0,1-.21.254c-.088-.011-.188-.022-.287-.044C443.816,330.223,443.981,330.146,444.146,330.08Z" transform="translate(-404.332 -260.337)" fill="#fff"/>
                  <path id="Trazado_123864" data-name="Trazado 123864" d="M408.01,297.969a21.752,21.752,0,0,1,7.766-5.869,21.752,21.752,0,0,1-7.766,5.869Z" transform="translate(-408.01 -264.257)" fill="#fff"/>
                  <path id="Trazado_123865" data-name="Trazado 123865" d="M461.23,286.929A21.75,21.75,0,0,1,469,281.06a19.037,19.037,0,0,1-3.552,3.376A19.382,19.382,0,0,1,461.23,286.929Z" transform="translate(-402.518 -265.396)" fill="#fff"/>
                  <path id="Trazado_123866" data-name="Trazado 123866" d="M443.57,301.62a19.744,19.744,0,0,1,3.376,3.552,19.383,19.383,0,0,1,2.493,4.214,19.033,19.033,0,0,1-3.376-3.552A19.647,19.647,0,0,1,443.57,301.62Z" transform="translate(-404.34 -263.274)" fill="#fff"/>
                  <path id="Trazado_123867" data-name="Trazado 123867" d="M494.11,278.83a19.739,19.739,0,0,1,3.376,3.552,19.379,19.379,0,0,1,2.493,4.214,21.749,21.749,0,0,1-5.869-7.767Z" transform="translate(-399.125 -265.626)" fill="#fff"/>
                </g>
                <path id="Trazado_123868" data-name="Trazado 123868" d="M433.169,273.845c-4.435,8.009-8.7,16.107-13.492,23.928a256.669,256.669,0,0,1-15.092,22.615c-.1.132-.342-.011-.254-.165,4.236-8,9.079-15.721,13.79-23.443,4.744-7.789,9.807-15.379,14.551-23.167C432.849,273.315,433.335,273.536,433.169,273.845Z" transform="translate(-390.354 -238.135)" fill="#263238"/>
                <path id="Trazado_123869" data-name="Trazado 123869" d="M529.012,263.879c-7.2,14.353-49.191,75.58-71.873,76.551-5.505.232-12.477-.728-19.869-2.328,17.629-18.854,66.931-72.028,89.756-96.64C533.954,241.043,537.319,247.309,529.012,263.879Z" transform="translate(-386.953 -241.44)" fill="#263238"/>
              </g>
            </g>
            <g id="Grupo_87421" data-name="Grupo 87421" transform="translate(148.885 102.777)">
              <path id="Trazado_123870" data-name="Trazado 123870" d="M483.467,405.782H616.6S564.838,274.734,537.27,248.367c-7.491-7.171-26-6.641-35.071,5.45-7.435,9.907-28.076,49.368-29.014,63.555-.9,14.22,10.193,28.2,10.193,28.2Z" transform="translate(-473.133 -243.693)" fill="#00dcff"/>
              <g id="Grupo_87420" data-name="Grupo 87420" transform="translate(4.851 14.967)">
                <path id="Trazado_123871" data-name="Trazado 123871" d="M497.93,347.012a21.75,21.75,0,0,1,1.335-9.642,21.75,21.75,0,0,1-1.335,9.642Z" transform="translate(-475.436 -248.993)" fill="#fff"/>
                <path id="Trazado_123872" data-name="Trazado 123872" d="M580.85,369.372a21.749,21.749,0,0,1,1.335-9.642,21.754,21.754,0,0,1-1.335,9.642Z" transform="translate(-466.879 -246.686)" fill="#fff"/>
                <path id="Trazado_123873" data-name="Trazado 123873" d="M528.79,388.912a21.753,21.753,0,0,1,1.335-9.642,21.753,21.753,0,0,1-1.335,9.642Z" transform="translate(-472.251 -244.669)" fill="#fff"/>
                <path id="Trazado_123874" data-name="Trazado 123874" d="M516.79,299.242a21.748,21.748,0,0,1,1.335-9.642,19.62,19.62,0,0,1-.121,4.9A18.535,18.535,0,0,1,516.79,299.242Z" transform="translate(-473.49 -253.923)" fill="#fff"/>
                <path id="Trazado_123875" data-name="Trazado 123875" d="M548.86,335.352a21.749,21.749,0,0,1,1.335-9.642,19.109,19.109,0,0,1-.121,4.9A18.76,18.76,0,0,1,548.86,335.352Z" transform="translate(-470.18 -250.196)" fill="#fff"/>
                <path id="Trazado_123876" data-name="Trazado 123876" d="M484.31,306.042a21.749,21.749,0,0,1,1.335-9.642,19.623,19.623,0,0,1-.121,4.9A19.237,19.237,0,0,1,484.31,306.042Z" transform="translate(-476.841 -253.221)" fill="#fff"/>
                <path id="Trazado_123877" data-name="Trazado 123877" d="M527.642,340.775A21.75,21.75,0,0,1,518,339.44a19.108,19.108,0,0,1,4.9.121A19.613,19.613,0,0,1,527.642,340.775Z" transform="translate(-473.354 -248.791)" fill="#fff"/>
                <path id="Trazado_123878" data-name="Trazado 123878" d="M564.042,306.265a21.751,21.751,0,0,1-9.642-1.335,19.62,19.62,0,0,1,4.9.121A19.237,19.237,0,0,1,564.042,306.265Z" transform="translate(-469.597 -252.352)" fill="#fff"/>
                <path id="Trazado_123879" data-name="Trazado 123879" d="M499.092,381.365a21.75,21.75,0,0,1-9.642-1.335,19.623,19.623,0,0,1,4.9.121A18.528,18.528,0,0,1,499.092,381.365Z" transform="translate(-476.3 -244.602)" fill="#fff"/>
                <path id="Trazado_123880" data-name="Trazado 123880" d="M566.8,351.465a21.751,21.751,0,0,1-9.642-1.335,19.113,19.113,0,0,1,4.9.121A19.614,19.614,0,0,1,566.8,351.465Z" transform="translate(-469.313 -247.688)" fill="#fff"/>
                <path id="Trazado_123881" data-name="Trazado 123881" d="M508.77,368.279a21.75,21.75,0,0,1,7.766-5.869,21.751,21.751,0,0,1-7.766,5.869Z" transform="translate(-474.306 -246.409)" fill="#fff"/>
                <path id="Trazado_123882" data-name="Trazado 123882" d="M554.4,377a21.749,21.749,0,0,1,7.767-5.869,19.033,19.033,0,0,1-3.552,3.376A19.382,19.382,0,0,1,554.4,377Z" transform="translate(-469.597 -245.509)" fill="#fff"/>
                <path id="Trazado_123883" data-name="Trazado 123883" d="M566.48,334.309a21.752,21.752,0,0,1,7.766-5.869,21.749,21.749,0,0,1-7.766,5.869Z" transform="translate(-468.351 -249.915)" fill="#fff"/>
                <path id="Trazado_123884" data-name="Trazado 123884" d="M494.43,318.969A21.75,21.75,0,0,1,502.2,313.1a19.036,19.036,0,0,1-3.552,3.376A19.38,19.38,0,0,1,494.43,318.969Z" transform="translate(-475.786 -251.498)" fill="#fff"/>
                <path id="Trazado_123885" data-name="Trazado 123885" d="M541.09,289.589a21.753,21.753,0,0,1,7.767-5.869A19.036,19.036,0,0,1,545.3,287.1,19.38,19.38,0,0,1,541.09,289.589Z" transform="translate(-470.971 -254.529)" fill="#fff"/>
                <path id="Trazado_123886" data-name="Trazado 123886" d="M485.937,353.56a19.2,19.2,0,0,1-3.5,3.332v-1.346A17.271,17.271,0,0,1,485.937,353.56Z" transform="translate(-477.023 -247.322)" fill="#fff"/>
                <path id="Trazado_123887" data-name="Trazado 123887" d="M517.32,270.769a19.743,19.743,0,0,1,3.552-3.376,19.381,19.381,0,0,1,4.214-2.493,21.75,21.75,0,0,1-7.767,5.869Z" transform="translate(-473.424 -256.472)" fill="#fff"/>
                <path id="Trazado_123888" data-name="Trazado 123888" d="M477.53,324.51a21.751,21.751,0,0,1,5.869,7.766,21.751,21.751,0,0,1-5.869-7.766Z" transform="translate(-477.53 -250.32)" fill="#fff"/>
                <path id="Trazado_123889" data-name="Trazado 123889" d="M494.11,278.83a19.739,19.739,0,0,1,3.376,3.552,19.379,19.379,0,0,1,2.493,4.214,21.749,21.749,0,0,1-5.869-7.767Z" transform="translate(-475.819 -255.034)" fill="#fff"/>
                <path id="Trazado_123890" data-name="Trazado 123890" d="M535.96,352.7a19.734,19.734,0,0,1,3.376,3.552,19.38,19.38,0,0,1,2.493,4.214,21.751,21.751,0,0,1-5.869-7.767Z" transform="translate(-471.5 -247.411)" fill="#fff"/>
                <path id="Trazado_123891" data-name="Trazado 123891" d="M579.4,381.71a19.734,19.734,0,0,1,3.376,3.552,19.375,19.375,0,0,1,2.493,4.214,19.039,19.039,0,0,1-3.376-3.552A19.376,19.376,0,0,1,579.4,381.71Z" transform="translate(-467.018 -244.418)" fill="#fff"/>
                <path id="Trazado_123892" data-name="Trazado 123892" d="M535.15,257.26a21.751,21.751,0,0,1,5.869,7.767,21.75,21.75,0,0,1-5.869-7.767Z" transform="translate(-471.584 -257.26)" fill="#fff"/>
                <path id="Trazado_123893" data-name="Trazado 123893" d="M527.36,313.56a21.751,21.751,0,0,1,5.869,7.767,19.034,19.034,0,0,1-3.376-3.552A19.381,19.381,0,0,1,527.36,313.56Z" transform="translate(-472.388 -251.45)" fill="#fff"/>
              </g>
            </g>
            <g id="Grupo_87434" data-name="Grupo 87434" transform="translate(157.757 21.141)">
              <g id="Grupo_87422" data-name="Grupo 87422" transform="translate(22.567 52.364)">
                <path id="Trazado_123894" data-name="Trazado 123894" d="M525.47,252.374c-.739,1.964-12.124,13.867-21.325,12.234-3-.541-.794-17.033-.794-17.033l-.121-1.258-1.6-17.574,21.722-10.26,3.122-1.324s.121,4.832.21,10.855c.011.276.011.563.011.86.011.342.033.662.033.982.022.9.044,1.82.044,2.736,0,.7.011,1.379-.011,2.107,0,.739-.022,1.445-.022,2.184C526.573,244.122,525.779,251.547,525.47,252.374Z" transform="translate(-501.63 -217.16)" fill="#ad6359"/>
                <path id="Trazado_123895" data-name="Trazado 123895" d="M526.694,228.015a35.364,35.364,0,0,1-23.454,18.3l-1.6-17.574,21.722-10.26,3.122-1.324S526.605,221.992,526.694,228.015Z" transform="translate(-501.629 -217.16)" fill="#263238"/>
              </g>
              <g id="Grupo_87433" data-name="Grupo 87433">
                <path id="Trazado_123896" data-name="Trazado 123896" d="M481.4,207.6c-2.46,30.867,15.754,35.821,22.406,36.339,6.045.474,26.675,1.324,32.313-29.124s-7.943-41.348-21.7-43.157S483.861,176.73,481.4,207.6Z" transform="translate(-481.174 -169.519)" fill="#ad6359"/>
                <g id="Grupo_87429" data-name="Grupo 87429" transform="translate(2.504 28.168)">
                  <path id="Trazado_123897" data-name="Trazado 123897" d="M486.223,198.573c.728-.077,1.39-.276,2.1-.419a3.382,3.382,0,0,0,2.052-.838,1.109,1.109,0,0,0,.011-1.346,2.734,2.734,0,0,0-2.692-.662,3.951,3.951,0,0,0-2.526,1.39A1.178,1.178,0,0,0,486.223,198.573Z" transform="translate(-483.292 -195.227)" fill="#263238"/>
                  <path id="Trazado_123898" data-name="Trazado 123898" d="M505.127,198.977a18.981,18.981,0,0,1-2.085-.463,3.524,3.524,0,0,1-2.041-.872,1.109,1.109,0,0,1,.011-1.346,2.756,2.756,0,0,1,2.7-.618,3.992,3.992,0,0,1,2.5,1.445A1.175,1.175,0,0,1,505.127,198.977Z" transform="translate(-481.655 -195.19)" fill="#263238"/>
                  <g id="Grupo_87424" data-name="Grupo 87424" transform="translate(18.444 9.433)">
                    <g id="Grupo_87423" data-name="Grupo 87423">
                      <path id="Trazado_123899" data-name="Trazado 123899" d="M500.358,205.722c.022-.077.165.11.154.188-.132,2.107.066,4.534,1.942,5.3.055.022.044.132-.022.121C500.127,210.918,499.9,207.685,500.358,205.722Z" transform="translate(-500.162 -203.579)" fill="#263238"/>
                      <path id="Trazado_123900" data-name="Trazado 123900" d="M502.3,203.78c3.4-.143,3.442,6.663.287,6.8C499.5,210.708,499.459,203.9,502.3,203.78Z" transform="translate(-500.156 -203.778)" fill="#263238"/>
                    </g>
                    <path id="Trazado_123901" data-name="Trazado 123901" d="M503.357,204.121c.6.386,1.18,1.059,1.9,1.125.827.077,1.456-.64,1.986-1.324.055-.066.11-.011.121.077.033,1.3-.463,2.648-1.864,2.846-1.269.188-2.2-.96-2.526-2.273C502.916,204.32,503.125,203.967,503.357,204.121Z" transform="translate(-499.873 -203.766)" fill="#263238"/>
                  </g>
                  <g id="Grupo_87426" data-name="Grupo 87426" transform="translate(0 8.891)">
                    <g id="Grupo_87425" data-name="Grupo 87425" transform="translate(2.359 0.032)">
                      <path id="Trazado_123902" data-name="Trazado 123902" d="M489.939,205.292c-.022-.077-.165.1-.154.188.1,2.107-.143,4.534-2.041,5.262-.055.022-.055.132.022.121C490.082,210.51,490.369,207.278,489.939,205.292Z" transform="translate(-485.363 -203.114)" fill="#263238"/>
                      <path id="Trazado_123903" data-name="Trazado 123903" d="M488.25,203.32c-3.4-.21-3.563,6.6-.419,6.785C490.919,210.3,491.1,203.5,488.25,203.32Z" transform="translate(-485.582 -203.316)" fill="#263238"/>
                    </g>
                    <path id="Trazado_123904" data-name="Trazado 123904" d="M487.036,203.743c-.552.342-1.092.993-1.743,1.015-.75.033-1.28-.717-1.732-1.434-.044-.077-.1-.022-.11.066-.066,1.3.331,2.67,1.567,2.946,1.136.254,2-.838,2.339-2.129C487.433,203.974,487.257,203.6,487.036,203.743Z" transform="translate(-483.444 -203.287)" fill="#263238"/>
                  </g>
                  <path id="Trazado_123905" data-name="Trazado 123905" d="M500.864,220.844c-.474.518-.949,1.225-1.71,1.324a5.672,5.672,0,0,1-2.295-.408c-.066-.022-.132.055-.088.11a2.834,2.834,0,0,0,2.736,1,2.222,2.222,0,0,0,1.556-1.953C501.1,220.8,500.93,220.767,500.864,220.844Z" transform="translate(-482.07 -192.588)" fill="#263238"/>
                  <g id="Grupo_87427" data-name="Grupo 87427" transform="translate(6.49 0.046)">
                    <path id="Trazado_123906" data-name="Trazado 123906" d="M492.861,215.8s-.452,3.144-.463,4.633c0,.143.364.21.86.243.022.011.033.022.055,0a7.056,7.056,0,0,0,6.873-2.6c.1-.143-.088-.3-.221-.21a10.618,10.618,0,0,1-6.454,1.809c-.1-.408.96-5.362.717-5.384a12.745,12.745,0,0,0-3.376.75c.75-6.586,2.548-12.985,3.21-19.549.022-.232-.32-.309-.386-.1-2.361,6.586-3.4,14.132-4.347,20.917C489.2,217.157,492.265,216.054,492.861,215.8Z" transform="translate(-489.326 -195.269)" fill="#263238"/>
                  </g>
                  <g id="Grupo_87428" data-name="Grupo 87428" transform="translate(10.741 22.641)">
                    <path id="Trazado_123907" data-name="Trazado 123907" d="M493.18,218.254a8.651,8.651,0,0,0,3.431,2.725,3.886,3.886,0,0,0,2.361.177c1.71-.43,1.776-2,1.478-3.343a9.543,9.543,0,0,0-.739-2.063A11.209,11.209,0,0,1,493.18,218.254Z" transform="translate(-493.18 -215.75)" fill="#263238"/>
                    <path id="Trazado_123908" data-name="Trazado 123908" d="M496.29,220.786a3.885,3.885,0,0,0,2.361.177c1.71-.43,1.776-2,1.478-3.343C498.287,217.785,496.467,219.01,496.29,220.786Z" transform="translate(-492.859 -215.557)" fill="#eb9481"/>
                  </g>
                </g>
                <g id="Grupo_87430" data-name="Grupo 87430" transform="translate(1.484)">
                  <path id="Trazado_123909" data-name="Trazado 123909" d="M534.613,218.065a12.69,12.69,0,0,1-7.06-10.37A32.971,32.971,0,0,1,514.1,196.762c.21.64,1.677,5.229,2.493,7.546-19.527-3.74-25.506-18.721-25.506-18.721-6.365,6.3-7.645,10.337-8.572,12.345,0,0-.088-11.992,6.112-19.99,7.59-9.8,33.074-12.334,44.8.541C546.064,192.371,534.613,218.065,534.613,218.065Z" transform="translate(-482.52 -169.694)" fill="#263238"/>
                  <path id="Trazado_123910" data-name="Trazado 123910" d="M501.021,199.816a36.05,36.05,0,0,0,10.006,3.729c.033.011.033-.033.011-.044a30.722,30.722,0,0,1-14.308-8.737,29.165,29.165,0,0,1-4.192-5.913,20.131,20.131,0,0,1-2.559-7.458.149.149,0,0,0-.3.022,23.6,23.6,0,0,0,1.511,7.711,21.37,21.37,0,0,0,4.313,6.487,25.08,25.08,0,0,0,5.516,4.2" transform="translate(-481.781 -168.501)" fill="#263238"/>
                </g>
                <g id="Grupo_87432" data-name="Grupo 87432" transform="translate(48.194 39.569)">
                  <g id="Grupo_87431" data-name="Grupo 87431">
                    <path id="Trazado_123911" data-name="Trazado 123911" d="M526.526,213.271s6.685-9.708,11.087-7.336-.574,16.427-5.715,18.379a5.243,5.243,0,0,1-7.038-2.769Z" transform="translate(-524.86 -205.562)" fill="#ad6359"/>
                    <path id="Trazado_123912" data-name="Trazado 123912" d="M535.815,209.52a.069.069,0,0,1,.033.132c-3.6,1.489-5.472,4.854-6.785,8.329,1.059-1.346,2.515-2.085,4.325-.816.1.066,0,.21-.1.2a3.225,3.225,0,0,0-3.541,1.147,14.987,14.987,0,0,0-1.677,2.879c-.166.32-.75.154-.629-.221a.769.769,0,0,0,.033-.088C527.353,216.481,530.883,210.017,535.815,209.52Z" transform="translate(-524.595 -205.153)" fill="#263238"/>
                  </g>
                  <path id="Trazado_123913" data-name="Trazado 123913" d="M527.34,222.132a2.262,2.262,0,1,0,2.262-2.262A2.265,2.265,0,0,0,527.34,222.132Z" transform="translate(-524.604 -204.085)" fill="#fff"/>
                </g>
              </g>
            </g>
            <path id="Trazado_123914" data-name="Trazado 123914" d="M494.253,256.067s-6.321,17.938,5.1,19.207,41.237-20.784,41.237-20.784-8.285-13.4-21.5-11.97C508.131,243.711,494.253,256.067,494.253,256.067Z" transform="translate(-322.248 -141.049)" fill="#ad6359"/>
            <g id="Grupo_87441" data-name="Grupo 87441" transform="translate(6.031 118.527)">
              <g id="Grupo_87438" data-name="Grupo 87438" transform="translate(0 1.526)">
                <path id="Trazado_123915" data-name="Trazado 123915" d="M555.579,275.324c-.022,22.152-12.731,88.575-24.954,97.522-24.458,17.9-81.813,16.669-97.633,16.945-6.829.121-15.8-45.341-10.712-50.581s74.962-7.16,78.547-9.852c2.482-1.864,22.207-34.2,33.625-54.983C549.886,246.277,555.59,264.16,555.579,275.324Z" transform="translate(-335.68 -259.353)" fill="#ad6359"/>
                <g id="Grupo_87437" data-name="Grupo 87437" transform="translate(0 74.097)">
                  <g id="Grupo_87435" data-name="Grupo 87435">
                    <path id="Trazado_123916" data-name="Trazado 123916" d="M442.409,329.852s-20.641-2.284-34.221-3.144c-7.568-.474-20.63-.143-26.344,2.052-8.561,3.276-42.274,22.461-37.8,30.735,4.049,7.491,14.353-.794,14.353-.794s-12.1,8-5.8,14.187c6.354,6.255,18.721-5.847,18.721-5.847s-13.437,7.6-6.09,13.569c6.388,5.185,22.141-7.2,22.141-7.2s-14.981,6.432-8.969,12.378c6.652,6.575,32.61-9.024,32.61-9.024,16.89,5.626,27.789,6.718,40.708,5.9C454.1,382.529,442.409,329.852,442.409,329.852Z" transform="translate(-343.64 -326.519)" fill="#ad6359"/>
                  </g>
                  <g id="Grupo_87436" data-name="Grupo 87436" transform="translate(12.222 16.845)">
                    <path id="Trazado_123917" data-name="Trazado 123917" d="M365.555,367.222c1.015-.9,2.052-1.787,3.056-2.7a66.942,66.942,0,0,1,6.134-5.031c2.118-1.478,4.291-2.857,6.509-4.181,2.339-1.39,4.843-2.559,7.149-4a.154.154,0,1,1,.154.265,71.884,71.884,0,0,0-6.63,4.611c-2.14,1.555-4.247,3.133-6.365,4.711-2.063,1.544-4.225,2.946-6.332,4.424-1.048.739-2.074,1.534-3.089,2.317a21.649,21.649,0,0,1-2.945,2.184c-.11.055-.2-.088-.132-.177A17.232,17.232,0,0,1,365.555,367.222Z" transform="translate(-353.86 -340.81)" fill="#263238"/>
                    <path id="Trazado_123918" data-name="Trazado 123918" d="M354.764,358.845c1.4-1.82,9.112-8.108,11.175-9.6a74.4,74.4,0,0,1,12.742-7.447.155.155,0,0,1,.154.265c-3.983,2.9-8.02,5.759-12.036,8.6-1.964,1.39-10.712,8-11.716,8.572C354.841,359.386,354.621,359.044,354.764,358.845Z" transform="translate(-354.719 -341.789)" fill="#263238"/>
                    <path id="Trazado_123919" data-name="Trazado 123919" d="M375.034,375.387c1.423-1.677,8.693-7.5,10.668-8.837a95.864,95.864,0,0,1,12.7-6.3c.165-.055.3.176.154.265-4.06,2.416-8.142,4.744-12.08,7.347-1.92,1.269-9.267,6.763-11.208,7.822C375.089,375.784,374.912,375.53,375.034,375.387Z" transform="translate(-352.627 -339.885)" fill="#263238"/>
                  </g>
                </g>
              </g>
              <g id="Grupo_87440" data-name="Grupo 87440" transform="translate(92.95)">
                <path id="Trazado_123920" data-name="Trazado 123920" d="M447.555,393.276,428.69,333.328s68.652-4.391,70.88-5.538,26.7-44.382,36.372-61.183,24.667-9.885,19.074,28.043c-5.626,38.159-11.793,67.824-20.354,76.639C524.282,381.99,486.332,393.022,447.555,393.276Z" transform="translate(-427.814 -257.969)" fill="#00dcff"/>
                <g id="Grupo_87439" data-name="Grupo 87439" transform="translate(10.11)">
                  <path id="Trazado_123921" data-name="Trazado 123921" d="M497.93,347.012a21.75,21.75,0,0,1,1.335-9.642,21.75,21.75,0,0,1-1.335,9.642Z" transform="translate(-430.79 -249.776)" fill="#fff"/>
                  <path id="Trazado_123922" data-name="Trazado 123922" d="M463.55,378.112a21.75,21.75,0,0,1,1.335-9.642,21.75,21.75,0,0,1-1.335,9.642Z" transform="translate(-434.337 -246.567)" fill="#fff"/>
                  <path id="Trazado_123923" data-name="Trazado 123923" d="M516.79,299.242a21.748,21.748,0,0,1,1.335-9.642,19.62,19.62,0,0,1-.121,4.9A18.535,18.535,0,0,1,516.79,299.242Z" transform="translate(-428.843 -254.706)" fill="#fff"/>
                  <path id="Trazado_123924" data-name="Trazado 123924" d="M527.642,340.775A21.75,21.75,0,0,1,518,339.44a19.108,19.108,0,0,1,4.9.121A19.613,19.613,0,0,1,527.642,340.775Z" transform="translate(-428.707 -249.574)" fill="#fff"/>
                  <path id="Trazado_123925" data-name="Trazado 123925" d="M467.9,342.485a21.749,21.749,0,0,1-9.642-1.335,21.751,21.751,0,0,1,9.642,1.335Z" transform="translate(-434.872 -249.397)" fill="#fff"/>
                  <path id="Trazado_123926" data-name="Trazado 123926" d="M508.77,368.279a21.75,21.75,0,0,1,7.766-5.869,21.751,21.751,0,0,1-7.766,5.869Z" transform="translate(-429.66 -247.193)" fill="#fff"/>
                  <path id="Trazado_123927" data-name="Trazado 123927" d="M437.06,335.939a21.753,21.753,0,0,1,7.766-5.869,21.749,21.749,0,0,1-7.766,5.869Z" transform="translate(-437.06 -250.53)" fill="#fff"/>
                  <path id="Trazado_123928" data-name="Trazado 123928" d="M502.1,313.1a19.036,19.036,0,0,1-3.552,3.376,22.461,22.461,0,0,1-3.177,2.019c.342-.53.717-1.114,1.1-1.743a.011.011,0,0,1,.011-.011c.452-.4.927-.783,1.4-1.147A19.377,19.377,0,0,1,502.1,313.1Z" transform="translate(-431.043 -252.281)" fill="#fff"/>
                  <path id="Trazado_123929" data-name="Trazado 123929" d="M544.069,286.39c-.033.463-.088.927-.143,1.4a15.867,15.867,0,0,1-2.835,1.522A18.639,18.639,0,0,1,544.069,286.39Z" transform="translate(-426.325 -255.037)" fill="#fff"/>
                  <path id="Trazado_123930" data-name="Trazado 123930" d="M478.57,359.429a21.752,21.752,0,0,1,7.766-5.869,19.032,19.032,0,0,1-3.552,3.376A19.381,19.381,0,0,1,478.57,359.429Z" transform="translate(-432.776 -248.106)" fill="#fff"/>
                  <path id="Trazado_123931" data-name="Trazado 123931" d="M477.53,324.51a21.751,21.751,0,0,1,5.869,7.766,21.751,21.751,0,0,1-5.869-7.766Z" transform="translate(-432.884 -251.104)" fill="#fff"/>
                  <path id="Trazado_123932" data-name="Trazado 123932" d="M540.975,264.942a19.255,19.255,0,0,1-3.365-3.541,20.322,20.322,0,0,1-2.14-3.431,5.448,5.448,0,0,1,.607.033,22.483,22.483,0,0,1,2.4,2.725A19.2,19.2,0,0,1,540.975,264.942Z" transform="translate(-426.905 -257.97)" fill="#fff"/>
                  <path id="Trazado_123933" data-name="Trazado 123933" d="M527.36,313.56a21.751,21.751,0,0,1,5.869,7.767,19.034,19.034,0,0,1-3.376-3.552A19.381,19.381,0,0,1,527.36,313.56Z" transform="translate(-427.742 -252.234)" fill="#fff"/>
                </g>
                <path id="Trazado_123934" data-name="Trazado 123934" d="M516.295,288.786c-2.24,3.354-4.3,6.807-6.376,10.26-.055.1-.11.188-.177.287.1-.265.21-.518.309-.783.673-1.71,1.269-3.464,2-5.163.044-.1-.11-.188-.154-.088-.739,1.666-1.567,3.288-2.284,4.964-.474,1.136-.9,2.284-1.313,3.442-1.533,2.559-3.067,5.119-4.578,7.7-2.03,3.475-4.049,6.95-6.1,10.414-.5.849-.993,1.7-1.5,2.537A3.315,3.315,0,0,1,494.341,324a14.146,14.146,0,0,1-2.813.375c-1,.11-2.008.232-3.012.353-4.567.552-9.1,1.313-13.669,1.909-.11.011-.11.177,0,.177,4.192-.309,8.406-.474,12.6-.816,2.063-.165,4.148-.309,6.2-.574a4.109,4.109,0,0,0,2.162-.772,6.4,6.4,0,0,0,1.379-1.82q6.239-10.789,12.466-21.59c2.35-4.082,4.733-8.142,6.9-12.323C516.648,288.764,516.394,288.632,516.295,288.786Z" transform="translate(-423.059 -254.797)" fill="#263238"/>
                <path id="Trazado_123935" data-name="Trazado 123935" d="M549.625,303.873a23.53,23.53,0,0,1-.982,4.049c-.331,1.18-.651,2.361-1,3.53-.408,1.324-.86,2.637-1.324,3.949q1.39-8.754,2.206-17.607c.011-.177-.287-.21-.309-.033-1.1,8.241-2.626,16.438-4.347,24.568s-3.828,16.228-6.2,24.2c-1.169,3.927-2.394,7.844-3.773,11.7a31.924,31.924,0,0,1-4.81,9.41c-2.416,3-5.7,4.887-9.145,6.476a105.322,105.322,0,0,1-11.231,4.4c-8.682,2.846-17.673,4.655-26.543,6.785-.088.022-.066.188.022.165a198.829,198.829,0,0,0,24.2-4.9,101.886,101.886,0,0,0,11.87-3.96c3.541-1.478,7.193-3.089,10.05-5.715a25.3,25.3,0,0,0,5.913-9.123c1.489-3.607,2.659-7.358,3.817-11.087,2.526-8.142,4.655-16.349,6.388-24.7q.745-3.624,1.379-7.27a45.9,45.9,0,0,0,2.4-7.127c.342-1.269.662-2.537.9-3.828s.342-2.637.7-3.883A.094.094,0,0,0,549.625,303.873Z" transform="translate(-422.301 -253.876)" fill="#263238"/>
                <path id="Trazado_123936" data-name="Trazado 123936" d="M458.128,381.134c-3.111-8.616-6.4-17.155-9.134-25.9a257.378,257.378,0,0,1-7.094-26.245c-.033-.165.232-.243.287-.088,3.232,8.451,5.858,17.177,8.572,25.815,2.736,8.7,5.119,17.508,7.866,26.2C458.735,381.233,458.261,381.465,458.128,381.134Z" transform="translate(-426.451 -250.659)" fill="#263238"/>
                <path id="Trazado_123937" data-name="Trazado 123937" d="M448.012,325.016c-1.633-.121-3.3-.022-4.931.011s-3.288.11-4.931.177c-3.288.143-6.564.386-9.841.662-.243.022-.5.265-.386.53a13.947,13.947,0,0,0,1.677,3.431c.044.066.165.044.155-.044a11.353,11.353,0,0,0-.861-3.122c3.133-.21,6.266-.4,9.4-.64,1.644-.121,3.288-.232,4.92-.364,1.6-.121,3.232-.177,4.81-.43C448.177,325.214,448.122,325.026,448.012,325.016Z" transform="translate(-427.896 -251.057)" fill="#263238"/>
              </g>
            </g>
            <g id="Grupo_87443" data-name="Grupo 87443" transform="translate(27.121 179.633)">
              <path id="Trazado_123938" data-name="Trazado 123938" d="M378.96,313.36c4.093,2.03,22.792,2.8,28.253,9.509,3.629,4.457,3.265,8.969,5.384,22.285,1.831,11.561-7.744,8.8-10.5,2.89-4.325-9.3-8.042-19.493-8.042-19.493a74.345,74.345,0,0,0-9.576.143Z" transform="translate(-361.086 -313.36)" fill="#f7a9a0"/>
              <g id="Grupo_87442" data-name="Grupo 87442" transform="translate(0 43.285)">
                <path id="Trazado_123939" data-name="Trazado 123939" d="M391.373,353.031c6.476-4.1,27.183,22.031,16.835,28.959S384.037,357.675,391.373,353.031Z" transform="translate(-360.018 -352.596)" fill="#f7a9a0"/>
                <path id="Trazado_123940" data-name="Trazado 123940" d="M381.863,358.081c6.476-4.1,27.183,22.031,16.835,28.959S374.526,362.725,381.863,358.081Z" transform="translate(-360.999 -352.075)" fill="#f7a9a0"/>
                <path id="Trazado_123941" data-name="Trazado 123941" d="M375.191,358.99c6.454-2.824,21.645,23.818,11.264,28.661C376.1,392.5,367.888,362.189,375.191,358.99Z" transform="translate(-361.762 -351.958)" fill="#f7a9a0"/>
                <path id="Trazado_123942" data-name="Trazado 123942" d="M368.585,358.3c6.785-.805,13.382,28.209,2.383,29.786S360.9,359.217,368.585,358.3Z" transform="translate(-362.758 -352.009)" fill="#f7a9a0"/>
                <path id="Trazado_123943" data-name="Trazado 123943" d="M389.861,361.194a32.141,32.141,0,0,1,3.221,4.2c1.07,1.556,2.129,3.133,3.056,4.777a44.585,44.585,0,0,1,2.427,4.876c.728,1.787,1.247,3.674,2.019,5.428a.149.149,0,1,1-.276.11,38.607,38.607,0,0,0-2.637-4.942c-.9-1.6-1.743-3.243-2.637-4.854-.871-1.567-1.7-3.155-2.592-4.711-.916-1.589-1.964-3.111-2.791-4.744A.129.129,0,0,1,389.861,361.194Z" transform="translate(-359.984 -351.713)" fill="#263238"/>
                <path id="Trazado_123944" data-name="Trazado 123944" d="M380.1,361.071c.673,1.964,2.89,9.465,3.641,11.407s1.578,3.894,2.427,5.8c.86,1.942,1.622,4,2.659,5.869a.153.153,0,0,1-.265.154c-1.048-1.875-2.251-3.629-3.2-5.56-.938-1.909-1.776-3.85-2.537-5.836a99.11,99.11,0,0,1-3.034-11.8C379.757,360.916,380.044,360.905,380.1,361.071Z" transform="translate(-361 -351.733)" fill="#263238"/>
                <path id="Trazado_123945" data-name="Trazado 123945" d="M372.735,362.762c.518,2.8.86,5.637,1.39,8.439.265,1.379.53,2.758.783,4.148.121.673.232,1.346.353,2.008a12.21,12.21,0,0,0,.43,2.295c.077.188-.265.276-.3.044a16.757,16.757,0,0,0-.783-2.46c-.2-.651-.386-1.3-.552-1.964-.342-1.368-.607-2.736-.838-4.126a55.688,55.688,0,0,1-.86-8.329C372.36,362.608,372.7,362.553,372.735,362.762Z" transform="translate(-361.767 -351.561)" fill="#263238"/>
              </g>
            </g>
          </g>
        </g>
      </g>
      <g id="Speech_Bubble" transform="translate(325.762 136.704)">
        <g id="Grupo_87447" data-name="Grupo 87447">
          <path id="Trazado_123946" data-name="Trazado 123946" d="M471.784,198.818a24.861,24.861,0,0,0,4.247-13.724c0-17.386-19.085-31.474-42.616-31.474s-42.605,14.1-42.605,31.474,19.074,31.474,42.605,31.474c11.407,0,21.755-3.31,29.4-8.7l14.684,3.729Z" transform="translate(-390.81 -153.62)" fill="#adce32"/>
          <g id="Grupo_87446" data-name="Grupo 87446" transform="translate(18.423 27.05)">
            <path id="Trazado_123947" data-name="Trazado 123947" d="M416.358,182.564a4.424,4.424,0,1,1-4.424-4.424A4.423,4.423,0,0,1,416.358,182.564Z" transform="translate(-407.51 -178.14)" fill="#263238"/>
            <circle id="Elipse_5193" data-name="Elipse 5193" cx="4.424" cy="4.424" r="4.424" transform="translate(19.758)" fill="#263238"/>
            <path id="Trazado_123948" data-name="Trazado 123948" d="M452.158,182.564a4.424,4.424,0,1,1-4.424-4.424A4.423,4.423,0,0,1,452.158,182.564Z" transform="translate(-403.816 -178.14)" fill="#263238"/>
          </g>
        </g>
      </g>
      <g id="Light_Bulb" transform="translate(209.353 23.905)">
        <g id="Grupo_87452" data-name="Grupo 87452">
          <g id="Grupo_87450" data-name="Grupo 87450" transform="translate(16.317 16.901)">
            <path id="Trazado_123949" data-name="Trazado 123949" d="M330.649,112.279c-2.46,20.575-15.687,24.336-17.916,29.819a95.526,95.526,0,0,0-2.78,10.524l-21.512-.055a92.257,92.257,0,0,0-2.725-10.535c-2.184-5.494-15.423-9.311-17.761-29.9-1.555-13.525,8.671-34.861,31.43-34.806S332.249,98.754,330.649,112.279Z" transform="translate(-267.801 -77.33)" fill="#ffa686"/>
            <g id="Grupo_87448" data-name="Grupo 87448" transform="translate(19.266 40.167)">
              <rect id="Rectángulo_34928" data-name="Rectángulo 34928" width="1.103" height="34.806" transform="translate(0 2.369) rotate(-10.428)" fill="#fff"/>
              <rect id="Rectángulo_34929" data-name="Rectángulo 34929" width="34.806" height="1.103" transform="translate(16.858 36.41) rotate(-79.309)" fill="#fff"/>
              <path id="Trazado_123950" data-name="Trazado 123950" d="M297.384,127.4h0c-1.7,0-3.4-1.346-4.788-3.784-.066-.11-.121-.221-.188-.342a2.565,2.565,0,0,1-1.842,1h0c-3.221-.011-4.5-6.652-4.556-6.939l.541-.1c.011.066,1.236,6.476,4.016,6.487h0a2.282,2.282,0,0,0,1.578-.982c-1.368-2.8-2.118-6.465-1.147-8.131a1.646,1.646,0,0,1,1.489-.872h0a1.952,1.952,0,0,1,1.776,1.015c.971,1.688.254,5.163-1.026,7.369a8.119,8.119,0,0,1-.441.684c.088.177.188.353.287.53.75,1.313,2.306,3.5,4.3,3.508h.011c1.335,0,2.67-1.048,3.784-2.957.088-.154.177-.32.265-.485a6.5,6.5,0,0,1-.761-1.059c-1.324-2.317-1.6-5.748-.585-7.491a1.969,1.969,0,0,1,1.743-1.092h0a1.519,1.519,0,0,1,1.357.838c.949,1.655.419,5.593-1.092,8.693a3.182,3.182,0,0,0,2.151.9h0c1.964,0,3.718-4.7,4.225-6.509l.53.143c-.077.287-1.964,6.906-4.755,6.906h0a3.6,3.6,0,0,1-2.416-.938c-.066.121-.132.232-.2.353C300.782,125.643,299.348,127.4,297.384,127.4Zm4.446-13.073a1.423,1.423,0,0,0-1.258.816c-.916,1.567-.64,4.81.585,6.939a6.755,6.755,0,0,0,.541.794c1.346-2.89,1.853-6.531,1.015-7.987a.987.987,0,0,0-.883-.563Zm-9.355-.022a1.1,1.1,0,0,0-1.015.6c-.761,1.313-.265,4.545,1.037,7.347.077-.121.165-.254.243-.386,1.169-2.019,1.886-5.317,1.026-6.818a1.372,1.372,0,0,0-1.291-.739Z" transform="translate(-285.187 -113.74)" fill="#fff"/>
            </g>
            <g id="Grupo_87449" data-name="Grupo 87449" transform="translate(18.098 74.302)">
              <rect id="Rectángulo_34930" data-name="Rectángulo 34930" width="26.532" height="5.185" transform="translate(0.045 0) rotate(0.135)" fill="#455a64"/>
              <rect id="Rectángulo_34931" data-name="Rectángulo 34931" width="26.532" height="5.185" transform="translate(0.023 6.023) rotate(0.135)" fill="#455a64"/>
              <rect id="Rectángulo_34932" data-name="Rectángulo 34932" width="26.532" height="5.185" transform="translate(0.012 12.058) rotate(0.135)" fill="#455a64"/>
            </g>
          </g>
          <g id="Grupo_87451" data-name="Grupo 87451">
            <path id="Trazado_123951" data-name="Trazado 123951" d="M297.378,62.01a15.451,15.451,0,0,1,.485,4.291,14.667,14.667,0,0,1-.618,4.28,15.046,15.046,0,0,1-.485-4.291A14.719,14.719,0,0,1,297.378,62.01Z" transform="translate(-248.495 -62.01)" fill="#263238"/>
            <path id="Trazado_123952" data-name="Trazado 123952" d="M275.51,67.34a15.573,15.573,0,0,1,2.57,3.475,14.7,14.7,0,0,1,1.6,4.016,15.236,15.236,0,0,1-2.57-3.475A15.434,15.434,0,0,1,275.51,67.34Z" transform="translate(-250.688 -61.46)" fill="#263238"/>
            <path id="Trazado_123953" data-name="Trazado 123953" d="M259.3,82.86a17.081,17.081,0,0,1,7.358,4.4,14.5,14.5,0,0,1-3.96-1.732A14.873,14.873,0,0,1,259.3,82.86Z" transform="translate(-252.361 -59.858)" fill="#263238"/>
            <path id="Trazado_123954" data-name="Trazado 123954" d="M253.01,104.445a15.45,15.45,0,0,1,4.291-.485,14.666,14.666,0,0,1,4.28.618,15.046,15.046,0,0,1-4.291.485A14.666,14.666,0,0,1,253.01,104.445Z" transform="translate(-253.01 -57.681)" fill="#263238"/>
            <path id="Trazado_123955" data-name="Trazado 123955" d="M258.34,126.6a15.57,15.57,0,0,1,3.475-2.57,14.7,14.7,0,0,1,4.016-1.6,15.237,15.237,0,0,1-3.475,2.57A15.589,15.589,0,0,1,258.34,126.6Z" transform="translate(-252.46 -55.775)" fill="#263238"/>
            <path id="Trazado_123956" data-name="Trazado 123956" d="M334.108,128.282a17.08,17.08,0,0,1-7.358-4.4,17.081,17.081,0,0,1,7.358,4.4Z" transform="translate(-245.401 -55.625)" fill="#263238"/>
            <path id="Trazado_123957" data-name="Trazado 123957" d="M340.512,106.378a15.451,15.451,0,0,1-4.291.485,14.666,14.666,0,0,1-4.28-.618,14.663,14.663,0,0,1,4.291-.485A15.506,15.506,0,0,1,340.512,106.378Z" transform="translate(-244.865 -57.495)" fill="#263238"/>
            <path id="Trazado_123958" data-name="Trazado 123958" d="M335.081,84.52a15.57,15.57,0,0,1-3.475,2.57,14.7,14.7,0,0,1-4.016,1.6,16.814,16.814,0,0,1,7.491-4.17Z" transform="translate(-245.314 -59.687)" fill="#263238"/>
            <path id="Trazado_123959" data-name="Trazado 123959" d="M319.272,68.3a17.08,17.08,0,0,1-4.4,7.358A14.5,14.5,0,0,1,316.6,71.7,15.364,15.364,0,0,1,319.272,68.3Z" transform="translate(-246.626 -61.361)" fill="#263238"/>
          </g>
        </g>
      </g>
    </g>
  </g>
</svg>
