<svg xmlns="http://www.w3.org/2000/svg" xmlns:xlink="http://www.w3.org/1999/xlink" width="1048" height="587" viewBox="0 0 1048 587">
  <defs>
    <filter id="Trazado_643359" x="0" y="0" width="1048" height="587" filterUnits="userSpaceOnUse">
      <feOffset dy="3" input="SourceAlpha"/>
      <feGaussianBlur stdDeviation="3" result="blur"/>
      <feFlood flood-opacity="0.161"/>
      <feComposite operator="in" in2="blur"/>
      <feComposite in="SourceGraphic"/>
    </filter>
  </defs>
  <g id="Grupo_1004953" data-name="Grupo 1004953" transform="translate(-7475 -3417)">
    <g id="Grupo_1004952" data-name="Grupo 1004952">
      <g id="Grupo_1004951" data-name="Grupo 1004951">
        <g transform="matrix(1, 0, 0, 1, 7475, 3417)" filter="url(#Trazado_643359)">
          <path id="Trazado_643359-2" data-name="Trazado 643359" d="M10,0H1020a10,10,0,0,1,10,10V559a10,10,0,0,1-10,10H10A10,10,0,0,1,0,559V10A10,10,0,0,1,10,0Z" transform="translate(9 6)" fill="#f6f6f6"/>
        </g>
        <path id="Trazado_643360" data-name="Trazado 643360" d="M0,0H863.851V466.689H0Z" transform="translate(7610.25 3465.346)" fill="#fcfdff"/>
        <g id="Grupo_905467" data-name="Grupo 905467" transform="translate(7747.756 3465.346)">
          <rect id="Rectángulo_329973" data-name="Rectángulo 329973" width="29.592" height="468.594" fill="#eff2f9"/>
          <rect id="Rectángulo_329974" data-name="Rectángulo 329974" width="29.592" height="468.594" transform="translate(29.592)" fill="#e4e6ed"/>
        </g>
        <g id="Grupo_905468" data-name="Grupo 905468" transform="translate(7945.036 3465.346)">
          <rect id="Rectángulo_329975" data-name="Rectángulo 329975" width="29.592" height="468.594" fill="#eff2f9"/>
          <rect id="Rectángulo_329976" data-name="Rectángulo 329976" width="29.592" height="468.594" transform="translate(29.592)" fill="#e4e6ed"/>
        </g>
        <g id="Grupo_905470" data-name="Grupo 905470" transform="translate(8142.315 3465.346)" opacity="0.98">
          <g id="Grupo_905469" data-name="Grupo 905469">
            <rect id="Rectángulo_329977" data-name="Rectángulo 329977" width="29.592" height="468.594" fill="#eff2f9"/>
            <rect id="Rectángulo_329978" data-name="Rectángulo 329978" width="29.592" height="468.594" transform="translate(29.592)" fill="#e4e6ed"/>
          </g>
        </g>
        <g id="Grupo_905471" data-name="Grupo 905471" transform="translate(8339.595 3465.346)">
          <rect id="Rectángulo_329979" data-name="Rectángulo 329979" width="29.592" height="468.594" transform="translate(0)" fill="#eff2f9"/>
          <rect id="Rectángulo_329980" data-name="Rectángulo 329980" width="29.592" height="468.594" transform="translate(29.592)" fill="#e4e6ed"/>
        </g>
        <path id="Trazado_643361" data-name="Trazado 643361" d="M0,0H854.083" transform="translate(7620.018 3484.773)" fill="none" stroke="#dee1eb" stroke-width="1"/>
        <path id="Trazado_643362" data-name="Trazado 643362" d="M0,0H854.083" transform="translate(7620.018 3533.983)" fill="none" stroke="#dee1eb" stroke-width="1"/>
        <path id="Trazado_643363" data-name="Trazado 643363" d="M0,0H854.083" transform="translate(7620.018 3583.179)" fill="none" stroke="#dee1eb" stroke-width="1"/>
        <path id="Trazado_643364" data-name="Trazado 643364" d="M0,0H854.083" transform="translate(7620.018 3632.376)" fill="none" stroke="#dee1eb" stroke-width="1"/>
        <path id="Trazado_643365" data-name="Trazado 643365" d="M0,0H854.083" transform="translate(7620.018 3681.573)" fill="none" stroke="#dee1eb" stroke-width="1"/>
        <path id="Trazado_643366" data-name="Trazado 643366" d="M0,0H854.083" transform="translate(7620.018 3730.769)" fill="none" stroke="#dee1eb" stroke-width="1"/>
        <path id="Trazado_643367" data-name="Trazado 643367" d="M0,0H854.083" transform="translate(7620.018 3779.966)" fill="none" stroke="#dee1eb" stroke-width="1"/>
        <path id="Trazado_643368" data-name="Trazado 643368" d="M0,0H854.083" transform="translate(7620.018 3829.176)" fill="none" stroke="#dee1eb" stroke-width="1"/>
        <path id="Trazado_643369" data-name="Trazado 643369" d="M0,0H854.083" transform="translate(7620.018 3878.373)" fill="none" stroke="#dee1eb" stroke-width="1"/>
        <path id="Trazado_627588" data-name="Trazado 627588" d="M369.141,133.517H162.3a7.922,7.922,0,0,1-7.919-7.919h0a7.922,7.922,0,0,1,7.919-7.919H369.141a7.922,7.922,0,0,1,7.919,7.919h0A7.922,7.922,0,0,1,369.141,133.517Z" transform="translate(7544.357 3359.188)" fill="#f4bc4f"/>
        <path id="Trazado_627589" data-name="Trazado 627589" d="M351.922,313.067H243.569a7.922,7.922,0,0,1-7.919-7.919h0a7.922,7.922,0,0,1,7.919-7.919H351.922a7.922,7.922,0,0,1,7.919,7.919h0A7.914,7.914,0,0,1,351.922,313.067Z" transform="translate(7574.427 3425.621)" fill="#ffe11d"/>
        <path id="Trazado_627590" data-name="Trazado 627590" d="M524.9,313.067H416.549a7.922,7.922,0,0,1-7.919-7.919h0a7.922,7.922,0,0,1,7.919-7.919H524.9a7.922,7.922,0,0,1,7.919,7.919h0A7.9,7.9,0,0,1,524.9,313.067Z" transform="translate(7638.429 3425.621)" fill="#ffe11d"/>
        <path id="Trazado_627591" data-name="Trazado 627591" d="M359.671,168.507H245.249a7.922,7.922,0,0,1-7.919-7.919h0a7.922,7.922,0,0,1,7.919-7.919H359.671a7.922,7.922,0,0,1,7.919,7.919h0A7.922,7.922,0,0,1,359.671,168.507Z" transform="translate(7575.049 3372.134)" fill="#0b481e"/>
        <path id="Trazado_627592" data-name="Trazado 627592" d="M469.668,205.337H350.849a7.922,7.922,0,0,1-7.919-7.919h0a7.922,7.922,0,0,1,7.919-7.919h118.82a7.922,7.922,0,0,1,7.919,7.919h0A7.922,7.922,0,0,1,469.668,205.337Z" transform="translate(7614.12 3385.761)" fill="#ffa686"/>
        <path id="Trazado_627593" data-name="Trazado 627593" d="M436.515,348.987h-312.5a7.922,7.922,0,0,1-7.919-7.919h0a7.922,7.922,0,0,1,7.919-7.919h312.5a7.922,7.922,0,0,1,7.919,7.919h0A7.922,7.922,0,0,1,436.515,348.987Z" transform="translate(7530.194 3438.911)" fill="#ffa686"/>
        <path id="Trazado_627594" data-name="Trazado 627594" d="M438.852,384.9h-186.7a7.922,7.922,0,0,1-7.919-7.919h0a7.922,7.922,0,0,1,7.919-7.919h186.7a7.922,7.922,0,0,1,7.919,7.919h0A7.9,7.9,0,0,1,438.852,384.9Z" transform="translate(7577.602 3452.198)" fill="#adce32"/>
        <path id="Trazado_627595" data-name="Trazado 627595" d="M648.582,420.807h-186.7a7.922,7.922,0,0,1-7.919-7.919h0a7.922,7.922,0,0,1,7.919-7.919h186.7a7.923,7.923,0,0,1,7.919,7.919h0A7.923,7.923,0,0,1,648.582,420.807Z" transform="translate(7655.201 3465.484)" fill="#0b481e"/>
        <path id="Trazado_627596" data-name="Trazado 627596" d="M622.785,348.987H558.519a7.923,7.923,0,0,1-7.919-7.919h0a7.923,7.923,0,0,1,7.919-7.919h64.266a7.923,7.923,0,0,1,7.919,7.919h0A7.923,7.923,0,0,1,622.785,348.987Z" transform="translate(7690.958 3438.911)" fill="#ffe11d"/>
        <path id="Trazado_627597" data-name="Trazado 627597" d="M631.927,241.247H562.879a7.923,7.923,0,0,1-7.919-7.919h0a7.923,7.923,0,0,1,7.919-7.919h69.048a7.922,7.922,0,0,1,7.919,7.919h0A7.923,7.923,0,0,1,631.927,241.247Z" transform="translate(7692.57 3399.048)" fill="#ffe11d"/>
        <path id="Trazado_627598" data-name="Trazado 627598" d="M208.216,277.157H139.169a7.922,7.922,0,0,1-7.919-7.919h0a7.922,7.922,0,0,1,7.919-7.919h69.048a7.922,7.922,0,0,1,7.919,7.919h0A7.922,7.922,0,0,1,208.216,277.157Z" transform="translate(7535.799 3412.334)" fill="#adce32"/>
        <path id="Trazado_627599" data-name="Trazado 627599" d="M567.245,241.247H316.769a7.922,7.922,0,0,1-7.919-7.919h0a7.922,7.922,0,0,1,7.919-7.919H567.245a7.923,7.923,0,0,1,7.919,7.919h0A7.905,7.905,0,0,1,567.245,241.247Z" transform="translate(7601.511 3399.048)" fill="#ffc107"/>
        <path id="Trazado_627600" data-name="Trazado 627600" d="M102.447,458.51v13H99.433V460.935h-2.6v-2.411h5.617Z" transform="translate(7523.064 3485.294)" fill="#727478"/>
        <path id="Trazado_627601" data-name="Trazado 627601" d="M126.342,469.118v2.452h-9.823v-1.945l5.014-4.74c1.151-1.1,1.356-1.767,1.356-2.4,0-1.027-.7-1.617-2.082-1.617a3.16,3.16,0,0,0-2.685,1.3l-2.192-1.411a6.036,6.036,0,0,1,5.165-2.411c2.891,0,4.822,1.48,4.822,3.836,0,1.26-.356,2.411-2.178,4.11l-2.987,2.822Z" transform="translate(7530.131 3485.235)" fill="#727478"/>
        <path id="Trazado_627602" data-name="Trazado 627602" d="M146.753,467.542c0,2.192-1.685,4.192-5.384,4.192a8.94,8.94,0,0,1-4.959-1.4l1.165-2.3a6.33,6.33,0,0,0,3.713,1.165c1.507,0,2.425-.617,2.425-1.671,0-.986-.726-1.6-2.425-1.6h-1.37v-1.987l2.671-3.028h-5.535V458.5h9.1v1.945l-2.932,3.343C145.562,464.186,146.753,465.624,146.753,467.542Z" transform="translate(7537.708 3485.29)" fill="#727478"/>
        <path id="Trazado_627603" data-name="Trazado 627603" d="M168.742,468.785h-2.11v2.726H163.7v-2.726h-7v-2.028l6.124-8.247h3.151l-5.685,7.809h3.493V463.88h2.836v2.439h2.11v2.466Z" transform="translate(7545.216 3485.294)" fill="#727478"/>
        <path id="Trazado_627604" data-name="Trazado 627604" d="M187.927,467.429c0,2.3-1.685,4.3-5.4,4.3a9.006,9.006,0,0,1-4.959-1.4l1.192-2.3a6.287,6.287,0,0,0,3.7,1.165c1.507,0,2.425-.63,2.425-1.685,0-1.027-.671-1.685-3.028-1.685h-3.329l.671-7.316h7.932v2.411h-5.425l-.205,2.466h1.055C186.393,463.4,187.927,465.127,187.927,467.429Z" transform="translate(7552.938 3485.294)" fill="#727478"/>
        <path id="Trazado_627605" data-name="Trazado 627605" d="M208.917,467.461c0,2.658-2.178,4.329-4.918,4.329-3.589,0-5.809-2.247-5.809-6.439,0-4.494,2.713-7,6.631-7a7,7,0,0,1,3.617.89l-1.11,2.206a4.3,4.3,0,0,0-2.425-.644c-2.178,0-3.562,1.288-3.658,3.767a4.355,4.355,0,0,1,3.206-1.151C206.944,463.419,208.917,465.008,208.917,467.461Zm-2.918.151a1.956,1.956,0,0,0-2.206-1.945,2.037,2.037,0,0,0-2.247,1.945c0,1.11.836,1.932,2.288,1.932A1.939,1.939,0,0,0,206,467.611Z" transform="translate(7560.567 3485.235)" fill="#727478"/>
        <path id="Trazado_627606" data-name="Trazado 627606" d="M229.058,458.514v1.945L224.236,471.5h-3.261l4.658-10.549h-4.3v2.11H218.66V458.5h10.4Z" transform="translate(7568.141 3485.29)" fill="#727478"/>
        <path id="Trazado_627607" data-name="Trazado 627607" d="M249.966,467.8c0,2.452-2.192,3.987-5.494,3.987s-5.453-1.534-5.453-3.987a3.32,3.32,0,0,1,1.973-3.069,3.015,3.015,0,0,1-1.507-2.671c0-2.288,2.041-3.713,5-3.713,2.987,0,5.028,1.425,5.028,3.713a3.027,3.027,0,0,1-1.521,2.671A3.306,3.306,0,0,1,249.966,467.8Zm-3.055-.1c0-1.151-.945-1.863-2.452-1.863-1.48,0-2.411.712-2.411,1.863s.932,1.877,2.411,1.877C245.966,469.584,246.911,468.858,246.911,467.707Zm-4.452-5.521c0,.986.781,1.6,2,1.6,1.247,0,2.041-.616,2.041-1.6,0-1.027-.822-1.63-2.041-1.63S242.459,461.172,242.459,462.186Z" transform="translate(7575.674 3485.235)" fill="#727478"/>
        <path id="Trazado_627608" data-name="Trazado 627608" d="M270.214,464.789c0,4.494-2.685,7-6.631,7a6.984,6.984,0,0,1-3.6-.89l1.11-2.206a4.215,4.215,0,0,0,2.425.644c2.151,0,3.562-1.274,3.658-3.781a4.429,4.429,0,0,1-3.233,1.165c-2.507,0-4.48-1.6-4.48-4.042,0-2.658,2.178-4.329,4.918-4.329C268.009,458.35,270.214,460.6,270.214,464.789Zm-3.357-2.26a1.988,1.988,0,0,0-2.26-1.932,1.953,1.953,0,1,0,.041,3.877A2,2,0,0,0,266.858,462.529Z" transform="translate(7583.237 3485.235)" fill="#727478"/>
        <path id="Trazado_627609" data-name="Trazado 627609" d="M282.487,458.51v13h-3.014V460.935h-2.6v-2.411h5.617Z" transform="translate(7589.678 3485.294)" fill="#727478"/>
        <path id="Trazado_627610" data-name="Trazado 627610" d="M282.62,465.077c0-4.288,2.37-6.727,5.562-6.727s5.562,2.439,5.562,6.727-2.356,6.713-5.562,6.713C285,471.79,282.62,469.365,282.62,465.077Zm8.124,0c0-2.945-1.041-4.178-2.548-4.178-1.48,0-2.521,1.219-2.521,4.178s1.041,4.178,2.521,4.178C289.7,469.242,290.744,468.022,290.744,465.077Z" transform="translate(7591.806 3485.235)" fill="#727478"/>
        <path id="Trazado_627611" data-name="Trazado 627611" d="M304.947,458.51v13h-3.014V460.935h-2.6v-2.411h5.617Z" transform="translate(7597.988 3485.294)" fill="#727478"/>
        <path id="Trazado_627612" data-name="Trazado 627612" d="M310.257,458.51v13h-3.014V460.935h-2.6v-2.411h5.617Z" transform="translate(7599.953 3485.294)" fill="#727478"/>
        <path id="Trazado_627613" data-name="Trazado 627613" d="M324.127,458.51v13h-3.014V460.935h-2.6v-2.411h5.617Z" transform="translate(7605.085 3485.294)" fill="#727478"/>
        <path id="Trazado_627614" data-name="Trazado 627614" d="M334.162,469.118v2.452h-9.823v-1.945l5.014-4.74c1.151-1.1,1.356-1.767,1.356-2.4,0-1.027-.7-1.617-2.082-1.617a3.16,3.16,0,0,0-2.685,1.3l-2.192-1.411a6.036,6.036,0,0,1,5.165-2.411c2.891,0,4.822,1.48,4.822,3.836,0,1.26-.356,2.411-2.178,4.11l-2.987,2.822Z" transform="translate(7607.023 3485.235)" fill="#727478"/>
        <path id="Trazado_627615" data-name="Trazado 627615" d="M344.627,458.51v13h-3.014V460.935h-2.6v-2.411h5.617Z" transform="translate(7612.669 3485.294)" fill="#727478"/>
        <path id="Trazado_627616" data-name="Trazado 627616" d="M354.563,467.542c0,2.192-1.685,4.192-5.384,4.192a8.939,8.939,0,0,1-4.959-1.4l1.164-2.3A6.33,6.33,0,0,0,349.1,469.2c1.507,0,2.425-.617,2.425-1.671,0-.986-.726-1.6-2.425-1.6h-1.37v-1.987l2.672-3.028h-5.535V458.5h9.1v1.945l-2.932,3.343C353.372,464.186,354.563,465.624,354.563,467.542Z" transform="translate(7614.597 3485.29)" fill="#727478"/>
        <path id="Trazado_627617" data-name="Trazado 627617" d="M364.487,458.51v13h-3.014V460.935h-2.6v-2.411h5.617Z" transform="translate(7620.018 3485.294)" fill="#727478"/>
        <path id="Trazado_627618" data-name="Trazado 627618" d="M376.562,468.785h-2.11v2.726h-2.932v-2.726h-7v-2.028l6.124-8.247h3.151l-5.685,7.809H371.6V463.88h2.836v2.439h2.11v2.466Z" transform="translate(7622.108 3485.294)" fill="#727478"/>
        <path id="Trazado_627619" data-name="Trazado 627619" d="M385.637,458.51v13h-3.014V460.935h-2.6v-2.411h5.617Z" transform="translate(7627.843 3485.294)" fill="#727478"/>
        <path id="Trazado_627620" data-name="Trazado 627620" d="M395.737,467.429c0,2.3-1.685,4.3-5.4,4.3a9.006,9.006,0,0,1-4.959-1.4l1.192-2.3a6.287,6.287,0,0,0,3.7,1.165c1.507,0,2.425-.63,2.425-1.685,0-1.027-.671-1.685-3.028-1.685h-3.329l.671-7.316h7.932v2.411h-5.425l-.206,2.466h1.055C394.216,463.4,395.737,465.127,395.737,467.429Z" transform="translate(7629.827 3485.294)" fill="#727478"/>
        <path id="Trazado_627621" data-name="Trazado 627621" d="M405.867,458.51v13h-3.014V460.935h-2.6v-2.411h5.617Z" transform="translate(7635.328 3485.294)" fill="#727478"/>
        <path id="Trazado_627622" data-name="Trazado 627622" d="M416.737,467.461c0,2.658-2.178,4.329-4.918,4.329-3.589,0-5.809-2.247-5.809-6.439,0-4.494,2.713-7,6.631-7a7,7,0,0,1,3.617.89l-1.11,2.206a4.3,4.3,0,0,0-2.425-.644c-2.178,0-3.562,1.288-3.658,3.767a4.355,4.355,0,0,1,3.206-1.151C414.764,463.419,416.737,465.008,416.737,467.461Zm-2.918.151a1.956,1.956,0,0,0-2.206-1.945,2.037,2.037,0,0,0-2.247,1.945c0,1.11.836,1.932,2.288,1.932A1.939,1.939,0,0,0,413.819,467.611Z" transform="translate(7637.459 3485.235)" fill="#727478"/>
        <path id="Trazado_627623" data-name="Trazado 627623" d="M426.5,458.51v13h-3.014V460.935h-2.6v-2.411H426.5Z" transform="translate(7642.961 3485.294)" fill="#727478"/>
        <path id="Trazado_627624" data-name="Trazado 627624" d="M436.868,458.514v1.945L432.046,471.5h-3.261l4.658-10.549h-4.3v2.11H426.47V458.5h10.4Z" transform="translate(7645.03 3485.29)" fill="#727478"/>
        <path id="Trazado_627625" data-name="Trazado 627625" d="M446.747,458.51v13h-3.014V460.935h-2.6v-2.411h5.617Z" transform="translate(7650.454 3485.294)" fill="#727478"/>
        <path id="Trazado_627626" data-name="Trazado 627626" d="M457.776,467.8c0,2.452-2.192,3.987-5.494,3.987s-5.453-1.534-5.453-3.987a3.32,3.32,0,0,1,1.973-3.069,3.014,3.014,0,0,1-1.507-2.671c0-2.288,2.041-3.713,5-3.713,2.987,0,5.028,1.425,5.028,3.713a3.027,3.027,0,0,1-1.521,2.671A3.306,3.306,0,0,1,457.776,467.8Zm-3.041-.1c0-1.151-.945-1.863-2.452-1.863-1.48,0-2.411.712-2.411,1.863s.932,1.877,2.411,1.877C453.79,469.584,454.735,468.858,454.735,467.707Zm-4.452-5.521c0,.986.781,1.6,2,1.6,1.247,0,2.041-.616,2.041-1.6,0-1.027-.822-1.63-2.041-1.63S450.282,461.172,450.282,462.186Z" transform="translate(7652.563 3485.235)" fill="#727478"/>
        <path id="Trazado_627627" data-name="Trazado 627627" d="M467.417,458.51v13H464.4V460.935h-2.6v-2.411h5.617Z" transform="translate(7658.102 3485.294)" fill="#727478"/>
        <path id="Trazado_627628" data-name="Trazado 627628" d="M478.031,464.789c0,4.494-2.685,7-6.631,7a6.984,6.984,0,0,1-3.6-.89l1.11-2.206a4.231,4.231,0,0,0,2.439.644c2.151,0,3.562-1.274,3.658-3.781a4.429,4.429,0,0,1-3.233,1.165c-2.507,0-4.48-1.6-4.48-4.042,0-2.658,2.178-4.329,4.918-4.329C475.825,458.35,478.031,460.6,478.031,464.789Zm-3.357-2.26a1.988,1.988,0,0,0-2.26-1.932,1.953,1.953,0,1,0,.027,3.877A2.017,2.017,0,0,0,474.674,462.529Z" transform="translate(7660.133 3485.235)" fill="#727478"/>
        <path id="Trazado_627629" data-name="Trazado 627629" d="M491.042,469.118v2.452h-9.823v-1.945l5.014-4.74c1.151-1.1,1.356-1.767,1.356-2.4,0-1.027-.7-1.617-2.082-1.617a3.16,3.16,0,0,0-2.685,1.3l-2.192-1.411a6.036,6.036,0,0,1,5.165-2.411c2.891,0,4.822,1.48,4.822,3.836,0,1.26-.356,2.411-2.178,4.11l-2.987,2.822Z" transform="translate(7665.069 3485.235)" fill="#727478"/>
        <path id="Trazado_627630" data-name="Trazado 627630" d="M489.11,465.077c0-4.288,2.37-6.727,5.562-6.727s5.562,2.439,5.562,6.727-2.356,6.713-5.562,6.713C491.494,471.79,489.11,469.365,489.11,465.077Zm8.11,0c0-2.945-1.041-4.178-2.548-4.178-1.48,0-2.521,1.219-2.521,4.178s1.041,4.178,2.521,4.178C496.193,469.242,497.22,468.022,497.22,465.077Z" transform="translate(7668.206 3485.235)" fill="#727478"/>
        <path id="Trazado_627631" data-name="Trazado 627631" d="M513.492,469.118v2.452h-9.823v-1.945l5.014-4.74c1.151-1.1,1.356-1.767,1.356-2.4,0-1.027-.712-1.617-2.082-1.617a3.16,3.16,0,0,0-2.685,1.3l-2.192-1.411a6.036,6.036,0,0,1,5.165-2.411c2.891,0,4.822,1.48,4.822,3.836,0,1.26-.356,2.411-2.165,4.11l-2.987,2.822Z" transform="translate(7673.375 3485.235)" fill="#727478"/>
        <path id="Trazado_627632" data-name="Trazado 627632" d="M516.767,458.51v13h-3.014V460.935h-2.6v-2.411h5.617Z" transform="translate(7676.361 3485.294)" fill="#727478"/>
        <path id="Trazado_627633" data-name="Trazado 627633" d="M532.662,469.118v2.452h-9.823v-1.945l5.014-4.74c1.151-1.1,1.356-1.767,1.356-2.4,0-1.027-.712-1.617-2.082-1.617a3.16,3.16,0,0,0-2.685,1.3l-2.192-1.411a6.036,6.036,0,0,1,5.165-2.411c2.891,0,4.822,1.48,4.822,3.836,0,1.26-.356,2.411-2.165,4.11l-2.987,2.822Z" transform="translate(7680.468 3485.235)" fill="#727478"/>
        <path id="Trazado_627634" data-name="Trazado 627634" d="M540.662,469.118v2.452h-9.823v-1.945l5.014-4.74c1.151-1.1,1.356-1.767,1.356-2.4,0-1.027-.7-1.617-2.082-1.617a3.16,3.16,0,0,0-2.685,1.3l-2.192-1.411a6.036,6.036,0,0,1,5.165-2.411c2.891,0,4.822,1.48,4.822,3.836,0,1.26-.356,2.411-2.178,4.11l-2.987,2.822Z" transform="translate(7683.428 3485.235)" fill="#727478"/>
        <path id="Trazado_627635" data-name="Trazado 627635" d="M553.172,469.118v2.452h-9.823v-1.945l5.014-4.74c1.151-1.1,1.356-1.767,1.356-2.4,0-1.027-.7-1.617-2.082-1.617a3.16,3.16,0,0,0-2.685,1.3l-2.192-1.411a6.036,6.036,0,0,1,5.165-2.411c2.891,0,4.822,1.48,4.822,3.836,0,1.26-.356,2.411-2.178,4.11l-2.987,2.822Z" transform="translate(7688.057 3485.235)" fill="#727478"/>
        <path id="Trazado_627636" data-name="Trazado 627636" d="M561.064,467.542c0,2.192-1.685,4.192-5.384,4.192a8.94,8.94,0,0,1-4.959-1.4l1.164-2.3A6.329,6.329,0,0,0,555.6,469.2c1.507,0,2.425-.617,2.425-1.671,0-.986-.726-1.6-2.425-1.6h-1.37v-1.987l2.672-3.028h-5.535V458.5h9.1v1.945l-2.932,3.343C559.872,464.186,561.064,465.624,561.064,467.542Z" transform="translate(7691.001 3485.29)" fill="#727478"/>
        <path id="Trazado_627637" data-name="Trazado 627637" d="M573.092,469.118v2.452h-9.823v-1.945l5.014-4.74c1.151-1.1,1.356-1.767,1.356-2.4,0-1.027-.7-1.617-2.082-1.617a3.16,3.16,0,0,0-2.685,1.3l-2.192-1.411a6.036,6.036,0,0,1,5.165-2.411c2.891,0,4.822,1.48,4.822,3.836,0,1.26-.356,2.411-2.178,4.11l-2.987,2.822Z" transform="translate(7695.427 3485.235)" fill="#727478"/>
        <path id="Trazado_627638" data-name="Trazado 627638" d="M582.992,468.785h-2.11v2.726h-2.932v-2.726h-7v-2.028l6.124-8.247h3.151l-5.686,7.809h3.493V463.88h2.836v2.439h2.11v2.466Z" transform="translate(7698.487 3485.294)" fill="#727478"/>
        <path id="Trazado_627639" data-name="Trazado 627639" d="M594.182,469.118v2.452h-9.823v-1.945l5.014-4.74c1.151-1.1,1.356-1.767,1.356-2.4,0-1.027-.7-1.617-2.082-1.617a3.16,3.16,0,0,0-2.685,1.3l-2.192-1.411a6.036,6.036,0,0,1,5.165-2.411c2.891,0,4.822,1.48,4.822,3.836,0,1.26-.356,2.411-2.178,4.11l-2.987,2.822Z" transform="translate(7703.23 3485.235)" fill="#727478"/>
        <path id="Trazado_627640" data-name="Trazado 627640" d="M602.237,467.429c0,2.3-1.685,4.3-5.4,4.3a9.006,9.006,0,0,1-4.959-1.4l1.192-2.3a6.287,6.287,0,0,0,3.7,1.165c1.507,0,2.425-.63,2.425-1.685,0-1.027-.671-1.685-3.028-1.685h-3.329l.671-7.316h7.932v2.411h-5.425l-.206,2.466h1.055C600.717,463.4,602.237,465.127,602.237,467.429Z" transform="translate(7706.231 3485.294)" fill="#727478"/>
        <path id="Trazado_627641" data-name="Trazado 627641" d="M614.422,469.118v2.452H604.6v-1.945l5.014-4.74c1.151-1.1,1.356-1.767,1.356-2.4,0-1.027-.7-1.617-2.082-1.617a3.16,3.16,0,0,0-2.685,1.3l-2.192-1.411a6.036,6.036,0,0,1,5.165-2.411c2.891,0,4.822,1.48,4.822,3.836,0,1.26-.356,2.411-2.178,4.11l-2.987,2.822Z" transform="translate(7710.719 3485.235)" fill="#727478"/>
        <path id="Trazado_627642" data-name="Trazado 627642" d="M623.227,467.461c0,2.658-2.178,4.329-4.918,4.329-3.589,0-5.809-2.247-5.809-6.439,0-4.494,2.713-7,6.631-7a7,7,0,0,1,3.617.89l-1.11,2.206a4.3,4.3,0,0,0-2.425-.644c-2.178,0-3.562,1.288-3.658,3.767a4.355,4.355,0,0,1,3.206-1.151C621.254,463.419,623.227,465.008,623.227,467.461Zm-2.918.151a1.956,1.956,0,0,0-2.206-1.945,2.037,2.037,0,0,0-2.247,1.945c0,1.11.836,1.932,2.288,1.932A1.939,1.939,0,0,0,620.309,467.611Z" transform="translate(7713.86 3485.235)" fill="#727478"/>
        <path id="Trazado_627643" data-name="Trazado 627643" d="M635.052,469.118v2.452h-9.823v-1.945l5.014-4.74c1.151-1.1,1.356-1.767,1.356-2.4,0-1.027-.712-1.617-2.082-1.617a3.16,3.16,0,0,0-2.685,1.3l-2.192-1.411a6.036,6.036,0,0,1,5.165-2.411c2.891,0,4.822,1.48,4.822,3.836,0,1.26-.356,2.411-2.165,4.11l-2.987,2.822Z" transform="translate(7718.352 3485.235)" fill="#727478"/>
        <path id="Trazado_627644" data-name="Trazado 627644" d="M643.358,458.514v1.945L638.536,471.5h-3.261l4.658-10.549h-4.3v2.11H632.96V458.5h10.4Z" transform="translate(7721.431 3485.29)" fill="#727478"/>
        <path id="Trazado_627645" data-name="Trazado 627645" d="M655.292,469.118v2.452h-9.823v-1.945l5.014-4.74c1.151-1.1,1.356-1.767,1.356-2.4,0-1.027-.712-1.617-2.082-1.617a3.16,3.16,0,0,0-2.685,1.3l-2.192-1.411a6.036,6.036,0,0,1,5.165-2.411c2.891,0,4.822,1.48,4.822,3.836,0,1.26-.356,2.411-2.165,4.11l-2.987,2.822Z" transform="translate(7725.841 3485.235)" fill="#727478"/>
        <path id="Trazado_627646" data-name="Trazado 627646" d="M664.276,467.8c0,2.452-2.192,3.987-5.494,3.987s-5.453-1.534-5.453-3.987a3.32,3.32,0,0,1,1.973-3.069,3.014,3.014,0,0,1-1.507-2.671c0-2.288,2.041-3.713,5-3.713,2.987,0,5.028,1.425,5.028,3.713a3.027,3.027,0,0,1-1.521,2.671A3.284,3.284,0,0,1,664.276,467.8Zm-3.042-.1c0-1.151-.945-1.863-2.452-1.863-1.48,0-2.411.712-2.411,1.863s.932,1.877,2.411,1.877C660.29,469.584,661.235,468.858,661.235,467.707Zm-4.453-5.521c0,.986.781,1.6,2,1.6,1.247,0,2.041-.616,2.041-1.6,0-1.027-.822-1.63-2.041-1.63S656.782,461.172,656.782,462.186Z" transform="translate(7728.967 3485.235)" fill="#727478"/>
        <path id="Trazado_627647" data-name="Trazado 627647" d="M675.962,469.118v2.452h-9.823v-1.945l5.014-4.74c1.151-1.1,1.356-1.767,1.356-2.4,0-1.027-.712-1.617-2.082-1.617a3.16,3.16,0,0,0-2.685,1.3l-2.192-1.411a6.036,6.036,0,0,1,5.165-2.411c2.891,0,4.823,1.48,4.823,3.836,0,1.26-.356,2.411-2.165,4.11l-2.987,2.822Z" transform="translate(7733.488 3485.235)" fill="#727478"/>
        <path id="Trazado_627648" data-name="Trazado 627648" d="M684.534,464.789c0,4.494-2.685,7-6.631,7a6.984,6.984,0,0,1-3.6-.89l1.11-2.206a4.216,4.216,0,0,0,2.425.644c2.151,0,3.562-1.274,3.658-3.781a4.429,4.429,0,0,1-3.233,1.165c-2.507,0-4.48-1.6-4.48-4.042,0-2.658,2.178-4.329,4.918-4.329C682.329,458.35,684.534,460.6,684.534,464.789Zm-3.356-2.26a1.988,1.988,0,0,0-2.261-1.932,1.953,1.953,0,1,0,.041,3.877A2.012,2.012,0,0,0,681.178,462.529Z" transform="translate(7736.533 3485.235)" fill="#727478"/>
        <path id="Trazado_627649" data-name="Trazado 627649" d="M696.083,467.542c0,2.192-1.685,4.192-5.384,4.192a8.939,8.939,0,0,1-4.959-1.4l1.164-2.3a6.329,6.329,0,0,0,3.713,1.165c1.507,0,2.425-.617,2.425-1.671,0-.986-.726-1.6-2.425-1.6h-1.37v-1.987l2.672-3.028h-5.535V458.5h9.1v1.945l-2.932,3.343C694.892,464.186,696.083,465.624,696.083,467.542Z" transform="translate(7740.958 3485.29)" fill="#727478"/>
        <path id="Trazado_627650" data-name="Trazado 627650" d="M694.31,465.077c0-4.288,2.37-6.727,5.562-6.727s5.562,2.439,5.562,6.727-2.356,6.713-5.562,6.713S694.31,469.365,694.31,465.077Zm8.11,0c0-2.945-1.041-4.178-2.548-4.178-1.48,0-2.521,1.219-2.521,4.178s1.041,4.178,2.521,4.178C701.379,469.242,702.42,468.022,702.42,465.077Z" transform="translate(7744.129 3485.235)" fill="#727478"/>
        <path id="Trazado_627651" data-name="Trazado 627651" d="M718.544,467.542c0,2.192-1.685,4.192-5.384,4.192a8.94,8.94,0,0,1-4.959-1.4l1.164-2.3a6.33,6.33,0,0,0,3.713,1.165c1.507,0,2.439-.617,2.439-1.671,0-.986-.726-1.6-2.439-1.6h-1.37v-1.987l2.672-3.028h-5.535V458.5h9.1v1.945l-2.932,3.343C717.352,464.186,718.544,465.624,718.544,467.542Z" transform="translate(7749.269 3485.29)" fill="#727478"/>
        <path id="Trazado_627652" data-name="Trazado 627652" d="M721.947,458.51v13h-3.014V460.935h-2.6v-2.411h5.617Z" transform="translate(7752.277 3485.294)" fill="#727478"/>
        <path id="Trazado_627653" data-name="Trazado 627653" d="M32.827,133.67V122.217H28.32V120.08H39.855v2.137H35.348V133.67Z" transform="translate(7497.716 3360.076)" fill="#727478"/>
        <path id="Trazado_627654" data-name="Trazado 627654" d="M40.883,132.967a4.977,4.977,0,0,1-2.041-.4,3.006,3.006,0,0,1-1.343-1.11,2.8,2.8,0,0,1-.479-1.6,3.037,3.037,0,0,1,.411-1.575,2.834,2.834,0,0,1,1.37-1.11,6.452,6.452,0,0,1,2.521-.411h3.014v1.617H41.514a2.582,2.582,0,0,0-1.671.4,1.342,1.342,0,0,0,.1,2.041,2.376,2.376,0,0,0,1.452.384,3.173,3.173,0,0,0,1.6-.411,2.263,2.263,0,0,0,1.014-1.206l.411,1.452a2.662,2.662,0,0,1-1.247,1.411A4.454,4.454,0,0,1,40.883,132.967Zm3.261-.137v-2.1l-.137-.452v-3.672a2.156,2.156,0,0,0-.644-1.658,2.755,2.755,0,0,0-1.945-.589,5.665,5.665,0,0,0-1.712.274,4.268,4.268,0,0,0-1.425.754l-.945-1.767a5.7,5.7,0,0,1,1.986-.959,8.725,8.725,0,0,1,2.4-.315,5.067,5.067,0,0,1,3.48,1.082,4.175,4.175,0,0,1,1.233,3.329v6.069Z" transform="translate(7500.935 3360.916)" fill="#727478"/>
        <path id="Trazado_627655" data-name="Trazado 627655" d="M46.16,132.834V122.463h2.315v2.85l-.274-.836a3.246,3.246,0,0,1,1.466-1.589,5.244,5.244,0,0,1,2.493-.548v2.315c-.11-.027-.205-.041-.288-.055s-.178-.014-.274-.014a3,3,0,0,0-2.192.808,3.22,3.22,0,0,0-.822,2.4v5.042Z" transform="translate(7504.316 3360.912)" fill="#727478"/>
        <path id="Trazado_627656" data-name="Trazado 627656" d="M57.077,132.967a6.355,6.355,0,0,1-3.014-.685,5.118,5.118,0,0,1-2-1.891,5.24,5.24,0,0,1-.712-2.74,5.422,5.422,0,0,1,.685-2.74,4.917,4.917,0,0,1,1.9-1.877,5.563,5.563,0,0,1,2.767-.685,5.468,5.468,0,0,1,2.7.658,4.688,4.688,0,0,1,1.863,1.863,5.717,5.717,0,0,1,.685,2.836,2.981,2.981,0,0,1-.014.342,3.359,3.359,0,0,1-.027.37H53.268V126.8h7.357l-.945.507a2.982,2.982,0,0,0-.37-1.576,2.923,2.923,0,0,0-1.055-1.069,3.019,3.019,0,0,0-1.548-.384,3.07,3.07,0,0,0-1.562.384,2.764,2.764,0,0,0-1.055,1.082,3.4,3.4,0,0,0-.384,1.617v.384a3.129,3.129,0,0,0,.425,1.644,2.865,2.865,0,0,0,1.206,1.11,3.914,3.914,0,0,0,1.781.384,4.365,4.365,0,0,0,1.575-.274,3.43,3.43,0,0,0,1.247-.849l1.3,1.493a4.51,4.51,0,0,1-1.754,1.247A5.826,5.826,0,0,1,57.077,132.967Z" transform="translate(7506.237 3360.916)" fill="#727478"/>
        <path id="Trazado_627657" data-name="Trazado 627657" d="M63.893,132.967a4.977,4.977,0,0,1-2.041-.4,3.006,3.006,0,0,1-1.343-1.11,2.8,2.8,0,0,1-.479-1.6,3.037,3.037,0,0,1,.411-1.575,2.834,2.834,0,0,1,1.37-1.11,6.452,6.452,0,0,1,2.521-.411h3.014v1.617H64.51a2.582,2.582,0,0,0-1.671.4,1.342,1.342,0,0,0,.1,2.041,2.376,2.376,0,0,0,1.452.384,3.173,3.173,0,0,0,1.6-.411A2.263,2.263,0,0,0,67,129.584l.411,1.452a2.662,2.662,0,0,1-1.247,1.411A4.335,4.335,0,0,1,63.893,132.967Zm3.274-.137v-2.1l-.137-.452v-3.672a2.156,2.156,0,0,0-.644-1.658,2.755,2.755,0,0,0-1.945-.589,5.665,5.665,0,0,0-1.712.274,4.268,4.268,0,0,0-1.425.754l-.945-1.767a5.7,5.7,0,0,1,1.986-.959,8.725,8.725,0,0,1,2.4-.315,5.067,5.067,0,0,1,3.48,1.082,4.175,4.175,0,0,1,1.233,3.329v6.069Z" transform="translate(7509.448 3360.916)" fill="#727478"/>
        <path id="Trazado_627658" data-name="Trazado 627658" d="M74.9,133.667V121.049l1.11,1.151H72.04v-2.11h5.4v13.577Z" transform="translate(7513.892 3360.08)" fill="#727478"/>
        <path id="Trazado_627659" data-name="Trazado 627659" d="M32.827,169.45V158H28.32V155.86H39.855V158H35.348V169.45Z" transform="translate(7497.716 3373.314)" fill="#727478"/>
        <path id="Trazado_627660" data-name="Trazado 627660" d="M40.883,168.747a4.977,4.977,0,0,1-2.041-.4,3.006,3.006,0,0,1-1.343-1.11,2.8,2.8,0,0,1-.479-1.6,3.037,3.037,0,0,1,.411-1.576,2.834,2.834,0,0,1,1.37-1.11,6.452,6.452,0,0,1,2.521-.411h3.014v1.617H41.514a2.582,2.582,0,0,0-1.671.4,1.342,1.342,0,0,0,.1,2.041,2.377,2.377,0,0,0,1.452.384,3.173,3.173,0,0,0,1.6-.411,2.263,2.263,0,0,0,1.014-1.206l.411,1.452a2.662,2.662,0,0,1-1.247,1.411A4.454,4.454,0,0,1,40.883,168.747Zm3.261-.137v-2.1l-.137-.452v-3.672a2.156,2.156,0,0,0-.644-1.658,2.755,2.755,0,0,0-1.945-.589,5.665,5.665,0,0,0-1.712.274,4.268,4.268,0,0,0-1.425.753l-.945-1.767a5.705,5.705,0,0,1,1.986-.959,8.725,8.725,0,0,1,2.4-.315,5.067,5.067,0,0,1,3.48,1.082,4.175,4.175,0,0,1,1.233,3.329v6.083H44.144Z" transform="translate(7500.935 3374.154)" fill="#727478"/>
        <path id="Trazado_627661" data-name="Trazado 627661" d="M46.16,168.614V158.243h2.315v2.85l-.274-.836a3.246,3.246,0,0,1,1.466-1.589,5.244,5.244,0,0,1,2.493-.548v2.315c-.11-.027-.205-.041-.288-.055s-.178-.014-.274-.014a3,3,0,0,0-2.192.808,3.22,3.22,0,0,0-.822,2.4V168.6H46.16Z" transform="translate(7504.316 3374.151)" fill="#727478"/>
        <path id="Trazado_627662" data-name="Trazado 627662" d="M57.077,168.747a6.354,6.354,0,0,1-3.014-.685,5.118,5.118,0,0,1-2-1.891,5.24,5.24,0,0,1-.712-2.74,5.422,5.422,0,0,1,.685-2.74,4.917,4.917,0,0,1,1.9-1.877,5.563,5.563,0,0,1,2.767-.685,5.469,5.469,0,0,1,2.7.658,4.689,4.689,0,0,1,1.863,1.863,5.717,5.717,0,0,1,.685,2.836,2.981,2.981,0,0,1-.014.342,3.36,3.36,0,0,1-.027.37H53.268v-1.617h7.357l-.945.507a2.982,2.982,0,0,0-.37-1.575,2.923,2.923,0,0,0-1.055-1.069,3.019,3.019,0,0,0-1.548-.384,3.07,3.07,0,0,0-1.562.384,2.764,2.764,0,0,0-1.055,1.082,3.4,3.4,0,0,0-.384,1.617v.384a3.129,3.129,0,0,0,.425,1.644,2.865,2.865,0,0,0,1.206,1.11,3.914,3.914,0,0,0,1.781.384,4.365,4.365,0,0,0,1.575-.274,3.43,3.43,0,0,0,1.247-.849l1.3,1.493a4.51,4.51,0,0,1-1.754,1.247A5.826,5.826,0,0,1,57.077,168.747Z" transform="translate(7506.237 3374.154)" fill="#727478"/>
        <path id="Trazado_627663" data-name="Trazado 627663" d="M63.893,168.747a4.977,4.977,0,0,1-2.041-.4,3.006,3.006,0,0,1-1.343-1.11,2.8,2.8,0,0,1-.479-1.6,3.037,3.037,0,0,1,.411-1.576,2.834,2.834,0,0,1,1.37-1.11,6.452,6.452,0,0,1,2.521-.411h3.014v1.617H64.51a2.582,2.582,0,0,0-1.671.4,1.342,1.342,0,0,0,.1,2.041,2.377,2.377,0,0,0,1.452.384,3.173,3.173,0,0,0,1.6-.411A2.263,2.263,0,0,0,67,165.364l.411,1.452a2.662,2.662,0,0,1-1.247,1.411A4.335,4.335,0,0,1,63.893,168.747Zm3.274-.137v-2.1l-.137-.452v-3.672a2.156,2.156,0,0,0-.644-1.658,2.755,2.755,0,0,0-1.945-.589,5.665,5.665,0,0,0-1.712.274,4.268,4.268,0,0,0-1.425.753l-.945-1.767a5.705,5.705,0,0,1,1.986-.959,8.725,8.725,0,0,1,2.4-.315,5.067,5.067,0,0,1,3.48,1.082,4.175,4.175,0,0,1,1.233,3.329v6.083H67.168Z" transform="translate(7509.448 3374.154)" fill="#727478"/>
        <path id="Trazado_627664" data-name="Trazado 627664" d="M72.557,169.5v-1.685l5.4-5.124a7.586,7.586,0,0,0,1.014-1.123,3.012,3.012,0,0,0,.438-.9,3.245,3.245,0,0,0,.11-.781,1.776,1.776,0,0,0-.644-1.452A2.946,2.946,0,0,0,77,157.912a4.46,4.46,0,0,0-1.795.343,3.6,3.6,0,0,0-1.384,1.069l-1.767-1.356a5.256,5.256,0,0,1,2.151-1.658,7.4,7.4,0,0,1,3.014-.589,6.5,6.5,0,0,1,2.576.48,3.861,3.861,0,0,1,1.685,1.343,3.611,3.611,0,0,1,.589,2.082,4.828,4.828,0,0,1-.178,1.315,4.974,4.974,0,0,1-.658,1.37,10.433,10.433,0,0,1-1.411,1.617l-4.644,4.411-.521-.945H82.6v2.137H72.557Z" transform="translate(7513.896 3373.263)" fill="#727478"/>
        <path id="Trazado_627665" data-name="Trazado 627665" d="M32.827,205.23V193.777H28.32V191.64H39.855v2.137H35.348V205.23Z" transform="translate(7497.716 3386.553)" fill="#727478"/>
        <path id="Trazado_627666" data-name="Trazado 627666" d="M40.883,204.527a4.978,4.978,0,0,1-2.041-.4,3.006,3.006,0,0,1-1.343-1.11,2.8,2.8,0,0,1-.479-1.6,3.037,3.037,0,0,1,.411-1.575,2.834,2.834,0,0,1,1.37-1.11,6.452,6.452,0,0,1,2.521-.411h3.014v1.617H41.514a2.582,2.582,0,0,0-1.671.4,1.343,1.343,0,0,0,.1,2.041,2.377,2.377,0,0,0,1.452.384,3.173,3.173,0,0,0,1.6-.411,2.263,2.263,0,0,0,1.014-1.206l.411,1.452a2.662,2.662,0,0,1-1.247,1.411A4.454,4.454,0,0,1,40.883,204.527Zm3.261-.137v-2.1l-.137-.452v-3.672a2.156,2.156,0,0,0-.644-1.658,2.755,2.755,0,0,0-1.945-.589,5.665,5.665,0,0,0-1.712.274,4.268,4.268,0,0,0-1.425.753l-.945-1.767a5.7,5.7,0,0,1,1.986-.959,8.724,8.724,0,0,1,2.4-.315,5.067,5.067,0,0,1,3.48,1.082,4.175,4.175,0,0,1,1.233,3.329V204.4H44.144Z" transform="translate(7500.935 3387.393)" fill="#727478"/>
        <path id="Trazado_627667" data-name="Trazado 627667" d="M46.16,204.39V194.033h2.315v2.85l-.274-.836a3.247,3.247,0,0,1,1.466-1.589,5.244,5.244,0,0,1,2.493-.548v2.315c-.11-.027-.205-.041-.288-.055s-.178-.014-.274-.014a3,3,0,0,0-2.192.808,3.22,3.22,0,0,0-.822,2.4v5.028H46.16Z" transform="translate(7504.316 3387.393)" fill="#727478"/>
        <path id="Trazado_627668" data-name="Trazado 627668" d="M57.077,204.527a6.355,6.355,0,0,1-3.014-.685,5.119,5.119,0,0,1-2-1.891,5.24,5.24,0,0,1-.712-2.74,5.422,5.422,0,0,1,.685-2.74,4.917,4.917,0,0,1,1.9-1.877,5.563,5.563,0,0,1,2.767-.685,5.468,5.468,0,0,1,2.7.658,4.689,4.689,0,0,1,1.863,1.863,5.717,5.717,0,0,1,.685,2.836,2.98,2.98,0,0,1-.014.342,3.36,3.36,0,0,1-.027.37H53.268v-1.617h7.357l-.945.507a2.982,2.982,0,0,0-.37-1.575,2.923,2.923,0,0,0-1.055-1.069,3.019,3.019,0,0,0-1.548-.384,3.07,3.07,0,0,0-1.562.384,2.764,2.764,0,0,0-1.055,1.082,3.4,3.4,0,0,0-.384,1.617v.384a3.129,3.129,0,0,0,.425,1.644,2.865,2.865,0,0,0,1.206,1.11,3.914,3.914,0,0,0,1.781.384,4.366,4.366,0,0,0,1.575-.274,3.43,3.43,0,0,0,1.247-.849l1.3,1.493a4.51,4.51,0,0,1-1.754,1.247A5.615,5.615,0,0,1,57.077,204.527Z" transform="translate(7506.237 3387.393)" fill="#727478"/>
        <path id="Trazado_627669" data-name="Trazado 627669" d="M63.893,204.527a4.978,4.978,0,0,1-2.041-.4,3.006,3.006,0,0,1-1.343-1.11,2.8,2.8,0,0,1-.479-1.6,3.037,3.037,0,0,1,.411-1.575,2.834,2.834,0,0,1,1.37-1.11,6.452,6.452,0,0,1,2.521-.411h3.014v1.617H64.51a2.582,2.582,0,0,0-1.671.4,1.343,1.343,0,0,0,.1,2.041,2.377,2.377,0,0,0,1.452.384,3.173,3.173,0,0,0,1.6-.411A2.263,2.263,0,0,0,67,201.144l.411,1.452a2.662,2.662,0,0,1-1.247,1.411A4.334,4.334,0,0,1,63.893,204.527Zm3.274-.137v-2.1l-.137-.452v-3.672a2.156,2.156,0,0,0-.644-1.658,2.755,2.755,0,0,0-1.945-.589,5.665,5.665,0,0,0-1.712.274,4.268,4.268,0,0,0-1.425.753l-.945-1.767a5.7,5.7,0,0,1,1.986-.959,8.724,8.724,0,0,1,2.4-.315,5.067,5.067,0,0,1,3.48,1.082,4.175,4.175,0,0,1,1.233,3.329V204.4H67.168Z" transform="translate(7509.448 3387.393)" fill="#727478"/>
        <path id="Trazado_627670" data-name="Trazado 627670" d="M77.04,205.418a9.745,9.745,0,0,1-2.808-.411,6.717,6.717,0,0,1-2.3-1.151l1.082-1.959a5.983,5.983,0,0,0,1.781.973,6.518,6.518,0,0,0,2.192.37,3.484,3.484,0,0,0,2.11-.548,1.768,1.768,0,0,0,.754-1.507,1.794,1.794,0,0,0-.7-1.48,3.732,3.732,0,0,0-2.247-.548H75.656v-1.726l3.877-4.617.329.945h-7.3v-2.11h9.261v1.685l-3.877,4.617-1.315-.781h.753a5.51,5.51,0,0,1,3.754,1.11,3.649,3.649,0,0,1,1.247,2.863,4.036,4.036,0,0,1-.575,2.11,4.175,4.175,0,0,1-1.781,1.562A6.292,6.292,0,0,1,77.04,205.418Z" transform="translate(7513.851 3386.557)" fill="#727478"/>
        <path id="Trazado_627671" data-name="Trazado 627671" d="M32.827,241.01V229.557H28.32V227.42H39.855v2.137H35.348V241.01Z" transform="translate(7497.716 3399.792)" fill="#727478"/>
        <path id="Trazado_627672" data-name="Trazado 627672" d="M40.883,240.307a4.977,4.977,0,0,1-2.041-.4A3.006,3.006,0,0,1,37.5,238.8a2.8,2.8,0,0,1-.479-1.6,3.037,3.037,0,0,1,.411-1.576,2.834,2.834,0,0,1,1.37-1.11,6.453,6.453,0,0,1,2.521-.411h3.014v1.617H41.514a2.582,2.582,0,0,0-1.671.4,1.343,1.343,0,0,0,.1,2.041,2.377,2.377,0,0,0,1.452.384,3.173,3.173,0,0,0,1.6-.411,2.263,2.263,0,0,0,1.014-1.206l.411,1.452a2.662,2.662,0,0,1-1.247,1.411A4.454,4.454,0,0,1,40.883,240.307Zm3.261-.137v-2.1l-.137-.452v-3.672a2.156,2.156,0,0,0-.644-1.658,2.755,2.755,0,0,0-1.945-.589,5.666,5.666,0,0,0-1.712.274,4.268,4.268,0,0,0-1.425.753l-.945-1.767a5.705,5.705,0,0,1,1.986-.959,8.725,8.725,0,0,1,2.4-.315,5.067,5.067,0,0,1,3.48,1.082,4.175,4.175,0,0,1,1.233,3.329v6.083H44.144Z" transform="translate(7500.935 3400.631)" fill="#727478"/>
        <path id="Trazado_627673" data-name="Trazado 627673" d="M46.16,240.174V229.8h2.315v2.85l-.274-.836a3.246,3.246,0,0,1,1.466-1.589,5.244,5.244,0,0,1,2.493-.548V232c-.11-.027-.205-.041-.288-.055s-.178-.014-.274-.014a3,3,0,0,0-2.192.808,3.22,3.22,0,0,0-.822,2.4v5.028H46.16Z" transform="translate(7504.316 3400.628)" fill="#727478"/>
        <path id="Trazado_627674" data-name="Trazado 627674" d="M57.077,240.307a6.354,6.354,0,0,1-3.014-.685,5.118,5.118,0,0,1-2-1.891,5.24,5.24,0,0,1-.712-2.74,5.422,5.422,0,0,1,.685-2.74,4.917,4.917,0,0,1,1.9-1.877,5.563,5.563,0,0,1,2.767-.685,5.468,5.468,0,0,1,2.7.658,4.689,4.689,0,0,1,1.863,1.863,5.717,5.717,0,0,1,.685,2.836,2.981,2.981,0,0,1-.014.342,3.36,3.36,0,0,1-.027.37H53.268v-1.617h7.357l-.945.507a2.982,2.982,0,0,0-.37-1.575,2.923,2.923,0,0,0-1.055-1.069,3.019,3.019,0,0,0-1.548-.384,3.071,3.071,0,0,0-1.562.384,2.764,2.764,0,0,0-1.055,1.082,3.4,3.4,0,0,0-.384,1.617v.384a3.129,3.129,0,0,0,.425,1.644,2.865,2.865,0,0,0,1.206,1.11,3.914,3.914,0,0,0,1.781.384,4.365,4.365,0,0,0,1.575-.274,3.43,3.43,0,0,0,1.247-.849l1.3,1.493a4.51,4.51,0,0,1-1.754,1.247A5.615,5.615,0,0,1,57.077,240.307Z" transform="translate(7506.237 3400.631)" fill="#727478"/>
        <path id="Trazado_627675" data-name="Trazado 627675" d="M63.893,240.307a4.977,4.977,0,0,1-2.041-.4,3.006,3.006,0,0,1-1.343-1.11,2.8,2.8,0,0,1-.479-1.6,3.037,3.037,0,0,1,.411-1.576,2.834,2.834,0,0,1,1.37-1.11,6.453,6.453,0,0,1,2.521-.411h3.014v1.617H64.51a2.582,2.582,0,0,0-1.671.4,1.343,1.343,0,0,0,.1,2.041,2.377,2.377,0,0,0,1.452.384,3.173,3.173,0,0,0,1.6-.411A2.263,2.263,0,0,0,67,236.924l.411,1.452a2.662,2.662,0,0,1-1.247,1.411A4.334,4.334,0,0,1,63.893,240.307Zm3.274-.137v-2.1l-.137-.452v-3.672a2.156,2.156,0,0,0-.644-1.658,2.755,2.755,0,0,0-1.945-.589,5.666,5.666,0,0,0-1.712.274,4.268,4.268,0,0,0-1.425.753l-.945-1.767a5.705,5.705,0,0,1,1.986-.959,8.725,8.725,0,0,1,2.4-.315,5.067,5.067,0,0,1,3.48,1.082,4.175,4.175,0,0,1,1.233,3.329v6.083H67.168Z" transform="translate(7509.448 3400.631)" fill="#727478"/>
        <path id="Trazado_627676" data-name="Trazado 627676" d="M72.4,237.928v-1.754l6.7-8.754h2.7l-6.6,8.754-1.26-.384H84.7v2.137Zm7.466,3.082v-3.082l.082-2.137v-2.74h2.37v7.96Z" transform="translate(7514.025 3399.792)" fill="#727478"/>
        <path id="Trazado_627677" data-name="Trazado 627677" d="M32.827,276.8V265.347H28.32V263.21H39.855v2.137H35.348V276.8Z" transform="translate(7497.716 3413.034)" fill="#727478"/>
        <path id="Trazado_627678" data-name="Trazado 627678" d="M40.883,276.1a4.977,4.977,0,0,1-2.041-.4,3.005,3.005,0,0,1-1.343-1.11,2.8,2.8,0,0,1-.479-1.6,3.072,3.072,0,0,1,.411-1.576,2.834,2.834,0,0,1,1.37-1.11,6.453,6.453,0,0,1,2.521-.411h3.014v1.617H41.514a2.582,2.582,0,0,0-1.671.4,1.267,1.267,0,0,0-.425.986,1.225,1.225,0,0,0,.521,1.041,2.376,2.376,0,0,0,1.452.384,3.173,3.173,0,0,0,1.6-.411,2.263,2.263,0,0,0,1.014-1.206l.411,1.452a2.74,2.74,0,0,1-1.247,1.425A4.6,4.6,0,0,1,40.883,276.1Zm3.261-.137v-2.1l-.137-.452v-3.672a2.156,2.156,0,0,0-.644-1.658,2.755,2.755,0,0,0-1.945-.589,5.665,5.665,0,0,0-1.712.274,4.268,4.268,0,0,0-1.425.753l-.945-1.767a5.706,5.706,0,0,1,1.986-.959,8.725,8.725,0,0,1,2.4-.315,5.067,5.067,0,0,1,3.48,1.082,4.175,4.175,0,0,1,1.233,3.329v6.069Z" transform="translate(7500.935 3413.874)" fill="#727478"/>
        <path id="Trazado_627679" data-name="Trazado 627679" d="M46.16,275.964V265.593h2.315v2.85l-.274-.836a3.247,3.247,0,0,1,1.466-1.589,5.244,5.244,0,0,1,2.493-.548v2.315c-.11-.027-.205-.041-.288-.055s-.178-.014-.274-.014a3,3,0,0,0-2.192.808,3.22,3.22,0,0,0-.822,2.4v5.028H46.16Z" transform="translate(7504.316 3413.87)" fill="#727478"/>
        <path id="Trazado_627680" data-name="Trazado 627680" d="M57.077,276.1a6.355,6.355,0,0,1-3.014-.685,5.118,5.118,0,0,1-2-1.891,5.24,5.24,0,0,1-.712-2.74,5.422,5.422,0,0,1,.685-2.74,4.917,4.917,0,0,1,1.9-1.877,5.563,5.563,0,0,1,2.767-.685,5.468,5.468,0,0,1,2.7.658A4.777,4.777,0,0,1,61.269,268a5.717,5.717,0,0,1,.685,2.836,2.982,2.982,0,0,1-.014.343,3.359,3.359,0,0,1-.027.37H53.268v-1.617h7.357l-.945.507a2.982,2.982,0,0,0-.37-1.575,2.923,2.923,0,0,0-1.055-1.069,3.02,3.02,0,0,0-1.548-.384,3.071,3.071,0,0,0-1.562.384,2.764,2.764,0,0,0-1.055,1.082,3.4,3.4,0,0,0-.384,1.617v.384a3.178,3.178,0,0,0,.425,1.658,2.864,2.864,0,0,0,1.206,1.11,3.914,3.914,0,0,0,1.781.384,4.364,4.364,0,0,0,1.575-.274,3.429,3.429,0,0,0,1.247-.849l1.3,1.493a4.511,4.511,0,0,1-1.754,1.247A6.056,6.056,0,0,1,57.077,276.1Z" transform="translate(7506.237 3413.874)" fill="#727478"/>
        <path id="Trazado_627681" data-name="Trazado 627681" d="M63.893,276.1a4.977,4.977,0,0,1-2.041-.4,3.005,3.005,0,0,1-1.343-1.11,2.8,2.8,0,0,1-.479-1.6,3.072,3.072,0,0,1,.411-1.576,2.834,2.834,0,0,1,1.37-1.11,6.453,6.453,0,0,1,2.521-.411h3.014v1.617H64.51a2.582,2.582,0,0,0-1.671.4,1.267,1.267,0,0,0-.425.986,1.225,1.225,0,0,0,.521,1.041,2.376,2.376,0,0,0,1.452.384,3.173,3.173,0,0,0,1.6-.411A2.263,2.263,0,0,0,67,272.7l.411,1.452a2.74,2.74,0,0,1-1.247,1.425A4.47,4.47,0,0,1,63.893,276.1Zm3.274-.137v-2.1l-.137-.452v-3.672a2.156,2.156,0,0,0-.644-1.658,2.755,2.755,0,0,0-1.945-.589,5.665,5.665,0,0,0-1.712.274,4.268,4.268,0,0,0-1.425.753l-.945-1.767a5.706,5.706,0,0,1,1.986-.959,8.725,8.725,0,0,1,2.4-.315,5.067,5.067,0,0,1,3.48,1.082,4.175,4.175,0,0,1,1.233,3.329v6.069Z" transform="translate(7509.448 3413.874)" fill="#727478"/>
        <path id="Trazado_627682" data-name="Trazado 627682" d="M77.21,276.988a9.746,9.746,0,0,1-2.809-.411,6.717,6.717,0,0,1-2.3-1.151l1.069-1.959a6.061,6.061,0,0,0,1.795.973,6.6,6.6,0,0,0,2.206.37,3.568,3.568,0,0,0,2.11-.562,1.787,1.787,0,0,0,.767-1.521,2.069,2.069,0,0,0-.315-1.123,1.983,1.983,0,0,0-1.123-.74,7.824,7.824,0,0,0-2.206-.247H73.114l.7-7.4h7.973v2.11H74.744l1.315-1.206-.521,5.535-1.315-1.178h2.74a8.272,8.272,0,0,1,3.247.534,3.8,3.8,0,0,1,1.808,1.48,4.043,4.043,0,0,1,.575,2.151,4.072,4.072,0,0,1-2.37,3.767A7.074,7.074,0,0,1,77.21,276.988Z" transform="translate(7513.914 3413.037)" fill="#727478"/>
        <path id="Trazado_627683" data-name="Trazado 627683" d="M32.827,312.58V301.127H28.32V298.99H39.855v2.137H35.348V312.58Z" transform="translate(7497.716 3426.272)" fill="#727478"/>
        <path id="Trazado_627684" data-name="Trazado 627684" d="M40.883,311.878a4.977,4.977,0,0,1-2.041-.4,3.006,3.006,0,0,1-1.343-1.11,2.83,2.83,0,0,1-.479-1.6,3.037,3.037,0,0,1,.411-1.576,2.834,2.834,0,0,1,1.37-1.11,6.453,6.453,0,0,1,2.521-.411h3.014v1.617H41.514a2.582,2.582,0,0,0-1.671.4,1.342,1.342,0,0,0,.1,2.041,2.376,2.376,0,0,0,1.452.384,3.173,3.173,0,0,0,1.6-.411,2.263,2.263,0,0,0,1.014-1.206l.411,1.452a2.662,2.662,0,0,1-1.247,1.411A4.6,4.6,0,0,1,40.883,311.878Zm3.261-.137v-2.1l-.137-.452v-3.672a2.156,2.156,0,0,0-.644-1.658,2.755,2.755,0,0,0-1.945-.589,5.665,5.665,0,0,0-1.712.274,4.268,4.268,0,0,0-1.425.753l-.945-1.767a5.957,5.957,0,0,1,1.986-.959,8.724,8.724,0,0,1,2.4-.315,5.067,5.067,0,0,1,3.48,1.082,4.175,4.175,0,0,1,1.233,3.329v6.083H44.144Z" transform="translate(7500.935 3427.112)" fill="#727478"/>
        <path id="Trazado_627685" data-name="Trazado 627685" d="M46.16,311.744V301.373h2.315v2.85l-.274-.836a3.246,3.246,0,0,1,1.466-1.589,5.244,5.244,0,0,1,2.493-.548v2.315c-.11-.027-.205-.041-.288-.055a1.746,1.746,0,0,0-.274-.014,3,3,0,0,0-2.192.808,3.22,3.22,0,0,0-.822,2.4v5.028H46.16Z" transform="translate(7504.316 3427.108)" fill="#727478"/>
        <path id="Trazado_627686" data-name="Trazado 627686" d="M57.077,311.878a6.355,6.355,0,0,1-3.014-.685,5.023,5.023,0,0,1-2-1.891,5.24,5.24,0,0,1-.712-2.74,5.422,5.422,0,0,1,.685-2.74,4.917,4.917,0,0,1,1.9-1.877,5.563,5.563,0,0,1,2.767-.685,5.468,5.468,0,0,1,2.7.658,4.689,4.689,0,0,1,1.863,1.863,5.717,5.717,0,0,1,.685,2.836,2.981,2.981,0,0,1-.014.343,3.359,3.359,0,0,1-.027.37H53.268v-1.617h7.357l-.945.507a2.982,2.982,0,0,0-.37-1.575,2.923,2.923,0,0,0-1.055-1.069,3.019,3.019,0,0,0-1.548-.384,3.071,3.071,0,0,0-1.562.384,2.764,2.764,0,0,0-1.055,1.082,3.244,3.244,0,0,0-.384,1.617v.384a3.129,3.129,0,0,0,.425,1.644,2.864,2.864,0,0,0,1.206,1.11,3.914,3.914,0,0,0,1.781.384,4.365,4.365,0,0,0,1.575-.274,3.431,3.431,0,0,0,1.247-.849l1.3,1.493a4.51,4.51,0,0,1-1.754,1.247A5.825,5.825,0,0,1,57.077,311.878Z" transform="translate(7506.237 3427.112)" fill="#727478"/>
        <path id="Trazado_627687" data-name="Trazado 627687" d="M63.893,311.878a4.977,4.977,0,0,1-2.041-.4,3.006,3.006,0,0,1-1.343-1.11,2.83,2.83,0,0,1-.479-1.6,3.037,3.037,0,0,1,.411-1.576,2.834,2.834,0,0,1,1.37-1.11,6.453,6.453,0,0,1,2.521-.411h3.014v1.617H64.51a2.582,2.582,0,0,0-1.671.4,1.342,1.342,0,0,0,.1,2.041,2.376,2.376,0,0,0,1.452.384,3.173,3.173,0,0,0,1.6-.411A2.263,2.263,0,0,0,67,308.494l.411,1.452a2.662,2.662,0,0,1-1.247,1.411A4.469,4.469,0,0,1,63.893,311.878Zm3.274-.137v-2.1l-.137-.452v-3.672a2.156,2.156,0,0,0-.644-1.658,2.755,2.755,0,0,0-1.945-.589,5.665,5.665,0,0,0-1.712.274,4.268,4.268,0,0,0-1.425.753l-.945-1.767a5.957,5.957,0,0,1,1.986-.959,8.724,8.724,0,0,1,2.4-.315,5.067,5.067,0,0,1,3.48,1.082,4.175,4.175,0,0,1,1.233,3.329v6.083H67.168Z" transform="translate(7509.448 3427.112)" fill="#727478"/>
        <path id="Trazado_627688" data-name="Trazado 627688" d="M78.427,312.828a6.091,6.091,0,0,1-3.165-.781,5.068,5.068,0,0,1-2.014-2.288,8.67,8.67,0,0,1-.7-3.685,8.479,8.479,0,0,1,.849-3.946,5.871,5.871,0,0,1,2.343-2.452,6.942,6.942,0,0,1,3.466-.836,8.454,8.454,0,0,1,1.973.219,4.48,4.48,0,0,1,1.6.658l-.932,1.9a3.86,3.86,0,0,0-1.219-.521,6.36,6.36,0,0,0-1.37-.151,4,4,0,0,0-3.055,1.192,4.892,4.892,0,0,0-1.123,3.493c0,.247,0,.534.014.863a5.158,5.158,0,0,0,.137,1l-.781-.849a3.646,3.646,0,0,1,.959-1.329,4.064,4.064,0,0,1,1.452-.808,6.065,6.065,0,0,1,1.836-.274,5.17,5.17,0,0,1,2.384.521,4.1,4.1,0,0,1,1.671,1.452,3.925,3.925,0,0,1,.616,2.206,4.111,4.111,0,0,1-.658,2.329,4.412,4.412,0,0,1-1.781,1.534A5.526,5.526,0,0,1,78.427,312.828Zm-.137-1.986a3.205,3.205,0,0,0,1.384-.288,2.268,2.268,0,0,0,.945-.808,2.122,2.122,0,0,0,.342-1.219,2.077,2.077,0,0,0-.74-1.685,3,3,0,0,0-1.986-.617,3.118,3.118,0,0,0-1.425.3,2.6,2.6,0,0,0-.973.822,2.018,2.018,0,0,0-.356,1.206,2.157,2.157,0,0,0,.329,1.151,2.214,2.214,0,0,0,.959.836A3.422,3.422,0,0,0,78.29,310.841Z" transform="translate(7514.081 3426.216)" fill="#727478"/>
        <path id="Trazado_627689" data-name="Trazado 627689" d="M32.827,348.36V336.907H28.32V334.77H39.855v2.137H35.348V348.36Z" transform="translate(7497.716 3439.51)" fill="#727478"/>
        <path id="Trazado_627690" data-name="Trazado 627690" d="M40.883,347.658a4.977,4.977,0,0,1-2.041-.4,3.006,3.006,0,0,1-1.343-1.11,2.83,2.83,0,0,1-.479-1.6,3.037,3.037,0,0,1,.411-1.575,2.835,2.835,0,0,1,1.37-1.11,6.451,6.451,0,0,1,2.521-.411h3.014v1.617H41.514a2.582,2.582,0,0,0-1.671.4,1.342,1.342,0,0,0,.1,2.041,2.376,2.376,0,0,0,1.452.384,3.172,3.172,0,0,0,1.6-.411,2.263,2.263,0,0,0,1.014-1.206l.411,1.452a2.662,2.662,0,0,1-1.247,1.411A4.454,4.454,0,0,1,40.883,347.658Zm3.261-.137v-2.1l-.137-.452V341.3a2.156,2.156,0,0,0-.644-1.658,2.755,2.755,0,0,0-1.945-.589,5.664,5.664,0,0,0-1.712.274,4.269,4.269,0,0,0-1.425.753l-.945-1.767a5.957,5.957,0,0,1,1.986-.959,8.724,8.724,0,0,1,2.4-.315,5.067,5.067,0,0,1,3.48,1.082,4.175,4.175,0,0,1,1.233,3.329v6.083H44.144Z" transform="translate(7500.935 3440.35)" fill="#727478"/>
        <path id="Trazado_627691" data-name="Trazado 627691" d="M46.16,347.524V337.153h2.315V340l-.274-.836a3.246,3.246,0,0,1,1.466-1.589,5.243,5.243,0,0,1,2.493-.548v2.315c-.11-.027-.205-.041-.288-.055a1.746,1.746,0,0,0-.274-.014,3,3,0,0,0-2.192.808,3.22,3.22,0,0,0-.822,2.4v5.028H46.16Z" transform="translate(7504.316 3440.347)" fill="#727478"/>
        <path id="Trazado_627692" data-name="Trazado 627692" d="M57.077,347.658a6.355,6.355,0,0,1-3.014-.685,5.023,5.023,0,0,1-2-1.891,5.24,5.24,0,0,1-.712-2.74,5.422,5.422,0,0,1,.685-2.74,4.917,4.917,0,0,1,1.9-1.877,5.563,5.563,0,0,1,2.767-.685,5.468,5.468,0,0,1,2.7.658,4.688,4.688,0,0,1,1.863,1.863,5.717,5.717,0,0,1,.685,2.836,2.981,2.981,0,0,1-.014.342,3.359,3.359,0,0,1-.027.37H53.268v-1.617h7.357L59.68,342a2.982,2.982,0,0,0-.37-1.576,2.923,2.923,0,0,0-1.055-1.069,3.019,3.019,0,0,0-1.548-.384,3.07,3.07,0,0,0-1.562.384,2.764,2.764,0,0,0-1.055,1.082,3.244,3.244,0,0,0-.384,1.617v.384a3.129,3.129,0,0,0,.425,1.644,2.865,2.865,0,0,0,1.206,1.11,3.914,3.914,0,0,0,1.781.384,4.366,4.366,0,0,0,1.575-.274,3.429,3.429,0,0,0,1.247-.849l1.3,1.493a4.51,4.51,0,0,1-1.754,1.247A5.826,5.826,0,0,1,57.077,347.658Z" transform="translate(7506.237 3440.35)" fill="#727478"/>
        <path id="Trazado_627693" data-name="Trazado 627693" d="M63.893,347.658a4.977,4.977,0,0,1-2.041-.4,3.006,3.006,0,0,1-1.343-1.11,2.83,2.83,0,0,1-.479-1.6,3.037,3.037,0,0,1,.411-1.575,2.835,2.835,0,0,1,1.37-1.11,6.451,6.451,0,0,1,2.521-.411h3.014v1.617H64.51a2.582,2.582,0,0,0-1.671.4,1.342,1.342,0,0,0,.1,2.041,2.376,2.376,0,0,0,1.452.384,3.172,3.172,0,0,0,1.6-.411A2.263,2.263,0,0,0,67,344.274l.411,1.452a2.662,2.662,0,0,1-1.247,1.411A4.335,4.335,0,0,1,63.893,347.658Zm3.274-.137v-2.1l-.137-.452V341.3a2.156,2.156,0,0,0-.644-1.658,2.755,2.755,0,0,0-1.945-.589,5.664,5.664,0,0,0-1.712.274,4.269,4.269,0,0,0-1.425.753l-.945-1.767a5.957,5.957,0,0,1,1.986-.959,8.724,8.724,0,0,1,2.4-.315,5.067,5.067,0,0,1,3.48,1.082,4.175,4.175,0,0,1,1.233,3.329v6.083H67.168Z" transform="translate(7509.448 3440.35)" fill="#727478"/>
        <path id="Trazado_627694" data-name="Trazado 627694" d="M74.892,348.36l5.617-12.577.658,1.123h-7.7l1.206-1.219v3.535H72.33V334.77H82.893v1.685L77.618,348.36Z" transform="translate(7513.999 3439.51)" fill="#727478"/>
        <path id="Trazado_627695" data-name="Trazado 627695" d="M32.827,384.14V372.687H28.32V370.55H39.855v2.137H35.348V384.14Z" transform="translate(7497.716 3452.749)" fill="#727478"/>
        <path id="Trazado_627696" data-name="Trazado 627696" d="M40.883,383.437a4.977,4.977,0,0,1-2.041-.4,3.006,3.006,0,0,1-1.343-1.11,2.8,2.8,0,0,1-.479-1.6,3.072,3.072,0,0,1,.411-1.576,2.834,2.834,0,0,1,1.37-1.11,6.453,6.453,0,0,1,2.521-.411h3.014v1.617H41.514a2.582,2.582,0,0,0-1.671.4,1.267,1.267,0,0,0-.425.986,1.225,1.225,0,0,0,.521,1.041,2.376,2.376,0,0,0,1.452.384,3.173,3.173,0,0,0,1.6-.411,2.263,2.263,0,0,0,1.014-1.206l.411,1.452a2.74,2.74,0,0,1-1.247,1.425A4.454,4.454,0,0,1,40.883,383.437Zm3.261-.137v-2.1l-.137-.452v-3.672a2.156,2.156,0,0,0-.644-1.658,2.755,2.755,0,0,0-1.945-.589,5.665,5.665,0,0,0-1.712.274,4.268,4.268,0,0,0-1.425.753l-.945-1.767a5.705,5.705,0,0,1,1.986-.959,8.723,8.723,0,0,1,2.4-.315A5.067,5.067,0,0,1,45.2,373.9a4.175,4.175,0,0,1,1.233,3.329V383.3Z" transform="translate(7500.935 3453.589)" fill="#727478"/>
        <path id="Trazado_627697" data-name="Trazado 627697" d="M46.16,383.3V372.933h2.315v2.85l-.274-.836a3.247,3.247,0,0,1,1.466-1.589,5.244,5.244,0,0,1,2.493-.548v2.315c-.11-.027-.205-.041-.288-.055s-.178-.014-.274-.014a3,3,0,0,0-2.192.808,3.22,3.22,0,0,0-.822,2.4v5.028H46.16Z" transform="translate(7504.316 3453.585)" fill="#727478"/>
        <path id="Trazado_627698" data-name="Trazado 627698" d="M57.077,383.437a6.354,6.354,0,0,1-3.014-.685,5.118,5.118,0,0,1-2-1.891,5.24,5.24,0,0,1-.712-2.74,5.422,5.422,0,0,1,.685-2.74,4.916,4.916,0,0,1,1.9-1.877,5.563,5.563,0,0,1,2.767-.685,5.469,5.469,0,0,1,2.7.658,4.777,4.777,0,0,1,1.863,1.863,5.716,5.716,0,0,1,.685,2.836,2.982,2.982,0,0,1-.014.343,3.36,3.36,0,0,1-.027.37H53.268v-1.617h7.357l-.945.507a2.982,2.982,0,0,0-.37-1.575,2.923,2.923,0,0,0-1.055-1.069,3.02,3.02,0,0,0-1.548-.384,3.071,3.071,0,0,0-1.562.384,2.764,2.764,0,0,0-1.055,1.082,3.4,3.4,0,0,0-.384,1.617v.384a3.178,3.178,0,0,0,.425,1.658,2.865,2.865,0,0,0,1.206,1.11,3.914,3.914,0,0,0,1.781.384,4.366,4.366,0,0,0,1.575-.274,3.43,3.43,0,0,0,1.247-.849l1.3,1.493a4.51,4.51,0,0,1-1.754,1.247A6.056,6.056,0,0,1,57.077,383.437Z" transform="translate(7506.237 3453.589)" fill="#727478"/>
        <path id="Trazado_627699" data-name="Trazado 627699" d="M63.893,383.437a4.977,4.977,0,0,1-2.041-.4,3.006,3.006,0,0,1-1.343-1.11,2.8,2.8,0,0,1-.479-1.6,3.072,3.072,0,0,1,.411-1.576,2.834,2.834,0,0,1,1.37-1.11,6.453,6.453,0,0,1,2.521-.411h3.014v1.617H64.51a2.583,2.583,0,0,0-1.671.4,1.267,1.267,0,0,0-.425.986,1.225,1.225,0,0,0,.521,1.041,2.376,2.376,0,0,0,1.452.384,3.173,3.173,0,0,0,1.6-.411A2.263,2.263,0,0,0,67,380.04l.411,1.452a2.74,2.74,0,0,1-1.247,1.425A4.335,4.335,0,0,1,63.893,383.437Zm3.274-.137v-2.1l-.137-.452v-3.672a2.156,2.156,0,0,0-.644-1.658,2.755,2.755,0,0,0-1.945-.589,5.665,5.665,0,0,0-1.712.274,4.268,4.268,0,0,0-1.425.753l-.945-1.767a5.7,5.7,0,0,1,1.986-.959,8.723,8.723,0,0,1,2.4-.315,5.067,5.067,0,0,1,3.48,1.082,4.175,4.175,0,0,1,1.233,3.329V383.3Z" transform="translate(7509.448 3453.589)" fill="#727478"/>
        <path id="Trazado_627700" data-name="Trazado 627700" d="M78.025,384.384a7.635,7.635,0,0,1-2.932-.507,4.4,4.4,0,0,1-1.918-1.425,3.576,3.576,0,0,1-.685-2.165,3.357,3.357,0,0,1,.658-2.1,4.01,4.01,0,0,1,1.9-1.3,8.7,8.7,0,0,1,2.973-.452,8.838,8.838,0,0,1,2.987.452,4.073,4.073,0,0,1,1.918,1.315,3.272,3.272,0,0,1,.671,2.082,3.576,3.576,0,0,1-.685,2.165,4.379,4.379,0,0,1-1.945,1.425A7.755,7.755,0,0,1,78.025,384.384Zm0-6.617a7.877,7.877,0,0,1-2.7-.411,3.742,3.742,0,0,1-1.74-1.219,3.075,3.075,0,0,1-.616-1.932,3.239,3.239,0,0,1,.63-2.014,4.134,4.134,0,0,1,1.781-1.315,7.776,7.776,0,0,1,5.3,0,4.029,4.029,0,0,1,1.781,1.315,3.248,3.248,0,0,1,.644,2.014,3.075,3.075,0,0,1-.616,1.932,3.785,3.785,0,0,1-1.754,1.219A8.071,8.071,0,0,1,78.025,377.767Zm0,4.644a3.806,3.806,0,0,0,2.219-.575,1.974,1.974,0,0,0,0-3.206,3.806,3.806,0,0,0-2.219-.575,3.685,3.685,0,0,0-2.192.575,1.849,1.849,0,0,0-.795,1.589,1.9,1.9,0,0,0,.795,1.617A3.591,3.591,0,0,0,78.025,382.411Zm0-6.192a3.052,3.052,0,0,0,1.9-.521,1.636,1.636,0,0,0,.7-1.384,1.613,1.613,0,0,0-.712-1.411,3.166,3.166,0,0,0-1.877-.507,3.093,3.093,0,0,0-1.863.507,1.757,1.757,0,0,0-.014,2.795A3.011,3.011,0,0,0,78.025,376.219Z" transform="translate(7514.059 3452.697)" fill="#727478"/>
        <path id="Trazado_627701" data-name="Trazado 627701" d="M32.827,419.92V408.467H28.32V406.33H39.855v2.137H35.348V419.92Z" transform="translate(7497.716 3465.988)" fill="#727478"/>
        <path id="Trazado_627702" data-name="Trazado 627702" d="M40.883,419.218a4.978,4.978,0,0,1-2.041-.4,3.006,3.006,0,0,1-1.343-1.11,2.83,2.83,0,0,1-.479-1.6,3.037,3.037,0,0,1,.411-1.576,2.835,2.835,0,0,1,1.37-1.11,6.453,6.453,0,0,1,2.521-.411h3.014v1.617H41.514a2.582,2.582,0,0,0-1.671.4,1.342,1.342,0,0,0,.1,2.041,2.376,2.376,0,0,0,1.452.384,3.173,3.173,0,0,0,1.6-.411,2.263,2.263,0,0,0,1.014-1.206l.411,1.452a2.662,2.662,0,0,1-1.247,1.411A4.453,4.453,0,0,1,40.883,419.218Zm3.261-.137v-2.1l-.137-.452v-3.672a2.156,2.156,0,0,0-.644-1.658,2.755,2.755,0,0,0-1.945-.589,5.666,5.666,0,0,0-1.712.274,4.269,4.269,0,0,0-1.425.754l-.945-1.767a5.957,5.957,0,0,1,1.986-.959,8.725,8.725,0,0,1,2.4-.315,5.067,5.067,0,0,1,3.48,1.082,4.175,4.175,0,0,1,1.233,3.329v6.083H44.144Z" transform="translate(7500.935 3466.827)" fill="#727478"/>
        <path id="Trazado_627703" data-name="Trazado 627703" d="M46.16,419.084V408.713h2.315v2.85l-.274-.836a3.246,3.246,0,0,1,1.466-1.589,5.244,5.244,0,0,1,2.493-.548v2.315c-.11-.027-.205-.041-.288-.055a1.743,1.743,0,0,0-.274-.014,3,3,0,0,0-2.192.808,3.22,3.22,0,0,0-.822,2.4v5.028H46.16Z" transform="translate(7504.316 3466.824)" fill="#727478"/>
        <path id="Trazado_627704" data-name="Trazado 627704" d="M57.077,419.218a6.355,6.355,0,0,1-3.014-.685,5.022,5.022,0,0,1-2-1.891,5.24,5.24,0,0,1-.712-2.74,5.422,5.422,0,0,1,.685-2.74,4.917,4.917,0,0,1,1.9-1.877,5.563,5.563,0,0,1,2.767-.685,5.468,5.468,0,0,1,2.7.658,4.688,4.688,0,0,1,1.863,1.863,5.717,5.717,0,0,1,.685,2.836,2.981,2.981,0,0,1-.014.343,3.358,3.358,0,0,1-.027.37H53.268v-1.617h7.357l-.945.507a2.982,2.982,0,0,0-.37-1.576,2.923,2.923,0,0,0-1.055-1.069,3.019,3.019,0,0,0-1.548-.384,3.07,3.07,0,0,0-1.562.384A2.764,2.764,0,0,0,54.09,412a3.244,3.244,0,0,0-.384,1.617V414a3.129,3.129,0,0,0,.425,1.644,2.865,2.865,0,0,0,1.206,1.11,3.914,3.914,0,0,0,1.781.384,4.366,4.366,0,0,0,1.575-.274,3.43,3.43,0,0,0,1.247-.849l1.3,1.493a4.51,4.51,0,0,1-1.754,1.247A5.615,5.615,0,0,1,57.077,419.218Z" transform="translate(7506.237 3466.827)" fill="#727478"/>
        <path id="Trazado_627705" data-name="Trazado 627705" d="M63.893,419.218a4.978,4.978,0,0,1-2.041-.4,3.006,3.006,0,0,1-1.343-1.11,2.83,2.83,0,0,1-.479-1.6,3.037,3.037,0,0,1,.411-1.576,2.835,2.835,0,0,1,1.37-1.11,6.453,6.453,0,0,1,2.521-.411h3.014v1.617H64.51a2.582,2.582,0,0,0-1.671.4,1.342,1.342,0,0,0,.1,2.041,2.376,2.376,0,0,0,1.452.384,3.173,3.173,0,0,0,1.6-.411A2.263,2.263,0,0,0,67,415.834l.411,1.452a2.662,2.662,0,0,1-1.247,1.411A4.334,4.334,0,0,1,63.893,419.218Zm3.274-.137v-2.1l-.137-.452v-3.672a2.156,2.156,0,0,0-.644-1.658,2.755,2.755,0,0,0-1.945-.589,5.666,5.666,0,0,0-1.712.274,4.269,4.269,0,0,0-1.425.754l-.945-1.767a5.957,5.957,0,0,1,1.986-.959,8.725,8.725,0,0,1,2.4-.315,5.067,5.067,0,0,1,3.48,1.082,4.175,4.175,0,0,1,1.233,3.329v6.083H67.168Z" transform="translate(7509.448 3466.827)" fill="#727478"/>
        <path id="Trazado_627706" data-name="Trazado 627706" d="M77.237,406.19a6.107,6.107,0,0,1,3.178.781,5.1,5.1,0,0,1,2.014,2.274,8.67,8.67,0,0,1,.7,3.685,8.48,8.48,0,0,1-.849,3.946,5.871,5.871,0,0,1-2.343,2.452,6.959,6.959,0,0,1-3.48.836,8.255,8.255,0,0,1-1.959-.219,4.772,4.772,0,0,1-1.617-.658l.932-1.9a3.861,3.861,0,0,0,1.219.521,6.329,6.329,0,0,0,1.356.151,3.993,3.993,0,0,0,3.041-1.178,4.892,4.892,0,0,0,1.123-3.493c0-.247,0-.534-.014-.863a5.155,5.155,0,0,0-.137-1l.781.849a3.464,3.464,0,0,1-.945,1.329,4.184,4.184,0,0,1-1.452.808,6.027,6.027,0,0,1-1.849.274,5.249,5.249,0,0,1-2.384-.521,4.232,4.232,0,0,1-1.685-1.452,3.925,3.925,0,0,1-.617-2.206,4.125,4.125,0,0,1,.658-2.343,4.334,4.334,0,0,1,1.795-1.521A6.012,6.012,0,0,1,77.237,406.19Zm.137,1.987a3.2,3.2,0,0,0-1.384.288,2.34,2.34,0,0,0-.945.795,2.137,2.137,0,0,0-.342,1.233,2.077,2.077,0,0,0,.74,1.685,3,3,0,0,0,1.986.616,3.178,3.178,0,0,0,1.439-.3,2.422,2.422,0,0,0,.973-.836,2.125,2.125,0,0,0,.342-1.192,2.09,2.09,0,0,0-.329-1.151,2.322,2.322,0,0,0-.945-.822A3.438,3.438,0,0,0,77.374,408.177Z" transform="translate(7513.97 3465.936)" fill="#727478"/>
        <path id="Trazado_643370" data-name="Trazado 643370" d="M4.685,0A4.685,4.685,0,1,1,0,4.685,4.685,4.685,0,0,1,4.685,0Z" transform="translate(7714.205 3480.087)" fill="#fff"/>
        <path id="Trazado_627707" data-name="Trazado 627707" d="M176.86,127.876V120.19h3.356a4.828,4.828,0,0,1,2.192.479,3.571,3.571,0,0,1,1.466,1.343,4.156,4.156,0,0,1,0,4.028,3.564,3.564,0,0,1-1.466,1.343,4.657,4.657,0,0,1-2.192.479H176.86Zm1.425-1.206h1.863a3.162,3.162,0,0,0,1.493-.329,2.332,2.332,0,0,0,.973-.918,2.659,2.659,0,0,0,.343-1.384,2.626,2.626,0,0,0-.343-1.384,2.415,2.415,0,0,0-.973-.918,3.162,3.162,0,0,0-1.493-.329h-1.863Z" transform="translate(7552.675 3360.117)" fill="#fff"/>
        <path id="Trazado_627708" data-name="Trazado 627708" d="M183.21,121.337l1.48-1.507h1.617l-1.9,1.507Zm.233,6.672v-5.864h1.37v5.864Z" transform="translate(7555.024 3359.983)" fill="#fff"/>
        <path id="Trazado_627709" data-name="Trazado 627709" d="M187.572,127.471a2.738,2.738,0,0,1-1.151-.219,1.755,1.755,0,0,1-.767-.63,1.6,1.6,0,0,1-.274-.9,1.761,1.761,0,0,1,.233-.89,1.636,1.636,0,0,1,.767-.63,3.722,3.722,0,0,1,1.425-.233h1.7v.918h-1.6a1.445,1.445,0,0,0-.945.219.709.709,0,0,0-.247.548.671.671,0,0,0,.3.589,1.305,1.305,0,0,0,.822.219,1.775,1.775,0,0,0,.9-.233,1.359,1.359,0,0,0,.575-.685l.233.822a1.494,1.494,0,0,1-.712.795A2.178,2.178,0,0,1,187.572,127.471Zm1.85-.069V126.21l-.082-.247v-2.069a1.281,1.281,0,0,0-.356-.945,1.588,1.588,0,0,0-1.1-.329,3.353,3.353,0,0,0-.973.151,2.386,2.386,0,0,0-.808.425l-.534-1a3.186,3.186,0,0,1,1.123-.548,4.981,4.981,0,0,1,1.356-.178,2.953,2.953,0,0,1,1.973.6,2.361,2.361,0,0,1,.7,1.877v3.439h-1.3Z" transform="translate(7555.828 3360.59)" fill="#fff"/>
        <path id="Trazado_627710" data-name="Trazado 627710" d="M192.54,127.471a5.316,5.316,0,0,1-1.411-.192,3.559,3.559,0,0,1-1.069-.466l.521-1.041a4.106,4.106,0,0,0,2.041.575,1.8,1.8,0,0,0,.932-.178.538.538,0,0,0,.288-.466.42.42,0,0,0-.192-.37,1.534,1.534,0,0,0-.521-.192c-.206-.041-.452-.082-.712-.123a7.833,7.833,0,0,1-.781-.151,2.482,2.482,0,0,1-.712-.274,1.625,1.625,0,0,1-.521-.493,1.444,1.444,0,0,1-.192-.808,1.59,1.59,0,0,1,.315-.973,1.982,1.982,0,0,1,.891-.63,3.733,3.733,0,0,1,1.37-.219,5.054,5.054,0,0,1,1.192.137,3.05,3.05,0,0,1,1,.37l-.521,1.041a2.7,2.7,0,0,0-.836-.342,4.467,4.467,0,0,0-.836-.1,1.855,1.855,0,0,0-.932.192.542.542,0,0,0-.3.466.469.469,0,0,0,.192.4,1.871,1.871,0,0,0,.521.206,4.787,4.787,0,0,0,.712.123,4.75,4.75,0,0,1,.767.151,2.959,2.959,0,0,1,.712.274,1.347,1.347,0,0,1,.521.479,1.4,1.4,0,0,1,.192.795,1.481,1.481,0,0,1-.329.959,2.074,2.074,0,0,1-.918.63A3.663,3.663,0,0,1,192.54,127.471Z" transform="translate(7557.559 3360.59)" fill="#fff"/>
        <path id="Trazado_627711" data-name="Trazado 627711" d="M199.5,128.07a2.987,2.987,0,0,1-1.521-.384,2.607,2.607,0,0,1-1.055-1.055,3.087,3.087,0,0,1-.384-1.576,3.052,3.052,0,0,1,.384-1.576,2.659,2.659,0,0,1,1.055-1.041,3.123,3.123,0,0,1,1.521-.37,2.6,2.6,0,0,1,1.315.329,2.293,2.293,0,0,1,.918.986,3.581,3.581,0,0,1,.342,1.685,3.766,3.766,0,0,1-.329,1.685,2.324,2.324,0,0,1-.918,1A2.761,2.761,0,0,1,199.5,128.07Zm.164-1.165a1.683,1.683,0,0,0,1.521-.849,2.176,2.176,0,0,0,0-1.959,1.737,1.737,0,0,0-.63-.63,1.718,1.718,0,0,0-.89-.219,1.635,1.635,0,0,0-.877.219,1.848,1.848,0,0,0-.63.63,1.879,1.879,0,0,0-.233.986,2,2,0,0,0,.233.973,1.551,1.551,0,0,0,.63.63A1.807,1.807,0,0,0,199.664,126.905Zm1.781,1.1v-1.384l.055-1.562-.11-1.562V119.85h1.356v8.138h-1.3Z" transform="translate(7559.957 3359.991)" fill="#fff"/>
        <path id="Trazado_627712" data-name="Trazado 627712" d="M205.277,127.467a3.588,3.588,0,0,1-1.712-.384,2.854,2.854,0,0,1-1.137-1.069,2.93,2.93,0,0,1-.4-1.548,3.019,3.019,0,0,1,.384-1.548,2.728,2.728,0,0,1,1.069-1.055,3.341,3.341,0,0,1,3.083-.014,2.786,2.786,0,0,1,1.055,1.055,3.155,3.155,0,0,1,.384,1.6v.192c0,.068-.014.137-.014.205h-4.877V124h4.165l-.534.288a1.713,1.713,0,0,0-.205-.89,1.592,1.592,0,0,0-.6-.6,1.668,1.668,0,0,0-.877-.219,1.718,1.718,0,0,0-.89.219,1.557,1.557,0,0,0-.589.6,1.934,1.934,0,0,0-.219.918v.219a1.753,1.753,0,0,0,.247.932,1.608,1.608,0,0,0,.685.63,2.167,2.167,0,0,0,1.014.219,2.581,2.581,0,0,0,.89-.151,1.829,1.829,0,0,0,.7-.48l.74.849a2.615,2.615,0,0,1-.986.712A4.224,4.224,0,0,1,205.277,127.467Z" transform="translate(7561.988 3360.594)" fill="#fff"/>
        <path id="Trazado_627713" data-name="Trazado 627713" d="M209.01,123.009v-1.1h3.9v1.1ZM212,127.8a2.111,2.111,0,0,1-1.493-.493,1.912,1.912,0,0,1-.521-1.48V120.57h1.37v5.22a.875.875,0,0,0,.219.644.784.784,0,0,0,.6.233,1.2,1.2,0,0,0,.767-.247l.384.973a1.6,1.6,0,0,1-.589.3A2.308,2.308,0,0,1,212,127.8Z" transform="translate(7564.57 3360.257)" fill="#fff"/>
        <path id="Trazado_627714" data-name="Trazado 627714" d="M214.862,127.471a2.739,2.739,0,0,1-1.151-.219,1.756,1.756,0,0,1-.767-.63,1.6,1.6,0,0,1-.274-.9,1.761,1.761,0,0,1,.233-.891,1.637,1.637,0,0,1,.767-.63,3.722,3.722,0,0,1,1.425-.233h1.7v.918h-1.6a1.445,1.445,0,0,0-.945.219.71.71,0,0,0-.247.548.67.67,0,0,0,.3.589,1.305,1.305,0,0,0,.822.219,1.775,1.775,0,0,0,.9-.233,1.359,1.359,0,0,0,.575-.685l.233.822a1.494,1.494,0,0,1-.712.795A2.178,2.178,0,0,1,214.862,127.471Zm1.836-.069V126.21l-.082-.247v-2.069a1.281,1.281,0,0,0-.356-.945,1.588,1.588,0,0,0-1.1-.329,3.352,3.352,0,0,0-.973.151,2.387,2.387,0,0,0-.808.425l-.534-1a3.186,3.186,0,0,1,1.123-.548,4.981,4.981,0,0,1,1.356-.178,2.952,2.952,0,0,1,1.973.6,2.361,2.361,0,0,1,.7,1.877v3.439h-1.3Z" transform="translate(7565.925 3360.59)" fill="#fff"/>
        <path id="Trazado_627715" data-name="Trazado 627715" d="M217.84,127.4v-5.864h1.3v1.617l-.151-.466a1.888,1.888,0,0,1,.822-.9,2.909,2.909,0,0,1,1.411-.3v1.3a.688.688,0,0,0-.164-.027h-.151a1.721,1.721,0,0,0-1.247.452,1.846,1.846,0,0,0-.466,1.356V127.4Z" transform="translate(7567.837 3360.594)" fill="#fff"/>
        <path id="Trazado_627716" data-name="Trazado 627716" d="M224.007,127.467a3.589,3.589,0,0,1-1.713-.384,2.854,2.854,0,0,1-1.137-1.069,2.93,2.93,0,0,1-.4-1.548,3.019,3.019,0,0,1,.384-1.548,2.728,2.728,0,0,1,1.069-1.055,3.341,3.341,0,0,1,3.082-.014,2.785,2.785,0,0,1,1.055,1.055,3.155,3.155,0,0,1,.384,1.6v.192c0,.068-.014.137-.014.205h-4.877V124h4.165l-.534.288a1.713,1.713,0,0,0-.205-.89,1.592,1.592,0,0,0-.6-.6,1.668,1.668,0,0,0-.877-.219,1.718,1.718,0,0,0-.89.219,1.557,1.557,0,0,0-.589.6,1.933,1.933,0,0,0-.219.918v.219a1.753,1.753,0,0,0,.247.932,1.608,1.608,0,0,0,.685.63,2.168,2.168,0,0,0,1.014.219,2.581,2.581,0,0,0,.89-.151,1.828,1.828,0,0,0,.7-.48l.74.849a2.614,2.614,0,0,1-.986.712A4.163,4.163,0,0,1,224.007,127.467Z" transform="translate(7568.918 3360.594)" fill="#fff"/>
        <path id="Trazado_627717" data-name="Trazado 627717" d="M227.872,127.471a2.739,2.739,0,0,1-1.151-.219,1.755,1.755,0,0,1-.767-.63,1.6,1.6,0,0,1-.274-.9,1.761,1.761,0,0,1,.233-.89,1.636,1.636,0,0,1,.767-.63,3.723,3.723,0,0,1,1.425-.233h1.7v.918h-1.6a1.445,1.445,0,0,0-.945.219.709.709,0,0,0-.247.548.67.67,0,0,0,.3.589,1.305,1.305,0,0,0,.822.219,1.776,1.776,0,0,0,.9-.233,1.359,1.359,0,0,0,.575-.685l.233.822a1.494,1.494,0,0,1-.712.795A2.208,2.208,0,0,1,227.872,127.471Zm1.836-.069V126.21l-.082-.247v-2.069a1.281,1.281,0,0,0-.356-.945,1.588,1.588,0,0,0-1.1-.329,3.352,3.352,0,0,0-.973.151,2.387,2.387,0,0,0-.808.425l-.534-1a3.186,3.186,0,0,1,1.123-.548,4.981,4.981,0,0,1,1.356-.178,2.952,2.952,0,0,1,1.973.6,2.361,2.361,0,0,1,.7,1.877v3.439h-1.3Z" transform="translate(7570.738 3360.59)" fill="#fff"/>
        <path id="Trazado_643371" data-name="Trazado 643371" d="M0,0H1001V534H0Z" transform="translate(7499 3441)" fill="none"/>
      </g>
    </g>
  </g>
</svg>
